v 3.88429477 -3.18775834 -4.15256033
v 4.42368479 -2.39310912 -4.15654761
v 4.28524352 -2.81684203 -3.17557596
v 7.68165299 -3.76977502 4.14831590
v 8.30670884 -3.93801690 4.86227642
v 7.21637349 -4.28380379 4.68024136
v -3.32343906 -3.66596775 -3.32212532
v -4.10707818 -2.74067480 -3.30685203
v -3.85362952 -3.16259201 -4.15119760
v 8.18947401 -2.72756244 12.94136402
v 7.52331374 -1.79205143 13.19127099
v 7.27607747 -2.74703200 12.55357873
v -4.59717961 -1.77517755 -3.26010969
v -4.50050575 -1.61689785 -1.99062846
v -4.77053570 -0.81091647 -2.45393836
v 7.62981165 -4.48131132 5.44363454
v 8.26220293 0.00000000 13.83088130
v 8.76392309 -1.03996587 13.88780976
v 9.19430645 0.00000000 14.13880671
v 1.59684392 -4.79235553 -2.85284195
v 0.69147233 -4.96510301 -3.29042823
v 1.45754728 -4.79190495 -4.09680021
v 2.32963129 -4.47145356 -3.46869590
v -4.34094307 -1.50126684 -0.90695204
v -4.08953150 -2.30867532 -1.35137175
v -4.17996901 -2.43842681 -2.32871128
v 7.81102621 -0.88419399 13.57882749
v 8.46819733 -1.98416820 13.46841122
v -3.29523811 -1.90364771 2.09671432
v -3.04678693 -1.67411151 2.92799001
v -3.54999986 -0.91758934 2.24623979
v 13.12217236 -4.45696784 7.59462936
v 14.05347832 -4.44266947 7.67064075
v 13.27136584 -4.80293944 8.49989363
v 14.13729040 -4.81513937 8.62570731
v 13.28721558 -4.98220984 9.47762753
v 3.68594105 -3.50630978 -3.33798062
v 14.15199100 -4.98877748 9.64064930
v -4.87644016 -0.69991016 -3.27943062
v -3.71930348 -3.15339192 -2.54023506
v 3.51306499 -0.95136722 11.26053180
v 3.28487813 -1.84662165 10.77152474
v 4.09972570 -1.89892034 11.31990798
v 14.07598468 -4.39135072 12.36625898
v 14.14500229 -3.85783944 13.16061955
v 13.11519495 -4.15008260 12.68855974
v -3.19052646 -0.83169383 3.14391382
v 3.88859534 0.00000000 11.62939225
v 4.45778001 -0.97579250 11.88268889
v 4.71794512 0.00000000 12.15457220
v 12.04531217 -1.69238446 4.86202054
v 12.54058067 -2.49795298 5.38134099
v 11.46711382 -2.47029786 5.04998188
v -4.64128942 -0.80059544 -1.58774962
v 2.43624442 -4.50087584 -2.43778265
v 3.10457451 -4.04488748 -3.00957401
v 6.67624874 -2.04631970 12.70282877
v 0.53962482 -4.97329725 -4.17406739
v -0.63243768 -4.95710619 -4.18770967
v 0.00000000 -5.00000000 -5.00000000
v 0.85786438 0.00000000 9.14213562
v 0.53236288 -0.92734108 8.68302065
v 1.25908162 -0.84754131 9.43253791
v 9.67511345 -0.86546756 14.19980100
v 6.84879705 -0.96990455 13.15951462
v 10.95837220 -2.52537386 13.88780215
v 10.22975332 -1.64933195 14.13448706
v 10.00721665 -2.60388536 13.61036813
v 3.09116178 -3.96009394 -4.03941634
v 3.53553391 -3.53553391 -5.00000000
v -0.40216404 -1.92046445 7.14822322
v 0.00492482 -1.45702574 7.90405966
v -0.69050505 -0.85236210 7.28356207
v 13.06525170 -1.60098916 5.07923498
v -1.44956713 -4.77858241 -4.15133084
v -0.98401009 -4.88091599 -3.20270872
v -0.14421569 -4.99496950 -3.44117048
v 6.10205247 -1.47090849 12.66424028
v 4.72775720 -1.94384734 -3.41815748
v 7.51441199 -1.29022483 1.88341165
v 6.87053313 -1.74274513 1.34673342
v 6.98412634 -0.79934387 1.08572736
v 2.73745097 -0.97229673 10.67868352
v 11.78748027 -3.20726680 5.69199941
v 2.31213432 0.00000000 10.46020907
v 3.08601391 0.00000000 11.06415063
v 12.67879706 -3.34021347 6.03795946
v 12.01136649 -3.85199007 6.42784995
v -1.07454150 -1.52086063 6.49733281
v 2.77785117 -4.15734806 -5.00000000
v -2.33206048 -0.81966896 4.84370478
v -2.77808664 -0.81836611 4.01371755
v -2.32776386 -1.71253921 4.36712626
v 2.48767776 -1.77608310 10.18238858
v 1.96066798 -0.86641662 10.06505709
v 1.74241125 -1.71903142 9.56493600
v 6.22143897 -2.25372984 0.82749756
v 6.42590093 -1.39808154 0.52389528
v 6.78435142 -4.04175641 3.82395932
v 5.91635586 -4.38035153 3.71621601
v 6.44043023 -3.74947295 2.96502467
v 13.26146941 -3.51549546 13.47383516
v 2.32788188 -2.51196959 9.58777775
v 3.00727231 -2.30288123 10.29752406
v 13.31263241 -4.59616369 11.88446794
v 5.55665465 -4.08267070 2.58686076
v 4.84355220 -4.60162097 3.18524179
v 4.68448761 -4.39101600 2.25024312
v -4.85127669 -1.08366843 -3.91046278
v 13.49772138 -0.80748512 4.95289641
v 14.07421125 -1.51388211 5.19273438
v 9.35568372 -1.89984051 13.79580374
v 0.18097749 0.00000000 8.43117910
v 9.85639406 -0.88879999 3.66846422
v 9.29285967 -1.79732904 3.61535948
v 9.03344265 -0.85588279 3.11674828
v 11.18418422 -1.63511329 14.35247863
v 3.02063761 -2.86719384 9.87149420
v 7.57497798 -0.55288200 1.74412525
v 5.88934917 -4.66445341 4.55065274
v 5.01699891 -4.78944645 4.18314890
v 10.28603263 0.00000000 3.81921264
v 9.44429767 0.00000000 3.31469612
v 6.44889813 0.00000000 13.07978586
v 7.34633135 0.00000000 13.47759065
v -3.16418879 -2.85570142 0.91904430
v -3.72125641 -2.15879398 0.49113218
v -3.37088171 -2.91664274 0.08324160
v 11.07130775 -3.79467335 6.06755688
v -3.25908250 -3.77765759 -4.22407849
v 0.01099158 -4.98793104 -1.70363837
v 0.94280387 -4.97809922 -1.31358342
v 0.12767119 -4.97624011 -0.68065716
v 4.94668320 -1.97120468 11.81951965
v 5.33346861 -3.80423864 1.68927284
v 11.26808250 -4.31391199 6.90069906
v 10.37798304 -4.26826500 6.50184981
v -1.61816094 -4.58848082 -1.48218607
v -1.70443944 -4.62860903 -2.49631184
v -0.85025796 -4.87584754 -2.13392263
v 5.18218456 -0.53925093 12.39093965
v -0.73754031 -4.85157371 -1.11813188
v -1.90716470 -4.59134507 -3.43127582
v 4.80251623 -1.48628313 -4.23668883
v 5.03203232 -0.91246341 -3.47489377
v -3.03639809 -3.66499623 -1.35437744
v -2.40283534 -4.22708523 -1.93583863
v -2.29971057 -4.15779963 -0.90757122
v -2.79561669 -1.48271174 3.62383604
v 13.46617747 -2.17578996 5.38557702
v 3.76364538 -2.63432499 10.63000365
v 10.70892170 -0.88623747 4.12010327
v -3.52407629 -2.10081402 1.20987031
v 3.78444002 -3.20909861 10.13080414
v 5.37380006 -1.24959075 12.34977933
v 1.04852232 -4.99169080 -0.33146868
v 1.11095279 -1.54029149 9.05087157
v -1.50098891 -4.53599125 -0.50026050
v -0.63955581 -4.80267952 -0.09470001
v 5.96874444 -0.77448335 12.77712575
v 4.49250944 -4.17078797 1.28237577
v 3.22864978 -4.10419800 -2.01385598
v 3.82828714 -3.51722584 -2.50810823
v -0.11134223 -0.65707511 8.03513345
v 8.10151241 -4.99907776 8.21132954
v 8.86577431 -4.90124742 7.59699635
v 9.00939145 -4.99803476 8.59878886
v 11.69815776 -4.99948729 9.70547597
v 12.46270133 -4.95005167 9.06804465
v 12.61074066 -4.99336523 10.06925988
v 5.62883636 -4.89094638 8.01603875
v 4.64800515 -4.82652427 7.59800362
v 5.40983446 -4.98086285 7.09673411
v 0.24882232 -4.95465388 0.29246297
v -3.14052162 -3.72241664 -2.31462342
v -2.66984457 -4.20421683 -3.86292842
v -2.77785117 -4.15734806 -5.00000000
v 5.25676566 -4.99427067 6.08818735
v 4.47585643 -4.94754209 6.68056136
v 4.85221172 -4.63587448 8.48055547
v -2.52443423 -4.23986253 -2.89671616
v 2.54644352 -4.91133910 4.94535826
v 2.70940039 -4.78341818 5.94209784
v 1.80085490 -4.63204848 5.52635979
v 3.96696617 -3.62708007 -1.55473499
v 1.15144514 -4.99988304 0.67386162
v 2.17128898 -4.12409380 7.37843311
v 1.97561270 -4.40784492 6.47800161
v 2.86302067 -4.59420088 6.86513932
v 8.64103816 -1.53013740 3.02613743
v 13.51729010 -4.97877213 10.38898420
v 4.48910130 -2.89303914 -2.03176006
v 4.64083116 -3.09578748 -1.08672819
v 5.09164781 -3.53436420 0.76469687
v 4.30885140 -3.96126267 0.33654734
v 10.53115816 -4.66615879 7.42437818
v 9.77610220 -4.89671814 7.97700242
v 11.17316568 0.00000000 4.23879533
v 3.66065427 -4.47570630 0.87536396
v 10.16736717 -3.77592334 5.67994604
v 11.08978797 -4.71399479 11.20162871
v 11.24382311 -4.32105521 12.10815709
v 10.31722461 -4.37958290 11.77081560
v -2.11164104 -4.52551732 -4.29989846
v -1.84999438 -1.56379783 5.30082886
v 11.59038000 -4.92534689 8.72194497
v 14.26819829 -4.97026137 10.52728453
v 0.81700073 -4.96859858 -2.28506272
v 11.85165382 -4.64481687 11.55413363
v 5.84818185 -1.95293823 -0.06589470
v 5.54101339 -2.79271900 0.32043594
v 7.31049097 -3.39604671 3.32145589
v 8.14034138 -3.04249056 3.64031462
v 11.61030229 -0.85367710 4.48597112
v 5.34706950 -3.40023206 10.97606693
v 4.45504157 -3.26691290 10.54623148
v 5.22603664 -3.92197177 10.23571935
v 6.47188282 -4.40993690 4.33449090
v -0.70915942 -2.39606276 6.36380332
v 6.58213670 -2.62239232 1.67450964
v 8.23135571 -4.94699842 9.19490612
v 12.55955521 -0.84965903 4.77261148
v 1.92886089 -4.90397811 0.08336227
v 1.80624681 -4.85654863 -0.91758566
v 2.67475137 -4.63437458 -0.49386328
v 4.12942667 -3.77605430 -0.61254511
v 6.39894424 -2.76444580 12.12798589
v 5.80323758 -2.01464283 12.28136250
v 5.53923252 -2.75111458 11.67866658
v 6.16125486 -4.97276934 6.46798052
v 5.01127915 -1.48072144 -2.81792813
v 9.63590681 -4.65609024 7.03652551
v 3.45119906 -4.97478272 5.34034673
v 12.36000316 -3.66966405 13.20569401
v 12.53162693 -2.97186666 13.86010418
v 10.17760266 -4.74303910 10.86556586
v -0.51052752 -4.74173347 0.87578665
v -0.33491303 -4.66858254 1.83716065
v -1.20673637 -4.36594744 1.43329857
v 9.13469602 -4.95060094 9.56444148
v 9.93262453 -4.99746151 8.94875981
v 10.03957071 -4.94797079 9.91625767
v 10.14039640 0.00000000 14.40062506
v 10.52964422 -2.48110096 4.67628809
v 9.69358413 -2.56600686 4.30146898
v 10.19896432 -1.73965834 4.12664566
v 5.84206063 -3.08164083 1.20582167
v 6.14837001 -3.40584828 2.08731285
v 10.63382852 -0.84754131 14.44344453
v 11.86443404 -2.35492401 14.15577609
v 6.56711724 -4.71783572 9.36334597
v 6.76749105 -4.41523272 10.26840950
v 5.82074755 -4.38026507 9.79482420
v 1.65287330 -4.79534561 4.55691791
v 0.77158894 -4.61626873 4.15811073
v 1.51383266 -4.90140398 3.58725641
v 3.82443814 -4.62617645 1.84077757
v 5.19214720 0.00000000 -3.04909678
v 5.24363162 -0.81939001 -2.51609499
v 12.09715323 0.00000000 4.56940336
v 11.45047121 -4.68903198 7.78045460
v 3.51215587 -4.32713365 -0.08573237
v 2.80410611 -4.72596905 0.47256028
v -0.87766127 -4.06645705 3.28506409
v -0.18113946 -4.55800881 2.77294873
v -0.06492254 -4.37763197 3.73842041
v 2.41123808 -4.97878598 3.97428008
v 4.83769717 -2.12705168 -2.45969181
v 12.10579595 -4.21750234 12.44722106
v 9.46688121 -4.29426047 6.14048356
v 5.04739532 -2.27445991 -1.50851049
v 0.63814244 -4.75748360 3.20074575
v -4.90392640 -0.97545161 -5.00000000
v -4.69061428 -1.69720405 -4.29763243
v 0.50871533 -4.85678732 2.21510443
v 1.39007609 -4.96428477 2.61724811
v 4.10036646 -4.89797501 3.77841552
v 11.09284776 -1.69182263 4.52468531
v -0.51784906 -3.53308594 5.14165024
v -0.28541870 -3.19794619 6.01982958
v -1.01347603 -2.78812856 5.50279963
v -1.02282380 -4.25463182 2.34574534
v 6.94945767 -2.99962744 2.49550676
v 2.54670959 -4.55850849 -1.46338575
v 2.94653987 -4.81880444 1.44034802
v 9.91933071 -3.20233965 4.93650255
v 9.42130232 -4.42582509 11.40371260
v 8.50627416 -4.44680769 11.01992877
v 9.26468212 -4.76057625 10.50174008
v 8.58013801 -4.35768500 5.78176664
v 9.26620154 -3.83144519 5.29898942
v 5.43059664 0.00000000 -2.09715323
v 13.04909678 0.00000000 4.80785280
v 3.36070192 -4.20335088 -1.04696799
v 7.31873629 -2.17185391 2.15339882
v 8.67506310 -3.97890152 11.88198241
v 3.07252039 -4.90745085 2.41115900
v -4.97590912 0.00000000 -4.01864651
v 8.73211870 -4.68048689 6.66385715
v 2.17259386 -4.98600752 2.02732374
v 3.96228488 -4.77499155 2.80234672
v -2.16258580 -4.07799913 0.06043772
v -1.99456023 -3.98275729 1.00068142
v -2.71130810 -3.50429990 0.56994428
v 4.61939766 -1.91341716 -5.00000000
v 1.68087533 -4.82221865 -1.88489422
v 4.23040071 -4.97741319 4.74677006
v 3.32515586 -4.99984383 4.35489460
v 14.18485333 -3.16912291 13.84976710
v 5.14073470 -4.92685968 5.14683721
v 2.05385533 -4.94965664 1.05524310
v 3.19592225 -4.97276859 3.38460095
v 0.31612859 -2.36261828 7.68856388
v 1.06800901 -2.75336319 8.17295763
v 0.68794744 -1.89728300 8.42932983
v 0.27291296 -3.88520578 5.60356318
v 5.04815273 0.00000000 -4.01982860
v 14.01982860 0.00000000 4.95184727
v -4.78353020 0.00000000 -2.06539051
v -4.61570561 0.00000000 -1.09819356
v 12.06539051 0.00000000 14.78353020
v 12.54378705 -0.81524625 14.78117997
v 13.03965719 0.00000000 14.90369453
v -3.66045413 -3.07931928 -1.76223324
v 11.43226453 -3.78909432 12.91043766
v 11.64556797 -3.12666187 13.60176200
v 5.51078201 -0.79955072 -1.64653547
v 10.82540502 -3.15225402 5.30541945
v 10.50531819 -3.87894472 12.58978385
v 11.84714140 -4.90421899 10.65974149
v 12.36011805 -4.73910893 8.14350680
v 10.93037547 -4.93056234 10.29835109
v 12.77616690 -4.84625260 11.07730736
v 12.20581039 -4.36931434 7.25462050
v 10.81089740 -4.99956264 9.33428914
v 8.36142448 -4.76380969 10.12590986
v -4.13880671 0.00000000 0.80569355
v -3.91795765 -0.77795957 1.29911660
v -3.83088130 0.00000000 1.73779707
v 11.09819356 0.00000000 14.61570561
v 2.29873023 -4.99998701 3.00123713
v 10.71301748 -3.24572809 13.30810352
v -0.07538808 -4.99368291 -2.69054813
v 5.76120467 0.00000000 -1.17316568
v -1.46860835 -3.42564068 3.73574897
v -0.71510346 -3.82417073 4.22200231
v 12.91667670 -3.96357622 6.76907009
v -3.47759065 0.00000000 2.65366865
v -3.07978586 0.00000000 3.55110187
v -2.77492603 -2.45934517 2.65532532
v -2.33624107 -3.24189648 2.28988841
v -2.16113118 -2.96499270 3.21492089
v -1.63414461 -3.68748678 2.81090118
v 1.27288668 -4.99365154 1.64727407
v 5.27316845 -2.52017591 -0.58581910
v 5.53751242 -1.58756183 -1.03731700
v 5.57206526 0.00000000 12.63842529
v 7.32503372 -4.93712772 8.79972387
v -2.96608636 -2.73235285 1.73615135
v 7.96911885 -3.42733209 12.26371169
v 8.88133779 -3.40003160 12.63470145
v -2.63842529 0.00000000 4.42793474
v -2.15457220 0.00000000 5.28205488
v 3.93016819 -4.50244784 8.13081980
v 4.16184954 -4.19946621 9.01112857
v 0.36135208 -4.91484468 1.25460284
v 3.27294669 -4.00770666 8.64204581
v 3.54444272 -3.60921021 9.47592782
v 7.26989547 0.00000000 1.34393284
v 6.68530388 0.00000000 0.55570233
v 8.65606716 0.00000000 2.73010453
v 6.05189986 -3.98209851 10.64563962
v 6.19709400 -3.42692243 11.43144102
v -1.36578928 -4.46188147 0.47232750
v 4.36965600 -3.80089838 9.83259566
v 3.04265516 -4.33711170 7.76116199
v 2.40689954 -3.77245643 8.25250553
v 7.96772753 -4.92073839 7.23645537
v 7.19288919 -4.99999165 7.81886225
v -2.89632488 -3.58643000 -0.37659150
v 1.56882090 0.00000000 9.81902251
v 2.69024911 -3.35500633 9.08660343
v 0.08764122 -4.15776404 4.67736581
v 9.59031831 -3.94401261 12.24462570
v -1.25745130 -3.12454295 4.64557917
v -3.53668211 -3.00012243 -0.83011668
v 1.31404954 -3.86926690 6.94689294
v 1.56499663 -3.49993037 7.82086758
v 1.10421305 -4.17778486 6.03919337
v -1.06415063 0.00000000 6.91398609
v -0.46020907 0.00000000 7.68786568
v -1.93884165 -2.65415774 4.11880988
v 7.45739809 -4.75030597 9.74290671
v 0.92712760 -4.42514017 5.10955274
v 8.04307672 -1.77311973 2.62927996
v 8.55373138 -2.21958496 3.31317488
v 7.74659588 -2.60760924 2.91219398
v -4.90369453 0.00000000 -3.03965719
v -2.54616640 -2.16437390 3.52441433
v 10.68271995 -4.90535080 8.35105733
v 6.03349475 -4.86834224 5.56909239
v 4.35195111 -4.99897134 5.70849539
v 1.86176725 -3.07081896 8.65041020
v 4.68755401 -2.69679433 11.20778085
v 0.75798099 -3.17711322 7.36509304
v 7.07299282 -3.43654419 11.86142098
v 4.85078884 -3.30341072 -0.15426741
v 12.73584590 -2.19177680 14.36207589
v 0.49625161 -3.56084781 6.50055516
v -0.00773676 -2.80675154 6.87546745
v 6.92234179 -4.79995274 5.94107083
v 7.06559824 -4.94478991 6.84756908
v 7.83660692 -4.72996913 6.29980069
v 7.61673915 -4.43305715 10.65926949
v 9.79199046 -3.33603454 12.98550458
v 6.05222005 -1.04790322 -0.29145160
v 15.00000000 -5.00000000 10.00000000
v 15.00000000 -4.90392640 9.02454839
v 1.91341716 -4.61939766 -5.00000000
v 0.97545161 -4.90392640 -5.00000000
v 15.00000000 -4.15734806 7.22214883
v 14.26970113 -3.86948771 6.81088928
v 15.00000000 -3.53553391 6.46446609
v 9.08022748 -3.29910251 4.55817597
v 9.11225296 -2.70087890 13.28312118
v 15.00000000 -4.61939766 11.91341716
v 14.19622596 -4.76843295 11.48442617
v 15.00000000 -4.90392640 10.97545161
v -0.97545161 -4.90392640 -5.00000000
v -1.91341716 -4.61939766 -5.00000000
v 4.15734806 -2.77785117 -5.00000000
v 15.00000000 -2.77785117 5.84265194
v 14.19096337 -2.39570647 5.58042449
v 15.00000000 -1.91341716 5.38060234
v 15.00000000 -2.77785117 14.15734806
v 15.00000000 -3.53553391 13.53553391
v -3.93108865 -2.22368892 -0.41543752
v -4.15191131 -1.42502711 -0.00475461
v -3.53553391 -3.53553391 -5.00000000
v -4.15734806 -2.77785117 -5.00000000
v -4.46678970 -0.69422685 -0.62858619
v 15.00000000 -0.97545161 14.90392640
v 14.06662704 -1.45457242 14.76171533
v 15.00000000 -1.91341716 14.61939766
v 6.32861970 -4.99739778 7.43671867
v 11.58690165 -0.82949912 14.63629503
v 3.60576609 -4.88763474 6.30946660
v 1.53377518 -2.29774867 9.02155290
v 13.50556649 -4.85601499 11.12215290
v -4.38279723 -2.37356482 -4.16665593
v 14.22926380 -3.17611965 6.11166179
v 5.21025201 -1.54168339 -1.98463067
v 2.34945731 -4.42274044 -4.33985997
v 14.20976467 -2.36777822 14.38772137
v -4.61939766 -1.91341716 -5.00000000
v 7.77176353 -3.98934944 11.50036796
v 8.90060901 -2.72391732 3.92138949
v 15.00000000 -0.97545161 5.09607360
v 8.22958435 -0.82523469 2.45235551
v -1.30197383 -2.01316222 5.83960738
v -1.66635985 -2.37194015 4.93245825
v 6.90655053 -3.99420865 11.08644032
v 15.00000000 -4.15734806 12.77785117
v -4.22967872 -0.67493292 0.32832394
v -4.95598604 -0.59255338 -4.40803852
v 6.45554063 -4.91872994 8.40645967
v 13.46192846 -0.79021829 14.87774408
v 13.05986438 -1.47407342 14.68238168
v 15.00000000 -4.61939766 8.08658284
v 5.03043560 -4.32965402 9.38354804
v 13.40330908 -2.77122751 14.09512668
v 14.01864651 0.00000000 14.97590912
v 3.74514987 -4.72780006 7.23901235
v 5.70587383 -4.68255642 8.93874098
v 13.43747999 -2.83434120 5.76818324
v -1.31368471 -0.68026714 6.48939307
v 12.13492110 -1.56096220 14.54117582
v 7.92893219 0.00000000 2.07106781
v -1.83764643 -0.73673445 5.69175461
v 12.60338184 -4.53941695 11.92729554
v 6.64564656 -4.62810494 5.10037865
v 5.81115850 -0.69954457 -0.93168676
v 6.18078736 0.00000000 -0.28603263
v -3.68306894 -1.49332138 1.47044529
v 13.52007074 -2.02629678 14.51497360
v 4.90392640 -0.97545161 -5.00000000
v 13.49363847 -3.55311984 6.38290000
v -1.82267311 -3.86374491 1.87574780
v 14.27612133 -0.71922938 5.02590112
v 15.00000000 0.00000000 5.00000000
v 5.00000000 0.00000000 -5.00000000
v 4.97463082 -0.71282859 -4.28163552
v 14.28356452 -0.71454732 14.93580967
v 15.00000000 0.00000000 15.00000000
v -3.91780840 -1.44260706 0.80141593
v -2.53238028 -3.40863959 1.38260823
v 6.48218396 -0.64997811 0.31950686
v -1.62939225 0.00000000 6.11140466
v 13.55836157 -4.12810055 7.09324209
v -4.40062506 0.00000000 -0.14039640
v 8.37658576 -3.44826943 4.25305076
v -1.50361963 -1.33440878 5.97311645
v -5.00000000 0.00000000 -5.00000000
v 1.45447714 4.79290566 -4.09229764
v 0.67159159 4.96785762 -3.25753470
v 1.57760872 4.79901177 -2.83034904
v 4.49660095 1.00857713 11.89905342
v 7.22027920 4.28284819 4.68134487
v 8.31083749 3.93644169 4.86264571
v 7.69375176 3.76386640 4.14932050
v 2.32121691 4.47662688 -3.45197991
v 7.27608125 2.74703928 12.55357517
v 7.52331598 1.79205520 13.19127035
v 8.18947783 2.72756990 12.94136028
v 7.63396557 4.48121974 5.44633833
v -4.77097047 0.80933239 -2.45527841
v -4.51038893 1.60567232 -2.02988528
v -4.59915545 1.76923255 -3.25688570
v 8.76392420 1.03997214 13.88780872
v 4.27571673 2.82816507 -3.18542863
v 4.41927097 2.39983015 -4.16577741
v 3.88429477 3.18775834 -4.15256033
v -4.09055207 2.30712262 -1.35240806
v -4.34699833 1.50002872 -0.93377585
v 13.27832644 4.79581063 8.47618298
v 14.05146387 4.43552824 7.65667428
v 13.12217457 4.45696508 7.59462420
v -4.18692907 2.42632868 -2.32985204
v 8.46820072 1.98417701 13.46840838
v 7.81102594 0.88419508 13.57882718
v -3.55010099 0.91751897 2.24601701
v -3.04708353 1.67405564 2.92736417
v -3.29521529 1.90356710 2.09686492
v 3.49307775 0.96540273 11.24303464
v 14.13592766 4.81339417 8.61938540
v -4.87685410 0.69825536 -3.28150446
v 4.10364005 1.93219267 11.30592671
v 3.28488238 1.84662995 10.77152379
v 13.30124463 4.97840397 9.43618123
v 14.14706210 4.98815451 9.63119090
v 3.67456806 3.51601726 -3.34957224
v -3.19021992 0.83154956 3.14465803
v 11.46711408 2.47029665 5.04998124
v 12.54260508 2.49869863 5.38226238
v 12.04531205 1.69238392 4.86202030
v -4.64161892 0.79996229 -1.58904674
v -4.11053613 2.73083062 -3.27329626
v 13.10569329 4.15507014 12.68006542
v 14.09192134 3.86893281 13.14452298
v 14.07391101 4.39890919 12.35219311
v 3.53553391 3.53553391 -5.00000000
v 3.08291258 3.96655103 -4.03726702
v 5.94817902 4.35153448 3.67480339
v 5.03403423 4.78131443 4.16200119
v 5.88935664 4.66445120 4.55065196
v 6.67625249 2.04632848 12.70282618
v 4.95953915 4.55640115 3.16457834
v 1.25908162 0.84754131 9.43253791
v 0.53238660 0.92732783 8.68304937
v 9.67511320 0.86546796 14.19980085
v 6.84745233 0.97209281 13.15843610
v -0.69050334 0.85236692 7.28356291
v 0.00493089 1.45703966 7.90406021
v -0.40146135 1.92013822 7.14933319
v 3.10159457 4.04884887 -2.99435555
v 2.42455920 4.50686208 -2.43294563
v 13.06692035 1.60191445 5.07987368
v 2.77785117 4.15734806 -5.00000000
v 9.99748563 2.60225983 13.60878115
v 10.26795278 1.67143226 14.13595494
v 10.93948641 2.51742869 13.88849683
v 5.19291204 0.55191186 12.39539589
v 6.09622084 1.48236991 12.65733376
v 2.48534146 1.77850379 10.17926977
v 3.00477528 2.29953787 10.29776873
v 2.33466619 2.51290299 9.59295008
v 3.33425484 4.99981222 4.36014270
v 4.20079715 4.87530203 3.73600036
v 3.20335520 4.97178808 3.37905240
v 6.98387361 0.79922054 1.08536142
v 6.87050022 1.74278399 1.34671476
v 7.51450549 1.29017589 1.88349402
v 2.72589026 0.99189768 10.66464684
v -2.78464431 4.10036849 -3.34709546
v -3.49555262 3.49734454 -3.30218703
v -3.14456434 3.72224908 -2.34078779
v 13.33482113 4.61380367 11.84476178
v 11.78245772 3.21020519 5.69305680
v 12.04297353 3.84924155 6.43264180
v 12.68207069 3.33950992 6.03800210
v 0.46596695 4.98058231 -4.13462583
v -1.07424335 1.52090651 6.49772446
v -2.32818647 1.71244315 4.36641811
v -2.77812952 0.81831688 4.01365103
v -2.33205997 0.81966968 4.84370543
v 3.02064489 2.86720335 9.87149152
v 1.74258745 1.71815463 9.56553034
v 1.95449339 0.86882029 10.05915023
v 6.42443128 1.39664891 0.52084314
v 6.22144536 2.25372515 0.82750290
v 4.72708997 1.94124585 -3.42973942
v 11.08285109 3.79887203 6.07684515
v 14.07565498 1.51398952 5.19289967
v 13.49772138 0.80748511 4.95289640
v 9.35568554 1.89984885 13.79580071
v -4.85127669 1.08366843 -3.91046278
v 9.03418008 0.85562536 3.11723481
v 9.29464588 1.79930274 3.61745489
v 9.85689199 0.88874882 3.66874891
v 13.25351251 3.52367365 13.46494356
v 7.57456972 0.55185519 1.74350598
v 4.22948149 4.97672948 4.73514682
v -3.37020729 2.91701183 0.08468466
v -3.72207229 2.15816499 0.48941977
v -3.16404200 2.85577937 0.91931969
v 3.96752984 4.77327758 2.80022564
v 4.69942721 4.38595622 2.25537151
v 11.18090854 1.63428902 14.35212312
v 11.28288487 4.31051942 6.89927479
v 5.33126843 3.80276062 1.68304641
v 5.60393387 4.06417897 2.60410786
v -2.38103732 4.30558392 -2.62880425
v -2.79645471 1.48229889 3.62240052
v 5.03147050 0.91347099 -3.47733056
v 4.80221847 1.48659664 -4.23936376
v 13.46869482 2.17775019 5.38690668
v 3.76504096 2.63593212 10.62977944
v 10.70915058 0.88612917 4.12018940
v -3.52440424 2.10043327 1.20944658
v 3.78444499 3.20910511 10.13080105
v 4.49187757 4.16763523 1.27203169
v 10.37293835 4.27478083 6.51136443
v 1.11147968 1.54085265 9.05113684
v 13.51408756 4.97866966 10.38978764
v 5.97558894 0.77743932 12.78008053
v 5.68082341 4.67120846 8.95811008
v 5.56388083 4.89634417 7.93716385
v 4.85307404 4.63227816 8.49231229
v -0.11134143 0.65708307 8.03513276
v 5.04740121 2.27445322 -1.50850402
v 4.83386960 2.12983780 -2.46962092
v 4.45949076 2.92561241 -2.05098029
v 3.21496003 4.11245828 -2.01940551
v 2.54672019 4.55850441 -1.46338164
v 7.32059321 4.93818044 8.78969503
v 6.39856833 4.91732159 8.37911139
v 6.56765763 4.71634531 9.36857991
v 10.03957515 4.94797190 9.91625104
v 9.90146076 4.99757723 8.94130932
v 9.13257366 4.95332631 9.54253848
v 3.81283158 3.53220934 -2.50899631
v -0.63954277 4.80268284 -0.09469669
v -0.76533267 4.84332535 -1.09460832
v -1.50149537 4.53572630 -0.49994647
v -2.29969854 4.15780678 -0.90756690
v -2.38339136 4.22705109 -1.82708697
v -3.03391439 3.66586866 -1.34684441
v 14.16838542 3.17342930 13.84551143
v 4.12943527 3.77604880 -0.61254076
v 4.64782589 3.07976623 -1.10383206
v 3.96132841 3.62853948 -1.56765541
v 0.93590701 4.97921470 -1.29248597
v 0.01882782 4.98830506 -1.69324171
v 0.12463198 4.97613159 -0.68715496
v 3.81782858 4.62834150 1.84010844
v 11.43226826 3.78910006 12.91043160
v 11.24360337 4.34168904 12.07147346
v 10.50541725 3.87952756 12.58906941
v 8.64307347 1.52980963 3.02761516
v 10.53500421 4.66390939 7.41956357
v 3.65327543 4.47754310 0.86914169
v -1.84999210 1.56379608 5.30083370
v 12.11865417 4.22083615 12.44403558
v 3.36071149 4.20334592 -1.04696377
v 14.23857489 4.96838531 10.54274028
v 4.85497558 3.29753143 -0.15748942
v 5.53968746 2.79454391 0.32058638
v 5.84806812 1.95316882 -0.06589947
v -1.62085885 4.58710216 -1.47956875
v -0.86678298 4.86757621 -2.02590890
v 1.03408280 4.99273806 -0.31552929
v 1.81873090 4.85442393 -0.90650842
v 10.81527907 4.99931452 9.31821378
v 11.61030241 0.85367733 4.48597121
v 5.21927753 3.91841793 10.23671566
v 4.45504662 3.26691965 10.54622786
v 5.34706118 3.40019602 10.97610095
v 7.19289548 4.99999166 7.81885757
v -0.70915060 2.39607554 6.36380362
v 12.59439936 4.99303864 10.07299612
v 12.42707644 4.95345238 9.08628132
v 11.72249336 4.99972930 9.69086407
v 11.85391370 2.35400512 14.15454813
v 6.58192918 2.62262027 1.67447393
v 12.55955522 0.84965903 4.77261148
v -0.93854691 4.88221901 -2.88046217
v -0.91394722 4.90537345 -3.68544792
v -1.83105024 4.61779588 -3.29409906
v 2.69523690 4.79227629 5.88178889
v 1.96071475 4.40929724 6.45696267
v 2.84648007 4.60052944 6.82698343
v 9.00121536 4.99749112 8.57528748
v 9.62966730 4.65896059 7.04179222
v 15.00000000 3.53553391 13.53553391
v 9.77610686 4.89671672 7.97699688
v 8.86806091 4.90296854 7.60763967
v 1.15145756 4.99988296 0.67386416
v 0.24391706 4.95417281 0.28926598
v 4.31699134 3.95464674 0.33366409
v 15.00000000 3.53553391 6.46446609
v 14.22807526 3.17040865 6.10687787
v 14.23286894 3.86883001 6.80774896
v 5.00863041 1.48998282 -2.81655237
v 6.14937153 3.40335412 2.08485330
v 5.84206782 3.08163572 1.20582517
v 10.63382852 0.84754131 14.44344453
v 6.49329318 4.40028035 4.32968403
v 1.92887254 4.90397616 0.08336527
v -0.22807551 4.54233486 2.75670084
v -0.08062706 4.37429185 3.72336403
v 0.62308768 4.75539035 3.18738375
v 1.51390801 4.90137127 3.58767682
v 0.76383348 4.61554286 4.14927537
v 1.65288516 4.79534864 4.55691684
v 5.50923569 0.80000453 -1.65069329
v 5.21350094 1.55218395 -1.96255743
v 5.54041761 1.60533393 -1.01493782
v 1.79652181 4.63378340 5.51406384
v 8.09892764 4.99881310 8.19541236
v 5.24228530 0.81965430 -2.52121079
v 11.45047457 4.68902978 7.78044934
v 2.80411687 4.72596607 0.47256319
v 3.51216559 4.32712929 -0.08572879
v 2.40941699 4.97858587 3.97544717
v 15.00000000 4.15734806 12.77785117
v 0.50232225 4.85569448 2.21226533
v 10.20055435 1.73925283 4.12731190
v 9.69684547 2.56791803 4.30464484
v 8.89482999 2.72768451 3.92040448
v 2.16438036 4.12796775 7.36311208
v 1.39025762 4.96430184 2.61728156
v -3.85362952 3.16259201 -4.15119760
v -3.16561088 3.85443790 -4.16359505
v -1.47714099 4.77241974 -4.31649620
v 11.09284824 1.69182251 4.52468546
v 10.53217870 2.48481704 4.67980024
v 10.32765406 4.38394215 11.76549090
v -1.69264537 4.63004402 -2.44195982
v -0.87764812 4.06646481 3.28506584
v 6.94828448 3.00375089 2.49878892
v 2.94655067 4.81880208 1.44035016
v 9.92029097 3.19441104 4.92958249
v 9.08137054 3.29729956 4.55702261
v 9.26608673 4.76157616 10.49893586
v 8.50627932 4.44681171 11.01992241
v 9.42130693 4.42582912 11.40370607
v 9.26670332 3.82818576 5.29482393
v 8.57979915 4.35679514 5.77972473
v -4.69315955 1.68995790 -4.29581308
v -4.90392640 0.97545161 -5.00000000
v 11.06270751 4.71172350 11.20166530
v 11.88705622 4.64575958 11.55841842
v 11.83091465 4.90233944 10.66607326
v 7.31866749 2.17241889 2.15372478
v 8.67595868 3.97919159 11.88191083
v 11.64085580 3.12498085 13.60227990
v 5.09165589 3.53435910 0.76470061
v 3.07685790 4.90670587 2.41092025
v 3.03385620 4.33601176 7.75553957
v -1.01498755 2.78873895 5.49974672
v -0.28085159 3.20375896 6.01788173
v -0.51711080 3.53302041 5.14289937
v 2.17710404 4.98572667 2.02779771
v -2.71129613 3.50430986 0.56994974
v -1.99654372 3.98223743 0.99711943
v -2.16257377 4.07800652 0.06044169
v 4.61939766 1.91341716 -5.00000000
v 15.00000000 1.91341716 14.61939766
v 14.21224063 2.37187040 14.38561764
v 14.06662755 1.45463877 14.76169516
v 7.74660051 2.60760512 2.91219480
v 8.13059061 3.05563453 3.64548539
v 8.55373395 2.21958127 3.31317456
v 6.30628114 4.99748670 7.41772131
v 2.05386695 4.94965527 1.05524537
v 7.31144847 3.39385969 3.31958659
v 12.35428170 3.66815646 13.20650882
v 12.54378705 0.81524681 14.78117988
v -3.67836090 3.05794315 -1.76825020
v 2.67476207 4.63437101 -0.49385971
v 10.82540609 3.15225247 5.30541853
v 12.36012089 4.73910686 8.14350109
v 10.17048003 4.74154900 10.86806099
v 10.94721371 4.93297774 10.28784973
v 12.76950516 4.84406486 11.08505192
v 12.20581301 4.36931148 7.25461582
v 12.53965824 2.97189318 13.86113380
v 8.36266585 4.76543240 10.12088523
v 8.22617987 4.95030591 9.16705440
v -3.91788247 0.77796982 1.29933729
v 11.58130206 4.92650195 8.72652441
v 2.29874179 4.99998703 3.00123753
v 10.71752656 3.24730383 13.30777716
v -0.71509092 3.82417948 4.22200316
v -1.46859595 3.42565126 3.73575112
v 12.91750686 3.96312302 6.76861861
v 0.08765359 4.15777106 4.67736557
v -1.63768809 3.68682203 2.80505955
v -2.16489713 2.96224733 3.21173182
v -2.33622848 3.24190810 2.28989281
v -2.77560497 2.45888818 2.65440141
v -0.22768994 4.99092813 -3.50338463
v -0.10184582 4.99190833 -2.64513064
v 1.27289909 4.99365206 1.64727584
v 5.27317493 2.52016979 -0.58581345
v 2.54645459 4.91134094 4.94535668
v 9.46819637 4.29137502 6.13574169
v 10.16040342 3.78317145 5.68598009
v 8.88134194 3.40003836 12.63469626
v 7.96912324 3.42733876 12.26370671
v -2.96607491 2.73236616 1.73615715
v 4.16185857 4.19947177 9.01112469
v 3.92761971 4.50191747 8.13010708
v 0.37295651 4.91608825 1.26475375
v -0.51714910 4.74044205 0.86918418
v 3.54687339 3.60915734 9.47792132
v 3.27295603 4.00771324 8.64204221
v 3.44768534 4.97533302 5.32818752
v 6.19708712 3.42708308 11.43126578
v 6.05217711 3.98597344 10.63991138
v -1.36605299 4.46179834 0.47205718
v 4.36578353 3.79828312 9.83358163
v 7.96767397 4.92072845 7.23636097
v -2.89631398 3.58643914 -0.37658689
v 2.69298833 3.35252045 9.09198160
v 2.40531633 3.77518087 8.24667592
v 9.59192986 3.94503154 12.24376026
v -1.25743978 3.12455451 4.64558046
v -3.53497850 3.00167624 -0.82785664
v 1.56479055 3.49589372 7.82637559
v 1.31406016 3.86927473 6.94689055
v -1.93883064 2.65417113 4.11881263
v 7.45740406 4.75030860 9.74290077
v 0.92669593 4.42551855 5.10771852
v 0.27507211 3.88739744 5.60192834
v 8.04434890 1.77302579 2.63039163
v 6.81349031 4.02819848 3.82574643
v 6.46834199 3.72307256 2.95143580
v -2.54661445 2.16406207 3.52383467
v 10.68272392 4.90534946 8.35105151
v 6.03588735 4.86850460 5.57203121
v 5.13923035 4.92582602 5.13706890
v 4.35196040 4.99897150 5.70849302
v 1.85931302 3.07083160 8.64803397
v 5.53929100 2.74847995 11.68069424
v 0.80943937 4.97025189 -2.24565952
v 4.68805233 2.69599683 11.20870321
v 0.75799059 3.17712341 7.36509131
v 0.68766234 1.89602093 8.42978214
v 0.31509079 2.36023621 7.68931498
v 7.07299742 3.43655081 11.86141622
v 6.39859369 2.76638498 12.12636927
v 5.25677405 4.99427031 6.08818458
v 12.75646805 2.18683389 14.36689971
v 4.45940465 4.94895748 6.65255821
v 0.49405342 3.55793231 6.50253939
v 1.10258600 4.17658048 6.04008854
v -0.00443864 2.80544977 6.88105625
v 6.92372262 4.80093624 5.94628584
v 6.16126223 4.97276860 6.46797731
v 7.83635737 4.72988839 6.29936356
v 7.07123017 4.94738985 6.87246397
v 7.61573339 4.43304275 10.65882577
v 8.73174990 4.68016394 6.66268348
v 9.79203124 3.33607027 12.98548308
v 6.04593757 1.04020884 -0.30694768
v 15.00000000 4.90392640 9.02454839
v 15.00000000 5.00000000 10.00000000
v 0.97545161 4.90392640 -5.00000000
v 1.91341716 4.61939766 -5.00000000
v 4.94556280 1.99634540 11.80618834
v 15.00000000 4.15734806 7.22214883
v 9.11225666 2.70088682 13.28311703
v 5.37412809 1.27109092 12.34355650
v 15.00000000 4.90392640 10.97545161
v 14.18649430 4.76815690 11.48482475
v 15.00000000 4.61939766 11.91341716
v -1.91341716 4.61939766 -5.00000000
v -0.97545161 4.90392640 -5.00000000
v -1.21274594 4.36404285 1.42739483
v 4.15734806 2.77785117 -5.00000000
v 15.00000000 1.91341716 5.38060234
v 14.19144411 2.39413293 5.57960014
v 15.00000000 2.77785117 5.84265194
v 15.00000000 2.77785117 14.15734806
v -4.15406712 1.42392803 -0.01173104
v -3.93126132 2.22349527 -0.41574202
v -4.15734806 2.77785117 -5.00000000
v -3.53553391 3.53553391 -5.00000000
v -4.46215179 0.70086827 -0.61223616
v 15.00000000 0.97545161 14.90392640
v 1.69149928 4.82088671 -1.86087750
v 1.05960829 2.74330578 8.17370392
v 2.34831538 4.42365580 -4.32851372
v -4.38577288 2.36801798 -4.16632232
v 11.58690166 0.82949958 14.63629495
v 3.59215554 4.89361788 6.25571299
v -2.35258771 4.40138204 -4.17252287
v 15.00000000 4.61939766 8.08658284
v 13.40330841 2.77123365 14.09512252
v 5.80987603 2.04727056 12.26846581
v 7.77199715 3.98946560 11.50030245
v 5.84755348 4.38201706 9.80767708
v 6.74496976 4.41389333 10.25910845
v 15.00000000 0.97545161 5.09607360
v -4.61939766 1.91341716 -5.00000000
v 8.23286563 0.82031477 2.45422669
v -1.66635022 2.37194685 4.93246735
v -1.30196890 2.01317172 5.83960724
v 1.53246363 2.29739623 9.02054602
v 6.90655548 3.99421421 11.08643456
v -2.77785117 4.15734806 -5.00000000
v -4.22867340 0.67581794 0.33149921
v -3.78035538 3.09171204 -2.62810398
v 3.72831016 4.72820883 7.22188913
v 13.50657605 4.84561977 11.16402676
v 13.05986466 1.47407746 14.68238045
v 13.46213506 0.79025555 14.87775409
v -0.37628104 4.65949848 1.80194590
v -4.95615338 0.59090385 -4.40704997
v 5.39793908 4.98525998 7.01902392
v -0.00000000 5.00000000 -5.00000000
v 4.64558973 4.82613343 7.59788760
v -0.48995862 4.97463335 -4.36390082
v -1.31368407 0.68027282 6.48939262
v -1.03952110 4.24852486 2.33297792
v 12.13597680 1.56156117 14.54113160
v -1.83764427 0.73673605 5.69175757
v 4.99295894 4.31420752 9.38985503
v 5.80762311 0.69491271 -0.94129592
v -3.68333112 1.49274339 1.47024084
v 13.52293502 2.01986728 14.51804348
v 6.64551442 4.62874378 5.10229798
v 4.90392640 0.97545161 -5.00000000
v 13.44021034 2.83362849 5.76808363
v -1.81608390 3.86502075 1.88774865
v 13.48748515 3.55046177 6.37937773
v 14.27612133 0.71922938 5.02590112
v 4.97465362 0.71246613 -4.28204774
v 14.28438395 0.71481924 14.93579980
v 12.59715465 4.53761385 11.93035224
v -3.91894563 1.43918443 0.80122071
v 6.47972915 0.64943296 0.31543912
v -2.53142429 3.40914077 1.38386865
v 13.55657828 4.13364010 7.10121002
v 8.36414528 3.45923721 4.25702726
v -1.50358789 1.33442026 5.97315844
v 15.00000000 0.36898386 5.98760070
v 15.00000000 1.10489697 6.90802435
v 15.00000000 0.04909920 6.97467651
v 15.00000000 0.17438859 12.93440576
v 15.00000000 -0.38878386 13.89171766
v 15.00000000 -0.78994007 12.84984003
v 15.00000000 1.26495516 5.94506446
v 15.00000000 -2.50671450 7.70923915
v 15.00000000 -3.59032408 8.08923576
v 15.00000000 -3.28454441 7.24483641
v 15.00000000 -2.78149396 8.59921687
v 15.00000000 -4.10719733 9.59547637
v 15.00000000 -3.18023342 10.12087423
v 15.00000000 -4.08037855 10.47571329
v 15.00000000 0.55904926 13.59559588
v 15.00000000 -1.24777723 13.44626347
v 15.00000000 3.85572483 8.80138044
v 15.00000000 3.41759242 9.87856059
v 15.00000000 2.86359651 8.91401076
v 15.00000000 2.75692903 10.63761395
v 15.00000000 3.53907838 10.96368164
v 15.00000000 4.21533202 10.45584060
v 15.00000000 1.96202621 6.35302131
v 15.00000000 -4.11350347 8.80881422
v 15.00000000 -3.37895967 9.09720419
v 15.00000000 -3.35210094 10.90932352
v 15.00000000 4.26879133 9.60089473
v 15.00000000 3.12078524 7.40623034
v 15.00000000 2.45451452 8.05334438
v 15.00000000 2.11445220 7.23397850
v 15.00000000 1.18032010 14.02498055
v 15.00000000 1.18016223 13.08477598
v 15.00000000 1.94411830 13.67748749
v 15.00000000 -0.40077395 6.30020572
v 15.00000000 1.99178854 12.90521231
v 15.00000000 2.36421097 9.73506673
v 15.00000000 2.71743579 6.67646261
v 15.00000000 1.92458205 8.84111448
v 15.00000000 -3.08601438 11.79209715
v 15.00000000 -3.97357350 11.29521838
v 15.00000000 1.38514135 9.65167346
v 15.00000000 -1.79647881 12.82159310
v 15.00000000 -1.94548747 13.63975106
v 15.00000000 -2.69065679 13.29058011
v 15.00000000 0.95517019 8.77033237
v 15.00000000 1.49767009 7.97438487
v 15.00000000 0.41131601 9.58317877
v 15.00000000 0.84067925 10.46175721
v 15.00000000 -0.13474968 10.39666497
v 15.00000000 -0.56620377 9.51690929
v 15.00000000 0.29729467 11.27654176
v 15.00000000 -1.11220694 10.33080805
v 15.00000000 1.26988842 11.34238742
v 15.00000000 -1.54399076 9.45092117
v 15.00000000 0.72896159 12.15054963
v 15.00000000 -0.99790253 8.63697002
v 15.00000000 -2.09004760 10.26487203
v 15.00000000 -0.24852713 12.08959510
v 15.00000000 1.65814432 12.18541113
v 15.00000000 -1.65814683 11.14477397
v 15.00000000 -1.96275362 8.57977400
v 15.00000000 -2.60715409 11.06462356
v 15.00000000 -1.40396303 7.77786114
v 15.00000000 -2.14562729 11.91851810
v 15.00000000 -0.45176108 7.82299703
v 15.00000000 -3.27932293 12.68052350
v 15.00000000 -2.63280149 6.73909219
v 15.00000000 3.63917652 11.94483292
v 15.00000000 -1.19802527 6.05063996
v 15.00000000 2.70212735 13.23485918
v 15.00000000 -2.50100573 9.36960767
v 15.00000000 -0.02059448 8.70326234
v 15.00000000 -0.68043731 11.21050884
v 15.00000000 -1.21486430 11.99416932
v 15.00000000 0.52430066 7.89271782
v 15.00000000 1.80879397 10.54096317
v 15.00000000 2.18422319 11.42424408
v 15.00000000 -3.80639467 12.09430521
v 15.00000000 0.42069053 14.27134263
v 15.00000000 -2.56335360 12.53596804
v 15.00000000 -1.24590469 14.10719733
v 15.00000000 -0.85477012 6.97489364
v 15.00000000 -1.75705372 6.94855634
v 15.00000000 2.63630401 12.26682543
v 15.00000000 3.15620047 8.22793945
v 15.00000000 -2.03920281 6.18491989
v 15.00000000 3.33409797 12.75198052
v 15.00000000 2.95715477 11.48562777
v 15.00000000 3.78521473 7.97676057
v 15.00000000 4.22027208 11.27542359
v 15.00000000 -0.43900520 5.62688615
v 2.53596848 -3.13119164 -5.00000000
v 1.72160416 -2.48818649 -5.00000000
v 2.63649789 -1.95703592 -5.00000000
v -1.48526968 2.53675432 -5.00000000
v -2.24009745 1.93068820 -5.00000000
v -2.48538445 3.01984823 -5.00000000
v 3.30457326 -2.66878425 -5.00000000
v -0.81157840 -3.29735399 -5.00000000
v -1.20031199 -4.11562991 -5.00000000
v -1.92368164 -3.58341959 -5.00000000
v -1.53449430 -2.71002386 -5.00000000
v -3.19026848 -2.61818568 -5.00000000
v -3.65700292 -1.87139572 -5.00000000
v -2.71142157 -1.66633977 -5.00000000
v -1.53277357 3.30021984 -5.00000000
v -2.95213025 2.17223547 -5.00000000
v 3.87183538 1.14551021 -5.00000000
v 2.98433677 0.68796193 -5.00000000
v 2.90909236 1.79773944 -5.00000000
v 1.93806338 2.06182433 -5.00000000
v 2.40724330 2.76747860 -5.00000000
v 3.25166901 2.72093060 -5.00000000
v 3.65751797 -1.94230860 -5.00000000
v -2.75846577 -3.27577486 -5.00000000
v -2.30793580 -2.62789669 -5.00000000
v -3.29236315 -1.10625263 -5.00000000
v 3.77110128 2.03976949 -5.00000000
v 4.03585930 -0.42282527 -5.00000000
v 3.29482196 -1.12513612 -5.00000000
v 3.12235815 -0.25492979 -5.00000000
v -1.25475909 4.00239973 -5.00000000
v -0.42662729 4.13781335 -5.00000000
v -0.73254067 3.22056049 -5.00000000
v 1.72226421 -3.29892460 -5.00000000
v 0.04206216 3.52217418 -5.00000000
v 2.11295861 1.09320127 -5.00000000
v 4.10592373 -1.25369391 -5.00000000
v 2.24407379 0.10566241 -5.00000000
v -3.56156301 -0.22442341 -5.00000000
v -4.02349039 -1.13066443 -5.00000000
v 1.34522280 0.47992037 -5.00000000
v -3.06131068 1.34799877 -5.00000000
v -4.06534772 1.24116855 -5.00000000
v -3.63975106 1.94548747 -5.00000000
v 1.47736172 -0.49176714 -5.00000000
v 2.37063864 -0.85217650 -5.00000000
v 0.57357024 -0.11805925 -5.00000000
v 0.44246069 0.85099345 -5.00000000
v -0.33241551 0.25495196 -5.00000000
v -0.46201712 1.22657376 -5.00000000
v -0.20239041 -0.71624121 -5.00000000
v -1.10855338 -0.34285223 -5.00000000
v 0.31008314 1.82166655 -5.00000000
v -0.58867195 2.19310603 -5.00000000
v -0.97872954 -1.31433767 -5.00000000
v -1.36755959 1.59936055 -5.00000000
v -1.88496609 -0.94093519 -5.00000000
v -0.07246674 -1.68772295 -5.00000000
v 0.16454724 2.73831857 -5.00000000
v -2.01470105 0.03062775 -5.00000000
v -0.84293471 -2.27132225 -5.00000000
v 0.06720161 -2.62764101 -5.00000000
v -2.75924256 -0.56325507 -5.00000000
v 0.83385244 -2.06109682 -5.00000000
v -2.84989543 0.40314285 -5.00000000
v 1.94537341 3.63888762 -5.00000000
v 0.44954531 4.19090863 -5.00000000
v 1.19802527 -3.94936004 -5.00000000
v -0.37743112 -4.17405189 -5.00000000
v -4.21587643 0.40687963 -5.00000000
v -1.72928305 -1.91363640 -5.00000000
v 0.70330516 -1.08963964 -5.00000000
v -1.23828563 0.62847060 -5.00000000
v -2.11802387 0.98314875 -5.00000000
v 1.60668332 -1.46085526 -5.00000000
v 1.02484759 2.39770506 -5.00000000
v 1.20341418 1.45470653 -5.00000000
v -4.32843514 -0.37336844 -5.00000000
v -2.02323943 3.78521473 -5.00000000
v -3.54025898 0.68445741 -5.00000000
v -3.31776846 2.72282221 -5.00000000
v 0.96994366 -2.99016885 -5.00000000
v 0.23435448 -3.51334942 -5.00000000
v 0.93262594 3.34944850 -5.00000000
v 3.60878888 0.28007654 -5.00000000
v 0.42400978 -4.30504356 -5.00000000
v 1.24328269 4.14051376 -5.00000000
v 1.63341377 2.87816151 -5.00000000
v 4.27134263 0.42069053 -5.00000000
v 2.80044061 3.40513350 -5.00000000
v 2.06455240 -3.88000950 -5.00000000
f 1 2 3
f 4 5 6
f 7 8 9
f 10 11 12
f 13 14 15
f 5 16 6
f 17 18 19
f 20 21 22
f 22 23 20
f 24 14 25
f 26 14 13
f 27 11 28
f 29 30 31
f 32 33 34
f 28 18 27
f 35 36 34
f 3 37 1
f 38 36 35
f 15 39 13
f 7 40 8
f 33 35 34
f 41 42 43
f 44 45 46
f 31 30 47
f 48 49 50
f 51 52 53
f 43 49 41
f 54 14 24
f 27 18 17
f 55 23 56
f 26 13 8
f 28 11 10
f 12 11 57
f 58 59 60
f 61 62 63
f 18 64 19
f 11 65 57
f 66 67 68
f 1 69 70
f 71 72 73
f 51 74 52
f 41 49 48
f 75 59 76
f 77 59 58
f 65 78 57
f 20 23 55
f 3 2 79
f 80 81 82
f 41 83 42
f 53 52 84
f 85 83 86
f 84 87 88
f 73 89 71
f 70 69 90
f 91 92 93
f 94 95 96
f 97 98 81
f 23 69 56
f 99 100 101
f 45 102 46
f 103 104 94
f 46 105 44
f 106 100 107
f 106 107 108
f 13 39 109
f 110 111 74
f 112 64 18
f 113 62 61
f 84 52 87
f 86 83 41
f 114 115 116
f 117 67 66
f 25 14 26
f 118 104 103
f 82 119 80
f 120 121 100
f 122 114 123
f 76 59 77
f 124 65 125
f 101 100 106
f 126 127 128
f 94 96 103
f 112 67 64
f 88 129 84
f 9 130 7
f 131 132 133
f 134 49 43
f 106 108 135
f 129 136 137
f 81 98 82
f 138 139 140
f 100 121 107
f 21 58 22
f 83 95 94
f 49 141 50
f 68 67 112
f 140 142 138
f 76 143 75
f 88 136 129
f 79 144 145
f 146 147 148
f 92 149 93
f 111 150 74
f 151 104 118
f 123 114 116
f 152 114 122
f 153 127 126
f 118 154 151
f 134 155 49
f 96 95 63
f 132 156 133
f 62 157 63
f 85 95 83
f 1 37 69
f 158 142 159
f 160 65 124
f 108 161 135
f 162 56 163
f 125 65 27
f 72 164 73
f 165 166 167
f 168 169 170
f 162 55 56
f 171 172 173
f 133 156 174
f 175 147 146
f 176 130 177
f 178 173 179
f 180 172 171
f 175 7 181
f 182 183 184
f 185 162 163
f 174 156 186
f 138 142 158
f 187 188 189
f 115 190 116
f 191 36 38
f 185 192 193
f 83 94 42
f 194 161 195
f 136 196 137
f 167 166 197
f 198 152 122
f 189 188 183
f 161 199 195
f 200 129 137
f 175 181 147
f 201 202 203
f 185 163 192
f 177 204 176
f 93 205 91
f 148 147 138
f 206 169 168
f 38 207 191
f 208 132 131
f 209 202 201
f 210 97 211
f 212 213 4
f 214 152 198
f 215 216 217
f 99 218 100
f 8 40 26
f 89 219 71
f 27 65 11
f 97 81 220
f 165 167 221
f 222 74 51
f 223 224 225
f 185 193 226
f 227 228 229
f 230 173 178
f 145 231 79
f 196 232 137
f 233 183 182
f 234 102 235
f 133 142 131
f 138 147 139
f 236 201 203
f 159 142 133
f 237 238 239
f 240 241 242
f 19 64 243
f 244 245 246
f 135 161 194
f 183 188 184
f 247 220 248
f 247 97 220
f 243 64 249
f 117 66 250
f 251 252 253
f 245 115 246
f 254 255 256
f 211 97 247
f 257 199 161
f 222 51 214
f 258 259 145
f 260 222 214
f 229 228 134
f 261 196 136
f 262 199 263
f 264 265 266
f 195 199 262
f 7 176 181
f 254 256 267
f 3 79 268
f 269 202 209
f 137 232 270
f 193 192 271
f 192 3 268
f 256 255 272
f 273 274 109
f 163 3 192
f 100 218 120
f 272 275 276
f 121 277 107
f 278 152 214
f 197 166 232
f 257 161 108
f 279 280 281
f 264 282 265
f 248 220 283
f 284 55 162
f 263 199 285
f 286 245 244
f 287 288 289
f 290 5 291
f 292 259 258
f 293 222 260
f 284 162 294
f 295 81 80
f 287 296 288
f 57 228 227
f 51 278 214
f 134 228 155
f 297 285 257
f 192 268 271
f 109 39 298
f 285 199 257
f 270 232 299
f 300 285 297
f 107 277 301
f 302 303 304
f 305 144 2
f 284 306 55
f 307 277 121
f 308 277 307
f 309 102 45
f 310 121 120
f 51 53 278
f 311 285 300
f 312 277 308
f 306 20 55
f 313 314 315
f 316 280 279
f 140 139 76
f 110 74 222
f 53 244 278
f 110 222 293
f 269 46 234
f 258 145 317
f 318 110 293
f 319 54 320
f 321 322 323
f 324 175 146
f 294 162 185
f 325 234 326
f 327 259 292
f 325 269 234
f 225 284 294
f 53 84 328
f 329 202 325
f 168 170 330
f 240 242 289
f 306 208 20
f 32 34 331
f 148 138 158
f 242 332 236
f 170 191 333
f 334 32 331
f 208 21 20
f 335 168 332
f 159 133 174
f 234 235 326
f 260 214 198
f 168 330 332
f 53 328 244
f 221 240 336
f 170 333 330
f 337 338 339
f 243 249 340
f 261 331 206
f 341 300 297
f 242 236 289
f 329 325 342
f 242 335 332
f 343 77 21
f 240 289 336
f 344 327 292
f 125 27 17
f 345 264 346
f 334 347 32
f 335 206 168
f 267 341 312
f 348 47 349
f 350 351 352
f 351 353 352
f 186 223 311
f 354 186 311
f 355 271 356
f 357 160 124
f 264 266 346
f 276 354 300
f 261 334 331
f 182 267 308
f 200 137 270
f 267 312 308
f 165 221 358
f 354 311 300
f 350 359 351
f 325 326 342
f 360 296 361
f 362 91 363
f 364 180 365
f 302 148 158
f 223 225 263
f 366 174 186
f 237 159 174
f 341 297 312
f 367 365 368
f 233 308 307
f 369 82 370
f 86 41 48
f 341 276 300
f 123 116 371
f 215 372 373
f 294 185 226
f 374 158 159
f 367 364 365
f 236 203 287
f 365 375 368
f 187 376 377
f 378 165 379
f 380 146 148
f 225 294 262
f 307 121 310
f 61 63 381
f 208 343 21
f 377 367 382
f 328 200 286
f 279 346 383
f 203 329 384
f 385 345 346
f 386 324 146
f 25 26 324
f 387 187 388
f 389 188 387
f 187 377 388
f 367 368 382
f 390 73 391
f 392 352 345
f 297 257 301
f 221 336 393
f 316 383 394
f 354 366 186
f 395 396 397
f 233 182 308
f 212 4 99
f 328 286 244
f 283 212 101
f 343 76 77
f 398 15 319
f 399 350 352
f 212 99 101
f 248 101 106
f 400 261 206
f 4 6 99
f 182 254 267
f 29 153 359
f 310 120 401
f 402 307 310
f 248 283 101
f 165 358 379
f 377 382 403
f 248 106 135
f 283 397 212
f 247 248 135
f 283 220 295
f 229 215 373
f 297 301 312
f 43 151 404
f 223 263 311
f 257 108 301
f 221 393 358
f 402 233 307
f 316 279 383
f 88 87 347
f 377 403 388
f 244 246 278
f 387 388 405
f 313 315 72
f 227 373 406
f 366 237 174
f 279 385 346
f 407 355 211
f 355 356 210
f 368 118 382
f 385 392 345
f 178 310 401
f 247 135 194
f 235 408 250
f 236 287 289
f 283 295 397
f 295 395 397
f 178 402 310
f 237 374 159
f 108 107 301
f 295 80 395
f 178 179 402
f 315 62 72
f 389 387 409
f 392 399 352
f 301 277 312
f 355 210 211
f 335 400 206
f 12 406 360
f 405 410 409
f 10 360 361
f 230 401 411
f 200 270 291
f 374 302 158
f 184 394 254
f 229 404 215
f 350 29 359
f 43 42 151
f 412 411 413
f 227 229 373
f 225 262 263
f 230 178 401
f 200 291 286
f 336 414 393
f 387 405 409
f 203 384 287
f 378 379 412
f 211 247 194
f 405 313 410
f 389 316 394
f 299 378 413
f 329 342 415
f 270 299 290
f 313 71 410
f 378 412 413
f 356 416 210
f 302 380 148
f 182 184 254
f 313 72 71
f 400 196 261
f 407 211 194
f 412 230 411
f 417 38 418
f 294 226 262
f 184 389 394
f 419 22 420
f 389 409 316
f 12 227 406
f 299 413 290
f 279 281 385
f 334 88 347
f 134 43 404
f 393 251 358
f 421 422 423
f 229 134 404
f 407 194 195
f 270 290 291
f 12 57 227
f 208 131 343
f 226 407 195
f 424 245 286
f 10 12 360
f 425 112 28
f 392 93 399
f 263 285 311
f 380 386 146
f 291 5 424
f 426 427 428
f 386 25 324
f 400 197 196
f 425 10 361
f 329 415 384
f 226 195 262
f 429 75 430
f 291 424 286
f 246 152 278
f 237 239 374
f 197 232 196
f 425 28 10
f 246 114 152
f 431 1 70
f 112 18 28
f 432 433 434
f 235 250 326
f 415 425 361
f 302 304 380
f 435 309 436
f 437 438 24
f 415 361 384
f 437 24 25
f 386 437 25
f 439 9 440
f 438 441 24
f 355 193 271
f 442 443 444
f 397 213 212
f 445 173 230
f 261 136 334
f 240 167 241
f 210 98 97
f 249 117 446
f 46 102 234
f 44 105 427
f 225 224 284
f 226 193 407
f 319 15 54
f 249 446 340
f 348 31 47
f 362 92 91
f 447 183 233
f 447 189 183
f 386 128 437
f 184 188 389
f 96 448 103
f 203 202 329
f 325 202 269
f 387 188 187
f 346 266 383
f 377 376 367
f 340 446 321
f 339 31 348
f 427 449 207
f 349 92 362
f 8 13 450
f 361 296 384
f 425 68 112
f 352 353 345
f 186 156 223
f 241 167 197
f 321 446 322
f 338 31 339
f 432 451 433
f 47 92 349
f 422 451 423
f 356 452 327
f 69 37 56
f 383 266 255
f 220 81 295
f 383 255 394
f 334 136 88
f 22 453 23
f 435 454 309
f 131 142 140
f 443 454 444
f 367 376 364
f 440 450 455
f 406 456 360
f 384 296 287
f 328 129 200
f 290 16 5
f 280 219 281
f 421 33 422
f 245 457 115
f 345 353 264
f 253 252 372
f 255 266 272
f 378 166 165
f 415 68 425
f 147 181 139
f 380 128 386
f 381 95 85
f 434 111 458
f 267 256 341
f 374 303 302
f 289 288 336
f 309 45 436
f 394 255 254
f 276 275 354
f 9 8 450
f 426 44 427
f 305 2 431
f 409 280 316
f 444 454 435
f 403 314 388
f 360 456 296
f 405 314 313
f 342 68 415
f 232 166 299
f 116 459 371
f 281 460 461
f 396 213 397
f 221 167 240
f 407 193 355
f 160 78 65
f 176 143 181
f 304 128 380
f 9 450 440
f 284 224 306
f 223 156 224
f 423 451 432
f 256 272 276
f 400 241 197
f 382 103 403
f 250 66 326
f 63 95 381
f 239 303 374
f 242 241 335
f 406 462 456
f 410 280 409
f 436 45 463
f 24 441 54
f 438 464 441
f 238 282 239
f 372 462 373
f 412 445 230
f 336 288 414
f 331 169 206
f 296 456 288
f 109 465 273
f 251 466 358
f 411 16 413
f 467 468 443
f 402 447 233
f 388 314 405
f 306 132 208
f 332 201 236
f 343 140 76
f 463 45 44
f 463 44 426
f 265 282 238
f 163 37 3
f 366 238 237
f 341 256 276
f 298 465 109
f 354 275 366
f 299 166 378
f 469 33 421
f 103 448 403
f 342 66 68
f 38 35 418
f 64 67 249
f 71 219 410
f 246 115 114
f 410 219 280
f 180 470 365
f 74 150 52
f 326 66 342
f 118 103 382
f 102 471 235
f 189 376 187
f 393 252 251
f 433 111 434
f 323 467 472
f 376 473 364
f 431 2 1
f 251 474 466
f 84 129 328
f 155 141 49
f 224 156 132
f 115 457 396
f 309 471 102
f 373 462 406
f 80 459 395
f 353 282 264
f 2 144 79
f 451 475 433
f 217 216 375
f 73 476 89
f 93 461 205
f 469 35 33
f 249 67 117
f 250 477 117
f 335 241 400
f 371 459 478
f 180 171 474
f 266 265 272
f 205 479 91
f 358 466 379
f 105 480 333
f 271 452 356
f 379 466 445
f 173 172 179
f 456 462 414
f 420 58 60
f 379 445 412
f 288 456 414
f 333 209 330
f 330 201 332
f 179 447 402
f 392 461 93
f 281 461 385
f 473 172 364
f 330 209 201
f 131 140 343
f 91 479 363
f 411 481 16
f 34 169 331
f 272 265 275
f 416 482 483
f 413 16 290
f 461 460 205
f 31 484 29
f 468 485 443
f 170 36 191
f 365 470 375
f 207 449 191
f 77 58 21
f 418 35 469
f 404 216 215
f 486 144 305
f 175 40 7
f 364 172 180
f 117 477 446
f 474 470 180
f 275 238 366
f 224 132 306
f 445 171 173
f 451 487 475
f 26 40 324
f 177 130 439
f 414 252 393
f 314 448 315
f 350 30 29
f 322 467 323
f 54 441 320
f 275 265 238
f 327 482 356
f 416 98 210
f 390 476 73
f 353 488 282
f 139 143 76
f 34 36 169
f 155 78 160
f 408 477 250
f 417 207 38
f 109 274 13
f 73 164 391
f 427 207 428
f 179 172 473
f 458 489 490
f 60 59 429
f 333 449 105
f 128 127 437
f 490 489 318
f 419 453 22
f 160 141 155
f 474 171 466
f 52 475 87
f 430 204 177
f 337 464 338
f 369 119 82
f 228 78 155
f 372 252 462
f 466 171 445
f 239 488 303
f 179 473 447
f 455 274 273
f 69 453 90
f 169 36 170
f 357 141 160
f 16 481 6
f 491 492 486
f 120 481 401
f 483 482 344
f 472 493 494
f 282 488 239
f 494 493 442
f 269 480 46
f 317 492 491
f 470 217 375
f 298 39 398
f 447 473 189
f 351 488 353
f 315 157 62
f 403 448 314
f 215 217 372
f 116 190 459
f 464 495 338
f 89 460 219
f 462 252 414
f 385 461 392
f 176 204 143
f 15 14 54
f 251 253 474
f 351 496 488
f 454 471 309
f 82 497 370
f 22 58 420
f 363 479 498
f 488 496 303
f 23 453 69
f 359 496 351
f 327 452 259
f 446 477 322
f 46 480 105
f 93 149 399
f 181 143 139
f 80 119 459
f 7 130 176
f 189 473 376
f 13 274 450
f 459 119 478
f 52 150 475
f 459 190 395
f 32 499 33
f 356 482 416
f 235 471 408
f 151 216 404
f 408 468 477
f 452 231 259
f 253 217 470
f 475 487 87
f 42 104 151
f 396 190 115
f 56 37 163
f 479 476 498
f 324 40 175
f 219 460 281
f 98 497 82
f 303 496 304
f 120 218 481
f 338 484 31
f 399 30 350
f 359 126 496
f 439 130 9
f 375 154 368
f 483 497 416
f 113 164 62
f 320 441 500
f 372 217 253
f 422 487 451
f 477 468 322
f 424 457 245
f 496 126 304
f 253 470 474
f 424 501 457
f 259 231 145
f 268 452 271
f 498 476 390
f 4 501 5
f 62 164 72
f 333 480 209
f 368 154 118
f 47 149 92
f 63 157 96
f 457 501 213
f 441 464 500
f 268 231 452
f 433 150 111
f 422 499 487
f 153 126 359
f 391 164 113
f 304 126 128
f 443 485 454
f 428 207 417
f 396 457 213
f 213 501 4
f 429 59 75
f 438 495 464
f 87 487 347
f 500 464 337
f 33 499 422
f 90 453 419
f 479 502 476
f 111 489 458
f 437 127 438
f 143 204 75
f 105 449 427
f 370 497 483
f 467 493 472
f 503 465 298
f 487 499 347
f 448 157 315
f 273 465 503
f 145 492 317
f 318 489 110
f 79 231 268
f 216 154 375
f 5 501 424
f 442 493 443
f 395 190 396
f 96 157 448
f 94 104 42
f 29 484 153
f 398 39 15
f 401 481 411
f 322 468 467
f 450 274 455
f 75 204 430
f 209 480 269
f 478 119 369
f 191 449 333
f 344 482 327
f 347 499 32
f 50 141 357
f 30 149 47
f 6 218 99
f 454 485 471
f 110 489 111
f 144 492 145
f 57 78 228
f 443 493 467
f 486 492 144
f 416 497 98
f 471 485 408
f 151 154 216
f 205 502 479
f 153 495 127
f 460 502 205
f 476 502 89
f 89 502 460
f 484 495 153
f 481 218 6
f 475 150 433
f 399 149 30
f 408 485 468
f 127 495 438
f 338 495 484
f 504 505 506
f 50 507 48
f 508 509 510
f 506 511 504
f 512 513 514
f 508 515 509
f 516 517 518
f 19 519 17
f 520 521 522
f 523 517 524
f 525 526 527
f 518 517 528
f 529 513 530
f 531 532 533
f 48 507 534
f 530 519 529
f 525 535 526
f 518 536 516
f 537 538 534
f 525 539 535
f 535 539 540
f 522 541 520
f 542 532 531
f 543 544 545
f 524 517 546
f 547 518 528
f 548 549 550
f 17 519 530
f 551 552 522
f 514 513 529
f 534 507 537
f 553 554 555
f 556 513 512
f 557 554 553
f 558 559 61
f 19 560 519
f 556 561 513
f 562 563 564
f 565 511 566
f 544 567 545
f 568 552 551
f 569 570 571
f 50 572 507
f 556 573 561
f 574 575 576
f 577 578 579
f 580 581 582
f 538 583 534
f 584 585 586
f 550 587 548
f 588 544 543
f 86 583 85
f 589 590 588
f 504 591 505
f 564 592 562
f 566 511 506
f 593 594 595
f 576 575 596
f 597 598 574
f 581 599 600
f 601 521 520
f 588 602 589
f 567 603 604
f 519 560 605
f 61 559 113
f 590 544 588
f 528 517 523
f 534 583 86
f 606 536 518
f 607 608 609
f 565 552 511
f 548 610 549
f 582 611 580
f 576 597 574
f 612 578 577
f 123 609 122
f 125 561 124
f 613 614 615
f 616 557 617
f 571 570 618
f 560 570 605
f 602 619 589
f 620 617 621
f 580 599 581
f 616 578 557
f 574 598 583
f 605 570 569
f 579 578 616
f 586 622 584
f 593 623 594
f 624 625 601
f 567 626 603
f 596 575 627
f 607 609 123
f 122 609 628
f 615 614 629
f 552 541 522
f 627 630 596
f 620 631 617
f 632 619 602
f 558 633 559
f 558 598 597
f 583 598 85
f 617 557 621
f 540 539 634
f 124 561 635
f 636 637 638
f 530 561 125
f 562 639 563
f 640 641 642
f 643 566 644
f 645 646 647
f 648 649 650
f 642 520 651
f 652 653 654
f 565 566 643
f 646 637 636
f 655 656 657
f 549 610 658
f 659 660 661
f 662 663 664
f 617 631 665
f 666 667 668
f 607 669 608
f 538 574 583
f 520 541 651
f 632 670 619
f 122 628 198
f 631 671 665
f 640 642 660
f 595 672 593
f 660 642 661
f 673 667 666
f 674 643 644
f 634 675 540
f 676 660 659
f 657 656 586
f 557 553 621
f 677 600 678
f 679 653 680
f 662 681 682
f 683 649 648
f 198 628 684
f 685 686 687
f 688 646 645
f 564 689 592
f 513 561 530
f 654 653 679
f 663 653 664
f 690 691 692
f 693 571 618
f 694 581 600
f 545 567 695
f 696 697 698
f 664 681 662
f 699 700 701
f 649 702 650
f 632 703 670
f 704 549 658
f 705 706 702
f 707 681 708
f 709 671 631
f 710 711 712
f 664 653 652
f 601 713 624
f 243 560 19
f 703 706 705
f 714 694 715
f 694 600 715
f 716 560 243
f 555 717 553
f 682 681 718
f 719 720 721
f 722 723 724
f 715 600 677
f 725 726 727
f 728 700 699
f 641 520 642
f 702 706 729
f 561 573 635
f 684 545 695
f 624 730 258
f 684 695 260
f 619 670 731
f 732 671 733
f 733 671 709
f 679 656 655
f 734 722 724
f 735 549 704
f 708 681 664
f 670 703 705
f 736 719 721
f 737 608 738
f 721 723 722
f 608 739 738
f 718 681 707
f 701 700 740
f 642 651 661
f 741 736 721
f 742 585 743
f 698 697 744
f 684 628 745
f 737 738 746
f 668 667 747
f 680 748 679
f 749 720 719
f 750 694 714
f 751 671 732
f 752 738 753
f 754 755 756
f 680 653 663
f 757 509 758
f 258 730 292
f 260 695 293
f 606 759 760
f 761 762 763
f 582 581 764
f 755 765 756
f 743 585 584
f 641 601 520
f 684 745 545
f 766 571 693
f 709 631 767
f 665 751 768
f 740 769 701
f 665 671 751
f 770 771 772
f 768 751 773
f 774 775 776
f 521 625 777
f 778 779 780
f 781 782 783
f 784 646 688
f 745 543 545
f 298 536 606
f 773 751 785
f 578 554 557
f 510 782 786
f 695 567 604
f 745 746 543
f 293 695 604
f 787 548 673
f 317 624 258
f 293 604 318
f 320 546 319
f 323 788 321
f 657 586 789
f 766 787 666
f 292 730 725
f 787 673 666
f 674 644 790
f 791 588 543
f 763 690 692
f 754 648 650
f 792 525 527
f 654 679 655
f 793 794 648
f 795 634 690
f 792 527 796
f 794 692 683
f 708 664 652
f 766 797 787
f 198 684 260
f 746 791 543
f 794 763 692
f 798 650 799
f 763 795 690
f 339 800 337
f 340 716 243
f 801 792 731
f 768 773 802
f 754 793 648
f 650 702 799
f 803 666 668
f 794 683 648
f 798 754 650
f 292 725 344
f 17 530 125
f 804 749 805
f 527 806 796
f 807 720 804
f 692 801 683
f 579 802 734
f 349 542 348
f 805 808 809
f 809 810 811
f 785 718 707
f 505 812 813
f 785 707 814
f 727 640 815
f 124 635 357
f 773 814 741
f 792 796 731
f 577 734 816
f 817 632 818
f 577 579 734
f 645 799 729
f 773 785 814
f 819 765 820
f 803 766 666
f 810 821 811
f 363 595 362
f 822 638 823
f 654 655 776
f 732 790 718
f 707 708 824
f 708 652 825
f 579 768 802
f 826 822 827
f 370 580 369
f 612 577 828
f 48 534 86
f 773 741 802
f 371 607 123
f 829 830 687
f 822 823 827
f 652 654 831
f 659 661 674
f 756 747 793
f 826 832 822
f 688 729 833
f 655 657 834
f 733 674 790
f 381 558 61
f 835 827 836
f 752 818 791
f 807 804 772
f 837 668 747
f 804 805 838
f 657 789 839
f 789 528 523
f 840 740 841
f 840 836 740
f 835 826 827
f 391 562 390
f 805 809 842
f 616 665 768
f 843 798 799
f 844 807 845
f 707 824 814
f 781 783 846
f 577 816 828
f 847 510 786
f 746 752 791
f 848 786 750
f 809 811 849
f 823 769 827
f 848 847 786
f 621 848 714
f 801 731 850
f 847 508 510
f 734 724 816
f 851 555 852
f 821 629 533
f 812 696 813
f 852 612 853
f 848 750 714
f 688 645 729
f 854 835 836
f 620 621 714
f 786 781 750
f 620 714 715
f 764 694 750
f 829 687 855
f 505 813 856
f 579 616 768
f 857 627 537
f 506 505 856
f 785 732 718
f 616 617 665
f 645 843 799
f 612 828 853
f 807 772 845
f 806 590 589
f 745 737 746
f 840 854 836
f 858 840 841
f 563 859 860
f 861 829 862
f 708 825 824
f 804 838 772
f 677 815 676
f 770 689 771
f 678 727 815
f 835 596 826
f 805 842 838
f 767 620 715
f 851 852 863
f 693 864 797
f 781 764 750
f 754 756 793
f 781 846 764
f 852 853 863
f 652 831 825
f 846 582 764
f 853 865 863
f 563 559 859
f 866 841 867
f 809 849 842
f 677 678 815
f 801 850 683
f 820 861 512
f 866 868 858
f 819 820 514
f 869 851 870
f 757 817 818
f 654 776 831
f 724 844 728
f 687 857 855
f 821 533 811
f 627 538 537
f 871 869 872
f 829 855 862
f 732 733 790
f 851 863 870
f 752 757 818
f 843 873 798
f 866 858 841
f 756 837 747
f 872 688 833
f 767 715 677
f 844 845 867
f 868 860 858
f 871 833 874
f 875 803 668
f 758 874 817
f 868 564 860
f 871 872 833
f 678 876 727
f 724 728 816
f 655 834 776
f 564 563 860
f 731 670 850
f 767 677 676
f 869 870 872
f 877 540 878
f 733 659 674
f 844 867 728
f 879 504 880
f 845 866 867
f 861 862 512
f 758 871 874
f 838 770 772
f 806 589 796
f 857 537 881
f 645 647 843
f 710 712 882
f 857 881 855
f 709 767 676
f 757 758 817
f 862 556 512
f 537 507 881
f 709 676 659
f 820 512 514
f 529 605 883
f 849 593 842
f 785 751 732
f 657 839 834
f 753 509 757
f 507 572 884
f 746 738 752
f 885 886 887
f 789 523 839
f 670 705 850
f 819 514 883
f 837 875 668
f 733 709 659
f 888 744 889
f 752 753 757
f 745 628 737
f 831 890 825
f 514 529 883
f 628 609 737
f 551 522 891
f 529 519 605
f 892 893 894
f 766 693 797
f 819 883 875
f 834 774 776
f 704 658 895
f 524 896 897
f 837 819 875
f 523 524 897
f 523 897 839
f 898 742 899
f 524 900 896
f 778 780 901
f 546 516 319
f 506 856 902
f 840 903 854
f 511 904 504
f 799 702 729
f 817 703 632
f 796 619 731
f 547 585 742
f 905 518 547
f 600 599 678
f 667 762 761
f 550 549 735
f 723 720 807
f 906 618 716
f 699 701 907
f 566 506 902
f 340 906 716
f 339 531 800
f 595 594 362
f 740 700 841
f 743 584 908
f 319 516 398
f 815 660 676
f 897 613 839
f 507 884 881
f 827 769 836
f 804 720 749
f 321 906 340
f 905 547 742
f 348 531 339
f 362 594 349
f 749 808 805
f 837 765 819
f 809 808 810
f 605 569 883
f 646 636 647
f 526 535 909
f 902 662 682
f 767 631 620
f 788 906 321
f 542 531 348
f 349 594 542
f 610 910 658
f 621 553 848
f 884 911 881
f 894 711 710
f 791 602 588
f 764 581 694
f 644 566 902
f 886 587 550
f 721 720 723
f 844 723 807
f 584 698 908
f 589 619 796
f 632 602 818
f 898 905 742
f 836 769 740
f 841 700 867
f 874 703 817
f 895 779 778
f 673 762 667
f 820 912 861
f 862 911 556
f 756 765 837
f 881 911 855
f 509 515 758
f 647 913 914
f 786 782 781
f 729 706 833
f 883 569 875
f 771 689 868
f 839 613 834
f 85 598 381
f 915 603 892
f 802 722 734
f 776 775 831
f 798 755 754
f 742 743 899
f 724 723 844
f 814 736 741
f 888 908 744
f 855 911 862
f 867 700 728
f 858 903 840
f 882 526 909
f 916 905 898
f 661 643 674
f 783 739 608
f 859 903 860
f 772 771 845
f 874 706 703
f 765 912 820
f 887 550 735
f 866 771 868
f 875 569 803
f 891 521 777
f 371 917 607
f 918 919 770
f 612 554 578
f 834 613 774
f 658 779 895
f 803 571 766
f 748 656 679
f 790 682 718
f 741 721 722
f 576 920 597
f 797 610 787
f 381 598 558
f 831 775 890
f 835 576 596
f 792 691 525
f 912 921 861
f 727 726 640
f 860 903 858
f 692 691 801
f 899 743 922
f 546 900 524
f 900 923 896
f 640 660 815
f 829 921 830
f 873 755 798
f 634 539 690
f 794 761 763
f 585 924 586
f 701 925 907
f 675 926 886
f 850 649 683
f 755 912 765
f 544 626 567
f 747 761 793
f 871 515 869
f 780 927 928
f 893 711 894
f 505 591 812
f 908 698 744
f 890 929 825
f 872 784 688
f 760 930 606
f 606 930 298
f 865 931 863
f 922 908 888
f 922 743 908
f 845 771 866
f 728 699 816
f 853 907 865
f 769 925 701
f 741 722 802
f 856 662 902
f 848 553 847
f 824 736 814
f 747 667 761
f 929 719 736
f 833 706 874
f 705 702 649
f 877 535 540
f 716 570 560
f 868 689 564
f 852 554 612
f 609 608 737
f 907 925 865
f 651 565 643
f 886 550 887
f 818 602 791
f 823 925 769
f 932 591 879
f 854 576 835
f 644 902 682
f 712 526 882
f 787 610 548
f 892 603 893
f 763 762 795
f 856 663 662
f 647 914 843
f 472 928 323
f 565 541 552
f 931 933 637
f 824 929 736
f 528 924 547
f 932 934 591
f 861 921 829
f 569 571 803
f 651 643 661
f 846 917 582
f 637 933 638
f 522 521 891
f 832 686 685
f 592 935 562
f 601 625 521
f 672 918 593
f 890 936 929
f 749 936 808
f 618 570 716
f 618 937 693
f 478 917 371
f 696 680 813
f 914 913 830
f 793 761 794
f 813 680 663
f 644 682 790
f 813 663 856
f 696 698 748
f 595 938 672
f 825 929 824
f 801 691 792
f 873 921 912
f 873 912 755
f 797 910 610
f 638 939 636
f 593 918 842
f 838 918 770
f 816 699 828
f 705 649 850
f 363 938 595
f 822 939 638
f 828 699 907
f 828 907 853
f 823 933 925
f 870 931 784
f 483 940 876
f 656 622 586
f 863 931 870
f 533 941 531
f 870 784 872
f 758 515 871
f 672 919 918
f 591 934 812
f 780 942 927
f 854 920 576
f 865 933 931
f 909 535 877
f 687 686 857
f 515 943 869
f 638 933 823
f 691 539 525
f 634 926 675
f 555 554 852
f 906 937 618
f 719 936 749
f 784 637 646
f 777 625 944
f 533 532 811
f 696 748 680
f 323 928 788
f 320 900 546
f 843 914 873
f 727 940 725
f 929 936 719
f 568 904 552
f 879 591 504
f 893 945 711
f 678 599 876
f 562 935 390
f 936 946 808
f 859 920 903
f 690 539 691
f 925 933 865
f 693 937 864
f 913 939 685
f 945 947 711
f 540 675 878
f 391 639 562
f 885 675 886
f 504 904 880
f 851 943 555
f 890 946 936
f 490 948 915
f 744 934 889
f 897 614 613
f 318 948 490
f 590 945 544
f 921 914 830
f 800 923 337
f 903 920 854
f 580 611 369
f 760 759 916
f 775 946 890
f 944 949 491
f 931 637 784
f 494 950 472
f 587 951 548
f 518 759 606
f 344 940 483
f 901 950 494
f 491 949 317
f 559 633 859
f 917 669 607
f 795 951 587
f 548 951 673
f 830 685 687
f 508 943 515
f 884 572 635
f 398 536 298
f 635 572 357
f 689 919 592
f 808 946 810
f 546 517 516
f 842 918 838
f 873 914 921
f 800 952 923
f 586 924 789
f 832 939 822
f 370 953 580
f 498 938 363
f 810 954 821
f 946 954 810
f 788 937 906
f 849 623 593
f 917 611 582
f 636 939 913
f 945 626 544
f 730 726 725
f 775 954 946
f 846 669 917
f 635 573 884
f 552 904 511
f 478 611 917
f 658 910 779
f 943 717 555
f 905 759 518
f 685 939 832
f 553 717 847
f 876 940 727
f 884 573 911
f 636 913 647
f 864 910 797
f 857 686 627
f 937 927 864
f 590 947 945
f 627 575 538
f 711 947 712
f 526 955 527
f 498 935 938
f 608 669 783
f 531 941 800
f 770 919 689
f 580 953 599
f 774 954 775
f 640 726 641
f 811 532 849
f 651 541 565
f 789 924 528
f 954 615 821
f 826 630 832
f 738 739 753
f 587 926 795
f 876 953 483
f 624 713 730
f 559 639 113
f 500 900 320
f 730 713 726
f 782 739 783
f 788 927 937
f 913 685 830
f 774 615 954
f 762 951 795
f 509 956 510
f 390 935 498
f 547 924 585
f 563 639 559
f 596 630 826
f 594 623 542
f 597 633 558
f 500 923 900
f 779 942 780
f 821 615 629
f 113 639 391
f 613 615 774
f 603 626 893
f 878 675 885
f 584 622 698
f 880 904 568
f 889 934 932
f 806 947 590
f 337 923 500
f 726 713 641
f 947 955 712
f 935 957 938
f 915 948 603
f 896 614 897
f 739 956 753
f 923 952 896
f 782 956 739
f 472 950 928
f 483 953 370
f 744 697 934
f 859 633 920
f 298 930 503
f 503 930 760
f 510 956 782
f 317 949 624
f 604 948 318
f 832 630 686
f 795 926 634
f 780 950 901
f 641 713 601
f 783 669 846
f 920 633 597
f 753 956 509
f 629 941 533
f 538 575 574
f 748 622 656
f 806 955 947
f 869 943 851
f 928 927 788
f 712 955 526
f 516 536 398
f 369 611 478
f 527 955 806
f 725 940 344
f 357 572 50
f 698 622 748
f 812 697 696
f 847 717 508
f 624 949 625
f 916 759 905
f 542 623 532
f 886 926 587
f 910 942 779
f 603 948 604
f 911 573 556
f 673 951 762
f 928 950 780
f 599 953 876
f 864 942 910
f 625 949 944
f 686 630 627
f 508 717 943
f 614 952 629
f 938 957 672
f 672 957 919
f 592 957 935
f 629 952 941
f 919 957 592
f 893 626 945
f 532 623 849
f 927 942 864
f 934 697 812
f 896 952 614
f 941 952 800
f 958 959 960
f 961 962 963
f 959 958 964
f 965 966 967
f 966 965 968
f 969 970 971
f 962 961 972
f 963 962 973
f 974 975 976
f 977 975 978
f 975 979 978
f 980 959 964
f 981 966 982
f 966 968 982
f 971 970 983
f 970 969 982
f 974 984 975
f 985 986 987
f 988 989 990
f 959 980 987
f 958 960 991
f 990 989 992
f 976 975 993
f 985 987 994
f 976 993 995
f 993 975 977
f 996 997 983
f 995 993 998
f 999 1000 1001
f 995 998 1002
f 995 1002 1003
f 1002 998 1004
f 1004 998 1005
f 1004 1005 1006
f 1004 1006 1007
f 1006 1005 1008
f 1007 1006 1009
f 1008 1005 1010
f 1007 1009 1011
f 1008 1010 1012
f 1007 1011 1013
f 1011 1009 1014
f 1008 1012 1015
f 1012 1010 1016
f 1014 1009 1017
f 1013 1011 1018
f 1015 1012 961
f 1014 1017 1019
f 1013 1018 1020
f 1015 961 963
f 1014 1019 970
f 1019 1017 1021
f 1013 1020 1022
f 426 428 997
f 444 435 1000
f 892 894 980
f 494 442 962
f 490 915 958
f 710 882 985
f 436 463 1023
f 423 432 1024
f 887 735 1025
f 778 901 988
f 434 458 1026
f 469 421 966
f 417 418 969
f 878 885 979
f 704 895 1027
f 909 877 974
f 1011 1014 1028
f 1018 1011 1028
f 1014 970 1028
f 1002 1004 1029
f 1006 1008 1030
f 1009 1006 1030
f 1017 1009 1030
f 1008 1015 1030
f 1017 1030 1031
f 1030 1015 1031
f 1021 1017 1031
f 1015 963 1031
f 1013 1022 1029
f 1004 1007 1029
f 1007 1013 1029
f 1003 1002 1032
f 1003 1032 959
f 1002 1029 1032
f 1029 1022 1032
f 1010 1033 1034
f 959 1032 960
f 1032 1022 960
f 1035 997 996
f 993 977 1033
f 1036 962 972
f 999 1001 1037
f 1010 1005 1033
f 998 993 1033
f 962 1038 973
f 976 995 986
f 1033 977 1034
f 960 1022 1039
f 1026 1039 1040
f 995 1003 986
f 1005 998 1033
f 961 1012 989
f 1022 1020 1039
f 1016 1010 1034
f 1012 1016 989
f 1031 963 999
f 1003 959 987
f 1020 1018 965
f 1024 965 967
f 965 1018 968
f 1016 1034 1041
f 1028 970 982
f 974 976 1042
f 965 1024 1040
f 1020 965 1040
f 1026 1040 1043
f 1018 1028 968
f 1021 1031 999
f 1041 1025 1044
f 986 1003 987
f 997 971 983
f 1034 977 1045
f 984 979 975
f 1041 1027 992
f 1016 1041 992
f 960 1039 991
f 1025 1041 1045
f 1039 1020 1040
f 1039 1026 991
f 436 1023 1001
f 877 878 984
f 997 428 971
f 463 426 1035
f 1000 435 1001
f 882 909 1046
f 494 962 1036
f 435 436 1001
f 710 985 994
f 980 894 994
f 988 901 1036
f 417 969 971
f 426 997 1035
f 442 444 1038
f 892 980 964
f 958 915 964
f 966 421 967
f 1023 463 1035
f 1027 895 990
f 894 710 994
f 423 1024 967
f 895 778 990
f 421 423 967
f 428 417 971
f 878 979 984
f 901 494 1036
f 778 988 990
f 985 882 1046
f 469 966 981
f 915 892 964
f 969 418 981
f 962 442 1038
f 974 877 984
f 909 974 1046
f 418 469 981
f 444 1000 1038
f 704 1027 1044
f 1025 735 1044
f 1024 432 1043
f 434 1026 1043
f 735 704 1044
f 977 978 1045
f 887 1025 1047
f 979 885 1047
f 490 958 1048
f 1026 458 1048
f 432 434 1043
f 1019 1021 996
f 1046 974 1042
f 1027 1041 1044
f 987 980 994
f 1019 996 983
f 1023 996 1037
f 961 989 972
f 999 963 973
f 969 981 982
f 968 1028 982
f 996 1021 1037
f 986 985 1042
f 885 887 1047
f 458 490 1048
f 970 1019 983
f 1040 1024 1043
f 989 988 972
f 1025 978 1047
f 978 979 1047
f 976 986 1042
f 989 1016 992
f 958 991 1048
f 991 1026 1048
f 1041 1034 1045
f 1023 1035 996
f 1000 999 973
f 1027 990 992
f 978 1025 1045
f 985 1046 1042
f 1021 999 1037
f 1001 1023 1037
f 988 1036 972
f 1038 1000 973
f 1049 1050 1051
f 1052 1053 1054
f 1051 1055 1049
f 1056 1057 1058
f 1058 1059 1056
f 1060 1061 1062
f 1054 1063 1052
f 1053 1064 1054
f 1065 1066 1067
f 1068 1069 1067
f 1067 1069 1070
f 1071 1055 1051
f 1072 1073 1058
f 1058 1073 1059
f 1061 1074 1062
f 1062 1073 1060
f 1065 1067 1075
f 1076 1077 1078
f 1079 1080 1081
f 1051 1077 1071
f 1049 1082 1050
f 1080 1083 1081
f 1066 1084 1067
f 1076 1085 1077
f 1084 1068 1067
f 1066 1086 1084
f 1087 1074 1088
f 1086 1089 1084
f 1090 1091 1092
f 1086 1093 1089
f 1086 1094 1093
f 1093 1095 1089
f 1095 1096 1089
f 1095 1097 1096
f 1097 1098 1096
f 1095 1099 1097
f 1099 1100 1097
f 1098 1101 1096
f 1098 1102 1101
f 1099 1103 1100
f 1098 1104 1102
f 1103 1105 1100
f 1099 1106 1103
f 1102 1107 1101
f 1105 1108 1100
f 1106 1109 1103
f 1104 1052 1102
f 1106 1110 1109
f 1105 1111 1108
f 1104 1053 1052
f 1106 1112 1110
f 1111 1113 1108
f 1105 1062 1111
f 568 1114 880
f 889 1079 888
f 177 1058 430
f 879 1115 932
f 273 1088 455
f 898 1092 916
f 431 1071 305
f 420 1116 419
f 429 1117 60
f 440 1060 439
f 891 1070 551
f 922 1054 899
f 486 1076 491
f 944 1065 777
f 90 1049 70
f 760 1118 503
f 1103 1119 1105
f 1109 1119 1103
f 1105 1119 1062
f 1093 1120 1095
f 1097 1121 1098
f 1100 1121 1097
f 1108 1121 1100
f 1098 1121 1104
f 1108 1122 1121
f 1121 1122 1104
f 1113 1122 1108
f 1104 1122 1053
f 1106 1120 1112
f 1095 1120 1099
f 1099 1120 1106
f 1094 1123 1093
f 1094 1051 1123
f 1093 1123 1120
f 1120 1123 1112
f 1101 1124 1125
f 1051 1050 1123
f 1123 1050 1112
f 1126 1087 1088
f 1084 1125 1068
f 1127 1063 1054
f 1090 1128 1091
f 1101 1125 1096
f 1089 1125 1084
f 1054 1064 1129
f 1066 1078 1086
f 1125 1124 1068
f 1050 1130 1112
f 1116 1131 1130
f 1086 1078 1094
f 1096 1125 1089
f 1052 1081 1102
f 1112 1130 1110
f 1107 1124 1101
f 1102 1081 1107
f 1122 1090 1053
f 1094 1077 1051
f 1110 1056 1109
f 1117 1057 1056
f 1056 1059 1109
f 1107 1132 1124
f 1119 1073 1062
f 1065 1133 1066
f 1056 1131 1117
f 1110 1131 1056
f 1116 1134 1131
f 1109 1059 1119
f 1113 1090 1122
f 1132 1135 1114
f 1078 1077 1094
f 1088 1074 1061
f 1124 1136 1068
f 1075 1067 1070
f 1132 1083 1115
f 1107 1083 1132
f 1050 1082 1130
f 1114 1136 1132
f 1130 1131 1110
f 1130 1082 1116
f 777 1075 891
f 491 1137 944
f 455 1061 440
f 430 1057 429
f 177 1072 1058
f 1088 1061 455
f 891 1075 1070
f 503 1126 273
f 1058 1057 430
f 889 1080 1079
f 1065 1075 777
f 1079 1127 888
f 1076 1137 491
f 429 1057 1117
f 1060 1072 439
f 440 1061 1060
f 273 1126 1088
f 898 1129 1092
f 922 1127 1054
f 888 1127 922
f 486 1085 1076
f 1071 1085 305
f 305 1085 486
f 439 1072 177
f 760 1091 1118
f 70 1055 431
f 431 1055 1071
f 1115 1080 932
f 944 1137 1065
f 1118 1126 503
f 916 1091 760
f 1092 1091 916
f 1054 1129 899
f 1049 1055 70
f 899 1129 898
f 932 1080 889
f 1114 1135 880
f 879 1135 1115
f 1117 1134 60
f 420 1134 1116
f 880 1135 879
f 1068 1136 1069
f 1070 1138 551
f 568 1138 1114
f 1116 1139 419
f 90 1139 1049
f 60 1134 420
f 1111 1087 1113
f 1137 1133 1065
f 1115 1135 1132
f 1077 1085 1071
f 1111 1074 1087
f 1118 1128 1087
f 1052 1063 1081
f 1090 1064 1053
f 1060 1073 1072
f 1059 1073 1119
f 1087 1128 1113
f 1078 1133 1076
f 551 1138 568
f 419 1139 90
f 1062 1074 1111
f 1131 1134 1117
f 1081 1063 1079
f 1114 1138 1069
f 1069 1138 1070
f 1066 1133 1078
f 1081 1083 1107
f 1082 1139 1116
f 1049 1139 1082
f 1132 1136 1124
f 1118 1087 1126
f 1092 1064 1090
f 1115 1083 1080
f 1069 1136 1114
f 1076 1133 1137
f 1113 1128 1090
f 1091 1128 1118
f 1079 1063 1127
f 1129 1064 1092
