v 0.00000000 -0.98756754 -5.91816782
v 1.14205498 -1.47291292 -5.81640160
v 0.00000000 -1.94819682 -5.67490345
v 0.00000000 -5.81640160 -1.47291292
v 1.04154561 -5.91705024 -0.99424165
v 0.00000000 -5.97950696 -0.49547607
v 2.00000000 -5.81640160 1.47291292
v 0.85794502 -5.91816782 0.98756754
v 2.00000000 -5.97950696 0.49547607
v 2.00000000 -3.68527628 -4.73484306
v 0.85794502 -3.28168895 -5.02299887
v 2.00000000 -2.85568436 -5.27684251
v 0.00000000 -5.02299887 -3.28168895
v 1.04239336 -5.27684251 -2.85568436
v 0.00000000 -5.49463996 -2.41017255
v 0.00000000 -4.41434346 4.06368943
v 1.14205498 -4.06368943 4.41434346
v 0.00000000 -3.68527628 4.73484306
v 2.00000000 -1.94819682 5.67490345
v 0.96299157 -2.41626126 5.49196518
v 2.00000000 -2.85568436 5.27684251
v 2.00000000 -4.41434346 4.06368943
v 0.96682157 -4.73484306 3.68527628
v 2.00000000 -5.02299887 3.28168895
v 0.00000000 -5.49463996 2.41017255
v 1.14205498 -5.27684251 2.85568436
v 0.00000000 -5.02299887 3.28168895
v 0.00000000 -1.94819682 5.67490345
v 1.08199986 -1.47042380 5.81703136
v 0.00000000 -0.98756754 5.91816782
v 0.00000000 -3.68527628 -4.73484306
v 1.03789652 -4.07359614 -4.40520311
v 0.00000000 -4.41434346 -4.06368943
v 1.11327186 -5.67982484 1.93380191
v 0.88672814 -2.39623321 -5.50073326
v 0.88672814 -5.99998071 -0.01521292
v 1.11327186 -3.26894265 5.03130340
v 2.00000000 -1.94819682 -5.67490345
v 0.00000000 -5.81640160 1.47291292
v 2.00000000 -5.97950696 -0.49547607
v 0.00000000 -2.85568436 5.27684251
v 2.00000000 -5.81640160 -1.47291292
v 0.98481665 -5.67432978 -1.94986706
v 2.00000000 -5.49463996 -2.41017255
v 2.00000000 -5.02299887 -3.28168895
v 0.98397732 -4.73580793 -3.68403627
v 2.00000000 -4.41434346 -4.06368943
v 0.78130706 -0.71816867 5.95686442
v 0.78276925 -0.71087306 -5.95773946
v 2.00000000 -3.68527628 4.73484306
v 0.00000000 -2.85568436 -5.27684251
v 0.00000000 -5.97950696 0.49547607
v 2.00000000 -5.49463996 2.41017255
v 2.00000000 -0.98756754 5.91816782
v 2.00000000 -0.98756754 -5.91816782
v 0.00000000 -0.00000000 -6.00000000
v 0.00000000 0.00000000 6.00000000
v 1.00000000 0.00000000 6.00000000
v 1.00000000 -0.00000000 -6.00000000
v 1.42155708 -0.60683211 -5.96923402
v 1.39201391 -0.64617459 5.96510339
v 2.00000000 0.00000000 6.00000000
v 2.00000000 -0.00000000 -6.00000000
v 2.00000000 -0.00000000 -5.31890460
v 2.00000000 -0.69838676 -4.98089158
v 2.00000000 -0.69838676 4.98089158
v 2.00000000 0.00000000 5.31890460
v 2.00000000 -4.53855410 2.60000958
v 2.00000000 -3.89750139 3.61181760
v 2.00000000 -2.32791530 -3.96936891
v 2.00000000 -1.34592807 -4.41044602
v 2.00000000 -1.62694657 -3.65418183
v 2.00000000 -3.21676181 -4.20115068
v 2.00000000 -2.16503653 -4.79202315
v 2.00000000 -3.69975297 2.72808116
v 2.00000000 -4.50467127 -0.92494585
v 2.00000000 -5.27383000 -0.42061508
v 2.00000000 -4.98006518 -1.62285387
v 2.00000000 -4.20833942 1.88331900
v 2.00000000 -3.46410162 2.00000000
v 2.00000000 -4.21532453 -1.86679696
v 2.00000000 -3.80422607 -1.23606798
v 2.00000000 -1.33799286 4.41956999
v 2.00000000 -0.51499135 4.35526564
v 2.00000000 -0.54054742 -4.36850663
v 2.00000000 -4.01105991 -3.37377664
v 2.00000000 -4.55614378 -2.56494451
v 2.00000000 -4.96256922 1.65722360
v 2.00000000 -0.83164676 3.91259040
v 2.00000000 -5.19668219 0.69974634
v 2.00000000 -0.83164676 -3.91259040
v 2.00000000 -2.98452009 4.32091765
v 2.00000000 -2.13755836 4.80638025
v 2.00000000 -2.35114101 -3.23606798
v 2.00000000 -3.97808758 -0.41811385
v 2.00000000 -2.97257930 2.67652243
v 2.00000000 -2.29597725 3.99208734
v 2.00000000 -1.62694657 3.65418183
v 2.00000000 -4.49856974 0.96385117
v 2.00000000 -3.72348733 -2.69626671
v 2.00000000 -2.35114101 3.23606798
v 2.00000000 -3.08960013 3.47578052
v 2.00000000 -2.97257930 -2.67652243
v 2.00000000 -3.13262419 -3.43491956
v 2.00000000 -3.97808758 0.41811385
v 2.00000000 -4.64921565 0.02962936
v 2.00000000 -3.80422607 1.23606798
v 2.00000000 -3.46410162 -2.00000000
v 2.00000000 -1.42194047 5.15998262
v 2.00000000 -1.42902314 -5.15528640
v 2.00000000 -0.00000000 -4.00000000
v 2.00000000 0.00000000 4.00000000
v 2.00000000 -0.00000000 -4.63780921
v 2.00000000 0.00000000 4.63780921
v 1.50054688 -0.00000000 -5.53678984
v 0.49945312 -0.00000000 -5.53678984
v 0.00000000 -0.00000000 -5.31890460
v 0.00000000 -0.00000000 -4.63780921
v 0.49726562 -0.00000000 -4.99765419
v 1.00000000 -0.00000000 -4.57230819
v 1.00000000 -0.00000000 -5.34295846
v 1.50273438 -0.00000000 -4.99765419
v 0.00000000 -0.00000000 -4.00000000
v 0.66666667 -0.00000000 -4.00000000
v 0.45767165 -0.00000000 -4.45840778
v 1.33333333 -0.00000000 -4.00000000
v 1.54232835 -0.00000000 -4.45840778
v 0.00000000 -0.69838676 -4.98089158
v 0.00000000 0.00000000 5.31890460
v 0.00000000 -0.69838676 4.98089158
v 0.00000000 -4.53855410 2.60000958
v 0.00000000 -3.89750139 3.61181760
v 0.00000000 -2.32791530 -3.96936891
v 0.00000000 -1.62694657 -3.65418183
v 0.00000000 -1.34592807 -4.41044602
v 0.00000000 -2.16503653 -4.79202315
v 0.00000000 -3.21676181 -4.20115068
v 0.00000000 -3.69975297 2.72808116
v 0.00000000 -4.50467127 -0.92494585
v 0.00000000 -4.98006518 -1.62285387
v 0.00000000 -5.27383000 -0.42061508
v 0.00000000 -3.46410162 2.00000000
v 0.00000000 -4.20833942 1.88331900
v 0.00000000 -3.80422607 -1.23606798
v 0.00000000 -4.21532453 -1.86679696
v 0.00000000 -1.33799286 4.41956999
v 0.00000000 -0.51499135 4.35526564
v 0.00000000 -0.54054742 -4.36850663
v 0.00000000 -4.01105991 -3.37377664
v 0.00000000 -4.55614378 -2.56494451
v 0.00000000 -4.96256922 1.65722360
v 0.00000000 -0.83164676 3.91259040
v 0.00000000 -5.19668219 0.69974634
v 0.00000000 -0.83164676 -3.91259040
v 0.00000000 -2.13755836 4.80638025
v 0.00000000 -2.98452009 4.32091765
v 0.00000000 -2.35114101 -3.23606798
v 0.00000000 -3.97808758 -0.41811385
v 0.00000000 -2.97257930 2.67652243
v 0.00000000 -2.29597725 3.99208734
v 0.00000000 -1.62694657 3.65418183
v 0.00000000 -4.49856974 0.96385117
v 0.00000000 -3.72348733 -2.69626671
v 0.00000000 -2.35114101 3.23606798
v 0.00000000 -3.08960013 3.47578052
v 0.00000000 -2.97257930 -2.67652243
v 0.00000000 -3.13262419 -3.43491956
v 0.00000000 -3.97808758 0.41811385
v 0.00000000 -4.64921565 0.02962936
v 0.00000000 -3.80422607 1.23606798
v 0.00000000 -3.46410162 -2.00000000
v 0.00000000 -1.42194047 5.15998262
v 0.00000000 -1.42902314 -5.15528640
v 0.00000000 0.00000000 4.00000000
v 0.00000000 0.00000000 4.63780921
v 1.50054688 0.00000000 5.53678984
v 0.49945312 0.00000000 5.53678984
v 0.49726562 0.00000000 4.99765419
v 1.00000000 0.00000000 5.34295846
v 1.00000000 0.00000000 4.57230819
v 1.50273438 0.00000000 4.99765419
v 0.45767165 0.00000000 4.45840778
v 0.66666667 0.00000000 4.00000000
v 1.33333333 0.00000000 4.00000000
v 1.54232835 0.00000000 4.45840778
v 0.68170329 -3.27455190 2.29723962
v 0.72386285 -2.67652243 2.97257930
v 1.38372021 -3.18320456 2.42223218
v 1.45983486 -2.72270490 2.93033753
v 1.35657033 -3.65418183 -1.62694657
v 0.72386285 -3.91259040 -0.83164676
v 1.43109966 -3.91259040 -0.83164676
v 0.63985611 -3.65418183 -1.62694657
v 0.72386285 -3.23606798 -2.35114101
v 1.43109966 -3.23606798 -2.35114101
v 0.52481788 -1.23609166 3.80421837
v 1.30370166 -1.28182285 3.78905399
v 0.60059235 -1.94187745 3.49701472
v 1.47507870 -1.23589689 -3.80428165
v 0.69629834 -1.28182285 -3.78905399
v 1.39939231 -1.94183723 -3.49703706
v 1.32736264 -2.07275557 3.42106480
v 0.67263736 -2.07275557 -3.42106480
v 0.99683570 -0.59527617 3.95545778
v 1.54032589 -0.61139734 3.95299801
v 1.00316430 -0.59529671 -3.95545469
v 0.46000197 -0.61148696 -3.95298415
v 0.72386285 -3.91259040 0.83164676
v 1.27613715 -4.00000000 -0.00000000
v 0.56890034 -4.00000000 -0.00000000
v 1.27613715 -2.67652243 -2.97257930
v 0.56890034 -2.67652243 -2.97257930
v 1.43109966 -3.91259040 0.83164676
v 1.27613715 -3.65418183 1.62694657
v 0.56890034 -3.65418183 1.62694657
v 0.33261232 -0.41811385 3.97808758
v 1.66666667 -0.41830444 -3.97806755
f 1 2 3
f 4 5 6
f 7 8 9
f 10 11 12
f 13 14 15
f 16 17 18
f 19 20 21
f 22 23 24
f 25 26 27
f 28 29 30
f 31 32 33
f 25 34 26
f 11 35 12
f 8 36 9
f 17 37 18
f 12 35 38
f 39 34 25
f 9 36 40
f 18 37 41
f 42 43 44
f 45 46 47
f 32 46 33
f 4 43 5
f 14 43 15
f 13 46 14
f 16 23 17
f 17 23 22
f 19 29 20
f 20 29 28
f 10 32 11
f 11 32 31
f 26 23 27
f 24 23 26
f 20 37 21
f 2 35 3
f 5 36 6
f 7 34 8
f 29 48 30
f 1 49 2
f 47 46 32
f 5 43 42
f 44 43 14
f 14 46 45
f 41 37 20
f 38 35 2
f 40 36 5
f 8 34 39
f 33 46 13
f 15 43 4
f 21 37 50
f 3 35 51
f 6 36 52
f 53 34 7
f 26 34 53
f 51 35 11
f 52 36 8
f 50 37 17
f 51 11 31
f 47 32 10
f 40 5 42
f 27 23 16
f 54 29 19
f 52 8 39
f 44 14 45
f 50 17 22
f 24 26 53
f 41 20 28
f 38 2 55
f 56 49 1
f 30 48 57
f 57 48 58
f 59 49 56
f 2 60 55
f 54 61 29
f 58 61 62
f 63 60 59
f 62 61 54
f 55 60 63
f 49 60 2
f 29 61 48
f 59 60 49
f 48 61 58
f 64 65 55
f 54 66 67
f 68 69 24
f 70 71 72
f 70 73 74
f 75 69 68
f 76 77 78
f 75 79 80
f 76 81 82
f 83 84 66
f 78 77 42
f 65 85 71
f 74 73 12
f 24 69 22
f 47 73 86
f 70 74 71
f 45 86 87
f 75 68 79
f 76 78 81
f 88 68 53
f 89 84 83
f 44 87 78
f 79 68 88
f 10 73 47
f 78 87 81
f 7 90 88
f 71 85 91
f 21 92 93
f 9 77 90
f 42 77 40
f 94 70 72
f 95 76 82
f 96 75 80
f 93 92 97
f 98 83 97
f 88 90 99
f 40 77 9
f 87 86 100
f 47 86 45
f 50 69 92
f 101 97 102
f 103 100 104
f 105 99 106
f 107 79 99
f 108 81 100
f 66 109 83
f 12 73 10
f 71 110 65
f 9 90 7
f 22 69 50
f 89 83 98
f 83 93 97
f 72 71 91
f 91 85 111
f 112 84 89
f 50 92 21
f 54 109 66
f 101 102 96
f 103 104 94
f 105 106 95
f 80 79 107
f 98 97 101
f 82 81 108
f 107 99 105
f 108 100 103
f 65 110 55
f 104 70 94
f 106 76 95
f 102 75 96
f 79 88 99
f 53 68 24
f 81 87 100
f 74 110 71
f 97 92 102
f 99 90 106
f 100 86 104
f 44 78 42
f 45 87 44
f 38 110 74
f 83 109 93
f 113 65 64
f 67 66 114
f 38 74 12
f 7 88 53
f 21 93 19
f 92 69 102
f 90 77 106
f 86 73 104
f 93 109 19
f 19 109 54
f 55 110 38
f 111 85 113
f 114 84 112
f 113 85 65
f 66 84 114
f 102 69 75
f 104 73 70
f 106 77 76
f 54 67 62
f 64 55 63
f 63 59 115
f 59 56 116
f 117 118 119
f 119 120 121
f 113 64 122
f 123 124 125
f 120 122 121
f 118 123 125
f 126 111 127
f 111 113 127
f 124 126 120
f 117 119 116
f 119 118 125
f 64 63 115
f 56 117 116
f 122 64 115
f 113 122 127
f 124 120 125
f 120 126 127
f 116 119 121
f 120 119 125
f 122 115 121
f 122 120 127
f 59 116 121
f 115 59 121
f 117 1 128
f 30 129 130
f 131 27 132
f 133 134 135
f 133 136 137
f 138 131 132
f 139 140 141
f 138 142 143
f 139 144 145
f 146 130 147
f 140 4 141
f 128 135 148
f 136 51 137
f 27 16 132
f 33 149 137
f 133 135 136
f 13 150 149
f 138 143 131
f 139 145 140
f 151 25 131
f 152 146 147
f 15 140 150
f 143 151 131
f 31 33 137
f 140 145 150
f 39 151 153
f 135 154 148
f 41 155 156
f 52 153 141
f 4 6 141
f 157 134 133
f 158 144 139
f 159 142 138
f 155 160 156
f 161 160 146
f 151 162 153
f 6 52 141
f 150 163 149
f 33 13 149
f 18 156 132
f 164 165 160
f 166 167 163
f 168 169 162
f 170 162 143
f 171 163 145
f 130 146 172
f 51 31 137
f 135 128 173
f 52 39 153
f 16 18 132
f 152 161 146
f 146 160 155
f 134 154 135
f 174 152 147
f 154 123 148
f 18 41 156
f 30 130 172
f 164 159 165
f 166 157 167
f 168 158 169
f 142 170 143
f 161 164 160
f 144 171 145
f 170 168 162
f 171 166 163
f 128 1 173
f 167 157 133
f 169 158 139
f 165 159 138
f 143 162 151
f 25 27 131
f 145 163 150
f 136 135 173
f 160 165 156
f 162 169 153
f 163 167 149
f 15 4 140
f 13 15 150
f 3 136 173
f 146 155 172
f 118 117 128
f 129 175 130
f 3 51 136
f 39 25 151
f 41 28 155
f 156 165 132
f 153 169 141
f 149 167 137
f 155 28 172
f 28 30 172
f 1 3 173
f 175 174 147
f 123 118 148
f 118 128 148
f 130 175 147
f 165 138 132
f 167 133 137
f 169 139 141
f 57 129 30
f 117 56 1
f 62 176 58
f 58 177 57
f 129 178 175
f 178 179 180
f 114 181 67
f 174 182 183
f 175 182 174
f 184 185 112
f 112 185 114
f 180 179 181
f 183 180 184
f 129 177 178
f 178 182 175
f 67 176 62
f 57 177 129
f 181 176 67
f 114 185 181
f 183 182 180
f 180 185 184
f 180 182 178
f 177 179 178
f 181 179 176
f 181 185 180
f 58 179 177
f 176 179 58
f 186 187 188
f 187 189 188
f 190 191 192
f 193 191 190
f 194 190 195
f 194 193 190
f 196 197 198
f 199 200 201
f 197 202 198
f 200 203 201
f 197 204 205
f 200 206 207
f 208 209 210
f 203 211 201
f 211 203 212
f 209 208 213
f 187 202 189
f 209 191 210
f 208 214 213
f 211 194 195
f 202 187 198
f 214 208 215
f 194 211 212
f 191 209 192
f 214 186 188
f 186 214 215
f 89 197 205
f 154 200 207
f 204 196 216
f 206 199 217
f 142 159 186
f 171 193 194
f 166 171 194
f 159 187 186
f 171 144 193
f 144 158 191
f 193 144 191
f 159 164 187
f 105 95 209
f 168 170 208
f 98 101 202
f 103 94 211
f 134 157 203
f 80 107 214
f 89 98 197
f 154 134 200
f 112 89 205
f 152 174 216
f 91 111 217
f 123 154 207
f 98 202 197
f 134 203 200
f 142 186 215
f 166 194 212
f 105 209 213
f 168 208 210
f 208 170 215
f 214 107 213
f 203 157 212
f 211 94 201
f 209 95 192
f 80 214 188
f 187 164 198
f 191 158 210
f 103 211 195
f 202 101 189
f 206 200 199
f 204 197 196
f 183 184 204
f 126 124 206
f 196 152 216
f 199 91 217
f 72 91 199
f 161 152 196
f 72 199 201
f 161 196 198
f 170 142 215
f 82 108 190
f 107 105 213
f 82 190 192
f 95 82 192
f 157 166 212
f 96 80 188
f 94 72 201
f 190 108 195
f 189 96 188
f 158 168 210
f 164 161 198
f 108 103 195
f 101 96 189
f 204 184 205
f 183 204 216
f 206 124 207
f 126 206 217
f 111 126 217
f 124 123 207
f 184 112 205
f 174 183 216
