v -0.50000000 0.19752871 0.69256465
v -0.50000000 0.09778761 0.85061731
v -0.50000000 0.25149571 0.86135500
v -0.50000000 0.09778761 0.14938269
v -0.50000000 0.19676841 0.30896495
v -0.50000000 0.25140519 0.13882710
v -0.50000000 0.05024047 0.72099365
v -0.50000000 0.04033559 0.27793074
v -0.50000000 -0.34915735 0.58151096
v -0.50000000 -0.22777783 0.41990001
v -0.50000000 -0.38512542 0.41942370
v -0.50000000 -0.18689802 0.57843441
v -0.50000000 -0.34869191 0.26237423
v -0.50000000 -0.19551971 0.26612764
v -0.50000000 -0.36305066 0.75288310
v -0.50000000 -0.21797145 0.71207640
v -0.50000000 0.35887133 0.74929377
v -0.50000000 0.35887133 0.25070623
v -0.50000000 -0.07735027 0.66666667
v -0.50000000 -0.07907868 0.83180121
v -0.50000000 -0.07795702 0.16917503
v -0.50000000 -0.07873397 0.33991057
v -0.50000000 0.50000000 0.83333333
v -0.50000000 0.50000000 0.66666667
v -0.50000000 0.35566243 0.58333333
v -0.50000000 0.20902551 0.50431633
v -0.50000000 0.35581402 0.41750376
v -0.50000000 0.06698730 0.58333333
v -0.50000000 0.06381293 0.42222045
v -0.50000000 -0.00000000 1.00000000
v -0.50000000 0.50000000 0.33333333
v -0.50000000 0.50000000 0.16666667
v -0.50000000 0.16666667 0.00000000
v -0.50000000 -0.00000000 0.00000000
v -0.50000000 -0.50000000 0.50000000
v -0.50000000 -0.50000000 0.66666667
v -0.50000000 -0.07493642 0.50092563
v -0.50000000 -0.33333333 1.00000000
v -0.50000000 -0.16666667 1.00000000
v -0.50000000 -0.25229373 0.86116202
v -0.50000000 -0.16666667 0.00000000
v -0.50000000 -0.50000000 0.16666667
v -0.50000000 -0.50000000 0.33333333
v -0.50000000 0.50000000 0.50000000
v -0.50000000 0.16666667 1.00000000
v -0.50000000 0.33333333 1.00000000
v -0.50000000 -0.50000000 0.83333333
v -0.50000000 0.33333333 0.00000000
v -0.50000000 -0.33333333 0.00000000
v -0.50000000 -0.24443780 0.13927836
v -0.50000000 0.50000000 1.00000000
v -0.50000000 0.37799153 0.87799153
v -0.50000000 -0.50000000 0.00000000
v -0.50000000 -0.37799153 0.12200847
v -0.50000000 0.50000000 0.00000000
v -0.50000000 0.37799153 0.12200847
v -0.50000000 -0.50000000 1.00000000
v -0.50000000 -0.37799153 0.87799153
v 0.09778761 -0.50000000 0.85061731
v 0.19752871 -0.50000000 0.69256465
v 0.25149571 -0.50000000 0.86135500
v 0.19674675 -0.50000000 0.30884537
v 0.09778761 -0.50000000 0.14938269
v 0.25140262 -0.50000000 0.13881286
v 0.05024047 -0.50000000 0.72099365
v 0.04033126 -0.50000000 0.27790682
v -0.34869191 -0.50000000 0.26237423
v -0.22777783 -0.50000000 0.41990001
v -0.38512542 -0.50000000 0.41942370
v -0.34915735 -0.50000000 0.58151096
v -0.18689802 -0.50000000 0.57843441
v -0.19551971 -0.50000000 0.26612764
v -0.36305066 -0.50000000 0.75288310
v -0.21797145 -0.50000000 0.71207640
v 0.35887133 -0.50000000 0.74929377
v 0.35887133 -0.50000000 0.25070623
v -0.07907868 -0.50000000 0.83180121
v -0.07735027 -0.50000000 0.66666667
v -0.07873397 -0.50000000 0.33991057
v -0.07795702 -0.50000000 0.16917503
v 0.20902551 -0.50000000 0.50431633
v 0.35338434 -0.50000000 0.41342243
v -0.16666667 -0.50000000 1.00000000
v -0.25229373 -0.50000000 0.86116202
v 0.35566243 -0.50000000 0.58333333
v 0.06698730 -0.50000000 0.58333333
v -0.07493642 -0.50000000 0.50092563
v 0.50000000 -0.50000000 0.50000000
v 0.50000000 -0.50000000 0.66666667
v 0.50000000 -0.50000000 0.83333333
v -0.33333333 -0.50000000 1.00000000
v -0.00000000 -0.50000000 0.00000000
v 0.16666667 -0.50000000 0.00000000
v 0.50000000 -0.50000000 0.16666667
v 0.50000000 -0.50000000 0.33333333
v -0.16666667 -0.50000000 0.00000000
v 0.06381293 -0.50000000 0.42222045
v -0.00000000 -0.50000000 1.00000000
v 0.16666667 -0.50000000 1.00000000
v 0.33333333 -0.50000000 1.00000000
v 0.33333333 -0.50000000 0.00000000
v -0.33333333 -0.50000000 0.00000000
v -0.24443780 -0.50000000 0.13927836
v 0.50000000 -0.50000000 1.00000000
v 0.37799153 -0.50000000 0.87799153
v -0.37799153 -0.50000000 0.87799153
v -0.37799153 -0.50000000 0.12200847
v 0.50000000 -0.50000000 0.00000000
v 0.37799153 -0.50000000 0.12200847
v 0.19752871 0.19256465 1.00000000
v 0.25149571 0.36135500 1.00000000
v 0.09778761 0.35061731 1.00000000
v 0.09778761 -0.35061731 1.00000000
v 0.25140519 -0.36117290 1.00000000
v 0.19676841 -0.19103505 1.00000000
v 0.05024047 0.22099365 1.00000000
v 0.04033559 -0.22206926 1.00000000
v -0.34915735 0.08151096 1.00000000
v -0.38512542 -0.08057630 1.00000000
v -0.22777783 -0.08009999 1.00000000
v -0.18689802 0.07843441 1.00000000
v -0.34869191 -0.23762577 1.00000000
v -0.19551971 -0.23387236 1.00000000
v -0.21797145 0.21207640 1.00000000
v -0.36305066 0.25288310 1.00000000
v 0.35887133 0.24929377 1.00000000
v 0.35887133 -0.24929377 1.00000000
v -0.07735027 0.16666667 1.00000000
v -0.07907868 0.33180121 1.00000000
v -0.07795702 -0.33082497 1.00000000
v -0.07873397 -0.16008943 1.00000000
v 0.50000000 0.33333333 1.00000000
v 0.50000000 0.16666667 1.00000000
v 0.35566243 0.08333333 1.00000000
v 0.20902551 0.00431633 1.00000000
v 0.35581402 -0.08249624 1.00000000
v -0.00000000 0.50000000 1.00000000
v 0.06698730 0.08333333 1.00000000
v 0.06381293 -0.07777955 1.00000000
v 0.50000000 -0.16666667 1.00000000
v 0.50000000 -0.33333333 1.00000000
v -0.07493642 0.00092563 1.00000000
v 0.50000000 -0.00000000 1.00000000
v -0.33333333 0.50000000 1.00000000
v -0.25229373 0.36116202 1.00000000
v -0.16666667 0.50000000 1.00000000
v 0.16666667 0.50000000 1.00000000
v 0.33333333 0.50000000 1.00000000
v -0.24443780 -0.36072164 1.00000000
v 0.50000000 0.50000000 1.00000000
v 0.37799153 0.37799153 1.00000000
v -0.37799153 -0.37799153 1.00000000
v 0.37799153 -0.37799153 1.00000000
v -0.37799153 0.37799153 1.00000000
v -0.31379051 0.50000000 0.87225733
v -0.17814376 0.50000000 0.31271781
v -0.07624496 0.50000000 0.28167534
v -0.13252906 0.50000000 0.15953282
v -0.26702830 0.50000000 0.24274493
v 0.03041253 0.50000000 0.67020024
v 0.13469498 0.50000000 0.59881846
v 0.01675953 0.50000000 0.55218815
v 0.14679030 0.50000000 0.72604097
v 0.14005102 0.50000000 0.87488299
v 0.02606556 0.50000000 0.81457211
v 0.10000000 0.50000000 0.50000000
v -0.08353023 0.50000000 0.87436874
v 0.28684338 0.50000000 0.71091973
v 0.34674899 0.50000000 0.58634093
v 0.25000000 0.50000000 0.58660254
v -0.19481103 0.50000000 0.81522510
v 0.26578090 0.50000000 0.85715514
v 0.40916675 0.50000000 0.66109943
v -0.33629446 0.50000000 0.72661733
v -0.19125401 0.50000000 0.67616745
v -0.27524235 0.50000000 0.61007432
v -0.28361453 0.50000000 0.12406139
v -0.37991776 0.50000000 0.25000000
v -0.39804633 0.50000000 0.43796771
v -0.28568346 0.50000000 0.36565347
v 0.20458217 0.50000000 0.65559542
v 0.50000000 0.50000000 0.59642366
v 0.50000000 0.50000000 0.72267304
v 0.00054377 0.50000000 0.21129687
v -0.28851270 0.50000000 0.50576964
v -0.38029505 0.50000000 0.58682490
v 0.39147571 0.50000000 0.78324865
v 0.50000000 0.50000000 0.86133652
v -0.35000000 0.50000000 0.00000000
v -0.20000000 0.50000000 0.00000000
v 0.10000000 0.50000000 0.13866348
v 0.10000000 0.50000000 0.27732696
v -0.05000000 0.50000000 0.00000000
v 0.39811799 0.50000000 0.90034806
v 0.01105324 0.50000000 0.33702113
v 0.10000000 0.50000000 0.40357634
v 0.20000000 0.50000000 0.50000000
v 0.01284494 0.50000000 0.44734855
v 0.42668138 0.50000000 0.57239533
v 0.30000000 0.50000000 0.50000000
v -0.18738084 0.50000000 0.43958857
v 0.40000000 0.50000000 0.50000000
v 0.50000000 0.50000000 0.50000000
v -0.08360577 0.50000000 0.61553772
v -0.08223904 0.50000000 0.74204651
v -0.39587952 0.50000000 0.11077773
v 0.00360294 0.50000000 0.10189863
v 0.10000000 0.50000000 0.00000000
v -0.08214896 0.50000000 0.38780807
v -0.08170669 0.50000000 0.49949068
v -0.17985554 0.50000000 0.55499230
v -0.31379051 -0.37225733 0.00000000
v -0.17814376 0.18728219 0.00000000
v -0.13252906 0.34046718 0.00000000
v -0.07624496 0.21832466 0.00000000
v -0.26702830 0.25725507 0.00000000
v 0.03041253 -0.17020024 0.00000000
v 0.01675953 -0.05218815 0.00000000
v 0.13469498 -0.09881846 0.00000000
v 0.14679030 -0.22604097 0.00000000
v 0.02606556 -0.31457211 0.00000000
v 0.14005102 -0.37488299 0.00000000
v 0.10000000 0.00000000 0.00000000
v -0.08353023 -0.37436874 0.00000000
v 0.28684338 -0.21091973 0.00000000
v 0.25000000 -0.08660254 0.00000000
v 0.34674899 -0.08634093 0.00000000
v -0.19481103 -0.31522510 0.00000000
v 0.26578090 -0.35715514 0.00000000
v 0.40916675 -0.16109943 0.00000000
v -0.33629446 -0.22661733 0.00000000
v -0.19125401 -0.17616745 0.00000000
v -0.27524235 -0.11007432 0.00000000
v -0.28361453 0.37593861 0.00000000
v -0.37991776 0.25000000 0.00000000
v -0.28568346 0.13434653 0.00000000
v -0.39804633 0.06203229 0.00000000
v 0.20458217 -0.15559542 0.00000000
v 0.50000000 -0.09642366 0.00000000
v 0.50000000 -0.22267304 0.00000000
v 0.00054377 0.28870313 0.00000000
v -0.28851270 -0.00576964 0.00000000
v -0.38029505 -0.08682490 0.00000000
v 0.39147571 -0.28324865 0.00000000
v 0.50000000 -0.36133652 0.00000000
v 0.10000000 0.36133652 0.00000000
v 0.10000000 0.22267304 0.00000000
v 0.39811799 -0.40034806 0.00000000
v 0.10000000 0.09642366 0.00000000
v 0.01105324 0.16297887 0.00000000
v 0.20000000 0.00000000 0.00000000
v 0.01284494 0.05265145 0.00000000
v 0.42668138 -0.07239533 0.00000000
v 0.30000000 0.00000000 0.00000000
v -0.18738084 0.06041143 0.00000000
v 0.40000000 0.00000000 0.00000000
v 0.50000000 0.00000000 0.00000000
v -0.08360577 -0.11553772 0.00000000
v -0.08223904 -0.24204651 0.00000000
v -0.39587952 0.38922227 0.00000000
v 0.00360294 0.39810137 0.00000000
v -0.08214896 0.11219193 0.00000000
v -0.08170669 0.00050932 0.00000000
v -0.17985554 -0.05499230 0.00000000
v 0.50000000 0.32346240 0.57163882
v 0.50000000 0.29213057 0.70774143
v 0.50000000 0.19607809 0.62951595
v 0.50000000 -0.04111590 0.72265997
v 0.50000000 0.08335116 0.68034671
v 0.50000000 0.07762087 0.83804192
v 0.50000000 0.21924026 0.51402620
v 0.50000000 0.40319052 0.66061531
v 0.50000000 -0.08574190 0.86655242
v 0.50000000 -0.18753939 0.38640129
v 0.50000000 -0.23164198 0.51975064
v 0.50000000 -0.34296909 0.39856594
v 0.50000000 -0.07639666 0.17051561
v 0.50000000 -0.21224280 0.19321031
v 0.50000000 -0.15954835 0.09642026
v 0.50000000 -0.13072535 0.27223300
v 0.50000000 -0.25162355 0.29277520
v 0.50000000 -0.09990421 0.48966105
v 0.50000000 -0.06053210 0.37453557
v 0.50000000 0.18216447 0.74210647
v 0.50000000 0.12918494 0.44903070
v 0.50000000 0.10023666 0.55817916
v 0.50000000 -0.36799987 0.57743920
v 0.50000000 0.26164167 0.85488637
v 0.50000000 0.38850592 0.78670203
v 0.50000000 -0.28523201 0.10511651
v 0.50000000 -0.35814663 0.23009379
v 0.50000000 -0.13716587 0.61461967
v 0.50000000 0.01843858 0.47271271
v 0.50000000 -0.25381144 0.64079455
v 0.50000000 -0.34651709 0.74644599
v 0.50000000 -0.18573238 0.74571726
v 0.50000000 0.05116027 0.36811175
v 0.50000000 -0.24958011 0.87220883
v 0.50000000 -0.01258222 0.27397718
v 0.50000000 0.39669619 0.90058498
v 0.50000000 0.41702056 0.57487737
v 0.50000000 -0.07487737 0.08297944
v 0.50000000 0.40245484 0.49039264
v 0.50000000 -0.40094303 0.10037539
v 0.50000000 0.00960736 0.09754516
v 0.50000000 0.22221488 0.41573481
v 0.50000000 0.14644661 0.35355339
v 0.50000000 0.30865828 0.46193977
v 0.50000000 0.08426519 0.27778512
v 0.50000000 0.03806023 0.19134172
v 0.50000000 -0.01261759 0.59059315
v 0.50000000 -0.37799153 0.87799153
v 0.10000000 0.10913305 0.09871782
v 0.10000000 0.40245484 0.49039264
v 0.10000000 0.38220963 0.41279571
v 0.10000000 0.00960736 0.09754516
v 0.10000000 0.20415325 0.12436944
v 0.10000000 0.39007101 0.21803986
v 0.10000000 0.25133973 0.21901614
v 0.10000000 0.29679657 0.11407077
v 0.10000000 0.03806023 0.19134172
v 0.10000000 0.39871489 0.33116577
v 0.10000000 0.13602489 0.19454875
v 0.10000000 0.40964082 0.09415482
v 0.10000000 0.32081435 0.29182380
v 0.10000000 0.17125157 0.27278605
v 0.10000000 0.08426519 0.27778512
v 0.10000000 0.14644661 0.35355339
v 0.10000000 0.23818143 0.31902685
v 0.10000000 0.22221488 0.41573481
v 0.10000000 0.30122015 0.37690402
v 0.10000000 0.30865828 0.46193977
v 0.34482452 0.24981277 0.43290455
v 0.32383685 0.15257124 0.35957371
v 0.26239303 0.20589839 0.40435658
v 0.41831814 0.18368164 0.38722435
v 0.40654940 0.34085830 0.47399781
v 0.19376487 0.02594024 0.15895704
v 0.42645938 0.42717678 0.49466835
v 0.17354062 0.00533165 0.07282322
v 0.19063000 0.34759109 0.47620534
v 0.29722501 0.33835822 0.47315107
v 0.26076020 0.27079904 0.44437250
v 0.34923797 0.00684412 0.08244563
v 0.30450148 0.02654696 0.16075517
v 0.40705150 0.02369604 0.15210043
v 0.25076203 0.41755437 0.49315588
v 0.34763897 0.04969188 0.21730761
v 0.18293381 0.25579540 0.43630736
v 0.34341730 0.41697376 0.49305846
v 0.25658270 0.00694154 0.08302624
v 0.25939975 0.06293652 0.24284875
v 0.17636379 0.18280336 0.38650523
v 0.41733975 0.11410469 0.31793837
v 0.41779750 0.06133201 0.23993832
v 0.18485118 0.11349477 0.31719664
v 0.43134354 0.26133360 0.43936130
v 0.16865646 0.06063870 0.23866640
v 0.33941201 0.08737706 0.28238681
v 0.42645938 0.00533165 0.07282322
v 0.17168468 0.42883996 0.49491034
v 0.26724678 0.11097559 0.31410191
v 0.24295418 0.15342769 0.36039927
f 1 2 3
f 4 5 6
f 2 1 7
f 5 4 8
f 9 10 11
f 10 9 12
f 10 13 11
f 13 10 14
f 9 15 16
f 12 9 16
f 17 1 3
f 5 18 6
f 19 20 7
f 21 22 8
f 22 21 14
f 20 19 16
f 20 2 7
f 4 21 8
f 23 24 17
f 1 25 26
f 24 25 17
f 17 25 1
f 27 18 5
f 28 26 29
f 26 27 5
f 30 2 20
f 31 18 27
f 26 25 27
f 31 32 18
f 33 34 4
f 4 34 21
f 35 36 9
f 29 26 5
f 37 22 10
f 38 39 40
f 34 41 21
f 42 43 13
f 1 26 28
f 28 29 37
f 28 37 19
f 44 31 27
f 24 44 25
f 25 44 27
f 39 30 20
f 40 39 20
f 30 45 2
f 37 29 22
f 40 20 16
f 45 46 3
f 36 47 15
f 48 33 6
f 41 49 50
f 21 50 14
f 13 43 11
f 35 9 11
f 37 10 12
f 2 45 3
f 33 4 6
f 9 36 15
f 21 41 50
f 1 28 7
f 29 5 8
f 46 51 52
f 51 23 52
f 49 53 54
f 53 42 54
f 55 48 56
f 47 57 58
f 57 38 58
f 32 55 56
f 43 35 11
f 19 37 12
f 15 40 16
f 10 22 14
f 50 13 14
f 28 19 7
f 22 29 8
f 48 6 56
f 15 47 58
f 50 49 54
f 3 46 52
f 42 13 54
f 38 40 58
f 23 17 52
f 18 32 56
f 19 12 16
f 40 15 58
f 6 18 56
f 17 3 52
f 13 50 54
f 59 60 61
f 62 63 64
f 60 59 65
f 63 62 66
f 67 68 69
f 70 68 71
f 68 70 69
f 68 67 72
f 73 70 74
f 70 71 74
f 60 75 61
f 76 62 64
f 77 78 65
f 79 80 66
f 80 79 72
f 78 77 74
f 59 77 65
f 80 63 66
f 81 62 82
f 83 84 77
f 62 76 82
f 85 81 82
f 81 60 86
f 85 60 81
f 87 86 78
f 85 75 60
f 88 85 82
f 89 90 75
f 43 42 67
f 36 35 70
f 83 91 84
f 92 93 63
f 79 87 68
f 94 95 76
f 96 92 80
f 81 86 97
f 97 86 87
f 97 87 79
f 76 95 82
f 88 89 85
f 98 83 77
f 92 63 80
f 95 88 82
f 99 98 59
f 59 98 77
f 81 97 62
f 85 89 75
f 77 84 74
f 100 99 61
f 93 101 64
f 47 36 73
f 102 96 103
f 103 80 72
f 43 67 69
f 70 35 69
f 68 87 71
f 99 59 61
f 36 70 73
f 63 93 64
f 96 80 103
f 86 60 65
f 62 97 66
f 90 104 105
f 104 100 105
f 57 47 106
f 42 53 107
f 53 102 107
f 101 108 109
f 91 57 106
f 108 94 109
f 87 78 71
f 35 43 69
f 84 73 74
f 79 68 72
f 67 103 72
f 78 86 65
f 97 79 66
f 64 101 109
f 47 73 106
f 102 103 107
f 100 61 105
f 67 42 107
f 94 76 109
f 84 91 106
f 75 90 105
f 71 78 74
f 73 84 106
f 76 64 109
f 61 75 105
f 103 67 107
f 110 111 112
f 113 114 115
f 112 116 110
f 115 117 113
f 118 119 120
f 120 121 118
f 120 119 122
f 122 123 120
f 118 124 125
f 121 124 118
f 126 111 110
f 115 114 127
f 128 116 129
f 130 117 131
f 131 123 130
f 129 124 128
f 129 116 112
f 113 117 130
f 132 126 133
f 126 110 134
f 110 135 134
f 133 126 134
f 135 115 136
f 136 115 127
f 30 118 45
f 99 113 98
f 137 129 112
f 135 136 134
f 138 139 135
f 140 127 141
f 140 136 127
f 110 138 135
f 139 115 135
f 142 131 139
f 142 120 131
f 38 122 39
f 98 130 83
f 113 130 98
f 133 134 143
f 144 145 146
f 137 112 147
f 138 142 139
f 138 128 142
f 143 136 140
f 134 136 143
f 146 129 137
f 145 129 146
f 145 124 129
f 147 111 148
f 45 125 46
f 100 114 99
f 83 149 91
f 130 123 149
f 30 119 118
f 122 119 39
f 142 121 120
f 112 111 147
f 99 114 113
f 118 125 45
f 130 149 83
f 110 116 138
f 139 117 115
f 150 151 132
f 148 151 150
f 57 152 38
f 91 152 57
f 104 153 100
f 46 154 51
f 51 154 144
f 141 153 104
f 39 119 30
f 128 121 142
f 125 124 145
f 120 123 131
f 149 123 122
f 138 116 128
f 131 117 139
f 100 153 114
f 125 154 46
f 149 152 91
f 111 151 148
f 132 151 126
f 38 152 122
f 127 153 141
f 144 154 145
f 128 124 121
f 114 153 127
f 145 154 125
f 126 151 111
f 122 152 149
f 51 155 23
f 144 155 51
f 156 157 158
f 158 159 156
f 160 161 162
f 163 161 160
f 137 164 165
f 162 161 166
f 165 167 137
f 168 169 170
f 171 155 146
f 148 172 147
f 173 169 168
f 174 171 175
f 163 172 168
f 175 176 174
f 177 159 158
f 178 179 180
f 163 181 161
f 182 173 183
f 158 157 184
f 23 155 174
f 172 164 147
f 146 167 171
f 163 164 172
f 185 179 186
f 146 155 144
f 31 179 178
f 147 164 137
f 186 179 44
f 173 168 187
f 23 174 24
f 183 173 187
f 183 187 188
f 189 177 190
f 191 184 192
f 190 158 193
f 165 163 160
f 177 158 190
f 148 194 172
f 192 195 196
f 184 195 192
f 174 176 186
f 24 186 44
f 165 164 163
f 166 161 197
f 196 198 166
f 168 181 163
f 182 199 173
f 197 170 200
f 137 167 146
f 180 185 201
f 196 195 198
f 150 194 148
f 202 199 203
f 204 175 205
f 174 155 171
f 203 199 182
f 32 206 55
f 168 172 187
f 204 160 162
f 193 207 208
f 205 165 160
f 175 171 205
f 200 169 202
f 31 178 32
f 55 206 189
f 156 180 201
f 209 156 201
f 208 207 191
f 198 162 166
f 198 209 210
f 170 181 168
f 177 206 178
f 204 205 160
f 197 161 170
f 185 211 201
f 174 186 24
f 178 159 177
f 210 204 162
f 198 210 162
f 170 169 200
f 188 194 150
f 209 201 210
f 198 195 209
f 172 194 187
f 158 207 193
f 204 211 175
f 184 207 158
f 205 167 165
f 171 167 205
f 184 157 195
f 44 179 31
f 201 211 210
f 210 211 204
f 180 159 178
f 156 159 180
f 189 206 177
f 187 194 188
f 178 206 32
f 191 207 184
f 209 157 156
f 180 179 185
f 169 199 202
f 195 157 209
f 173 199 169
f 161 181 170
f 185 176 211
f 186 176 185
f 211 176 175
f 53 49 212
f 102 53 212
f 213 214 215
f 214 213 216
f 217 218 219
f 220 217 219
f 92 221 222
f 218 223 219
f 221 92 224
f 225 226 227
f 228 96 212
f 101 93 229
f 230 225 227
f 231 232 228
f 220 225 229
f 232 231 233
f 234 214 216
f 235 236 237
f 220 219 238
f 239 240 230
f 214 241 215
f 49 231 212
f 229 93 222
f 96 228 224
f 220 229 222
f 242 243 237
f 96 102 212
f 33 235 237
f 93 92 222
f 243 34 237
f 230 244 225
f 49 41 231
f 240 244 230
f 240 245 244
f 189 190 234
f 246 247 241
f 190 193 214
f 221 217 220
f 234 190 214
f 101 229 248
f 247 249 250
f 241 247 250
f 231 243 233
f 41 34 243
f 221 220 222
f 223 251 219
f 249 223 252
f 225 220 238
f 239 230 253
f 251 254 226
f 92 96 224
f 236 255 242
f 249 252 250
f 108 101 248
f 256 257 253
f 258 259 232
f 231 228 212
f 257 239 253
f 48 55 260
f 225 244 229
f 258 218 217
f 193 208 261
f 259 217 221
f 232 259 228
f 254 256 227
f 33 48 235
f 55 189 260
f 213 255 236
f 262 255 213
f 208 246 261
f 252 223 218
f 252 263 262
f 226 225 238
f 234 235 260
f 258 217 259
f 251 226 219
f 242 255 264
f 231 41 243
f 235 234 216
f 263 218 258
f 252 218 263
f 226 254 227
f 245 108 248
f 262 263 255
f 252 262 250
f 229 244 248
f 214 193 261
f 258 232 264
f 241 214 261
f 259 221 224
f 228 259 224
f 241 250 215
f 34 33 237
f 255 263 264
f 263 258 264
f 236 235 216
f 213 236 216
f 189 234 260
f 244 245 248
f 235 48 260
f 246 241 261
f 262 213 215
f 236 242 237
f 227 256 253
f 250 262 215
f 230 227 253
f 219 226 238
f 242 264 233
f 243 242 233
f 264 232 233
f 265 266 267
f 268 269 270
f 265 267 271
f 272 266 265
f 270 273 268
f 274 275 276
f 277 278 279
f 280 278 277
f 276 281 274
f 282 274 283
f 282 275 274
f 269 284 270
f 285 271 286
f 276 275 287
f 88 276 287
f 288 266 289
f 290 278 291
f 271 267 286
f 292 275 282
f 282 283 293
f 183 272 182
f 291 276 95
f 239 279 240
f 292 294 275
f 270 288 133
f 94 291 95
f 295 294 296
f 143 273 270
f 293 283 297
f 143 270 133
f 295 296 298
f 88 287 89
f 299 283 280
f 133 288 132
f 283 274 280
f 95 276 88
f 289 300 288
f 298 273 140
f 270 284 288
f 188 289 183
f 141 298 140
f 287 295 89
f 289 272 183
f 182 301 203
f 257 302 239
f 203 301 303
f 285 293 297
f 291 281 276
f 291 304 290
f 305 302 257
f 306 271 285
f 297 283 299
f 285 297 307
f 89 295 90
f 288 284 266
f 265 271 308
f 309 297 299
f 240 290 245
f 275 294 287
f 299 277 310
f 311 269 268
f 273 296 268
f 299 280 277
f 289 266 272
f 108 304 94
f 140 273 143
f 298 296 273
f 286 269 311
f 288 300 132
f 265 301 272
f 306 285 307
f 245 304 108
f 285 286 293
f 308 271 306
f 309 299 310
f 303 265 308
f 307 297 309
f 311 282 293
f 279 302 277
f 132 300 150
f 278 281 291
f 310 277 305
f 90 312 104
f 104 312 141
f 267 269 286
f 274 281 280
f 311 268 292
f 94 304 291
f 311 292 282
f 286 311 293
f 279 290 240
f 280 281 278
f 150 300 188
f 272 301 182
f 239 302 279
f 287 294 295
f 268 296 292
f 295 312 90
f 266 284 267
f 141 312 298
f 279 278 290
f 267 284 269
f 298 312 295
f 290 304 245
f 303 301 265
f 277 302 305
f 296 294 292
f 188 300 289
f 247 313 249
f 314 315 196
f 196 166 314
f 249 316 223
f 249 313 316
f 247 317 313
f 318 319 320
f 316 313 321
f 196 322 192
f 196 315 322
f 246 320 247
f 321 313 323
f 208 324 246
f 318 325 319
f 192 318 191
f 320 324 318
f 191 324 208
f 320 317 247
f 319 326 323
f 317 319 323
f 321 323 327
f 328 329 330
f 322 318 192
f 246 324 320
f 329 326 319
f 331 325 322
f 319 325 329
f 322 315 331
f 322 325 318
f 318 324 191
f 313 317 323
f 327 326 328
f 330 331 332
f 332 315 314
f 323 326 327
f 328 326 329
f 320 319 317
f 329 331 330
f 329 325 331
f 331 315 332
f 333 334 335
f 333 336 334
f 303 308 337
f 316 321 338
f 303 337 339
f 316 338 340
f 341 342 343
f 344 345 346
f 347 342 341
f 346 345 348
f 349 341 343
f 347 350 342
f 344 351 345
f 254 351 344
f 200 350 347
f 342 350 337
f 345 351 338
f 345 338 352
f 342 337 333
f 200 202 350
f 254 251 351
f 256 254 344
f 197 200 347
f 349 335 353
f 307 309 354
f 336 307 354
f 309 355 354
f 336 354 334
f 330 332 349
f 327 328 356
f 309 310 355
f 306 307 336
f 336 333 357
f 356 352 358
f 310 305 346
f 332 314 341
f 334 354 359
f 330 349 353
f 356 328 353
f 349 332 341
f 355 310 346
f 354 355 359
f 202 203 339
f 251 223 340
f 257 256 360
f 166 197 361
f 223 316 340
f 203 303 339
f 305 257 360
f 314 166 361
f 352 356 362
f 337 350 339
f 338 351 340
f 328 330 353
f 345 352 348
f 327 356 358
f 306 336 357
f 337 308 357
f 338 321 358
f 335 334 363
f 333 335 343
f 352 359 348
f 355 346 348
f 335 349 343
f 308 306 357
f 321 327 358
f 342 333 343
f 333 337 357
f 352 338 358
f 334 359 362
f 350 202 339
f 351 251 340
f 256 344 360
f 197 347 361
f 346 305 360
f 341 314 361
f 359 352 362
f 356 353 363
f 334 362 363
f 347 341 361
f 344 346 360
f 359 355 348
f 353 335 363
f 362 356 363
