v -0.45270364 0.60232169 0.25000000
v -0.43309706 0.70329532 0.25000000
v -0.57016646 0.65680465 0.25000000
v -0.26622340 0.51548160 0.25000000
v -0.24528277 0.61576360 0.25000000
v -0.36476774 0.55862290 0.25000000
v -0.70710678 0.70710678 0.25000000
v -0.62271626 0.78244773 0.25000000
v -0.33689948 0.66117718 0.25000000
v -0.27776919 0.41574545 0.25000000
v -0.36949079 0.45024341 0.25000000
v -0.45563518 0.49435274 0.25000000
v -0.45369598 0.37434379 0.25000000
v -0.54069431 0.43599639 0.25000000
v -0.51916967 0.75422028 0.25000000
v -0.15146259 0.98846299 0.25000000
v -0.12338760 0.86596398 0.25000000
v -0.05399468 0.90079677 0.25000000
v -0.22477852 0.84496693 0.25000000
v -0.32441767 0.76907723 0.25000000
v -0.21619929 0.71559772 0.25000000
v -0.66816893 0.59133582 0.25000000
v -0.63888347 0.48028250 0.25000000
v -0.55448582 0.54216526 0.25000000
v -0.72178849 0.31918048 0.25000000
v -0.70199508 0.41393838 0.25000000
v -0.79194690 0.42429796 0.25000000
v -0.34171274 0.85906055 0.25000000
v -0.83588540 0.32393525 0.25000000
v -0.42857904 0.80623440 0.25000000
v -0.12991006 0.77885751 0.25000000
v -0.16846464 0.55358001 0.25000000
v -0.07523005 0.56780455 0.25000000
v -0.14665589 0.63421784 0.25000000
v -0.29943033 0.95411817 0.25000000
v -0.05819741 0.64636002 0.25000000
v -0.05724142 0.75894764 0.25000000
v -0.05679213 0.81673570 0.25000000
v -0.73833426 0.51080978 0.25000000
v -0.19140907 0.46191186 0.25000000
v -0.11184358 0.70709575 0.25000000
v -0.04300558 0.71022307 0.25000000
v -0.60206610 0.00000000 0.25000000
v -0.66710180 0.10051849 0.25000000
v -0.73213751 0.00000000 0.25000000
v -0.35355339 0.35355339 0.25000000
v -0.98846299 0.15146259 0.25000000
v -0.84748295 0.19670944 0.25000000
v -0.95411817 0.29943033 0.25000000
v -0.41574545 0.27776919 0.25000000
v -0.50778929 0.26939186 0.25000000
v -0.61581753 0.26135564 0.25000000
v -0.54884695 0.34318059 0.25000000
v -0.62623767 0.37481526 0.25000000
v -0.54874638 0.17934060 0.25000000
v 0.00000000 0.59611554 0.25000000
v 0.00000000 0.50000000 0.25000000
v -1.00000000 0.00000000 0.25000000
v -0.89724252 0.08955974 0.25000000
v -0.46191186 0.19140907 0.25000000
v -0.09715164 0.49047075 0.25000000
v -0.90225080 0.43121166 0.25000000
v -0.84656348 0.53228778 0.25000000
v -0.86606875 0.00000000 0.25000000
v -0.49047075 0.09715164 0.25000000
v -0.57612180 0.08597664 0.25000000
v -0.50000000 0.00000000 0.25000000
v -0.53228778 0.84656348 0.25000000
v -0.43121166 0.90225080 0.25000000
v -0.78244773 0.62271626 0.25000000
v -0.78419793 0.09962667 0.25000000
v 0.00000000 0.68136994 0.25000000
v 0.00000000 0.74598056 0.25000000
v -0.71332216 0.20007053 0.25000000
v -0.77961975 0.25997393 0.25000000
v 0.00000000 0.91165982 0.25000000
v 0.00000000 0.84510020 0.25000000
v -0.63203326 0.17359571 0.25000000
v 0.00000000 0.79494897 0.25000000
v 0.00000000 1.00000000 0.25000000
v 0.00000000 0.75800642 0.06131573
v 0.00000000 0.78116108 0.10479205
v 0.00000000 0.71273515 0.09564411
v 0.00000000 0.74097927 0.14742408
v 0.00000000 0.55603776 0.10664327
v 0.00000000 0.50000000 0.06862802
v 0.00000000 0.55137788 0.03241459
v 0.00000000 0.60765247 0.01104498
v 0.00000000 0.60433444 0.06572272
v 0.00000000 0.50000000 0.15388177
v 0.00000000 0.64335469 0.19396106
v 0.00000000 0.71787308 0.19934684
v 0.00000000 0.68257277 0.14426728
v 0.00000000 0.56450084 -0.00687017
v 0.00000000 0.75686926 0.18549996
v 0.00000000 0.50000000 0.00401721
v 0.00000000 0.68530101 0.04617820
v 0.00000000 0.65580800 0.09142141
v 0.00000000 0.53297541 -0.01307707
v 0.00000000 0.76313398 0.21716969
v 0.00000000 0.72082644 0.05747887
v 0.00000000 0.56870732 0.18129156
v 0.00000000 0.61673590 0.13326326
v 0.00000000 0.59803554 -0.04534178
v 0.00000000 0.64520795 -0.03116108
v 0.00000000 0.79534178 0.15196446
v 0.00000000 0.68868427 -0.00800642
v 0.00000000 0.72677670 0.02322330
v 0.00000000 0.54899833 -0.04999799
v 0.00000000 0.79999799 0.20100167
v 0.00000000 0.64103290 0.04636696
v 0.00000000 0.65080705 0.01071975
v 0.00000000 0.50000000 -0.04494897
v -0.42044359 0.27575563 0.06159802
v -0.38606924 0.31710095 0.16292659
v -0.44127289 0.23536062 0.16379356
v -0.35038963 0.35946297 0.08451876
v -0.37721935 0.32723064 -0.17149706
v -0.38895891 0.31689761 -0.09551266
v -0.43825776 0.24092220 -0.16242768
v -0.42944355 0.26174626 -0.05656518
v -0.11386250 0.48811579 0.04013625
v -0.05175930 0.49741617 0.03393465
v -0.06758561 0.49557235 0.11024726
v -0.06639472 0.49552773 -0.18469099
v -0.09859119 0.49051832 -0.14421065
v -0.14159336 0.47981633 -0.17102082
v -0.27766954 0.41807719 0.09555887
v -0.29834131 0.40561726 0.00166107
v -0.46484203 0.18896208 -0.09813672
v -0.14600319 0.47853962 0.16811443
v -0.14496104 0.47993436 0.09642539
v -0.46403402 0.19146897 0.08875060
v -0.49010867 0.10354100 -0.06013299
v -0.46506772 0.19132778 -0.00462961
v -0.49055773 0.10091465 0.07003482
v -0.46191186 0.19140907 -0.25000000
v -0.48530192 0.12180142 -0.15973241
v -0.05532956 0.49693301 -0.12710625
v -0.05235219 0.49732215 -0.07039785
v -0.12008893 0.48640455 -0.09336606
v -0.37456103 0.33634760 -0.01499526
v -0.49509945 0.06971896 0.17713863
v -0.50000000 0.00000000 0.13457244
v -0.50000000 0.00000000 -0.00000000
v -0.50000000 0.00000000 -0.13457244
v -0.06170216 0.49611591 0.18698926
v -0.47784278 0.14834691 0.16666046
v -0.19236314 0.46356500 -0.09377610
v -0.23255108 0.44262958 -0.16961030
v -0.19140907 0.46191186 -0.25000000
v -0.31019734 0.39148769 -0.16969368
v -0.33705543 0.37187878 -0.08778850
v -0.09715164 0.49047075 -0.25000000
v -0.14529206 0.48048119 -0.02261341
v -0.49047075 0.09715164 -0.25000000
v -0.23822928 0.43951965 0.17113686
v -0.22456276 0.45033703 -0.02260259
v 0.00000000 0.50000000 -0.09551228
v 0.00000000 0.50000000 -0.16275732
v -0.31572886 0.38706091 0.16765816
v -0.49722160 0.05178622 -0.19431439
v -0.18224584 0.46833899 0.04159459
v -0.35355339 0.35355339 -0.25000000
v -0.27776919 0.41574545 -0.25000000
v -0.26852594 0.42420096 -0.09127159
v -0.24293760 0.44060979 0.04116643
v 0.00000000 0.50000000 -0.25000000
v -0.09712567 0.49135946 -0.04008009
v -0.41574545 0.27776919 -0.25000000
v -0.04317515 0.49814934 -0.02037780
v -0.20697453 0.45706809 0.10383769
v -0.08639648 0.49318648 0.00116999
v -0.50000000 0.00000000 -0.25000000
v 0.00000000 0.81009308 -0.14034311
v 0.00000000 0.89119258 -0.05615546
v 0.00000000 0.79835110 -0.04755266
v 0.00000000 0.55347790 -0.11766247
v 0.00000000 0.55482292 -0.18520590
v 0.00000000 0.60206610 -0.25000000
v 0.00000000 0.89638762 0.05865834
v 0.00000000 0.83689373 0.11831051
v 0.00000000 0.80976263 0.06232186
v 0.00000000 1.00000000 0.12500000
v 0.00000000 0.89268217 0.14306105
v 0.00000000 0.73213751 -0.25000000
v 0.00000000 0.86606875 -0.25000000
v 0.00000000 1.00000000 -0.00000000
v 0.00000000 0.72816240 -0.15681624
v 0.00000000 0.61857059 -0.14560974
v 0.00000000 0.94505041 0.18892104
v 0.00000000 0.90064445 -0.15089278
v 0.00000000 0.83641686 0.00799428
v 0.00000000 1.00000000 -0.25000000
v 0.00000000 1.00000000 -0.12500000
v 0.00000000 0.59121967 -0.08786135
v 0.00000000 0.67522502 -0.18642394
v 0.00000000 0.83615874 0.21273960
v 0.00000000 0.87846968 0.20730338
v 0.00000000 0.84013736 0.17245066
v 0.00000000 0.63701598 -0.08069479
v 0.00000000 0.74142142 -0.08871989
v 0.00000000 0.77538057 0.01522378
v 0.00000000 0.68699863 -0.05723535
v 0.00000000 0.73477622 -0.02538057
v 0.00000000 0.68193500 -0.11859429
v -0.81078985 0.00000000 -0.13365337
v -0.72830840 0.00000000 -0.06359929
v -0.86368848 0.00000000 0.02270327
v -1.00000000 0.00000000 0.00000000
v -1.00000000 0.00000000 0.12500000
v -0.70733929 0.00000000 0.03994021
v -0.91647184 0.00000000 -0.07929987
v -0.90075176 0.00000000 0.15291080
v -0.61102416 0.00000000 -0.06447060
v -0.59245760 0.00000000 0.06952373
v -0.67169064 0.00000000 0.14919417
v -0.79404613 0.00000000 0.13941514
v -0.73213751 0.00000000 -0.25000000
v -0.86606875 0.00000000 -0.25000000
v -0.58384082 0.00000000 0.16327615
v -0.60206610 0.00000000 -0.25000000
v -0.66710180 0.00000000 -0.16074060
v -0.58066512 0.00000000 -0.16608425
v -0.91866609 0.00000000 -0.16759065
v -1.00000000 0.00000000 -0.25000000
v -1.00000000 0.00000000 -0.12500000
v -0.74169764 0.67267517 0.12860262
v -0.37654462 0.92895475 0.12911312
v -0.29669934 0.95929153 -0.01192146
v -0.42266263 0.91324588 -0.00961421
v -0.93410300 0.36231183 0.13915681
v -0.95206398 0.32078223 0.00372577
v -0.97735896 0.21737800 0.12469537
v -0.49752067 0.87241179 0.09174611
v -0.64774573 0.76267287 -0.14094664
v -0.62245412 0.79134351 -0.02388935
v -0.57320622 0.82451849 -0.08972740
v -0.66590053 0.74588506 0.15302510
v -0.57389002 0.81818492 -0.17205050
v -0.73937292 0.68333225 0.02012848
v -0.67241402 0.74797063 0.05294098
v -0.21603734 0.97771657 0.12011113
v -0.91341079 0.42022461 0.05765963
v -0.87756460 0.48218961 -0.14550015
v -0.90225080 0.43121166 -0.25000000
v -0.93477358 0.36131054 -0.13279083
v -0.74199221 0.67004965 -0.15522857
v -0.77638803 0.63889597 -0.06156027
v -0.69464430 0.72717575 -0.05549047
v -0.82308428 0.56939389 0.14431633
v -0.90615314 0.43711219 -0.03896570
v -0.29943033 0.95411817 -0.25000000
v -0.43121166 0.90225080 -0.25000000
v -0.35990309 0.93560231 -0.12622102
v -0.48953550 0.87459339 -0.12798845
v -0.95411817 0.29943033 -0.25000000
v -0.52811201 0.85740267 -0.01393110
v -0.86675689 0.51086439 0.05136792
v -0.80529840 0.60384307 0.03620846
v -0.53228778 0.84656348 -0.25000000
v -0.21458199 0.97795775 -0.12378118
v -0.97793488 0.21469070 -0.12380255
v -0.88329744 0.47136354 0.14866846
v -0.15146259 0.98846299 -0.25000000
v -0.98846299 0.15146259 -0.25000000
v -0.58688867 0.81545615 0.07991605
v -0.57795163 0.81513973 0.17516545
v -0.09369447 0.99543062 0.16114073
v -0.98289446 0.19388550 0.00056993
v -0.84579505 0.54460474 -0.05551095
v -0.48324889 0.87502268 0.18112122
v -0.10596063 0.99458935 0.05720170
v -0.99461555 0.10563829 0.06021146
v -0.99539417 0.09404586 0.16257410
v -0.62271626 0.78244773 -0.25000000
v -0.70710678 0.70710678 -0.25000000
v -0.84656348 0.53228778 -0.25000000
v -0.78244773 0.62271626 -0.25000000
v -0.81495710 0.57993048 -0.15378187
v -0.99437547 0.10810696 -0.06250000
v -0.10794280 0.99439184 -0.06221459
v -0.99542020 0.09375202 -0.16272920
v -0.09380345 0.99541564 -0.16270513
v -0.18832027 0.98385325 -0.00402193
v -0.38413102 0.56887000 -0.25000000
v -0.26395499 0.62240666 -0.25000000
v -0.28116360 0.50987268 -0.25000000
v -0.36837639 0.66456527 -0.25000000
v -0.65515085 0.44673409 -0.25000000
v -0.72717766 0.35182526 -0.25000000
v -0.78256614 0.43484526 -0.25000000
v -0.73035919 0.52951292 -0.25000000
v -0.48782423 0.56946606 -0.25000000
v -0.46044770 0.65716625 -0.25000000
v -0.19446269 0.72202807 -0.25000000
v -0.29945770 0.74759032 -0.25000000
v -0.21252593 0.85522973 -0.25000000
v -0.16883297 0.55722616 -0.25000000
v -0.33440476 0.85029808 -0.25000000
v -0.56796007 0.60673960 -0.25000000
v -0.53636388 0.72974833 -0.25000000
v -0.42302146 0.77101411 -0.25000000
v -0.62925869 0.34436627 -0.25000000
v -0.60787203 0.25158081 -0.25000000
v -0.72892524 0.25140262 -0.25000000
v -0.62175756 0.68703825 -0.25000000
v -0.37127159 0.44758318 -0.25000000
v -0.45791845 0.36957934 -0.25000000
v -0.46599336 0.48420473 -0.25000000
v -0.66558938 0.17942967 -0.25000000
v -0.77050926 0.11932462 -0.25000000
v -0.83008116 0.32198154 -0.25000000
v -0.54374890 0.41607811 -0.25000000
v -0.09947686 0.67010034 -0.25000000
v -0.65657117 0.09328351 -0.25000000
v -0.50687362 0.26670709 -0.25000000
v -0.86148204 0.20305477 -0.25000000
v -0.11121823 0.79756234 -0.25000000
v -0.08628990 0.57676453 -0.25000000
v -0.64046073 0.52882146 -0.25000000
v -0.56641857 0.16720066 -0.25000000
v -0.56982069 0.07747213 -0.25000000
v -0.67496618 0.61167269 -0.25000000
v -0.88743771 0.09932141 -0.25000000
v -0.56037241 0.51346737 -0.25000000
v -0.54856772 0.33696970 -0.25000000
v -0.09504135 0.90146476 -0.25000000
v -0.17528437 0.63745829 -0.25000000
f 1 2 3
f 4 5 6
f 7 3 8
f 5 9 6
f 10 4 11
f 12 13 11
f 12 14 13
f 3 2 15
f 16 17 18
f 4 6 11
f 19 20 21
f 22 3 7
f 22 23 24
f 25 26 27
f 1 3 24
f 19 28 20
f 27 29 25
f 20 2 9
f 24 3 22
f 30 2 20
f 21 20 9
f 21 31 19
f 5 21 9
f 32 33 34
f 19 17 16
f 35 19 16
f 6 9 1
f 3 15 8
f 34 33 36
f 31 37 38
f 22 39 23
f 35 28 19
f 1 24 12
f 40 4 10
f 37 41 42
f 43 44 45
f 11 13 46
f 47 48 49
f 50 13 51
f 52 53 54
f 51 53 52
f 12 24 14
f 51 52 55
f 56 33 57
f 58 59 47
f 6 12 11
f 39 26 23
f 9 2 1
f 51 55 60
f 61 32 40
f 62 27 63
f 54 25 52
f 64 59 58
f 65 66 67
f 68 30 69
f 32 34 5
f 70 22 7
f 67 66 43
f 20 28 30
f 32 4 40
f 38 17 31
f 48 29 49
f 45 71 64
f 23 54 14
f 24 23 14
f 31 41 37
f 72 36 56
f 49 29 62
f 57 33 61
f 10 11 46
f 6 1 12
f 46 13 50
f 50 51 60
f 13 53 51
f 34 41 21
f 62 29 27
f 32 5 4
f 27 26 39
f 21 41 31
f 61 33 32
f 69 28 35
f 34 21 5
f 60 55 65
f 70 39 22
f 27 39 63
f 14 53 13
f 30 28 69
f 68 15 30
f 73 42 72
f 25 74 52
f 63 39 70
f 43 66 44
f 8 15 68
f 48 71 74
f 54 26 25
f 74 75 48
f 29 75 25
f 15 2 30
f 36 41 34
f 44 71 45
f 36 33 56
f 47 59 48
f 48 75 29
f 76 18 77
f 71 59 64
f 23 26 54
f 74 71 44
f 54 53 14
f 55 78 66
f 55 66 65
f 42 41 36
f 66 78 44
f 31 17 19
f 42 36 72
f 79 37 73
f 77 38 79
f 52 78 55
f 74 78 52
f 73 37 42
f 18 17 38
f 25 75 74
f 44 78 74
f 77 18 38
f 48 59 71
f 38 37 79
f 80 18 76
f 16 18 80
f 81 82 83
f 82 84 83
f 85 86 87
f 87 88 89
f 90 86 85
f 72 91 92
f 84 92 93
f 85 87 89
f 88 87 94
f 92 84 95
f 72 56 91
f 86 96 87
f 73 72 92
f 97 83 98
f 92 91 93
f 87 96 99
f 73 92 100
f 83 97 101
f 57 90 102
f 56 57 102
f 84 93 83
f 89 98 103
f 98 93 103
f 83 93 98
f 85 89 103
f 94 87 99
f 92 95 100
f 104 105 88
f 82 106 84
f 107 108 97
f 109 104 94
f 106 110 95
f 89 88 111
f 90 85 102
f 81 83 101
f 102 85 103
f 93 91 103
f 104 88 94
f 84 106 95
f 91 56 102
f 91 102 103
f 88 112 111
f 105 107 112
f 97 98 111
f 113 109 99
f 110 79 100
f 88 105 112
f 96 113 99
f 79 73 100
f 107 97 112
f 98 89 111
f 97 108 101
f 108 81 101
f 109 94 99
f 95 110 100
f 112 97 111
f 114 115 116
f 117 115 114
f 118 119 120
f 120 119 121
f 122 123 124
f 125 126 127
f 128 117 129
f 130 120 121
f 131 132 124
f 124 123 86
f 116 133 114
f 134 135 136
f 137 120 138
f 139 140 141
f 117 142 129
f 136 143 144
f 145 136 144
f 146 138 134
f 124 147 131
f 146 134 145
f 114 142 117
f 148 143 136
f 127 149 150
f 151 127 150
f 118 152 153
f 90 124 86
f 134 136 145
f 138 120 130
f 124 132 122
f 154 125 127
f 127 141 149
f 149 141 155
f 137 138 156
f 154 127 151
f 157 131 40
f 149 155 158
f 134 130 135
f 159 139 160
f 10 161 157
f 146 162 138
f 161 128 157
f 40 131 61
f 113 140 159
f 155 122 163
f 10 157 40
f 164 152 118
f 155 163 158
f 151 150 165
f 136 133 148
f 121 142 114
f 166 152 150
f 130 121 135
f 46 161 10
f 129 167 128
f 160 125 168
f 153 152 166
f 140 169 141
f 86 123 96
f 50 115 46
f 141 126 139
f 149 158 166
f 153 119 118
f 149 166 150
f 164 118 170
f 171 140 113
f 157 172 131
f 135 133 136
f 65 148 60
f 116 115 50
f 150 152 165
f 57 147 90
f 46 115 161
f 155 173 122
f 169 173 155
f 159 140 139
f 114 133 135
f 121 114 135
f 161 117 128
f 165 152 164
f 60 116 50
f 60 148 116
f 141 169 155
f 158 129 166
f 168 125 154
f 161 115 117
f 171 169 140
f 129 153 166
f 144 143 67
f 134 138 130
f 96 171 113
f 129 142 153
f 121 119 142
f 128 172 157
f 174 162 146
f 118 120 170
f 148 133 116
f 127 126 141
f 131 147 61
f 90 147 124
f 122 173 123
f 131 172 132
f 67 143 65
f 61 147 57
f 122 132 163
f 158 167 129
f 96 123 171
f 142 119 153
f 139 125 160
f 170 120 137
f 139 126 125
f 128 167 172
f 65 143 148
f 156 162 174
f 163 167 158
f 171 173 169
f 172 167 163
f 132 172 163
f 138 162 156
f 123 173 171
f 175 176 177
f 159 160 178
f 160 168 179
f 109 113 159
f 168 180 179
f 109 159 178
f 181 182 183
f 181 184 185
f 186 187 175
f 188 184 181
f 186 175 189
f 180 190 179
f 184 80 191
f 188 181 176
f 176 175 192
f 178 160 179
f 176 181 193
f 187 194 192
f 194 195 192
f 178 190 196
f 180 186 197
f 177 176 193
f 195 188 176
f 181 183 193
f 190 180 197
f 79 110 198
f 77 79 198
f 106 82 182
f 175 187 192
f 80 76 191
f 76 77 199
f 182 82 183
f 104 109 196
f 182 181 185
f 190 178 179
f 195 176 192
f 185 184 191
f 109 178 196
f 110 106 200
f 105 104 201
f 190 201 196
f 175 177 202
f 81 108 203
f 107 105 204
f 105 201 204
f 108 107 205
f 82 81 183
f 206 201 190
f 200 106 182
f 203 108 205
f 107 204 205
f 81 203 183
f 200 185 199
f 76 199 191
f 205 204 202
f 204 201 206
f 203 205 177
f 199 185 191
f 183 203 193
f 204 206 202
f 177 205 202
f 203 177 193
f 206 190 197
f 200 182 185
f 199 77 198
f 201 104 196
f 110 200 198
f 200 199 198
f 197 186 189
f 202 206 189
f 206 197 189
f 175 202 189
f 207 208 209
f 210 209 211
f 209 208 212
f 209 213 207
f 209 214 211
f 215 216 212
f 45 217 43
f 212 216 217
f 212 208 215
f 145 215 146
f 218 217 45
f 219 207 220
f 217 221 43
f 64 218 45
f 218 212 217
f 43 221 67
f 218 209 212
f 67 221 144
f 211 214 58
f 58 214 64
f 222 223 219
f 219 223 207
f 174 224 222
f 146 224 174
f 218 214 209
f 145 216 215
f 213 225 207
f 210 213 209
f 220 225 226
f 144 216 145
f 226 225 227
f 215 224 146
f 223 208 207
f 207 225 220
f 227 213 210
f 64 214 218
f 222 224 223
f 215 208 223
f 144 221 216
f 223 224 215
f 216 221 217
f 227 225 213
f 70 7 228
f 229 230 231
f 232 233 234
f 229 231 235
f 236 237 238
f 7 239 228
f 240 236 238
f 241 228 242
f 230 229 243
f 233 232 244
f 245 246 247
f 248 249 250
f 251 70 228
f 228 239 242
f 252 233 244
f 253 254 255
f 255 254 256
f 252 247 233
f 246 257 247
f 258 231 256
f 237 236 250
f 35 16 243
f 259 251 260
f 261 240 256
f 254 261 256
f 249 241 250
f 245 247 252
f 231 255 256
f 235 231 258
f 262 253 255
f 257 263 247
f 251 259 264
f 229 35 243
f 49 62 232
f 69 35 229
f 265 253 262
f 257 266 263
f 260 251 228
f 235 258 267
f 232 62 264
f 235 267 268
f 262 255 230
f 243 16 269
f 234 233 270
f 245 252 271
f 247 263 233
f 229 235 272
f 258 256 238
f 230 255 231
f 69 229 272
f 250 241 242
f 267 258 237
f 236 248 250
f 235 268 272
f 271 259 260
f 273 243 269
f 47 49 234
f 267 239 268
f 234 274 275
f 274 234 270
f 240 276 236
f 271 252 259
f 276 277 236
f 278 246 245
f 260 228 241
f 256 240 238
f 7 8 239
f 277 279 248
f 261 276 240
f 63 70 251
f 277 248 236
f 245 271 280
f 278 245 280
f 239 267 242
f 248 279 280
f 49 232 234
f 63 251 264
f 279 278 280
f 227 210 281
f 188 195 282
f 237 250 242
f 232 264 244
f 184 188 273
f 210 211 274
f 62 63 264
f 47 234 275
f 248 280 249
f 210 274 281
f 273 188 282
f 266 226 283
f 239 8 268
f 194 265 284
f 16 80 269
f 58 47 275
f 271 260 249
f 262 282 284
f 264 259 244
f 243 273 285
f 260 241 249
f 281 263 283
f 280 271 249
f 265 262 284
f 282 262 285
f 263 281 270
f 263 266 283
f 230 243 285
f 226 227 283
f 195 194 284
f 80 184 269
f 211 58 275
f 262 230 285
f 233 263 270
f 267 237 242
f 8 68 268
f 259 252 244
f 268 68 272
f 68 69 272
f 237 258 238
f 281 274 270
f 273 282 285
f 282 195 284
f 227 281 283
f 184 273 269
f 274 211 275
f 286 287 288
f 286 289 287
f 290 291 292
f 292 293 290
f 294 295 286
f 296 297 298
f 151 288 299
f 298 297 300
f 295 301 302
f 303 297 289
f 286 295 289
f 288 287 299
f 304 305 306
f 302 301 307
f 289 295 303
f 306 291 304
f 308 309 310
f 306 311 312
f 253 300 254
f 304 291 290
f 292 313 246
f 310 309 314
f 180 315 186
f 165 288 151
f 219 316 222
f 300 297 303
f 164 309 308
f 246 313 257
f 317 309 170
f 257 318 266
f 294 301 295
f 296 298 319
f 306 312 318
f 186 315 319
f 154 320 168
f 293 321 290
f 137 322 317
f 168 320 180
f 278 292 246
f 315 296 319
f 186 319 187
f 174 323 156
f 277 324 279
f 266 325 226
f 222 323 174
f 312 311 316
f 322 323 316
f 300 303 254
f 261 302 276
f 261 303 302
f 303 295 302
f 226 325 220
f 254 303 261
f 257 313 318
f 310 314 326
f 289 297 287
f 313 306 318
f 164 308 165
f 308 310 286
f 317 327 309
f 170 309 164
f 314 290 326
f 137 317 170
f 310 326 294
f 310 294 286
f 151 299 154
f 314 304 290
f 308 288 165
f 308 286 288
f 316 311 322
f 287 297 296
f 322 305 317
f 292 291 313
f 180 320 315
f 220 312 219
f 156 322 137
f 324 293 279
f 278 293 292
f 302 307 276
f 265 298 253
f 313 291 306
f 277 307 324
f 276 307 277
f 279 293 278
f 316 323 222
f 194 328 265
f 299 329 320
f 253 298 300
f 187 328 194
f 309 327 314
f 305 327 317
f 219 312 316
f 307 301 324
f 318 325 266
f 320 329 315
f 301 321 324
f 299 320 154
f 296 329 287
f 305 311 306
f 287 329 299
f 304 327 305
f 324 321 293
f 156 323 322
f 322 311 305
f 326 301 294
f 315 329 296
f 220 325 312
f 319 328 187
f 326 321 301
f 314 327 304
f 298 328 319
f 290 321 326
f 265 328 298
f 312 325 318
