v -0.74365898 -0.53903120 0.00000000
v -0.58288818 -0.27444611 0.00000000
v -0.43362637 -0.52040136 0.00000000
v 1.00000000 -0.42857143 0.00000000
v 1.00000000 -0.71428571 0.00000000
v 0.73687465 -0.53462053 0.00000000
v 1.00000000 0.71428571 0.00000000
v 1.00000000 0.42857143 0.00000000
v 0.73711841 0.53445412 0.00000000
v -0.82322845 -0.28571429 0.00000000
v 0.79084263 -0.79084263 0.00000000
v 0.79084263 0.79084263 0.00000000
v -0.74691442 -0.00364540 0.00000000
v -0.44424935 -0.01106125 0.00000000
v -1.00000000 0.42857143 0.00000000
v -1.00000000 0.71428571 0.00000000
v -0.73804242 0.52979771 0.00000000
v -0.57142857 0.23717915 0.00000000
v -0.14755174 -0.01322594 0.00000000
v -0.00461570 -0.26175427 0.00000000
v -0.29188612 -0.26816071 0.00000000
v 0.74376621 0.00009075 0.00000000
v 0.57142857 -0.25769251 0.00000000
v 0.44629091 0.00063528 0.00000000
v 0.57142857 0.25769251 0.00000000
v -0.43152276 0.49607072 0.00000000
v 0.28791528 -0.25662305 0.00000000
v 0.14540794 -0.00894007 0.00000000
v -0.14629259 0.48866225 0.00000000
v 0.00005777 0.74253843 0.00000000
v 0.14263832 0.48948285 0.00000000
v -0.28938739 0.23852788 0.00000000
v 0.28394002 0.74863768 0.00000000
v -0.42857143 1.00000000 0.00000000
v -0.14285714 1.00000000 0.00000000
v -0.28696607 0.74014526 0.00000000
v -0.14455081 -0.51401506 0.00000000
v -0.56568385 -0.76690244 0.00000000
v -0.79084263 0.79084263 0.00000000
v 0.28659575 0.23950719 0.00000000
v 0.42857143 0.50512834 0.00000000
v -0.56572741 0.75592006 0.00000000
v 0.80909057 0.28233520 0.00000000
v 0.80907788 -0.28233441 0.00000000
v -0.00029953 0.23700378 0.00000000
v 0.42686511 -0.50629325 0.00000000
v 0.14295931 -0.50554176 0.00000000
v 0.28422328 -0.75382992 0.00000000
v 0.14285714 1.00000000 0.00000000
v 0.42857143 1.00000000 0.00000000
v 0.42857143 -1.00000000 0.00000000
v 0.14285714 -1.00000000 0.00000000
v 0.56037853 -0.75894391 0.00000000
v 0.71428571 1.00000000 0.00000000
v 0.56037853 0.75894391 0.00000000
v 0.00210400 -0.75377892 0.00000000
v -0.14285714 -1.00000000 0.00000000
v -1.00000000 -0.14285714 0.00000000
v -1.00000000 0.14285714 0.00000000
v 1.00000000 0.14285714 0.00000000
v 1.00000000 -0.14285714 0.00000000
v 0.71428571 -1.00000000 0.00000000
v -1.00000000 -0.71428571 0.00000000
v -1.00000000 -0.42857143 0.00000000
v -0.71428571 1.00000000 0.00000000
v -0.28553093 -0.75918296 0.00000000
v -0.42857143 -1.00000000 0.00000000
v -0.80677554 0.28571429 0.00000000
v -0.71428571 -1.00000000 0.00000000
v -1.00000000 -1.00000000 0.00000000
v -0.79084263 -0.79084263 0.00000000
v 1.00000000 -1.00000000 0.00000000
v -1.00000000 1.00000000 0.00000000
v 1.00000000 1.00000000 0.00000000
v -0.00000000 -0.57142857 0.60609153
v 0.28571429 -0.57142857 0.60609153
v 0.14285714 -0.42857143 0.80812203
v -0.14285714 -0.42857143 0.80812203
v 0.00000000 -0.28571429 1.01015254
v -0.28571429 -0.28571429 1.01015254
v -0.14285714 -0.14285714 1.21218305
v -0.57142857 -0.85714286 0.20203051
v -0.28571429 -0.85714286 0.20203051
v 0.14285714 -0.71428571 0.40406102
v 0.14285714 -0.14285714 1.21218305
v -0.42857143 -0.71428571 0.40406102
v -0.00000000 -0.85714286 0.20203051
v -0.14285714 -0.71428571 0.40406102
v 0.85714286 -0.85714286 0.20203051
v -0.85714286 -0.85714286 0.20203051
v 0.00000000 0.00000000 1.41421356
v 0.71428571 -0.71428571 0.40406102
v 0.57142857 -0.85714286 0.20203051
v 0.28571429 -0.85714286 0.20203051
v -0.42857143 -0.42857143 0.80812203
v 0.28571429 -0.28571429 1.01015254
v 0.42857143 -0.42857143 0.80812203
v -0.28571429 -0.57142857 0.60609153
v -0.57142857 -0.57142857 0.60609153
v 0.42857143 -0.71428571 0.40406102
v -0.71428571 -0.71428571 0.40406102
v 0.57142857 -0.57142857 0.60609153
v 0.57142857 0.00000000 0.60609153
v 0.42857143 -0.14285714 0.80812203
v 0.57142857 -0.28571429 0.60609153
v 0.42857143 0.14285714 0.80812203
v 0.28571429 -0.00000000 1.01015254
v 0.28571429 0.28571429 1.01015254
v 0.14285714 0.14285714 1.21218305
v 0.85714286 0.57142857 0.20203051
v 0.85714286 0.28571429 0.20203051
v 0.71428571 -0.14285714 0.40406102
v 0.71428571 0.42857143 0.40406102
v 0.85714286 0.00000000 0.20203051
v 0.71428571 0.14285714 0.40406102
v 0.85714286 0.85714286 0.20203051
v 0.85714286 -0.57142857 0.20203051
v 0.85714286 -0.28571429 0.20203051
v 0.42857143 0.42857143 0.80812203
v 0.57142857 0.28571429 0.60609153
v 0.57142857 0.57142857 0.60609153
v 0.71428571 -0.42857143 0.40406102
v 0.71428571 0.71428571 0.40406102
v -0.57142857 0.28571429 0.60609153
v -0.57142857 -0.00000000 0.60609153
v -0.42857143 0.14285714 0.80812203
v -0.42857143 -0.14285714 0.80812203
v -0.28571429 0.00000000 1.01015254
v -0.85714286 -0.57142857 0.20203051
v -0.85714286 -0.28571429 0.20203051
v -0.71428571 0.14285714 0.40406102
v -0.14285714 0.14285714 1.21218305
v -0.71428571 -0.42857143 0.40406102
v -0.85714286 -0.00000000 0.20203051
v -0.71428571 -0.14285714 0.40406102
v -0.85714286 0.85714286 0.20203051
v -0.85714286 0.28571429 0.20203051
v -0.71428571 0.71428571 0.40406102
v -0.85714286 0.57142857 0.20203051
v -0.28571429 0.28571429 1.01015254
v -0.57142857 -0.28571429 0.60609153
v -0.42857143 0.42857143 0.80812203
v -0.71428571 0.42857143 0.40406102
v -0.57142857 0.57142857 0.60609153
v -0.28571429 0.57142857 0.60609153
v -0.14285714 0.42857143 0.80812203
v 0.00000000 0.57142857 0.60609153
v 0.14285714 0.42857143 0.80812203
v -0.00000000 0.28571429 1.01015254
v 0.28571429 0.85714286 0.20203051
v 0.57142857 0.85714286 0.20203051
v -0.14285714 0.71428571 0.40406102
v 0.42857143 0.71428571 0.40406102
v 0.14285714 0.71428571 0.40406102
v 0.00000000 0.85714286 0.20203051
v -0.28571429 0.85714286 0.20203051
v -0.57142857 0.85714286 0.20203051
v 0.28571429 0.57142857 0.60609153
v -0.42857143 0.71428571 0.40406102
f 1 2 3
f 4 5 6
f 7 8 9
f 2 1 10
f 6 5 11
f 7 9 12
f 13 14 2
f 15 16 17
f 14 13 18
f 19 20 21
f 2 21 3
f 22 23 24
f 25 22 24
f 26 18 17
f 27 28 24
f 29 30 31
f 29 32 26
f 30 33 31
f 34 35 36
f 14 19 21
f 20 37 21
f 1 3 38
f 17 16 39
f 32 18 26
f 23 27 24
f 30 29 36
f 40 41 25
f 41 40 31
f 28 40 24
f 36 29 26
f 35 30 36
f 42 34 36
f 33 41 31
f 2 14 21
f 22 25 43
f 23 22 44
f 21 37 3
f 40 25 24
f 40 45 31
f 45 29 31
f 42 36 26
f 46 23 6
f 47 27 46
f 48 47 46
f 46 27 23
f 49 50 33
f 30 49 33
f 51 52 48
f 53 51 48
f 50 54 55
f 52 56 48
f 48 56 47
f 28 20 19
f 32 14 18
f 52 57 56
f 58 59 13
f 35 49 30
f 60 61 22
f 47 37 20
f 47 20 27
f 45 32 29
f 41 9 25
f 62 51 53
f 63 64 1
f 50 55 33
f 65 34 42
f 47 56 37
f 27 20 28
f 28 19 45
f 28 45 40
f 45 19 32
f 32 19 14
f 53 48 46
f 53 46 6
f 33 55 41
f 41 55 9
f 42 26 17
f 66 67 38
f 3 37 66
f 37 56 66
f 57 67 66
f 18 13 68
f 17 18 68
f 3 66 38
f 67 69 38
f 56 57 66
f 13 2 10
f 13 59 68
f 60 22 43
f 22 61 44
f 58 13 10
f 1 64 10
f 69 70 71
f 70 63 71
f 72 62 11
f 5 72 11
f 16 73 39
f 73 65 39
f 74 7 12
f 54 74 12
f 53 6 11
f 9 55 12
f 42 17 39
f 4 6 44
f 9 8 43
f 15 17 68
f 59 15 68
f 6 23 44
f 61 4 44
f 25 9 43
f 8 60 43
f 64 58 10
f 62 53 11
f 63 1 71
f 65 42 39
f 55 54 12
f 38 69 71
f 1 38 71
f 75 76 77
f 78 75 77
f 79 78 77
f 80 78 79
f 81 80 79
f 82 67 83
f 76 75 84
f 85 81 79
f 86 82 83
f 87 84 88
f 62 72 89
f 69 90 70
f 85 91 81
f 89 92 93
f 62 89 93
f 87 52 94
f 57 52 87
f 52 51 94
f 80 95 78
f 96 85 79
f 84 75 88
f 97 96 77
f 78 95 98
f 95 99 98
f 96 79 77
f 69 67 82
f 94 51 93
f 100 76 84
f 78 98 75
f 99 101 86
f 102 97 76
f 76 97 77
f 99 86 98
f 51 62 93
f 94 100 84
f 101 90 82
f 90 69 82
f 67 57 83
f 92 102 100
f 86 101 82
f 93 92 100
f 57 87 83
f 94 93 100
f 102 76 100
f 87 94 84
f 98 86 88
f 86 83 88
f 83 87 88
f 75 98 88
f 103 104 105
f 106 104 103
f 107 104 106
f 108 107 106
f 109 107 108
f 110 111 8
f 105 112 103
f 85 107 109
f 113 111 110
f 114 115 112
f 74 116 7
f 72 5 89
f 109 91 85
f 89 117 92
f 5 117 89
f 114 118 61
f 60 114 61
f 61 118 4
f 108 106 119
f 96 107 85
f 112 115 103
f 97 104 96
f 96 104 107
f 106 120 119
f 119 120 121
f 7 110 8
f 118 117 4
f 122 112 105
f 106 103 120
f 121 113 123
f 102 105 97
f 105 104 97
f 121 120 113
f 4 117 5
f 118 112 122
f 116 110 7
f 123 110 116
f 8 111 60
f 92 122 102
f 113 110 123
f 117 122 92
f 60 111 114
f 118 122 117
f 102 122 105
f 114 112 118
f 120 115 113
f 113 115 111
f 111 115 114
f 103 115 120
f 124 125 126
f 125 127 126
f 127 128 126
f 127 80 128
f 80 81 128
f 64 129 130
f 125 124 131
f 81 132 128
f 129 133 130
f 131 134 135
f 90 63 70
f 73 16 136
f 81 91 132
f 59 134 137
f 138 136 139
f 136 16 139
f 15 59 137
f 59 58 134
f 95 80 127
f 132 140 128
f 125 131 135
f 128 140 126
f 99 95 141
f 140 142 126
f 95 127 141
f 64 63 129
f 124 143 131
f 141 127 125
f 101 99 133
f 142 144 124
f 15 137 139
f 142 124 126
f 133 99 141
f 16 15 139
f 90 101 129
f 63 90 129
f 58 64 130
f 143 137 131
f 144 138 143
f 138 139 143
f 101 133 129
f 134 58 130
f 139 137 143
f 124 144 143
f 137 134 131
f 133 141 135
f 130 133 135
f 134 130 135
f 141 125 135
f 145 146 147
f 147 146 148
f 148 146 149
f 148 149 108
f 108 149 109
f 50 150 151
f 147 152 145
f 109 149 132
f 151 150 153
f 152 154 155
f 136 65 73
f 74 54 116
f 132 91 109
f 35 156 155
f 138 157 136
f 136 157 65
f 34 156 35
f 35 155 49
f 119 148 108
f 132 149 140
f 147 154 152
f 121 158 119
f 119 158 148
f 140 146 142
f 149 146 140
f 50 151 54
f 145 152 159
f 158 147 148
f 123 153 121
f 142 145 144
f 34 157 156
f 142 146 145
f 153 158 121
f 65 157 34
f 116 151 123
f 54 151 116
f 49 150 50
f 159 152 156
f 144 159 138
f 138 159 157
f 123 151 153
f 155 150 49
f 157 159 156
f 145 159 144
f 156 152 155
f 153 154 158
f 150 154 153
f 155 154 150
f 158 154 147
