v -3.24700803 5.00000000 3.41411070
v -3.10203165 5.00000000 2.45849260
v -4.16278149 5.00000000 2.65404511
v -4.12350401 5.00000000 3.73312915
v -3.70492079 5.00000000 1.73417680
v -5.00000000 5.00000000 3.12678966
v -1.34193393 5.00000000 1.87344993
v -0.55893101 5.00000000 1.56204031
v -1.41248926 5.00000000 0.99871279
v -0.02231261 5.00000000 0.21904011
v 0.35887088 5.00000000 1.14606473
v 0.99966398 5.00000000 0.26723065
v -2.88982192 5.00000000 0.21461177
v -3.31361682 5.00000000 0.99474302
v -2.38686122 5.00000000 0.93547510
v 1.47604650 5.00000000 -0.67821144
v 2.01103013 5.00000000 0.03469155
v -0.51841041 5.00000000 0.79804907
v 1.59443382 5.00000000 0.67259663
v 3.49702887 5.00000000 0.74149251
v 4.11046143 5.00000000 0.00204074
v 2.99932212 5.00000000 0.00628339
v -5.00000000 5.00000000 4.05214760
v 3.49337460 5.00000000 -0.73258448
v 1.09023344 5.00000000 1.14738276
v -2.78503895 5.00000000 1.66330704
v 1.00000000 5.00000000 -1.50000000
v 0.46533173 5.00000000 -0.65501112
v -3.00000000 5.00000000 -1.50000000
v -4.00000000 5.00000000 -1.50000000
v -3.49169053 5.00000000 -0.59284078
v 2.01196789 5.00000000 1.50000000
v 3.00797859 5.00000000 1.50000000
v 2.50997324 5.00000000 0.66482318
v -1.49807565 5.00000000 -0.64079967
v -2.48788087 5.00000000 -0.63548601
v -1.96105510 5.00000000 0.18183727
v -1.00002200 5.00000000 0.14673871
v -2.00000000 5.00000000 -1.50000000
v 0.00000000 5.00000000 -1.50000000
v -4.22307031 5.00000000 0.91795100
v -4.44917300 5.00000000 1.74530631
v -0.50670979 5.00000000 -0.63728041
v 2.00000000 5.00000000 -1.50000000
v 2.49864692 5.00000000 -0.73004753
v -1.00000000 5.00000000 -1.50000000
v 3.00000000 5.00000000 -1.50000000
v 4.00000000 5.00000000 -1.50000000
v -2.37051204 5.00000000 3.09509225
v -5.00000000 5.00000000 2.20143173
v -5.00000000 5.00000000 0.35071587
v -5.00000000 5.00000000 1.27607380
v 4.00398930 5.00000000 1.50000000
v -1.49401605 5.00000000 2.77607380
v -0.61752007 5.00000000 2.45705535
v 0.25897592 5.00000000 2.13803690
v 1.13547190 5.00000000 1.81901845
v -2.17544631 5.00000000 2.23767572
v -4.26666488 5.00000000 -0.07981724
v -5.00000000 5.00000000 -0.57464207
v 5.00000000 5.00000000 0.50000000
v 5.00000000 5.00000000 -0.50000000
v 5.00000000 5.00000000 1.50000000
v 4.27345705 5.00000000 0.77237410
v 5.00000000 5.00000000 -1.50000000
v 4.27304074 5.00000000 -0.77304074
v -5.00000000 5.00000000 -1.50000000
v -4.35167108 5.00000000 -0.84946002
v -3.66260949 5.00000000 0.32428631
v -1.95914525 5.00000000 1.55963870
v -1.14327614 2.04815822 2.64841491
v -1.91776524 1.45727544 2.93030589
v -1.07785431 0.87548122 2.62460331
v -0.35849097 1.59367295 2.36277647
v -2.75461911 4.21443264 3.23489579
v -3.24700803 3.51222646 3.41411070
v -2.13268883 3.36501098 3.00853168
v -2.71064824 1.90738772 3.21889170
v -2.75075785 0.86267108 3.23349040
v -2.84572056 2.75369833 3.26805400
v -3.50194694 1.51405981 3.50690087
v -3.39103204 2.33250415 3.46653115
v -4.16741245 2.42083313 3.74911051
v -4.30583805 1.44026697 3.79949331
v -1.94479905 2.44192319 2.94014539
v -1.00865224 4.23795882 2.59941582
v -1.43752469 3.62452434 2.75551262
v -0.49205367 3.42127642 2.41138932
v -1.92506194 0.62964673 2.93296167
v -1.88216098 4.22697733 2.91734700
v -1.23708411 2.90364041 2.68255822
v -0.17197738 4.20506076 2.29489107
v -0.15386445 0.74706033 2.28829850
v 1.13275746 3.52767544 1.82000643
v 0.36780016 2.93976102 2.09842812
v 1.20947142 2.51487451 1.79208483
v 2.01196789 3.00000000 1.50000000
v 0.38477541 2.07276998 2.09224963
v -0.38795420 2.49919783 2.37350021
v 2.01196789 4.00000000 1.50000000
v 2.01196789 2.00000000 1.50000000
v 1.13329408 1.47636903 1.81981111
v -5.00000000 2.00000000 4.05214760
v -5.00000000 3.00000000 4.05214760
v -0.61752007 0.00000000 2.45705535
v -1.49401605 0.00000000 2.77607380
v 0.33715192 1.32183116 2.10958316
v 1.13547190 0.00000000 1.81901845
v 0.68004552 0.71928351 1.98478010
v 0.25897592 0.00000000 2.13803690
v -2.37051204 0.00000000 3.09509225
v -3.24700803 0.00000000 3.41411070
v -3.68525602 4.19221693 3.57361992
v 2.01196789 1.00000000 1.50000000
v -4.19887367 3.45761670 3.76056146
v -5.00000000 4.00000000 4.05214760
v 0.66286085 4.28381123 1.99103481
v -3.70171912 0.71501788 3.57961200
v 0.27768052 3.67523809 2.13122898
v 1.37943293 4.32942531 1.73022390
v -4.37608729 0.68429251 3.82506194
v 1.39101958 0.65369593 1.72600670
v 2.01196789 0.00000000 1.50000000
v -4.37022701 4.30989052 3.82292897
v -5.00000000 0.00000000 4.05214760
v -5.00000000 1.00000000 4.05214760
v -4.12350401 0.00000000 3.73312915
v -3.68506640 2.97297336 3.57355091
v -4.09735083 0.00000000 2.81682759
v -3.24507547 0.00000000 2.73540221
v -5.00000000 0.00000000 3.20143173
v -0.61752007 0.00000000 1.50000000
v 0.25897592 0.00000000 1.50000000
v -0.17927208 0.00000000 1.83977923
v -3.68571410 0.00000000 2.15050675
v -4.12350401 0.00000000 1.50000000
v -3.24700803 0.00000000 1.50000000
v -2.37051204 0.00000000 1.50000000
v -2.82479232 0.00000000 2.20047378
v -2.01133079 0.00000000 2.20322679
v -1.49401605 0.00000000 1.50000000
v -5.00000000 0.00000000 2.35071587
v -1.23611235 0.00000000 2.11953628
v -5.00000000 0.00000000 1.50000000
v -4.38131379 0.00000000 2.06361004
v 1.13547190 0.00000000 1.50000000
v -2.50000000 -4.13397460 1.50000000
v -1.41789599 -4.04863725 1.50000000
v -1.79917908 -3.13039561 1.50000000
v 4.11091200 -2.51165378 1.50000000
v 3.34247752 -2.00000000 1.50000000
v 3.16140269 -3.08450286 1.50000000
v -2.00000000 -5.00000000 1.50000000
v 4.17808301 -3.45562413 1.50000000
v -2.76387269 -3.07985775 1.50000000
v -1.00000000 -5.00000000 1.50000000
v 0.00000000 -5.00000000 1.50000000
v -0.42362481 -4.03096758 1.50000000
v 3.34480210 -0.87137916 1.50000000
v 4.16485503 -1.46406141 1.50000000
v -3.26648313 -2.18372542 1.50000000
v -3.37066667 -1.39474704 1.50000000
v -4.17001152 -1.56241778 1.50000000
v 2.71640157 -1.49855331 1.50000000
v -4.15771153 -2.52033713 1.50000000
v 2.46605630 -2.32838866 1.50000000
v 1.05980648 -3.20747062 1.50000000
v 0.11145799 -3.16646856 1.50000000
v 0.50000000 -4.13397460 1.50000000
v 1.51857912 -4.11297585 1.50000000
v 3.51361044 -4.11045141 1.50000000
v -1.13050004 -0.76163405 1.50000000
v -1.69331409 -1.53659084 1.50000000
v -0.72418872 -1.52692657 1.50000000
v -2.01769417 -0.72413418 1.50000000
v 4.00000000 -5.00000000 1.50000000
v 3.00000000 -5.00000000 1.50000000
v 2.50650116 -4.09510260 1.50000000
v 4.22284080 -0.46815130 1.50000000
v 2.90645998 0.01045741 1.50000000
v 3.61988601 0.01664934 1.50000000
v 3.41404056 0.90058979 1.50000000
v -3.46581329 -3.73536373 1.50000000
v 2.01826090 -3.20899947 1.50000000
v 2.00000000 -5.00000000 1.50000000
v 1.00000000 -5.00000000 1.50000000
v 5.00000000 -1.00000000 1.50000000
v 2.70417661 0.73601781 1.50000000
v -0.32011810 -2.29965845 1.50000000
v 0.19399574 -1.53650239 1.50000000
v -0.21070712 -0.74723767 1.50000000
v 1.55219655 -2.35592504 1.50000000
v -2.65823473 -1.42001229 1.50000000
v 5.00000000 -2.00000000 1.50000000
v -1.26549855 -2.30032110 1.50000000
v 5.00000000 1.00000000 1.50000000
v 4.21128662 0.51172995 1.50000000
v 5.00000000 0.00000000 1.50000000
v 4.13397460 2.50000000 1.50000000
v 4.14160884 1.48677710 1.50000000
v 5.00000000 2.00000000 1.50000000
v -2.21654285 -2.28540639 1.50000000
v 5.00000000 -3.00000000 1.50000000
v -3.00000000 -5.00000000 1.50000000
v 3.50596295 4.06146054 1.50000000
v 3.49669184 2.99404198 1.50000000
v 4.23599495 3.47044089 1.50000000
v 2.76687808 3.46979679 1.50000000
v -5.00000000 -3.00000000 1.50000000
v -5.00000000 -2.00000000 1.50000000
v -0.81975860 -3.11060047 1.50000000
v 0.62897377 -2.33486786 1.50000000
v 2.77544289 1.53949107 1.50000000
v 2.82647228 2.49613539 1.50000000
v 5.00000000 3.00000000 1.50000000
v -5.00000000 -1.00000000 1.50000000
v 1.56987912 -0.76741555 1.50000000
v 0.68135257 -0.76641200 1.50000000
v 1.10866202 -1.54391180 1.50000000
v 1.98685832 -1.53544532 1.50000000
v -3.68525602 -0.75906779 1.50000000
v -2.85487622 -0.69036019 1.50000000
v 2.44181363 -0.75755343 1.50000000
v 5.00000000 4.00000000 1.50000000
v 5.00000000 -4.00000000 1.50000000
v -4.24245595 -3.43805219 1.50000000
v -3.50000000 -4.47441252 1.50000000
v 5.00000000 -5.00000000 1.50000000
v 4.25658931 -4.25658931 1.50000000
v 2.74041659 4.27047596 1.50000000
v 4.27155130 4.27047596 1.50000000
v -4.38355724 -0.65618700 1.50000000
v -5.00000000 -5.00000000 1.50000000
v -4.27525292 -4.27525292 1.50000000
v -5.00000000 -4.00000000 1.50000000
v -4.00000000 -5.00000000 1.50000000
v -3.55171293 -2.97924363 1.50000000
v 3.46600334 1.98561704 1.50000000
v -5.00000000 3.17283565 0.54058921
v -5.00000000 4.07811602 0.88878512
v -5.00000000 4.00744128 -0.08258639
v -5.00000000 3.13641227 1.45305260
v -5.00000000 3.07648157 -0.19984386
v -5.00000000 2.19760771 0.11677855
v -5.00000000 1.55247639 -0.69132532
v -5.00000000 1.12324595 0.09408398
v -5.00000000 1.57470888 0.74693520
v -5.00000000 4.03566007 1.76047339
v -5.00000000 3.09423988 2.43477710
v -5.00000000 4.17596319 2.67904806
v -5.00000000 3.50452322 -0.80868958
v -5.00000000 3.51304262 3.30221116
v -5.00000000 0.72862350 0.97485205
v -5.00000000 0.09710364 0.18034064
v -5.00000000 0.07315719 0.85903654
v -5.00000000 -4.13630545 0.00000000
v -5.00000000 -3.49404906 0.73492070
v -5.00000000 -2.99624042 0.00000000
v -5.00000000 -3.49404906 -0.73492070
v -5.00000000 2.50000000 -0.76531111
v -5.00000000 -0.53309837 0.78095347
v -5.00000000 -1.00000000 -1.50000000
v -5.00000000 -1.49565390 -0.66059217
v -5.00000000 -0.46242963 -0.69625848
v -5.00000000 2.53246339 3.28434191
v -5.00000000 1.47916061 3.26102222
v -5.00000000 -0.98211669 0.04620141
v -5.00000000 2.00000000 -1.50000000
v -5.00000000 1.00000000 -1.50000000
v -5.00000000 0.53682603 -0.67198380
v -5.00000000 0.00000000 -1.50000000
v -5.00000000 4.00000000 -1.50000000
v -5.00000000 3.00000000 -1.50000000
v -5.00000000 -1.49919399 0.67276499
v -5.00000000 -2.00000000 -1.50000000
v -5.00000000 -3.00000000 -1.50000000
v -5.00000000 -2.49662765 -0.68551511
v -5.00000000 -2.49692868 0.68655022
v -5.00000000 -4.00000000 -1.50000000
v -5.00000000 2.27272362 1.90683634
v -5.00000000 2.31357397 1.04877417
v -5.00000000 1.51049327 1.50018723
v -5.00000000 0.72297245 2.76162536
v -5.00000000 0.74827454 1.93076885
v -5.00000000 1.48271458 2.34376017
v -5.00000000 2.15540992 2.63101288
v -5.00000000 -5.00000000 -0.50000000
v -5.00000000 -5.00000000 0.50000000
v -5.00000000 0.64102974 3.46101194
v -5.00000000 -4.27304074 0.77304074
v -5.00000000 -5.00000000 -1.50000000
v -5.00000000 -4.27304074 -0.77304074
v -5.00000000 4.31441002 3.38890842
v -5.00000000 4.30950797 -0.86687624
v -5.00000000 -1.99446022 0.00990156
v -3.12961139 -0.09522561 -1.50000000
v -2.00000000 -0.19615242 -1.50000000
v -2.40417865 -0.99434154 -1.50000000
v 4.13397460 -2.50000000 -1.50000000
v 3.14344922 -1.96633964 -1.50000000
v 4.13397460 -1.50000000 -1.50000000
v 3.51820071 0.62023901 -1.50000000
v 4.05972759 -0.36369658 -1.50000000
v 3.00222168 -0.20264998 -1.50000000
v 4.09430275 3.40817438 -1.50000000
v 3.50794193 2.42602386 -1.50000000
v 3.00823953 3.30062368 -1.50000000
v -3.32147732 -1.10971325 -1.50000000
v 3.38053117 -3.00000000 -1.50000000
v 4.34743736 0.50000000 -1.50000000
v -2.45489624 0.59175098 -1.50000000
v -0.96891293 -1.89921146 -1.50000000
v -1.48574640 -2.87222643 -1.50000000
v -1.85234102 -1.84295228 -1.50000000
v -3.00000000 -5.00000000 -1.50000000
v -4.00000000 -5.00000000 -1.50000000
v -3.37129191 -4.07884013 -1.50000000
v 4.34274033 2.46868005 -1.50000000
v -1.50920200 -4.11145698 -1.50000000
v -2.40192379 -3.50000000 -1.50000000
v 4.11145698 1.50920200 -1.50000000
v 3.02642185 1.52804318 -1.50000000
v -0.48090136 -2.67953521 -1.50000000
v -4.26794919 -4.26794919 -1.50000000
v -2.45360983 1.42082703 -1.50000000
v -1.58037020 0.80156984 -1.50000000
v -0.74051620 -3.50541664 -1.50000000
v 3.39174722 -1.00208107 -1.50000000
v -1.70577137 1.70577137 -1.50000000
v -2.48440059 -2.51986362 -1.50000000
v 3.46959845 4.17915819 -1.50000000
v -3.41388503 4.04208736 -1.50000000
v -3.35442452 2.97541201 -1.50000000
v -4.19582534 3.46287926 -1.50000000
v 4.17050260 -3.49406768 -1.50000000
v 3.44093390 -4.06145656 -1.50000000
v 2.48106763 -2.78285598 -1.50000000
v 2.50748899 0.66695372 -1.50000000
v -2.69901008 3.44172580 -1.50000000
v 2.75026140 -3.50358986 -1.50000000
v -2.48867231 -4.33219189 -1.50000000
v 2.48284934 -1.05194319 -1.50000000
v 1.99876000 -0.19591527 -1.50000000
v 1.50000000 -1.06157271 -1.50000000
v 1.00000000 3.26794919 -1.50000000
v 1.49863783 4.13476105 -1.50000000
v 2.00064032 3.27405790 -1.50000000
v -1.50000000 4.13397460 -1.50000000
v -2.43548252 4.14762282 -1.50000000
v 0.50000000 4.13397460 -1.50000000
v -0.50000000 4.13397460 -1.50000000
v 2.49182698 4.13869329 -1.50000000
v -4.15470054 -1.50000000 -1.50000000
v -4.14115044 -2.49355414 -1.50000000
v -4.13397460 0.50000000 -1.50000000
v -4.15815486 -0.50000000 -1.50000000
v -4.13869329 2.49182698 -1.50000000
v -4.13476105 1.49863783 -1.50000000
v 5.00000000 -2.00000000 -1.50000000
v 1.00000000 -5.00000000 -1.50000000
v 0.51934164 -4.23493587 -1.50000000
v 1.49751544 -4.20104233 -1.50000000
v -3.26794919 1.00000000 -1.50000000
v -0.00000000 3.26794919 -1.50000000
v -0.98811985 3.27415262 -1.50000000
v 1.00000000 1.53589838 -1.50000000
v 0.50000000 2.40192379 -1.50000000
v 1.50073394 2.40170559 -1.50000000
v 0.99979333 -0.19601204 -1.50000000
v 2.00000000 -1.92749726 -1.50000000
v -0.50000000 2.40192379 -1.50000000
v -0.00000000 1.53589838 -1.50000000
v 2.00000000 1.53589838 -1.50000000
v 0.50000000 0.66987298 -1.50000000
v 1.50000000 0.66987298 -1.50000000
v -3.27484978 1.98804783 -1.50000000
v -0.50000000 0.66987298 -1.50000000
v -1.00000000 1.53589838 -1.50000000
v -1.00000000 -0.19615242 -1.50000000
v -0.50000000 -1.06217783 -1.50000000
v -1.47539017 -1.04796933 -1.50000000
v 1.00000000 -1.92457254 -1.50000000
v 0.50000000 -1.06217783 -1.50000000
v 1.50000000 -2.79422863 -1.50000000
v 0.51934164 -2.70282454 -1.50000000
v 2.50440364 2.40061459 -1.50000000
v -4.15630370 -3.46132487 -1.50000000
v 5.00000000 4.00000000 -1.50000000
v 5.00000000 3.00000000 -1.50000000
v 5.00000000 2.00000000 -1.50000000
v 5.00000000 1.00000000 -1.50000000
v 5.00000000 0.00000000 -1.50000000
v 5.00000000 -1.00000000 -1.50000000
v 5.00000000 -3.00000000 -1.50000000
v 3.00000000 -5.00000000 -1.50000000
v 2.00000000 -5.00000000 -1.50000000
v 2.45978803 -4.20407743 -1.50000000
v 0.00000000 -5.00000000 -1.50000000
v -1.00000000 -5.00000000 -1.50000000
v -2.00000000 -5.00000000 -1.50000000
v -0.00000000 -0.19615242 -1.50000000
v -0.00000000 -1.90641909 -1.50000000
v -3.27286668 -2.99247983 -1.50000000
v 5.00000000 -4.00000000 -1.50000000
v -3.33680793 -2.04827453 -1.50000000
v -1.42673875 2.44345634 -1.50000000
v -1.92871913 3.30516973 -1.50000000
v -2.62869828 -1.74256564 -1.50000000
v 4.00000000 -5.00000000 -1.50000000
v -2.40616049 2.46863002 -1.50000000
v -0.48326768 -4.31408698 -1.50000000
v 0.08524195 -3.47399032 -1.50000000
v -4.26794919 4.26794919 -1.50000000
v 4.26794919 4.26794919 -1.50000000
v 5.00000000 -5.00000000 -1.50000000
v 4.26794919 -4.26794919 -1.50000000
v 1.00000000 -3.46410162 -1.50000000
v 1.98898625 -3.46955932 -1.50000000
v 3.47075438 -5.00000000 -0.73365396
v 4.06179991 -5.00000000 -0.00000000
v 2.99628027 -5.00000000 -0.00000000
v 3.47075438 -5.00000000 0.73365396
v -3.47075438 -5.00000000 0.73365396
v -4.06179991 -5.00000000 0.00000000
v -2.99772323 -5.00000000 0.00000000
v -3.47075438 -5.00000000 -0.73365396
v 0.50000000 -5.00000000 0.63397460
v 1.50000000 -5.00000000 0.63397460
v -0.50000000 -5.00000000 -0.63397460
v -1.50000000 -5.00000000 -0.63397460
v -1.50000000 -5.00000000 0.63397460
v -0.50000000 -5.00000000 0.63397460
v 1.50000000 -5.00000000 -0.63397460
v 0.50000000 -5.00000000 -0.63397460
v -2.50000000 -5.00000000 -0.63397460
v 5.00000000 -5.00000000 -0.50000000
v 5.00000000 -5.00000000 0.50000000
v -2.50000000 -5.00000000 0.63397460
v 2.50000000 -5.00000000 0.63397460
v 2.50000000 -5.00000000 -0.63397460
v -4.26794919 -5.00000000 0.76794919
v 4.26794919 -5.00000000 0.76794919
v -4.26794919 -5.00000000 -0.76794919
v 4.26794919 -5.00000000 -0.76794919
v 1.00000000 -5.00000000 -0.00000000
v 2.00000000 -5.00000000 -0.00000000
v -0.00000000 -5.00000000 0.00000000
v -1.00000000 -5.00000000 0.00000000
v -2.00000000 -5.00000000 -0.00000000
v 5.00000000 3.50000000 0.63397460
v 5.00000000 3.47984964 -0.55246888
v 5.00000000 4.23861810 0.00970306
v 5.00000000 2.79062490 0.08597535
v 5.00000000 0.53303086 -0.69172011
v 5.00000000 1.01363212 0.06314951
v 5.00000000 0.01135238 0.02312424
v 5.00000000 0.52022297 0.73310607
v 5.00000000 -3.47075438 0.73365396
v 5.00000000 -4.06179991 0.00000000
v 5.00000000 -2.99772323 0.00000000
v 5.00000000 -3.47075438 -0.73365396
v 5.00000000 -0.50000000 -0.63397460
v 5.00000000 -1.50000000 -0.63397460
v 5.00000000 -1.50000000 0.63397460
v 5.00000000 -0.49877169 0.66818458
v 5.00000000 2.47304814 -0.63946068
v 5.00000000 1.52831216 -0.65032063
v 5.00000000 -2.50000000 -0.63397460
v 5.00000000 -2.50000000 0.63397460
v 5.00000000 2.00022672 0.11922891
v 5.00000000 1.50207008 0.84263526
v 5.00000000 2.48742236 0.83642333
v 5.00000000 -4.26794919 0.76794919
v 5.00000000 -4.26794919 -0.76794919
v 5.00000000 4.27304074 0.77304074
v 5.00000000 4.27304074 -0.77304074
v 5.00000000 -1.00000000 0.00000000
v 5.00000000 -2.00000000 -0.00000000
f 1 2 3
f 4 1 3
f 3 2 5
f 6 4 3
f 7 8 9
f 10 11 12
f 13 14 15
f 16 12 17
f 9 8 18
f 12 19 17
f 20 21 22
f 23 4 6
f 21 24 22
f 12 11 25
f 14 26 15
f 11 10 18
f 16 27 28
f 5 2 26
f 29 30 31
f 32 33 34
f 35 36 37
f 35 37 38
f 39 36 35
f 27 40 28
f 37 36 13
f 5 41 42
f 43 35 38
f 44 16 45
f 32 34 19
f 43 38 10
f 43 46 35
f 39 29 36
f 36 29 31
f 16 28 12
f 44 27 16
f 40 46 43
f 46 39 35
f 40 43 28
f 24 47 45
f 47 44 45
f 13 36 31
f 48 47 24
f 1 49 2
f 43 10 28
f 50 6 3
f 51 52 41
f 33 53 20
f 54 55 7
f 55 56 8
f 56 57 11
f 34 33 20
f 7 55 8
f 41 5 14
f 56 11 8
f 26 2 58
f 2 49 58
f 54 7 58
f 51 41 59
f 37 13 15
f 49 54 58
f 60 51 59
f 38 37 9
f 3 5 42
f 8 11 18
f 61 62 21
f 63 61 64
f 53 63 64
f 50 3 42
f 65 48 66
f 62 65 66
f 41 52 42
f 57 32 25
f 30 67 68
f 32 19 25
f 38 9 18
f 67 60 68
f 13 31 69
f 28 10 12
f 31 30 68
f 19 12 25
f 31 59 69
f 5 26 14
f 45 16 17
f 24 45 22
f 34 20 22
f 19 34 17
f 10 38 18
f 26 58 70
f 17 34 22
f 20 53 64
f 9 37 15
f 14 13 69
f 48 24 66
f 45 17 22
f 59 31 68
f 52 50 42
f 21 20 64
f 58 7 70
f 59 41 69
f 11 57 25
f 15 26 70
f 60 59 68
f 24 21 66
f 61 21 64
f 21 62 66
f 7 9 70
f 41 14 69
f 9 15 70
f 71 72 73
f 74 71 73
f 75 76 77
f 72 78 79
f 77 76 80
f 81 82 83
f 83 84 81
f 85 78 72
f 85 72 71
f 78 81 79
f 86 87 88
f 79 89 72
f 75 77 90
f 88 87 91
f 86 88 92
f 91 77 85
f 85 80 78
f 73 93 74
f 94 95 96
f 97 94 96
f 95 98 96
f 95 99 98
f 100 94 97
f 97 96 101
f 99 74 98
f 98 102 96
f 103 83 104
f 99 71 74
f 99 91 71
f 91 87 77
f 55 86 92
f 54 86 55
f 49 90 54
f 105 73 106
f 55 92 56
f 90 86 54
f 98 107 102
f 91 85 71
f 1 75 49
f 49 75 90
f 108 109 110
f 111 79 112
f 4 113 1
f 72 89 73
f 101 102 114
f 104 115 116
f 113 75 1
f 115 76 113
f 102 107 109
f 56 117 57
f 96 102 101
f 84 118 81
f 95 88 99
f 105 93 73
f 103 84 83
f 83 115 104
f 92 117 56
f 109 93 110
f 81 118 79
f 94 119 95
f 32 120 100
f 79 118 112
f 73 89 106
f 84 121 118
f 78 82 81
f 57 120 32
f 110 93 105
f 111 89 79
f 114 122 123
f 116 124 23
f 80 82 78
f 125 121 126
f 99 88 91
f 85 77 80
f 123 122 108
f 23 124 4
f 117 119 94
f 127 121 125
f 115 128 76
f 126 84 103
f 112 118 127
f 102 122 114
f 115 124 116
f 113 76 75
f 80 128 82
f 76 128 80
f 109 122 102
f 113 124 115
f 100 120 94
f 106 89 111
f 95 119 88
f 90 87 86
f 109 107 93
f 74 107 98
f 117 120 57
f 108 122 109
f 4 124 113
f 94 120 117
f 83 128 115
f 92 119 117
f 93 107 74
f 88 119 92
f 77 87 90
f 126 121 84
f 118 121 127
f 82 128 83
f 112 127 129
f 112 129 130
f 125 131 127
f 127 131 129
f 132 133 134
f 110 105 134
f 129 135 130
f 136 137 135
f 137 138 139
f 111 139 140
f 135 137 139
f 106 111 140
f 105 132 134
f 138 141 140
f 131 142 129
f 132 105 143
f 139 111 130
f 144 136 145
f 142 144 145
f 111 112 130
f 141 132 143
f 139 138 140
f 140 141 143
f 105 106 143
f 136 135 145
f 133 110 134
f 135 139 130
f 129 142 145
f 135 129 145
f 106 140 143
f 146 123 108
f 110 133 108
f 133 146 108
f 147 148 149
f 150 151 152
f 153 148 147
f 152 154 150
f 149 155 147
f 156 148 153
f 157 158 156
f 159 151 160
f 156 158 148
f 161 162 163
f 159 164 151
f 161 163 165
f 152 151 166
f 167 168 169
f 169 170 167
f 171 154 152
f 172 173 174
f 175 173 172
f 176 171 177
f 178 171 152
f 160 179 159
f 180 181 182
f 155 183 147
f 178 152 184
f 185 170 186
f 187 179 160
f 169 158 157
f 182 188 180
f 177 171 178
f 178 170 185
f 186 170 169
f 189 190 174
f 174 190 191
f 192 184 166
f 167 184 192
f 178 184 170
f 170 184 167
f 193 173 175
f 194 160 150
f 168 158 169
f 184 152 166
f 189 174 195
f 196 197 198
f 199 200 201
f 202 193 161
f 196 200 197
f 187 160 194
f 123 188 114
f 194 150 203
f 180 188 123
f 153 147 204
f 186 169 157
f 177 178 185
f 205 206 207
f 208 206 205
f 209 165 210
f 189 195 211
f 212 189 168
f 114 213 101
f 201 200 196
f 195 202 149
f 213 214 101
f 215 199 201
f 101 214 97
f 33 205 53
f 195 149 211
f 189 211 168
f 210 163 216
f 202 161 155
f 138 175 141
f 146 217 123
f 133 218 146
f 132 191 133
f 217 219 220
f 212 190 189
f 221 162 222
f 202 155 149
f 219 212 192
f 212 168 167
f 174 173 195
f 202 173 193
f 149 148 211
f 160 151 150
f 136 221 137
f 175 222 193
f 212 167 192
f 219 192 220
f 191 190 218
f 191 218 133
f 146 218 217
f 97 208 100
f 223 180 123
f 192 166 220
f 224 207 215
f 217 218 219
f 217 223 123
f 217 220 223
f 198 179 187
f 191 172 174
f 203 154 225
f 165 163 210
f 218 190 219
f 223 159 180
f 209 226 165
f 211 158 168
f 183 227 147
f 219 190 212
f 175 172 141
f 132 172 191
f 214 208 97
f 215 207 199
f 222 162 193
f 228 229 176
f 225 229 228
f 147 227 204
f 148 158 211
f 197 179 198
f 141 172 132
f 150 154 203
f 138 222 175
f 100 230 32
f 63 231 224
f 32 230 33
f 53 231 63
f 221 222 137
f 216 232 144
f 233 234 235
f 236 234 233
f 176 229 171
f 226 237 165
f 166 164 220
f 195 173 202
f 151 164 166
f 163 232 216
f 221 232 163
f 144 232 136
f 235 226 209
f 223 164 159
f 137 222 138
f 165 237 161
f 155 237 183
f 226 234 183
f 183 237 226
f 193 162 161
f 200 182 197
f 199 238 200
f 154 229 225
f 182 181 197
f 200 238 182
f 163 162 221
f 213 238 214
f 238 206 214
f 182 238 213
f 208 230 100
f 224 231 207
f 199 206 238
f 220 164 223
f 114 188 213
f 161 237 155
f 159 181 180
f 234 227 183
f 33 230 205
f 205 231 53
f 204 227 236
f 205 230 208
f 179 181 159
f 207 231 205
f 171 229 154
f 207 206 199
f 214 206 208
f 136 232 221
f 197 181 179
f 235 234 226
f 213 188 182
f 236 227 234
f 239 240 241
f 242 240 239
f 239 241 243
f 244 245 246
f 244 246 247
f 240 242 248
f 249 250 248
f 241 251 243
f 50 52 248
f 242 249 248
f 250 249 252
f 253 246 254
f 250 50 248
f 253 254 255
f 52 240 248
f 256 257 258
f 259 256 258
f 245 244 260
f 216 144 261
f 262 263 264
f 103 265 266
f 254 264 267
f 103 104 265
f 268 269 245
f 245 269 270
f 270 271 264
f 271 262 264
f 249 265 252
f 272 273 251
f 210 216 274
f 262 275 263
f 276 259 277
f 257 209 278
f 269 271 270
f 263 275 277
f 210 274 278
f 265 104 252
f 275 276 277
f 209 210 278
f 235 209 257
f 276 279 259
f 245 270 246
f 216 261 274
f 6 50 250
f 261 254 267
f 242 280 249
f 52 51 240
f 281 280 242
f 281 239 244
f 268 245 260
f 281 242 239
f 282 280 281
f 142 131 283
f 144 142 284
f 282 285 280
f 282 284 285
f 251 273 260
f 144 284 253
f 253 284 282
f 284 142 283
f 270 264 254
f 240 51 241
f 51 60 241
f 285 284 283
f 266 265 286
f 246 253 247
f 104 116 252
f 287 288 256
f 126 103 266
f 281 244 247
f 125 126 289
f 285 283 266
f 233 235 290
f 279 291 292
f 288 233 290
f 291 287 292
f 116 23 293
f 253 282 247
f 67 272 294
f 249 280 286
f 265 249 286
f 23 6 293
f 60 67 294
f 273 268 260
f 267 263 295
f 131 125 289
f 264 263 267
f 246 270 254
f 274 267 295
f 285 266 286
f 274 261 267
f 282 281 247
f 251 260 243
f 261 144 255
f 272 251 294
f 277 259 258
f 257 278 258
f 263 277 295
f 278 274 295
f 295 277 258
f 278 295 258
f 266 283 289
f 250 252 293
f 235 257 290
f 259 279 292
f 6 250 293
f 252 116 293
f 244 239 243
f 251 241 294
f 283 131 289
f 126 266 289
f 280 285 286
f 256 259 292
f 257 256 290
f 287 256 292
f 256 288 290
f 241 60 294
f 144 253 255
f 260 244 243
f 254 261 255
f 296 297 298
f 299 300 301
f 302 303 304
f 305 306 307
f 296 298 308
f 300 299 309
f 303 302 310
f 297 296 311
f 312 313 314
f 315 316 317
f 306 305 318
f 319 320 313
f 321 322 306
f 313 312 323
f 317 316 324
f 325 326 311
f 319 313 327
f 322 321 302
f 301 300 328
f 326 325 329
f 313 330 314
f 305 307 331
f 332 333 334
f 335 336 309
f 337 300 309
f 338 322 302
f 304 303 328
f 333 332 339
f 338 302 304
f 327 313 323
f 309 336 340
f 320 319 341
f 321 306 318
f 304 342 343
f 338 304 343
f 342 344 343
f 345 346 347
f 39 348 349
f 40 350 351
f 44 352 346
f 275 353 354
f 271 355 356
f 268 357 358
f 359 299 301
f 360 361 362
f 363 355 358
f 345 350 346
f 352 307 347
f 346 352 347
f 351 364 365
f 366 367 368
f 343 344 369
f 337 370 300
f 371 367 372
f 373 366 368
f 374 375 369
f 375 343 369
f 363 358 376
f 372 366 374
f 375 366 373
f 377 326 378
f 379 380 381
f 379 381 297
f 382 383 344
f 382 384 385
f 322 373 386
f 384 370 337
f 30 29 332
f 39 46 348
f 40 27 350
f 44 47 352
f 279 276 387
f 275 262 353
f 271 269 355
f 268 273 357
f 388 389 305
f 390 391 321
f 392 393 303
f 359 394 299
f 395 396 397
f 360 398 361
f 399 400 319
f 367 345 368
f 372 377 378
f 401 374 369
f 377 401 379
f 379 401 380
f 380 383 402
f 344 383 369
f 402 382 385
f 386 373 368
f 370 342 300
f 386 368 347
f 320 403 330
f 348 46 351
f 350 27 346
f 353 262 356
f 355 269 358
f 303 393 301
f 387 403 317
f 364 367 371
f 364 371 365
f 368 345 347
f 372 367 366
f 371 372 378
f 372 374 377
f 374 366 375
f 377 374 401
f 380 401 383
f 326 379 297
f 402 383 382
f 375 373 338
f 297 381 298
f 338 373 322
f 370 344 342
f 322 386 306
f 363 376 325
f 364 350 345
f 348 351 365
f 376 357 333
f 364 345 367
f 377 379 326
f 383 401 369
f 375 338 343
f 382 344 370
f 382 370 384
f 332 29 349
f 387 276 354
f 299 394 335
f 397 396 362
f 296 355 363
f 380 402 312
f 29 39 349
f 46 40 351
f 27 44 346
f 276 275 354
f 262 271 356
f 269 268 358
f 393 359 301
f 394 404 335
f 396 360 362
f 387 354 403
f 381 380 312
f 307 386 347
f 330 403 405
f 403 354 405
f 317 403 320
f 356 355 296
f 351 350 364
f 358 357 376
f 371 378 406
f 306 386 307
f 320 330 313
f 349 348 407
f 407 348 365
f 354 353 405
f 365 371 406
f 407 365 406
f 405 308 408
f 307 352 331
f 333 357 334
f 409 395 336
f 47 48 331
f 273 272 334
f 376 333 410
f 308 298 408
f 361 411 412
f 296 363 311
f 319 327 411
f 302 321 310
f 405 353 308
f 356 296 308
f 300 342 328
f 402 385 323
f 395 397 336
f 352 47 331
f 357 273 334
f 298 381 314
f 390 321 318
f 319 400 341
f 305 389 318
f 325 376 410
f 407 406 410
f 392 303 310
f 399 319 411
f 321 391 310
f 361 398 411
f 326 297 311
f 387 317 324
f 67 30 413
f 272 67 413
f 48 65 414
f 65 388 414
f 291 279 324
f 316 291 324
f 404 415 416
f 415 409 416
f 332 349 339
f 378 326 329
f 323 385 412
f 410 333 339
f 363 325 311
f 299 335 309
f 411 327 412
f 342 304 328
f 303 301 328
f 353 356 308
f 312 402 323
f 407 410 339
f 325 410 329
f 410 406 329
f 315 317 341
f 381 312 314
f 327 323 412
f 385 384 417
f 397 362 418
f 389 390 318
f 400 315 341
f 317 320 341
f 362 361 417
f 384 337 418
f 417 384 418
f 362 417 418
f 398 399 411
f 391 392 310
f 336 397 340
f 409 336 416
f 331 48 414
f 334 272 413
f 30 332 413
f 279 387 324
f 388 305 414
f 335 404 416
f 298 314 408
f 330 405 408
f 406 378 329
f 349 407 339
f 336 335 416
f 332 334 413
f 305 331 414
f 385 417 412
f 417 361 412
f 337 309 340
f 397 418 340
f 418 337 340
f 314 330 408
f 419 420 421
f 420 422 421
f 423 424 425
f 424 426 425
f 186 427 428
f 399 429 430
f 156 431 432
f 360 433 434
f 427 157 432
f 185 186 428
f 288 287 424
f 429 398 434
f 435 400 430
f 436 437 420
f 156 153 431
f 431 153 438
f 186 157 427
f 177 185 439
f 360 396 433
f 433 396 440
f 399 398 429
f 315 400 435
f 153 204 438
f 157 156 432
f 439 185 428
f 396 395 440
f 398 360 434
f 400 399 430
f 176 177 422
f 316 315 426
f 204 236 423
f 395 409 419
f 315 435 426
f 438 204 423
f 440 395 419
f 177 439 422
f 236 233 441
f 233 288 441
f 228 176 442
f 437 228 442
f 287 291 443
f 291 316 443
f 409 415 444
f 415 436 444
f 445 433 446
f 428 427 445
f 434 445 447
f 429 434 447
f 430 429 448
f 434 433 445
f 432 431 448
f 431 438 449
f 445 427 447
f 439 428 446
f 432 448 447
f 435 430 449
f 448 429 447
f 433 440 446
f 448 431 449
f 427 432 447
f 428 445 446
f 430 448 449
f 176 422 442
f 423 236 441
f 419 409 444
f 316 426 443
f 449 438 425
f 435 449 425
f 439 446 421
f 446 440 421
f 424 287 443
f 420 437 442
f 288 424 441
f 436 420 444
f 440 419 421
f 426 435 425
f 438 423 425
f 422 439 421
f 420 419 444
f 424 423 441
f 422 420 442
f 426 424 443
f 450 451 452
f 451 450 453
f 454 455 456
f 455 457 456
f 458 459 460
f 459 461 460
f 393 462 463
f 187 464 465
f 389 451 466
f 391 467 454
f 457 198 465
f 462 392 454
f 468 359 463
f 437 436 459
f 187 194 464
f 464 194 469
f 196 198 457
f 224 215 450
f 389 388 451
f 391 390 467
f 467 390 466
f 393 392 462
f 394 359 468
f 467 466 470
f 194 203 469
f 198 187 465
f 390 389 466
f 392 391 454
f 359 393 463
f 404 394 461
f 203 225 458
f 394 468 461
f 469 203 458
f 62 61 452
f 454 467 455
f 466 451 453
f 196 457 471
f 450 215 472
f 225 228 473
f 228 437 473
f 415 404 474
f 436 415 474
f 63 224 475
f 388 65 476
f 61 63 475
f 65 62 476
f 457 455 471
f 453 450 472
f 467 470 455
f 470 466 453
f 471 470 472
f 462 454 456
f 463 462 477
f 465 464 477
f 464 469 478
f 465 477 456
f 468 463 478
f 477 462 456
f 477 464 478
f 457 465 456
f 463 477 478
f 201 196 471
f 215 201 472
f 201 471 472
f 404 461 474
f 458 225 473
f 468 478 460
f 478 469 460
f 224 450 475
f 451 388 476
f 459 436 474
f 437 459 473
f 461 468 460
f 469 458 460
f 459 458 473
f 461 459 474
f 452 451 476
f 450 452 475
f 62 452 476
f 452 61 475
f 455 470 471
f 470 453 472
