v 2.49813201 -2.89684599 -0.77992520
v 1.98852608 -2.82745268 -1.00275190
v 1.99699159 -2.97717191 -0.36938792
v 8.80000000 0.00000000 3.00000000
v 9.40000000 0.00000000 3.00000000
v 8.96814898 -0.60045724 2.93929432
v 1.54289714 -2.42705098 1.76335576
v 1.97810982 -2.01010895 2.22698496
v 2.09259474 -2.38517217 1.81960262
v 1.54576779 -0.98721632 2.83291439
v 2.20437508 -1.01492498 2.82310596
v 2.05376950 -1.48902792 2.60438013
v 1.43930151 -2.02168161 2.21648448
v 7.35595071 -1.39909223 2.65377861
v 7.32273071 -1.97108136 2.26160082
v 6.78306479 -1.74212032 2.44233839
v 1.51263882 -1.56676179 2.55837008
v 9.54345898 -0.48021607 2.96131601
v 6.76885578 -1.23196385 2.73537293
v 6.70797731 -0.54398511 2.95026782
v 7.21104472 -0.89142712 2.86449955
v 1.50355008 -2.93516538 -0.62032589
v 4.60000000 -0.00000000 -3.00000000
v 4.23631730 -0.48548799 -2.96045629
v 4.96720767 -0.48807785 -2.96003041
v 1.52912697 -1.98194346 -2.25208795
v 2.05696145 -2.16815481 -2.07342825
v 2.03322456 -1.70834392 -2.46608213
v 8.34289252 -2.08140786 -2.16049562
v 8.89633009 -2.26095471 -1.97182246
v 8.91492174 -1.77751234 -2.41670227
v 9.45118019 -2.01806267 -2.21977996
v 6.22998989 -0.96391284 2.84092802
v 3.70752013 -0.50513178 2.95716788
v 4.09859365 -1.03443377 2.81601612
v 3.40338270 -0.97252782 2.83799042
v 4.61150871 -0.90607311 -2.85990061
v 7.85867450 -1.74725534 2.43866742
v 2.53554013 -1.90273205 -2.31939879
v 8.32744590 -1.60997742 -2.53139738
v 8.87568696 -1.34272563 -2.68273888
v 8.28793413 -1.05692813 -2.80765078
v 3.70201137 -1.34683579 2.68067778
v 9.44669963 -2.75185170 -1.19470173
v 8.88755751 -2.87474469 -0.85781291
v 9.43283535 -2.94268429 -0.58361732
v 3.71745769 -0.51311460 -2.95579319
v 4.06211689 -1.04127563 -2.81349339
v 10.00000000 -2.85316955 -0.92705098
v 9.44709404 -2.44239143 -1.74204595
v 5.17136065 -1.05388792 -2.80879338
v 5.49138944 -0.50910363 -2.95648668
v 8.49658522 -0.50992839 -2.95634454
v 7.92545276 -0.50353417 -2.95744034
v 8.89222672 -2.62654799 -1.44956740
v 6.19844982 -1.09074078 -2.79468863
v 6.71037214 -0.85032300 -2.87696903
v 6.10000000 -0.51766302 -2.95500000
v 2.00559438 -2.98840807 0.26347148
v 2.50729535 -2.99597314 -0.15538651
v 2.54270876 -2.96234612 0.47382005
v 3.49038799 -0.95844725 -2.84277661
v 10.00000000 -2.98356569 0.31358539
v 10.00000000 -2.98356569 -0.31358539
v 9.43925302 -2.99987641 0.02723102
v 2.56991598 -2.54757222 1.58425875
v 2.57366103 -2.80957051 1.05181441
v 2.05091561 -2.66721771 1.37329883
v 7.69461115 -0.94455504 -2.84742266
v 8.37895434 -1.99808872 2.23777601
v 7.84039918 -2.21228615 2.02627490
v 5.73831270 -0.94195397 -2.84828417
v 1.50627503 -2.40960993 -1.78711498
v 1.47108838 -2.73424786 -1.23445884
v 2.02068654 -2.55507522 -1.57212933
v 1.90000000 -0.51766302 2.95500000
v 8.90151651 -2.84371954 0.95564594
v 8.37195022 -2.72921296 1.24555073
v 8.91091528 -2.58921149 1.51525043
v 7.92162543 -0.42020949 2.97042488
v 8.33936757 -0.93327648 2.85113925
v 7.67799824 -0.89561132 2.86319408
v 8.38478752 -1.49976384 2.59821255
v 9.45191795 -2.73748206 1.22727012
v 7.28600294 -0.54689171 -2.94973040
v 7.24819084 -1.11593402 -2.78472463
v 2.02947992 -2.87839272 0.84549117
v 6.78110857 -2.20744179 2.03155131
v 6.24335459 -2.40716925 1.79040113
v 6.24476501 -1.99192282 2.24326625
v 5.71464580 -2.20961894 2.02918312
v 5.71333364 -2.57535015 1.53869152
v 5.69423271 -1.41274540 -2.64653555
v 5.15225774 -1.63815796 -2.51325257
v 8.92166436 -1.23174444 2.73547174
v 6.70000000 -0.34801243 -2.97974619
v 4.61623892 -1.37619271 -2.66572572
v 4.62074165 -1.88595127 -2.33306404
v 9.45542829 -2.42385206 1.76775032
v 10.00000000 -2.59807621 1.50000000
v 10.00000000 -2.85316955 0.92705098
v 9.44277638 -2.93036201 0.64263403
v 10.00000000 -1.22020993 -2.74063637
v 10.00000000 -0.62373507 -2.93444280
v 9.41849190 -0.96349447 -2.84106994
v 5.18346072 -2.40175747 1.79765433
v 10.00000000 -2.22943448 2.00739182
v 8.91935103 -1.76096295 2.42878766
v 9.46514783 -1.51432141 2.58975494
v 9.45644700 -2.00438589 2.23213736
v 5.15290034 -2.11287852 -2.12972870
v 7.25918373 -1.62562551 -2.52137695
v 6.72713854 -1.36521101 -2.67136649
v 6.73669221 -1.87496432 -2.34190282
v 10.00000000 -1.76335576 -2.42705098
v 9.45636658 -1.50383128 -2.59586045
v 3.05550121 -1.13814605 -2.77572037
v 3.03406419 -1.64459181 -2.50904719
v 3.54573984 -1.42080549 -2.64221720
v 10.00000000 -1.76335576 2.42705098
v 1.51820650 -1.49029026 -2.60365799
v 9.48153841 -0.98300725 2.83437766
v 4.63007791 -2.65703486 -1.39289834
v 5.15792184 -2.49967094 -1.65880837
v 4.62534770 -2.31987886 -1.90214670
v 8.36208235 -2.92524417 0.66554230
v 1.00000000 -1.22020993 -2.74063637
v 1.55502175 -0.96632527 -2.84010835
v 1.00000000 -2.22943448 -2.00739182
v 5.18122756 -2.71684837 1.27229515
v 1.53108325 -2.93573020 0.61764729
v 1.53201624 -2.74671562 1.20646314
v 7.27030332 -2.09909790 -2.14331240
v 10.00000000 -1.22020993 2.74063637
v 10.00000000 -0.62373507 2.93444280
v 1.00000000 -2.85316955 0.92705098
v 4.09839877 -2.50298697 -1.65380055
v 1.00000000 -2.59807621 1.50000000
v 8.91576305 -2.22330496 2.01417850
v 1.00000000 -2.98356569 -0.31358539
v 1.54289714 -3.00000000 -0.00000000
v 1.00000000 -0.62373507 -2.93444280
v 4.13117114 -1.98031013 2.25352431
v 3.62331129 -1.77514071 2.41844484
v 4.14565562 -1.51469619 2.58953576
v 1.00000000 -1.76335576 2.42705098
v 1.00000000 -1.22020993 2.74063637
v 1.00000000 -1.76335576 -2.42705098
v 5.68425820 -2.31522474 -1.90780880
v 5.67993306 -1.88207091 -2.33619543
v 7.79816175 -1.86538293 -2.34954177
v 2.49961275 -1.38036359 -2.66356835
v 10.00000000 -2.22943448 -2.00739182
v 3.56388824 -1.89029308 -2.32954761
v 5.72281430 -1.23181766 2.73543877
v 5.74988148 -0.67586263 2.92287696
v 4.09387147 -2.11530556 -2.12731813
v 4.09049090 -1.64149509 -2.51107425
v 7.90036086 -1.30094398 2.70324708
v 8.37649023 -2.41571073 1.77885966
v 1.00000000 -2.59807621 -1.50000000
v 4.65707804 -2.20286962 2.03650815
v 4.66210849 -1.74559428 2.43985668
v 7.31035113 -2.41102475 1.78520577
v 7.77167819 -1.39536403 -2.65574081
v 6.20452143 -1.63181107 -2.51737813
v 6.21043472 -2.10645121 -2.13608598
v 3.56627431 -2.32344484 -1.89778926
v 4.65295988 -2.57018486 1.54730404
v 4.12582990 -2.39631026 1.80490918
v 1.00000000 -2.98356569 0.31358539
v 5.19704589 -1.50357837 2.59600695
v 4.64334485 -1.28816250 2.70936106
v 1.00000000 -2.22943448 2.00739182
v 7.83912455 -2.58247673 1.52670034
v 5.18640074 -1.98721478 2.24743797
v 4.64876493 -2.83120693 0.99210248
v 4.12027264 -2.71302960 1.28041805
v 5.16269988 -2.78424403 -1.11713258
v 5.71153639 -2.83458475 0.98240994
v 5.17762868 -2.91890548 0.69281368
v 1.00000000 -2.85316955 -0.92705098
v 10.00000000 -2.59807621 -1.50000000
v 4.63484354 -2.88481485 -0.82331239
v 5.16765649 -2.95315511 -0.52808609
v 7.30568157 -2.72423130 1.25640911
v 6.77720600 -2.57997250 1.53092845
v 5.71565277 -1.75288539 2.43462375
v 6.24254621 -1.50015438 2.59798707
v 6.77236742 -2.83728392 0.97458708
v 2.53463827 -2.67772007 -1.35270663
v 2.55914668 -2.34027934 -1.87699030
v 5.17282624 -2.99882709 0.08388127
v 5.70631583 -2.97511058 0.38563849
v 5.69988105 -2.99133770 -0.22781299
v 7.80365487 -2.30390923 -1.92145837
v 4.63914137 -2.99196575 -0.21941052
v 5.68899693 -2.65406150 -1.39855552
v 6.24442247 -2.72125569 1.26284103
v 4.11568602 -2.91684303 0.70144617
v 6.21554993 -2.49558912 -1.66494292
v 3.59959360 -2.19656420 2.04330754
v 6.23265566 -2.99906975 0.07470350
v 6.74227874 -2.31023666 -1.91384602
v 6.23940386 -2.92105202 0.68370688
v 3.04209462 -2.12058781 -2.12205263
v 7.27522820 -2.49069899 -1.67224954
v 4.10276576 -2.78700675 -1.11022223
v 7.28047769 -2.77883121 -1.13052956
v 6.74729592 -2.65073520 -1.40484977
v 6.75183153 -2.88085558 -0.83706100
v 6.76571747 -2.97616579 0.37740853
v 3.57382049 -2.88732376 -0.81447008
v 3.04299102 -2.95633835 -0.50996430
v 3.57846548 -2.99274887 -0.20845677
v 3.56974518 -2.66070014 -1.38588411
v 4.64430713 -2.97392762 0.39465744
v 6.22035425 -2.78152464 -1.12388641
v 3.07748831 -1.98051467 2.25334454
v 2.54231367 -1.77434692 2.41902728
v 3.09730939 -1.48317065 2.60772023
v 7.30028221 -2.92304240 0.67514673
v 6.22560953 -2.95166558 -0.53634908
v 7.28646148 -2.95066863 -0.54180680
v 6.75876663 -2.99077163 -0.23512770
v 5.69364032 -2.88257559 -0.83111850
v 2.54443285 -2.19185756 2.04835554
v 4.60000000 0.00000000 3.00000000
v 5.20000000 0.00000000 3.00000000
v 4.89558806 -0.46756231 2.96334026
v 3.58724750 -2.82801282 1.00117107
v 7.83460859 -2.84036043 0.96558409
v 6.40000000 -0.00000000 -3.00000000
v 5.80000000 -0.00000000 -3.00000000
v 7.29326043 -2.99922716 0.06809157
v 3.03915043 -2.78990197 -1.10292656
v 7.81519885 -2.87872904 -0.84434536
v 7.82119358 -2.99033428 -0.24062609
v 4.10725125 -2.95469445 -0.51940418
v 8.35187894 -2.94944451 -0.54843149
v 8.35503445 -2.99940983 0.05950347
v 6.40000000 0.00000000 3.00000000
v 7.00000000 0.00000000 3.00000000
v 5.20000000 -0.00000000 -3.00000000
v 3.04812729 -2.99799589 0.10963870
v 3.40000000 0.00000000 3.00000000
v 4.00000000 0.00000000 3.00000000
v 3.04748164 -2.50887310 -1.64485737
v 7.60000000 -0.00000000 -3.00000000
v 7.00000000 -0.00000000 -3.00000000
v 8.89016092 -2.98982992 -0.24681380
v 2.80000000 0.00000000 3.00000000
v 3.10016210 -0.51857644 2.95483984
v 4.00000000 -0.00000000 -3.00000000
v 3.40000000 -0.00000000 -3.00000000
v 8.88742926 -2.97918170 0.35281215
v 7.60000000 0.00000000 3.00000000
v 8.20000000 0.00000000 3.00000000
v 3.59390151 -2.56546930 1.55511005
v 3.06726077 -2.39260699 1.80981540
v 4.11233938 -2.99856624 0.09273893
v 3.58230214 -2.97249751 0.40528826
v 8.20000000 -0.00000000 -3.00000000
v 2.20000000 0.00000000 3.00000000
v 2.49971015 -0.51936065 2.95470210
v 8.34161384 -2.48330908 -1.68320409
v 2.80000000 -0.00000000 -3.00000000
v 3.08327793 -0.62642785 -2.93386914
v 7.80989505 -2.64642737 -1.41294805
v 8.34625158 -2.77485768 -1.14024771
v 1.60000000 0.00000000 3.00000000
v 8.80000000 -0.00000000 -3.00000000
v 2.20000000 -0.00000000 -3.00000000
v 2.48303799 -0.50332092 -2.95747664
v 3.06890253 -2.70800204 1.29101702
v 5.80000000 0.00000000 3.00000000
v 6.19007401 -0.45740197 2.96492554
v 3.06759559 -2.91185684 0.72186548
v 7.82766469 -2.97709375 0.37001732
v 2.81160348 -0.96769519 2.83964188
v 5.33205721 -0.43129593 2.96883543
v 1.00000000 -0.62373507 2.93444280
v 5.18014839 -0.93925317 2.84917593
v 9.40000000 -0.00000000 -3.00000000
v 9.08497560 -0.43833370 -2.96780450
v 1.60000000 -0.00000000 -3.00000000
v 1.92248513 -0.50482527 -2.95722022
v 4.57237558 -0.80964560 2.88868032
v 7.30998745 -0.40945178 2.97192686
v 2.18513388 -0.91530426 -2.85695959
v 10.00000000 0.00000000 3.00000000
v 4.30000000 -0.43680248 2.96803026
v 8.44631568 -0.44437493 2.96690595
v 8.80736487 -0.85870503 -2.87447833
v 1.00000000 -0.00000000 -3.00000000
v 1.44946294 -0.45209815 -2.96573891
v 10.00000000 -0.00000000 -3.00000000
v 9.55114917 -0.44502053 -2.96680918
v 1.00000000 0.00000000 3.00000000
v 1.43628132 -0.44781748 2.96638829
v 2.50500413 -1.33649196 2.68584982
v 2.62570631 -0.93423282 -2.85082603
v 1.92840882 -1.29627940 -2.70548696
v 0.00000000 -3.80422607 -1.23606798
v 0.80977987 -3.57845858 -1.78735397
v 0.72386285 -3.91259040 -0.83164676
v 9.21611917 -3.90154518 0.88201201
v 8.63772648 -3.64118890 1.65582107
v 8.34263709 -3.88606925 0.94787437
v 1.66700530 -3.87761878 0.98187199
v 1.35336643 -3.64713525 1.64268209
v 0.80776829 -3.89806054 0.89728705
v 8.42950633 1.75026759 3.59674344
v 9.25609024 1.28620505 3.78756869
v 9.26987751 2.02979324 3.44672880
v 9.36226948 -3.65057794 1.63501703
v 0.68836249 -3.64292910 1.65198898
v 0.76197602 -1.15941761 3.82828301
v 1.65791049 -1.00722415 3.87111089
v 1.22851125 -0.32036728 3.98714996
v 8.59278385 1.09628694 3.84683701
v 9.23775719 -3.62254401 -1.69622371
v 8.33844030 -3.54956893 -1.84406084
v 8.76674050 -3.18218325 -2.42357376
v 1.56533951 3.77214607 1.33075694
v 0.74200218 3.90382779 0.87185353
v 0.72767258 3.64368151 1.65032878
v 9.24521881 3.90390830 -0.87149295
v 9.29750375 3.64701803 -1.64294232
v 8.43062143 3.76922098 -1.33901948
v 0.72696364 3.64520387 -1.64696349
v 0.74158290 3.90486459 -0.86719810
v 1.56614404 3.77717008 -1.31642932
v 9.27420674 -1.24413248 3.80159629
v 9.25157238 -0.45335806 3.97422527
v 8.43331717 -0.89223085 3.89922096
v 2.07201709 -1.65153482 3.64313501
v 1.48527212 -2.30287321 3.27059245
v 2.46779424 -2.28877638 3.28047293
v 7.92357456 -3.81617632 -1.19866521
v 8.51408927 -3.97212886 -0.47137283
v 7.52872588 -3.97063257 -0.48381503
v 9.26793747 -2.66171250 2.98584771
v 9.27613715 -2.00000000 3.46410162
v 8.43327142 -2.31567337 3.26154209
v 0.55757393 -0.41811385 3.97808758
v 1.56243315 -3.97359404 -0.45885768
v 0.72386285 -4.00000000 -0.00000000
v 8.43502611 2.98133383 2.66676744
v 9.27422922 2.68985353 2.96052158
v 9.27613715 3.23606798 2.35114101
v 8.75897381 3.92382124 0.77693427
v 8.33818650 3.73412740 1.43397787
v 9.23946344 3.67681145 1.57513733
v 1.39889239 3.94749737 0.64596015
v 9.44110456 -3.23606798 -2.35114101
v 2.46687752 2.99855115 -2.64739325
v 1.48271015 2.99444628 -2.65203535
v 2.07108190 3.42847530 -2.06047497
v 8.57222090 3.94750175 -0.64593341
v 8.44353201 2.95300337 -2.69810509
v 9.32013451 3.19478694 -2.40693506
v 9.28346462 2.65917709 -2.98810595
v 2.07115366 3.41815464 2.07755116
v 1.48352420 2.98303258 2.66486709
v 2.46728299 2.98605838 2.66147616
v 0.00000000 2.35114101 3.23606798
v 0.80584169 1.91117489 3.51388824
v 0.72386285 2.67652243 2.97257930
v 1.37769901 -3.81500525 -1.20238720
v 1.39742302 3.95011535 -0.62975288
v 2.07131047 2.45911287 3.15480013
v 2.07155499 2.47591251 -3.14163290
v 7.92485641 -3.99328591 0.23166273
v 0.00000000 -3.46410162 -2.00000000
v 8.57586978 -0.20965375 3.99450188
v 2.07252511 -2.84660405 2.81013263
v 6.24823592 1.20406299 -3.81447668
v 6.25000000 0.53930544 -3.96347696
v 5.41666667 0.53941099 -3.96346260
v 5.41397394 1.20424172 -3.81442025
v 9.44580323 3.91259040 0.83164676
v 0.00000000 -0.83164676 -3.91259040
v 0.77305806 -1.30192776 -3.78219303
v 0.00000000 -1.62694657 -3.65418183
v 10.00000000 -1.62694657 -3.65418183
v 9.22756944 -1.30235732 -3.78204514
v 10.00000000 -0.83164676 -3.91259040
v 8.59309151 -2.85683256 2.79973351
v 1.40319915 -3.99001861 0.28240301
v 8.60978540 2.44852381 -3.16302563
v 0.00000000 1.62694657 3.65418183
v 8.67792900 3.41250327 -2.08682089
v 10.00000000 3.46410162 -2.00000000
v 8.64308767 2.40671104 3.19495571
v 0.71348842 0.43920870 3.97581384
v 1.64237515 0.46834728 3.97248673
v 1.23533323 1.18016071 3.82193939
v 0.71967517 -2.66027495 -2.98712859
v 1.24081654 -2.06128827 -3.42798638
v 1.64668090 -2.64723282 -2.99869278
v 8.35265839 -2.64850213 -2.99757176
v 8.75860647 -2.06298443 -3.42696589
v 9.28470370 -2.66482304 -2.98307194
v 8.31894588 -3.29585143 2.26657525
v 9.21693608 -3.24102524 2.34430275
v 0.79905679 -3.25392271 2.32636777
v 1.67724633 -3.29661366 2.26546648
v 0.63381498 -0.63087133 -3.94993688
v 1.33274127 -1.62694657 3.65418183
v 10.00000000 3.97808758 -0.41811385
v 9.17603941 3.99999246 0.00776587
v 10.00000000 3.97808758 0.41811385
v 9.37812229 -0.62023079 -3.95162166
v 8.66453743 -3.80422368 -1.23607530
v 8.63143185 3.43335437 2.05233471
v 1.35335214 2.40466025 3.19649950
v 9.19938536 0.43547035 3.97622504
v 8.31025292 0.47128945 3.97213875
v 9.21109341 1.97261623 -3.47976798
v 8.64844321 1.34318426 -3.76773885
v 8.31627678 1.91168930 -3.51360841
v 1.23931995 -3.14236064 -2.47498881
v 1.67449559 1.91259097 -3.51311767
v 1.34957771 1.34126752 -3.76842161
v 0.78719568 1.98001302 -3.47556448
v 1.33712062 3.45850214 -2.00966738
v 8.66514634 -1.62694657 3.65418183
v 2.07170227 1.20280612 -3.81487319
v 2.90704590 1.37641197 -3.75572764
v 2.91666667 0.71874528 -3.93489583
v 2.08333333 0.53862867 -3.96356899
v 3.74377825 1.20306736 -3.81479081
v 4.57901233 1.37681949 -3.75557826
v 4.58333333 0.71874528 -3.93489583
v 3.75000000 0.53874125 -3.96355369
v 0.79970333 3.99999885 0.00303430
v 1.65325548 3.99998797 0.00981219
v 7.08300529 1.37659871 -3.75565920
v 7.08333333 0.71874528 -3.93489583
v 7.91482579 1.19310974 -3.81791686
v 7.91666667 0.53879790 -3.96354599
v 8.75000000 0.71874528 -3.93489583
v 1.34231106 3.44998460 2.02425449
v 1.25000000 0.71874528 -3.93489583
v 8.63301797 -3.98829280 0.30581127
v 1.36769261 -2.88954585 2.76595820
v 1.36664988 2.44952800 -3.16224803
v 0.54760336 1.23606798 3.80422607
v 0.55130894 -2.00000000 -3.46410162
v 9.44825529 -2.00000000 -3.46410162
v 9.31564409 1.23504784 -3.80455738
v 0.68382891 1.23856891 -3.80341255
v 4.57616338 2.49279013 -3.12825788
v 4.15068459 1.92874286 -3.50427610
v 3.74204034 2.47587555 -3.14166202
v 4.58240501 -2.06418228 -3.42624452
v 4.16470814 -2.64705486 -2.99884987
v 3.74694867 -2.06388373 -3.42642437
v 3.32863785 -2.64615664 -2.99964248
v 4.15949502 3.00147269 -2.64408050
v 4.57810303 3.42874758 -2.06002185
v 4.99573802 3.00154890 -2.64399398
v 7.08707680 -2.06367386 -3.42655077
v 6.66939837 -2.64736750 -2.99857388
v 6.25128822 -2.06431885 -3.42616224
v 2.90661258 2.47595344 -3.14160064
v 3.33570591 1.92951613 -3.50385038
v 2.47643861 1.91734241 -3.51052675
v 6.66700234 -1.41426708 -3.74163716
v 3.74664609 -3.14371345 -2.47327026
v 7.50550411 -2.64674969 -2.99911921
v 5.00921476 1.91859805 -3.50984067
v 2.91070998 -3.14304954 -2.47411391
v 3.74251903 3.42878647 -2.05995712
v 2.90649468 3.42927307 -2.05914697
v 3.32427438 3.00119969 -2.64439036
v 7.08787297 -3.14395749 -2.47296003
v 7.08378809 3.93622301 -0.71144111
v 6.24937955 3.93612586 -0.71197836
v 6.66809952 3.99999006 0.00891844
v 2.90694957 3.93625086 -0.71128698
v 3.74296298 3.93626790 -0.71119270
v 3.32480415 3.74410647 -1.40771685
v 4.16048982 3.74373690 -1.40869942
v 3.32817352 -3.53763432 -1.86685389
v 5.83445798 -2.64729451 -2.99863832
v 6.25257663 -3.14406469 -2.47282373
v 5.41708680 -3.14388238 -2.47305551
v 5.41777494 2.48897841 -3.13129151
v 10.00000000 2.35114101 -3.23606798
v 4.99931749 -3.53780568 -1.86652912
v 4.16366573 -3.53777737 -1.86658277
v 4.58205117 -3.14371966 -2.47326236
v 4.16610566 -1.41396165 -3.74175259
v 0.71380413 3.23388375 -2.35414441
v 0.71446414 2.68286592 -2.96685532
v 5.82991148 1.87594522 -3.53282175
v 6.24837450 2.47658438 -3.14110328
v 0.00000000 2.97257930 -2.67652243
v 5.83215659 3.99998937 0.00922046
v 5.83093531 3.00169479 -2.64382836
v 2.49308028 -2.64568922 -3.00005476
v 2.91186784 -2.06300890 -3.42695117
v 7.08711595 2.46063966 3.15360943
v 6.66912118 2.98830362 2.65895496
v 6.25094210 2.45993423 3.15415973
v 6.65290539 1.91802155 -3.51015574
v 5.83295739 2.98795426 2.65934754
v 7.92342783 -2.06208148 -3.42750929
v 3.32489517 3.99998824 0.00970095
v 5.41674014 -3.99329161 0.23156444
v 6.25271459 -3.99328354 0.23170362
v 5.83454592 -3.88616486 0.94748229
v 0.00000000 2.35114101 -3.23606798
v 7.08331974 2.47644432 -3.14121371
v 5.41344437 3.42875113 -2.06001595
v 10.00000000 1.62694657 -3.65418183
v 5.41437145 3.93281895 0.73002403
v 4.99630018 3.99998877 0.00947771
v 2.07713743 -2.06246808 -3.42727668
v 10.00000000 2.97257930 -2.67652243
v 0.00000000 -2.35114101 -3.23606798
v 0.00000000 -2.97257930 -2.67652243
v 4.16109181 1.85032472 3.54630772
v 3.32516734 1.85036524 3.54628658
v 3.74327921 1.18046659 3.82184493
v 2.07500912 -3.14267583 -2.47458857
v 7.51029197 1.92282965 -3.50752422
v 6.25152001 -0.25143976 3.99208943
v 6.66973503 0.47267366 3.97197427
v 5.83355658 0.47240942 3.97200571
v 6.67057770 -3.88615967 0.94750359
v 6.66602243 3.00156785 -2.64397247
v 6.25025992 3.93284480 0.72988478
v 9.28577440 -3.99998375 -0.01140123
v 9.27619075 -3.91257089 -0.83173854
v 10.00000000 -2.97257930 -2.67652243
v 10.00000000 -2.35114101 -3.23606798
v 6.25188309 -1.65106123 3.64334967
v 6.67000382 -0.96735661 3.88126541
v 5.83381786 -0.96702875 3.88134711
v 7.91818563 1.16609904 3.82625313
v 7.50559296 0.47311043 3.97192227
v 6.66923091 1.85100800 3.54595113
v 7.92342235 -3.14355580 -2.47347063
v 0.00000000 3.46410162 -2.00000000
v 4.57832296 3.93625721 -0.71125186
v 4.16061707 3.99998841 0.00962745
v 0.00000000 3.97808758 -0.41811385
v 10.00000000 -3.97808758 -0.41811385
v 5.41380766 3.93621235 -0.71150007
v 2.48943004 3.74518679 -1.40484017
v 2.49248536 -3.53717499 -1.86772404
v 7.50512712 1.85117942 3.54586164
v 5.83251106 3.73687493 1.42680262
v 4.99656913 3.73681961 1.42694751
v 0.00000000 1.62694657 -3.65418183
v 5.83458701 -3.96965983 -0.49173245
v 4.57857724 3.93279164 0.73017116
v 3.74295162 2.45944175 3.15454375
v 6.24861699 3.42865451 -2.06017676
v 5.83122461 3.74365858 -1.40890753
v 4.99589897 3.74371964 -1.40874527
v 7.50658490 -3.88612063 0.94766367
v 7.08858741 -3.99328021 0.23176105
v 6.25245734 -3.65173598 1.63242898
v 5.41468790 3.41839905 2.07714899
v 4.57872000 3.41840164 2.07714472
v 4.57892637 2.45943382 3.15454994
v 0.00000000 3.80422607 -1.23606798
v 10.00000000 -3.80422607 -1.23606798
v 10.00000000 -3.46410162 -2.00000000
v 4.58028140 -2.83587051 2.82096410
v 3.74411654 -2.83596694 2.82086716
v 4.16261891 -3.29793256 2.26354607
v 10.00000000 -3.97808758 0.41811385
v 6.25056500 3.41849681 2.07698811
v 2.49163461 -3.30057621 2.25968951
v 3.32685098 -3.29822770 2.26311600
v 2.90843190 -2.83616476 2.82066827
v 2.91004903 -3.81586569 -1.19965373
v 3.74568129 -3.81604119 -1.19909535
v 6.67021489 -3.53786708 -1.86641274
v 7.50571212 -3.53773487 -1.86666333
v 7.08820305 -1.65174060 3.64304172
v 6.67010072 -2.28120376 3.28574336
v 4.16290321 -3.88624585 0.94715002
v 3.32700403 -3.88624118 0.94716921
v 3.74538611 -3.99330596 0.23131686
v 6.25223662 -2.83558962 2.82124645
v 5.83409458 -2.28062641 3.28614412
v 7.90608312 3.93768040 -0.70332996
v 7.50394672 3.99999099 0.00849081
v 2.48908946 3.99998809 0.00976181
v 0.00000000 3.97808758 0.41811385
v 2.08653290 3.93790160 -0.70209044
v 7.08767576 -0.25107083 3.99211265
v 0.00000000 3.80422607 1.23606798
v 3.74372820 -1.65122235 3.64327665
v 4.16197859 -0.96733473 3.88127087
v 3.32603534 -0.96768688 3.88118308
v 8.33991211 3.99999170 0.00815035
v 7.92215947 3.93296830 0.72921902
v 7.08614866 3.93290923 0.72953750
v 3.32385194 -2.28199609 3.28519312
v 4.99690298 2.98785415 2.65946002
v 4.57925845 1.18031367 3.82189215
v 4.16168551 0.47200977 3.97205322
v 2.90809778 -1.65148927 3.64315566
v 7.08846154 -3.65168323 1.63254697
v 10.00000000 -3.80422607 1.23606798
v 4.57959738 -0.25181364 3.99206587
v 3.74366083 -0.25194534 3.99205756
v 0.71400945 -2.66735685 2.98080651
v 0.72434170 -1.98769474 3.47117698
v 0.00000000 -3.46410162 2.00000000
v 3.32292411 2.98771590 2.65961533
v 4.16116162 2.98793979 2.65936379
v 3.74269491 3.41846862 2.07703449
v 2.48997392 -0.96756989 3.88121225
v 2.90784941 -0.25192718 3.99205870
v 0.00000000 -2.97257930 2.67652243
v 0.71673094 3.23020780 2.35918579
v 2.48973977 0.47202169 3.97205180
v 3.32577575 0.47185162 3.97207201
v 7.90613489 2.47050303 -3.14588855
v 2.90761127 1.18059892 3.82180405
v 0.00000000 -3.80422607 1.23606798
v 7.08759490 1.18124758 3.82160361
v 10.00000000 3.46410162 2.00000000
v 10.00000000 2.97257930 2.67652243
v 7.92408093 -1.65026939 3.64370841
v 7.50577975 -2.28339165 3.28422328
v 10.00000000 2.35114101 3.23606798
v 7.92378965 -0.25063117 3.99214028
v 7.50581967 -0.96688938 3.88138183
v 2.07152465 1.18030477 3.82189490
v 2.48944112 1.85011378 3.54641777
v 4.57995081 -1.65127545 3.64325258
v 4.16243455 -2.28111241 3.28580677
v 10.00000000 -2.35114101 3.23606798
v 10.00000000 -1.62694657 3.65418183
v 10.00000000 3.80422607 -1.23606798
v 10.00000000 -3.46410162 2.00000000
v 0.00000000 3.46410162 2.00000000
v 0.00000000 2.97257930 2.67652243
v 0.00000000 -3.97808758 -0.41811385
v 0.00000000 -2.35114101 3.23606798
v 10.00000000 0.83164676 3.91259040
v 10.00000000 -0.00000000 4.00000000
v 10.00000000 -0.83164676 3.91259040
v 0.00000000 -1.62694657 3.65418183
v 0.00000000 -0.83164676 3.91259040
v 0.00000000 -0.00000000 4.00000000
v 0.00000000 0.83164676 3.91259040
v 10.00000000 -2.97257930 2.67652243
v 0.00000000 -3.97808758 0.41811385
v 10.00000000 1.62694657 3.65418183
v 10.00000000 3.80422607 1.23606798
v 2.07175851 -0.25199663 3.99205432
v 5.83322210 1.85044737 3.54624372
v 5.41498915 2.45937711 3.15459415
v 4.99711794 1.85023480 3.54635463
v 7.50455547 2.99034822 2.65665533
v 7.92311525 2.45999420 3.15411296
v 5.41534528 1.18072469 3.82176520
v 1.65332269 1.84996377 3.54649603
v 4.99742886 0.47226881 3.97202243
v 2.90747088 2.45921809 3.15471812
v 5.41560780 -0.25152281 3.99208420
v 4.99774389 -0.96714199 3.88131890
v 5.41590608 -1.65097849 3.64338716
v 4.16078455 3.73679423 1.42701398
v 2.90715795 3.41823058 2.07742623
v 4.99810966 -2.28080775 3.28601826
v 3.74284075 3.93277139 0.73028022
v 7.90636724 -3.64515663 1.64706804
v 5.41622686 -2.83569013 2.82114542
v 2.90953157 -3.99331594 0.23114461
v 5.41648836 -3.65178489 1.63231955
v 5.83435455 -3.29771498 2.26386305
v 7.91080397 -2.84100938 2.81578865
v 7.08823506 -2.83540832 2.82142865
v 7.50638415 -3.29753423 2.26412633
v 6.67036097 -3.29762187 2.26399868
v 7.91176706 3.42215194 2.07096019
v 4.99842249 -3.29782381 2.26370451
v 2.07417698 -3.81576516 -1.19997342
v 2.48913231 3.73667892 1.42731588
v 4.99868343 -3.88619626 0.94735348
v 4.58063331 -3.65186118 1.63214887
v 2.90705479 3.93274421 0.73042655
v 6.25140953 1.18083810 3.82173016
v 3.32766983 -3.96959668 -0.49224204
v 7.08660431 3.41863240 2.07676491
v 6.66840956 3.73695620 1.42658978
v 4.99899640 -3.96965213 -0.49179463
v 4.58103220 -3.99330015 0.23141720
v 7.50439464 3.73703950 1.42637155
v 1.65683921 -3.53698504 -1.86808372
v 3.74479043 -3.65189977 1.63206252
v 2.49141317 -3.88626343 0.94707788
v 2.08699692 -3.99285723 0.23893756
v 7.08793583 -3.81618485 -1.19863807
v 2.49186757 -3.96956782 -0.49247469
v 5.83458163 -3.53778657 -1.86656535
v 6.25232645 -3.81615032 -1.19874800
v 4.16340303 -3.96962607 -0.49200496
v 4.58146273 -3.81606432 -1.19902173
v 7.50173290 3.74528039 -1.40459062
v 6.66651651 3.74340753 -1.40957442
v 7.50109484 3.00147014 -2.64408340
v 6.67019817 -3.96966127 -0.49172084
v 3.32506445 3.73673239 1.42717589
v 5.41687830 -3.81612659 -1.19882352
v 2.07552672 3.93521807 0.71697891
v 4.99967874 -2.64720975 -2.99871315
v 2.09457833 -3.64268401 1.65252934
v 4.16666667 0.00000000 -4.00000000
v 5.00000000 0.00000000 -4.00000000
v 5.83333333 0.00000000 -4.00000000
v 5.41675567 -0.71880740 -3.93488449
v 7.93244528 3.42690260 -2.06308957
v 2.90947437 -3.65256645 1.63056995
v 3.75003852 -0.71870335 -3.93490349
v 3.33333333 0.00000000 -4.00000000
v 5.41695971 -2.06434902 -3.42614406
v 4.99998719 -1.41445630 -3.74156563
v 6.66666667 0.00000000 -4.00000000
v 7.50000000 0.00000000 -4.00000000
v 2.91668843 -0.71841995 -3.93495524
v 2.50000000 0.00000000 -4.00000000
v 4.58346891 -0.71875759 -3.93489359
v 5.83372210 -1.41437205 -3.74159748
v 7.08334675 -0.71860258 -3.93492190
v 7.08501241 3.42830545 -2.06075757
v 6.25009866 -0.71872900 -3.93489881
v 2.08552071 -0.71635429 -3.93533182
v 1.66666667 0.00000000 -4.00000000
v 8.33326761 -1.40530142 -3.74501374
v 8.33333333 0.00000000 -4.00000000
v 7.91461493 -0.71688833 -3.93523457
v 9.16666667 0.00000000 -4.00000000
v 1.27010650 -0.70634044 -3.93714150
v 0.83333333 0.00000000 -4.00000000
v 8.72997231 -0.70599062 -3.93720424
v 7.50021220 -1.41347061 -3.74193811
v 2.49913045 -1.41254177 -3.74228884
v 3.33269828 -1.41385979 -3.74179108
v 1.66710961 -1.40490940 -3.74516082
v 0.00000000 0.83164676 -3.91259040
v 10.00000000 0.83164676 -3.91259040
v 10.00000000 -0.00000000 -4.00000000
v 9.39040874 0.60858324 -3.95343224
v 0.00000000 -0.00000000 -4.00000000
v 0.60959126 0.60858324 -3.95343224
v 0.57119060 -3.20123626 -2.39835077
v 10.00000000 0.62373507 2.93444280
v 10.00000000 1.07574470 3.30786850
v 10.00000000 0.36403686 3.46357933
v 10.00000000 -2.81354650 2.04528159
v 10.00000000 -3.18156612 1.41652450
v 10.00000000 -1.07356487 -3.30409291
v 10.00000000 -0.36403686 -3.46357933
v 10.00000000 -2.81354650 -2.04528159
v 10.00000000 -2.32417183 -2.58156980
v 10.00000000 -3.39821083 -0.72231201
v 10.00000000 -3.18156612 -1.41652450
v 10.00000000 -3.39821083 0.72231201
v 10.00000000 -3.48265770 -0.00000000
v 10.00000000 -1.73793532 3.01249997
v 10.00000000 -2.32635167 2.58534539
v 10.00000000 -1.74132885 -3.01607004
v 10.00000000 0.36449257 -3.45924354
v 10.00000000 1.07579896 -3.30735234
v 10.00000000 1.73701665 -3.00810626
v 10.00000000 1.22020993 -2.74063637
v 10.00000000 2.81752926 2.04705483
v 10.00000000 2.32682580 2.58555649
v 10.00000000 2.22943448 2.00739182
v 10.00000000 3.17769178 -1.41357625
v 10.00000000 3.40210928 -0.72196103
v 10.00000000 2.85316955 -0.92705098
v 10.00000000 -0.36283775 3.45459717
v 10.00000000 -1.07361659 3.30800370
v 10.00000000 2.59807621 1.50000000
v 10.00000000 3.17803907 1.41396195
v 10.00000000 1.76335576 -2.42705098
v 10.00000000 2.33035286 -2.58811905
v 10.00000000 2.81461207 -2.04381496
v 10.00000000 2.22943448 -2.00739182
v 10.00000000 0.62373507 -2.93444280
v 10.00000000 2.85316955 0.92705098
v 10.00000000 3.39722030 0.72214496
v 10.00000000 2.59807621 -1.50000000
v 10.00000000 1.73659030 3.00786264
v 10.00000000 1.76335576 2.42705098
v 10.00000000 3.47786424 0.00115931
v 10.00000000 2.98356569 -0.31358539
v 10.00000000 1.22020993 2.74063637
v 10.00000000 2.98356569 0.31358539
v 0.00000000 3.26536215 -0.02109549
v 0.00000000 2.39437300 0.23551429
v 0.00000000 3.15779574 0.70562109
v 0.00000000 2.47991143 1.11967266
v 0.00000000 1.87329049 1.67769695
v 0.00000000 2.66403585 1.85921292
v 0.00000000 1.01828810 3.17436430
v 0.00000000 1.23688475 2.33386482
v 0.00000000 0.36868060 2.78225359
v 0.00000000 0.38314794 2.01227359
v 0.00000000 0.06527130 -2.66148459
v 0.00000000 1.00550828 -3.09463628
v 0.00000000 0.30473316 -3.39142001
v 0.00000000 3.14234423 1.38477248
v 0.00000000 0.83144483 -2.32149134
v 0.00000000 -0.97335551 2.47808529
v 0.00000000 -1.16362419 1.60763503
v 0.00000000 -1.80245673 2.14456024
v 0.00000000 1.61785747 -2.06571915
v 0.00000000 1.61290224 -2.80597691
v 0.00000000 -3.29039535 0.03265183
v 0.00000000 -2.46688905 -0.19451283
v 0.00000000 -3.20794713 -0.68428712
v 0.00000000 -0.61424631 -1.97989274
v 0.00000000 -0.83856355 -2.74369640
v 0.00000000 -2.44896371 -0.88882087
v 0.00000000 -1.70319375 2.88213341
v 0.00000000 -0.37876053 -3.28838879
v 0.00000000 -2.97039844 -1.34528970
v 0.00000000 -2.10085361 -1.57800251
v 0.00000000 -2.73704249 -2.00358570
v 0.00000000 2.71964559 -0.52146658
v 0.00000000 -0.34344208 3.18622646
v 0.00000000 -1.09571693 3.22264348
v 0.00000000 -0.26795419 2.48390225
v 0.00000000 -1.98059350 1.37291212
v 0.00000000 2.16951804 2.43593220
v 0.00000000 1.02550998 -1.54692522
v 0.00000000 0.21797043 -1.75301773
v 0.00000000 0.43187161 -0.95479829
v 0.00000000 -0.37917362 -1.17489767
v 0.00000000 -1.20159354 -1.38741123
v 0.00000000 -1.40110921 -2.19784668
v 0.00000000 -2.11057687 0.59127810
v 0.00000000 -1.55310684 0.00465385
v 0.00000000 -1.34466662 0.81349104
v 0.00000000 -0.75278769 0.22352136
v 0.00000000 -0.97010891 -0.58393461
v 0.00000000 0.64752402 -0.14862083
v 0.00000000 1.24025163 -0.73875247
v 0.00000000 -0.16085280 -0.36657582
v 0.00000000 1.07056564 1.46081301
v 0.00000000 0.26359929 1.24311469
v 0.00000000 0.86261672 0.65952059
v 0.00000000 0.05495652 0.44150186
v 0.00000000 -0.35409278 1.80746144
v 0.00000000 -0.53737066 1.03159337
v 0.00000000 1.45506274 0.06941777
v 0.00000000 1.64762927 0.85521825
v 0.00000000 -2.64472894 1.91749526
v 0.00000000 2.24451526 -2.46376486
v 0.00000000 -2.17727949 -2.41811385
v 0.00000000 2.94980520 -1.31754361
v 0.00000000 1.72354581 -1.29749572
v 0.00000000 1.98483266 -0.52868712
v 0.00000000 -1.77386637 -0.80312774
v 0.00000000 3.32824819 -0.70744099
v 0.00000000 2.31173131 -1.09661799
v 0.00000000 2.26830346 -1.71604782
v 0.00000000 1.68055569 2.96688223
v 0.00000000 2.76236573 -2.05514557
v 0.00000000 -2.76379244 0.43649446
v 0.00000000 -2.65782253 1.12785097
v 0.00000000 -1.60281419 -2.94996826
v 0.00000000 -3.29676528 0.75614072
v 0.00000000 0.36917145 3.43226358
v 0.00000000 -2.32147687 2.58984295
v 0.00000000 -3.20156783 1.42401503
v 0.00000000 -1.05574632 -3.30976514
v 9.01169685 2.82758400 1.00238152
v 8.50188340 2.89685894 0.77987710
v 9.00307620 2.97721836 0.36901335
v 2.03316912 0.59756296 -2.93988410
v 9.02156093 2.00874939 -2.22821137
v 9.45710286 2.42705098 -1.76335576
v 8.90810072 2.38376143 -1.82145037
v 9.56059861 2.02137125 -2.21676753
v 8.79306924 1.00690531 -2.82597624
v 9.45421624 0.98609144 -2.83330614
v 8.94549333 1.48738139 -2.60532082
v 3.67738763 1.97107047 -2.26161031
v 3.64404929 1.39909223 -2.65377861
v 4.21725619 1.74217286 -2.44230091
v 1.45669608 0.48002958 -2.96134625
v 4.29202269 0.54398511 -2.95026782
v 4.23114422 1.23196385 -2.73537293
v 3.78881289 0.89143830 -2.86449607
v 9.48714550 1.56609058 -2.55878102
v 8.94315994 2.16868763 2.07287094
v 9.47089057 1.98241522 2.25167268
v 8.96693423 1.70873301 2.46581254
v 9.49658796 2.93510057 0.62063247
v 6.76368252 0.48548784 2.96045631
v 6.03279220 0.48807708 2.96003053
v 2.10367654 2.26093938 1.97184004
v 2.65713142 2.08131082 2.16058910
v 2.08498172 1.77742018 2.41677006
v 1.54826501 2.01768573 2.22012258
v 4.77001012 0.96391284 -2.84092802
v 6.90170954 1.03447919 -2.81599943
v 7.29246643 0.50516976 -2.95716139
v 7.59738793 0.97324770 -2.83774363
v 6.38848610 0.90607167 2.85990107
v 8.46448537 1.90292728 2.31923862
v 3.14133473 1.74725250 -2.43866945
v 2.67255410 1.60997742 2.53139738
v 2.12278911 1.34135985 2.68342203
v 2.71125304 1.05659734 2.80777529
v 7.29986098 1.34744723 -2.68037049
v 2.11244274 2.87474475 0.85781268
v 1.55330037 2.75185170 1.19470173
v 1.56716465 2.94268429 0.58361729
v 6.93788141 1.04127460 2.81349377
v 7.28254231 0.51311460 2.95579319
v 1.00000000 2.85316955 0.92705098
v 1.55290734 2.44238981 1.74204822
v 5.50862187 0.50909717 2.95648779
v 5.82863193 1.05388964 2.80879273
v 3.07423296 0.50308638 2.95751654
v 2.50291270 0.51075803 2.95620132
v 2.10777738 2.62654036 1.44958123
v 4.28955228 0.85027986 2.87698178
v 4.80155018 1.09074078 2.79468863
v 4.90014086 0.51758261 2.95501408
v 8.49309267 2.99597961 0.15526171
v 8.99436715 2.98828183 -0.26489937
v 8.45773935 2.96234360 -0.47383580
v 7.50961174 0.95845261 2.84277480
v 8.44242420 2.80338061 -1.06820276
v 8.43017831 2.54738718 -1.58455626
v 8.95143361 2.66588447 -1.37588517
v 1.00000000 2.98356569 0.31358539
v 1.00000000 2.98356569 -0.31358539
v 1.56074700 2.99987641 -0.02723108
v 3.30010048 0.95221156 2.84487138
v 3.15960082 2.21228615 -2.02627490
v 2.62104566 1.99808872 -2.23777601
v 5.26168495 0.94195199 2.84828483
v 9.52901228 2.73437538 1.23417636
v 9.49380054 2.41046269 1.78596462
v 8.97943998 2.55539848 1.57160383
v 2.62804978 2.72921296 -1.24555073
v 2.09848349 2.84371954 -0.95564594
v 2.08908472 2.58921149 -1.51525043
v 9.10000000 0.51766302 -2.95500000
v 2.66185777 0.93282289 -2.85128768
v 3.07856761 0.42057920 -2.97037256
v 3.32121058 0.89557389 -2.86320579
v 2.61521248 1.49976384 -2.59821255
v 1.54808205 2.73748206 -1.22727012
v 8.97002790 2.87810825 -0.84645904
v 3.71403632 0.54684898 2.94973833
v 3.75169181 1.11577595 2.78478797
v 4.21920388 2.20746171 -2.03152967
v 4.75676005 2.40716425 -1.79040785
v 4.75532379 1.99193152 -2.24325853
v 5.28536426 2.20961928 -2.02918275
v 5.28667643 2.57534973 -1.53869222
v 5.30571707 1.41278719 2.64651325
v 5.84774226 1.63815796 2.51325257
v 9.48216774 1.49148805 2.60297203
v 4.30000000 0.34801243 2.97974619
v 6.37916770 1.88593966 2.33307342
v 6.38373529 1.37618729 2.66572852
v 1.00000000 2.59807621 -1.50000000
v 1.54457171 2.42385206 -1.76775032
v 1.55722362 2.93036201 -0.64263403
v 1.00000000 2.85316955 -0.92705098
v 1.54167925 1.50227335 2.59676237
v 1.57937398 0.96251653 2.84140140
v 5.81654148 2.40175754 -1.79765423
v 5.84602651 2.11287344 2.12973375
v 1.00000000 2.22943448 -2.00739182
v 2.08064897 1.76096295 -2.42878766
v 2.07928185 1.22675323 -2.73771374
v 1.54355300 2.00438589 -2.23213736
v 1.53492138 1.51446881 -2.58966875
v 1.00000000 1.76335576 2.42705098
v 4.27253781 1.36514126 2.67140213
v 3.74049597 1.62533819 2.52156217
v 4.26285404 1.87521130 2.34170506
v 7.96592939 1.64459253 2.50904671
v 7.94449503 1.13817908 2.77570683
v 7.45425779 1.42080964 2.64221497
v 1.00000000 1.76335576 -2.42705098
v 5.84224132 2.49965680 1.65882967
v 6.36992209 2.65703486 1.39289834
v 6.37455017 2.31988305 1.90214159
v 2.63791758 2.92524360 -0.66554480
v 1.51870785 0.98364409 -2.83415672
v 9.45710286 3.00000000 0.00000000
v 9.45696797 2.93394176 -0.62608765
v 5.81877288 2.71684845 -1.27229498
v 3.22739739 1.39542872 2.65570681
v 1.00000000 1.22020993 -2.74063637
v 1.00000000 0.62373507 -2.93444280
v 3.20167212 1.86460110 2.35016228
v 9.44560542 0.96617467 2.84015959
v 6.90160123 2.50298697 1.65380055
v 1.00000000 1.22020993 2.74063637
v 2.08423695 2.22330496 -2.01417850
v 3.72962739 2.09900394 2.14340441
v 3.68974134 2.41103314 -1.78519444
v 4.78956828 2.10672365 2.13581729
v 4.79538218 1.63190579 2.51731672
v 7.37697931 1.77490953 -2.41861451
v 6.86882886 1.98031013 -2.25352431
v 6.85453650 1.51475530 -2.58950118
v 9.46812228 2.74603577 -1.20800974
v 8.50038725 1.38036359 2.66356835
v 1.00000000 2.22943448 2.00739182
v 7.43611176 1.89029308 2.32954761
v 5.27718573 1.23181765 -2.73543877
v 5.25007048 0.67580452 -2.92289039
v 6.90612853 2.11530556 2.12731813
v 6.90950910 1.64149509 2.51107425
v 2.62350977 2.41571073 -1.77885966
v 6.34292638 2.20286984 -2.03650791
v 6.33789277 1.74559429 -2.43985667
v 8.44082277 2.34050178 1.87671292
v 8.46530103 2.67785796 1.35243365
v 1.00000000 0.62373507 2.93444280
v 7.43372569 2.32344484 1.89778926
v 5.31993832 1.88216713 2.33611791
v 6.87419455 2.39631236 -1.80490639
v 6.34704788 2.57018542 -1.54730310
v 5.80295435 1.50357835 -2.59600696
v 6.35690158 1.28838695 -2.70925434
v 5.31566066 2.31536119 1.90764320
v 3.16087545 2.58247673 -1.52670034
v 5.81359976 1.98721478 -2.24743797
v 6.87981117 2.71303673 -1.28040294
v 6.35123507 2.83120693 -0.99210248
v 5.83730012 2.78424402 1.11713258
v 5.82237133 2.91890549 -0.69281365
v 5.28846361 2.83458475 -0.98240994
v 1.00000000 2.59807621 1.50000000
v 5.83234352 2.95315511 0.52808610
v 6.36515647 2.88481485 0.82331239
v 3.69434474 2.72423234 -1.25640684
v 4.22311565 2.57996306 -1.53094435
v 5.28434729 1.75288538 -2.43462376
v 4.75745379 1.50015438 -2.59798707
v 4.22772642 2.83728038 -0.97459738
v 5.29368441 2.97511060 -0.38563830
v 5.82717379 2.99882709 -0.08388124
v 5.30023429 2.99133726 0.22781875
v 3.09962083 1.30073223 -2.70334897
v 3.19634016 2.30388336 1.92148939
v 6.36085863 2.99196575 0.21941052
v 5.31101791 2.65406093 1.39855661
v 4.75555845 2.72126153 -1.26282844
v 6.88460854 2.91686025 -0.70137457
v 4.78443590 2.49560379 1.66492093
v 7.40040831 2.19656475 -2.04330695
v 4.76765170 2.99906871 -0.07474531
v 4.25812209 2.30992457 1.91422268
v 4.76059824 2.92105240 -0.68370524
v 7.95788277 2.12059207 2.12204837
v 3.72480135 2.49060584 1.67238828
v 6.89723424 2.78700675 1.11022223
v 4.25281294 2.65035468 1.40556752
v 3.71957206 2.77877430 1.13066944
v 4.24790975 2.88072061 0.83752540
v 4.23433378 2.97616403 -0.37742241
v 7.95724301 2.95637233 0.50976724
v 7.42617951 2.88732376 0.81447008
v 7.42170999 2.99275451 0.20837576
v 4.77427927 2.95172759 0.53600766
v 4.24096620 2.99080854 0.23465783
v 7.43025482 2.66070014 1.38588411
v 6.35569287 2.97392762 -0.39465743
v 4.78001897 2.78127286 1.12450934
v 3.69971779 2.92304240 -0.67514673
v 3.71385528 2.95069535 0.54166131
v 8.45928182 1.77458268 -2.41885434
v 7.92255477 1.98049012 -2.25336612
v 7.90278684 1.48320844 -2.60769874
v 5.30658187 2.88251457 0.83133013
v 8.45557109 2.19185355 -2.04835984
v 6.10440672 0.46744341 -2.96335902
v 7.95323666 2.99816040 -0.10504380
v 7.41305605 2.82797815 -1.00126898
v 3.16539141 2.84036043 -0.96558409
v 3.70679516 2.99922462 -0.06820327
v 7.96084957 2.78990197 1.10292656
v 3.18480115 2.87872904 0.84434536
v 3.17882136 2.99033561 0.24060950
v 6.89276681 2.95469588 0.51939607
v 2.64812299 2.94944487 0.54842954
v 2.64496671 2.99940977 -0.05950643
v 7.95249827 2.50889507 1.64482385
v 2.10983908 2.98982992 0.24681380
v 6.88713445 2.99857520 -0.09244860
v 7.41893186 2.97251365 -0.40516981
v 7.90040053 0.51858890 -2.95483765
v 2.11257078 2.97918165 -0.35281252
v 7.40613381 2.56546270 -1.55512094
v 7.93275165 2.39260040 -1.80982412
v 2.65839417 2.48328435 1.68324057
v 7.91674968 0.62648949 2.93385598
v 8.50153674 0.50414766 -2.95733582
v 3.19010959 2.64639935 1.41300052
v 2.65375402 2.77485028 1.14026572
v 8.51706611 0.50349547 2.95744692
v 8.19136441 0.96548755 -2.84039325
v 7.92738346 2.70700148 -1.29311369
v 4.80992599 0.45740197 -2.96492554
v 3.17234007 2.97709120 -0.37003779
v 7.93553594 2.91218479 -0.72054128
v 5.66771960 0.43135537 -2.96882680
v 5.81986617 0.93928886 -2.84916417
v 6.41797699 0.83310342 -2.88200255
v 9.07845421 0.50536168 2.95712860
v 1.91474050 0.43801266 2.96785190
v 3.68997607 0.40945197 -2.97192683
v 8.81516869 0.91538193 2.85693471
v 6.70000000 0.43680248 -2.96803026
v 2.19130517 0.85851343 2.87453556
v 2.55622392 0.44486186 -2.96683298
v 9.55092619 0.45240587 2.96569198
v 1.44789331 0.44710416 2.96649589
v 9.56571343 0.44092002 -2.96742136
v 8.50047564 1.33733701 -2.68542915
v 8.37437986 0.93434601 2.85078893
v 9.07287103 1.29605186 2.70559597
v 1.00000000 1.06926572 -1.47260192
v 1.00000000 1.18773787 -2.13517583
v 1.00000000 1.65047307 -1.80939101
v 1.00000000 -1.87535311 0.33606301
v 1.00000000 -1.47818371 0.87610459
v 1.00000000 -2.22943448 0.99260818
v 1.00000000 0.63262702 -1.92847904
v 1.00000000 -0.56211772 -1.84600917
v 1.00000000 -0.27812151 -2.44552155
v 1.00000000 0.02018178 -1.89732251
v 1.00000000 -0.82828853 -2.32235091
v 1.00000000 2.22943448 0.99260818
v 1.00000000 2.04303976 1.53211380
v 1.00000000 1.51582420 1.29918320
v 1.00000000 1.71068164 0.70196092
v 1.00000000 -1.74323393 1.34297297
v 1.00000000 1.96319132 0.13503591
v 1.00000000 2.37327768 0.50929457
v 1.00000000 -2.47638854 0.51386151
v 1.00000000 -2.44041986 -0.00000000
v 1.00000000 -1.17115007 1.46635896
v 1.00000000 -1.23581870 2.13078523
v 1.00000000 -1.68892872 1.81883635
v 1.00000000 -0.74094190 1.82749640
v 1.00000000 1.10816065 1.84415219
v 1.00000000 0.79450293 1.33516810
v 1.00000000 -1.55617458 -1.25028816
v 1.00000000 -1.75346043 -0.67910193
v 1.00000000 -2.22943448 -0.99260818
v 1.00000000 -2.05320144 -1.51857106
v 1.00000000 -1.98016493 -0.22142460
v 1.00000000 1.64242945 1.86138583
v 1.00000000 -0.17485216 1.96282730
v 1.00000000 -0.25687797 2.53100473
v 1.00000000 -0.74089598 2.33070255
v 1.00000000 1.65536465 -1.25648901
v 1.00000000 -2.40845972 -0.52466248
v 1.00000000 0.29794286 -2.45112145
v 1.00000000 0.52184500 1.88390516
v 1.00000000 0.17028563 1.36542376
v 1.00000000 -0.44258104 1.39172772
v 1.00000000 -0.79697915 0.86264261
v 1.00000000 -0.50227263 0.30728794
v 1.00000000 -1.12820316 0.34118796
v 1.00000000 -0.16138330 0.83365091
v 1.00000000 1.08564519 0.75802059
v 1.00000000 0.74886219 0.23809998
v 1.00000000 1.37684219 0.20474443
v 1.00000000 0.46444070 0.79976658
v 1.00000000 1.03418881 -0.32054528
v 1.00000000 0.40790528 -0.28643237
v 1.00000000 0.12415098 0.27304591
v 1.00000000 -1.17136091 -0.73814578
v 1.00000000 -0.87599529 -1.26595996
v 1.00000000 -0.56093159 -0.77767773
v 1.00000000 0.06528807 -0.81174880
v 1.00000000 -0.27634197 -1.31881494
v 1.00000000 -0.21838602 -0.25231117
v 1.00000000 -0.84461203 -0.21823236
v 1.00000000 0.69154412 -0.84584513
v 1.00000000 1.29075844 -0.84094936
v 1.00000000 2.21469799 -0.98289278
v 1.00000000 2.49962341 -0.01447398
v 1.00000000 0.25509334 2.42705098
v 1.00000000 -1.65288744 -1.84256712
v 1.00000000 1.58815029 -0.30940163
v 1.00000000 0.34913967 -1.36688621
v 1.00000000 -1.44133182 -0.19099562
v 1.00000000 -1.14223295 -1.74832500
v 1.00000000 2.06457288 -1.50000000
v 1.00000000 2.09478905 -0.40309295
v 1.00000000 1.77132712 -0.73858556
v 1.00000000 0.79245055 -2.43797110
v 1.00000000 -1.32205046 -2.21324791
v 1.00000000 2.53174418 -0.50823963
v 1.00000000 0.83982121 2.37377784
v 1.00000000 1.31479540 2.24940064
v 1.00000000 -2.13528779 1.55351329
f 1 2 3
f 4 5 6
f 7 8 9
f 10 11 12
f 8 7 13
f 14 15 16
f 17 10 12
f 6 5 18
f 19 20 21
f 2 22 3
f 23 24 25
f 26 27 28
f 29 30 31
f 30 32 31
f 33 20 19
f 34 35 36
f 24 37 25
f 15 14 38
f 27 39 28
f 40 41 42
f 40 31 41
f 19 14 16
f 36 35 43
f 44 45 46
f 47 48 24
f 40 29 31
f 49 44 46
f 30 50 32
f 51 52 25
f 53 54 42
f 44 50 55
f 17 8 13
f 50 30 55
f 56 57 58
f 59 60 3
f 61 60 59
f 48 47 62
f 63 64 65
f 66 67 68
f 60 1 3
f 45 44 55
f 42 54 69
f 64 49 46
f 70 71 38
f 8 17 12
f 52 51 72
f 73 74 75
f 19 21 14
f 76 11 10
f 77 78 79
f 80 81 82
f 83 70 38
f 71 15 38
f 84 77 79
f 85 57 86
f 64 46 65
f 67 87 68
f 16 15 88
f 88 89 90
f 91 89 92
f 16 88 90
f 93 51 94
f 95 81 6
f 58 57 96
f 74 2 75
f 97 98 94
f 99 100 84
f 101 102 84
f 103 104 105
f 51 97 94
f 89 91 90
f 91 92 106
f 107 100 99
f 108 83 95
f 109 110 108
f 84 102 77
f 94 98 111
f 95 83 81
f 112 113 114
f 115 116 32
f 117 118 119
f 120 110 109
f 121 26 28
f 109 108 95
f 122 95 6
f 26 73 27
f 123 124 125
f 99 84 79
f 78 77 126
f 127 121 128
f 129 73 26
f 92 130 106
f 32 116 31
f 100 101 84
f 122 109 95
f 87 61 59
f 131 132 87
f 133 112 114
f 122 134 109
f 135 134 122
f 108 70 83
f 48 37 24
f 136 132 131
f 137 123 125
f 31 116 41
f 98 125 111
f 138 7 132
f 108 139 70
f 140 141 22
f 142 127 128
f 108 110 139
f 143 144 145
f 146 147 17
f 121 148 26
f 125 124 111
f 149 150 111
f 37 51 25
f 133 151 112
f 110 107 99
f 152 118 117
f 150 94 111
f 153 115 32
f 115 103 116
f 118 154 119
f 33 155 156
f 50 153 32
f 154 157 158
f 81 159 82
f 127 148 121
f 48 97 37
f 70 160 71
f 129 161 73
f 162 143 163
f 71 164 15
f 112 165 86
f 116 103 105
f 15 164 88
f 166 167 114
f 168 137 157
f 93 166 56
f 169 170 162
f 120 107 110
f 141 171 131
f 172 163 173
f 150 166 93
f 151 40 165
f 149 167 150
f 70 139 160
f 162 170 143
f 112 151 165
f 138 174 7
f 150 167 166
f 71 175 164
f 113 166 114
f 158 98 97
f 140 171 141
f 158 97 48
f 176 163 172
f 177 178 169
f 123 179 124
f 71 160 175
f 169 178 170
f 180 181 130
f 134 120 109
f 182 140 22
f 158 157 98
f 136 138 132
f 49 183 44
f 148 129 26
f 168 157 154
f 184 185 179
f 101 63 102
f 164 175 186
f 164 186 187
f 188 172 155
f 184 179 123
f 187 89 88
f 189 155 33
f 37 97 51
f 56 113 57
f 173 145 35
f 187 186 190
f 157 137 125
f 181 177 130
f 124 149 111
f 171 136 131
f 162 163 176
f 191 192 75
f 193 194 195
f 44 183 50
f 180 130 92
f 177 169 130
f 163 143 145
f 133 196 151
f 197 193 185
f 124 198 149
f 150 93 94
f 187 199 89
f 177 200 178
f 197 185 184
f 149 201 167
f 183 153 50
f 143 202 144
f 185 193 195
f 176 172 188
f 41 116 105
f 56 166 113
f 89 199 92
f 194 203 195
f 204 133 114
f 173 163 145
f 199 190 205
f 180 205 194
f 206 154 118
f 124 179 198
f 187 190 199
f 154 158 119
f 189 33 19
f 188 155 189
f 204 207 133
f 181 194 193
f 162 176 106
f 208 123 137
f 164 187 88
f 209 210 211
f 194 205 203
f 205 190 212
f 98 157 125
f 213 214 215
f 151 29 40
f 216 137 168
f 160 139 79
f 167 204 114
f 176 91 106
f 158 48 119
f 181 217 177
f 201 198 218
f 130 169 106
f 217 193 197
f 177 217 200
f 210 201 218
f 139 110 99
f 219 220 221
f 190 186 222
f 199 205 180
f 195 203 223
f 209 211 224
f 39 118 152
f 143 170 202
f 223 203 225
f 167 201 204
f 184 123 208
f 175 160 78
f 149 198 201
f 78 160 79
f 218 198 226
f 133 207 196
f 180 194 181
f 219 227 220
f 228 229 230
f 198 179 226
f 185 195 226
f 169 162 106
f 211 210 218
f 181 193 217
f 178 200 231
f 186 175 232
f 168 154 206
f 190 222 212
f 233 234 58
f 225 212 235
f 199 180 92
f 1 236 191
f 176 188 91
f 237 224 238
f 204 201 210
f 203 205 212
f 213 215 239
f 207 210 209
f 209 224 237
f 240 238 241
f 179 185 226
f 242 243 20
f 102 63 65
f 204 210 207
f 208 137 216
f 234 244 52
f 215 214 245
f 245 60 61
f 246 247 34
f 213 236 214
f 197 184 239
f 214 1 60
f 175 78 232
f 216 168 248
f 249 250 85
f 184 208 239
f 240 251 45
f 144 202 219
f 189 19 16
f 208 216 213
f 191 236 248
f 151 196 29
f 213 216 236
f 208 213 239
f 214 60 245
f 237 238 240
f 214 236 1
f 222 186 232
f 1 191 2
f 252 246 253
f 254 255 47
f 220 227 8
f 240 241 251
f 77 102 256
f 188 189 90
f 257 258 80
f 170 178 259
f 139 99 79
f 224 225 235
f 168 206 248
f 206 118 39
f 45 251 46
f 178 231 259
f 202 170 259
f 227 260 66
f 200 261 262
f 263 249 54
f 236 216 248
f 203 212 225
f 234 52 58
f 264 252 265
f 29 196 266
f 255 267 268
f 189 16 90
f 209 237 269
f 226 195 223
f 239 215 261
f 219 260 227
f 61 87 67
f 29 266 30
f 91 188 90
f 269 237 270
f 207 209 269
f 197 239 261
f 219 202 260
f 200 217 261
f 196 207 269
f 271 264 76
f 272 263 53
f 267 273 274
f 240 45 270
f 260 202 259
f 266 196 269
f 211 223 225
f 218 226 223
f 261 215 262
f 253 246 34
f 217 197 261
f 224 211 225
f 253 34 36
f 238 224 235
f 211 218 223
f 249 85 54
f 237 240 270
f 259 231 275
f 252 253 265
f 47 255 268
f 215 245 262
f 156 276 277
f 231 200 262
f 212 222 235
f 165 40 42
f 266 269 270
f 57 113 86
f 231 262 278
f 222 232 279
f 245 61 278
f 262 245 278
f 53 263 54
f 260 259 275
f 76 264 265
f 256 102 65
f 235 222 279
f 267 274 268
f 113 112 86
f 66 260 275
f 76 265 11
f 241 238 279
f 253 36 280
f 30 266 55
f 238 235 279
f 275 231 278
f 279 232 126
f 265 253 280
f 266 270 55
f 232 78 126
f 276 156 281
f 270 45 55
f 11 265 280
f 147 282 10
f 241 279 126
f 22 2 74
f 156 155 283
f 172 173 283
f 284 272 285
f 144 219 221
f 273 286 287
f 283 173 288
f 126 77 256
f 57 85 96
f 21 20 289
f 287 128 290
f 241 126 256
f 291 135 18
f 5 291 18
f 280 36 221
f 38 14 159
f 146 17 13
f 35 34 292
f 83 38 159
f 17 147 10
f 7 174 13
f 51 93 72
f 251 241 256
f 251 256 65
f 131 87 59
f 46 251 65
f 192 27 75
f 230 283 288
f 73 161 74
f 122 6 18
f 182 22 74
f 272 53 285
f 165 42 69
f 228 230 292
f 34 247 292
f 39 27 192
f 274 273 287
f 81 83 159
f 4 6 293
f 23 254 24
f 132 7 68
f 8 227 9
f 14 21 82
f 41 105 294
f 155 172 283
f 244 23 25
f 295 142 296
f 289 80 82
f 104 297 298
f 191 248 192
f 286 295 296
f 206 39 192
f 297 284 298
f 119 48 62
f 81 80 293
f 278 61 67
f 35 145 43
f 276 242 277
f 66 275 67
f 20 243 289
f 229 276 281
f 257 80 289
f 233 58 96
f 85 250 96
f 282 299 300
f 105 285 294
f 299 271 300
f 159 14 82
f 221 220 301
f 221 36 43
f 117 268 302
f 220 8 12
f 144 221 43
f 258 4 293
f 268 274 302
f 20 33 277
f 290 128 303
f 174 146 13
f 268 117 62
f 7 9 68
f 247 228 292
f 47 268 62
f 227 66 9
f 280 221 301
f 80 258 293
f 141 59 3
f 39 152 28
f 21 289 82
f 141 131 59
f 156 283 281
f 22 141 3
f 2 191 75
f 248 206 192
f 161 182 74
f 254 47 24
f 56 58 72
f 275 278 67
f 58 52 72
f 54 85 69
f 27 73 75
f 6 81 293
f 274 287 290
f 52 244 25
f 85 86 69
f 242 20 277
f 33 156 277
f 42 41 294
f 10 282 300
f 105 104 298
f 87 132 68
f 283 230 281
f 117 119 62
f 86 165 69
f 93 56 72
f 128 121 303
f 135 122 18
f 142 128 296
f 53 42 294
f 243 257 289
f 76 10 300
f 152 117 302
f 145 144 43
f 152 290 303
f 292 230 288
f 250 233 96
f 287 286 296
f 284 285 298
f 28 152 303
f 271 76 300
f 173 35 288
f 230 229 281
f 9 66 68
f 11 280 301
f 285 105 298
f 128 287 296
f 285 53 294
f 290 152 302
f 35 292 288
f 12 11 301
f 220 12 301
f 274 290 302
f 121 28 303
f 304 305 306
f 307 308 309
f 310 311 312
f 313 314 315
f 316 308 307
f 312 311 317
f 318 319 320
f 313 321 314
f 322 323 324
f 325 326 327
f 328 329 330
f 331 332 333
f 334 335 336
f 337 338 339
f 340 341 342
f 343 344 345
f 320 346 318
f 347 348 306
f 349 350 351
f 352 353 354
f 325 355 326
f 324 356 322
f 357 358 359
f 330 360 328
f 361 362 363
f 364 365 366
f 367 368 369
f 305 370 306
f 332 371 333
f 366 365 372
f 373 358 357
f 342 341 374
f 375 305 304
f 335 376 336
f 339 338 377
f 378 379 380
f 378 380 381
f 354 382 352
f 383 384 385
f 386 387 388
f 345 389 343
f 347 390 348
f 363 391 361
f 392 368 367
f 393 362 361
f 394 362 329
f 349 395 350
f 396 397 398
f 399 400 401
f 402 403 404
f 405 308 406
f 407 311 408
f 383 409 384
f 337 410 338
f 411 412 413
f 387 414 388
f 340 415 341
f 351 416 349
f 368 417 369
f 330 329 393
f 418 321 419
f 306 370 347
f 420 421 422
f 404 324 402
f 399 401 423
f 424 425 426
f 358 427 359
f 406 308 316
f 317 311 407
f 344 428 345
f 328 412 411
f 396 320 397
f 329 362 393
f 429 430 431
f 431 432 429
f 433 434 435
f 435 436 433
f 437 355 438
f 378 439 440
f 440 379 378
f 440 439 441
f 441 442 440
f 435 434 381
f 443 442 441
f 381 380 435
f 364 444 365
f 431 430 433
f 438 371 437
f 433 436 431
f 429 432 445
f 336 428 334
f 419 376 418
f 314 321 418
f 318 410 319
f 322 415 323
f 422 391 420
f 406 389 405
f 353 416 354
f 309 446 307
f 408 447 407
f 312 390 310
f 315 395 313
f 412 382 413
f 441 421 443
f 333 427 331
f 426 448 424
f 398 449 396
f 327 444 325
f 399 450 400
f 403 451 404
f 452 421 420
f 426 425 453
f 454 455 456
f 457 458 459
f 459 458 460
f 461 462 463
f 461 454 456
f 463 454 461
f 464 465 466
f 467 468 469
f 466 470 464
f 458 471 460
f 472 465 464
f 473 455 454
f 460 471 474
f 461 475 462
f 476 475 477
f 456 468 467
f 478 465 472
f 479 480 481
f 477 475 461
f 482 483 484
f 455 468 456
f 484 483 485
f 474 471 486
f 487 488 489
f 490 454 463
f 491 420 363
f 492 493 494
f 459 495 457
f 496 358 497
f 498 490 499
f 500 496 497
f 481 480 501
f 462 475 485
f 485 475 484
f 455 433 468
f 502 490 463
f 484 475 476
f 503 504 460
f 505 506 507
f 508 378 498
f 507 506 509
f 472 464 510
f 511 483 482
f 477 467 357
f 512 513 514
f 497 426 515
f 508 498 499
f 499 490 502
f 504 459 460
f 477 456 467
f 476 477 357
f 473 490 498
f 503 460 474
f 494 493 471
f 516 508 499
f 378 381 498
f 463 462 517
f 472 510 402
f 518 420 491
f 519 501 520
f 476 357 359
f 503 401 521
f 491 363 522
f 523 399 524
f 469 429 424
f 525 526 527
f 528 503 474
f 465 488 487
f 502 463 517
f 422 441 529
f 530 531 532
f 516 529 508
f 514 513 533
f 534 499 502
f 535 481 501
f 536 341 537
f 500 497 515
f 538 404 539
f 528 401 503
f 540 541 542
f 419 543 544
f 505 507 545
f 478 472 546
f 467 469 373
f 331 496 547
f 520 548 549
f 437 332 550
f 536 537 551
f 520 501 552
f 553 476 359
f 554 474 486
f 505 545 555
f 556 519 557
f 515 426 558
f 512 559 513
f 519 520 560
f 525 561 526
f 562 502 517
f 563 517 564
f 503 521 504
f 517 462 564
f 565 566 374
f 552 564 548
f 567 514 533
f 568 557 569
f 564 462 485
f 570 561 525
f 547 496 500
f 571 332 331
f 572 537 322
f 572 322 573
f 571 331 547
f 482 484 553
f 568 556 557
f 519 560 557
f 501 480 552
f 553 484 476
f 574 575 576
f 534 516 499
f 520 549 560
f 535 501 519
f 520 552 548
f 577 307 536
f 509 506 578
f 472 402 546
f 564 485 548
f 579 580 581
f 553 359 333
f 582 486 583
f 401 400 521
f 584 478 585
f 477 461 456
f 554 528 474
f 586 540 587
f 588 589 590
f 549 483 511
f 467 373 357
f 591 587 592
f 593 479 594
f 511 482 595
f 533 566 565
f 577 536 551
f 596 437 550
f 482 553 597
f 556 535 519
f 598 531 530
f 327 326 599
f 469 424 373
f 594 479 481
f 600 601 602
f 586 541 540
f 603 593 594
f 604 594 605
f 550 332 571
f 551 537 572
f 596 326 437
f 339 581 606
f 552 563 564
f 568 569 607
f 608 527 609
f 509 568 607
f 565 374 309
f 582 554 486
f 381 473 498
f 563 562 517
f 339 606 610
f 567 533 611
f 562 534 502
f 612 307 577
f 316 307 612
f 613 614 601
f 615 338 616
f 617 317 407
f 337 339 610
f 618 619 620
f 621 602 622
f 621 610 602
f 617 407 623
f 623 407 615
f 369 365 624
f 478 546 585
f 377 579 581
f 625 622 626
f 627 529 516
f 625 626 628
f 599 326 596
f 629 317 617
f 312 317 629
f 545 630 555
f 631 351 632
f 354 351 631
f 533 565 611
f 633 586 634
f 635 350 315
f 636 598 637
f 351 350 632
f 339 377 581
f 638 628 639
f 640 600 641
f 632 350 635
f 636 544 598
f 642 344 343
f 643 344 642
f 334 344 643
f 644 328 411
f 645 406 316
f 646 624 327
f 369 624 647
f 306 348 648
f 623 615 649
f 615 616 649
f 650 418 651
f 652 334 643
f 647 624 646
f 653 318 654
f 367 369 647
f 655 396 656
f 642 343 657
f 645 316 612
f 648 348 658
f 304 306 648
f 651 335 652
f 418 335 651
f 649 616 653
f 635 315 659
f 653 616 318
f 659 314 650
f 658 312 629
f 343 406 657
f 646 327 599
f 652 335 334
f 657 406 645
f 658 348 312
f 650 314 418
f 660 354 631
f 315 314 659
f 661 621 622
f 423 401 528
f 598 530 541
f 638 625 628
f 662 663 664
f 621 337 610
f 665 505 666
f 473 454 490
f 667 662 664
f 667 664 608
f 505 555 666
f 663 570 664
f 625 661 622
f 633 637 586
f 638 397 625
f 668 638 639
f 667 608 669
f 663 509 607
f 527 526 628
f 663 607 570
f 636 419 544
f 336 636 637
f 482 597 595
f 668 368 398
f 555 313 666
f 668 398 638
f 625 397 661
f 398 397 638
f 621 319 337
f 372 668 639
f 548 483 549
f 372 639 670
f 671 532 669
f 671 613 672
f 532 667 669
f 397 320 661
f 671 669 613
f 377 408 579
f 673 542 672
f 557 674 569
f 542 671 672
f 661 319 621
f 510 403 402
f 604 603 594
f 633 336 637
f 665 666 349
f 366 618 675
f 345 633 634
f 366 372 670
f 673 672 640
f 366 670 618
f 673 640 676
f 549 511 677
f 565 309 678
f 614 609 626
f 679 592 676
f 320 319 661
f 553 333 597
f 590 589 680
f 592 673 676
f 681 567 682
f 683 634 684
f 685 684 686
f 665 349 687
f 679 574 688
f 683 345 634
f 567 611 686
f 685 405 683
f 679 676 574
f 582 689 554
f 690 325 364
f 691 681 692
f 685 683 684
f 682 679 688
f 681 514 567
f 478 488 465
f 611 685 686
f 567 686 682
f 511 595 693
f 667 694 662
f 695 590 680
f 696 665 687
f 587 540 592
f 533 513 566
f 681 682 688
f 679 591 592
f 681 688 692
f 697 578 696
f 364 366 675
f 698 512 699
f 352 412 603
f 697 605 535
f 700 604 605
f 701 423 528
f 692 702 588
f 684 591 686
f 605 481 535
f 627 422 529
f 680 703 704
f 570 525 664
f 682 591 679
f 697 696 700
f 584 585 705
f 706 689 582
f 707 584 708
f 709 583 710
f 531 694 532
f 695 582 583
f 593 711 479
f 696 687 700
f 549 677 560
f 686 591 682
f 712 480 479
f 698 699 709
f 489 488 707
f 697 700 605
f 703 310 704
f 695 680 706
f 604 352 603
f 690 364 675
f 704 347 706
f 691 692 588
f 556 697 535
f 619 561 570
f 709 695 583
f 511 693 677
f 691 588 699
f 532 694 667
f 512 691 699
f 702 589 588
f 578 506 696
f 680 704 706
f 713 627 516
f 705 714 708
f 485 483 548
f 695 706 582
f 597 438 595
f 584 705 708
f 690 675 715
f 347 689 706
f 585 340 705
f 698 709 710
f 531 630 694
f 674 620 569
f 698 559 512
f 716 559 698
f 565 678 611
f 693 690 715
f 693 715 677
f 691 514 681
f 664 525 608
f 554 701 528
f 552 480 563
f 716 698 710
f 608 525 527
f 576 575 580
f 586 587 634
f 509 578 568
f 690 717 325
f 438 717 595
f 685 678 405
f 694 630 545
f 684 587 591
f 716 710 492
f 707 708 716
f 541 530 542
f 708 559 716
f 512 514 691
f 489 494 718
f 692 576 702
f 595 717 693
f 575 641 606
f 714 559 708
f 710 493 492
f 563 712 562
f 598 541 637
f 576 580 702
f 560 674 557
f 471 493 486
f 673 540 542
f 574 576 688
f 402 324 546
f 594 481 605
f 566 342 374
f 574 641 575
f 640 601 600
f 703 719 310
f 671 530 532
f 720 435 721
f 722 723 721
f 585 323 340
f 554 689 701
f 687 353 700
f 604 353 352
f 705 342 714
f 641 600 606
f 546 323 585
f 489 707 492
f 677 674 560
f 707 716 492
f 663 507 509
f 340 342 705
f 665 506 505
f 693 717 690
f 534 713 516
f 610 600 602
f 601 614 602
f 611 678 685
f 489 492 494
f 640 641 676
f 715 674 677
f 713 724 361
f 589 725 703
f 609 527 626
f 720 726 727
f 725 719 703
f 724 393 361
f 556 578 697
f 620 619 569
f 688 576 692
f 713 361 627
f 728 457 729
f 588 590 699
f 709 590 695
f 622 614 626
f 613 601 672
f 324 323 546
f 628 526 639
f 718 458 457
f 487 489 718
f 700 353 604
f 730 440 731
f 727 732 733
f 729 495 734
f 735 466 728
f 613 609 614
f 608 609 669
f 634 587 684
f 728 487 718
f 581 575 606
f 731 736 730
f 733 431 727
f 618 620 675
f 592 540 673
f 494 458 718
f 713 737 724
f 721 734 720
f 607 619 570
f 728 718 457
f 702 725 589
f 579 725 580
f 568 578 556
f 637 541 586
f 722 738 723
f 699 590 709
f 730 738 722
f 542 530 671
f 494 471 458
f 545 507 662
f 728 466 487
f 544 531 598
f 734 726 720
f 735 728 729
f 694 545 662
f 580 575 581
f 566 513 714
f 513 559 714
f 618 561 619
f 662 507 663
f 466 465 487
f 733 739 740
f 723 735 729
f 696 506 665
f 676 641 574
f 715 620 674
f 457 495 729
f 712 737 562
f 723 738 735
f 680 589 703
f 555 543 313
f 734 495 726
f 510 741 403
f 606 600 610
f 584 488 478
f 534 737 713
f 562 737 534
f 544 543 630
f 408 719 579
f 714 342 566
f 672 601 640
f 486 493 583
f 742 743 731
f 727 726 732
f 563 480 712
f 630 543 555
f 742 443 744
f 740 745 746
f 602 614 622
f 746 445 740
f 744 747 742
f 639 526 670
f 669 609 613
f 580 725 702
f 464 748 510
f 675 620 715
f 526 561 670
f 544 630 531
f 626 527 628
f 723 734 721
f 569 619 607
f 670 561 618
f 731 743 736
f 593 330 711
f 723 729 734
f 732 739 733
f 707 488 584
f 579 719 725
f 736 738 730
f 724 330 393
f 583 493 710
f 521 749 504
f 711 330 724
f 740 739 745
f 504 750 459
f 701 305 423
f 735 470 466
f 400 751 521
f 747 743 742
f 470 748 464
f 479 711 712
f 737 711 724
f 712 711 737
f 726 750 732
f 736 748 470
f 743 748 736
f 495 750 726
f 736 470 738
f 748 741 510
f 738 470 735
f 445 425 429
f 504 749 750
f 521 751 749
f 750 749 732
f 732 749 739
f 743 741 748
f 459 750 495
f 326 355 437
f 747 741 743
f 749 751 739
f 739 751 745
f 741 387 403
f 365 417 372
f 400 384 751
f 747 387 741
f 751 384 745
f 437 371 332
f 558 453 752
f 753 452 518
f 373 448 358
f 394 329 644
f 418 376 335
f 404 356 324
f 347 370 689
f 701 370 305
f 341 415 537
f 426 453 558
f 518 452 420
f 352 382 412
f 338 410 616
f 522 362 394
f 349 416 687
f 328 360 412
f 666 395 349
f 668 417 368
f 361 391 627
f 396 346 320
f 496 427 358
f 704 390 347
f 683 389 345
f 336 376 636
f 538 356 404
f 322 356 573
f 318 346 654
f 655 346 396
f 412 360 603
f 343 389 406
f 660 382 354
f 404 451 539
f 523 450 399
f 433 430 468
f 333 371 597
f 455 434 433
f 396 449 656
f 469 430 429
f 381 434 473
f 717 355 325
f 508 439 378
f 441 439 529
f 593 360 330
f 543 321 313
f 435 380 721
f 407 447 615
f 720 436 435
f 730 379 440
f 341 446 374
f 431 436 727
f 440 442 731
f 733 432 431
f 309 308 678
f 742 442 443
f 445 432 740
f 345 428 633
f 719 311 310
f 644 329 328
f 307 446 536
f 348 390 312
f 754 755 753
f 756 409 383
f 752 757 756
f 388 414 754
f 744 755 754
f 746 409 756
f 756 757 746
f 754 414 744
f 365 444 624
f 420 391 363
f 384 409 745
f 747 414 387
f 497 448 426
f 338 447 377
f 350 395 315
f 633 428 336
f 319 410 337
f 423 758 399
f 354 416 351
f 323 415 340
f 369 417 365
f 624 444 327
f 689 370 701
f 331 427 496
f 537 415 322
f 334 428 344
f 399 758 524
f 616 410 318
f 358 448 497
f 384 450 385
f 359 427 333
f 363 362 522
f 386 451 387
f 687 416 353
f 325 444 364
f 313 395 666
f 392 449 368
f 627 391 422
f 372 417 668
f 536 446 341
f 424 448 373
f 615 447 338
f 374 446 309
f 524 758 375
f 310 390 704
f 375 758 305
f 405 389 683
f 377 447 408
f 368 449 398
f 422 421 441
f 636 376 419
f 573 356 538
f 429 425 424
f 387 451 403
f 654 346 655
f 603 360 593
f 413 382 660
f 400 450 384
f 539 451 386
f 597 371 438
f 385 450 523
f 438 355 717
f 656 449 392
f 473 434 455
f 419 321 543
f 468 430 469
f 529 439 508
f 721 380 722
f 722 379 730
f 380 379 722
f 727 436 720
f 731 442 742
f 740 432 733
f 678 308 405
f 408 311 719
f 453 757 752
f 753 755 452
f 305 758 423
f 443 755 744
f 745 409 746
f 746 757 445
f 744 414 747
f 445 757 453
f 452 755 443
f 443 421 452
f 453 425 445
f 759 760 761
f 100 762 763
f 104 764 765
f 766 767 153
f 49 768 769
f 63 770 771
f 120 772 773
f 107 773 762
f 115 767 774
f 765 775 297
f 776 777 778
f 779 780 781
f 782 783 784
f 769 766 183
f 135 785 786
f 787 788 779
f 761 785 291
f 763 770 101
f 789 777 790
f 790 791 792
f 134 786 772
f 775 776 793
f 794 795 788
f 774 764 103
f 791 782 796
f 780 797 798
f 771 768 64
f 783 799 800
f 801 797 760
f 799 795 802
f 100 763 101
f 49 769 183
f 107 762 100
f 101 770 63
f 104 765 297
f 297 775 793
f 796 782 784
f 115 774 103
f 789 790 792
f 183 766 153
f 793 776 778
f 781 780 798
f 801 760 759
f 759 761 291
f 103 764 104
f 63 771 64
f 792 791 796
f 784 783 800
f 153 767 115
f 291 785 135
f 120 773 107
f 794 788 787
f 134 772 120
f 64 768 49
f 787 779 781
f 798 797 801
f 778 777 789
f 135 786 134
f 800 799 802
f 802 795 794
f 386 774 539
f 651 761 650
f 643 786 652
f 657 773 642
f 635 780 632
f 491 777 518
f 660 795 413
f 612 763 645
f 632 779 631
f 551 771 577
f 538 766 573
f 650 760 659
f 659 797 635
f 572 768 551
f 394 791 522
f 753 775 754
f 631 788 660
f 413 799 411
f 652 785 651
f 388 764 386
f 411 783 644
f 539 767 538
f 754 765 388
f 644 782 394
f 522 790 491
f 645 762 657
f 573 769 572
f 518 776 753
f 642 772 643
f 577 770 612
f 761 760 650
f 788 795 660
f 773 772 642
f 769 768 572
f 786 785 652
f 765 764 388
f 538 767 766
f 760 797 659
f 771 770 577
f 779 788 631
f 762 773 657
f 632 780 779
f 651 785 761
f 772 786 643
f 763 762 645
f 518 777 776
f 644 783 782
f 635 797 780
f 573 766 769
f 774 767 539
f 754 775 765
f 753 776 775
f 394 782 791
f 790 777 491
f 411 799 783
f 413 795 799
f 386 764 774
f 522 791 790
f 612 770 763
f 551 768 771
f 803 804 805
f 805 804 806
f 807 808 806
f 809 810 811
f 810 812 811
f 813 814 815
f 808 816 806
f 817 814 813
f 818 819 820
f 817 821 822
f 814 817 822
f 823 824 825
f 826 813 827
f 825 824 828
f 829 818 820
f 813 830 827
f 831 832 833
f 804 803 834
f 832 831 828
f 835 818 836
f 816 805 806
f 818 835 837
f 819 838 820
f 810 839 807
f 807 839 808
f 840 841 842
f 826 843 841
f 841 843 842
f 844 843 826
f 845 826 827
f 846 847 824
f 848 849 847
f 846 848 847
f 849 850 847
f 851 852 842
f 852 840 842
f 853 851 842
f 854 812 810
f 854 855 812
f 854 856 855
f 856 857 855
f 855 858 812
f 859 858 855
f 860 861 804
f 367 647 839
f 648 658 823
f 558 752 814
f 596 550 803
f 617 623 862
f 756 383 830
f 500 515 863
f 523 524 864
f 375 304 831
f 571 547 865
f 656 392 809
f 654 655 835
f 646 599 816
f 649 653 829
f 852 866 840
f 867 860 804
f 852 867 866
f 861 856 854
f 852 860 867
f 838 848 846
f 819 848 838
f 851 860 852
f 860 856 861
f 859 819 858
f 859 848 819
f 851 856 860
f 857 859 855
f 851 857 856
f 859 849 848
f 857 849 859
f 853 857 851
f 853 849 857
f 853 850 849
f 843 853 842
f 847 868 824
f 843 850 853
f 844 850 843
f 850 868 847
f 844 868 850
f 844 832 868
f 845 844 826
f 845 832 844
f 854 810 807
f 858 819 818
f 826 841 813
f 845 864 832
f 861 854 807
f 869 865 834
f 870 865 871
f 834 865 870
f 841 840 817
f 830 813 815
f 839 810 872
f 840 866 821
f 865 873 871
f 832 864 833
f 868 832 828
f 812 858 837
f 824 823 874
f 810 809 872
f 841 817 813
f 862 838 875
f 818 829 836
f 861 807 806
f 867 804 834
f 831 825 828
f 838 862 820
f 838 846 875
f 821 863 822
f 876 864 845
f 811 812 837
f 876 845 827
f 817 840 821
f 385 523 876
f 653 654 836
f 515 558 822
f 803 550 869
f 647 646 808
f 558 814 822
f 523 864 876
f 752 756 815
f 823 658 877
f 571 865 869
f 648 823 825
f 599 596 805
f 596 803 805
f 392 367 872
f 367 839 872
f 809 392 872
f 658 629 877
f 814 752 815
f 865 547 873
f 524 375 833
f 864 524 833
f 547 500 873
f 550 571 869
f 646 816 808
f 863 515 822
f 829 653 836
f 304 648 825
f 375 831 833
f 500 863 873
f 816 599 805
f 756 830 815
f 654 835 836
f 839 647 808
f 831 304 825
f 804 861 806
f 656 809 878
f 835 655 878
f 649 829 879
f 862 623 879
f 617 862 880
f 830 383 881
f 846 824 874
f 877 875 874
f 824 868 828
f 821 866 871
f 655 656 878
f 875 877 880
f 866 867 870
f 835 811 837
f 623 649 879
f 629 617 880
f 858 818 837
f 809 811 878
f 811 835 878
f 383 385 881
f 875 846 874
f 827 830 881
f 862 875 880
f 829 820 879
f 820 862 879
f 876 827 881
f 866 870 871
f 863 821 871
f 877 629 880
f 385 876 881
f 803 869 834
f 867 834 870
f 823 877 874
f 873 863 871
f 882 883 884
f 286 273 885
f 886 887 888
f 887 886 889
f 890 891 892
f 893 894 895
f 286 885 896
f 897 898 899
f 891 900 892
f 901 902 903
f 904 882 884
f 905 242 906
f 907 908 909
f 910 907 909
f 897 911 898
f 912 913 914
f 915 905 906
f 916 901 903
f 894 893 917
f 909 918 919
f 894 898 895
f 919 918 920
f 912 914 921
f 922 923 924
f 925 926 905
f 908 918 909
f 923 927 924
f 928 907 910
f 929 930 906
f 931 932 920
f 928 923 933
f 886 900 889
f 907 928 933
f 934 935 936
f 937 938 884
f 937 939 938
f 926 925 940
f 941 942 943
f 944 945 946
f 931 920 947
f 883 937 884
f 923 922 933
f 927 944 924
f 900 886 892
f 948 949 917
f 930 929 950
f 899 898 894
f 951 952 953
f 954 955 956
f 890 957 891
f 958 959 960
f 949 961 917
f 893 948 917
f 955 962 956
f 963 941 943
f 934 964 965
f 924 944 946
f 893 895 966
f 967 966 968
f 967 969 970
f 966 895 968
f 930 971 972
f 902 973 903
f 934 936 974
f 975 976 972
f 977 978 962
f 979 980 962
f 976 930 972
f 981 919 982
f 969 967 968
f 970 969 983
f 975 972 984
f 977 985 978
f 939 963 938
f 961 986 987
f 988 989 986
f 979 962 955
f 961 987 958
f 882 951 953
f 981 990 910
f 991 992 993
f 994 995 996
f 988 997 989
f 986 989 987
f 998 999 1000
f 962 978 956
f 955 954 1001
f 798 973 902
f 987 1002 885
f 800 1003 1004
f 1005 970 983
f 981 910 909
f 980 977 962
f 989 1002 987
f 1000 975 984
f 1006 992 965
f 958 987 885
f 1007 1002 989
f 1007 1008 1002
f 1009 992 1006
f 949 986 961
f 915 925 905
f 973 801 1010
f 999 1011 1000
f 981 909 919
f 1012 981 982
f 952 902 901
f 998 1000 984
f 1013 986 949
f 992 1014 993
f 1015 893 966
f 1016 1017 993
f 988 986 1013
f 1018 1019 1020
f 778 789 900
f 952 781 902
f 1021 1004 963
f 930 915 906
f 1009 1014 992
f 985 988 978
f 994 1022 995
f 990 1023 910
f 1012 990 981
f 1024 994 996
f 1025 911 1026
f 1023 928 910
f 1027 1024 1028
f 798 801 973
f 976 925 915
f 801 759 1010
f 1029 949 948
f 918 1009 1006
f 787 781 952
f 1019 1030 1031
f 1015 948 893
f 1017 991 993
f 1032 1033 953
f 1034 1012 982
f 1011 1035 1027
f 972 1036 984
f 1017 971 935
f 1037 1038 1030
f 985 997 988
f 1031 1039 1040
f 1021 784 1004
f 1017 1036 971
f 1003 802 904
f 1016 1041 1036
f 1013 949 1029
f 1037 1030 1019
f 887 796 1021
f 792 796 887
f 1016 1036 1017
f 1036 1041 984
f 1042 948 1015
f 784 800 1004
f 975 1028 976
f 800 802 1003
f 976 1028 925
f 1031 1043 1039
f 1044 1045 1038
f 1046 999 998
f 1029 948 1042
f 1044 1038 1037
f 1047 1048 1005
f 997 1007 989
f 1027 1028 975
f 1049 927 923
f 781 798 902
f 1027 1035 1024
f 1050 1051 1046
f 945 980 979
f 1042 1015 1052
f 1052 1015 1053
f 1039 1054 1025
f 1046 1051 999
f 1025 1055 911
f 976 915 930
f 991 935 934
f 1020 1040 912
f 1052 1053 1056
f 1011 1027 1000
f 1045 1047 1005
f 1031 1030 1043
f 802 794 904
f 1057 1058 1059
f 1049 923 928
f 796 784 1021
f 967 1053 966
f 1060 958 960
f 1005 1048 970
f 1038 1045 1005
f 1019 1031 1020
f 1061 1014 1009
f 1058 1062 1050
f 1063 998 1041
f 971 1036 972
f 1064 1053 967
f 1065 1045 1044
f 1050 1062 1051
f 1066 1041 1016
f 1041 998 984
f 1023 1049 928
f 1053 1015 966
f 1067 1019 1018
f 1058 1050 1059
f 1039 1043 1054
f 1017 935 991
f 1064 967 970
f 1068 1057 1059
f 1069 1016 993
f 1031 1040 1020
f 1056 1064 1070
f 1070 1048 1057
f 1024 1071 994
f 1046 998 1063
f 1056 1053 1064
f 1028 1024 996
f 911 1055 898
f 1025 1054 1055
f 1072 1069 1014
f 1057 1047 1058
f 1043 1030 983
f 999 1073 1011
f 1074 1075 1076
f 1070 1057 1068
f 1056 1070 1077
f 1027 975 1000
f 1078 1079 1080
f 1068 1081 1082
f 908 1009 918
f 1011 1083 1035
f 1013 1029 956
f 1014 1069 993
f 969 1043 983
f 925 1028 996
f 1084 1047 1045
f 1063 1066 1085
f 1038 1005 983
f 1058 1084 1062
f 1084 1045 1065
f 1066 1074 1085
f 988 1013 978
f 1052 1056 1086
f 1070 1064 1048
f 1076 1075 1087
f 994 916 1022
f 1037 1019 1067
f 1066 1016 1069
f 999 1051 1073
f 1029 1042 954
f 1063 1041 1066
f 1029 954 956
f 1088 1089 1090
f 1063 1085 1091
f 1072 1014 1061
f 1057 1048 1047
f 1092 1089 1088
f 234 233 1093
f 1046 1063 1091
f 1068 1059 1081
f 1059 1050 1091
f 1030 1038 983
f 1074 1076 1085
f 1058 1047 1084
f 1078 1080 1094
f 1065 1044 1095
f 1042 1052 1096
f 1024 1035 1071
f 1086 1056 1077
f 1077 1082 1097
f 1048 1064 970
f 1098 883 1033
f 963 939 941
f 1054 1043 969
f 229 228 936
f 1087 1099 1100
f 1066 1069 1074
f 1070 1068 1077
f 1080 1079 1101
f 1074 1072 1075
f 1087 1075 1099
f 1100 1102 1103
f 1050 1046 1091
f 254 23 897
f 945 979 946
f 1074 1069 1072
f 1011 1073 1083
f 250 249 913
f 276 229 929
f 1098 1079 1078
f 1051 1062 1101
f 883 1078 937
f 954 1042 1096
f 1035 1083 1104
f 247 246 964
f 1073 1051 1101
f 1105 1102 922
f 1067 1018 1089
f 898 1055 895
f 1083 1073 1079
f 1098 1033 1104
f 1061 1009 908
f 1106 1065 1107
f 1083 1079 1098
f 1079 1073 1101
f 1100 1099 1102
f 1098 1078 883
f 1052 1086 1096
f 1033 883 882
f 249 263 1108
f 257 243 926
f 1092 1088 886
f 1103 1102 1105
f 979 955 1109
f 1055 1054 968
f 267 255 959
f 937 1094 939
f 1044 1037 1110
f 978 1013 956
f 1082 1087 1097
f 1071 1035 1104
f 994 1071 916
f 1105 922 924
f 1095 1044 1110
f 937 1078 1094
f 1037 1067 1110
f 1111 1092 942
f 246 252 931
f 1083 1098 1104
f 1077 1068 1082
f 1081 1076 1082
f 1061 908 1112
f 258 257 1113
f 895 1055 968
f 263 272 1114
f 1099 1075 1115
f 929 229 936
f 1080 1101 1106
f 1111 1089 1092
f 1112 908 907
f 1054 969 968
f 1080 1106 1107
f 1099 1115 1116
f 1075 1072 1115
f 1101 1062 1106
f 1067 1089 1111
f 1084 1065 1106
f 1072 1061 1115
f 272 284 957
f 252 264 932
f 4 258 1117
f 922 1102 1116
f 1067 1111 1110
f 249 1108 913
f 1061 1112 1115
f 914 1108 1118
f 1059 1091 1081
f 1085 1076 1081
f 1062 1084 1106
f 913 1108 914
f 1076 1087 1082
f 1094 1080 1107
f 1087 1100 1097
f 1091 1085 1081
f 964 246 931
f 1102 1099 1116
f 1095 1110 1119
f 257 926 1113
f 244 1026 1120
f 1108 263 1114
f 1065 1095 1107
f 1086 1077 1097
f 1115 1112 1116
f 991 934 965
f 1096 1086 1121
f 939 1094 1122
f 252 932 931
f 918 1006 920
f 1110 1111 1119
f 272 957 1114
f 1107 1095 1122
f 979 1109 946
f 1094 1107 1122
f 1086 1097 1121
f 1117 258 1113
f 992 991 965
f 1111 942 1119
f 1100 1103 1121
f 1118 1108 1114
f 1112 907 933
f 1122 1095 1119
f 1097 1100 1121
f 1096 1121 1001
f 1116 1112 933
f 954 1096 1001
f 922 1116 933
f 1026 244 1123
f 793 778 891
f 882 904 951
f 1121 1103 1001
f 1025 1026 1124
f 1040 1039 1124
f 1040 1124 1125
f 5 4 1126
f 264 271 1127
f 1089 1018 1090
f 1114 957 890
f 1118 1114 890
f 955 1001 1109
f 964 934 974
f 897 899 1128
f 1010 1126 1129
f 914 1118 1090
f 1001 1103 1109
f 1008 295 896
f 295 286 896
f 894 917 1060
f 885 1002 896
f 900 789 889
f 917 961 1060
f 778 900 891
f 913 912 1130
f 792 887 889
f 971 930 950
f 1103 1105 1109
f 901 1032 953
f 963 1004 938
f 982 919 1131
f 1124 1093 1125
f 1109 1105 946
f 1105 924 946
f 920 1006 947
f 787 952 951
f 904 794 951
f 885 273 1132
f 932 264 1127
f 4 1117 1126
f 1093 233 1130
f 901 916 1032
f 250 913 1130
f 961 958 1060
f 243 242 905
f 899 894 960
f 1092 886 888
f 959 1128 960
f 1039 1025 1124
f 242 276 906
f 759 291 1133
f 299 1034 1134
f 1104 1033 1032
f 887 1021 943
f 916 1071 1032
f 291 5 1133
f 271 299 1134
f 925 996 940
f 1020 912 921
f 939 1122 941
f 959 958 1132
f 23 244 1120
f 1127 982 1131
f 254 897 1128
f 1119 942 941
f 959 255 1128
f 936 228 974
f 244 234 1123
f 247 964 974
f 297 793 1135
f 284 297 1135
f 894 1060 960
f 886 1088 892
f 1088 1090 1136
f 1113 995 1137
f 914 1090 921
f 273 267 1132
f 1090 1018 921
f 1117 1113 1137
f 911 897 1120
f 1010 1129 1138
f 789 792 889
f 995 1113 940
f 233 250 1130
f 1090 1118 1136
f 1113 926 940
f 942 1092 888
f 1004 1003 938
f 888 887 943
f 938 1003 884
f 1128 899 960
f 1022 916 903
f 267 959 1132
f 1124 1026 1123
f 1003 904 884
f 1033 882 953
f 794 787 951
f 1071 1104 1032
f 926 243 905
f 936 935 950
f 1122 1119 941
f 929 936 950
f 1126 1117 1129
f 964 931 947
f 952 901 953
f 276 929 906
f 965 964 947
f 958 885 1132
f 897 23 1120
f 1026 911 1120
f 793 891 1135
f 919 920 1131
f 1021 963 943
f 1093 1124 1123
f 1006 965 947
f 996 995 940
f 935 971 950
f 1002 1008 896
f 973 1010 1138
f 1010 759 1133
f 1034 982 1134
f 920 932 1131
f 255 254 1128
f 891 957 1135
f 995 1022 1137
f 1018 1020 921
f 1129 1022 1138
f 1093 1130 1125
f 228 247 974
f 1022 903 1138
f 5 1126 1133
f 1127 271 1134
f 957 284 1135
f 912 1040 1125
f 234 1093 1123
f 942 888 943
f 1118 890 1136
f 1126 1010 1133
f 982 1127 1134
f 932 1127 1131
f 1022 1129 1137
f 1130 912 1125
f 890 892 1136
f 1129 1117 1137
f 892 1088 1136
f 903 973 1138
f 1139 1140 1141
f 1142 1143 1144
f 1145 1140 1139
f 1146 1147 1148
f 1149 1147 1146
f 1150 1151 1152
f 1150 1152 1153
f 1143 1154 1144
f 1155 1156 1153
f 1153 1156 1150
f 1142 1157 1158
f 1144 1157 1142
f 1159 1160 1161
f 1159 1162 1160
f 1152 1163 1164
f 1165 1166 1167
f 1167 1168 1165
f 1158 1169 1142
f 1170 1163 1152
f 1171 1172 1173
f 1141 1174 1139
f 1173 1162 1171
f 1161 1154 1159
f 1166 1169 1175
f 1166 1175 1167
f 1159 1154 1143
f 1148 1147 1176
f 1164 1163 1177
f 1178 1164 1177
f 1179 1159 1180
f 1181 1180 1182
f 1182 1180 1143
f 1183 1180 1181
f 1184 1185 1186
f 1187 1185 1184
f 1180 1159 1143
f 1188 1185 1189
f 1186 1185 1188
f 1189 1185 1190
f 1191 1192 1193
f 1194 1193 1195
f 1193 1192 1195
f 1196 1193 1194
f 1197 1193 1196
f 1198 1139 1199
f 161 1167 182
f 990 1170 1023
f 980 1200 977
f 1049 1150 927
f 147 1173 282
f 174 1161 146
f 140 1158 171
f 142 1149 127
f 1008 1176 295
f 985 1141 997
f 944 1201 945
f 299 1202 1034
f 136 1144 138
f 148 1203 129
f 1204 1186 1188
f 1199 1204 1188
f 1194 1195 1205
f 1191 1193 1197
f 1198 1199 1188
f 1205 1139 1198
f 1182 1143 1142
f 1198 1188 1189
f 1206 1191 1197
f 1194 1205 1198
f 1182 1142 1206
f 1182 1206 1197
f 1194 1198 1189
f 1196 1194 1189
f 1181 1182 1197
f 1196 1189 1190
f 1181 1197 1196
f 1181 1196 1190
f 1190 1185 1187
f 1187 1184 1164
f 1183 1181 1190
f 1187 1164 1178
f 1183 1190 1187
f 1183 1187 1178
f 1179 1180 1183
f 1179 1183 1178
f 1171 1179 1178
f 1205 1145 1139
f 1171 1178 1177
f 1145 1148 1176
f 1205 1148 1145
f 1146 1207 1149
f 1184 1152 1164
f 1202 1171 1177
f 1200 1174 1208
f 1200 1209 1210
f 1195 1148 1205
f 1200 1210 1174
f 1145 1211 1140
f 1149 1207 1212
f 1152 1151 1170
f 1186 1153 1184
f 1204 1155 1186
f 1213 1209 1200
f 1202 1172 1171
f 1171 1162 1179
f 1191 1165 1192
f 1195 1146 1148
f 1142 1169 1206
f 1153 1152 1184
f 1191 1166 1165
f 1139 1174 1199
f 1160 1162 1173
f 1206 1166 1191
f 1165 1168 1203
f 1201 1156 1155
f 1192 1146 1195
f 1202 1177 1214
f 1177 1163 1214
f 1186 1155 1153
f 1034 1214 1012
f 1202 1214 1034
f 147 1160 1173
f 282 1172 299
f 1049 1151 1150
f 129 1168 161
f 1173 1172 282
f 1161 1160 146
f 927 1156 944
f 944 1156 1201
f 1170 1151 1023
f 295 1147 142
f 1158 1157 171
f 1203 1168 129
f 1200 1208 977
f 140 1175 1158
f 142 1147 1149
f 977 1208 985
f 985 1208 1141
f 945 1213 980
f 1176 1147 295
f 997 1140 1007
f 146 1160 147
f 182 1175 140
f 1167 1175 182
f 127 1212 148
f 1023 1151 1049
f 161 1168 1167
f 1141 1140 997
f 980 1213 1200
f 1201 1213 945
f 1150 1156 927
f 299 1172 1202
f 148 1212 1203
f 171 1157 136
f 1149 1212 127
f 136 1157 1144
f 1008 1211 1176
f 1176 1211 1145
f 1007 1211 1008
f 990 1215 1170
f 174 1216 1161
f 1144 1216 138
f 1165 1207 1192
f 1203 1207 1165
f 1179 1162 1159
f 1204 1209 1155
f 1175 1169 1158
f 1199 1210 1204
f 138 1216 174
f 1012 1215 990
f 1170 1215 1163
f 1206 1169 1166
f 1140 1211 1007
f 1192 1207 1146
f 1163 1215 1214
f 1161 1216 1154
f 1154 1216 1144
f 1210 1209 1204
f 1155 1209 1201
f 1214 1215 1012
f 1208 1174 1141
f 1212 1207 1203
f 1174 1210 1199
f 1201 1209 1213
