v -3.55404439 0.75596298 4.50000000
v -2.55161155 0.74246343 4.50000000
v -2.85485424 1.50441592 4.50000000
v -2.86161731 -1.36870278 4.50000000
v -3.93402676 -1.38927101 4.50000000
v -3.11151091 -2.31482229 4.50000000
v -3.43538052 -0.64906191 4.50000000
v -3.01080755 0.10269901 4.50000000
v -4.13397460 0.00000000 4.50000000
v -4.05109776 -2.45456638 4.50000000
v -0.34498064 -0.41302094 4.50000000
v -0.41243332 -0.07115342 4.50000000
v -0.73307150 -0.35231791 4.50000000
v -0.75375000 1.31997736 4.50000000
v -1.35267739 1.06615272 4.50000000
v -0.88432774 0.82884823 4.50000000
v -1.34542386 1.70617066 4.50000000
v -1.80018784 -0.71717915 4.50000000
v -1.65055704 -0.09209805 4.50000000
v -2.41392784 -0.53414661 4.50000000
v -2.19408086 2.06922798 4.50000000
v -2.03083203 1.29699882 4.50000000
v -2.28631290 0.17992981 4.50000000
v -3.72249140 1.64610799 4.50000000
v -1.34546780 -1.70619419 4.50000000
v -2.06920023 -1.26111627 4.50000000
v -2.19408086 -2.06922798 4.50000000
v -1.85997354 0.61395219 4.50000000
v -1.28785035 0.49026641 4.50000000
v -0.73153876 0.05813066 4.50000000
v -1.34304737 -1.06900736 4.50000000
v -4.32613103 1.07856862 4.50000000
v -5.00000000 0.50000000 4.50000000
v -0.49552004 -0.65043019 4.50000000
v -0.75382531 -1.32003792 4.50000000
v -1.12173691 0.03005397 4.50000000
v -5.00000000 -0.50000000 4.50000000
v -0.38717658 0.96460615 4.50000000
v -0.52570457 0.60009014 4.50000000
v -0.17475331 0.65517066 4.50000000
v -0.38723090 -0.96467109 4.50000000
v -0.83753308 -0.86691369 4.50000000
v -4.28908123 -0.73134742 4.50000000
v -5.00000000 -1.50000000 4.50000000
v -4.05109776 2.45456638 4.50000000
v -3.11151091 2.31482229 4.50000000
v -4.42234127 -1.87468799 4.50000000
v -1.27978119 -0.49698302 4.50000000
v -0.24861153 0.20840360 4.50000000
v -0.52039497 0.28356618 4.50000000
v -0.05815891 -0.38019950 4.50000000
v -0.17478408 -0.65522731 4.50000000
v -5.00000000 1.50000000 4.50000000
v -4.36670213 1.81937899 4.50000000
v -5.00000000 2.50000000 4.50000000
v -0.05814308 0.38014805 4.50000000
v -0.00621636 0.12462434 4.50000000
v -0.30552149 0.42547573 4.50000000
v -5.00000000 -2.50000000 4.50000000
v -0.17542734 -0.01607675 4.50000000
v -0.86052695 0.39381874 4.50000000
v -0.00622124 -0.12467331 4.50000000
v -0.20150632 -0.20913590 4.50000000
v -0.11543263 -0.53408838 2.73488129
v -0.28973300 -0.83865738 2.85267716
v -0.17475331 -0.65517066 2.50000000
v -1.76231476 -1.90508492 3.20538913
v -1.61407017 -1.83952978 3.91711242
v -2.64895131 -2.20638675 3.68921671
v -0.38717658 -0.96460615 2.50000000
v -0.54121903 1.13129044 2.92985786
v -0.24302885 0.76993920 2.74938901
v -0.38723090 0.96467109 2.50000000
v -0.27312288 0.81495900 3.03059553
v -0.40623819 -0.98708566 3.25808746
v -0.18470020 -0.67321762 3.39081504
v -0.28586197 -0.83320205 3.62571190
v -0.41675719 0.99923538 3.31554843
v -0.05382428 -0.36583663 3.96941350
v -0.00500752 -0.11185938 4.09850917
v -0.03050977 -0.27575662 4.25527807
v -0.03128189 0.27921335 3.14807449
v -0.12052809 0.54560835 3.05120673
v -0.06897998 0.41383619 3.40294153
v -0.11357941 -0.52983341 4.20417194
v -0.28824497 0.83656509 3.66170551
v -0.16401488 0.63506848 3.96479472
v -0.12802599 0.56210969 3.69880395
v -1.34542386 -1.70617066 2.50000000
v -1.35246957 -1.70993580 2.98287846
v -1.04548464 -1.52985361 3.97136835
v -0.64431975 -1.22760433 3.95717706
v -0.19781756 0.69624777 3.34874261
v -0.63269384 1.21723425 4.01766627
v -1.04066914 1.52673665 3.97322822
v -1.76233769 1.90509467 3.20534753
v -1.04073059 1.52677649 2.90785245
v -1.34546780 1.70619419 2.50000000
v -0.14968174 -0.60712700 2.97793291
v -0.10945282 0.52022791 2.77123147
v -1.12079832 1.57732323 3.48059957
v -0.56174145 -1.15128853 2.88339483
v -0.75375000 -1.31997736 2.50000000
v -0.75382531 1.32003792 2.50000000
v -0.00409363 -0.10114288 3.88187741
v -2.19408086 -2.06922798 2.50000000
v -2.19408086 2.06922798 2.50000000
v -2.64895131 -2.20638675 2.99900962
v -0.27331168 -0.81523271 4.20826172
v -0.06145308 0.39075386 3.85047890
v -0.27326934 0.81517134 4.20827504
v -0.52173697 -1.11188581 3.54583973
v -0.00000000 -0.00002460 4.28419149
v -0.93216904 -1.45368079 3.00311524
v -0.02661717 -0.25761561 3.67254984
v -0.06395972 -0.39859325 3.41049697
v -0.00602757 -0.12271851 3.41185934
v -0.10959615 0.52056464 4.25785697
v -0.73164876 1.30203472 3.31182944
v -0.83824494 -1.38562213 3.45209020
v -1.28339639 -1.67233800 3.42520437
v -0.00010384 0.01611240 3.63762564
v -0.46130732 -1.04884088 4.21414352
v -0.46339811 1.05109981 4.21666478
v -0.18981926 -0.68230515 3.92828205
v -2.73835978 2.22962909 3.25693911
v -0.11714365 -0.53798556 3.66425985
v -1.62362030 1.84391297 3.85660652
v -0.17478408 0.65522731 2.50000000
v -0.05815891 0.38019950 2.50000000
v -0.05814308 -0.38014805 2.50000000
v -0.00913845 0.15108026 3.40644829
v -0.00002213 0.00743782 3.16546468
v -3.11151091 2.31482229 2.50000000
v -0.02637743 -0.25645592 3.16993421
v -0.23857193 -0.76302076 3.13842383
v -0.00617152 -0.12417434 2.94332767
v -0.04348922 0.32901402 4.09112855
v -0.33595313 0.90092547 3.91488698
v -0.02467223 0.24804917 4.28418756
v -3.57947663 -2.39698317 3.32248131
v -0.01003968 0.15834769 3.82989521
v -0.00590065 0.12142043 4.04363499
v -3.57924756 2.39694923 2.99281085
v -3.57947663 2.39698317 3.67751869
v -3.11151091 -2.31482229 2.50000000
v -4.05109776 -2.45456638 2.50000000
v -0.00612826 0.12373864 2.94284358
v -0.02662241 -0.25764090 2.72108427
v -3.57924756 -2.39694923 4.00718915
v -0.02593793 0.25431602 2.72286097
v -0.03478915 0.29439821 3.63723304
v -0.00622124 0.12467331 2.50000000
v -0.00000000 0.00002460 2.71580851
v -0.00621636 -0.12462434 2.50000000
v -2.23356705 2.08247742 3.83016463
v -0.66130719 -1.24255228 3.20122874
v -2.82856448 2.25193626 3.89291163
v -0.11036983 -0.52237840 3.17695119
v -5.00000000 -2.50000000 2.50000000
v -4.32064449 -2.47681631 3.20459239
v -5.00000000 -2.50000000 3.50000000
v -4.32064449 2.47681631 3.79540761
v -5.00000000 2.50000000 3.50000000
v -0.50790981 1.09785310 3.65332386
v -4.38622209 2.48109233 3.14952872
v -4.38622209 -2.48109233 3.85047128
v -0.05850221 -0.38131340 2.95463718
v -0.04987012 0.35221236 2.92990062
v -0.38052317 -0.95661302 3.92535951
v -5.00000000 2.50000000 2.50000000
v -4.05109776 2.45456638 2.50000000
v -0.80595146 1.36106180 3.68899825
v 0.52673523 3.48128363 2.50000000
v 1.19769381 3.27871212 2.50000000
v 1.35229743 4.09283549 2.50000000
v 0.41069741 0.89040250 2.50000000
v 0.00256333 0.85957263 2.50000000
v 0.12452054 0.60976466 2.50000000
v 3.47261195 4.09850125 2.50000000
v 2.43040020 4.15563348 2.50000000
v 2.64650412 3.23801861 2.50000000
v -0.65381723 -4.04814885 2.50000000
v -0.82349116 -3.16778652 2.50000000
v -1.51092224 -3.48769216 2.50000000
v 0.40318374 4.25572238 2.50000000
v -2.30243866 2.94013063 2.50000000
v -1.54650512 3.40233982 2.50000000
v -2.41380871 4.02020200 2.50000000
v -2.42783724 -4.04307873 2.50000000
v -2.30024415 -2.96367628 2.50000000
v -4.36517707 -3.06712110 2.50000000
v -3.42797453 -3.26495728 2.50000000
v 3.12934134 1.60060623 2.50000000
v 2.49474524 1.29902817 2.50000000
v 2.83335202 0.76133647 2.50000000
v -1.34485164 -2.53840541 2.50000000
v -0.52869182 -2.54833337 2.50000000
v -0.73853037 -1.92389719 2.50000000
v 3.48844649 3.02143127 2.50000000
v -0.31183523 -1.49386432 2.50000000
v 0.38706289 0.50208948 2.50000000
v 4.00000000 -5.00000000 2.50000000
v 3.40114140 -4.06782380 2.50000000
v 3.00000000 -5.00000000 2.50000000
v -3.41291757 3.24547814 2.50000000
v -4.36517707 3.06712110 2.50000000
v 3.54957912 0.88869266 2.50000000
v -4.22358212 3.74296299 2.50000000
v -0.17431494 -1.99176146 2.50000000
v 2.65928488 -1.75836379 2.50000000
v 3.45659870 -1.21558731 2.50000000
v 2.74519001 -1.04131853 2.50000000
v -1.51851534 -4.31578395 2.50000000
v 0.97773051 0.92449449 2.50000000
v 0.72468731 0.51826725 2.50000000
v 1.18073073 0.44690619 2.50000000
v 0.34270241 -4.22479040 2.50000000
v -0.07917285 -3.21635282 2.50000000
v -4.23995460 -3.76962901 2.50000000
v 3.06265893 0.15202451 2.50000000
v 3.69653845 0.01893864 2.50000000
v 0.73308290 -3.41826834 2.50000000
v 4.26794919 -4.26794919 2.50000000
v 3.40405707 -2.05404788 2.50000000
v 0.83374858 0.08147016 2.50000000
v 2.02065291 -2.02074204 2.50000000
v 1.95009907 -2.87483986 2.50000000
v 2.65155697 -2.50554661 2.50000000
v -1.42621031 4.24545566 2.50000000
v 4.08676422 1.55052476 2.50000000
v 4.18256343 0.46937777 2.50000000
v 5.00000000 1.00000000 2.50000000
v 1.29489728 -0.05084244 2.50000000
v -0.63812365 1.79334942 2.50000000
v -3.56989178 4.23913787 2.50000000
v 5.00000000 3.00000000 2.50000000
v 4.24059174 3.53436644 2.50000000
v 4.22001161 2.57374145 2.50000000
v 1.55189813 -0.82987007 2.50000000
v 1.02044461 -0.78925170 2.50000000
v 1.14966390 -1.24977839 2.50000000
v 0.69593702 -1.09391933 2.50000000
v 4.16984258 -2.49915853 2.50000000
v 3.36047811 -2.97334420 2.50000000
v 1.73776609 0.33053822 2.50000000
v 1.87076403 -0.31179203 2.50000000
v 2.49749527 -3.42893222 2.50000000
v 1.54378031 0.91347678 2.50000000
v 4.18920079 -1.53533706 2.50000000
v 5.00000000 -1.00000000 2.50000000
v 4.13397460 -0.50000000 2.50000000
v 0.00385717 2.77491538 2.50000000
v -0.64482203 2.38901564 2.50000000
v -0.15637648 2.04514164 2.50000000
v 0.69410548 -1.64724854 2.50000000
v 0.03961366 1.17779757 2.50000000
v 1.32079052 -0.47239661 2.50000000
v 0.34728158 -1.28368917 2.50000000
v 1.86059782 3.34718093 2.50000000
v -0.29405527 1.46712991 2.50000000
v 5.00000000 -2.00000000 2.50000000
v 0.42327002 2.20516158 2.50000000
v 0.14100280 1.59480086 2.50000000
v 0.64243744 1.64349817 2.50000000
v 0.15634691 -1.62533110 2.50000000
v 0.01690260 -1.16412859 2.50000000
v -0.51401776 4.29327267 2.50000000
v -0.20832819 3.57424819 2.50000000
v 0.19570360 0.29021847 2.50000000
v 0.66972787 -0.73143439 2.50000000
v 5.00000000 0.00000000 2.50000000
v 0.86594854 -0.38022684 2.50000000
v -3.57746811 -4.25064152 2.50000000
v 1.05231978 2.12068925 2.50000000
v 1.22784004 1.47047328 2.50000000
v -1.39305584 2.51680027 2.50000000
v 3.53595561 2.26362943 2.50000000
v 3.00000000 5.00000000 2.50000000
v 4.16940056 -3.45282096 2.50000000
v 0.00015248 -0.85798832 2.50000000
v 1.47775861 -2.38157159 2.50000000
v 2.00000000 -5.00000000 2.50000000
v 1.66964642 -4.26589012 2.50000000
v 1.00000000 -5.00000000 2.50000000
v 1.00000000 5.00000000 2.50000000
v 2.00000000 5.00000000 2.50000000
v 2.38067737 0.20127131 2.50000000
v 5.00000000 2.00000000 2.50000000
v 1.57548862 -3.45094414 2.50000000
v 1.16036380 -2.89522735 2.50000000
v 0.47970557 0.20179449 2.50000000
v 2.16334655 0.81194446 2.50000000
v 0.44586761 -0.50271485 2.50000000
v 0.50991287 -0.18360738 2.50000000
v 0.72605885 1.24561209 2.50000000
v 3.29547996 -0.50379236 2.50000000
v -1.00000000 5.00000000 2.50000000
v 0.00000000 5.00000000 2.50000000
v 0.00000000 -5.00000000 2.50000000
v -1.00000000 -5.00000000 2.50000000
v 5.00000000 -3.00000000 2.50000000
v 2.45295096 -4.28155781 2.50000000
v -0.76389249 3.00614826 2.50000000
v 2.04889532 -3.85683107 2.50000000
v 1.74560025 -1.36105677 2.50000000
v 1.33691820 -1.83039835 2.50000000
v 1.01895575 -4.04635339 2.50000000
v 5.00000000 -4.00000000 2.50000000
v 4.00000000 5.00000000 2.50000000
v -2.00000000 -5.00000000 2.50000000
v -3.00000000 -5.00000000 2.50000000
v -3.00000000 5.00000000 2.50000000
v -2.00000000 5.00000000 2.50000000
v 1.93963476 1.40291712 2.50000000
v 2.16331817 -0.90004717 2.50000000
v 0.11860192 -0.59373320 2.50000000
v -4.00000000 5.00000000 2.50000000
v 2.16553242 2.60879606 2.50000000
v 1.71094260 2.02431145 2.50000000
v 0.20207828 -0.30442149 2.50000000
v 0.23438183 -0.01510049 2.50000000
v 5.00000000 4.00000000 2.50000000
v 0.01320814 -2.52539622 2.50000000
v 2.40805151 1.91833659 2.50000000
v 2.90173171 2.47526445 2.50000000
v -1.00946824 2.08436627 2.50000000
v 2.60549265 -0.42508702 2.50000000
v 0.35498983 -2.13052853 2.50000000
v -5.00000000 3.33333333 2.50000000
v -5.00000000 4.16666667 2.50000000
v -5.00000000 -4.16666667 2.50000000
v -5.00000000 -3.33333333 2.50000000
v 1.45790283 2.70013447 2.50000000
v 5.00000000 -5.00000000 2.50000000
v 0.32044157 -0.89105922 2.50000000
v 0.49323046 -2.74000492 2.50000000
v 0.92075904 -2.28665037 2.50000000
v -5.00000000 5.00000000 2.50000000
v -4.36904231 4.42618411 2.50000000
v -4.00000000 -5.00000000 2.50000000
v -4.36904231 -4.42618411 2.50000000
v -5.00000000 -5.00000000 2.50000000
v -0.89580342 3.68425118 2.50000000
v 0.37158884 1.29919201 2.50000000
v 0.79093573 2.77212608 2.50000000
v 5.00000000 5.00000000 2.50000000
v 4.34062851 4.33243096 2.50000000
v 2.27100426 -1.41408264 2.50000000
v -0.16341300 2.04483634 -2.50000000
v -1.01275176 2.53544510 -2.50000000
v -0.10018774 3.16802255 -2.50000000
v 3.18295882 3.15038340 -2.50000000
v 2.58672565 4.10370388 -2.50000000
v 3.50871073 4.16753420 -2.50000000
v -0.14495092 -3.06289753 -2.50000000
v 0.50000000 -4.13397460 -2.50000000
v -0.50880411 -4.12907324 -2.50000000
v 2.30144284 3.32596189 -2.50000000
v -1.96809659 -3.14547392 -2.50000000
v -1.50000000 -4.13397460 -2.50000000
v -2.49369405 -4.13841371 -2.50000000
v -1.50000000 4.13397460 -2.50000000
v -1.95246456 3.10981942 -2.50000000
v -2.49108871 4.13247130 -2.50000000
v 0.86566662 -3.18092670 -2.50000000
v -1.00721125 3.40694550 -2.50000000
v 1.96382901 -3.24706586 -2.50000000
v 1.46899629 -4.11607460 -2.50000000
v -3.00000000 -3.38053117 -2.50000000
v -3.00000000 3.38053117 -2.50000000
v 0.70129639 2.51620869 -2.50000000
v 1.36700232 -2.39445063 -2.50000000
v -1.00916900 -3.39165363 -2.50000000
v 0.78119527 -1.54971146 -2.50000000
v 1.69696524 -1.70554587 -2.50000000
v 0.54541500 -2.40718707 -2.50000000
v 3.49751273 -4.15111965 -2.50000000
v 3.01243344 -3.34614857 -2.50000000
v 4.05826388 -3.41679050 -2.50000000
v 4.15322795 3.49576263 -2.50000000
v 1.53589838 3.00000000 -2.50000000
v 1.52898389 3.99418396 -2.50000000
v 2.45690885 -1.42485541 -2.50000000
v 3.26794919 -1.00000000 -2.50000000
v 3.33112632 -1.91282358 -2.50000000
v -3.49406768 -4.17050260 -2.50000000
v -4.06145656 -3.44093390 -2.50000000
v -4.06145656 3.44093390 -2.50000000
v -3.49406768 4.17050260 -2.50000000
v -2.78437245 2.48773791 -2.50000000
v -2.78786573 -2.49278543 -2.50000000
v 3.44848486 -2.70899068 -2.50000000
v 0.82687876 3.36612648 -2.50000000
v 2.47737370 -2.40921572 -2.50000000
v -3.50350027 -2.75480771 -2.50000000
v -3.50280161 2.75379820 -2.50000000
v 3.00000000 -5.00000000 -2.50000000
v 2.50000000 -4.13397460 -2.50000000
v -2.79422863 1.50000000 -2.50000000
v -1.92820323 2.00000000 -2.50000000
v -1.92728824 1.00126490 -2.50000000
v 4.00000000 -5.00000000 -2.50000000
v -2.79422863 0.50000000 -2.50000000
v -1.05669107 1.50758021 -2.50000000
v 5.00000000 2.00000000 -2.50000000
v 4.13397460 1.50000000 -2.50000000
v 4.13718349 2.49929377 -2.50000000
v 5.00000000 0.00000000 -2.50000000
v 4.13397460 -0.50000000 -2.50000000
v 4.13397460 0.50000000 -2.50000000
v 5.00000000 -2.00000000 -2.50000000
v 4.18146694 -2.44332543 -2.50000000
v 4.15457436 -1.49055424 -2.50000000
v 1.00000000 -5.00000000 -2.50000000
v -1.00000000 -5.00000000 -2.50000000
v -3.00000000 -5.00000000 -2.50000000
v -5.00000000 -2.00000000 -2.50000000
v -4.13397460 -1.50000000 -2.50000000
v -4.20407743 -2.45978803 -2.50000000
v -5.00000000 0.00000000 -2.50000000
v -4.13397460 0.50000000 -2.50000000
v -4.13397460 -0.50000000 -2.50000000
v -5.00000000 2.00000000 -2.50000000
v -4.20407743 2.45978803 -2.50000000
v -4.13397460 1.50000000 -2.50000000
v -2.00000000 5.00000000 -2.50000000
v 0.00000000 5.00000000 -2.50000000
v 0.46840291 4.15221719 -2.50000000
v -0.50526618 4.15774097 -2.50000000
v 2.00000000 5.00000000 -2.50000000
v -1.06217783 -0.50000000 -2.50000000
v -1.92820006 0.00000918 -2.50000000
v -1.06097178 0.50191171 -2.50000000
v -2.79422863 -0.50000000 -2.50000000
v 2.40119946 0.50125458 -2.50000000
v 2.39757781 -0.49247255 -2.50000000
v 1.53505333 0.00146367 -2.50000000
v -0.19550220 0.00197102 -2.50000000
v 0.67333769 -0.49007244 -2.50000000
v -0.19546660 -0.99801690 -2.50000000
v 0.67030959 0.50189854 -2.50000000
v -0.19597128 1.00064493 -2.50000000
v 0.66997594 1.50042391 -2.50000000
v 1.53635227 1.00117013 -2.50000000
v -1.92818100 -1.99993573 -2.50000000
v -1.06206352 -1.49966948 -2.50000000
v -1.05426648 -2.47759650 -2.50000000
v -0.21099870 -1.97366892 -2.50000000
v 5.00000000 4.00000000 -2.50000000
v 5.00000000 3.00000000 -2.50000000
v 5.00000000 1.00000000 -2.50000000
v 5.00000000 -1.00000000 -2.50000000
v 5.00000000 -3.00000000 -2.50000000
v 2.00000000 -5.00000000 -2.50000000
v 0.00000000 -5.00000000 -2.50000000
v -2.00000000 -5.00000000 -2.50000000
v -4.00000000 -5.00000000 -2.50000000
v -5.00000000 -1.00000000 -2.50000000
v -5.00000000 1.00000000 -2.50000000
v -5.00000000 3.00000000 -2.50000000
v -4.00000000 5.00000000 -2.50000000
v -3.00000000 5.00000000 -2.50000000
v -1.00000000 5.00000000 -2.50000000
v 1.00000000 5.00000000 -2.50000000
v 3.00000000 5.00000000 -2.50000000
v 1.55753171 -0.94189834 -2.50000000
v -1.92818418 -0.99994491 -2.50000000
v 3.26794919 0.00000000 -2.50000000
v 3.26747740 0.99953489 -2.50000000
v -2.79422863 -1.50000000 -2.50000000
v 1.53965152 2.00198007 -2.50000000
v 2.38580249 2.47132366 -2.50000000
v 2.39981735 1.49595474 -2.50000000
v -5.00000000 -3.00000000 -2.50000000
v 3.26536742 1.99435118 -2.50000000
v 5.00000000 -4.00000000 -2.50000000
v -5.00000000 -4.00000000 -2.50000000
v -5.00000000 4.00000000 -2.50000000
v 4.00000000 5.00000000 -2.50000000
v 5.00000000 -5.00000000 -2.50000000
v 4.26794919 -4.26794919 -2.50000000
v 5.00000000 5.00000000 -2.50000000
v 4.26794919 4.26794919 -2.50000000
v -5.00000000 -5.00000000 -2.50000000
v -4.26794919 -4.26794919 -2.50000000
v -5.00000000 5.00000000 -2.50000000
v -4.26794919 4.26794919 -2.50000000
v -3.46410162 -1.00000000 -2.50000000
v -3.46410162 -2.00000000 -2.50000000
v -3.46410162 1.00000000 -2.50000000
v -3.46410162 0.00000000 -2.50000000
v -3.46410162 2.00000000 -2.50000000
v -3.49576263 -5.00000000 -1.65322795
v -3.03033941 -5.00000000 -0.85442527
v -4.06128951 -5.00000000 -0.91952096
v 3.03145650 -5.00000000 -0.85172007
v 3.49833804 -5.00000000 -1.65136137
v 4.06181701 -5.00000000 -0.91886785
v 4.19213809 -5.00000000 0.96974051
v 3.42627764 -5.00000000 1.54780204
v 3.42830305 -5.00000000 0.56285649
v -3.42437847 -5.00000000 1.54670993
v -4.19191200 -5.00000000 0.96961050
v -3.42784847 -5.00000000 0.56318118
v 3.44875112 -5.00000000 -0.20938385
v -3.44875112 -5.00000000 -0.20938385
v 2.74872426 -5.00000000 0.93765037
v -2.73976514 -5.00000000 0.93112139
v -0.48669034 -5.00000000 0.07403287
v 0.01141608 -5.00000000 0.88778608
v -0.98626058 -5.00000000 0.88448989
v 1.49995325 -5.00000000 1.69612566
v 0.50844354 -5.00000000 1.69210524
v 2.00102863 -5.00000000 -0.77155253
v 2.50000000 -5.00000000 -1.63397460
v 1.50067467 -5.00000000 -1.63503021
v 1.00301941 -5.00000000 -0.77067954
v 0.50000000 -5.00000000 -1.63397460
v 0.00222155 -5.00000000 -0.77197127
v 2.46993217 -5.00000000 1.68516856
v -0.49990277 -5.00000000 -1.63415296
v -1.50000000 -5.00000000 -1.63397460
v -2.49929377 -5.00000000 -1.63718349
v -0.99998038 -5.00000000 -0.76803833
v -2.45662752 -5.00000000 1.67751600
v -1.49118716 -5.00000000 1.68079622
v -0.49049544 -5.00000000 1.67521051
v -1.99988230 -5.00000000 -0.76848401
v -5.00000000 -5.00000000 0.50000000
v -5.00000000 -5.00000000 -0.50000000
v -4.18622422 -5.00000000 0.04833953
v 5.00000000 -5.00000000 -0.50000000
v 5.00000000 -5.00000000 0.50000000
v 4.18622422 -5.00000000 0.04833953
v 0.51589492 -5.00000000 0.08571619
v 1.50315239 -5.00000000 0.07918653
v 1.02978733 -5.00000000 0.89350919
v 2.57667250 -5.00000000 0.08952707
v -1.50000000 -5.00000000 0.09807621
v -2.57605989 -5.00000000 0.09268957
v -5.00000000 -5.00000000 1.50000000
v -5.00000000 -5.00000000 -1.50000000
v 5.00000000 -5.00000000 1.50000000
v 5.00000000 -5.00000000 -1.50000000
v 1.96987539 -5.00000000 0.89577177
v 4.26794919 -5.00000000 1.76794919
v 4.26794919 -5.00000000 -1.76794919
v -4.26794919 -5.00000000 -1.76794919
v -4.26794919 -5.00000000 1.76794919
v -1.96060662 -5.00000000 0.89103746
v -5.00000000 -0.85337641 2.59470434
v -5.00000000 -1.68319598 3.04728508
v -5.00000000 -0.93685607 3.60187280
v -5.00000000 0.98314367 3.60279277
v -5.00000000 1.70945794 3.03787551
v -5.00000000 0.94271103 2.59786782
v -5.00000000 0.38357314 3.11806789
v -5.00000000 5.00000000 0.50000000
v -5.00000000 4.23265005 0.00297109
v -5.00000000 4.21751682 1.03981351
v -5.00000000 -0.29050573 3.08270554
v -5.00000000 0.02924197 3.75214137
v -5.00000000 0.54974171 -1.54902638
v -5.00000000 -0.49481252 -1.72598020
v -5.00000000 2.50756110 -1.71001641
v -5.00000000 1.55314336 -1.72790960
v -5.00000000 -3.45147501 -0.52989930
v -5.00000000 -3.49933727 -1.61983894
v -5.00000000 -4.24585018 -0.98854474
v -5.00000000 -1.50682376 -1.69324579
v -5.00000000 -2.50642213 -1.67762945
v -5.00000000 0.70825763 -0.54749585
v -5.00000000 -0.05644378 -0.96232077
v -5.00000000 5.00000000 -0.50000000
v -5.00000000 -4.24942544 -0.00666685
v -5.00000000 -4.18335914 1.03339683
v -5.00000000 4.05478135 -0.99378469
v -5.00000000 1.23754588 -1.06779567
v -5.00000000 3.39350974 -0.31242789
v -5.00000000 3.01014696 -1.05661993
v -5.00000000 3.47479347 -1.75711687
v -5.00000000 5.00000000 -1.50000000
v -5.00000000 -0.73855900 1.00607544
v -5.00000000 -0.32401164 1.79588508
v -5.00000000 0.09510534 1.05047672
v -5.00000000 -1.18685229 1.73341009
v -5.00000000 -1.62343456 1.00362528
v -5.00000000 -2.06061008 1.73168892
v -5.00000000 -0.33939222 0.30746710
v -5.00000000 0.06029607 2.49764288
v -5.00000000 2.06315881 1.73182642
v -5.00000000 1.64884713 1.01891871
v -5.00000000 1.24623100 1.76190147
v -5.00000000 -2.52399839 -0.52797112
v -5.00000000 -2.06612035 0.23532614
v -5.00000000 -1.59630436 -0.46040152
v -5.00000000 -1.18348455 0.26673081
v -5.00000000 -2.49273811 1.01355826
v -5.00000000 2.50077587 1.01413836
v -5.00000000 2.06950425 0.25042615
v -5.00000000 1.23149740 0.27075123
v -5.00000000 1.62733375 -0.54138809
v -5.00000000 -2.91136343 1.77219518
v -5.00000000 2.92152642 1.76701075
v -5.00000000 3.73708467 1.79152645
v -5.00000000 2.53978182 -0.50008788
v -5.00000000 -1.63261060 2.31001349
v -5.00000000 3.60081724 0.40220933
v -5.00000000 -2.91367478 0.27928727
v -5.00000000 3.32780498 1.04887726
v -5.00000000 1.80807065 3.81087008
v -5.00000000 -1.79770643 3.81208288
v -5.00000000 -3.72311532 1.78986627
v -5.00000000 -2.92961607 -1.09806748
v -5.00000000 2.90746127 0.29217323
v -5.00000000 -2.01090661 -1.09963563
v -5.00000000 -1.05663371 -1.05449807
v -5.00000000 4.26085168 -1.76085168
v -5.00000000 0.47100856 1.81197840
v -5.00000000 0.86592193 1.05896830
v -5.00000000 5.00000000 1.50000000
v -5.00000000 4.42618411 1.86904231
v -5.00000000 -4.41462822 1.86465262
v -5.00000000 -0.67451123 -0.38540454
v -5.00000000 -4.27486337 -1.77486337
v -5.00000000 -3.62162714 0.39338343
v -5.00000000 0.44088281 0.30459215
v -5.00000000 1.63467255 2.31050232
v -5.00000000 -3.31778521 1.06456330
v -5.00000000 2.06817835 -1.09635848
v -5.00000000 0.03522954 -0.27262731
v 3.01850631 5.00000000 0.84969465
v 3.49777620 5.00000000 1.65127350
v 4.05988672 5.00000000 0.91856595
v -3.49576263 5.00000000 1.65322795
v -3.03036183 5.00000000 0.85432340
v -4.06129271 5.00000000 0.91950641
v 4.20479477 5.00000000 -0.97603324
v 3.43057454 5.00000000 -1.54048973
v 3.43147171 5.00000000 -0.56128135
v -3.42437847 5.00000000 -1.54670993
v -4.19191200 5.00000000 -0.96961050
v -3.42785128 5.00000000 -0.56319391
v 3.45496189 5.00000000 0.21551034
v -3.44875112 5.00000000 0.20938385
v -2.73976514 5.00000000 -0.93112139
v 2.74756266 5.00000000 -0.93434766
v 0.50000000 5.00000000 1.63397460
v -0.50000000 5.00000000 1.63397460
v -1.50000000 5.00000000 1.63397460
v -2.49929377 5.00000000 1.63718349
v -0.50000000 5.00000000 -1.63397460
v 0.50000000 5.00000000 -1.63397460
v 1.50000000 5.00000000 -1.63397460
v 2.44505661 5.00000000 -1.66193519
v 2.50000000 5.00000000 1.63397460
v 1.50000000 5.00000000 1.63397460
v -2.45662752 5.00000000 -1.67751600
v -1.50000000 5.00000000 -1.63397460
v -1.00000000 5.00000000 0.76794919
v -2.00000000 5.00000000 0.76794919
v 0.00036445 5.00000000 0.76893595
v -4.18622422 5.00000000 -0.04833953
v 5.00000000 5.00000000 0.50000000
v 5.00000000 5.00000000 -0.50000000
v 4.18622422 5.00000000 -0.04833953
v 2.00000000 5.00000000 0.76794919
v 2.57872046 5.00000000 -0.08108805
v 1.00218668 5.00000000 0.77386976
v 1.51312008 5.00000000 -0.06255278
v 0.50133259 5.00000000 -0.07778853
v -1.50000000 5.00000000 -0.09807621
v -2.57607671 5.00000000 -0.09276597
v -0.50000000 5.00000000 -0.09807621
v 5.00000000 5.00000000 1.50000000
v 5.00000000 5.00000000 -1.50000000
v -4.26794919 5.00000000 1.76794919
v 4.26794919 5.00000000 -1.76794919
v 4.26794919 5.00000000 1.76794919
v -4.26794919 5.00000000 -1.76794919
v -1.96207823 5.00000000 -0.88324659
v 1.96277705 5.00000000 -0.87278290
v 1.00000000 5.00000000 -0.86602540
v -1.00000000 5.00000000 -0.86602540
v 0.00000000 5.00000000 -0.86602540
v 5.00000000 3.49576263 1.65322795
v 5.00000000 3.03093998 0.85467371
v 5.00000000 4.06137531 0.91955645
v 5.00000000 -3.49576263 -1.65322795
v 5.00000000 -3.03033941 -0.85442527
v 5.00000000 -4.06128951 -0.91952096
v 5.00000000 3.42437847 -1.54670993
v 5.00000000 4.19191200 -0.96961050
v 5.00000000 3.42791435 -0.56315569
v 5.00000000 -3.42437847 1.54670993
v 5.00000000 -4.19191200 0.96961050
v 5.00000000 -3.42784847 0.56318118
v 5.00000000 -3.44875112 -0.20938385
v 5.00000000 3.44875112 0.20938385
v 5.00000000 2.73976514 -0.93112139
v 5.00000000 -2.73976514 0.93112139
v 5.00000000 -0.02802478 -0.82060762
v 5.00000000 0.48669361 -1.65800308
v 5.00000000 0.98528023 -0.86395005
v 5.00000000 0.02819903 0.82241461
v 5.00000000 -0.48669361 1.65800308
v 5.00000000 -0.99458853 0.86582423
v 5.00000000 0.51552412 1.64566179
v 5.00000000 1.50000000 1.63397460
v 5.00000000 2.49973526 1.63745100
v 5.00000000 -0.51773858 -1.64695706
v 5.00000000 -1.50000000 -1.63397460
v 5.00000000 -2.49929377 -1.63718349
v 5.00000000 -1.01328677 -0.77572078
v 5.00000000 -2.45662752 1.67751600
v 5.00000000 -1.49055352 1.67792831
v 5.00000000 2.45662752 -1.67751600
v 5.00000000 1.49055352 -1.67792831
v 5.00000000 -1.99988230 -0.76848401
v 5.00000000 1.01589374 0.77757951
v 5.00000000 2.00264896 0.76955424
v 5.00000000 -4.18622422 0.04833953
v 5.00000000 4.18622422 -0.04833953
v 5.00000000 1.50000000 -0.09807621
v 5.00000000 2.57645513 -0.09253668
v 5.00000000 0.50189211 -0.03855105
v 5.00000000 -1.50000000 0.09807621
v 5.00000000 -2.57605989 0.09268957
v 5.00000000 -0.50135651 0.04585865
v 5.00000000 4.26794919 1.76794919
v 5.00000000 -4.26794919 -1.76794919
v 5.00000000 -4.26794919 1.76794919
v 5.00000000 4.26794919 -1.76794919
v 5.00000000 1.96056689 -0.89053400
v 5.00000000 -1.96050101 0.89055948
f 1 2 3
f 4 5 6
f 7 8 9
f 6 5 10
f 8 1 9
f 11 12 13
f 14 15 16
f 17 15 14
f 18 19 20
f 21 22 17
f 20 19 23
f 8 2 1
f 4 7 5
f 24 1 3
f 25 26 27
f 4 20 7
f 28 19 29
f 20 23 8
f 13 12 30
f 31 26 25
f 9 32 33
f 13 34 11
f 20 8 7
f 35 31 25
f 22 15 17
f 29 19 36
f 37 9 33
f 1 32 9
f 38 39 40
f 41 42 35
f 27 4 6
f 14 16 38
f 5 43 44
f 45 24 46
f 21 3 22
f 5 47 10
f 4 26 20
f 46 3 21
f 42 13 48
f 44 47 5
f 3 2 22
f 44 43 37
f 35 42 31
f 42 34 13
f 24 3 46
f 27 26 4
f 13 30 36
f 49 50 12
f 23 19 28
f 15 29 16
f 51 11 52
f 9 43 7
f 42 48 31
f 7 43 5
f 41 34 42
f 23 2 8
f 53 54 55
f 56 49 57
f 52 34 41
f 33 32 53
f 55 54 45
f 13 36 48
f 16 39 38
f 39 58 40
f 31 18 26
f 37 43 9
f 59 47 44
f 48 19 18
f 10 47 59
f 40 58 56
f 26 18 20
f 48 18 31
f 24 32 1
f 12 60 49
f 2 28 22
f 45 54 24
f 30 61 36
f 62 63 51
f 23 28 2
f 12 50 30
f 57 60 62
f 29 61 16
f 39 61 50
f 36 19 48
f 50 61 30
f 11 63 12
f 36 61 29
f 16 61 39
f 22 28 15
f 51 63 11
f 11 34 52
f 15 28 29
f 39 50 58
f 49 60 57
f 56 58 49
f 24 54 32
f 32 54 53
f 60 63 62
f 58 50 49
f 12 63 60
f 64 65 66
f 67 68 69
f 66 65 70
f 71 72 73
f 74 72 71
f 75 76 77
f 69 68 27
f 78 74 71
f 79 80 81
f 82 83 84
f 52 85 51
f 86 87 88
f 89 90 67
f 91 92 35
f 84 83 93
f 14 94 95
f 96 97 98
f 64 99 65
f 72 83 100
f 14 95 17
f 25 91 35
f 96 101 97
f 79 81 85
f 70 102 103
f 104 71 73
f 70 65 102
f 105 80 79
f 89 67 106
f 107 96 98
f 85 81 51
f 51 81 62
f 69 108 67
f 109 85 52
f 88 87 110
f 41 109 52
f 40 111 38
f 77 112 75
f 62 81 113
f 103 114 89
f 115 105 79
f 116 117 115
f 40 118 111
f 71 119 78
f 120 121 114
f 117 122 115
f 35 123 41
f 38 124 14
f 125 79 85
f 104 97 71
f 107 126 96
f 127 115 79
f 71 97 119
f 17 128 21
f 27 68 25
f 92 123 35
f 129 100 130
f 131 64 66
f 132 133 82
f 14 124 94
f 134 126 107
f 125 127 79
f 93 83 74
f 116 135 117
f 75 136 76
f 6 69 27
f 56 118 40
f 117 132 122
f 117 133 132
f 122 105 115
f 127 116 115
f 91 120 92
f 135 137 133
f 98 97 104
f 73 72 129
f 135 133 117
f 118 138 87
f 109 125 85
f 86 139 87
f 56 140 118
f 141 108 69
f 74 83 72
f 142 138 143
f 126 144 145
f 146 141 147
f 46 145 45
f 62 113 57
f 65 75 102
f 133 148 82
f 105 142 143
f 131 149 64
f 69 150 141
f 133 137 148
f 100 151 130
f 87 138 110
f 132 152 122
f 132 82 84
f 93 74 78
f 130 151 153
f 153 154 155
f 110 138 142
f 155 149 131
f 57 140 56
f 120 112 92
f 88 110 152
f 127 76 116
f 113 140 57
f 122 142 105
f 134 144 126
f 153 151 154
f 126 156 96
f 114 157 120
f 110 142 152
f 151 148 154
f 154 149 155
f 143 80 105
f 6 150 69
f 146 108 141
f 67 108 106
f 132 84 152
f 145 158 126
f 116 159 135
f 113 143 140
f 128 101 96
f 125 77 127
f 148 137 154
f 160 161 162
f 55 163 164
f 147 161 160
f 45 163 55
f 118 87 111
f 95 101 128
f 65 136 75
f 154 137 149
f 119 165 78
f 145 144 166
f 141 150 167
f 135 168 137
f 116 76 159
f 84 88 152
f 112 157 75
f 77 76 127
f 149 168 64
f 95 128 17
f 25 68 91
f 145 166 163
f 141 167 161
f 129 72 100
f 82 169 83
f 159 168 135
f 91 121 120
f 102 114 103
f 21 158 46
f 109 170 125
f 121 90 114
f 97 101 119
f 148 169 82
f 137 168 149
f 84 93 88
f 140 138 118
f 152 142 122
f 113 80 143
f 83 169 100
f 93 78 86
f 81 80 113
f 94 139 165
f 164 166 171
f 162 167 59
f 96 156 128
f 100 169 151
f 93 86 88
f 125 170 77
f 168 99 64
f 59 167 10
f 171 166 172
f 165 139 86
f 46 158 145
f 106 108 146
f 151 169 148
f 94 173 95
f 170 112 77
f 145 163 45
f 141 161 147
f 128 156 21
f 159 99 168
f 94 124 139
f 68 121 91
f 10 150 6
f 172 144 134
f 101 173 119
f 120 157 112
f 119 173 165
f 156 158 21
f 114 90 89
f 67 121 68
f 102 157 114
f 139 124 111
f 111 124 38
f 143 138 140
f 41 123 109
f 76 136 159
f 78 165 86
f 75 157 102
f 109 123 170
f 95 173 101
f 92 112 170
f 167 150 10
f 166 144 172
f 87 139 111
f 136 99 159
f 165 173 94
f 65 99 136
f 170 123 92
f 126 158 156
f 161 167 162
f 163 166 164
f 67 90 121
f 174 175 176
f 177 178 179
f 180 181 182
f 183 184 185
f 176 186 174
f 187 188 189
f 190 185 191
f 147 192 193
f 194 195 196
f 197 198 199
f 147 193 146
f 182 200 180
f 103 199 201
f 179 202 177
f 203 204 205
f 206 207 172
f 196 208 194
f 209 207 206
f 199 210 201
f 211 212 213
f 189 206 187
f 185 214 183
f 191 193 190
f 215 177 216
f 217 215 216
f 183 218 219
f 197 199 89
f 193 192 220
f 221 222 208
f 219 218 223
f 221 208 196
f 134 206 172
f 203 224 204
f 225 212 211
f 217 216 226
f 227 228 229
f 146 193 191
f 188 230 189
f 190 214 185
f 231 232 233
f 217 226 234
f 104 235 98
f 206 236 209
f 237 238 239
f 219 184 183
f 197 184 198
f 240 241 242
f 241 243 242
f 244 225 245
f 246 234 247
f 229 228 248
f 239 238 200
f 249 217 246
f 250 225 244
f 245 229 248
f 251 252 250
f 253 254 255
f 242 243 256
f 257 178 177
f 234 258 247
f 89 199 103
f 243 259 256
f 176 260 181
f 225 229 245
f 103 201 70
f 73 261 104
f 250 244 262
f 263 264 265
f 264 255 261
f 249 215 217
f 181 260 182
f 210 266 201
f 266 267 201
f 217 234 246
f 268 269 186
f 130 270 179
f 177 202 216
f 241 271 243
f 194 208 231
f 201 267 70
f 186 269 174
f 187 206 134
f 73 257 261
f 272 232 252
f 226 273 234
f 220 274 193
f 275 265 276
f 106 197 89
f 98 277 107
f 231 208 232
f 231 278 194
f 252 212 250
f 279 181 180
f 244 245 280
f 276 215 249
f 70 281 66
f 227 282 228
f 283 284 285
f 286 176 287
f 129 178 73
f 288 246 247
f 251 250 262
f 289 231 233
f 223 290 291
f 261 255 235
f 272 252 251
f 216 292 226
f 293 249 246
f 107 187 134
f 146 191 106
f 176 181 287
f 286 186 176
f 294 273 295
f 276 296 215
f 297 212 252
f 245 248 204
f 298 268 299
f 300 183 301
f 289 239 231
f 233 232 272
f 302 244 280
f 283 303 284
f 294 271 273
f 265 296 276
f 304 254 253
f 262 244 302
f 303 305 284
f 189 236 206
f 247 258 240
f 306 240 242
f 268 186 299
f 307 242 256
f 245 204 280
f 193 274 190
f 288 293 246
f 228 290 248
f 284 308 285
f 292 202 270
f 204 303 205
f 229 211 227
f 302 280 309
f 279 180 310
f 263 255 264
f 311 190 312
f 313 189 314
f 208 222 232
f 153 270 130
f 287 181 279
f 256 259 266
f 223 308 290
f 285 308 218
f 253 255 263
f 237 239 289
f 298 230 268
f 183 214 301
f 315 276 249
f 285 218 300
f 277 304 188
f 267 281 70
f 316 247 240
f 130 179 129
f 66 317 131
f 250 212 225
f 73 178 257
f 200 238 180
f 277 254 304
f 318 236 313
f 190 274 312
f 216 202 292
f 182 260 319
f 307 306 242
f 189 230 314
f 311 214 190
f 239 278 231
f 320 275 276
f 317 321 131
f 321 295 322
f 275 263 265
f 306 316 240
f 191 185 197
f 277 188 187
f 323 238 237
f 185 184 197
f 219 324 198
f 325 194 326
f 240 258 241
f 277 327 254
f 293 315 249
f 328 288 247
f 329 256 266
f 198 184 219
f 313 236 189
f 288 196 293
f 300 218 183
f 273 258 234
f 225 211 229
f 248 303 204
f 290 305 248
f 330 209 331
f 332 220 333
f 232 222 252
f 260 334 319
f 98 327 277
f 210 329 266
f 315 320 276
f 335 224 203
f 309 224 335
f 336 281 267
f 317 294 321
f 337 324 219
f 106 191 197
f 277 187 107
f 316 328 247
f 338 307 256
f 228 282 291
f 176 175 260
f 204 224 280
f 339 340 318
f 341 342 343
f 230 344 268
f 326 200 182
f 235 327 98
f 291 290 228
f 326 182 319
f 337 219 223
f 312 274 341
f 328 221 288
f 316 213 328
f 307 227 306
f 177 345 257
f 253 269 304
f 325 195 194
f 346 174 253
f 172 207 171
f 160 192 147
f 346 253 263
f 318 340 236
f 236 340 209
f 270 202 179
f 266 259 267
f 325 319 320
f 221 196 288
f 325 326 319
f 315 325 320
f 329 338 256
f 267 259 336
f 294 295 321
f 337 291 338
f 337 223 291
f 275 346 263
f 131 321 155
f 299 186 286
f 257 264 261
f 171 207 330
f 333 192 160
f 205 303 283
f 314 230 298
f 301 214 311
f 329 337 338
f 320 334 275
f 252 222 297
f 331 340 339
f 343 342 332
f 275 334 346
f 200 278 239
f 295 292 322
f 317 336 294
f 307 282 227
f 199 198 210
f 155 322 153
f 347 348 323
f 310 348 347
f 261 235 104
f 155 321 322
f 255 254 235
f 338 282 307
f 196 195 293
f 260 175 334
f 291 282 338
f 319 334 320
f 293 195 315
f 326 278 200
f 180 348 310
f 213 297 328
f 317 281 336
f 328 297 221
f 322 270 153
f 316 349 213
f 264 345 265
f 334 175 346
f 315 195 325
f 220 342 274
f 280 224 309
f 295 273 226
f 322 292 270
f 227 349 306
f 211 349 227
f 213 212 297
f 290 308 284
f 174 269 253
f 213 349 211
f 226 292 295
f 273 271 241
f 188 344 230
f 241 258 273
f 346 175 174
f 274 342 341
f 215 296 177
f 218 308 223
f 238 348 180
f 297 222 221
f 329 324 337
f 66 281 317
f 194 278 326
f 179 178 129
f 336 259 243
f 304 344 188
f 330 207 209
f 220 192 333
f 306 349 316
f 269 344 304
f 209 340 331
f 332 342 220
f 248 305 303
f 210 324 329
f 323 348 238
f 336 271 294
f 257 345 264
f 254 327 235
f 243 271 336
f 198 324 210
f 268 344 269
f 345 296 265
f 177 296 345
f 284 305 290
f 350 351 352
f 353 354 355
f 356 357 358
f 354 353 359
f 360 361 362
f 363 364 365
f 357 356 366
f 352 351 367
f 368 369 366
f 360 362 370
f 365 364 371
f 372 350 352
f 369 357 366
f 373 368 366
f 361 360 374
f 364 363 367
f 373 375 376
f 375 373 377
f 378 379 380
f 381 353 355
f 382 383 359
f 384 385 386
f 387 388 370
f 389 390 371
f 364 391 371
f 392 360 370
f 380 379 393
f 356 358 374
f 383 382 394
f 383 354 359
f 395 384 386
f 370 388 396
f 389 371 397
f 398 399 378
f 400 401 402
f 403 398 378
f 404 400 402
f 401 405 402
f 406 407 408
f 409 410 411
f 412 413 414
f 415 357 369
f 416 361 358
f 417 387 362
f 418 419 420
f 421 422 423
f 424 425 426
f 427 363 365
f 428 429 430
f 431 354 383
f 385 410 414
f 432 433 434
f 433 435 404
f 395 368 373
f 436 437 438
f 399 379 378
f 439 440 441
f 442 439 443
f 442 444 445
f 439 432 434
f 405 443 434
f 446 447 448
f 447 449 448
f 402 405 434
f 448 449 356
f 433 402 434
f 450 451 381
f 406 452 407
f 409 453 410
f 412 454 413
f 398 455 399
f 415 456 357
f 416 457 361
f 417 458 387
f 418 459 419
f 421 460 422
f 424 461 425
f 462 463 390
f 427 464 363
f 428 465 429
f 431 466 354
f 438 467 440
f 438 442 445
f 440 467 375
f 432 441 447
f 350 443 405
f 433 468 435
f 433 404 402
f 391 401 400
f 407 452 411
f 410 453 414
f 361 457 362
f 419 459 423
f 422 460 426
f 363 464 430
f 429 465 383
f 399 368 379
f 411 469 470
f 469 437 436
f 438 437 467
f 438 440 442
f 442 440 439
f 439 441 432
f 443 439 434
f 447 441 449
f 449 441 375
f 444 443 350
f 432 447 468
f 432 468 433
f 446 360 392
f 446 392 471
f 351 401 364
f 357 456 358
f 469 410 385
f 469 385 437
f 441 440 375
f 442 443 444
f 444 372 472
f 444 472 445
f 350 405 351
f 351 405 401
f 468 446 471
f 435 468 471
f 364 401 391
f 379 368 395
f 381 451 408
f 399 455 369
f 390 463 365
f 469 436 470
f 436 438 445
f 444 350 372
f 468 447 446
f 472 372 382
f 472 382 473
f 472 473 474
f 445 472 474
f 451 406 408
f 452 409 411
f 453 412 414
f 455 415 369
f 456 416 358
f 457 417 362
f 475 418 420
f 459 421 423
f 460 424 426
f 463 427 365
f 464 428 430
f 465 431 383
f 399 369 368
f 446 448 360
f 436 445 474
f 430 429 352
f 411 410 469
f 407 411 470
f 407 470 476
f 436 474 470
f 470 474 476
f 476 473 353
f 408 407 476
f 474 473 476
f 408 476 353
f 381 408 353
f 437 385 384
f 454 477 380
f 478 475 388
f 461 479 389
f 466 480 355
f 385 414 386
f 366 356 377
f 360 448 374
f 430 352 367
f 351 364 367
f 467 437 384
f 413 454 380
f 425 461 389
f 354 466 355
f 475 420 388
f 356 449 377
f 353 473 359
f 429 383 394
f 414 413 386
f 395 373 376
f 477 481 482
f 481 403 482
f 483 450 484
f 480 483 484
f 458 485 486
f 485 478 486
f 479 487 488
f 487 462 488
f 375 467 376
f 384 395 376
f 373 366 377
f 362 387 370
f 390 365 371
f 358 361 374
f 448 356 374
f 363 430 367
f 379 395 393
f 413 380 393
f 372 352 394
f 382 372 394
f 449 375 377
f 419 489 490
f 489 471 490
f 422 491 492
f 391 400 493
f 423 492 489
f 422 426 491
f 423 422 492
f 419 423 489
f 471 392 490
f 400 404 491
f 491 404 492
f 492 435 489
f 426 425 493
f 404 435 492
f 435 471 489
f 420 419 490
f 400 491 493
f 491 426 493
f 395 386 393
f 473 382 359
f 352 429 394
f 388 420 396
f 425 389 397
f 478 388 486
f 380 477 482
f 389 479 488
f 355 480 484
f 387 458 486
f 403 378 482
f 450 381 484
f 462 390 488
f 388 387 486
f 381 355 484
f 390 389 488
f 378 380 482
f 467 384 376
f 386 413 393
f 392 370 396
f 371 391 397
f 391 493 397
f 493 425 397
f 420 490 396
f 490 392 396
f 494 495 496
f 497 498 499
f 500 501 502
f 503 504 505
f 497 499 506
f 496 495 507
f 502 501 508
f 503 505 509
f 510 511 512
f 513 285 514
f 515 516 497
f 516 515 517
f 398 403 498
f 515 518 517
f 518 519 517
f 497 516 498
f 516 398 498
f 520 519 518
f 205 521 501
f 456 519 522
f 457 523 524
f 520 525 522
f 525 523 522
f 519 520 522
f 311 526 527
f 528 301 527
f 455 516 517
f 519 415 517
f 529 523 525
f 510 525 520
f 526 312 503
f 523 416 522
f 494 417 524
f 530 531 532
f 533 534 535
f 536 518 537
f 536 537 538
f 537 518 515
f 537 515 539
f 524 529 495
f 529 525 540
f 529 540 541
f 529 541 495
f 540 525 510
f 510 520 536
f 536 520 518
f 539 515 497
f 312 341 503
f 311 312 526
f 301 311 527
f 300 301 528
f 205 283 521
f 203 205 501
f 455 398 516
f 415 455 517
f 456 415 519
f 416 456 522
f 457 416 523
f 417 457 524
f 458 417 494
f 524 523 529
f 494 524 495
f 542 530 504
f 531 543 496
f 534 544 500
f 545 533 499
f 538 513 514
f 511 528 512
f 283 285 513
f 510 536 511
f 300 528 514
f 538 537 546
f 530 532 504
f 532 531 496
f 535 534 500
f 533 535 499
f 335 203 547
f 544 335 547
f 403 481 548
f 481 545 548
f 485 458 549
f 543 485 549
f 341 343 550
f 343 542 550
f 528 511 514
f 513 538 546
f 521 283 513
f 536 538 511
f 501 521 508
f 526 503 509
f 528 527 512
f 527 526 551
f 541 540 551
f 527 551 512
f 540 510 512
f 551 540 512
f 285 300 514
f 537 539 546
f 535 500 502
f 504 532 505
f 539 497 506
f 495 541 507
f 532 496 507
f 499 535 506
f 521 513 546
f 511 538 514
f 502 539 506
f 541 505 507
f 496 543 549
f 500 544 547
f 545 499 548
f 542 504 550
f 498 403 548
f 503 341 550
f 203 501 547
f 458 494 549
f 504 503 550
f 494 496 549
f 501 500 547
f 499 498 548
f 505 541 509
f 539 502 508
f 541 551 509
f 546 539 508
f 505 532 507
f 535 502 506
f 521 546 508
f 551 526 509
f 552 553 554
f 555 556 557
f 555 557 558
f 559 560 561
f 164 171 556
f 160 162 553
f 552 554 562
f 37 33 563
f 564 421 565
f 566 424 567
f 568 569 570
f 563 33 555
f 37 563 554
f 571 418 572
f 573 564 574
f 559 575 560
f 459 571 565
f 460 564 567
f 531 576 570
f 530 542 577
f 560 575 578
f 459 418 571
f 460 421 564
f 461 424 566
f 475 569 572
f 421 459 565
f 424 460 567
f 564 573 579
f 418 475 572
f 580 578 581
f 576 568 570
f 475 478 569
f 33 53 555
f 44 37 554
f 578 582 581
f 575 583 578
f 584 585 586
f 584 587 585
f 588 587 584
f 588 589 587
f 584 586 590
f 585 552 591
f 479 461 582
f 592 593 594
f 595 596 597
f 588 584 598
f 599 589 588
f 592 600 593
f 584 590 598
f 593 601 602
f 531 530 576
f 461 566 582
f 602 603 573
f 585 587 552
f 604 160 589
f 171 605 592
f 330 331 606
f 603 601 607
f 171 330 605
f 553 552 608
f 593 600 601
f 333 160 604
f 602 601 603
f 599 588 596
f 597 596 598
f 561 560 609
f 610 595 568
f 592 605 600
f 610 596 595
f 599 596 610
f 604 589 599
f 596 588 598
f 600 605 611
f 55 164 612
f 162 59 613
f 332 333 614
f 569 568 615
f 530 577 576
f 607 601 616
f 605 330 606
f 53 55 612
f 59 44 613
f 617 597 618
f 601 600 616
f 600 611 616
f 487 479 619
f 583 487 619
f 333 604 614
f 611 605 606
f 586 620 621
f 339 622 623
f 586 585 620
f 571 617 618
f 542 343 624
f 622 559 561
f 560 578 580
f 598 590 625
f 593 602 621
f 485 543 626
f 478 485 626
f 610 568 627
f 602 573 628
f 160 553 608
f 556 171 629
f 543 531 570
f 589 160 608
f 599 610 630
f 597 598 625
f 171 592 629
f 564 565 574
f 611 606 561
f 625 574 618
f 568 576 627
f 621 602 628
f 607 616 580
f 331 339 623
f 552 587 608
f 577 542 624
f 604 599 630
f 343 332 624
f 554 563 562
f 614 604 630
f 574 565 618
f 566 567 631
f 567 564 579
f 585 591 620
f 620 594 621
f 577 614 630
f 614 577 624
f 571 572 617
f 611 561 609
f 479 582 619
f 563 555 558
f 594 593 621
f 555 53 612
f 44 554 613
f 556 555 612
f 554 553 613
f 578 583 619
f 565 571 618
f 569 478 626
f 590 586 628
f 586 621 628
f 572 569 615
f 628 573 632
f 557 556 629
f 570 569 626
f 561 606 623
f 582 578 619
f 580 616 609
f 587 589 608
f 164 556 612
f 553 162 613
f 592 594 629
f 625 590 632
f 582 566 581
f 631 567 579
f 560 580 609
f 574 625 632
f 607 581 631
f 597 625 618
f 581 566 631
f 591 552 562
f 595 597 617
f 568 595 615
f 606 331 623
f 615 595 617
f 603 607 631
f 594 620 557
f 573 603 579
f 576 577 627
f 620 591 557
f 603 631 579
f 332 614 624
f 572 615 617
f 622 561 623
f 543 570 626
f 616 611 609
f 630 610 627
f 607 580 581
f 557 591 558
f 594 557 629
f 558 591 562
f 577 630 627
f 563 558 562
f 573 574 632
f 590 628 632
f 633 634 635
f 636 637 638
f 639 640 641
f 642 643 644
f 633 635 645
f 638 637 646
f 642 644 647
f 641 640 648
f 299 649 650
f 314 651 652
f 428 653 654
f 431 655 656
f 633 657 634
f 287 657 658
f 427 659 660
f 653 464 660
f 651 661 662
f 661 650 663
f 657 279 634
f 649 286 658
f 651 298 650
f 636 313 652
f 659 463 642
f 655 465 654
f 640 466 656
f 575 559 664
f 665 666 667
f 668 657 633
f 650 649 663
f 668 633 669
f 670 671 672
f 662 673 674
f 663 670 672
f 658 657 668
f 649 670 663
f 651 662 652
f 658 668 670
f 668 669 671
f 668 671 670
f 673 661 675
f 675 661 663
f 675 663 672
f 279 310 634
f 287 279 657
f 286 287 658
f 299 286 649
f 298 299 650
f 314 298 651
f 313 314 652
f 318 313 636
f 463 462 642
f 427 463 659
f 464 427 660
f 428 464 653
f 465 428 654
f 431 465 655
f 466 431 656
f 480 466 640
f 649 658 670
f 651 650 661
f 662 661 673
f 662 674 637
f 652 662 637
f 636 652 637
f 559 622 638
f 583 575 643
f 676 665 635
f 666 677 639
f 575 664 643
f 665 667 635
f 664 559 638
f 667 666 639
f 339 318 678
f 622 339 678
f 483 480 679
f 677 483 679
f 310 347 680
f 462 487 681
f 347 676 680
f 487 583 681
f 659 642 647
f 640 656 648
f 674 673 682
f 671 683 684
f 660 682 685
f 656 655 683
f 683 655 684
f 653 660 685
f 654 653 686
f 653 685 686
f 660 659 682
f 671 669 683
f 673 675 685
f 675 672 686
f 654 686 684
f 655 654 684
f 672 671 684
f 682 673 685
f 685 675 686
f 686 672 684
f 643 664 644
f 667 639 641
f 669 633 645
f 637 674 646
f 635 667 645
f 664 638 646
f 641 669 645
f 674 644 646
f 638 622 678
f 639 677 679
f 583 643 681
f 676 635 680
f 634 310 680
f 318 636 678
f 642 462 681
f 480 640 679
f 635 634 680
f 643 642 681
f 636 638 678
f 640 639 679
f 669 641 648
f 644 674 647
f 674 682 647
f 683 669 648
f 644 664 646
f 667 641 645
f 682 659 647
f 656 683 648
f 687 688 689
f 690 691 692
f 693 694 695
f 696 697 698
f 692 691 699
f 689 688 700
f 693 695 701
f 696 698 702
f 703 704 705
f 706 707 708
f 272 707 709
f 289 710 711
f 409 704 712
f 412 713 714
f 715 713 712
f 262 716 717
f 707 251 717
f 406 718 719
f 704 452 719
f 720 713 715
f 710 721 722
f 716 302 696
f 710 233 709
f 687 237 711
f 718 451 693
f 713 453 712
f 690 454 714
f 534 533 723
f 666 665 724
f 722 725 726
f 710 722 711
f 725 721 727
f 714 720 691
f 720 715 728
f 720 728 729
f 720 729 691
f 302 309 696
f 262 302 716
f 251 262 717
f 272 251 707
f 233 272 709
f 289 233 710
f 237 289 711
f 323 237 687
f 451 450 693
f 406 451 718
f 452 406 719
f 409 452 704
f 453 409 712
f 412 453 713
f 454 412 714
f 477 454 690
f 714 713 720
f 710 709 721
f 722 721 725
f 728 715 730
f 690 714 691
f 722 726 688
f 711 722 688
f 687 711 688
f 544 534 697
f 533 545 692
f 665 676 689
f 677 666 694
f 727 730 703
f 730 727 706
f 730 706 708
f 727 703 705
f 730 715 703
f 712 704 703
f 709 707 706
f 727 721 706
f 534 723 697
f 666 724 694
f 723 533 692
f 724 665 689
f 347 323 731
f 676 347 731
f 481 477 732
f 545 481 732
f 309 335 733
f 450 483 734
f 335 544 733
f 483 677 734
f 721 709 706
f 715 712 703
f 718 693 701
f 716 696 702
f 726 725 735
f 717 736 708
f 719 735 705
f 707 717 708
f 717 716 736
f 704 719 705
f 719 718 735
f 725 727 705
f 729 728 736
f 735 725 705
f 728 730 708
f 736 728 708
f 694 724 695
f 697 723 698
f 688 726 700
f 691 729 699
f 723 692 699
f 724 689 700
f 726 695 700
f 729 698 699
f 692 545 732
f 689 676 731
f 544 697 733
f 677 694 734
f 696 309 733
f 323 687 731
f 693 450 734
f 477 690 732
f 697 696 733
f 694 693 734
f 687 689 731
f 690 692 732
f 698 729 702
f 695 726 701
f 729 736 702
f 726 735 701
f 695 724 700
f 698 723 699
f 735 718 701
f 736 716 702
