v 0.40451403 1.65588216 -0.50000000
v -0.26434459 1.12570400 -0.50000000
v -0.34772102 1.98691393 -0.50000000
v -0.93964957 1.51408455 -0.50000000
v -0.93561869 -1.51095213 -0.50000000
v -0.25110981 -1.12181267 -0.50000000
v -0.34304982 -2.02839058 -0.50000000
v 0.40435286 -1.66666403 -0.50000000
v -0.84724978 0.78852276 -0.50000000
v -0.95291831 0.00109006 -0.50000000
v -1.42363177 0.53744092 -0.50000000
v -0.84194040 -0.78621378 -0.50000000
v -1.42170702 -0.53629030 -0.50000000
v -1.54240714 -0.00012942 -0.50000000
v 1.14491828 -1.28946065 -0.50000000
v 0.42946619 -0.80717954 -0.50000000
v 1.15518114 -0.43019233 -0.50000000
v 1.90344832 -0.89551381 -0.50000000
v -0.49283340 2.86217985 -0.50000000
v 0.31830238 3.37600928 -0.50000000
v 0.33658599 2.50965448 -0.50000000
v 0.31830238 -3.37600928 -0.50000000
v -0.49283340 -2.86217985 -0.50000000
v 0.33435393 -2.50421799 -0.50000000
v 0.41925201 0.81247720 -0.50000000
v 0.41756479 0.00384439 -0.50000000
v -0.24697544 0.39326147 -0.50000000
v 2.63355360 3.16811191 -0.50000000
v 2.63458452 2.21738277 -0.50000000
v 1.84160738 2.58223449 -0.50000000
v 1.10605718 -2.14453179 -0.50000000
v 1.13607765 1.26689641 -0.50000000
v 1.13911223 0.41980644 -0.50000000
v 1.88750687 0.85820623 -0.50000000
v 1.89657702 -0.01265084 -0.50000000
v -0.23862397 -0.38781060 -0.50000000
v 4.21338077 -1.36978916 -0.50000000
v 3.43281813 -1.82537164 -0.50000000
v 3.43681753 -0.90901455 -0.50000000
v 4.20901467 0.45036585 -0.50000000
v 5.00000000 0.00000000 -0.50000000
v 4.21437097 -0.45426958 -0.50000000
v 3.43134834 -0.00185618 -0.50000000
v 4.21087916 2.26434932 -0.50000000
v 5.00000000 1.83303028 -0.50000000
v 4.20317377 1.35873955 -0.50000000
v 2.65266803 0.43420325 -0.50000000
v 2.66359424 -0.45239383 -0.50000000
v 5.00000000 0.91651514 -0.50000000
v 3.42020250 1.78595591 -0.50000000
v -1.57402026 1.61559176 -0.50000000
v -1.13059861 2.25397855 -0.50000000
v 1.90454135 -1.79372336 -0.50000000
v 2.66539273 -1.35040693 -0.50000000
v -1.13059861 -2.25397855 -0.50000000
v -1.57402026 -1.61559176 -0.50000000
v 5.00000000 -0.91651514 -0.50000000
v 3.11087471 -3.99901642 -0.50000000
v 2.15037916 -3.94182856 -0.50000000
v 2.65497343 -3.19336694 -0.50000000
v 2.15037916 3.94182856 -0.50000000
v 3.11087471 3.99901642 -0.50000000
v 3.42295217 0.89263026 -0.50000000
v 5.00000000 -1.83303028 -0.50000000
v 2.65177031 1.32013318 -0.50000000
v 4.22422136 -2.26684328 -0.50000000
v 5.00000000 -2.74954542 -0.50000000
v 5.00000000 2.74954542 -0.50000000
v 1.86992187 1.73247500 -0.50000000
v 2.65824905 -2.24799420 -0.50000000
v 3.41971863 2.67265152 -0.50000000
v 5.00000000 -3.66606056 -0.50000000
v 4.06870609 -3.90756127 -0.50000000
v 4.26061027 -3.10840525 -0.50000000
v 4.06870609 3.90756127 -0.50000000
v 5.00000000 3.66606056 -0.50000000
v 4.23378365 3.10997504 -0.50000000
v 1.85108617 -2.61780873 -0.50000000
v 3.46162922 -2.67705249 -0.50000000
v 1.11911522 2.11741341 -0.50000000
v 1.07177652 -2.96131819 -0.50000000
v -1.98369353 -0.32278668 -0.50000000
v -1.98369353 0.32278668 -0.50000000
v 1.79196874 3.33201565 -0.50000000
v 1.07375045 2.93748275 -0.50000000
v 1.21072332 3.73510815 -0.50000000
v -1.32486242 -1.08363752 -0.50000000
v 1.78628510 -3.34193705 -0.50000000
v 3.53173304 -3.40907450 -0.50000000
v 3.52100347 3.38900951 -0.50000000
v -1.32711542 1.08495593 -0.50000000
v 1.21072332 -3.73510815 -0.50000000
v -1.85102572 0.96913963 -0.50000000
v -1.85102572 -0.96913963 -0.50000000
v -0.93390333 -2.46893073 -1.88137447
v -0.82705662 -2.57416551 -1.21783214
v -0.13032486 -3.11908359 -1.89036733
v -1.36581834 1.94970852 -1.80180727
v -0.82705662 2.57416551 -1.21783214
v -1.39637477 1.90525823 -1.10193667
v -1.36585129 -1.94966130 -1.80176372
v -1.39637477 -1.90525823 -1.10193667
v -0.15782336 -3.10129280 -1.24642283
v -0.93435630 2.46846874 -1.88551927
v -0.10085070 3.13786934 -1.66112211
v -0.49283340 2.86217985 -2.50000000
v -0.49283340 -2.86217985 -2.50000000
v 0.75675711 -3.57483304 -1.66794462
v -1.57402026 -1.61559176 -2.50000000
v -1.85102572 -0.96913963 -2.50000000
v -1.72457469 -1.30926397 -1.89951026
v -1.85102572 0.96913963 -2.50000000
v -1.57402026 1.61559176 -2.50000000
v -1.72444109 1.30957248 -1.90125387
v 0.75739421 -3.57508886 -0.98446680
v -0.10133089 3.13756560 -1.00465704
v -1.93368390 -0.64931381 -1.93499036
v -1.93338812 0.65075055 -1.95418033
v 0.31830238 3.37600928 -2.50000000
v -1.93194454 0.65771629 -1.03234342
v -1.13059861 -2.25397855 -2.50000000
v -1.13059861 2.25397855 -2.50000000
v 0.75675711 3.57483304 -1.33205538
v -2.00000000 -0.00000000 -1.05884508
v -1.72869851 -1.29970099 -1.04463579
v -1.72873263 1.29962154 -1.04684499
v -1.93295597 -0.65284384 -1.02380496
v -1.98369353 0.32278668 -2.50000000
v -1.98369353 -0.32278668 -2.50000000
v 1.21072332 -3.73510815 -2.50000000
v 0.31830238 -3.37600928 -2.50000000
v 1.67640770 -3.85730297 -1.33293047
v 1.21072332 3.73510815 -2.50000000
v 2.15037916 3.94182856 -2.50000000
v 1.67640770 3.85730297 -1.66706953
v 2.62952056 3.98900449 -1.33304428
v 3.11087471 -3.99901642 -2.50000000
v 2.15037916 -3.94182856 -2.50000000
v 2.62952056 -3.98900449 -1.66695572
v 3.59156791 -3.97190513 -1.33302986
v 3.11087471 3.99901642 -2.50000000
v 4.06870609 3.90756127 -2.50000000
v 3.59156791 3.97190513 -1.66697014
v -1.99999999 -0.00020250 -1.95702037
v 0.75739421 3.57508886 -2.01553320
v 2.63340109 -3.98923393 -0.98255615
v 2.63340109 3.98923393 -2.01744385
v 1.67789989 3.85763047 -0.98485870
v 1.67789989 -3.85763047 -2.01514130
v 3.58865635 -3.97218197 -2.01703808
v 3.58865635 3.97218197 -0.98296192
v 5.00000000 -3.66606056 -1.50000000
v 4.32658434 -3.85664509 -1.20728505
v 5.00000000 3.66606056 -2.50000000
v 5.00000000 3.66606056 -1.50000000
v 4.32658434 3.85664509 -1.79271495
v 4.40669802 3.83843307 -1.14181142
v 4.40669802 -3.83843307 -1.85818858
v -1.85267649 0.96383598 -1.46839165
v -1.59279384 1.58113777 -1.46597979
v -1.85212847 -0.96560009 -1.46455983
v -1.58273871 -1.59970116 -1.46808370
v -1.98403008 0.31944372 -1.50446909
v -1.98324298 -0.32720826 -1.49364744
v 5.00000000 -3.66606056 -2.50000000
v 4.06870609 -3.90756127 -2.50000000
v 5.00000000 4.33303028 -2.50000000
v 5.00000000 5.00000000 -2.50000000
v 5.00000000 4.33118346 -1.82480612
v 5.00000000 -5.00000000 -2.50000000
v 5.00000000 -4.33303028 -2.50000000
v 5.00000000 -4.33118346 -1.82480358
v 5.00000000 5.00000000 -1.50000000
v 5.00000000 -5.00000000 -1.50000000
v 5.00000000 -4.15059394 0.11949104
v 5.00000000 -4.30262422 -0.94301411
v 5.00000000 4.15059394 0.11924071
v 5.00000000 4.30262422 -0.94305583
v 5.00000000 -5.00000000 -0.50000000
v 5.00000000 5.00000000 -0.50000000
v 5.00000000 -3.18654769 0.21652183
v 5.00000000 -3.44226792 0.94666416
v 5.00000000 3.18654769 0.21406856
v 5.00000000 3.44226792 0.94666416
v 5.00000000 1.45675132 1.69262783
v 5.00000000 1.00000000 2.50000000
v 5.00000000 0.48053419 1.71804381
v 5.00000000 -2.00000000 2.50000000
v 5.00000000 -2.42075001 1.69035327
v 5.00000000 -1.44339279 1.70906754
v 5.00000000 2.00000000 2.50000000
v 5.00000000 2.41504815 1.69842258
v 5.00000000 0.00000000 2.50000000
v 5.00000000 -0.49006133 1.68192224
v 5.00000000 -1.00000000 2.50000000
v 5.00000000 -5.00000000 1.50000000
v 5.00000000 -5.00000000 0.50000000
v 5.00000000 -4.23029300 1.08781722
v 5.00000000 3.00000000 2.50000000
v 5.00000000 -3.00000000 2.50000000
v 5.00000000 5.00000000 0.50000000
v 5.00000000 5.00000000 1.50000000
v 5.00000000 4.23029300 1.08781722
v 5.00000000 -0.45825757 0.27077945
v 5.00000000 -2.28948042 0.25765681
v 5.00000000 2.29128785 0.27900580
v 5.00000000 -1.37477271 0.28102357
v 5.00000000 0.45825757 0.28326149
v 5.00000000 1.37477271 0.26672836
v 5.00000000 -4.00000000 2.50000000
v 5.00000000 -3.44627539 1.63835969
v 5.00000000 4.00000000 2.50000000
v 5.00000000 3.44569357 1.63918309
v 5.00000000 -1.85639633 0.95638480
v 5.00000000 -2.77361963 0.95099009
v 5.00000000 1.87021608 0.97051878
v 5.00000000 2.77517688 0.95797716
v 5.00000000 -5.00000000 2.50000000
v 5.00000000 -4.28548472 1.78806742
v 5.00000000 5.00000000 2.50000000
v 5.00000000 4.28545443 1.78811029
v 5.00000000 0.93389101 0.97758994
v 5.00000000 -0.91651514 0.95022748
v 5.00000000 0.00000000 0.97799548
v -3.55404439 0.75596298 4.50000000
v -2.55161155 0.74246343 4.50000000
v -2.85485424 1.50441592 4.50000000
v -2.86161731 -1.36870278 4.50000000
v -3.93402676 -1.38927101 4.50000000
v -3.11151091 -2.31482229 4.50000000
v -3.43538052 -0.64906191 4.50000000
v -3.01080755 0.10269901 4.50000000
v -4.13397460 0.00000000 4.50000000
v -4.05109776 -2.45456638 4.50000000
v -0.34498064 -0.41302094 4.50000000
v -0.41243332 -0.07115342 4.50000000
v -0.73307150 -0.35231791 4.50000000
v -0.75375000 1.31997736 4.50000000
v -1.35267739 1.06615272 4.50000000
v -0.88432774 0.82884823 4.50000000
v -1.34542386 1.70617066 4.50000000
v -1.80018784 -0.71717915 4.50000000
v -1.65055704 -0.09209805 4.50000000
v -2.41392784 -0.53414661 4.50000000
v -2.19408086 2.06922798 4.50000000
v -2.03083203 1.29699882 4.50000000
v -2.28631290 0.17992981 4.50000000
v -3.72249140 1.64610799 4.50000000
v -1.34546780 -1.70619419 4.50000000
v -2.06920023 -1.26111627 4.50000000
v -2.19408086 -2.06922798 4.50000000
v -1.85997354 0.61395219 4.50000000
v -1.28785035 0.49026641 4.50000000
v -0.73153876 0.05813066 4.50000000
v -1.34304737 -1.06900736 4.50000000
v -4.32613103 1.07856862 4.50000000
v -5.00000000 0.50000000 4.50000000
v -0.49552004 -0.65043019 4.50000000
v -0.75382531 -1.32003792 4.50000000
v -1.12173691 0.03005397 4.50000000
v -5.00000000 -0.50000000 4.50000000
v -0.38717658 0.96460615 4.50000000
v -0.52570457 0.60009014 4.50000000
v -0.17475331 0.65517066 4.50000000
v -0.38723090 -0.96467109 4.50000000
v -0.83753308 -0.86691369 4.50000000
v -4.28908123 -0.73134742 4.50000000
v -5.00000000 -1.50000000 4.50000000
v -4.05109776 2.45456638 4.50000000
v -3.11151091 2.31482229 4.50000000
v -4.42234127 -1.87468799 4.50000000
v -1.27978119 -0.49698302 4.50000000
v -0.24861153 0.20840360 4.50000000
v -0.52039497 0.28356618 4.50000000
v -0.05815891 -0.38019950 4.50000000
v -0.17478408 -0.65522731 4.50000000
v -5.00000000 1.50000000 4.50000000
v -4.36670213 1.81937899 4.50000000
v -5.00000000 2.50000000 4.50000000
v -0.05814308 0.38014805 4.50000000
v -0.00621636 0.12462434 4.50000000
v -0.30552149 0.42547573 4.50000000
v -5.00000000 -2.50000000 4.50000000
v -0.17542734 -0.01607675 4.50000000
v -0.86052695 0.39381874 4.50000000
v -0.00622124 -0.12467331 4.50000000
v -0.20150632 -0.20913590 4.50000000
v -0.11543263 -0.53408838 2.73488129
v -0.28973300 -0.83865738 2.85267716
v -0.17475331 -0.65517066 2.50000000
v -2.64895131 2.20638675 3.68919520
v -1.61402942 1.83951103 3.91708179
v -1.76233769 1.90509467 3.20534753
v -0.38717658 -0.96460615 2.50000000
v -0.54121903 1.13129044 2.92985786
v -0.24302885 0.76993920 2.74938901
v -0.38723090 0.96467109 2.50000000
v -0.27312288 0.81495900 3.03059553
v -0.40623819 -0.98708566 3.25808746
v -0.18470020 -0.67321762 3.39081504
v -0.28586197 -0.83320205 3.62571190
v -0.41675719 0.99923538 3.31554843
v -0.05382428 -0.36583663 3.96941350
v -0.00500752 -0.11185938 4.09850917
v -0.03050977 -0.27575662 4.25527807
v -0.03128189 0.27921335 3.14807449
v -0.12052809 0.54560835 3.05120673
v -0.06897998 0.41383619 3.40294153
v -0.11357941 -0.52983341 4.20417194
v -0.28824497 0.83656509 3.66170551
v -0.16401488 0.63506848 3.96479472
v -0.12802599 0.56210969 3.69880395
v -1.34542386 -1.70617066 2.50000000
v -1.35246957 -1.70993580 2.98287846
v -1.76231476 -1.90508492 3.20538913
v -1.04548464 -1.52985361 3.97136835
v -0.64431975 -1.22760433 3.95717706
v -0.19781756 0.69624777 3.34874261
v -0.63269384 1.21723425 4.01766627
v -1.04066914 1.52673665 3.97322822
v -1.04073059 1.52677649 2.90785245
v -1.34546780 1.70619419 2.50000000
v -0.14968174 -0.60712700 2.97793291
v -0.10945282 0.52022791 2.77123147
v -1.12312577 1.57875316 3.49105638
v -0.56174145 -1.15128853 2.88339483
v -0.75375000 -1.31997736 2.50000000
v -0.75382531 1.32003792 2.50000000
v -0.00409363 -0.10114288 3.88187741
v -2.19408086 -2.06922798 2.50000000
v -2.19408086 2.06922798 2.50000000
v -2.70873002 -2.22205321 3.21940977
v -2.79328025 -2.24334504 3.88859568
v -3.57947663 -2.39698317 3.67751869
v -3.58040720 -2.39712100 2.99252481
v -2.64594714 2.20558581 2.99845167
v -0.27331168 -0.81523271 4.20826172
v -0.06145308 0.39075386 3.85047890
v -0.27326934 0.81517134 4.20827504
v -0.52173697 -1.11188581 3.54583973
v -0.00000000 -0.00002460 4.28419149
v -0.93216904 -1.45368079 3.00311524
v -0.02661717 -0.25761561 3.67254984
v -0.06395972 -0.39859325 3.41049697
v -0.00602757 -0.12271851 3.41185934
v -0.10959615 0.52056464 4.25785697
v -0.73164876 1.30203472 3.31182944
v -0.83824494 -1.38562213 3.45209020
v -1.28394002 -1.67264000 3.43622450
v -0.00010384 0.01611240 3.63762564
v -0.46130732 -1.04884088 4.21414352
v -0.46339811 1.05109981 4.21666478
v -0.18981926 -0.68230515 3.92828205
v -0.11714365 -0.53798556 3.66425985
v -1.62905861 -1.84639880 3.85593188
v -0.17478408 0.65522731 2.50000000
v -0.05815891 0.38019950 2.50000000
v -0.05814308 -0.38014805 2.50000000
v -0.00913845 0.15108026 3.40644829
v -0.00002213 0.00743782 3.16546468
v -0.02637743 -0.25645592 3.16993421
v -0.23857193 -0.76302076 3.13842383
v -0.00617152 -0.12417434 2.94332767
v -0.04348922 0.32901402 4.09112855
v -3.11151091 -2.31482229 2.50000000
v -0.33595313 0.90092547 3.91488698
v -3.57947663 2.39698317 3.32248131
v -0.02467223 0.24804917 4.28418756
v -0.01003968 0.15834769 3.82989521
v -0.00590065 0.12142043 4.04363499
v -4.05109776 2.45456638 2.50000000
v -3.11151091 2.31482229 2.50000000
v -0.00612826 0.12373864 2.94284358
v -3.58040720 2.39712100 4.00747519
v -0.02662241 -0.25764090 2.72108427
v -0.02593793 0.25431602 2.72286097
v -0.03478915 0.29439821 3.63723304
v -0.00622124 0.12467331 2.50000000
v -0.00000000 0.00002460 2.71580851
v -0.00621636 -0.12462434 2.50000000
v -0.66130719 -1.24255228 3.20122874
v -0.11036983 -0.52237840 3.17695119
v -5.00000000 -2.50000000 3.50000000
v -4.32064449 -2.47681631 3.79540761
v -5.00000000 2.50000000 3.50000000
v -4.32064449 2.47681631 3.20459239
v -5.00000000 2.50000000 2.50000000
v -0.50790981 1.09785310 3.65332386
v -0.05850221 -0.38131340 2.95463718
v -4.38624941 2.48109402 3.85047871
v -4.38624941 -2.48109402 3.14952129
v -2.23088523 -2.08158614 3.83323099
v -0.04987012 0.35221236 2.92990062
v -0.38052317 -0.95661302 3.92535951
v -5.00000000 -2.50000000 2.50000000
v -4.05109776 -2.45456638 2.50000000
v -0.80595146 1.36106180 3.68899825
v 0.52673523 3.48128363 2.50000000
v 1.19769381 3.27871212 2.50000000
v 1.35229743 4.09283549 2.50000000
v 0.41069741 0.89040250 2.50000000
v 0.00256333 0.85957263 2.50000000
v 0.12452054 0.60976466 2.50000000
v 3.47261195 4.09850125 2.50000000
v 2.43040020 4.15563348 2.50000000
v 2.64650412 3.23801861 2.50000000
v -0.65381723 -4.04814885 2.50000000
v -0.82349116 -3.16778652 2.50000000
v -1.51092224 -3.48769216 2.50000000
v 0.40318374 4.25572238 2.50000000
v -2.30243866 2.94013063 2.50000000
v -1.54650512 3.40233982 2.50000000
v -2.41380871 4.02020200 2.50000000
v -2.42783724 -4.04307873 2.50000000
v -2.30024415 -2.96367628 2.50000000
v -4.36517707 -3.06712110 2.50000000
v -3.42797453 -3.26495728 2.50000000
v 3.12934134 1.60060623 2.50000000
v 2.49474524 1.29902817 2.50000000
v 2.83335202 0.76133647 2.50000000
v -1.34485164 -2.53840541 2.50000000
v -0.52869182 -2.54833337 2.50000000
v -0.73853037 -1.92389719 2.50000000
v 3.48844649 3.02143127 2.50000000
v -0.31183523 -1.49386432 2.50000000
v 0.38706289 0.50208948 2.50000000
v 4.00000000 -5.00000000 2.50000000
v 3.40114140 -4.06782380 2.50000000
v 3.00000000 -5.00000000 2.50000000
v -3.41291757 3.24547814 2.50000000
v -4.36517707 3.06712110 2.50000000
v 3.54957912 0.88869266 2.50000000
v -4.22358212 3.74296299 2.50000000
v -0.17431494 -1.99176146 2.50000000
v 2.65928488 -1.75836379 2.50000000
v 3.45659870 -1.21558731 2.50000000
v 2.74519001 -1.04131853 2.50000000
v -1.51851534 -4.31578395 2.50000000
v 0.97773051 0.92449449 2.50000000
v 0.72468731 0.51826725 2.50000000
v 1.18073073 0.44690619 2.50000000
v 0.34270241 -4.22479040 2.50000000
v -0.07917285 -3.21635282 2.50000000
v -4.23995460 -3.76962901 2.50000000
v 3.06265893 0.15202451 2.50000000
v 3.69653845 0.01893864 2.50000000
v 0.73308290 -3.41826834 2.50000000
v 4.26794919 -4.26794919 2.50000000
v 3.40405707 -2.05404788 2.50000000
v 0.83374858 0.08147016 2.50000000
v 2.02065291 -2.02074204 2.50000000
v 1.95009907 -2.87483986 2.50000000
v 2.65155697 -2.50554661 2.50000000
v -1.42621031 4.24545566 2.50000000
v 4.08676422 1.55052476 2.50000000
v 4.18256343 0.46937777 2.50000000
v 1.29489728 -0.05084244 2.50000000
v -0.63812365 1.79334942 2.50000000
v -3.56989178 4.23913787 2.50000000
v 4.24059174 3.53436644 2.50000000
v 4.22001161 2.57374145 2.50000000
v 1.55189813 -0.82987007 2.50000000
v 1.02044461 -0.78925170 2.50000000
v 1.14966390 -1.24977839 2.50000000
v 0.69593702 -1.09391933 2.50000000
v 4.16984258 -2.49915853 2.50000000
v 3.36047811 -2.97334420 2.50000000
v 1.73776609 0.33053822 2.50000000
v 1.87076403 -0.31179203 2.50000000
v 2.49749527 -3.42893222 2.50000000
v 1.54378031 0.91347678 2.50000000
v 4.18920079 -1.53533706 2.50000000
v 4.13397460 -0.50000000 2.50000000
v 0.00385717 2.77491538 2.50000000
v -0.64482203 2.38901564 2.50000000
v -0.15637648 2.04514164 2.50000000
v 0.69410548 -1.64724854 2.50000000
v 0.03961366 1.17779757 2.50000000
v 1.32079052 -0.47239661 2.50000000
v 0.34728158 -1.28368917 2.50000000
v 1.86059782 3.34718093 2.50000000
v -0.29405527 1.46712991 2.50000000
v 0.42327002 2.20516158 2.50000000
v 0.14100280 1.59480086 2.50000000
v 0.64243744 1.64349817 2.50000000
v 0.15634691 -1.62533110 2.50000000
v 0.01690260 -1.16412859 2.50000000
v -0.51401776 4.29327267 2.50000000
v -0.20832819 3.57424819 2.50000000
v 0.19570360 0.29021847 2.50000000
v 0.66972787 -0.73143439 2.50000000
v 0.86594854 -0.38022684 2.50000000
v -3.57746811 -4.25064152 2.50000000
v 1.05231978 2.12068925 2.50000000
v 1.22784004 1.47047328 2.50000000
v -1.39305584 2.51680027 2.50000000
v 3.53595561 2.26362943 2.50000000
v 3.00000000 5.00000000 2.50000000
v 4.16940056 -3.45282096 2.50000000
v 0.00015248 -0.85798832 2.50000000
v 1.47775861 -2.38157159 2.50000000
v 2.00000000 -5.00000000 2.50000000
v 1.66964642 -4.26589012 2.50000000
v 1.00000000 -5.00000000 2.50000000
v 1.00000000 5.00000000 2.50000000
v 2.00000000 5.00000000 2.50000000
v 2.38067737 0.20127131 2.50000000
v 1.57548862 -3.45094414 2.50000000
v 1.16036380 -2.89522735 2.50000000
v 0.47970557 0.20179449 2.50000000
v 2.16334655 0.81194446 2.50000000
v 0.44586761 -0.50271485 2.50000000
v 0.50991287 -0.18360738 2.50000000
v 0.72605885 1.24561209 2.50000000
v 3.29547996 -0.50379236 2.50000000
v -1.00000000 5.00000000 2.50000000
v 0.00000000 5.00000000 2.50000000
v 0.00000000 -5.00000000 2.50000000
v -1.00000000 -5.00000000 2.50000000
v 2.45295096 -4.28155781 2.50000000
v -0.76389249 3.00614826 2.50000000
v 2.04889532 -3.85683107 2.50000000
v 1.74560025 -1.36105677 2.50000000
v 1.33691820 -1.83039835 2.50000000
v 1.01895575 -4.04635339 2.50000000
v 4.00000000 5.00000000 2.50000000
v -2.00000000 -5.00000000 2.50000000
v -3.00000000 -5.00000000 2.50000000
v -3.00000000 5.00000000 2.50000000
v -2.00000000 5.00000000 2.50000000
v 1.93963476 1.40291712 2.50000000
v 2.16331817 -0.90004717 2.50000000
v 0.11860192 -0.59373320 2.50000000
v -4.00000000 5.00000000 2.50000000
v 2.16553242 2.60879606 2.50000000
v 1.71094260 2.02431145 2.50000000
v 0.20207828 -0.30442149 2.50000000
v 0.23438183 -0.01510049 2.50000000
v 0.01320814 -2.52539622 2.50000000
v 2.40805151 1.91833659 2.50000000
v 2.90173171 2.47526445 2.50000000
v -1.00946824 2.08436627 2.50000000
v 2.60549265 -0.42508702 2.50000000
v 0.35498983 -2.13052853 2.50000000
v -5.00000000 3.33333333 2.50000000
v -5.00000000 4.16666667 2.50000000
v -5.00000000 -4.16666667 2.50000000
v -5.00000000 -3.33333333 2.50000000
v 1.45790283 2.70013447 2.50000000
v 0.32044157 -0.89105922 2.50000000
v 0.49323046 -2.74000492 2.50000000
v 0.92075904 -2.28665037 2.50000000
v -5.00000000 5.00000000 2.50000000
v -4.36904231 4.42618411 2.50000000
v -4.00000000 -5.00000000 2.50000000
v -4.36904231 -4.42618411 2.50000000
v -5.00000000 -5.00000000 2.50000000
v -0.89580342 3.68425118 2.50000000
v 0.37158884 1.29919201 2.50000000
v 0.79093573 2.77212608 2.50000000
v 4.34062851 4.33243096 2.50000000
v 2.27100426 -1.41408264 2.50000000
v -2.23564240 1.58098120 -2.50000000
v -3.01917491 1.33958375 -2.50000000
v -2.71165734 2.34749682 -2.50000000
v 3.00000000 5.00000000 -2.50000000
v 3.00000000 -5.00000000 -2.50000000
v -2.94339069 -1.36130519 -2.50000000
v -2.23948747 -1.57270889 -2.50000000
v -2.74300894 -2.36797525 -2.50000000
v -5.00000000 1.00000000 -2.50000000
v -3.78565446 1.15121385 -2.50000000
v -4.09380159 0.38752418 -2.50000000
v 4.00000000 -5.00000000 -2.50000000
v 4.00000000 5.00000000 -2.50000000
v 2.00000000 5.00000000 -2.50000000
v 2.00000000 -5.00000000 -2.50000000
v -0.51261199 3.64760503 -2.50000000
v 0.46789151 4.24263398 -2.50000000
v -0.87155892 -3.61858115 -2.50000000
v -2.47162934 -0.79490252 -2.50000000
v -2.48716213 0.82211285 -2.50000000
v -0.50000000 4.43108690 -2.50000000
v -2.42215761 -4.10212249 -2.50000000
v -1.64162207 -3.62471738 -2.50000000
v -1.27218349 -4.30480615 -2.50000000
v -3.58544214 1.96762616 -2.50000000
v -3.49568681 -1.95760365 -2.50000000
v -3.58969000 -1.06140701 -2.50000000
v -2.00000000 5.00000000 -2.50000000
v -1.00000000 5.00000000 -2.50000000
v -1.43277893 4.04053476 -2.50000000
v -0.30854988 -4.22458988 -2.50000000
v -2.00000000 -5.00000000 -2.50000000
v -2.53282717 4.02969876 -2.50000000
v -2.16546708 3.14002092 -2.50000000
v -3.09391239 3.27757322 -2.50000000
v -4.31478648 1.72312244 -2.50000000
v -3.49157878 4.11344074 -2.50000000
v -4.07640424 3.40564367 -2.50000000
v -3.53405039 2.69902242 -2.50000000
v -5.00000000 0.00000000 -2.50000000
v -4.21413103 -1.50145357 -2.50000000
v 4.50447119 4.63882687 -2.50000000
v 4.50447119 -4.63882687 -2.50000000
v -2.99955476 -3.32711561 -2.50000000
v -3.47149131 -4.17073426 -2.50000000
v -4.05737730 -3.43077266 -2.50000000
v -4.00000000 5.00000000 -2.50000000
v -3.00000000 5.00000000 -2.50000000
v -1.00000000 -5.00000000 -2.50000000
v -3.22062161 0.62042511 -2.50000000
v -2.67914466 0.03762333 -2.50000000
v -3.49884047 -2.71214621 -2.50000000
v -1.85201690 2.35634382 -2.50000000
v -1.31854628 3.03533168 -2.50000000
v 0.00000000 -5.00000000 -2.50000000
v -3.48115090 0.05398022 -2.50000000
v -5.00000000 -1.00000000 -2.50000000
v -4.07538254 -0.50047410 -2.50000000
v -2.22404358 -3.11202238 -2.50000000
v -3.16813592 -0.51368419 -2.50000000
v -1.40389028 -2.99040197 -2.50000000
v -4.19857452 -2.47726390 -2.50000000
v -5.00000000 -2.00000000 -2.50000000
v -3.00000000 -5.00000000 -2.50000000
v -5.00000000 2.00000000 -2.50000000
v -5.00000000 3.00000000 -2.50000000
v -4.20283583 2.49677222 -2.50000000
v -5.00000000 -3.00000000 -2.50000000
v -1.89062011 -2.33392027 -2.50000000
v -4.22814628 4.22524714 -2.50000000
v -4.00000000 -5.00000000 -2.50000000
v -5.00000000 -4.00000000 -2.50000000
v -5.00000000 5.00000000 -2.50000000
v -5.00000000 4.00000000 -2.50000000
v -5.00000000 -5.00000000 -2.50000000
v -4.26651145 -4.26583131 -2.50000000
v 1.00000000 5.00000000 -2.50000000
v 1.42059851 4.38775528 -2.50000000
v 0.61994047 -4.28857348 -2.50000000
v 0.00000000 5.00000000 -2.50000000
v 1.49916702 -4.39573356 -2.50000000
v 1.00000000 -5.00000000 -2.50000000
v -4.10882381 -5.00000000 -0.92058098
v -2.99348439 -5.00000000 -0.83651134
v -3.44445259 -5.00000000 0.00563455
v 2.99583919 -5.00000000 -0.83191161
v 4.10899531 -5.00000000 -0.92024592
v 3.44864362 -5.00000000 0.00793942
v 4.08935904 -5.00000000 0.91305605
v 3.01149801 -5.00000000 0.84583356
v -2.99583945 -5.00000000 0.83682191
v -4.08767894 -5.00000000 0.91208916
v -4.32831216 -5.00000000 0.00296356
v 4.32831185 -5.00000000 0.00296310
v -3.49576263 -5.00000000 -1.65322795
v -3.49576263 -5.00000000 1.65322795
v 3.49576263 -5.00000000 -1.65322795
v 3.49657084 -5.00000000 1.65369458
v 2.00830551 -5.00000000 0.84491138
v 1.51552412 -5.00000000 1.65928349
v 1.00555570 -5.00000000 0.85985190
v -1.98657591 -5.00000000 -0.79251249
v -1.47207385 -5.00000000 0.04213679
v -2.45849351 -5.00000000 0.01698516
v 2.51330639 -5.00000000 1.64165704
v 0.50000000 -5.00000000 -1.63397460
v -0.50000000 -5.00000000 -1.63397460
v -1.50000000 -5.00000000 -1.63397460
v -2.49929377 -5.00000000 -1.63718349
v -2.50000000 -5.00000000 1.63397460
v -1.50000000 -5.00000000 1.63397460
v 0.50000000 -5.00000000 1.63397460
v 2.50000000 -5.00000000 -1.63397460
v 1.50000000 -5.00000000 -1.63397460
v -0.00000000 -5.00000000 -0.76794919
v 0.50000000 -5.00000000 0.09807621
v -0.50000000 -5.00000000 0.09807621
v -0.98445626 -5.00000000 -0.77972552
v -0.50000000 -5.00000000 1.63397460
v -5.00000000 -5.00000000 0.50000000
v -5.00000000 -5.00000000 -0.50000000
v 1.50950456 -5.00000000 0.05684030
v 1.00000000 -5.00000000 -0.76794919
v 2.00089063 -5.00000000 -0.80185687
v -1.98600018 -5.00000000 0.83715826
v -5.00000000 -5.00000000 1.50000000
v -5.00000000 -5.00000000 -1.50000000
v 2.47383727 -5.00000000 0.02143871
v -1.00000000 -5.00000000 0.86619693
v 4.26794919 -5.00000000 1.76794919
v -4.26794919 -5.00000000 -1.76794919
v 4.26794919 -5.00000000 -1.76794919
v -4.26794919 -5.00000000 1.76794919
v 0.00092595 -5.00000000 0.86502507
v -5.00000000 -0.85337641 2.59470434
v -5.00000000 -1.68319598 3.04728508
v -5.00000000 -0.93685607 3.60187280
v -5.00000000 0.98314367 3.60279277
v -5.00000000 1.70945794 3.03787551
v -5.00000000 0.94271103 2.59786782
v -5.00000000 0.38357314 3.11806789
v -5.00000000 5.00000000 0.50000000
v -5.00000000 4.23265005 0.00297109
v -5.00000000 4.21751682 1.03981351
v -5.00000000 -0.29050573 3.08270554
v -5.00000000 0.02924197 3.75214137
v -5.00000000 0.54974171 -1.54902638
v -5.00000000 -0.49481252 -1.72598020
v -5.00000000 2.50756110 -1.71001641
v -5.00000000 1.55314336 -1.72790960
v -5.00000000 -3.45147501 -0.52989930
v -5.00000000 -3.49933727 -1.61983894
v -5.00000000 -4.24585018 -0.98854474
v -5.00000000 -1.50682376 -1.69324579
v -5.00000000 -2.50642213 -1.67762945
v -5.00000000 0.70825763 -0.54749585
v -5.00000000 -0.05644378 -0.96232077
v -5.00000000 5.00000000 -0.50000000
v -5.00000000 -4.24942544 -0.00666685
v -5.00000000 -4.18335914 1.03339683
v -5.00000000 4.05478135 -0.99378469
v -5.00000000 1.23754588 -1.06779567
v -5.00000000 3.39350974 -0.31242789
v -5.00000000 3.01014696 -1.05661993
v -5.00000000 3.47479347 -1.75711687
v -5.00000000 5.00000000 -1.50000000
v -5.00000000 -0.73855900 1.00607544
v -5.00000000 -0.32401164 1.79588508
v -5.00000000 0.09510534 1.05047672
v -5.00000000 -1.18685229 1.73341009
v -5.00000000 -1.62343456 1.00362528
v -5.00000000 -2.06061008 1.73168892
v -5.00000000 -0.33939222 0.30746710
v -5.00000000 0.06029607 2.49764288
v -5.00000000 2.06315881 1.73182642
v -5.00000000 1.64884713 1.01891871
v -5.00000000 1.24623100 1.76190147
v -5.00000000 -2.52399839 -0.52797112
v -5.00000000 -2.06612035 0.23532614
v -5.00000000 -1.59630436 -0.46040152
v -5.00000000 -1.18348455 0.26673081
v -5.00000000 -2.49273811 1.01355826
v -5.00000000 2.50077587 1.01413836
v -5.00000000 2.06950425 0.25042615
v -5.00000000 1.23149740 0.27075123
v -5.00000000 1.62733375 -0.54138809
v -5.00000000 -2.91136343 1.77219518
v -5.00000000 2.92152642 1.76701075
v -5.00000000 3.73708467 1.79152645
v -5.00000000 2.53978182 -0.50008788
v -5.00000000 -1.63261060 2.31001349
v -5.00000000 3.60081724 0.40220933
v -5.00000000 -2.91367478 0.27928727
v -5.00000000 3.32780498 1.04887726
v -5.00000000 1.80807065 3.81087008
v -5.00000000 -1.79770643 3.81208288
v -5.00000000 -3.72311532 1.78986627
v -5.00000000 -2.92961607 -1.09806748
v -5.00000000 2.90746127 0.29217323
v -5.00000000 -2.01090661 -1.09963563
v -5.00000000 -1.05663371 -1.05449807
v -5.00000000 4.26085168 -1.76085168
v -5.00000000 0.47100856 1.81197840
v -5.00000000 0.86592193 1.05896830
v -5.00000000 5.00000000 1.50000000
v -5.00000000 4.42618411 1.86904231
v -5.00000000 -4.41462822 1.86465262
v -5.00000000 -0.67451123 -0.38540454
v -5.00000000 -4.27486337 -1.77486337
v -5.00000000 -3.62162714 0.39338343
v -5.00000000 0.44088281 0.30459215
v -5.00000000 1.63467255 2.31050232
v -5.00000000 -3.31778521 1.06456330
v -5.00000000 2.06817835 -1.09635848
v -5.00000000 0.03522954 -0.27262731
v 3.01850631 5.00000000 0.84969465
v 3.49777620 5.00000000 1.65127350
v 4.05988672 5.00000000 0.91856595
v -3.49576263 5.00000000 1.65322795
v -3.03036183 5.00000000 0.85432340
v -4.06129271 5.00000000 0.91950641
v 4.20479477 5.00000000 -0.97603324
v 3.43057454 5.00000000 -1.54048973
v 3.43147171 5.00000000 -0.56128135
v -3.42437847 5.00000000 -1.54670993
v -4.19191200 5.00000000 -0.96961050
v -3.42785128 5.00000000 -0.56319391
v 3.45496189 5.00000000 0.21551034
v -3.44875112 5.00000000 0.20938385
v -2.73976514 5.00000000 -0.93112139
v 2.74756266 5.00000000 -0.93434766
v 0.50000000 5.00000000 1.63397460
v -0.50000000 5.00000000 1.63397460
v -1.50000000 5.00000000 1.63397460
v -2.49929377 5.00000000 1.63718349
v -0.50000000 5.00000000 -1.63397460
v 0.50000000 5.00000000 -1.63397460
v 1.50000000 5.00000000 -1.63397460
v 2.44505661 5.00000000 -1.66193519
v 2.50000000 5.00000000 1.63397460
v 1.50000000 5.00000000 1.63397460
v -2.45662752 5.00000000 -1.67751600
v -1.50000000 5.00000000 -1.63397460
v -1.00000000 5.00000000 0.76794919
v -2.00000000 5.00000000 0.76794919
v 0.00036445 5.00000000 0.76893595
v 4.18622422 5.00000000 -0.04833953
v -4.18622422 5.00000000 -0.04833953
v 2.00000000 5.00000000 0.76794919
v 2.57872046 5.00000000 -0.08108805
v 1.00218668 5.00000000 0.77386976
v 1.51312008 5.00000000 -0.06255278
v 0.50133259 5.00000000 -0.07778853
v -1.50000000 5.00000000 -0.09807621
v -2.57607671 5.00000000 -0.09276597
v -0.50000000 5.00000000 -0.09807621
v 4.26794919 5.00000000 -1.76794919
v -4.26794919 5.00000000 1.76794919
v 4.26794919 5.00000000 1.76794919
v -4.26794919 5.00000000 -1.76794919
v -1.96207823 5.00000000 -0.88324659
v -1.00000000 5.00000000 -0.86602540
v 1.96277705 5.00000000 -0.87278290
v 1.00000000 5.00000000 -0.86602540
v 0.00000000 5.00000000 -0.86602540
f 1 2 3
f 2 4 3
f 5 6 7
f 6 8 7
f 9 10 11
f 10 12 13
f 10 14 11
f 15 16 17
f 14 10 13
f 18 15 17
f 19 20 21
f 22 23 24
f 25 26 27
f 28 29 30
f 15 31 8
f 32 33 25
f 25 33 26
f 34 35 33
f 27 26 36
f 37 38 39
f 40 41 42
f 40 42 43
f 31 24 8
f 44 45 46
f 47 48 35
f 26 33 17
f 45 49 46
f 44 46 50
f 51 52 4
f 47 35 34
f 49 41 40
f 18 53 15
f 38 54 39
f 55 56 5
f 57 37 42
f 58 59 60
f 35 18 17
f 49 40 46
f 61 62 28
f 16 26 17
f 63 43 47
f 41 57 42
f 34 33 32
f 47 43 48
f 57 64 37
f 33 35 17
f 35 48 18
f 42 37 39
f 47 34 65
f 40 43 63
f 37 64 66
f 16 15 8
f 64 67 66
f 9 27 10
f 68 45 44
f 18 54 53
f 40 63 46
f 34 69 65
f 37 66 38
f 43 42 39
f 63 47 65
f 46 63 50
f 36 26 16
f 18 48 54
f 48 43 39
f 36 12 10
f 6 5 12
f 54 48 39
f 34 32 69
f 29 69 30
f 52 19 3
f 53 54 70
f 36 6 12
f 54 38 70
f 50 63 65
f 4 2 9
f 23 55 7
f 29 28 71
f 65 69 29
f 2 27 9
f 32 25 1
f 1 25 2
f 15 53 31
f 50 65 29
f 50 29 71
f 44 50 71
f 72 73 74
f 75 76 77
f 31 53 78
f 70 38 79
f 69 32 80
f 67 72 74
f 4 52 3
f 78 53 70
f 30 69 80
f 76 68 77
f 60 70 79
f 60 78 70
f 21 1 3
f 80 32 1
f 38 66 79
f 31 78 81
f 55 5 7
f 82 83 14
f 28 30 84
f 21 80 1
f 19 21 3
f 25 27 2
f 44 71 77
f 24 23 7
f 16 8 6
f 8 24 7
f 79 66 74
f 36 16 6
f 21 20 85
f 66 67 74
f 30 80 85
f 22 24 81
f 20 86 85
f 12 5 87
f 68 44 77
f 60 59 88
f 58 60 89
f 28 62 90
f 61 28 84
f 4 9 91
f 51 4 91
f 80 21 85
f 81 78 88
f 5 56 87
f 27 36 10
f 24 31 81
f 78 60 88
f 92 22 81
f 60 79 89
f 83 93 11
f 94 82 13
f 77 71 90
f 71 28 90
f 30 85 84
f 56 94 87
f 93 51 91
f 62 75 90
f 73 58 89
f 86 61 84
f 79 74 89
f 59 92 88
f 85 86 84
f 14 83 11
f 82 14 13
f 92 81 88
f 75 77 90
f 74 73 89
f 11 93 91
f 94 13 87
f 9 11 91
f 13 12 87
f 95 96 97
f 98 99 100
f 96 101 102
f 96 103 97
f 101 96 95
f 99 98 104
f 105 99 104
f 106 105 104
f 107 95 97
f 103 108 97
f 109 110 111
f 112 113 114
f 99 52 100
f 55 96 102
f 108 103 115
f 99 105 116
f 110 117 111
f 118 112 114
f 113 98 114
f 101 109 111
f 19 52 99
f 55 23 96
f 106 119 105
f 93 83 120
f 121 109 101
f 113 122 98
f 105 123 116
f 83 124 120
f 94 56 125
f 51 93 126
f 126 93 120
f 94 125 127
f 23 22 103
f 128 112 118
f 110 129 117
f 52 51 100
f 56 55 102
f 86 20 123
f 130 131 108
f 92 59 132
f 133 134 135
f 62 61 136
f 137 138 139
f 58 73 140
f 141 142 143
f 83 82 124
f 82 94 127
f 124 82 127
f 129 128 144
f 117 129 144
f 128 118 144
f 123 105 145
f 107 121 95
f 103 22 115
f 122 106 104
f 139 132 146
f 136 135 147
f 96 23 103
f 123 135 148
f 108 132 149
f 132 108 115
f 135 123 145
f 132 139 149
f 135 136 148
f 139 140 150
f 136 143 151
f 51 126 100
f 125 56 102
f 143 136 147
f 140 139 146
f 123 20 116
f 108 131 97
f 19 99 116
f 105 119 145
f 132 59 146
f 135 134 147
f 86 123 148
f 130 108 149
f 92 132 115
f 133 135 145
f 139 138 149
f 136 61 148
f 137 139 150
f 62 136 151
f 72 152 153
f 154 155 156
f 141 143 147
f 58 140 146
f 142 154 156
f 73 72 153
f 143 157 151
f 140 158 150
f 143 156 157
f 140 153 158
f 126 159 160
f 131 107 97
f 159 114 160
f 121 101 95
f 20 19 116
f 98 122 104
f 161 125 162
f 111 117 161
f 111 161 162
f 127 125 161
f 118 114 159
f 120 124 163
f 102 101 162
f 98 100 160
f 124 127 164
f 144 118 163
f 152 165 158
f 155 76 157
f 117 144 164
f 126 120 159
f 101 111 162
f 114 98 160
f 165 166 158
f 76 75 157
f 124 164 163
f 143 142 156
f 140 73 153
f 164 144 163
f 163 118 159
f 119 133 145
f 22 92 115
f 138 130 149
f 61 86 148
f 134 141 147
f 59 58 146
f 166 137 150
f 75 62 151
f 117 164 161
f 120 163 159
f 164 127 161
f 125 102 162
f 100 126 160
f 157 75 151
f 158 166 150
f 153 152 158
f 156 155 157
f 167 168 169
f 170 171 172
f 154 167 169
f 171 165 172
f 168 173 169
f 174 170 172
f 155 154 169
f 165 152 172
f 72 175 176
f 177 76 178
f 175 179 176
f 180 177 178
f 175 181 182
f 183 177 184
f 185 186 187
f 188 189 190
f 191 185 192
f 193 194 187
f 194 195 190
f 196 197 198
f 191 186 185
f 199 191 192
f 188 200 189
f 193 195 194
f 201 202 203
f 186 193 187
f 195 188 190
f 72 181 175
f 198 175 182
f 183 76 177
f 177 203 184
f 57 41 204
f 72 67 181
f 67 64 205
f 45 68 206
f 64 57 207
f 41 49 208
f 49 45 209
f 200 210 211
f 68 76 183
f 212 199 213
f 41 208 204
f 207 57 204
f 181 67 205
f 64 207 205
f 208 49 209
f 45 206 209
f 206 68 183
f 189 200 211
f 199 192 213
f 197 179 175
f 180 201 177
f 190 189 214
f 189 211 215
f 192 185 216
f 213 192 217
f 210 218 219
f 218 196 219
f 202 220 221
f 220 212 221
f 185 187 222
f 194 190 223
f 198 197 175
f 201 203 177
f 192 216 217
f 214 189 215
f 76 155 178
f 152 72 176
f 215 211 182
f 187 194 224
f 213 217 184
f 204 208 224
f 223 190 214
f 185 222 216
f 173 180 178
f 179 174 176
f 208 209 222
f 224 208 222
f 211 210 219
f 204 224 223
f 212 213 221
f 207 204 223
f 196 198 219
f 203 202 221
f 205 207 214
f 222 209 216
f 187 224 222
f 207 223 214
f 224 194 223
f 209 206 216
f 198 211 219
f 181 205 215
f 205 214 215
f 216 206 217
f 206 183 217
f 213 203 221
f 211 198 182
f 203 213 184
f 178 155 169
f 176 174 172
f 173 178 169
f 152 176 172
f 181 215 182
f 217 183 184
f 225 226 227
f 228 229 230
f 231 232 233
f 230 229 234
f 232 225 233
f 235 236 237
f 238 239 240
f 241 239 238
f 242 243 244
f 245 246 241
f 244 243 247
f 232 226 225
f 228 231 229
f 248 225 227
f 249 250 251
f 228 244 231
f 252 243 253
f 244 247 232
f 237 236 254
f 255 250 249
f 233 256 257
f 237 258 235
f 244 232 231
f 259 255 249
f 246 239 241
f 253 243 260
f 261 233 257
f 225 256 233
f 262 263 264
f 265 266 259
f 251 228 230
f 238 240 262
f 229 267 268
f 269 248 270
f 245 227 246
f 229 271 234
f 228 250 244
f 270 227 245
f 266 237 272
f 268 271 229
f 227 226 246
f 268 267 261
f 259 266 255
f 266 258 237
f 248 227 270
f 251 250 228
f 237 254 260
f 273 274 236
f 247 243 252
f 239 253 240
f 275 235 276
f 233 267 231
f 266 272 255
f 231 267 229
f 265 258 266
f 247 226 232
f 277 278 279
f 280 273 281
f 276 258 265
f 257 256 277
f 279 278 269
f 237 260 272
f 240 263 262
f 263 282 264
f 255 242 250
f 261 267 233
f 283 271 268
f 272 243 242
f 234 271 283
f 264 282 280
f 250 242 244
f 272 242 255
f 248 256 225
f 236 284 273
f 226 252 246
f 269 278 248
f 254 285 260
f 286 287 275
f 247 252 226
f 236 274 254
f 281 284 286
f 253 285 240
f 263 285 274
f 260 243 272
f 274 285 254
f 235 287 236
f 260 285 253
f 240 285 263
f 246 252 239
f 275 287 235
f 235 258 276
f 239 252 253
f 263 274 282
f 273 284 281
f 280 282 273
f 248 278 256
f 256 278 277
f 284 287 286
f 282 274 273
f 236 287 284
f 288 289 290
f 291 292 293
f 290 289 294
f 295 296 297
f 298 296 295
f 299 300 301
f 245 292 291
f 302 298 295
f 303 304 305
f 306 307 308
f 276 309 275
f 310 311 312
f 313 314 315
f 316 317 259
f 308 307 318
f 238 319 320
f 293 321 322
f 288 323 289
f 296 307 324
f 238 320 241
f 249 316 259
f 293 325 321
f 303 305 309
f 294 326 327
f 328 295 297
f 294 289 326
f 329 304 303
f 313 315 330
f 331 293 322
f 332 333 334
f 309 305 275
f 334 335 332
f 275 305 286
f 293 336 291
f 337 309 276
f 312 311 338
f 265 337 276
f 264 339 262
f 301 340 299
f 286 305 341
f 327 342 313
f 343 329 303
f 344 345 343
f 264 346 339
f 295 347 302
f 348 349 342
f 345 350 343
f 259 351 265
f 262 352 238
f 353 303 309
f 328 321 295
f 354 343 303
f 295 321 347
f 241 292 245
f 251 355 249
f 317 351 259
f 356 324 357
f 358 288 290
f 359 360 306
f 238 352 319
f 353 354 303
f 318 307 298
f 344 361 345
f 299 362 300
f 245 291 270
f 280 346 264
f 345 359 350
f 345 360 359
f 350 329 343
f 354 344 343
f 316 348 317
f 361 363 360
f 322 321 328
f 297 296 356
f 361 360 345
f 346 364 311
f 332 335 365
f 337 353 309
f 310 366 311
f 291 336 367
f 280 368 346
f 298 307 296
f 369 364 370
f 330 332 365
f 234 334 230
f 371 367 372
f 286 341 281
f 289 299 326
f 360 373 306
f 329 369 370
f 367 374 291
f 358 375 288
f 360 363 373
f 324 376 357
f 311 364 338
f 359 377 350
f 359 306 308
f 318 298 302
f 357 376 378
f 378 379 380
f 338 364 369
f 380 375 358
f 281 368 280
f 315 332 330
f 348 340 317
f 312 338 377
f 354 300 344
f 341 368 281
f 350 369 329
f 378 376 379
f 342 381 348
f 338 369 377
f 376 373 379
f 379 375 380
f 367 336 372
f 291 374 270
f 370 304 329
f 359 308 377
f 344 382 361
f 331 336 293
f 341 370 368
f 292 325 293
f 353 301 354
f 373 363 379
f 383 384 283
f 385 386 387
f 230 333 251
f 283 384 234
f 387 386 371
f 346 311 339
f 320 325 292
f 289 362 299
f 379 363 375
f 347 388 302
f 361 389 363
f 390 374 367
f 391 335 334
f 344 300 382
f 308 312 377
f 340 381 299
f 301 300 354
f 375 389 288
f 320 292 241
f 249 355 316
f 386 390 367
f 384 391 334
f 315 392 332
f 356 296 324
f 306 393 307
f 382 389 361
f 316 349 348
f 326 342 327
f 337 394 353
f 349 314 342
f 321 325 347
f 251 333 392
f 373 393 306
f 363 389 375
f 308 318 312
f 368 364 346
f 377 369 350
f 341 304 370
f 307 393 324
f 318 302 310
f 305 304 341
f 319 366 388
f 279 390 385
f 395 391 383
f 355 392 315
f 324 393 376
f 318 310 312
f 353 394 301
f 389 323 288
f 396 391 395
f 269 390 279
f 388 366 310
f 372 336 331
f 376 393 373
f 319 397 320
f 334 333 230
f 394 340 301
f 371 386 367
f 234 384 334
f 382 323 389
f 251 392 355
f 319 352 366
f 355 349 316
f 365 335 396
f 270 374 269
f 325 397 347
f 348 381 340
f 347 397 388
f 342 314 313
f 315 349 355
f 326 381 342
f 366 352 339
f 339 352 262
f 370 364 368
f 265 351 337
f 300 362 382
f 302 388 310
f 299 381 326
f 337 351 394
f 320 397 325
f 317 340 394
f 396 335 391
f 269 374 390
f 311 366 339
f 362 323 382
f 388 397 319
f 392 333 332
f 289 323 362
f 394 351 317
f 383 391 384
f 385 390 386
f 315 314 349
f 398 399 400
f 401 402 403
f 404 405 406
f 407 408 409
f 400 410 398
f 411 412 413
f 414 409 415
f 396 416 417
f 418 419 420
f 421 422 423
f 396 417 365
f 406 424 404
f 327 423 425
f 403 426 401
f 427 428 429
f 430 431 371
f 420 432 418
f 433 431 430
f 423 434 425
f 435 436 437
f 413 430 411
f 409 438 407
f 415 417 414
f 439 401 440
f 441 439 440
f 407 442 443
f 421 423 313
f 417 416 444
f 445 446 432
f 443 442 447
f 445 432 420
f 372 430 371
f 427 448 428
f 449 436 435
f 441 440 450
f 451 452 453
f 365 417 415
f 412 454 413
f 414 438 409
f 455 456 186
f 441 450 457
f 328 458 322
f 430 459 433
f 199 460 461
f 443 408 407
f 421 408 422
f 462 463 464
f 463 465 464
f 466 449 467
f 468 457 469
f 453 452 470
f 461 460 424
f 471 441 468
f 472 449 466
f 467 453 470
f 195 473 472
f 474 475 476
f 464 465 477
f 478 402 401
f 457 479 469
f 313 423 327
f 465 480 477
f 400 481 405
f 449 453 467
f 327 425 294
f 297 482 328
f 472 466 188
f 483 484 485
f 484 476 482
f 471 439 441
f 405 481 406
f 434 486 425
f 486 487 425
f 441 457 468
f 488 489 410
f 357 490 403
f 401 426 440
f 463 491 465
f 418 432 455
f 425 487 294
f 410 489 398
f 411 430 372
f 297 478 482
f 193 456 473
f 450 492 457
f 444 493 417
f 494 485 495
f 330 421 313
f 322 496 331
f 455 432 456
f 455 497 418
f 473 436 472
f 498 405 404
f 466 467 499
f 495 439 471
f 294 500 290
f 451 501 452
f 502 503 504
f 505 400 506
f 356 402 297
f 507 468 469
f 195 472 188
f 191 455 186
f 447 508 509
f 482 476 458
f 193 473 195
f 440 510 450
f 511 471 468
f 331 411 372
f 365 415 330
f 400 405 506
f 505 410 400
f 512 492 513
f 495 514 439
f 515 436 473
f 467 470 428
f 516 488 517
f 518 407 519
f 191 461 455
f 186 456 193
f 200 466 499
f 502 520 503
f 512 491 492
f 485 514 495
f 521 475 474
f 188 466 200
f 520 522 503
f 413 459 430
f 469 479 462
f 523 462 464
f 488 410 517
f 524 464 477
f 467 428 499
f 417 493 414
f 507 511 468
f 452 508 470
f 503 525 504
f 510 426 490
f 428 520 429
f 453 435 451
f 200 499 210
f 498 404 526
f 483 476 484
f 527 414 528
f 529 413 530
f 432 446 456
f 378 490 357
f 506 405 498
f 477 480 486
f 447 525 508
f 504 525 442
f 474 476 483
f 199 461 191
f 516 454 488
f 407 438 519
f 531 495 471
f 504 442 518
f 496 521 412
f 487 500 294
f 532 469 462
f 357 403 356
f 290 533 358
f 472 436 449
f 297 402 478
f 424 460 404
f 496 475 521
f 534 459 529
f 414 493 528
f 440 426 510
f 406 481 535
f 524 523 464
f 413 454 530
f 527 438 414
f 461 497 455
f 536 494 495
f 533 537 358
f 537 513 538
f 494 483 485
f 523 532 462
f 415 409 421
f 496 412 411
f 212 460 199
f 409 408 421
f 443 539 422
f 540 418 541
f 462 479 463
f 496 542 475
f 511 531 471
f 543 507 469
f 544 477 486
f 422 408 443
f 529 459 413
f 507 420 511
f 518 442 407
f 492 479 457
f 449 435 453
f 470 520 428
f 508 522 470
f 545 433 546
f 547 444 548
f 456 446 473
f 481 549 535
f 322 542 496
f 434 544 486
f 531 536 495
f 210 448 218
f 218 448 427
f 550 500 487
f 533 512 537
f 551 539 443
f 330 415 421
f 496 411 331
f 532 543 469
f 552 524 477
f 452 501 509
f 400 399 481
f 428 448 499
f 553 554 534
f 555 556 557
f 454 558 488
f 541 424 406
f 458 542 322
f 509 508 452
f 541 406 535
f 551 443 447
f 528 493 555
f 543 445 507
f 532 437 543
f 524 451 523
f 401 559 478
f 474 489 521
f 540 419 418
f 560 398 474
f 371 431 387
f 395 416 396
f 560 474 483
f 534 554 459
f 459 554 433
f 490 426 403
f 486 480 487
f 540 535 536
f 445 420 507
f 540 541 535
f 531 540 536
f 544 552 477
f 487 480 550
f 512 513 537
f 551 509 552
f 551 447 509
f 494 560 483
f 358 537 380
f 517 410 505
f 478 484 482
f 387 431 545
f 548 416 395
f 429 520 502
f 530 454 516
f 519 438 527
f 544 551 552
f 536 549 494
f 473 446 515
f 546 554 553
f 557 556 547
f 494 549 560
f 424 497 461
f 513 510 538
f 533 550 512
f 524 501 451
f 423 422 434
f 380 538 378
f 220 561 212
f 526 561 220
f 482 458 328
f 380 537 538
f 476 475 458
f 552 501 524
f 420 419 511
f 481 399 549
f 509 501 552
f 535 549 536
f 511 419 531
f 541 497 424
f 404 561 526
f 437 515 543
f 533 500 550
f 543 515 445
f 538 490 378
f 532 562 437
f 484 559 485
f 549 399 560
f 531 419 540
f 444 556 493
f 499 448 210
f 513 492 450
f 538 510 490
f 451 562 523
f 435 562 451
f 437 436 515
f 508 525 503
f 398 489 474
f 437 562 435
f 450 510 513
f 492 491 463
f 412 558 454
f 463 479 492
f 560 399 398
f 493 556 555
f 439 514 401
f 442 525 447
f 460 561 404
f 515 446 445
f 544 539 551
f 290 500 533
f 418 497 541
f 403 402 356
f 550 480 465
f 521 558 412
f 545 431 433
f 444 416 548
f 523 562 532
f 489 558 521
f 433 554 546
f 547 556 444
f 470 522 520
f 434 539 544
f 212 561 460
f 550 491 512
f 478 559 484
f 475 542 458
f 465 491 550
f 422 539 434
f 488 558 489
f 559 514 485
f 401 514 559
f 503 522 508
f 563 564 565
f 566 141 134
f 137 567 138
f 568 569 570
f 571 572 573
f 137 166 574
f 575 142 141
f 576 566 134
f 138 567 577
f 119 578 579
f 167 154 142
f 165 171 166
f 107 131 580
f 581 110 569
f 112 582 563
f 579 578 583
f 584 585 586
f 566 575 141
f 567 137 574
f 565 564 587
f 568 588 589
f 568 570 588
f 590 591 592
f 580 131 593
f 594 584 586
f 595 596 597
f 572 571 598
f 563 582 564
f 599 597 600
f 592 591 583
f 600 597 601
f 602 571 573
f 588 603 589
f 581 569 568
f 596 595 592
f 575 168 604
f 170 574 605
f 595 597 599
f 606 607 608
f 609 610 599
f 595 590 592
f 593 611 586
f 110 109 569
f 113 112 563
f 612 582 613
f 606 608 614
f 578 592 583
f 167 142 604
f 166 171 605
f 122 615 616
f 617 611 593
f 612 613 618
f 616 615 596
f 610 595 599
f 619 620 603
f 584 606 621
f 564 572 587
f 581 568 622
f 119 106 578
f 121 107 623
f 620 602 573
f 570 606 614
f 616 596 592
f 623 107 580
f 613 622 618
f 606 570 621
f 622 620 618
f 584 607 606
f 624 625 603
f 580 593 586
f 585 584 621
f 619 602 620
f 587 572 598
f 620 622 589
f 610 590 595
f 594 626 584
f 627 628 629
f 630 625 624
f 584 626 607
f 574 166 605
f 142 575 604
f 625 619 603
f 106 122 616
f 109 121 631
f 122 113 615
f 615 565 596
f 609 599 632
f 624 603 588
f 570 631 621
f 630 624 608
f 564 582 612
f 626 633 607
f 582 128 613
f 129 581 613
f 613 581 622
f 634 630 608
f 109 631 569
f 615 113 563
f 635 609 632
f 636 635 632
f 603 620 589
f 631 623 621
f 596 565 597
f 628 636 600
f 629 628 600
f 588 570 614
f 571 627 598
f 565 587 601
f 633 637 638
f 579 639 640
f 112 128 582
f 129 110 581
f 637 634 638
f 578 616 592
f 133 579 640
f 623 580 585
f 622 568 589
f 597 565 601
f 128 129 613
f 106 616 578
f 569 631 570
f 615 563 565
f 608 624 614
f 631 121 623
f 611 594 586
f 572 612 573
f 564 612 572
f 131 130 641
f 133 119 579
f 642 639 579
f 576 134 640
f 138 577 643
f 629 587 598
f 644 617 641
f 629 600 601
f 623 585 621
f 593 131 641
f 627 629 598
f 642 579 583
f 620 573 618
f 600 636 632
f 617 593 641
f 607 633 638
f 634 608 638
f 608 607 638
f 577 644 643
f 639 576 640
f 599 600 632
f 591 642 583
f 643 644 641
f 130 138 643
f 134 133 640
f 130 643 641
f 168 167 604
f 171 170 605
f 573 612 618
f 585 580 586
f 624 588 614
f 587 629 601
f 645 646 647
f 648 649 650
f 651 652 650
f 653 654 647
f 655 645 647
f 649 656 650
f 656 651 650
f 654 655 647
f 657 646 645
f 653 658 654
f 648 659 649
f 660 652 651
f 661 662 663
f 664 665 666
f 429 667 660
f 617 668 669
f 594 670 671
f 660 667 652
f 527 672 673
f 504 674 662
f 577 675 676
f 677 678 679
f 677 679 680
f 179 197 656
f 672 528 658
f 674 518 681
f 667 502 662
f 675 567 659
f 668 644 676
f 670 611 669
f 657 626 671
f 682 683 655
f 664 670 680
f 684 685 686
f 519 673 681
f 676 675 686
f 672 687 673
f 668 676 685
f 668 685 677
f 668 677 669
f 677 685 678
f 678 685 684
f 669 677 680
f 671 664 646
f 528 555 658
f 527 528 672
f 519 527 673
f 518 519 681
f 504 518 674
f 502 504 662
f 429 502 667
f 427 429 660
f 567 574 659
f 577 567 675
f 644 577 676
f 617 644 668
f 611 617 669
f 594 611 670
f 626 594 671
f 633 626 657
f 671 670 664
f 670 669 680
f 685 676 686
f 675 659 648
f 672 658 653
f 657 671 646
f 675 648 686
f 672 653 687
f 197 196 651
f 174 179 649
f 688 682 654
f 683 689 645
f 665 687 666
f 684 661 663
f 664 680 665
f 667 662 661
f 684 686 690
f 673 687 691
f 179 656 649
f 682 655 654
f 655 683 645
f 656 197 651
f 196 218 692
f 218 427 692
f 637 633 693
f 689 637 693
f 574 170 694
f 555 557 695
f 170 174 694
f 557 688 695
f 687 665 691
f 661 684 690
f 680 679 665
f 652 667 661
f 679 696 691
f 662 674 663
f 679 678 696
f 646 664 666
f 687 653 666
f 674 681 696
f 678 684 663
f 678 663 696
f 663 674 696
f 696 681 691
f 681 673 691
f 686 648 690
f 652 661 690
f 665 679 691
f 645 689 693
f 651 196 692
f 174 649 694
f 688 654 695
f 658 555 695
f 427 660 692
f 659 574 694
f 633 657 693
f 654 658 695
f 649 659 694
f 657 645 693
f 660 651 692
f 646 666 647
f 690 648 650
f 652 690 650
f 666 653 647
f 697 698 699
f 700 701 702
f 700 702 703
f 704 705 706
f 385 387 701
f 395 383 698
f 697 699 707
f 261 257 708
f 709 602 710
f 711 627 712
f 713 714 715
f 708 257 700
f 261 708 699
f 716 625 717
f 718 709 719
f 704 720 705
f 619 716 710
f 571 709 712
f 683 721 715
f 682 688 722
f 705 720 723
f 619 625 716
f 571 602 709
f 628 627 711
f 630 714 717
f 602 619 710
f 627 571 712
f 709 718 724
f 625 630 717
f 725 723 726
f 721 713 715
f 630 634 714
f 257 277 700
f 268 261 699
f 723 727 726
f 720 728 723
f 729 730 731
f 729 732 730
f 733 732 729
f 733 734 732
f 729 731 735
f 730 697 736
f 636 628 727
f 737 738 739
f 740 741 742
f 733 729 743
f 744 734 733
f 737 745 738
f 729 735 743
f 738 746 747
f 683 682 721
f 628 711 727
f 747 748 718
f 730 732 697
f 749 395 734
f 387 750 737
f 545 546 751
f 748 746 752
f 387 545 750
f 698 697 753
f 738 745 746
f 548 395 749
f 747 746 748
f 744 733 741
f 742 741 743
f 706 705 754
f 755 740 713
f 737 750 745
f 755 741 740
f 744 741 755
f 749 734 744
f 741 733 743
f 745 750 756
f 279 385 757
f 383 283 758
f 547 548 759
f 714 713 760
f 682 722 721
f 752 746 761
f 750 545 751
f 277 279 757
f 283 268 758
f 762 742 763
f 746 745 761
f 745 756 761
f 635 636 764
f 728 635 764
f 548 749 759
f 756 750 751
f 731 765 766
f 553 767 768
f 731 730 765
f 716 762 763
f 688 557 769
f 767 704 706
f 705 723 725
f 743 735 770
f 738 747 766
f 637 689 771
f 634 637 771
f 755 713 772
f 747 718 773
f 395 698 753
f 701 387 774
f 689 683 715
f 734 395 753
f 744 755 775
f 742 743 770
f 387 737 774
f 709 710 719
f 756 751 706
f 770 719 763
f 713 721 772
f 766 747 773
f 752 761 725
f 546 553 768
f 697 732 753
f 722 688 769
f 749 744 775
f 557 547 769
f 699 708 707
f 759 749 775
f 719 710 763
f 711 712 776
f 712 709 724
f 730 736 765
f 765 739 766
f 722 759 775
f 759 722 769
f 716 717 762
f 756 706 754
f 636 727 764
f 708 700 703
f 739 738 766
f 700 277 757
f 268 699 758
f 701 700 757
f 699 698 758
f 723 728 764
f 710 716 763
f 714 634 771
f 735 731 773
f 731 766 773
f 717 714 760
f 773 718 777
f 702 701 774
f 715 714 771
f 706 751 768
f 727 723 764
f 725 761 754
f 732 734 753
f 385 701 757
f 698 383 758
f 737 739 774
f 770 735 777
f 727 711 726
f 776 712 724
f 705 725 754
f 719 770 777
f 752 726 776
f 742 770 763
f 726 711 776
f 736 697 707
f 740 742 762
f 713 740 760
f 751 546 768
f 760 740 762
f 748 752 776
f 739 765 702
f 718 748 724
f 721 722 772
f 765 736 702
f 748 776 724
f 547 759 769
f 717 760 762
f 767 706 768
f 689 715 771
f 761 756 754
f 775 755 772
f 752 725 726
f 702 736 703
f 739 702 774
f 703 736 707
f 722 775 772
f 708 703 707
f 718 719 777
f 735 773 777
f 778 779 780
f 781 782 783
f 784 785 786
f 787 788 789
f 778 780 790
f 783 782 791
f 787 789 792
f 786 785 793
f 517 794 795
f 530 796 797
f 642 798 799
f 576 800 801
f 778 802 779
f 506 802 803
f 590 804 805
f 796 806 807
f 806 795 808
f 201 180 809
f 802 498 779
f 794 505 803
f 796 516 795
f 781 529 797
f 804 610 787
f 798 591 805
f 800 639 799
f 785 566 801
f 720 704 810
f 811 802 778
f 795 794 808
f 811 778 812
f 813 814 815
f 807 816 817
f 808 813 815
f 803 802 811
f 794 813 808
f 796 807 797
f 803 811 813
f 811 812 814
f 811 814 813
f 816 806 818
f 818 806 808
f 818 808 815
f 498 526 779
f 506 498 802
f 505 506 803
f 517 505 794
f 516 517 795
f 530 516 796
f 529 530 797
f 534 529 781
f 610 609 787
f 590 610 804
f 591 590 805
f 642 591 798
f 639 642 799
f 576 639 800
f 566 576 801
f 575 566 785
f 794 803 813
f 796 795 806
f 807 806 816
f 807 817 782
f 797 807 782
f 781 797 782
f 202 201 780
f 180 173 784
f 704 767 783
f 728 720 788
f 201 809 780
f 720 810 788
f 809 180 784
f 810 704 783
f 173 168 819
f 168 575 819
f 553 534 820
f 767 553 820
f 526 220 821
f 609 635 822
f 220 202 821
f 635 728 822
f 804 787 792
f 785 801 793
f 805 823 824
f 805 804 823
f 817 816 823
f 823 816 824
f 814 825 826
f 798 805 824
f 801 800 825
f 825 800 826
f 799 798 827
f 798 824 827
f 814 812 825
f 816 818 824
f 818 815 827
f 799 827 826
f 800 799 826
f 815 814 826
f 824 818 827
f 827 815 826
f 788 810 789
f 809 784 786
f 812 778 790
f 782 817 791
f 780 809 790
f 810 783 791
f 786 812 790
f 817 789 791
f 784 173 819
f 783 767 820
f 202 780 821
f 728 788 822
f 779 526 821
f 534 781 820
f 787 609 822
f 575 785 819
f 780 779 821
f 788 787 822
f 781 783 820
f 785 784 819
f 812 786 793
f 789 817 792
f 817 823 792
f 825 812 793
f 789 810 791
f 809 786 790
f 823 804 792
f 801 825 793
