v -0.47863935 -2.96157127 -0.83790712
v -0.19001088 -2.99397660 -1.44539007
v 0.00000000 -3.00000000 -1.00000000
v -3.00000000 -0.00000000 -2.00000000
v -2.96282027 -0.47084609 -1.37692372
v -3.00000000 -0.00000000 -1.42857143
v 2.93444280 -0.62373507 2.00000000
v 2.96771404 -0.43894575 1.42228918
v 3.00000000 0.00000000 2.00000000
v -2.93444280 -0.62373507 -2.00000000
v -2.83627480 -0.97751997 1.43360651
v -2.95899276 -0.49432968 1.11348670
v -2.81318388 -1.04211153 0.73134264
v -0.70458028 -2.91608756 -1.43352542
v 0.31358539 -2.98356569 -2.00000000
v 0.85406304 -2.87586097 -1.46083585
v 0.32988787 -2.98180717 -1.39784396
v -0.98215482 -2.83467316 -0.91598156
v 0.92705098 -2.85316955 2.00000000
v 0.44226256 -2.96722157 1.41669124
v 0.91027392 -2.85856632 1.39521801
v 0.31358539 -2.98356569 2.00000000
v 0.92705098 -2.85316955 -2.00000000
v -2.95827467 -0.49860905 0.56854022
v -0.40093348 -2.97308802 1.28847632
v 0.03371542 -2.99981054 1.52186376
v -0.31358539 -2.98356569 2.00000000
v -0.81752958 -2.88645897 1.53754131
v -0.43992464 -2.96756909 -0.23226905
v -0.46347164 -2.96398280 0.25126201
v -0.95541615 -2.84379675 0.05661495
v -2.65410900 -1.39846538 1.04031231
v -0.31358539 -2.98356569 -2.00000000
v -0.83644814 -2.88103358 -0.48628523
v -0.92705098 -2.85316955 -2.00000000
v 1.36638246 -2.67076749 -1.47857130
v 1.36638246 -2.67076749 1.47857130
v 1.50000000 -2.59807621 2.00000000
v 1.50000000 -2.59807621 -2.00000000
v -3.00000000 -0.00000000 -0.85714286
v -2.92306174 -0.67506301 -0.90196579
v -2.41100027 -1.78523884 -0.91676745
v -2.59032155 -1.51335200 -0.39185041
v -2.74473584 -1.21096044 -0.91640329
v -2.39483818 -1.80686194 0.13211771
v -2.21441464 -2.02394857 -0.40209342
v -1.24102473 -2.73127399 -1.44564680
v -1.51817973 -2.58749499 -0.92543141
v -1.76607211 -2.42507512 -1.45609707
v -2.68204259 -1.34411590 0.17683996
v -2.84347168 -0.95638318 -0.34155075
v 2.00739182 -2.22943448 -2.00000000
v 1.85555291 -2.35731275 -1.48589954
v 1.85555291 -2.35731275 1.48589954
v 2.00739182 -2.22943448 2.00000000
v -2.74063637 -1.22020993 -2.00000000
v -2.58701399 -1.51899922 -1.44577385
v -2.83290898 -0.98723183 -1.43125063
v 3.00000000 0.00000000 1.50000000
v 3.00000000 0.00000000 1.00000000
v 3.00000000 0.00000000 -1.00000000
v 2.96771404 -0.43894575 -1.42228918
v 3.00000000 0.00000000 -1.50000000
v -1.99748337 -2.23831637 -0.92221930
v -2.42705098 -1.76335576 -2.00000000
v -1.50042670 -2.59782981 0.09595173
v -1.22532191 -2.73835465 0.60110020
v -2.00739182 -2.22943448 -2.00000000
v -2.21959784 -2.01826297 -1.45493095
v -2.87237538 -0.86571338 0.27431204
v -2.21179238 -2.02681387 1.48001457
v -1.75151076 -2.43561287 1.48873606
v -2.00739182 -2.22943448 2.00000000
v -1.26814802 -2.71878660 -0.42569541
v -1.75660054 -2.43194460 -0.41090003
v 2.28828111 -1.94004370 1.48675013
v 2.42705098 -1.76335576 2.00000000
v 2.42705098 -1.76335576 -2.00000000
v 2.28828111 -1.94004370 -1.48675013
v 2.94235584 -0.58527097 -1.00000000
v 2.94235584 -0.58527097 1.00000000
v -1.50000000 -2.59807621 2.00000000
v -1.23389863 -2.73450072 1.46851500
v -0.92705098 -2.85316955 2.00000000
v -1.50000000 -2.59807621 -2.00000000
v -1.98205844 -2.25198675 0.11159967
v -2.42705098 -1.76335576 2.00000000
v -2.56875443 -1.54967760 1.47657626
v -1.73550413 -2.44704422 0.61295383
v -2.93444280 -0.62373507 2.00000000
v -2.74063637 -1.22020993 2.00000000
v -2.54666015 -1.58572446 0.66421005
v 0.58527097 -2.94235584 -1.00000000
v 2.62675650 -1.44918954 1.48631340
v 2.74063637 -1.22020993 2.00000000
v 2.74063637 -1.22020993 -2.00000000
v 2.62675650 -1.44918954 -1.48631340
v -2.96764793 -0.43939249 -0.00531695
v -2.18382761 -2.05691443 0.62871271
v 3.00000000 0.00000000 -2.00000000
v 2.98774573 -0.27087899 -1.74989392
v 2.93444280 -0.62373507 -2.00000000
v -1.47970643 -2.60968751 1.02858490
v -0.91206932 -2.85799398 1.00596320
v 0.58527097 -2.94235584 1.00000000
v 0.00000000 -3.00000000 1.00000000
v -2.96677766 -0.44523067 -0.46523861
v -3.00000000 -0.00000000 0.28571429
v -3.00000000 -0.00000000 0.85714286
v -3.00000000 -0.00000000 -0.28571429
v 2.85627118 -0.91745024 -1.47841908
v 2.85627118 -0.91745024 1.47841908
v 0.00000000 -3.00000000 0.00000000
v 0.00000000 -3.00000000 -0.50000000
v 0.00000000 -3.00000000 0.50000000
v -0.43012800 -2.96900487 0.75650778
v -3.00000000 -0.00000000 1.42857143
v 2.77163860 -1.14805030 1.00000000
v 2.77163860 -1.14805030 -1.00000000
v 2.49440884 -1.66671070 -1.00000000
v 2.49440884 -1.66671070 1.00000000
v 2.12132034 -2.12132034 1.00000000
v 2.12132034 -2.12132034 -1.00000000
v -1.97254476 -2.26032457 1.03695488
v 1.66671070 -2.49440884 1.00000000
v 1.66671070 -2.49440884 -1.00000000
v -3.00000000 -0.00000000 2.00000000
v -2.96650900 -0.44701715 1.56742232
v -2.37461584 -1.83335746 1.03431275
v 1.14805030 -2.77163860 -1.00000000
v 1.14805030 -2.77163860 1.00000000
v -0.80556052 -2.88982218 0.49979490
v 0.00000000 3.00000000 -1.00000000
v -0.18826728 2.99408674 -1.44427065
v -0.48835269 2.95998508 -0.83320806
v 2.93444280 0.62373507 -2.00000000
v 2.96771404 0.43894575 -1.42228918
v -2.82023599 1.02287289 0.68669643
v -2.96109454 0.48157980 1.11033280
v -2.83798249 0.97255098 1.43362439
v -0.70499791 2.91598662 -1.43356535
v -0.96813193 2.83949301 0.07400986
v -0.47651805 2.96191332 0.25837036
v -0.45167720 2.96580305 -0.22716993
v 0.33052258 2.98173688 -1.39747746
v 0.85412665 2.87584208 -1.46081301
v 0.31358539 2.98356569 -2.00000000
v -0.99482689 2.83025078 -0.90915828
v -0.86004570 2.87407748 -0.46684155
v 0.91042178 2.85851923 1.39516818
v 0.44261116 2.96716959 1.41653917
v 0.92705098 2.85316955 2.00000000
v -2.66621226 1.37524986 1.04205700
v 0.31358539 2.98356569 2.00000000
v 0.92705098 2.85316955 -2.00000000
v -0.31358539 2.98356569 2.00000000
v 0.02882759 2.99986149 1.52409286
v -0.40408591 2.97266119 1.28781758
v -0.79197362 2.89357526 1.55642111
v -0.31358539 2.98356569 -2.00000000
v -2.96011972 0.48753587 0.57142857
v 1.36638246 2.67076749 1.47857130
v 1.36638246 2.67076749 -1.47857130
v -1.77100472 2.42147523 -1.45716617
v -1.52352797 2.58434953 -0.92551844
v -1.24199890 2.73083114 -1.44681847
v 1.50000000 2.59807621 2.00000000
v 1.50000000 2.59807621 -2.00000000
v -2.92182058 0.68041494 -0.89640410
v -2.96267715 0.47174582 -1.34711570
v -0.92705098 2.85316955 -2.00000000
v 2.00739182 2.22943448 2.00000000
v 1.85555291 2.35731275 1.48589954
v 1.85555291 2.35731275 -1.48589954
v 2.00739182 2.22943448 -2.00000000
v -1.30321232 2.70215426 -0.42220310
v -2.82844463 0.99995049 -1.42981493
v -2.72968175 1.24452303 -0.91113901
v -1.51953666 2.58669835 0.10875694
v 2.96771404 0.43894575 1.42228918
v -2.00803945 2.22885117 -0.92211106
v -2.84749623 0.94433323 -0.34958970
v -2.68740863 1.33335473 0.17092166
v -2.58358293 1.52482762 -0.38122740
v -1.50000000 2.59807621 -2.00000000
v -2.58352003 1.52493418 -1.45210572
v -2.21878866 2.01915251 -0.40191953
v -2.40604223 1.79191540 0.12788010
v -2.42199608 1.77029234 -0.92122740
v -1.25408472 2.72530210 0.61575699
v -2.00739182 2.22943448 2.00000000
v -1.75384857 2.43392999 1.47329604
v -2.21685053 2.02128022 1.48189221
v -2.23013451 2.00661408 -1.46202298
v -1.77188678 2.42082986 -0.40304374
v 2.28828111 1.94004370 -1.48675013
v 2.42705098 1.76335576 -2.00000000
v 2.42705098 1.76335576 2.00000000
v 2.28828111 1.94004370 1.48675013
v 2.94235584 0.58527097 1.00000000
v 2.94235584 0.58527097 -1.00000000
v -0.92705098 2.85316955 2.00000000
v -1.22020993 2.74063637 1.45710286
v -1.50000000 2.59807621 2.00000000
v -2.96659019 0.44647805 -0.45929600
v -2.87443564 0.85884794 0.26222716
v -2.42705098 1.76335576 -2.00000000
v -1.99935063 2.23664862 0.11366507
v -2.74063637 1.22020993 2.00000000
v -2.57578975 1.53795551 1.47820988
v -2.00739182 2.22943448 -2.00000000
v -1.76162582 2.42830692 0.61163462
v -0.91973988 2.85553472 1.00765733
v -1.49815145 2.59914260 1.04590705
v -2.96784588 0.43805348 -0.00848537
v -2.93444280 0.62373507 2.00000000
v -2.93444280 0.62373507 -2.00000000
v -2.74063637 1.22020993 -2.00000000
v -2.42705098 1.76335576 2.00000000
v 0.58527097 2.94235584 -1.00000000
v 2.74063637 1.22020993 2.00000000
v 2.62675650 1.44918954 1.48631340
v 2.62675650 1.44918954 -1.48631340
v 2.74063637 1.22020993 -2.00000000
v -2.56153329 1.56158483 0.65517103
v 2.98774573 0.27087899 1.74989392
v 2.93444280 0.62373507 2.00000000
v -2.98774609 0.27087511 -1.71546339
v 0.00000000 3.00000000 1.00000000
v 0.58527097 2.94235584 1.00000000
v -2.20449954 2.03474367 0.62535894
v 2.85627118 0.91745024 -1.47841908
v 2.85627118 0.91745024 1.47841908
v 0.00000000 3.00000000 -0.50000000
v 0.00000000 3.00000000 0.00000000
v 0.00000000 3.00000000 0.50000000
v -0.43883533 2.96773037 0.75458196
v -0.82976338 2.88296596 0.53853981
v 2.77163860 1.14805030 -1.00000000
v 2.77163860 1.14805030 1.00000000
v 2.49440884 1.66671070 -1.00000000
v 2.49440884 1.66671070 1.00000000
v 2.12132034 2.12132034 -1.00000000
v 2.12132034 2.12132034 1.00000000
v 1.66671070 2.49440884 -1.00000000
v 1.66671070 2.49440884 1.00000000
v -2.96706430 0.44331644 1.56734466
v 1.14805030 2.77163860 1.00000000
v 1.14805030 2.77163860 -1.00000000
v -1.98774004 2.24697342 1.04614463
v -2.39665303 1.80445401 1.04626059
v 1.43444280 1.97434114 -2.00000000
v 1.63102051 1.46857747 -2.00000000
v 0.98096873 1.38407886 -2.00000000
v -0.99260818 -2.22943448 -2.00000000
v -0.87614527 -1.47811337 -2.00000000
v -0.33606803 -1.87535746 -2.00000000
v 0.80320364 1.96150548 -2.00000000
v 1.89826819 0.01693434 -2.00000000
v 2.44539935 -0.27858984 -2.00000000
v 1.84612181 -0.56265596 -2.00000000
v 2.32235080 -0.82828870 -2.00000000
v -1.29950405 1.51550420 -2.00000000
v -1.53217614 2.04303620 -2.00000000
v -0.99260818 2.22943448 -2.00000000
v -0.70198632 1.71009657 -2.00000000
v -1.34299404 -1.74319296 -2.00000000
v -0.50845171 2.37377337 -2.00000000
v -0.13004397 1.96676798 -2.00000000
v -0.00000000 -2.44041986 -2.00000000
v -0.51386252 -2.47638941 -2.00000000
v -1.81886187 -1.68887542 -2.00000000
v -2.13080867 -1.23575570 -2.00000000
v -1.46639808 -1.17106885 -2.00000000
v -1.33596060 0.79525203 -2.00000000
v -1.84433621 1.10828253 -2.00000000
v -1.82758333 -0.74068570 -2.00000000
v 0.99260818 -2.22943448 -2.00000000
v 0.67910193 -1.75346043 -2.00000000
v 1.25028161 -1.55617517 -2.00000000
v 1.51856973 -2.05320159 -2.00000000
v 0.22142460 -1.98016493 -2.00000000
v -1.86137663 1.64273164 -2.00000000
v -2.33070806 -0.74087957 -2.00000000
v -2.53100961 -0.25686342 -2.00000000
v -1.96284620 -0.17479579 -2.00000000
v 2.09935681 1.22449248 -2.00000000
v 1.93786335 0.61319782 -2.00000000
v 1.45420871 0.96325676 -2.00000000
v 0.52466248 -2.40845972 -2.00000000
v 2.44903679 0.29779469 -2.00000000
v -0.21192772 1.35579069 -2.00000000
v -0.23985296 0.74480559 -2.00000000
v -0.75945788 1.08293897 -2.00000000
v -0.80095568 0.46455184 -2.00000000
v -1.36598800 0.17026835 -2.00000000
v -1.88390516 0.52184500 -2.00000000
v -0.86272342 -0.79691248 -2.00000000
v -0.34121272 -1.12822443 -2.00000000
v -0.30739897 -0.50236652 -2.00000000
v -0.83374496 -0.16138618 -2.00000000
v 0.28631804 0.40779370 -2.00000000
v 0.32052352 1.03416780 -2.00000000
v -0.27361802 0.12359054 -2.00000000
v 1.31858497 -0.27632534 -2.00000000
v 1.26592035 -0.87599391 -2.00000000
v 0.77767762 -0.56093142 -2.00000000
v 0.81176592 0.06531295 -2.00000000
v 0.25219729 -0.21849505 -2.00000000
v 0.73813983 -1.17136637 -2.00000000
v 0.21819485 -0.84464582 -2.00000000
v 0.84582892 0.69152967 -2.00000000
v 1.36549141 0.34921734 -2.00000000
v 1.84256702 -1.65288762 -2.00000000
v -2.42705098 0.25509334 -2.00000000
v 0.01456457 2.49960597 -2.00000000
v 0.34647136 1.63126426 -2.00000000
v 0.19098525 -1.44134100 -2.00000000
v -1.39172772 -0.44258104 -2.00000000
v 1.74832775 -1.14225615 -2.00000000
v 0.30319503 2.10766424 -2.00000000
v 0.56877568 2.46103631 -2.00000000
v 2.21324783 -1.32205050 -2.00000000
v 1.04669462 2.36962574 -2.00000000
v -2.37377784 0.83982121 -2.00000000
v 2.43126441 0.79396174 -2.00000000
v -2.24943561 1.31488021 -2.00000000
v 1.95200588 1.75883205 -2.00000000
v -1.55351571 -2.13528288 -2.00000000
v 1.43444280 -1.97434114 2.00000000
v 1.63102051 -1.46857747 2.00000000
v 0.98096873 -1.38407886 2.00000000
v -0.99260818 2.22943448 2.00000000
v -0.87614527 1.47811337 2.00000000
v -0.33606803 1.87535746 2.00000000
v 0.80320364 -1.96150548 2.00000000
v 1.89826819 -0.01693434 2.00000000
v 2.44539935 0.27858984 2.00000000
v 1.84612181 0.56265596 2.00000000
v 2.32235080 0.82828870 2.00000000
v -1.29950405 -1.51550420 2.00000000
v -1.53217614 -2.04303620 2.00000000
v -0.99260818 -2.22943448 2.00000000
v -0.70198632 -1.71009657 2.00000000
v -1.34299404 1.74319296 2.00000000
v -0.50845171 -2.37377337 2.00000000
v -0.13004397 -1.96676798 2.00000000
v -0.00000000 2.44041986 2.00000000
v -0.51386252 2.47638941 2.00000000
v -1.81886187 1.68887542 2.00000000
v -2.13080867 1.23575570 2.00000000
v -1.46639808 1.17106885 2.00000000
v -1.33596060 -0.79525203 2.00000000
v -1.84433621 -1.10828253 2.00000000
v -1.82758333 0.74068570 2.00000000
v 0.99260818 2.22943448 2.00000000
v 0.67910193 1.75346043 2.00000000
v 1.25028161 1.55617517 2.00000000
v 1.51856973 2.05320159 2.00000000
v 0.22142460 1.98016493 2.00000000
v -1.86137663 -1.64273164 2.00000000
v -2.33070806 0.74087957 2.00000000
v -2.53100961 0.25686342 2.00000000
v -1.96284620 0.17479579 2.00000000
v 2.09935681 -1.22449248 2.00000000
v 1.93786335 -0.61319782 2.00000000
v 1.45420871 -0.96325676 2.00000000
v 0.52466248 2.40845972 2.00000000
v 2.44903679 -0.29779469 2.00000000
v -0.21192772 -1.35579069 2.00000000
v -0.23985296 -0.74480559 2.00000000
v -0.75945788 -1.08293897 2.00000000
v -0.80095568 -0.46455184 2.00000000
v -1.36598800 -0.17026835 2.00000000
v -1.88390516 -0.52184500 2.00000000
v -0.86272342 0.79691248 2.00000000
v -0.34121272 1.12822443 2.00000000
v -0.30739897 0.50236652 2.00000000
v -0.83374496 0.16138618 2.00000000
v 0.28631804 -0.40779370 2.00000000
v 0.32052352 -1.03416780 2.00000000
v -0.27361802 -0.12359054 2.00000000
v 1.31858497 0.27632534 2.00000000
v 1.26592035 0.87599391 2.00000000
v 0.77767762 0.56093142 2.00000000
v 0.81176592 -0.06531295 2.00000000
v 0.25219729 0.21849505 2.00000000
v 0.73813983 1.17136637 2.00000000
v 0.21819485 0.84464582 2.00000000
v 0.84582892 -0.69152967 2.00000000
v 1.36549141 -0.34921734 2.00000000
v 1.84256702 1.65288762 2.00000000
v 0.01456457 -2.49960597 2.00000000
v -2.42705098 -0.25509334 2.00000000
v 0.34647136 -1.63126426 2.00000000
v 0.19098525 1.44134100 2.00000000
v -1.39172772 0.44258104 2.00000000
v 1.74832775 1.14225615 2.00000000
v 0.30319503 -2.10766424 2.00000000
v 0.56877568 -2.46103631 2.00000000
v 2.21324783 1.32205050 2.00000000
v 1.04669462 -2.36962574 2.00000000
v -2.37377784 -0.83982121 2.00000000
v 2.43126441 -0.79396174 2.00000000
v -2.24943561 -1.31488021 2.00000000
v 1.95200588 -1.75883205 2.00000000
v -1.55351571 2.13528288 2.00000000
v 3.46218193 2.10809056 1.00000000
v 4.09101154 2.21080384 1.00000000
v 3.46290682 3.00000000 1.00000000
v 4.07516390 0.73351111 1.00000000
v 3.78628538 1.49502608 1.00000000
v 3.35449126 0.99647738 1.00000000
v 3.46290682 -3.00000000 1.00000000
v 3.39072239 -2.15475941 1.00000000
v 2.73492547 -2.32477853 1.00000000
v 4.39677727 3.00000000 1.00000000
v 2.52903636 -3.00000000 1.00000000
v 2.12943176 -2.58810154 1.00000000
v 1.59516591 -3.00000000 1.00000000
v 1.59516591 3.00000000 1.00000000
v 2.13624565 2.58764946 1.00000000
v 2.52903636 3.00000000 1.00000000
v 4.51598573 1.47707862 1.00000000
v 5.99817186 -0.55176832 1.00000000
v 5.21589893 -0.77151074 1.00000000
v 5.91757742 -1.36781871 1.00000000
v 6.70220227 -1.06368132 1.00000000
v 6.71786771 -2.06675501 1.00000000
v 5.12423656 -1.53004910 1.00000000
v 9.19153812 0.45076627 1.00000000
v 8.32315167 -0.12906505 1.00000000
v 9.14061760 -0.51065141 1.00000000
v 7.50230293 -1.44708895 1.00000000
v 8.34464108 0.66058324 1.00000000
v 9.11847425 1.45560708 1.00000000
v 3.47687840 0.32675420 1.00000000
v 5.74708719 -2.22314775 1.00000000
v 4.86291897 -2.23515819 1.00000000
v 2.76899493 2.32251812 1.00000000
v 5.33064773 -3.00000000 1.00000000
v 5.36380960 1.39330773 1.00000000
v 4.92193211 2.18462778 1.00000000
v 8.25171973 1.50428499 1.00000000
v 4.04009845 -0.04057343 1.00000000
v 3.95411372 -0.78652212 1.00000000
v 4.60852635 -0.38674634 1.00000000
v 4.38929581 -1.53543800 1.00000000
v 4.01998155 -2.24402755 1.00000000
v 5.80005270 2.21352154 1.00000000
v 5.33064773 3.00000000 1.00000000
v 4.52651841 -0.95856658 1.00000000
v 4.39677727 -3.00000000 1.00000000
v 7.58730081 1.12469889 1.00000000
v 7.63798180 2.07255180 1.00000000
v 3.46255925 -0.34260705 1.00000000
v 3.67811077 -1.57104962 1.00000000
v 3.33163965 -1.01072405 1.00000000
v 6.26451818 -3.00000000 1.00000000
v 6.97453881 1.53514578 1.00000000
v 6.23996792 1.51557718 1.00000000
v 6.26451818 3.00000000 1.00000000
v 6.69397970 2.22000309 1.00000000
v 8.27703572 -1.00087960 1.00000000
v 9.07297030 -1.53264848 1.00000000
v 10.00000000 -1.00000000 1.00000000
v 10.00000000 0.00000000 1.00000000
v 7.19838864 -3.00000000 1.00000000
v 10.00000000 2.00000000 1.00000000
v 10.00000000 1.00000000 1.00000000
v 7.69613539 -2.25803885 1.00000000
v 10.00000000 -2.00000000 1.00000000
v 7.19838864 3.00000000 1.00000000
v 8.13225909 3.00000000 1.00000000
v 3.05768737 -1.63394134 1.00000000
v 8.13225909 -3.00000000 1.00000000
v 7.47168575 -0.60789400 1.00000000
v 3.11122658 1.63210764 1.00000000
v 8.57020069 2.20798394 1.00000000
v 9.06612955 3.00000000 1.00000000
v 8.57461898 -2.29792951 1.00000000
v 7.51339175 0.23368522 1.00000000
v 6.73248669 -0.18132050 1.00000000
v 6.71346381 0.74289794 1.00000000
v 6.00824935 0.23092868 1.00000000
v 9.06612955 -3.00000000 1.00000000
v 5.30201766 -0.07448109 1.00000000
v 4.79390079 0.89041349 1.00000000
v 4.66134537 0.30749905 1.00000000
v 5.93170674 0.89798737 1.00000000
v 5.34022217 0.62472093 1.00000000
v 8.22461266 -1.70731708 1.00000000
v 10.00000000 3.00000000 1.00000000
v 9.31278084 2.29428334 1.00000000
v 9.33715278 -2.33941641 1.00000000
v 10.00000000 -3.00000000 1.00000000
v 0.69120231 -3.00000000 1.00000000
v 0.69120231 3.00000000 1.00000000
v 3.87463814 2.15003492 -1.00000000
v 3.21254814 1.59210463 -1.00000000
v 2.83686152 2.30942904 -1.00000000
v 6.98966740 1.35048755 -1.00000000
v 7.61775905 2.21069093 -1.00000000
v 8.10222352 1.49673125 -1.00000000
v 4.69013792 0.25848366 -1.00000000
v 4.04534856 -0.05612584 -1.00000000
v 4.10932217 0.78295220 -1.00000000
v 3.46290682 3.00000000 -1.00000000
v 7.72657581 0.73290895 -1.00000000
v 4.39677727 -3.00000000 -1.00000000
v 3.63357695 -2.24094888 -1.00000000
v 4.27479132 -2.04071685 -1.00000000
v 4.89988811 2.22441284 -1.00000000
v 5.80511029 2.23038946 -1.00000000
v 5.39907295 1.43558966 -1.00000000
v 3.46290682 -3.00000000 -1.00000000
v 2.78303823 -2.31681145 -1.00000000
v 4.50008544 1.55461570 -1.00000000
v 1.59516591 3.00000000 -1.00000000
v 2.52903636 3.00000000 -1.00000000
v 2.14981897 2.58503165 -1.00000000
v 2.52903636 -3.00000000 -1.00000000
v 1.59516591 -3.00000000 -1.00000000
v 2.13905431 -2.58650813 -1.00000000
v 3.84610488 1.43723205 -1.00000000
v 3.47599539 0.31078914 -1.00000000
v 8.28344778 -0.61249434 -1.00000000
v 9.13397460 -1.50000000 -1.00000000
v 8.10849320 -1.53001571 -1.00000000
v 9.21085812 -0.50000000 -1.00000000
v 3.38104172 0.96990197 -1.00000000
v 4.79766110 0.93428706 -1.00000000
v 4.93834855 -2.15431471 -1.00000000
v 4.59366461 -1.32323120 -1.00000000
v 5.35469003 -1.49303058 -1.00000000
v 6.70003383 2.20938457 -1.00000000
v 8.31485499 0.28367223 -1.00000000
v 9.20686328 0.53611366 -1.00000000
v 5.33064773 3.00000000 -1.00000000
v 3.81158920 -1.48508948 -1.00000000
v 3.11436382 -1.62534997 -1.00000000
v 3.34810038 -1.00471419 -1.00000000
v 5.33064773 -3.00000000 -1.00000000
v 5.75920745 -2.21930204 -1.00000000
v 4.39677727 3.00000000 -1.00000000
v 5.89761565 -0.81357516 -1.00000000
v 5.15979762 -0.86294197 -1.00000000
v 6.26451818 3.00000000 -1.00000000
v 3.48181073 -0.36758227 -1.00000000
v 3.98828257 -0.76054079 -1.00000000
v 10.00000000 1.00000000 -1.00000000
v 9.12560595 1.50039434 -1.00000000
v 6.67948220 -2.12121136 -1.00000000
v 6.26451818 -3.00000000 -1.00000000
v 6.05430523 -1.56822391 -1.00000000
v 7.19838864 3.00000000 -1.00000000
v 10.00000000 0.00000000 -1.00000000
v 10.00000000 2.00000000 -1.00000000
v 10.00000000 -1.00000000 -1.00000000
v 10.00000000 -2.00000000 -1.00000000
v 7.19838864 -3.00000000 -1.00000000
v 6.84154715 0.43294326 -1.00000000
v 6.13351981 0.88270807 -1.00000000
v 8.13225909 3.00000000 -1.00000000
v 8.13225909 -3.00000000 -1.00000000
v 7.64619276 -2.24848782 -1.00000000
v 8.57024396 -2.26549833 -1.00000000
v 7.43416887 -0.92512862 -1.00000000
v 5.40627173 0.55269981 -1.00000000
v 6.73769412 -0.43248778 -1.00000000
v 6.06322885 0.08272159 -1.00000000
v 8.57224096 2.25289601 -1.00000000
v 7.54488234 -0.07958637 -1.00000000
v 6.66594066 -1.24412636 -1.00000000
v 5.32204342 -0.19859244 -1.00000000
v 9.06612955 3.00000000 -1.00000000
v 4.63097438 -0.48628046 -1.00000000
v 9.06612955 -3.00000000 -1.00000000
v 10.00000000 3.00000000 -1.00000000
v 9.35279529 2.35065807 -1.00000000
v 10.00000000 -3.00000000 -1.00000000
v 9.35406962 -2.35309967 -1.00000000
v 6.20548085 1.62171186 -1.00000000
v 7.23508278 -1.62919431 -1.00000000
v 8.58149197 0.93300974 -1.00000000
v 0.69120231 -3.00000000 -1.00000000
v 0.69120231 3.00000000 -1.00000000
v 0.42682032 -3.00000000 0.34674516
v 0.27950566 -3.00000000 0.71168629
v 4.73030243 -3.00000000 -0.16900369
v 3.75196196 -3.00000000 0.27329197
v 8.59919432 -3.00000000 -0.19124446
v 7.79873393 -3.00000000 0.16900369
v 6.73145341 -3.00000000 0.19124446
v 5.79758295 -3.00000000 -0.19124446
v 5.32370218 -3.00000000 0.36885338
v 7.20533418 -3.00000000 -0.36885338
v 2.05662521 -3.00000000 0.23056482
v 1.05961314 -3.00000000 0.29653863
v 1.14318411 -3.00000000 -0.42496274
v 0.44964357 -3.00000000 -0.23387929
v 2.06210113 -3.00000000 -0.48843152
v 0.42503319 -3.00000000 -0.66554886
v 2.99597159 -3.00000000 -0.19124446
v 2.99597159 -3.00000000 0.49589068
v 3.89807774 -3.00000000 -0.45583994
v 8.59919432 -3.00000000 0.49589068
v 10.00000000 -3.00000000 0.00000000
v 9.32875608 -3.00000000 -0.30920214
v 9.37538788 -3.00000000 0.37420016
v 0.42682032 3.00000000 -0.34674516
v 0.27950566 3.00000000 -0.71168629
v 2.05662521 3.00000000 -0.23056482
v 1.05961314 3.00000000 -0.29653863
v 1.14318411 3.00000000 0.42496274
v 0.44964357 3.00000000 0.23387929
v 2.06210113 3.00000000 0.48843152
v 0.42503319 3.00000000 0.66554886
v 2.99597159 3.00000000 0.19124446
v 2.99597159 3.00000000 -0.49589068
v 8.56620140 3.00000000 0.23108094
v 7.66532386 3.00000000 -0.19124446
v 3.92984204 3.00000000 -0.19124446
v 4.86371250 3.00000000 0.19124446
v 6.73145341 3.00000000 0.19124446
v 5.79758295 3.00000000 -0.19124446
v 4.86371250 3.00000000 -0.49589068
v 5.79758295 3.00000000 0.49589068
v 6.73145341 3.00000000 -0.49589068
v 3.92984204 3.00000000 0.49589068
v 7.66532386 3.00000000 0.49589068
v 8.58368261 3.00000000 -0.48258039
v 10.00000000 3.00000000 0.00000000
v 9.36983704 3.00000000 0.33942880
v 9.35947496 3.00000000 -0.36327664
v 10.00000000 -1.50000000 -0.13397460
v 10.00000000 1.50000000 -0.13397460
v 10.00000000 -0.49826565 0.03527447
v 10.00000000 0.50728309 0.04486809
v 10.00000000 2.34254833 0.26631772
v 10.00000000 -2.34254833 0.26631772
v 10.00000000 -2.42018787 -0.42201794
v 10.00000000 2.42018787 -0.42201794
f 1 2 3
f 4 5 6
f 7 8 9
f 10 5 4
f 11 12 13
f 14 2 1
f 15 16 17
f 14 1 18
f 19 20 21
f 22 20 19
f 23 16 15
f 13 12 24
f 25 26 27
f 27 28 25
f 29 30 31
f 13 32 11
f 17 2 15
f 15 2 33
f 31 34 29
f 33 14 35
f 36 16 23
f 19 21 37
f 19 37 38
f 39 36 23
f 40 5 41
f 6 5 40
f 42 43 44
f 45 43 46
f 47 48 49
f 50 51 43
f 44 51 41
f 52 53 39
f 38 54 55
f 56 57 58
f 53 36 39
f 38 37 54
f 42 44 57
f 45 50 43
f 46 43 42
f 47 18 48
f 59 8 60
f 61 62 63
f 35 14 47
f 57 44 58
f 49 48 64
f 65 57 56
f 66 31 67
f 68 49 69
f 49 64 69
f 50 70 51
f 71 72 73
f 74 31 66
f 75 74 66
f 55 76 77
f 78 79 52
f 80 62 61
f 60 8 81
f 44 41 58
f 82 83 84
f 43 51 44
f 47 49 85
f 82 72 83
f 35 47 85
f 75 66 86
f 79 53 52
f 55 54 76
f 69 57 65
f 87 88 71
f 66 67 89
f 64 75 46
f 64 48 75
f 33 2 14
f 75 86 46
f 68 69 65
f 90 11 91
f 56 58 10
f 11 88 91
f 47 14 18
f 45 92 50
f 64 42 69
f 85 49 68
f 48 18 74
f 74 34 31
f 3 17 93
f 73 72 82
f 75 48 74
f 87 71 73
f 91 88 87
f 77 94 95
f 96 97 78
f 64 46 42
f 86 45 46
f 42 57 69
f 66 89 86
f 51 70 98
f 86 99 45
f 100 101 102
f 92 13 50
f 83 103 104
f 105 20 106
f 45 99 92
f 41 107 40
f 77 76 94
f 97 79 78
f 108 24 109
f 110 98 108
f 104 103 67
f 89 99 86
f 102 111 96
f 95 112 7
f 113 29 114
f 98 24 108
f 114 1 3
f 115 30 113
f 106 116 115
f 109 12 117
f 24 12 109
f 51 107 41
f 58 5 10
f 111 97 96
f 95 94 112
f 106 20 26
f 84 28 27
f 81 112 118
f 119 111 80
f 29 1 114
f 113 30 29
f 27 26 22
f 120 97 119
f 118 94 121
f 116 30 115
f 112 94 118
f 119 97 111
f 40 107 110
f 121 76 122
f 123 79 120
f 106 26 25
f 71 124 72
f 106 25 116
f 122 54 125
f 126 53 123
f 120 79 97
f 94 76 121
f 127 128 90
f 17 16 93
f 88 129 71
f 130 36 126
f 125 37 131
f 11 32 88
f 1 34 18
f 30 132 31
f 131 21 105
f 93 16 130
f 76 54 122
f 123 53 79
f 72 103 83
f 25 104 116
f 54 37 125
f 126 36 53
f 117 128 127
f 98 107 51
f 130 16 36
f 37 21 131
f 31 132 67
f 102 62 111
f 112 8 7
f 67 103 89
f 102 101 62
f 104 28 83
f 88 32 129
f 18 34 74
f 3 2 17
f 104 132 116
f 72 124 103
f 25 28 104
f 26 20 22
f 71 129 124
f 90 128 11
f 83 28 84
f 103 124 89
f 89 124 99
f 41 5 58
f 110 107 98
f 67 132 104
f 24 70 13
f 13 70 50
f 29 34 1
f 124 129 99
f 116 132 30
f 98 70 24
f 99 129 92
f 92 32 13
f 11 128 12
f 129 32 92
f 81 8 112
f 111 62 80
f 12 128 117
f 63 101 100
f 21 20 105
f 62 101 63
f 9 8 59
f 133 134 135
f 136 137 100
f 138 139 140
f 135 134 141
f 142 143 144
f 145 146 147
f 148 135 141
f 144 149 142
f 150 151 152
f 140 153 138
f 152 151 154
f 147 146 155
f 156 157 158
f 158 159 156
f 147 134 145
f 160 134 147
f 161 139 138
f 162 150 152
f 155 146 163
f 164 165 166
f 167 162 152
f 155 163 168
f 169 170 40
f 165 148 166
f 171 141 160
f 172 173 167
f 168 174 175
f 176 148 165
f 173 162 167
f 168 163 174
f 177 169 178
f 40 170 6
f 179 142 176
f 63 137 61
f 60 180 59
f 181 165 164
f 182 183 184
f 185 164 166
f 177 178 186
f 187 184 188
f 189 184 187
f 166 141 171
f 190 142 179
f 191 192 193
f 194 186 189
f 179 176 195
f 186 178 189
f 175 196 197
f 198 199 172
f 200 180 60
f 61 137 201
f 202 203 204
f 184 183 188
f 169 182 178
f 40 205 169
f 182 206 183
f 142 149 176
f 207 186 194
f 203 192 204
f 185 166 171
f 178 184 189
f 208 179 195
f 209 210 140
f 175 174 196
f 199 173 172
f 194 164 211
f 195 165 181
f 212 190 179
f 187 195 181
f 148 141 166
f 213 214 203
f 194 181 164
f 215 206 182
f 190 214 213
f 211 164 185
f 207 194 211
f 209 140 216
f 217 177 218
f 187 208 195
f 177 186 218
f 193 210 219
f 220 145 133
f 204 192 191
f 219 210 209
f 176 165 195
f 191 193 219
f 194 189 181
f 221 222 198
f 197 223 224
f 218 186 207
f 183 225 188
f 182 184 178
f 187 188 208
f 189 187 181
f 208 212 179
f 9 226 227
f 183 138 225
f 217 228 170
f 229 151 230
f 217 170 177
f 188 231 208
f 141 134 160
f 222 199 198
f 197 196 223
f 108 215 110
f 225 231 188
f 109 161 108
f 208 231 212
f 224 232 136
f 227 233 221
f 234 144 235
f 133 135 234
f 108 161 215
f 235 143 236
f 236 237 229
f 117 139 109
f 224 223 232
f 233 222 221
f 157 151 229
f 109 139 161
f 142 238 143
f 156 159 202
f 201 232 239
f 240 233 200
f 234 135 144
f 144 143 235
f 154 157 156
f 239 223 241
f 242 222 240
f 236 143 237
f 232 223 239
f 240 222 233
f 241 196 243
f 244 199 242
f 110 205 40
f 158 157 229
f 182 205 215
f 237 158 229
f 243 174 245
f 246 173 244
f 237 213 158
f 176 149 148
f 223 196 241
f 242 199 222
f 216 247 127
f 220 146 145
f 248 162 246
f 245 163 249
f 148 149 135
f 230 150 248
f 249 146 220
f 196 174 243
f 244 173 199
f 192 250 193
f 210 153 140
f 174 163 245
f 246 162 173
f 127 247 117
f 212 214 190
f 248 150 162
f 163 146 249
f 203 214 192
f 169 205 182
f 212 250 214
f 232 137 136
f 227 180 233
f 193 251 210
f 227 226 180
f 203 159 213
f 214 250 192
f 4 228 217
f 190 238 142
f 213 159 158
f 135 149 144
f 177 170 169
f 145 134 133
f 231 250 212
f 143 238 237
f 154 151 157
f 140 247 216
f 251 153 210
f 202 159 203
f 237 238 213
f 215 205 110
f 231 251 250
f 250 251 193
f 225 251 231
f 183 206 138
f 161 206 215
f 138 153 225
f 213 238 190
f 225 153 251
f 139 247 140
f 138 206 161
f 201 137 232
f 233 180 200
f 6 228 4
f 117 247 139
f 59 226 9
f 230 151 150
f 180 226 59
f 170 228 6
f 100 137 63
f 252 253 254
f 255 256 257
f 254 258 252
f 259 260 261
f 261 260 262
f 263 264 265
f 266 263 265
f 255 267 256
f 266 268 269
f 265 268 266
f 270 271 257
f 257 271 255
f 272 273 274
f 275 276 263
f 273 277 274
f 278 279 280
f 280 281 278
f 257 282 270
f 263 276 283
f 284 285 286
f 287 288 289
f 286 277 284
f 254 253 289
f 274 267 272
f 290 282 279
f 278 290 279
f 289 253 287
f 256 267 274
f 291 260 259
f 292 293 294
f 275 294 295
f 294 293 295
f 296 275 295
f 297 276 275
f 256 274 298
f 299 298 300
f 256 298 299
f 300 298 301
f 302 293 303
f 303 293 292
f 304 293 302
f 305 306 307
f 305 307 308
f 308 307 309
f 307 306 310
f 311 307 310
f 312 289 313
f 85 255 35
f 171 265 185
f 96 262 102
f 52 314 78
f 33 270 15
f 10 284 56
f 217 315 4
f 211 283 207
f 100 291 136
f 147 316 160
f 175 252 168
f 224 287 197
f 23 278 39
f 65 272 68
f 303 292 317
f 303 317 254
f 254 289 312
f 303 254 312
f 257 256 299
f 313 305 308
f 312 313 308
f 318 257 299
f 311 310 318
f 302 303 312
f 302 312 308
f 311 318 299
f 311 299 300
f 302 308 309
f 309 307 311
f 304 302 309
f 309 311 300
f 304 309 300
f 304 300 301
f 295 293 304
f 295 304 301
f 298 274 319
f 301 298 319
f 296 295 301
f 296 301 319
f 296 319 286
f 297 275 296
f 297 296 286
f 291 259 288
f 289 288 313
f 262 320 261
f 275 263 294
f 288 259 313
f 297 286 315
f 258 321 322
f 313 259 305
f 323 320 262
f 294 266 292
f 322 324 258
f 283 264 263
f 292 269 317
f 286 285 315
f 319 277 286
f 306 280 310
f 259 261 305
f 318 282 257
f 294 263 266
f 280 279 310
f 284 277 273
f 310 279 318
f 317 258 254
f 314 281 280
f 269 268 316
f 305 261 306
f 325 297 315
f 325 276 297
f 288 326 291
f 266 269 292
f 218 325 217
f 102 260 100
f 96 323 262
f 217 325 315
f 39 281 52
f 4 285 10
f 314 323 78
f 270 290 15
f 265 264 185
f 262 260 102
f 33 271 270
f 10 285 284
f 185 264 211
f 211 264 283
f 160 268 171
f 78 323 96
f 278 281 39
f 315 285 4
f 100 260 291
f 155 322 147
f 35 271 33
f 255 271 35
f 56 273 65
f 52 281 314
f 171 268 265
f 316 268 160
f 65 273 272
f 15 290 23
f 284 273 56
f 147 322 316
f 23 290 278
f 291 326 136
f 224 326 287
f 136 326 224
f 252 324 168
f 287 326 288
f 283 327 207
f 175 328 252
f 287 328 197
f 85 329 255
f 272 329 68
f 306 320 280
f 280 320 314
f 274 277 319
f 269 321 317
f 168 324 155
f 317 321 258
f 270 282 290
f 197 328 175
f 68 329 85
f 207 327 218
f 258 324 252
f 276 327 283
f 279 282 318
f 253 328 287
f 252 328 253
f 261 320 306
f 325 327 276
f 255 329 267
f 267 329 272
f 155 324 322
f 316 321 269
f 218 327 325
f 314 320 323
f 322 321 316
f 330 331 332
f 333 334 335
f 332 336 330
f 337 338 339
f 339 338 340
f 341 342 343
f 344 341 343
f 333 345 334
f 344 346 347
f 343 346 344
f 348 349 335
f 335 349 333
f 350 351 352
f 353 354 341
f 351 355 352
f 356 357 358
f 358 359 356
f 335 360 348
f 341 354 361
f 362 363 364
f 365 366 367
f 364 355 362
f 332 331 367
f 352 345 350
f 368 360 357
f 356 368 357
f 367 331 365
f 334 345 352
f 369 338 337
f 370 371 372
f 353 372 373
f 372 371 373
f 374 353 373
f 375 354 353
f 334 352 376
f 377 376 378
f 334 376 377
f 378 376 379
f 380 371 381
f 381 371 370
f 382 371 380
f 383 384 385
f 383 385 386
f 386 385 387
f 385 384 388
f 389 385 388
f 390 367 391
f 204 333 202
f 84 343 82
f 172 392 198
f 221 340 227
f 156 348 154
f 9 369 7
f 73 361 87
f 22 393 27
f 216 362 209
f 90 394 127
f 55 330 38
f 95 365 77
f 152 356 167
f 219 350 191
f 381 370 395
f 332 367 390
f 381 395 332
f 381 332 390
f 391 383 386
f 335 334 377
f 396 335 377
f 380 381 390
f 390 391 386
f 389 388 396
f 380 390 386
f 389 396 377
f 387 385 389
f 389 377 378
f 380 386 387
f 382 380 387
f 387 389 378
f 382 387 378
f 373 371 382
f 382 378 379
f 376 352 397
f 373 382 379
f 379 376 397
f 374 373 379
f 374 379 397
f 375 353 374
f 374 397 364
f 375 374 364
f 369 337 366
f 367 366 391
f 340 398 339
f 353 341 372
f 366 337 391
f 375 364 394
f 336 399 400
f 391 337 383
f 401 398 340
f 372 344 370
f 400 402 336
f 361 342 341
f 370 347 395
f 364 363 394
f 397 355 364
f 384 358 388
f 337 339 383
f 396 360 335
f 372 341 344
f 358 357 388
f 362 355 351
f 388 357 396
f 395 336 332
f 392 359 358
f 347 346 393
f 383 339 384
f 403 375 394
f 403 354 375
f 366 404 369
f 344 347 370
f 91 403 90
f 221 401 340
f 340 338 227
f 90 403 394
f 167 359 172
f 127 363 216
f 73 342 361
f 392 401 198
f 348 368 154
f 227 338 9
f 9 338 369
f 27 346 84
f 156 349 348
f 198 401 221
f 356 359 167
f 343 342 82
f 216 363 362
f 394 363 127
f 19 400 22
f 202 349 156
f 333 349 202
f 82 342 73
f 84 346 343
f 393 346 27
f 172 359 392
f 209 351 219
f 219 351 350
f 154 368 152
f 22 400 393
f 362 351 209
f 152 368 356
f 369 404 7
f 95 404 365
f 7 404 95
f 330 402 38
f 365 404 366
f 361 405 87
f 365 406 77
f 55 406 330
f 204 407 333
f 350 407 191
f 384 398 358
f 358 398 392
f 352 355 397
f 347 399 395
f 38 402 19
f 395 399 336
f 348 360 368
f 77 406 55
f 191 407 204
f 87 405 91
f 336 402 330
f 354 405 361
f 357 360 396
f 331 406 365
f 330 406 331
f 339 398 384
f 403 405 354
f 333 407 345
f 345 407 350
f 19 402 400
f 393 399 347
f 91 405 403
f 392 398 401
f 400 399 393
f 408 409 410
f 411 412 413
f 414 415 416
f 410 409 417
f 418 419 420
f 421 422 423
f 411 424 412
f 425 426 427
f 428 427 429
f 427 426 430
f 431 432 433
f 414 416 418
f 429 434 428
f 435 432 431
f 435 431 436
f 411 413 437
f 438 430 439
f 423 440 410
f 438 439 441
f 424 442 443
f 131 420 125
f 248 246 421
f 436 444 435
f 440 408 410
f 445 446 447
f 439 430 448
f 439 448 449
f 443 450 451
f 430 452 448
f 453 439 449
f 453 449 414
f 454 444 455
f 456 446 445
f 443 409 424
f 446 457 448
f 458 457 446
f 417 443 451
f 426 452 430
f 459 429 438
f 455 460 454
f 429 427 438
f 420 419 125
f 246 422 421
f 459 438 441
f 441 439 453
f 450 442 461
f 462 450 463
f 451 450 462
f 433 464 465
f 433 465 466
f 467 433 466
f 468 429 459
f 469 436 470
f 458 456 81
f 450 461 463
f 458 446 456
f 417 409 443
f 60 456 437
f 443 442 450
f 471 429 468
f 466 465 472
f 456 445 437
f 424 409 412
f 462 463 473
f 463 455 473
f 473 455 474
f 437 413 200
f 118 475 458
f 476 471 468
f 477 434 464
f 475 457 458
f 467 431 433
f 436 431 470
f 413 412 478
f 471 434 429
f 440 422 244
f 474 479 480
f 425 427 428
f 242 440 244
f 476 481 471
f 482 435 454
f 425 428 483
f 482 454 484
f 483 484 485
f 240 413 478
f 486 481 476
f 118 458 81
f 487 425 485
f 475 415 457
f 60 437 200
f 455 479 474
f 449 415 414
f 483 482 484
f 424 488 442
f 81 456 60
f 425 483 485
f 428 477 483
f 445 447 489
f 445 411 437
f 442 490 461
f 455 444 479
f 200 413 240
f 487 491 489
f 483 477 482
f 487 485 491
f 433 432 464
f 121 475 118
f 448 457 449
f 447 487 489
f 464 492 465
f 493 494 469
f 480 494 493
f 463 460 455
f 448 452 446
f 445 489 411
f 434 492 464
f 470 431 467
f 240 478 242
f 472 495 496
f 121 416 475
f 496 495 486
f 411 488 424
f 438 427 430
f 442 488 491
f 487 426 425
f 465 492 481
f 491 490 442
f 477 432 482
f 464 432 477
f 412 408 478
f 461 490 484
f 484 490 485
f 484 460 461
f 122 416 121
f 423 422 440
f 457 415 449
f 482 432 435
f 489 488 411
f 454 460 484
f 428 434 477
f 435 444 454
f 465 495 472
f 447 426 487
f 244 422 246
f 125 419 122
f 478 440 242
f 469 494 436
f 446 452 447
f 122 419 416
f 478 408 440
f 479 444 436
f 412 409 408
f 416 415 475
f 416 419 418
f 479 494 480
f 461 460 463
f 447 452 426
f 481 495 465
f 436 494 479
f 481 492 471
f 486 495 481
f 491 488 489
f 485 490 491
f 471 492 434
f 106 497 105
f 498 229 230
f 105 497 131
f 497 420 131
f 498 230 248
f 498 248 421
f 499 500 501
f 502 503 504
f 505 506 507
f 508 499 501
f 509 502 504
f 510 511 512
f 513 514 515
f 516 517 511
f 513 515 518
f 519 520 521
f 522 523 524
f 507 525 518
f 506 526 507
f 510 516 511
f 500 499 525
f 527 528 529
f 528 527 530
f 201 531 526
f 532 505 507
f 533 534 535
f 532 507 518
f 516 522 517
f 503 502 536
f 534 533 512
f 530 527 537
f 501 243 521
f 538 530 537
f 526 531 507
f 520 508 501
f 539 514 513
f 519 245 249
f 130 126 523
f 515 532 518
f 241 243 501
f 540 541 542
f 517 541 511
f 543 533 544
f 499 545 513
f 508 545 499
f 61 201 526
f 546 535 547
f 543 510 533
f 533 510 512
f 239 241 500
f 245 519 521
f 523 126 524
f 539 548 514
f 549 550 542
f 544 533 535
f 545 539 513
f 551 538 552
f 553 554 544
f 554 543 544
f 535 546 555
f 556 503 536
f 550 540 542
f 541 540 511
f 551 557 538
f 558 551 552
f 559 560 528
f 514 548 536
f 561 554 553
f 80 549 542
f 538 557 530
f 502 562 563
f 556 564 503
f 559 528 530
f 548 556 536
f 565 566 567
f 509 562 502
f 520 501 521
f 540 534 512
f 550 534 540
f 568 527 529
f 569 505 532
f 499 513 518
f 565 561 566
f 553 544 555
f 570 571 562
f 503 564 572
f 570 573 568
f 573 562 509
f 574 553 555
f 575 571 546
f 568 573 527
f 500 241 501
f 541 119 542
f 570 562 573
f 201 239 531
f 546 570 574
f 531 500 525
f 546 571 570
f 566 529 567
f 80 61 549
f 569 532 515
f 507 531 525
f 564 576 572
f 529 528 567
f 570 568 574
f 557 559 530
f 575 569 571
f 119 80 542
f 561 553 566
f 562 571 563
f 577 506 505
f 549 61 526
f 575 505 569
f 525 499 518
f 549 506 550
f 550 577 534
f 572 552 504
f 577 505 575
f 571 569 563
f 531 239 500
f 569 515 563
f 527 573 537
f 550 506 577
f 578 565 567
f 120 119 541
f 579 558 580
f 560 581 582
f 549 526 506
f 515 514 583
f 576 579 580
f 581 578 582
f 568 529 584
f 535 534 547
f 503 572 504
f 573 509 537
f 575 546 547
f 120 541 517
f 529 566 584
f 123 120 517
f 502 563 583
f 546 574 555
f 534 577 547
f 514 536 583
f 509 504 585
f 563 515 583
f 528 560 582
f 537 509 585
f 558 552 580
f 536 502 583
f 552 538 585
f 243 245 521
f 126 123 524
f 553 574 584
f 504 552 585
f 567 528 582
f 123 517 524
f 577 575 547
f 517 522 524
f 511 540 512
f 544 535 555
f 552 572 580
f 566 553 584
f 572 576 580
f 574 568 584
f 578 567 582
f 538 537 585
f 93 586 3
f 133 587 220
f 93 130 586
f 586 130 523
f 587 249 220
f 587 519 249
f 588 497 589
f 590 453 591
f 565 592 593
f 594 459 595
f 554 594 595
f 453 590 596
f 595 459 596
f 565 593 597
f 594 554 597
f 598 599 600
f 601 599 588
f 598 600 602
f 600 601 603
f 599 497 588
f 599 601 600
f 586 600 603
f 561 565 597
f 441 453 596
f 554 561 597
f 459 441 596
f 420 497 599
f 497 106 589
f 3 586 603
f 420 599 598
f 418 420 598
f 604 598 602
f 586 523 600
f 598 604 605
f 565 578 592
f 468 594 593
f 476 468 593
f 453 414 591
f 510 543 590
f 522 516 604
f 590 543 595
f 468 459 594
f 543 554 595
f 590 591 606
f 591 604 606
f 604 591 605
f 593 592 607
f 418 598 605
f 522 604 602
f 591 414 605
f 510 590 606
f 604 516 606
f 476 593 607
f 581 608 609
f 578 581 609
f 600 523 602
f 115 113 588
f 113 114 601
f 607 592 610
f 608 496 610
f 592 609 610
f 496 486 610
f 523 522 602
f 592 578 609
f 113 601 588
f 486 476 607
f 593 594 597
f 516 510 606
f 414 418 605
f 590 595 596
f 106 115 589
f 114 3 603
f 115 588 589
f 601 114 603
f 486 607 610
f 609 608 610
f 611 587 612
f 613 614 615
f 616 614 611
f 613 615 617
f 615 616 618
f 614 587 611
f 614 616 615
f 498 615 618
f 519 587 614
f 229 498 618
f 587 133 612
f 519 614 613
f 520 519 613
f 619 613 617
f 498 421 615
f 613 619 620
f 474 480 621
f 564 556 622
f 423 410 619
f 545 508 623
f 417 451 624
f 462 473 625
f 548 539 626
f 623 624 627
f 625 626 628
f 626 625 629
f 624 623 630
f 625 622 629
f 622 625 631
f 624 626 627
f 626 624 628
f 623 619 630
f 619 623 620
f 621 622 631
f 622 621 632
f 520 613 620
f 423 619 617
f 545 623 627
f 548 626 629
f 417 624 630
f 623 508 620
f 622 556 629
f 619 410 630
f 626 539 627
f 474 621 631
f 462 625 628
f 624 451 628
f 564 622 632
f 625 473 631
f 493 633 634
f 480 493 634
f 615 421 617
f 234 235 611
f 235 236 616
f 632 621 635
f 633 579 635
f 621 634 635
f 579 576 635
f 421 423 617
f 621 480 634
f 235 616 611
f 576 564 632
f 410 417 630
f 473 474 631
f 508 520 620
f 451 462 628
f 539 545 627
f 556 548 629
f 133 234 612
f 236 229 618
f 234 611 612
f 616 236 618
f 576 632 635
f 634 633 635
f 466 472 636
f 469 470 637
f 559 557 638
f 638 557 639
f 557 551 639
f 638 466 636
f 559 638 636
f 637 470 639
f 551 637 639
f 469 637 640
f 636 472 641
f 467 638 639
f 470 467 639
f 467 466 638
f 551 558 637
f 560 559 636
f 472 496 641
f 496 608 641
f 493 469 640
f 633 493 640
f 560 636 642
f 637 558 643
f 636 641 642
f 640 637 643
f 558 579 643
f 579 633 643
f 581 560 642
f 608 581 642
f 633 640 643
f 641 608 642
