v -1.35594753 -2.67608040 0.96577476
v -0.85403421 -2.87586953 0.52907602
v -0.82220880 -2.88512958 1.04812239
v -1.31713942 -2.69539306 0.35742189
v -1.28147123 -2.71253230 -0.22947304
v -1.28388116 -2.71139248 -0.93942799
v -0.87565206 -2.86936116 -0.50607586
v -1.68375320 -2.48293680 -0.49748303
v 0.91033631 -2.85854645 -0.89520650
v 0.44243022 -2.96719657 -0.91665637
v 0.92705098 -2.85316955 -1.50000000
v -2.74562719 -1.20893811 -0.48028244
v -2.93906018 -0.60160224 -0.55430426
v -2.84497364 -0.95190596 -0.98165701
v -0.41059944 -2.97176851 -0.78619395
v -0.82669963 -2.88384599 -1.02712315
v -0.31358539 -2.98356569 -1.50000000
v 0.31358539 -2.98356569 -1.50000000
v 0.02779255 -2.99987126 -1.02304550
v -2.85423241 -0.92377344 -0.12942176
v -2.84008064 -0.96640671 0.31984131
v -2.67012713 -1.36763340 0.54218715
v -2.84624578 -0.94809543 0.94518152
v 1.36638246 -2.67076749 -0.97857130
v 1.50000000 -2.59807621 -1.50000000
v -2.96065313 -0.48428610 0.57669296
v -2.24265173 -1.99261467 0.07971398
v -2.06408125 -2.17705503 -0.45187561
v -1.78451010 -2.41153970 0.08630647
v 2.00739182 -2.22943448 -1.50000000
v 1.85555291 -2.35731275 -0.98589954
v -2.06875428 -2.17261495 0.57350521
v 3.00000000 0.00000000 -0.50000000
v 2.96771404 -0.43894575 -0.92228918
v 3.00000000 0.00000000 -1.00000000
v -2.63606951 -1.43217930 0.99247547
v 2.42705098 -1.76335576 -1.50000000
v 2.28828111 -1.94004370 -0.98675013
v 2.94235584 -0.58527097 -0.50000000
v -1.78841849 -2.40864263 -0.97649172
v -2.23451825 -2.00173130 -0.96298837
v -2.42793366 -1.76214021 -0.42382584
v -2.00739182 -2.22943448 -1.50000000
v -2.74063637 -1.22020993 -1.50000000
v -2.93444280 -0.62373507 -1.50000000
v -2.59610388 -1.50341101 -0.95728083
v -2.61882749 -1.46346936 0.07358741
v -1.66671070 -2.49440884 1.50000000
v -1.14805030 -2.77163860 1.50000000
v -1.50000000 -2.59807621 -1.50000000
v -2.42705098 -1.76335576 -1.50000000
v -0.92705098 -2.85316955 -1.50000000
v 2.74063637 -1.22020993 -1.50000000
v 2.62675650 -1.44918954 -0.98631340
v 3.00000000 0.00000000 -1.50000000
v 2.98774573 -0.27087899 -1.24989392
v 2.93444280 -0.62373507 -1.50000000
v -0.58527097 -2.94235584 1.50000000
v -3.00000000 -0.00000000 -0.30000000
v -2.95518379 -0.51661281 0.02148474
v -3.00000000 -0.00000000 0.30000000
v 0.00000000 -3.00000000 -0.50000000
v 0.58527097 -2.94235584 -0.50000000
v -2.94235584 -0.58527097 1.50000000
v -2.77163860 -1.14805030 1.50000000
v -2.49440884 -1.66671070 1.50000000
v -2.30068907 -1.92531290 1.02573933
v -2.12132034 -2.12132034 1.50000000
v -2.43762598 -1.74870797 0.54447833
v -0.44672929 -2.96655237 -0.24817606
v -0.88151873 -2.86756425 0.03377456
v 2.85627118 -0.91745024 -0.97841908
v -3.00000000 -0.00000000 0.90000000
v -3.00000000 -0.00000000 -0.90000000
v 0.00000000 -3.00000000 0.00000000
v 0.00000000 -3.00000000 1.00000000
v -0.44384531 -2.96698523 0.74659249
v 0.00000000 -3.00000000 0.50000000
v -0.44505094 -2.96680462 0.25452155
v 2.77163860 -1.14805030 -0.50000000
v -1.88153281 -2.33662883 1.02689332
v 2.49440884 -1.66671070 -0.50000000
v -2.96475987 -0.45847457 -1.05514666
v -3.00000000 -0.00000000 -1.50000000
v -1.67131224 -2.49132804 0.61506115
v 2.12132034 -2.12132034 -0.50000000
v -0.37595611 -2.97634961 1.15285510
v 0.00000000 -3.00000000 1.50000000
v -2.96728357 -0.44184637 1.05286057
v -3.00000000 -0.00000000 1.50000000
v 1.66671070 -2.49440884 -0.50000000
v 1.14805030 -2.77163860 -0.50000000
v -2.94353430 0.57931498 -0.55214351
v -2.83372504 0.98488700 0.02628875
v -2.73709156 1.22814078 -0.47225178
v 2.93444280 0.62373507 -1.50000000
v 2.96771404 0.43894575 -0.92228918
v -0.82215709 2.88514432 1.04815881
v -0.85403421 2.87586953 0.52907602
v -1.35549441 2.67630994 0.96597976
v -1.31713942 2.69539306 0.35742189
v -0.87565220 2.86936112 -0.50607634
v -1.28226302 2.71215810 -0.94027679
v -1.27893775 2.71372774 -0.22952640
v -2.96154787 0.47878410 0.00750080
v -1.66872005 2.49306506 -0.50505628
v 0.92705098 2.85316955 -1.50000000
v 0.44208017 2.96724875 -0.91680918
v 0.91018794 2.85859370 -0.89525658
v -2.74959463 1.19988723 0.52974849
v -2.95177339 0.53575541 0.56178313
v -2.84393976 0.95499040 -0.97812706
v -0.31358539 2.98356569 -1.50000000
v -0.82628828 2.88396388 -1.02737887
v -0.41060004 2.97176843 -0.78619499
v 0.31358539 2.98356569 -1.50000000
v 0.02775864 2.99987157 -1.02306161
v -2.63407314 1.43584773 0.99961554
v -2.44936090 1.73223301 0.53489777
v 1.36638246 2.67076749 -0.97857130
v 1.50000000 2.59807621 -1.50000000
v -1.78155288 2.41372520 0.08541914
v -2.05824095 2.18257742 -0.45551017
v -2.22690359 2.01019910 0.07565097
v 1.85555291 2.35731275 -0.98589954
v 2.00739182 2.22943448 -1.50000000
v -2.06352893 2.17757855 0.57364411
v -2.58670774 1.51952067 0.06424950
v -2.87082101 0.87085403 0.99089291
v -2.42389797 1.76768736 -0.42478710
v 2.28828111 1.94004370 -0.98675013
v 2.42705098 1.76335576 -1.50000000
v 2.94235584 0.58527097 -0.50000000
v -2.93444280 0.62373507 -1.50000000
v -2.74063637 1.22020993 -1.50000000
v -2.59455536 1.50608183 -0.95601090
v -2.23015333 2.00659317 -0.96230000
v -2.42705098 1.76335576 -1.50000000
v -2.00739182 2.22943448 -1.50000000
v -1.78490668 2.41124618 -0.97799154
v -1.14805030 2.77163860 1.50000000
v -1.66671070 2.49440884 1.50000000
v -1.50000000 2.59807621 -1.50000000
v -0.92705098 2.85316955 -1.50000000
v 2.62675650 1.44918954 -0.98631340
v 2.74063637 1.22020993 -1.50000000
v -0.58527097 2.94235584 1.50000000
v 0.58527097 2.94235584 -0.50000000
v 0.00000000 3.00000000 -0.50000000
v -2.77163860 1.14805030 1.50000000
v -2.94235584 0.58527097 1.50000000
v -2.49440884 1.66671070 1.50000000
v -2.12132034 2.12132034 1.50000000
v -2.29997846 1.92616175 1.02610388
v -0.88151770 2.86756457 0.03376284
v -0.44673451 2.96655158 -0.24818518
v 2.85627118 0.91745024 -0.97841908
v 0.00000000 3.00000000 0.00000000
v -0.44504012 2.96680624 0.25448536
v 0.00000000 3.00000000 0.50000000
v -0.44387305 2.96698108 0.74657304
v 0.00000000 3.00000000 1.00000000
v 2.77163860 1.14805030 -0.50000000
v -1.88040457 2.33753688 1.02732211
v -2.96574624 0.45205001 -1.05398515
v 2.49440884 1.66671070 -0.50000000
v -1.66986961 2.49229523 0.61453000
v 2.12132034 2.12132034 -0.50000000
v 0.00000000 3.00000000 1.50000000
v -0.37615712 2.97632421 1.15278383
v -2.96859947 0.43291710 1.06294864
v 1.66671070 2.49440884 -0.50000000
v 1.14805030 2.77163860 -0.50000000
v 1.43444280 1.97434114 -1.50000000
v 1.63102051 1.46857747 -1.50000000
v 0.98096873 1.38407886 -1.50000000
v -0.99260818 -2.22943448 -1.50000000
v -0.87614527 -1.47811337 -1.50000000
v -0.33606803 -1.87535746 -1.50000000
v 0.80320364 1.96150548 -1.50000000
v 1.89826819 0.01693434 -1.50000000
v 2.44539935 -0.27858984 -1.50000000
v 1.84612181 -0.56265596 -1.50000000
v 2.32235080 -0.82828870 -1.50000000
v -1.29950405 1.51550420 -1.50000000
v -1.53217614 2.04303620 -1.50000000
v -0.99260818 2.22943448 -1.50000000
v -0.70198632 1.71009657 -1.50000000
v -1.34299404 -1.74319296 -1.50000000
v -0.50845171 2.37377337 -1.50000000
v -0.13004397 1.96676798 -1.50000000
v -0.00000000 -2.44041986 -1.50000000
v -0.51386252 -2.47638941 -1.50000000
v -1.81886187 -1.68887542 -1.50000000
v -2.13080867 -1.23575570 -1.50000000
v -1.46639808 -1.17106885 -1.50000000
v -1.33596060 0.79525203 -1.50000000
v -1.84433621 1.10828253 -1.50000000
v -1.82758333 -0.74068570 -1.50000000
v 0.99260818 -2.22943448 -1.50000000
v 0.67910193 -1.75346043 -1.50000000
v 1.25028161 -1.55617517 -1.50000000
v 1.51856973 -2.05320159 -1.50000000
v 0.22142460 -1.98016493 -1.50000000
v -1.86137663 1.64273164 -1.50000000
v -2.33070806 -0.74087957 -1.50000000
v -2.53100961 -0.25686342 -1.50000000
v -1.96284620 -0.17479579 -1.50000000
v 2.09935681 1.22449248 -1.50000000
v 1.93786335 0.61319782 -1.50000000
v 1.45420871 0.96325676 -1.50000000
v 0.52466248 -2.40845972 -1.50000000
v 2.44903679 0.29779469 -1.50000000
v -0.21192772 1.35579069 -1.50000000
v -0.23985296 0.74480559 -1.50000000
v -0.75945788 1.08293897 -1.50000000
v -0.80095568 0.46455184 -1.50000000
v -1.36598800 0.17026835 -1.50000000
v -1.88390516 0.52184500 -1.50000000
v -0.86272342 -0.79691248 -1.50000000
v -0.34121272 -1.12822443 -1.50000000
v -0.30739897 -0.50236652 -1.50000000
v -0.83374496 -0.16138618 -1.50000000
v 0.28631804 0.40779370 -1.50000000
v 0.32052352 1.03416780 -1.50000000
v -0.27361802 0.12359054 -1.50000000
v 1.31858497 -0.27632534 -1.50000000
v 1.26592035 -0.87599391 -1.50000000
v 0.77767762 -0.56093142 -1.50000000
v 0.81176592 0.06531295 -1.50000000
v 0.25219729 -0.21849505 -1.50000000
v 0.73813983 -1.17136637 -1.50000000
v 0.21819485 -0.84464582 -1.50000000
v 0.84582892 0.69152967 -1.50000000
v 1.36549141 0.34921734 -1.50000000
v 1.84256702 -1.65288762 -1.50000000
v -2.42705098 0.25509334 -1.50000000
v 0.01456457 2.49960597 -1.50000000
v 0.34647136 1.63126426 -1.50000000
v 0.19098525 -1.44134100 -1.50000000
v -1.39172772 -0.44258104 -1.50000000
v 1.74832775 -1.14225615 -1.50000000
v 0.30319503 2.10766424 -1.50000000
v 0.56877568 2.46103631 -1.50000000
v 2.21324783 -1.32205050 -1.50000000
v 1.04669462 2.36962574 -1.50000000
v -2.37377784 0.83982121 -1.50000000
v 2.43126441 0.79396174 -1.50000000
v -2.24943561 1.31488021 -1.50000000
v 1.95200588 1.75883205 -1.50000000
v -1.55351571 -2.13528288 -1.50000000
v 0.69120231 -3.00000000 1.50000000
v 0.28878025 -2.28802251 1.50000000
v -0.25238833 -2.50971762 1.50000000
v -2.43594527 0.26540768 1.50000000
v -2.41555484 -0.25139141 1.50000000
v -1.82117628 0.01723087 1.50000000
v 7.75782424 1.20332459 1.50000000
v 8.52626951 2.03449004 1.50000000
v 7.61763194 2.17443204 1.50000000
v 8.59393084 1.12172369 1.50000000
v -1.46468373 0.69694715 1.50000000
v -1.94111639 0.52639668 1.50000000
v 6.70292830 -2.10473074 1.50000000
v 6.07379629 -1.17632122 1.50000000
v 5.78097313 -2.14148935 1.50000000
v -2.37356362 0.74756093 1.50000000
v -1.83123120 1.18038035 1.50000000
v -1.11771728 0.11425520 1.50000000
v 6.69891745 2.18194576 1.50000000
v 6.84499791 1.26731751 1.50000000
v -2.30132491 1.28268512 1.50000000
v 9.14787351 -0.35634530 1.50000000
v 9.19246271 0.57873368 1.50000000
v 8.22865183 0.27710993 1.50000000
v 5.94456895 1.31880262 1.50000000
v -1.92423562 -0.48690085 1.50000000
v 5.76484730 2.18921311 1.50000000
v -0.36430976 -2.00830627 1.50000000
v 7.14723741 -1.25401609 1.50000000
v -1.91288506 -1.60081541 1.50000000
v -1.28733188 -1.65236783 1.50000000
v -1.72823273 -1.04412698 1.50000000
v 8.41896997 -0.63489547 1.50000000
v -1.64247590 -2.01322369 1.50000000
v 1.16603716 -2.28739809 1.50000000
v -2.36961602 -0.71881516 1.50000000
v -2.25535625 -1.23570371 1.50000000
v 4.79475205 2.21853744 1.50000000
v 4.13955278 1.41267646 1.50000000
v 4.98035186 1.37545737 1.50000000
v 3.82898649 2.20018827 1.50000000
v -1.57158808 1.86551836 1.50000000
v -1.19529618 1.31695983 1.50000000
v -0.82972876 0.75217355 1.50000000
v 3.41712893 -1.40850646 1.50000000
v 2.74355163 -0.73266783 1.50000000
v 2.42272169 -1.48557313 1.50000000
v 2.05466251 -2.25472120 1.50000000
v 1.57531345 -1.58158723 1.50000000
v 7.63355915 -2.12579052 1.50000000
v 0.01638114 -1.60170615 1.50000000
v 1.59516591 -3.00000000 1.50000000
v -0.75903748 -0.44577025 1.50000000
v -1.02994573 -1.04676931 1.50000000
v -0.36732450 -1.02962562 1.50000000
v 2.17841533 0.01143618 1.50000000
v 1.40412121 -0.29335631 1.50000000
v 1.90632775 -0.81575989 1.50000000
v 5.14104939 -1.45085339 1.50000000
v -0.45171323 0.18056006 1.50000000
v 0.42772323 2.40233524 1.50000000
v 0.69120231 3.00000000 1.50000000
v 3.51646455 -0.62503555 1.50000000
v 9.11174320 -1.38425909 1.50000000
v 8.09485073 -1.31384407 1.50000000
v -0.04923480 -0.40700294 1.50000000
v -0.18796533 2.43500808 1.50000000
v -0.63560112 -1.54268054 1.50000000
v 9.06612955 -3.00000000 1.50000000
v 8.60007211 -2.10476971 1.50000000
v 8.13225909 -3.00000000 1.50000000
v -0.94572183 1.86770866 1.50000000
v 0.52412495 0.90780254 1.50000000
v 1.21922377 0.93587784 1.50000000
v 0.75555230 1.70330997 1.50000000
v 2.39136565 1.49689351 1.50000000
v 2.90363017 2.22579117 1.50000000
v 2.02462441 2.25984661 1.50000000
v 2.52903636 3.00000000 1.50000000
v 9.26444591 1.51496022 1.50000000
v 1.16677148 2.31295710 1.50000000
v 1.59516591 3.00000000 1.50000000
v 3.26260206 1.45768079 1.50000000
v 0.76496441 -1.63275072 1.50000000
v -1.21394366 -2.27112884 1.50000000
v 0.35610305 -1.01806506 1.50000000
v 2.52903636 -3.00000000 1.50000000
v 4.38177251 -0.86351520 1.50000000
v 4.34071434 -1.63898372 1.50000000
v -0.84974585 -1.98776038 1.50000000
v 2.98445778 -2.20457105 1.50000000
v 0.12517619 1.43436025 1.50000000
v -1.39600169 -0.49929390 1.50000000
v -0.56081705 1.35467391 1.50000000
v -0.15159471 0.81342225 1.50000000
v 5.26224069 -0.73483387 1.50000000
v 0.25551420 0.24255840 1.50000000
v 4.85298244 -2.23359525 1.50000000
v 5.33064773 -3.00000000 1.50000000
v 4.39677727 -3.00000000 1.50000000
v 3.91063842 -2.23844831 1.50000000
v 1.10174008 -0.96071925 1.50000000
v 0.67197900 -0.35171711 1.50000000
v 3.46290682 -3.00000000 1.50000000
v 1.56348486 1.59061204 1.50000000
v 10.00000000 0.00000000 1.50000000
v 3.46290682 3.00000000 1.50000000
v 10.00000000 2.00000000 1.50000000
v 10.00000000 1.00000000 1.50000000
v -2.04605648 1.65344915 1.50000000
v 10.00000000 -1.00000000 1.50000000
v 1.94722756 0.84889950 1.50000000
v 4.39677727 3.00000000 1.50000000
v 6.26451818 3.00000000 1.50000000
v 5.33064773 3.00000000 1.50000000
v 7.19838864 3.00000000 1.50000000
v 6.26451818 -3.00000000 1.50000000
v 2.73398351 0.73911847 1.50000000
v 6.69241357 -0.35487692 1.50000000
v 7.59846869 -0.45142537 1.50000000
v 8.13225909 3.00000000 1.50000000
v 7.19838864 -3.00000000 1.50000000
v 7.22802727 0.41751661 1.50000000
v 6.29826391 0.49208766 1.50000000
v 3.96274518 -0.08997238 1.50000000
v 4.86395465 -0.14229536 1.50000000
v 5.37818778 0.55774537 1.50000000
v 4.47027125 0.61264025 1.50000000
v 5.78184302 -0.21317145 1.50000000
v 3.57809374 0.67141683 1.50000000
v 3.07712452 -0.03051590 1.50000000
v 0.94326988 0.28468263 1.50000000
v 10.00000000 -2.00000000 1.50000000
v -0.37450965 1.91375863 1.50000000
v -0.74526167 2.39712581 1.50000000
v 9.06612955 3.00000000 1.50000000
v 9.31867550 -2.29978820 1.50000000
v 10.00000000 -3.00000000 1.50000000
v 1.55962618 0.31952545 1.50000000
v 10.00000000 3.00000000 1.50000000
v 9.36006095 2.31050325 1.50000000
v -1.21546652 2.27928005 1.50000000
v -0.74754281 -2.46431840 1.50000000
v 0.13384925 1.94351545 1.50000000
v 3.46290682 -3.00000000 -0.50000000
v 3.44337373 -2.12023601 -0.50000000
v 4.06611715 -2.23135167 -0.50000000
v 4.50396640 1.37738540 -0.50000000
v 4.04338663 2.20111611 -0.50000000
v 4.88764020 2.21903974 -0.50000000
v 1.59516591 3.00000000 -0.50000000
v 2.52903636 3.00000000 -0.50000000
v 2.13176513 2.58538000 -0.50000000
v 2.52903636 -3.00000000 -0.50000000
v 1.59516591 -3.00000000 -0.50000000
v 2.13551954 -2.58810881 -0.50000000
v 4.39677727 -3.00000000 -0.50000000
v 3.71562594 1.52802584 -0.50000000
v 2.76536438 -2.32481485 -0.50000000
v 2.74659235 2.31117084 -0.50000000
v 3.46290682 3.00000000 -0.50000000
v 3.38345304 2.13403270 -0.50000000
v 5.39133505 1.48968953 -0.50000000
v 3.47457350 0.35817883 -0.50000000
v 4.10737673 0.15253350 -0.50000000
v 3.60146280 -0.35105648 -0.50000000
v 4.04486071 -0.95658135 -0.50000000
v 3.34437842 -1.01450610 -0.50000000
v 5.33064773 3.00000000 -0.50000000
v 5.76007689 2.22287394 -0.50000000
v 8.02574019 -1.32934234 -0.50000000
v 9.08331914 -1.42603997 -0.50000000
v 8.54475922 -2.21535133 -0.50000000
v 4.29669444 -0.41174926 -0.50000000
v 7.64832652 -2.24244230 -0.50000000
v 4.85834020 -0.87193649 -0.50000000
v 4.39677727 3.00000000 -0.50000000
v 5.33064773 -3.00000000 -0.50000000
v 4.87766875 -2.22009733 -0.50000000
v 5.79043087 -2.09668243 -0.50000000
v 4.46451758 -1.49330360 -0.50000000
v 6.62536322 2.21738150 -0.50000000
v 6.14256009 1.40527801 -0.50000000
v 5.70500515 -1.19718960 -0.50000000
v 6.47363977 -1.45521050 -0.50000000
v 7.57987279 2.14315102 -0.50000000
v 6.92281472 1.56700253 -0.50000000
v 3.96062899 0.82710525 -0.50000000
v 3.33047152 1.00821614 -0.50000000
v 9.07602450 1.53761155 -0.50000000
v 9.16043940 0.53643508 -0.50000000
v 8.31009672 0.97339058 -0.50000000
v 6.26451818 3.00000000 -0.50000000
v 10.00000000 0.00000000 -0.50000000
v 9.18750888 -0.39469937 -0.50000000
v 10.00000000 1.00000000 -0.50000000
v 6.76498188 -2.25014646 -0.50000000
v 6.26451818 -3.00000000 -0.50000000
v 7.19838864 3.00000000 -0.50000000
v 7.53414217 1.27041116 -0.50000000
v 10.00000000 -1.00000000 -0.50000000
v 10.00000000 2.00000000 -0.50000000
v 10.00000000 -2.00000000 -0.50000000
v 8.48925799 -0.69795991 -0.50000000
v 5.87325221 0.81432478 -0.50000000
v 5.12918536 0.93712454 -0.50000000
v 7.19838864 -3.00000000 -0.50000000
v 8.13225909 -3.00000000 -0.50000000
v 8.13225909 3.00000000 -0.50000000
v 5.13919251 -1.57584189 -0.50000000
v 5.55483818 -0.39027736 -0.50000000
v 4.81795991 -0.09631940 -0.50000000
v 8.42687494 0.12814055 -0.50000000
v 7.00724243 -0.09945577 -0.50000000
v 6.17383779 0.12412557 -0.50000000
v 6.73213532 0.79879095 -0.50000000
v 6.35333770 -0.66937297 -0.50000000
v 3.08515721 -1.64399101 -0.50000000
v 3.75145877 -1.55447311 -0.50000000
v 7.16525204 -0.91891835 -0.50000000
v 7.86044651 -0.36417223 -0.50000000
v 9.06612955 -3.00000000 -0.50000000
v 3.08779409 1.61906221 -0.50000000
v 8.55641816 2.28004369 -0.50000000
v 7.21558808 -1.63921199 -0.50000000
v 9.06612955 3.00000000 -0.50000000
v 5.37480376 0.34918199 -0.50000000
v 10.00000000 -3.00000000 -0.50000000
v 9.31278084 -2.29428334 -0.50000000
v 7.62355327 0.48668505 -0.50000000
v 8.15243216 1.68746333 -0.50000000
v 4.63497998 0.60035264 -0.50000000
v 10.00000000 3.00000000 -0.50000000
v 9.33583350 2.33830909 -0.50000000
v 0.69120231 -3.00000000 -0.50000000
v 0.69120231 3.00000000 -0.50000000
v 0.43478938 -3.00000000 0.84634201
v 0.28149792 -3.00000000 1.21158550
v 0.43301270 -3.00000000 0.25000000
v 1.14318411 -3.00000000 0.80927290
v 2.06321328 -3.00000000 0.27711748
v 1.04522991 -3.00000000 0.01439840
v 0.40866389 -3.00000000 -0.17651451
v 2.06210113 -3.00000000 0.98843152
v 3.92984204 -3.00000000 0.30875554
v 5.01935757 -3.00000000 0.16666667
v 4.73400827 -3.00000000 0.86097413
v 3.92984204 -3.00000000 0.99917814
v 2.99597159 -3.00000000 0.69124446
v 2.99597159 -3.00000000 0.00410932
v 8.56620140 -3.00000000 0.26891906
v 7.66532386 -3.00000000 0.69124446
v 5.79758295 -3.00000000 0.69124446
v 6.73145341 -3.00000000 0.30875554
v 6.73145341 -3.00000000 0.99589068
v 5.79758295 -3.00000000 0.00410932
v 7.66532386 -3.00000000 0.00410932
v 8.58368261 -3.00000000 0.98258039
v 10.00000000 -3.00000000 0.50000000
v 9.36983704 -3.00000000 0.16057120
v 9.35947496 -3.00000000 0.86327664
v 0.42682032 3.00000000 0.15325484
v 0.27950566 3.00000000 -0.21168629
v 2.05662521 3.00000000 0.26943518
v 1.05961314 3.00000000 0.20346137
v 1.14318411 3.00000000 0.92496274
v 0.44964357 3.00000000 0.73387929
v 2.06210113 3.00000000 0.98843152
v 0.42503319 3.00000000 1.16554886
v 2.99597159 3.00000000 0.69124446
v 2.99597159 3.00000000 0.00410932
v 8.56620140 3.00000000 0.73108094
v 7.66532386 3.00000000 0.30875554
v 3.92984204 3.00000000 0.30875554
v 4.86371250 3.00000000 0.69124446
v 6.73145341 3.00000000 0.69124446
v 5.79758295 3.00000000 0.30875554
v 4.86371250 3.00000000 0.00410932
v 5.79758295 3.00000000 0.99589068
v 6.73145341 3.00000000 0.00410932
v 3.92984204 3.00000000 0.99589068
v 7.66532386 3.00000000 0.99589068
v 8.58368261 3.00000000 0.01741961
v 10.00000000 3.00000000 0.50000000
v 9.36983704 3.00000000 0.83942880
v 9.35947496 3.00000000 0.13672336
v 10.00000000 -1.50000000 0.36602540
v 10.00000000 1.50000000 0.63397460
v 10.00000000 -0.50000000 0.54552735
v 10.00000000 0.50000000 0.46514910
v 10.00000000 -2.34254833 0.76631772
v 10.00000000 2.34254833 0.23368228
v 10.00000000 2.42018787 0.92201794
v 10.00000000 -2.42018787 0.07798206
f 1 2 3
f 4 2 1
f 5 6 7
f 5 8 6
f 9 10 11
f 12 13 14
f 15 16 17
f 11 10 18
f 17 19 15
f 12 20 13
f 21 22 23
f 24 9 11
f 25 24 11
f 26 21 23
f 27 28 29
f 30 31 25
f 31 24 25
f 29 32 27
f 33 34 35
f 23 22 36
f 37 38 30
f 39 34 33
f 40 28 41
f 38 31 30
f 42 28 27
f 40 41 43
f 44 14 45
f 41 28 42
f 41 42 46
f 42 27 47
f 42 47 12
f 42 12 46
f 48 1 49
f 50 40 43
f 51 41 46
f 52 6 50
f 51 46 44
f 43 41 51
f 53 54 37
f 46 14 44
f 55 56 57
f 12 14 46
f 49 3 58
f 59 60 61
f 62 10 63
f 64 23 65
f 65 36 66
f 66 67 68
f 50 6 40
f 23 36 65
f 67 69 32
f 66 36 67
f 54 38 37
f 32 69 27
f 70 71 7
f 17 16 52
f 47 20 12
f 57 72 53
f 61 26 73
f 74 13 59
f 21 20 47
f 1 3 49
f 71 4 5
f 4 29 5
f 75 70 62
f 76 77 78
f 78 79 75
f 6 8 40
f 36 69 67
f 71 5 7
f 72 54 53
f 19 10 62
f 80 72 39
f 59 13 60
f 48 81 1
f 60 21 26
f 60 26 61
f 18 19 17
f 32 81 67
f 28 8 29
f 82 54 80
f 45 83 84
f 75 79 70
f 77 79 78
f 84 83 74
f 70 7 15
f 1 85 4
f 67 81 68
f 70 79 71
f 80 54 72
f 86 38 82
f 15 19 62
f 58 87 88
f 73 89 90
f 29 8 5
f 70 15 62
f 90 89 64
f 91 31 86
f 82 38 54
f 77 87 3
f 92 24 91
f 3 87 58
f 63 9 92
f 6 16 7
f 86 31 38
f 81 85 1
f 71 2 4
f 91 24 31
f 92 9 24
f 3 2 77
f 77 2 79
f 88 87 76
f 57 34 72
f 57 56 34
f 13 20 60
f 29 85 32
f 79 2 71
f 27 69 47
f 7 16 15
f 36 22 69
f 68 81 48
f 4 85 29
f 18 10 19
f 52 16 6
f 14 83 45
f 40 8 28
f 26 89 73
f 32 85 81
f 64 89 23
f 74 83 13
f 23 89 26
f 72 34 39
f 13 83 14
f 47 22 21
f 76 87 77
f 35 56 55
f 60 20 21
f 63 10 9
f 69 22 47
f 34 56 35
f 93 94 95
f 96 97 55
f 98 99 100
f 100 99 101
f 102 103 104
f 105 94 93
f 103 106 104
f 107 108 109
f 110 94 111
f 112 93 95
f 113 114 115
f 116 108 107
f 115 117 113
f 111 94 105
f 118 119 110
f 107 109 120
f 107 120 121
f 122 123 124
f 121 125 126
f 121 120 125
f 35 97 33
f 124 127 122
f 110 119 128
f 110 111 129
f 124 123 130
f 126 131 132
f 33 97 133
f 126 125 131
f 134 112 135
f 136 130 137
f 130 123 137
f 136 137 138
f 128 124 130
f 95 128 130
f 136 95 130
f 139 137 140
f 137 123 140
f 141 100 142
f 139 140 143
f 143 103 144
f 135 112 136
f 135 136 138
f 138 137 139
f 132 145 146
f 136 112 95
f 147 98 141
f 61 105 59
f 148 108 149
f 150 129 151
f 152 118 150
f 153 154 152
f 140 103 143
f 150 118 129
f 154 118 152
f 132 131 145
f 102 155 156
f 127 119 154
f 144 114 113
f 146 157 96
f 124 119 127
f 73 111 61
f 59 93 74
f 141 98 100
f 104 101 155
f 104 122 101
f 149 156 158
f 158 159 160
f 160 161 162
f 154 119 118
f 102 104 155
f 146 145 157
f 149 108 117
f 133 157 163
f 105 93 59
f 140 106 103
f 100 164 142
f 122 106 123
f 61 111 105
f 113 117 116
f 154 164 127
f 118 110 129
f 84 165 134
f 163 145 166
f 74 165 84
f 156 159 158
f 160 159 161
f 115 102 156
f 101 167 100
f 153 164 154
f 155 159 156
f 104 106 122
f 157 145 163
f 166 131 168
f 169 170 147
f 149 117 115
f 90 171 73
f 149 115 156
f 151 171 90
f 168 125 172
f 145 131 166
f 98 170 161
f 172 120 173
f 147 170 98
f 100 167 164
f 173 109 148
f 102 114 103
f 131 125 168
f 101 99 155
f 125 120 172
f 120 109 173
f 161 99 98
f 95 94 128
f 159 99 161
f 162 170 169
f 157 97 96
f 127 167 122
f 155 99 159
f 115 114 102
f 128 119 124
f 142 164 153
f 122 167 101
f 134 165 112
f 128 94 110
f 117 108 116
f 103 114 144
f 73 171 111
f 123 106 140
f 164 167 127
f 93 165 74
f 129 171 151
f 111 171 129
f 133 97 157
f 112 165 93
f 161 170 162
f 109 108 148
f 55 97 35
f 174 175 176
f 177 178 179
f 176 180 174
f 181 182 183
f 183 182 184
f 185 186 187
f 188 185 187
f 177 189 178
f 188 190 191
f 187 190 188
f 192 193 179
f 179 193 177
f 194 195 196
f 197 198 185
f 195 199 196
f 200 201 202
f 202 203 200
f 179 204 192
f 185 198 205
f 206 207 208
f 209 210 211
f 208 199 206
f 176 175 211
f 196 189 194
f 212 204 201
f 200 212 201
f 211 175 209
f 178 189 196
f 213 182 181
f 214 215 216
f 197 216 217
f 216 215 217
f 218 197 217
f 219 198 197
f 178 196 220
f 221 220 222
f 178 220 221
f 222 220 223
f 224 215 225
f 225 215 214
f 226 215 224
f 227 228 229
f 227 229 230
f 230 229 231
f 229 228 232
f 233 229 232
f 234 211 235
f 50 177 52
f 144 187 143
f 53 184 57
f 30 236 37
f 17 192 18
f 45 206 44
f 134 237 84
f 139 205 138
f 55 213 96
f 116 238 113
f 126 174 121
f 146 209 132
f 11 200 25
f 51 194 43
f 225 214 239
f 225 239 176
f 176 211 234
f 225 176 234
f 179 178 221
f 235 227 230
f 234 235 230
f 240 179 221
f 233 232 240
f 224 225 234
f 224 234 230
f 233 240 221
f 233 221 222
f 224 230 231
f 231 229 233
f 226 224 231
f 231 233 222
f 226 231 222
f 226 222 223
f 217 215 226
f 217 226 223
f 220 196 241
f 223 220 241
f 218 217 223
f 218 223 241
f 218 241 208
f 219 197 218
f 219 218 208
f 213 181 210
f 211 210 235
f 184 242 183
f 197 185 216
f 210 181 235
f 219 208 237
f 180 243 244
f 235 181 227
f 245 242 184
f 216 188 214
f 244 246 180
f 205 186 185
f 214 191 239
f 208 207 237
f 241 199 208
f 228 202 232
f 181 183 227
f 240 204 179
f 216 185 188
f 202 201 232
f 206 199 195
f 232 201 240
f 239 180 176
f 236 203 202
f 191 190 238
f 227 183 228
f 247 219 237
f 247 198 219
f 210 248 213
f 188 191 214
f 135 247 134
f 57 182 55
f 53 245 184
f 134 247 237
f 25 203 30
f 84 207 45
f 236 245 37
f 192 212 18
f 187 186 143
f 184 182 57
f 17 193 192
f 45 207 206
f 143 186 139
f 139 186 205
f 113 190 144
f 37 245 53
f 200 203 25
f 55 182 213
f 237 207 84
f 107 244 116
f 52 193 17
f 177 193 52
f 44 195 51
f 30 203 236
f 144 190 187
f 238 190 113
f 51 195 194
f 18 212 11
f 206 195 44
f 116 244 238
f 11 212 200
f 213 248 96
f 146 248 209
f 96 248 146
f 174 246 121
f 209 248 210
f 205 249 138
f 126 250 174
f 209 250 132
f 50 251 177
f 194 251 43
f 228 242 202
f 202 242 236
f 196 199 241
f 191 243 239
f 121 246 107
f 239 243 180
f 192 204 212
f 132 250 126
f 43 251 50
f 138 249 135
f 180 246 174
f 198 249 205
f 201 204 240
f 175 250 209
f 174 250 175
f 183 242 228
f 247 249 198
f 177 251 189
f 189 251 194
f 107 246 244
f 238 243 191
f 135 249 247
f 236 242 245
f 244 243 238
f 252 253 88
f 88 253 254
f 255 256 257
f 258 259 260
f 258 261 259
f 262 263 257
f 264 265 266
f 267 263 268
f 262 257 269
f 270 271 260
f 260 271 258
f 268 272 267
f 273 274 275
f 257 263 255
f 270 276 271
f 256 277 257
f 278 276 270
f 253 279 254
f 280 265 264
f 281 282 283
f 275 284 273
f 285 282 281
f 286 253 252
f 287 288 283
f 283 277 287
f 289 290 291
f 292 290 289
f 293 268 294
f 262 269 295
f 296 297 298
f 299 298 300
f 299 300 286
f 280 264 301
f 302 279 253
f 303 286 252
f 268 263 262
f 304 305 306
f 307 308 309
f 303 299 286
f 300 298 309
f 266 265 310
f 295 269 311
f 291 276 278
f 278 289 291
f 169 312 313
f 296 314 297
f 315 284 316
f 304 306 317
f 318 312 169
f 306 319 302
f 301 316 280
f 320 321 322
f 294 323 293
f 324 325 326
f 327 328 329
f 321 315 316
f 329 328 330
f 259 261 331
f 313 332 333
f 328 334 292
f 300 335 286
f 292 334 290
f 309 297 307
f 336 282 285
f 337 302 335
f 338 299 303
f 339 340 310
f 337 306 302
f 322 321 301
f 305 319 306
f 317 306 337
f 336 341 282
f 342 299 338
f 324 326 343
f 304 344 305
f 311 269 304
f 344 283 305
f 335 253 286
f 302 253 335
f 345 294 295
f 346 295 311
f 310 347 339
f 345 323 294
f 348 311 317
f 311 304 317
f 342 298 299
f 269 257 344
f 266 349 350
f 294 268 262
f 346 345 295
f 294 262 295
f 319 279 302
f 351 349 352
f 296 340 339
f 353 337 335
f 354 317 337
f 348 346 311
f 339 314 296
f 266 310 349
f 351 352 355
f 332 356 329
f 357 274 273
f 350 349 351
f 354 348 317
f 304 269 344
f 358 328 292
f 333 329 330
f 326 325 356
f 330 328 358
f 301 321 316
f 313 312 332
f 359 331 360
f 273 284 315
f 300 353 335
f 355 342 338
f 293 361 268
f 255 263 267
f 357 273 362
f 331 274 360
f 353 354 337
f 355 352 342
f 356 363 327
f 358 292 364
f 360 274 357
f 365 278 270
f 366 278 365
f 88 254 58
f 65 287 64
f 151 267 150
f 153 293 142
f 48 285 68
f 365 270 367
f 368 266 350
f 363 307 369
f 370 280 371
f 270 260 367
f 367 260 372
f 368 264 266
f 373 264 368
f 258 271 374
f 275 258 374
f 374 271 375
f 322 301 373
f 280 316 371
f 376 339 377
f 378 291 379
f 380 370 375
f 356 327 329
f 380 375 378
f 377 380 378
f 377 378 379
f 370 374 375
f 301 264 373
f 287 277 256
f 327 334 328
f 376 377 379
f 370 371 374
f 371 275 374
f 344 277 283
f 271 276 375
f 376 379 381
f 380 265 370
f 363 369 327
f 342 296 298
f 342 352 296
f 292 289 364
f 366 289 278
f 332 329 333
f 378 276 291
f 307 382 369
f 382 376 381
f 283 282 305
f 346 343 345
f 375 276 378
f 260 259 372
f 354 383 348
f 382 381 369
f 370 265 280
f 310 340 349
f 362 315 384
f 385 386 323
f 300 309 353
f 348 324 346
f 291 290 379
f 372 259 387
f 147 318 169
f 298 297 309
f 332 326 356
f 352 340 296
f 380 347 265
f 364 289 366
f 343 385 345
f 353 308 354
f 283 288 281
f 383 324 348
f 346 324 343
f 265 347 310
f 376 314 339
f 384 388 389
f 369 334 327
f 389 388 320
f 320 388 321
f 354 308 383
f 309 308 353
f 379 290 381
f 307 390 308
f 391 392 359
f 339 347 377
f 273 315 362
f 371 284 275
f 387 392 391
f 345 385 323
f 381 334 369
f 290 334 381
f 307 297 382
f 318 386 385
f 315 388 384
f 305 282 319
f 323 393 293
f 356 325 363
f 66 288 65
f 65 288 287
f 64 256 90
f 287 256 64
f 48 336 285
f 49 336 48
f 254 279 394
f 257 277 344
f 285 281 68
f 68 281 66
f 90 255 151
f 151 255 267
f 318 395 312
f 254 394 58
f 58 394 49
f 297 314 382
f 312 326 332
f 267 272 150
f 274 261 275
f 293 393 142
f 383 325 324
f 153 361 293
f 141 386 147
f 331 261 274
f 359 392 331
f 363 390 307
f 382 314 376
f 142 393 141
f 321 388 315
f 150 272 152
f 349 340 352
f 275 261 258
f 282 341 319
f 386 393 323
f 279 341 394
f 316 284 371
f 326 395 343
f 152 361 153
f 383 390 325
f 385 395 318
f 343 395 385
f 147 386 318
f 312 395 326
f 377 347 380
f 331 392 259
f 325 390 363
f 281 288 66
f 90 256 255
f 394 336 49
f 259 392 387
f 308 390 383
f 141 393 386
f 272 361 152
f 268 361 272
f 394 341 336
f 319 341 279
f 396 397 398
f 399 400 401
f 402 403 404
f 405 406 407
f 408 396 398
f 400 399 409
f 396 410 397
f 396 405 410
f 411 412 413
f 403 412 411
f 399 401 414
f 415 416 417
f 418 419 417
f 420 421 401
f 172 173 402
f 92 91 406
f 422 423 424
f 417 416 425
f 426 422 424
f 418 417 425
f 427 418 425
f 401 421 414
f 400 428 401
f 412 428 400
f 429 430 431
f 418 427 432
f 421 433 434
f 431 435 436
f 433 437 438
f 429 408 430
f 399 439 409
f 439 440 409
f 441 442 443
f 172 402 404
f 406 91 407
f 420 444 421
f 442 445 446
f 447 442 441
f 428 420 401
f 421 444 433
f 448 449 431
f 449 429 431
f 450 437 433
f 437 451 438
f 430 408 398
f 452 423 446
f 447 445 442
f 453 447 441
f 452 454 423
f 415 440 439
f 445 452 446
f 423 422 455
f 448 431 436
f 414 456 457
f 444 450 433
f 458 449 448
f 33 415 417
f 459 458 426
f 458 448 426
f 450 460 437
f 414 434 456
f 431 430 461
f 415 133 440
f 462 435 427
f 435 431 461
f 419 39 417
f 411 168 404
f 463 462 427
f 442 446 464
f 465 466 467
f 462 468 435
f 469 419 470
f 166 168 411
f 414 421 434
f 471 472 422
f 473 459 424
f 163 474 440
f 412 400 413
f 437 460 475
f 471 465 472
f 422 426 476
f 410 469 397
f 468 465 471
f 80 419 469
f 440 474 409
f 468 466 465
f 33 133 415
f 460 477 475
f 459 426 424
f 462 466 468
f 415 439 416
f 470 419 418
f 80 39 419
f 462 478 466
f 39 33 417
f 463 478 462
f 463 427 425
f 133 163 440
f 446 423 455
f 454 479 480
f 163 166 474
f 434 467 456
f 472 465 481
f 441 443 482
f 464 446 455
f 479 473 480
f 463 483 478
f 483 439 399
f 484 453 485
f 471 422 476
f 82 80 469
f 416 483 463
f 467 466 456
f 434 433 438
f 468 471 436
f 470 418 432
f 416 439 483
f 477 484 485
f 465 467 481
f 481 467 451
f 469 470 397
f 443 481 451
f 475 441 482
f 403 411 404
f 82 469 410
f 399 414 457
f 86 82 410
f 435 468 436
f 443 442 464
f 467 434 438
f 474 166 411
f 453 441 485
f 168 172 404
f 91 86 407
f 472 481 464
f 423 454 480
f 432 430 398
f 409 474 413
f 86 410 407
f 483 399 457
f 427 435 461
f 470 432 398
f 430 432 461
f 410 405 407
f 426 448 476
f 473 424 480
f 481 443 464
f 472 464 455
f 436 471 476
f 466 478 456
f 441 475 485
f 437 475 482
f 424 423 480
f 397 470 398
f 416 463 425
f 443 451 482
f 451 467 438
f 456 478 457
f 422 472 455
f 475 477 485
f 432 427 461
f 478 483 457
f 451 437 482
f 400 409 413
f 448 436 476
f 474 411 413
f 63 486 62
f 148 149 487
f 63 92 486
f 92 406 486
f 173 148 487
f 173 487 402
f 488 252 489
f 490 491 488
f 492 491 493
f 493 490 494
f 491 252 488
f 491 490 493
f 486 493 494
f 491 492 495
f 496 497 498
f 499 496 498
f 303 252 491
f 252 88 489
f 62 486 494
f 406 492 493
f 406 405 492
f 492 500 495
f 486 406 493
f 500 492 501
f 355 338 500
f 459 473 502
f 322 373 503
f 396 408 496
f 408 429 497
f 496 408 497
f 368 350 504
f 449 458 505
f 496 500 501
f 500 496 499
f 504 505 506
f 505 504 507
f 505 503 506
f 503 505 508
f 497 504 498
f 504 497 507
f 502 503 508
f 503 502 509
f 500 338 495
f 492 405 501
f 303 491 495
f 355 500 499
f 396 496 501
f 368 504 506
f 503 373 506
f 449 505 507
f 504 350 498
f 322 503 509
f 459 502 508
f 505 458 508
f 497 429 507
f 479 510 511
f 473 479 511
f 76 78 488
f 78 75 490
f 509 502 512
f 510 389 512
f 502 511 512
f 389 320 512
f 338 303 495
f 502 473 511
f 405 396 501
f 78 490 488
f 320 322 509
f 351 499 498
f 351 355 499
f 458 459 508
f 429 449 507
f 350 351 498
f 373 368 506
f 88 76 489
f 75 62 494
f 76 488 489
f 490 75 494
f 320 509 512
f 511 510 512
f 513 487 514
f 515 516 517
f 518 516 513
f 515 517 519
f 517 518 520
f 516 487 513
f 516 518 517
f 313 517 520
f 402 487 516
f 169 313 520
f 487 149 514
f 402 516 515
f 403 402 515
f 521 515 519
f 313 333 517
f 515 521 522
f 372 387 523
f 460 450 524
f 330 358 521
f 428 412 525
f 364 366 526
f 365 367 527
f 444 420 528
f 525 526 529
f 527 528 530
f 528 527 531
f 526 525 532
f 527 524 531
f 524 527 533
f 526 528 529
f 528 526 530
f 525 521 532
f 521 525 522
f 523 524 533
f 524 523 534
f 403 515 522
f 330 521 519
f 428 525 529
f 444 528 531
f 364 526 532
f 525 412 522
f 524 450 531
f 365 527 530
f 528 420 529
f 372 523 533
f 521 358 532
f 526 366 530
f 460 524 534
f 527 367 533
f 391 535 536
f 387 391 536
f 517 333 519
f 158 160 513
f 160 162 518
f 534 523 537
f 535 484 537
f 523 536 537
f 484 477 537
f 333 330 519
f 523 387 536
f 160 518 513
f 477 460 534
f 358 364 532
f 367 372 533
f 412 403 522
f 366 365 530
f 420 428 529
f 450 444 531
f 149 158 514
f 162 169 520
f 158 513 514
f 518 162 520
f 477 534 537
f 536 535 537
f 362 384 538
f 447 453 539
f 452 445 540
f 360 357 541
f 447 539 541
f 540 445 541
f 540 362 538
f 452 540 538
f 357 540 541
f 539 360 541
f 538 384 542
f 539 453 543
f 445 447 541
f 357 362 540
f 359 360 539
f 454 452 538
f 453 484 543
f 384 389 542
f 389 510 542
f 484 535 543
f 359 539 544
f 454 538 545
f 539 543 544
f 538 542 545
f 391 359 544
f 535 391 544
f 479 454 545
f 510 479 545
f 542 510 545
f 543 535 544
