v -4.89897949 8.14285714 -1.00000000
v -4.89897949 9.07142857 -1.00000000
v -3.98596914 8.46454403 -1.00000000
v -4.89897949 4.42857143 -1.00000000
v -4.89897949 5.35714286 -1.00000000
v -3.98614532 5.03591764 -1.00000000
v -4.17814025 9.29063830 -1.00000000
v -4.17814025 4.20936170 -1.00000000
v -2.45908716 4.26770922 -1.00000000
v -2.90169078 5.04957847 -1.00000000
v -1.89720445 4.96971141 -1.00000000
v -2.90201637 8.45192696 -1.00000000
v -2.45932352 9.23387232 -1.00000000
v -1.89708397 8.53128178 -1.00000000
v -2.44861780 5.62335707 -1.00000000
v -2.44900142 7.87746697 -1.00000000
v -3.39411156 4.31674537 -1.00000000
v -2.94948974 3.50000000 -1.00000000
v -3.39528056 9.18436505 -1.00000000
v -3.33889788 5.91398081 -1.00000000
v -2.94948974 10.00000000 -1.00000000
v -3.33873469 7.58651746 -1.00000000
v -3.92423461 3.50000000 -1.00000000
v -3.92423461 10.00000000 -1.00000000
v -1.97474487 3.50000000 -1.00000000
v -1.97474487 10.00000000 -1.00000000
v -4.89897949 6.28571429 -1.00000000
v -4.89897949 7.21428571 -1.00000000
v -4.03882929 6.75015655 -1.00000000
v -1.00000000 6.28571429 -1.00000000
v -1.00000000 5.35714286 -1.00000000
v -1.76857641 5.87155332 -1.00000000
v -1.00000000 8.14285714 -1.00000000
v -1.00000000 7.21428571 -1.00000000
v -1.76891285 7.62925697 -1.00000000
v -1.79570476 6.75004922 -1.00000000
v -1.00000000 9.07142857 -1.00000000
v -1.00000000 4.42857143 -1.00000000
v -4.89897949 10.00000000 -1.00000000
v -4.89897949 3.50000000 -1.00000000
v -3.18200231 6.75151668 -1.00000000
v -2.52331490 6.35395102 -1.00000000
v -2.51500185 7.15795360 -1.00000000
v -4.20723406 7.59676199 -1.00000000
v -4.20821327 5.90266165 -1.00000000
v -1.00000000 3.50000000 -1.00000000
v -1.70245899 4.19006750 -1.00000000
v -1.00000000 10.00000000 -1.00000000
v -1.70033363 9.31216354 -1.00000000
v 1.00000000 5.17197467 -2.94952376
v 1.00000000 5.69937133 -3.39907048
v 1.00000000 6.02829578 -2.58221391
v 1.00000000 8.32623319 -2.94948974
v 1.00000000 7.79062034 -2.49664695
v 1.00000000 7.46114409 -3.31302983
v 1.00000000 5.27496733 -2.27936167
v 1.00000000 8.21965409 -3.61880132
v 1.00000000 6.43552414 -3.34657823
v 1.00000000 7.02938017 -2.53928957
v 1.00000000 9.21340304 -2.46946866
v 1.00000000 8.50887335 -1.90676210
v 1.00000000 4.27165870 -3.43382228
v 1.00000000 4.98863475 -3.99277937
v 1.00000000 9.07164399 -3.45640056
v 1.00000000 10.00000000 -2.94948974
v 1.00000000 4.41690373 -2.44217632
v 1.00000000 3.50000000 -2.94948974
v 1.00000000 10.00000000 -3.92423461
v 1.00000000 3.50000000 -3.92423461
v 1.00000000 10.00000000 -1.97474487
v 1.00000000 3.50000000 -1.97474487
v 1.00000000 7.21428571 -1.00000000
v 1.00000000 6.74249788 -1.76426239
v 1.00000000 7.62747088 -1.77466353
v 1.00000000 6.28571429 -1.00000000
v 1.00000000 7.21428571 -4.89897949
v 1.00000000 6.75737468 -4.13476283
v 1.00000000 6.28571429 -4.89897949
v 1.00000000 7.67182078 -4.17163405
v 1.00000000 5.35714286 -1.00000000
v 1.00000000 5.82751642 -1.72767867
v 1.00000000 5.87242728 -4.12425716
v 1.00000000 5.35714286 -4.89897949
v 1.00000000 8.14285714 -4.89897949
v 1.00000000 8.14285714 -1.00000000
v 1.00000000 4.42857143 -1.00000000
v 1.00000000 4.93014607 -1.69521567
v 1.00000000 9.07142857 -1.00000000
v 1.00000000 9.07142857 -4.89897949
v 1.00000000 8.56742842 -4.20345245
v 1.00000000 4.42857143 -4.89897949
v 1.00000000 10.00000000 -1.00000000
v 1.00000000 9.30993250 -1.70245899
v 1.00000000 9.31830601 -4.21731621
v 1.00000000 10.00000000 -4.89897949
v 1.00000000 3.50000000 -4.89897949
v 1.00000000 4.19006750 -4.19652049
v 1.00000000 4.17956470 -1.68028596
v 1.00000000 3.50000000 -1.00000000
v 1.00000000 8.14285714 1.00000000
v 1.91301034 8.46454403 1.00000000
v 1.00000000 9.07142857 1.00000000
v 1.00000000 4.42857143 1.00000000
v 1.91283416 5.03591764 1.00000000
v 1.00000000 5.35714286 1.00000000
v 1.72083923 9.29063830 1.00000000
v 1.72083923 4.20936170 1.00000000
v 3.43989232 4.26770922 1.00000000
v 4.00177504 4.96971141 1.00000000
v 2.99728870 5.04957847 1.00000000
v 2.99696311 8.45192696 1.00000000
v 4.00189551 8.53128178 1.00000000
v 3.43965596 9.23387232 1.00000000
v 3.45036169 5.62335707 1.00000000
v 3.44997806 7.87746697 1.00000000
v 2.50486793 4.31674537 1.00000000
v 2.94948974 3.50000000 1.00000000
v 2.50369893 9.18436505 1.00000000
v 2.56024480 7.58651746 1.00000000
v 2.94948974 10.00000000 1.00000000
v 2.56008161 5.91398081 1.00000000
v 1.97474487 3.50000000 1.00000000
v 1.97474487 10.00000000 1.00000000
v 3.92423461 3.50000000 1.00000000
v 3.92423461 10.00000000 1.00000000
v 1.00000000 6.28571429 1.00000000
v 1.86015020 6.75015655 1.00000000
v 1.00000000 7.21428571 1.00000000
v 4.89897949 6.28571429 1.00000000
v 4.10327473 6.75004922 1.00000000
v 4.13040307 5.87155332 1.00000000
v 4.89897949 5.35714286 1.00000000
v 4.89897949 8.14285714 1.00000000
v 4.13006663 7.62925697 1.00000000
v 4.89897949 7.21428571 1.00000000
v 4.89897949 9.07142857 1.00000000
v 4.89897949 4.42857143 1.00000000
v 2.71697718 6.75151668 1.00000000
v 1.00000000 3.50000000 1.00000000
v 1.00000000 10.00000000 1.00000000
v 3.37566459 6.35395102 1.00000000
v 3.38397763 7.15795360 1.00000000
v 1.69174543 7.59676199 1.00000000
v 1.69076621 5.90266165 1.00000000
v 4.89897949 3.50000000 1.00000000
v 4.19652049 4.19006750 1.00000000
v 4.19864585 9.31216354 1.00000000
v 4.89897949 10.00000000 1.00000000
v 1.00000000 5.03545597 1.91301034
v 1.00000000 8.46408236 1.91283416
v 1.00000000 4.20936170 1.72083923
v 1.00000000 9.29063830 1.72083923
v 1.00000000 9.23229078 3.43989232
v 1.00000000 8.53028859 4.00177504
v 1.00000000 8.45042153 2.99728870
v 1.00000000 5.04807304 2.99696311
v 1.00000000 4.96871822 4.00189551
v 1.00000000 4.26612768 3.43965596
v 1.00000000 7.87664293 3.45036169
v 1.00000000 5.62253303 3.44997806
v 1.00000000 9.18325463 2.50486793
v 1.00000000 10.00000000 2.94948974
v 1.00000000 4.31563495 2.50369893
v 1.00000000 7.58601919 2.56008161
v 1.00000000 3.50000000 2.94948974
v 1.00000000 5.91348254 2.56024480
v 1.00000000 3.50000000 1.97474487
v 1.00000000 10.00000000 1.97474487
v 1.00000000 10.00000000 3.92423461
v 1.00000000 3.50000000 3.92423461
v 1.00000000 7.21428571 4.89897949
v 1.00000000 6.74995078 4.10327473
v 1.00000000 7.62844668 4.13040307
v 1.00000000 6.28571429 4.89897949
v 1.00000000 5.35714286 4.89897949
v 1.00000000 5.87074303 4.13006663
v 1.00000000 6.74984345 1.86015020
v 1.00000000 8.14285714 4.89897949
v 1.00000000 4.42857143 4.89897949
v 1.00000000 9.07142857 4.89897949
v 1.00000000 6.74848332 2.71697718
v 1.00000000 7.14604898 3.37566459
v 1.00000000 6.34204640 3.38397763
v 1.00000000 5.90323801 1.69174543
v 1.00000000 7.59733835 1.69076621
v 1.00000000 10.00000000 4.89897949
v 1.00000000 9.30993250 4.19652049
v 1.00000000 4.18783646 4.19864585
v 1.00000000 3.50000000 4.89897949
v -1.48643328 3.50000000 0.05597240
v 1.48412019 3.50000000 -0.00563306
v -1.00000000 3.50000000 1.97474487
v 0.09199166 3.50000000 2.39974180
v -1.00000000 3.50000000 2.94948974
v 0.48954132 3.50000000 -0.01628486
v -1.00000000 3.50000000 -2.94948974
v 0.05633719 3.50000000 -2.46060298
v -1.00000000 3.50000000 -1.97474487
v 0.00509359 3.50000000 -1.52096018
v -0.12132888 3.50000000 -3.41905367
v -0.12132888 3.50000000 3.41905367
v 0.05076880 3.50000000 0.82963844
v -0.60074511 3.50000000 -4.44829007
v 0.03615444 3.50000000 -4.35960866
v 0.03615444 3.50000000 4.35960866
v -0.60074511 3.50000000 4.44829007
v 0.41636764 3.50000000 3.83769112
v 0.41636764 3.50000000 -3.83769112
v -2.44260381 3.50000000 -0.12204781
v 2.44260381 3.50000000 0.12204781
v -0.49531647 3.50000000 0.02560960
v 1.97474487 3.50000000 -1.00000000
v 2.94106906 3.50000000 -0.35514439
v -1.97474487 3.50000000 1.00000000
v -2.94106906 3.50000000 0.35514439
v -1.00000000 3.50000000 1.00000000
v 4.36106990 3.50000000 -0.03050284
v 4.42007707 3.50000000 0.57747101
v 3.52650937 3.50000000 0.25183482
v -4.36106990 3.50000000 0.03050284
v -4.42007707 3.50000000 -0.57747101
v -3.52650937 3.50000000 -0.25183482
v -0.24179398 3.50000000 1.56282361
v -1.00000000 3.50000000 -3.92423461
v -1.00000000 3.50000000 3.92423461
v -0.00013631 3.50000000 -0.70232709
v 2.94948974 3.50000000 -1.00000000
v -2.94948974 3.50000000 1.00000000
v 4.89897949 3.50000000 -1.00000000
v 4.40570387 3.50000000 -0.54094214
v 3.92423461 3.50000000 -1.00000000
v -1.00000000 3.50000000 -4.89897949
v 0.54195091 3.50000000 -4.40721983
v -4.89897949 3.50000000 1.00000000
v -4.40570387 3.50000000 0.54094214
v -3.92423461 3.50000000 1.00000000
v 0.54195091 3.50000000 4.40721983
v -1.00000000 3.50000000 4.89897949
v -3.68706724 3.50000000 0.44023752
v 3.68706724 3.50000000 -0.44023752
v 0.44262326 3.50000000 1.52105474
v 0.33534461 3.50000000 -4.98874172
v -0.33534461 3.50000000 -4.98874172
v 4.98874172 3.50000000 0.33534461
v 4.98874172 3.50000000 -0.33534461
v -4.98874172 3.50000000 -0.33534461
v -4.98874172 3.50000000 0.33534461
v -0.33534461 3.50000000 4.98874172
v 0.33534461 3.50000000 4.98874172
v -2.58218243 6.02846684 1.00000000
v -3.39888581 5.69959087 1.00000000
v -2.94945573 5.17197467 1.00000000
v -3.31301273 7.46111907 1.00000000
v -2.49654729 7.79101719 1.00000000
v -2.94948974 8.32623319 1.00000000
v -2.27923592 5.27772810 1.00000000
v -3.61893440 8.22203544 1.00000000
v -3.34653012 6.43544082 1.00000000
v -2.53927357 7.02938467 1.00000000
v -1.90629690 8.51087816 1.00000000
v -2.46621227 9.22743674 1.00000000
v -3.99233720 4.99022251 1.00000000
v -3.42933186 4.28527848 1.00000000
v -3.45698556 9.08187122 1.00000000
v -2.94948974 10.00000000 1.00000000
v -2.44171386 4.42757979 1.00000000
v -3.92423461 10.00000000 1.00000000
v -1.97474487 10.00000000 1.00000000
v -4.89897949 7.21428571 1.00000000
v -4.13470724 6.75727838 1.00000000
v -4.17163405 7.67182078 1.00000000
v -4.89897949 6.28571429 1.00000000
v -1.00000000 7.21428571 1.00000000
v -1.76421449 6.74260818 1.00000000
v -1.00000000 6.28571429 1.00000000
v -4.89897949 5.35714286 1.00000000
v -4.12392359 5.87184953 1.00000000
v -1.72739126 5.82817820 1.00000000
v -1.00000000 5.35714286 1.00000000
v -1.77466353 7.62747088 1.00000000
v -4.89897949 8.14285714 1.00000000
v -1.00000000 8.14285714 1.00000000
v -4.89897949 4.42857143 1.00000000
v -4.20354995 8.56913296 1.00000000
v -4.89897949 9.07142857 1.00000000
v -1.69543632 4.93244102 1.00000000
v -1.00000000 4.42857143 1.00000000
v -1.00000000 9.07142857 1.00000000
v -1.68161352 4.18164678 1.00000000
v -4.89897949 10.00000000 1.00000000
v -4.21735174 9.31892720 1.00000000
v -1.70245899 9.30993250 1.00000000
v -1.00000000 10.00000000 1.00000000
v -4.19833226 4.18816565 1.00000000
v 1.91301034 8.46454403 -1.00000000
v 1.91283416 5.03591764 -1.00000000
v 1.72083923 9.29063830 -1.00000000
v 1.72083923 4.20936170 -1.00000000
v 3.43989232 4.26770922 -1.00000000
v 2.99728870 5.04957847 -1.00000000
v 4.00177504 4.96971141 -1.00000000
v 2.99696311 8.45192696 -1.00000000
v 3.43965596 9.23387232 -1.00000000
v 4.00189551 8.53128178 -1.00000000
v 3.45036169 5.62335707 -1.00000000
v 3.44997806 7.87746697 -1.00000000
v 2.50486793 4.31674537 -1.00000000
v 2.50369893 9.18436505 -1.00000000
v 2.56008161 5.91398081 -1.00000000
v 2.94948974 10.00000000 -1.00000000
v 2.56024480 7.58651746 -1.00000000
v 1.97474487 10.00000000 -1.00000000
v 3.92423461 10.00000000 -1.00000000
v 4.89897949 7.21428571 -1.00000000
v 4.89897949 6.28571429 -1.00000000
v 4.10327473 6.75004922 -1.00000000
v 4.13006663 7.62925697 -1.00000000
v 1.86015020 6.75015655 -1.00000000
v 4.89897949 5.35714286 -1.00000000
v 4.13040307 5.87155332 -1.00000000
v 4.89897949 8.14285714 -1.00000000
v 4.89897949 9.07142857 -1.00000000
v 4.89897949 4.42857143 -1.00000000
v 2.71697718 6.75151668 -1.00000000
v 3.37566459 6.35395102 -1.00000000
v 3.38397763 7.15795360 -1.00000000
v 1.69174543 7.59676199 -1.00000000
v 1.69076621 5.90266165 -1.00000000
v 4.19652049 4.19006750 -1.00000000
v 4.89897949 10.00000000 -1.00000000
v 4.19864585 9.31216354 -1.00000000
v 1.90480091 10.00000000 -2.54451032
v 1.87569005 10.00000000 -3.60450766
v 2.45346768 10.00000000 -1.77219555
v 3.43974713 10.00000000 -1.95983484
v 2.62567522 10.00000000 -3.19395415
v 4.61298318 10.00000000 -1.92883027
v 2.74676596 10.00000000 -2.44333615
v 1.92883027 10.00000000 -4.61298318
v 2.78478782 10.00000000 -4.15270476
v 3.53553391 10.00000000 -3.53553391
v 4.15270476 10.00000000 -2.78478782
v 3.31013888 10.00000000 -2.74618592
v 1.70859981 10.00000000 -1.70859981
v -1.90480091 10.00000000 2.54451032
v -1.00000000 10.00000000 2.94948974
v -1.87569005 10.00000000 3.60450766
v -2.45346768 10.00000000 1.77219555
v -3.43974713 10.00000000 1.95983484
v -2.62567522 10.00000000 3.19395415
v -4.61298318 10.00000000 1.92883027
v -2.74676596 10.00000000 2.44333615
v -1.00000000 10.00000000 4.89897949
v -1.92883027 10.00000000 4.61298318
v -1.00000000 10.00000000 3.92423461
v -2.78478782 10.00000000 4.15270476
v -3.53553391 10.00000000 3.53553391
v -4.15270476 10.00000000 2.78478782
v -3.31013888 10.00000000 2.74618592
v -1.00000000 10.00000000 1.97474487
v -1.70859981 10.00000000 1.70859981
v -1.00000000 5.03545597 1.91301034
v -1.00000000 8.46408236 1.91283416
v -1.00000000 4.20936170 1.72083923
v -1.00000000 9.29063830 1.72083923
v -1.00000000 9.23229078 3.43989232
v -1.00000000 8.45042153 2.99728870
v -1.00000000 8.53028859 4.00177504
v -1.00000000 5.04807304 2.99696311
v -1.00000000 4.26612768 3.43965596
v -1.00000000 4.96871822 4.00189551
v -1.00000000 7.87664293 3.45036169
v -1.00000000 5.62253303 3.44997806
v -1.00000000 9.18325463 2.50486793
v -1.00000000 4.31563495 2.50369893
v -1.00000000 5.91348254 2.56024480
v -1.00000000 7.58601919 2.56008161
v -1.00000000 6.28571429 4.89897949
v -1.00000000 7.21428571 4.89897949
v -1.00000000 6.74995078 4.10327473
v -1.00000000 6.74984345 1.86015020
v -1.00000000 7.62844668 4.13040307
v -1.00000000 5.35714286 4.89897949
v -1.00000000 5.87074303 4.13006663
v -1.00000000 8.14285714 4.89897949
v -1.00000000 4.42857143 4.89897949
v -1.00000000 9.07142857 4.89897949
v -1.00000000 6.74848332 2.71697718
v -1.00000000 7.14604898 3.37566459
v -1.00000000 6.34204640 3.38397763
v -1.00000000 5.90323801 1.69174543
v -1.00000000 7.59733835 1.69076621
v -1.00000000 9.30993250 4.19652049
v -1.00000000 4.18783646 4.19864585
v -1.00000000 5.35714286 -4.89897949
v -1.00000000 4.42857143 -4.89897949
v -1.00000000 5.03545597 -3.98596914
v -1.00000000 9.07142857 -4.89897949
v -1.00000000 8.14285714 -4.89897949
v -1.00000000 8.46408236 -3.98614532
v -1.00000000 4.20936170 -4.17814025
v -1.00000000 9.29063830 -4.17814025
v -1.00000000 9.23229078 -2.45908716
v -1.00000000 8.45042153 -2.90169078
v -1.00000000 8.53028859 -1.89720445
v -1.00000000 5.04807304 -2.90201637
v -1.00000000 4.26612768 -2.45932352
v -1.00000000 4.96871822 -1.89708397
v -1.00000000 7.87664293 -2.44861780
v -1.00000000 5.62253303 -2.44900142
v -1.00000000 9.18325463 -3.39411156
v -1.00000000 10.00000000 -2.94948974
v -1.00000000 4.31563495 -3.39528056
v -1.00000000 5.91348254 -3.33873469
v -1.00000000 7.58601919 -3.33889788
v -1.00000000 10.00000000 -3.92423461
v -1.00000000 10.00000000 -1.97474487
v -1.00000000 7.21428571 -4.89897949
v -1.00000000 6.28571429 -4.89897949
v -1.00000000 6.74984345 -4.03882929
v -1.00000000 5.87074303 -1.76891285
v -1.00000000 7.62844668 -1.76857641
v -1.00000000 6.74995078 -1.79570476
v -1.00000000 6.74848332 -3.18200231
v -1.00000000 10.00000000 -4.89897949
v -1.00000000 7.14604898 -2.52331490
v -1.00000000 6.34204640 -2.51500185
v -1.00000000 5.90323801 -4.20723406
v -1.00000000 7.59733835 -4.20821327
v -1.00000000 9.30993250 -1.70245899
v -1.00000000 4.18783646 -1.70033363
v -2.54424821 10.00000000 -1.90404794
v -3.60447646 10.00000000 -1.87560041
v -3.19395415 10.00000000 -2.62567522
v -1.77020326 10.00000000 -2.44949717
v -1.95922308 10.00000000 -3.43890048
v -1.92883027 10.00000000 -4.61298318
v -4.61298318 10.00000000 -1.92883027
v -2.44239610 10.00000000 -2.74553256
v -2.78478782 10.00000000 -4.15270476
v -4.15270476 10.00000000 -2.78478782
v -3.53553391 10.00000000 -3.53553391
v -2.74435183 10.00000000 -3.30954200
v -1.70859981 10.00000000 -1.70859981
v 1.90404794 10.00000000 2.54424821
v 1.87560041 10.00000000 3.60447646
v 2.62567522 10.00000000 3.19395415
v 2.44949717 10.00000000 1.77020326
v 3.43890048 10.00000000 1.95922308
v 4.61298318 10.00000000 1.92883027
v 1.92883027 10.00000000 4.61298318
v 2.74553256 10.00000000 2.44239610
v 4.15270476 10.00000000 2.78478782
v 3.53553391 10.00000000 3.53553391
v 2.78478782 10.00000000 4.15270476
v 3.30954200 10.00000000 2.74435183
v 1.70859981 10.00000000 1.70859981
v -3.19611715 13.64675512 1.21902102
v -3.97604912 12.91741789 0.82444301
v -3.70711564 12.85479256 1.76279694
v -3.46184652 11.71305184 3.17507040
v -3.34156126 12.62494839 2.63507387
v -3.90268895 12.11667932 2.29971469
v -1.82753373 11.29124743 -4.47133096
v -1.37377223 10.54182989 -4.77694151
v -3.51974754 13.47329847 -0.73998307
v -3.40782836 13.64384543 0.33029739
v -2.91817576 14.03247990 -0.47260560
v 3.66363972 12.77085687 -1.97486612
v 3.96658504 12.86352345 -1.03268418
v 4.28155478 12.14471548 -1.43822257
v -3.98184696 11.43505469 2.66186267
v -2.62514475 10.84282288 -4.17112271
v -3.42969974 11.96597463 -3.06138914
v -3.80024839 10.83195261 -3.14101370
v -4.07855387 11.69766507 -2.34165147
v -4.73322605 11.61136536 0.00853131
v -4.89001634 11.00490882 -0.27910297
v -4.91187057 10.78471948 0.50768376
v -0.05570171 12.87444492 4.09077789
v -0.69435767 13.20251394 3.77647612
v -1.18006439 12.46944814 4.18440843
v -4.66621886 11.45533403 1.05280788
v 4.92152144 10.58039632 0.66465539
v 4.78981645 11.32635956 0.54628625
v 4.66744386 11.27479651 1.26089717
v 4.44425414 12.05302190 1.01671342
v 4.51314237 12.14196568 0.20863591
v 4.77729221 10.57800628 1.35771421
v -3.90831049 13.11735781 -0.08479049
v 3.30522342 11.55474901 3.41441849
v 3.23592039 12.30240868 3.03771847
v 2.51487307 12.18381694 3.72912282
v -4.74857863 10.67896827 -1.41067468
v -4.50614939 11.47458115 -1.58752263
v -4.39588481 10.80095645 -2.24380603
v 4.78861979 11.41224295 -0.27329534
v 3.36014470 13.41888607 -1.42149415
v 4.50393741 11.00431095 1.92507332
v 0.00000000 10.00000000 -5.00000000
v 0.94935206 10.92527224 -4.82105818
v -0.83772091 10.93799212 -4.83925557
v 4.95342411 10.67960994 0.04147149
v 2.64971814 12.84897771 3.14043306
v -3.14127831 13.33077273 2.00955805
v -2.83554051 12.48154793 3.28658331
v -3.15859347 11.27737089 -3.65945500
v 3.98067106 11.54564418 2.60100788
v 4.00074002 12.09203331 -2.14883129
v 3.74882900 12.34284473 2.33609925
v -4.75998107 11.21456620 -0.93134802
v -4.34590840 12.47220980 -0.03548055
v 4.09672337 12.86153250 -0.16878810
v 4.46043577 12.16927562 -0.63147135
v -2.75362014 14.15671428 0.37323251
v -0.93628949 12.58503681 -4.17623595
v -0.95447602 11.74406192 -4.58772531
v -1.88314659 12.24157435 -4.05328303
v -2.15448273 13.08926016 3.28856745
v -2.78714810 13.20322139 2.64029889
v -0.57250532 14.75959470 1.42073781
v -1.04044835 14.47801344 1.96592545
v -0.28068388 14.42030575 2.31993828
v 4.70933466 10.73706922 -1.50960128
v 4.36897871 10.76945463 -2.30650485
v 4.39608020 11.46820410 -1.87586129
v 0.59598877 11.08605738 4.84409710
v 1.36322895 11.48241255 4.57646806
v 0.67802344 12.14591687 4.46489922
v -4.98874172 10.00000000 0.33534461
v 4.90108802 10.71095741 -0.68838634
v 4.98874172 10.00000000 -0.33534461
v 0.12499179 14.69404651 1.71764503
v 4.25072750 10.67617429 2.54442608
v -4.70736294 10.73902555 1.51478560
v -0.10435022 11.53779791 4.75649962
v -4.51355719 11.97621575 -0.84992520
v -3.16788576 10.82821481 3.77869819
v -3.81752598 10.78470678 3.13220859
v -4.47151514 12.13257014 0.67653304
v -4.33888430 10.75142517 2.36842631
v 2.70538911 11.38695697 3.96953651
v -4.38384188 11.45660633 1.91317232
v -1.52021380 14.76270570 0.07472907
v -1.47678333 14.65033380 1.09247725
v -0.74459789 14.91745574 0.51400683
v 3.80746466 10.84032024 3.13002791
v -3.14758916 10.55452594 -3.84515065
v -2.44967214 11.57286244 -4.06512117
v 4.27139295 11.85252357 1.82300814
v 3.98510946 12.60443998 1.52833079
v 4.08439203 12.80110270 0.68670622
v 3.56325626 13.29630132 1.19900058
v 3.60225396 13.45257576 0.32169405
v 2.30379383 14.22905690 1.34447451
v 3.00723406 13.90723775 0.83068434
v 2.34305027 14.39619804 0.42843691
v 2.44902706 10.80340937 4.28448361
v 2.06376059 11.55830382 4.27932020
v 1.57554059 10.75245143 4.68524158
v 2.99424264 14.00370387 -0.06975894
v 3.53950982 13.48697484 -0.55935379
v 4.66438147 11.45083917 -1.06705727
v -4.13174106 12.29794240 -1.62732187
v 3.83058254 10.80392710 -3.11132425
v -2.13826373 14.49442776 0.47743825
v 0.00000000 10.00000000 5.00000000
v -0.49514835 10.85468398 4.90146339
v 3.15707015 10.82417503 -3.78862027
v 2.99125820 12.86187147 -2.80393760
v 3.55385595 12.18485640 -2.75617678
v 2.89035128 12.18164373 -3.44765140
v 2.92928539 13.67478964 1.70739807
v -3.02213930 13.30325427 -2.22602455
v -2.35203036 13.93355795 -1.99876839
v -2.29477841 13.44042344 -2.81024530
v -2.12789101 12.41449320 3.82652616
v -2.67665686 11.63258063 3.89489262
v -1.61149530 14.41375261 -1.70934805
v -1.58825307 13.99907059 -2.54654405
v 1.59231397 14.65083396 0.91338914
v 1.59907875 14.73738854 -0.00984540
v 1.55006997 14.66776603 -0.89957953
v 0.80032106 14.91389037 -0.46170079
v 0.82206270 14.91125093 0.45147233
v 1.57087932 14.03672503 -2.49743652
v 2.26517715 13.98057359 -2.00599260
v 2.31701841 13.51015805 -2.70374114
v 2.03339780 13.42313152 3.02447748
v 2.79825092 13.31119053 2.49114614
v 2.20251556 13.90083517 2.22090300
v -1.85302249 11.68329528 4.32814333
v -0.82254223 14.41032330 -2.20736782
v -1.79396679 14.25528247 1.91683444
v -2.35268253 14.25745761 1.15712558
v -2.57795494 13.82676724 1.92613623
v -1.13039287 14.10671141 2.61861286
v -2.00492269 13.72151568 2.67031946
v -0.82998448 14.74913421 -1.32546219
v -0.02462648 14.66312044 -1.80407908
v -2.33433626 10.84032024 4.34105242
v 0.47708806 13.97301345 2.99792446
v -0.44363044 13.80513802 3.21311635
v 0.00772458 14.99998154 0.01117844
v -0.02204237 14.91757547 -0.90386152
v -3.59079240 12.56149136 -2.35477642
v -2.91649252 12.75342366 -2.98541949
v -2.30856043 14.27663906 -1.17512003
v -1.33920612 13.52354123 3.28499379
v -0.30862564 12.24359139 4.45769536
v -4.25620477 12.19376034 1.43949175
v 4.98874172 10.00000000 0.33534461
v 2.33433626 10.84032024 -4.34105242
v -4.98874172 10.00000000 -0.33534461
v -4.92152144 10.58039632 -0.66465539
v -0.01651861 14.25110567 -2.63207669
v -4.06068540 12.79166553 -0.84701693
v 2.26388688 12.88345442 -3.40007453
v -1.45045156 10.84032024 4.71063182
v 0.25142259 13.37245588 3.68284239
v 0.77379683 14.43236398 -2.18068523
v -0.81630245 14.91459000 -0.42480042
v 1.55242282 13.47470421 -3.24290210
v 3.13996994 10.74267217 3.81955846
v 1.62654393 12.21164658 4.17887237
v 0.93213613 12.77415485 4.05403343
v 1.37380815 14.02381867 2.63088093
v 1.16536790 13.45803548 3.41817324
v 0.78289495 13.93545428 -2.98316529
v -0.12859971 12.17655345 -4.49956411
v -0.08370928 12.99383424 -4.00374191
v 2.94652861 13.41097655 -2.16407211
v 1.51582903 14.40382914 1.81894234
v 0.65480625 14.42467889 2.23460187
v -0.89040232 11.63351791 4.64099159
v -1.51762527 13.46951385 -3.26485637
v 1.83464670 12.86003776 3.66800429
v -2.20000338 12.87606816 -3.44792939
v 2.91650980 13.95985642 -0.90194663
v -2.71494615 12.12574262 -3.62081285
v -1.57339060 14.67337257 -0.82706155
v 0.73805555 13.30593423 -3.67778097
v 2.11214496 12.15563570 -3.98648698
v -0.80405561 13.92138755 -2.99603308
v 0.71711254 12.54436543 -4.24404926
v 0.67886034 11.67714257 -4.66115237
v 1.45987844 12.78929791 -3.88440113
v -0.02653992 13.68795182 -3.37613788
v 2.30041462 14.41666323 -0.44852929
v 0.80228499 14.74687556 1.35037446
v -2.99835255 13.74185390 -1.41718429
v 0.77628241 14.75403593 -1.34034624
v -4.97495344 10.49042194 -0.09656379
v -3.61897198 13.07952477 -1.55549639
v 1.52387942 14.43727891 -1.72868372
v -2.23153116 14.46592451 -0.27529436
v -1.48703683 12.98804029 3.72294732
v -0.19625019 11.55133347 -4.74919470
v 1.45518401 11.98067492 -4.35423545
v 1.62709538 11.25906945 -4.55711583
v -0.74255690 13.34448063 -3.64184823
v 0.07377377 14.91433609 0.91861756
v 3.42790252 13.04318849 1.99711995
v 3.42429306 11.51071430 -3.31541240
v 4.00113926 11.49891574 -2.59694749
v -1.47903915 12.94308907 -3.76173762
v 1.56713182 10.59149514 -4.71107539
v 2.72716279 11.52264786 -3.90437275
v 2.26610499 14.27256310 -1.26884702
v 3.21620331 12.80602347 2.60427890
v 2.81937253 13.81167071 -1.58817660
v 0.05646523 10.96638191 -4.90539679
v 2.12357558 11.54753070 -4.25388945
v 4.99996577 9.44317673 -0.01850071
v 4.96582464 9.51006943 0.58359720
v 4.99484531 8.56344655 0.22698084
v 4.99484531 4.93655345 0.22698084
v 4.96582464 3.98993057 0.58359720
v 4.99996577 4.05682327 -0.01850071
v 4.97734088 4.89285714 -0.47547633
v 4.97591430 5.82390348 -0.49018046
v 4.97591430 7.68104634 -0.49018046
v 4.97734088 8.60714286 -0.47547633
v 4.99593009 5.82142857 0.20169915
v 4.99593009 7.67857143 0.20169915
v 4.96429662 3.98682277 -0.59645544
v 4.96429662 9.51317723 -0.59645544
v 4.99593009 6.75000000 -0.20169915
v 4.97591430 6.74752509 0.49018046
v 0.22698084 4.93655345 -4.99484531
v 0.58359720 3.98993057 -4.96582464
v -0.01850071 4.05682327 -4.99996577
v -0.47547633 4.89285714 -4.97734088
v -0.49018046 5.82390348 -4.97591430
v 0.20169915 5.82142857 -4.99593009
v -0.59645544 3.98682277 -4.96429662
v 0.20169915 7.67857143 -4.99593009
v -0.20169915 8.60714286 -4.99593009
v -0.20169915 6.75000000 -4.99593009
v 0.49018046 6.74752509 -4.97591430
v -0.49018046 7.68104634 -4.97591430
v 0.49018046 8.60466795 -4.97591430
v -0.31776468 9.33488842 -4.98989234
v 0.38517750 9.40766238 -4.98514175
v -4.99484531 4.93655345 -0.22698084
v -4.96582464 3.98993057 -0.58359720
v -4.99996577 4.05682327 0.01850071
v -4.99996595 9.44319943 0.01845214
v -4.96582421 9.51007224 -0.58360085
v -4.99484531 8.56344655 -0.22698084
v -4.97734088 4.89285714 0.47547633
v -4.97591430 5.82390348 0.49018046
v -4.97591430 7.68104634 0.49018046
v -4.97734088 8.60714286 0.47547633
v -4.99593009 5.82142857 -0.20169915
v -4.99593009 7.67857143 -0.20169915
v -4.96429032 9.51328694 0.59650785
v -4.96429662 3.98682277 0.59645544
v -4.99593009 6.75000000 0.20169915
v -4.97591430 6.74752509 -0.49018046
v -0.01839854 4.05682327 4.99996615
v 0.58355045 3.99003708 4.96583013
v 0.22698084 4.93655345 4.99484531
v -0.49018046 5.81895366 4.97591430
v -0.47547633 4.89285714 4.97734088
v 0.20169915 5.82142857 4.99593009
v 0.20180791 7.67875935 4.99592570
v -0.49018046 8.60466795 4.97591430
v -0.49011735 7.67609480 4.97592052
v 0.20169915 8.60714286 4.99593009
v -0.59650368 3.98671579 4.96429082
v -0.20169915 6.75000000 4.99593009
v 0.49018046 6.75247491 4.97591430
v 0.31776468 9.33488842 4.98989234
v -0.38517750 9.40766238 4.98514175
f 1 2 3
f 4 5 6
f 3 2 7
f 4 6 8
f 9 10 11
f 12 13 14
f 11 10 15
f 12 14 16
f 9 17 10
f 18 17 9
f 19 13 12
f 10 17 6
f 19 12 3
f 10 6 20
f 19 21 13
f 3 12 22
f 18 23 17
f 24 21 19
f 25 18 9
f 21 26 13
f 27 28 29
f 30 31 32
f 33 34 35
f 30 32 36
f 34 30 36
f 35 34 36
f 37 33 14
f 31 38 11
f 10 20 15
f 22 12 16
f 2 39 7
f 40 4 8
f 29 22 41
f 39 24 7
f 23 40 8
f 20 29 41
f 36 32 42
f 35 36 43
f 1 3 44
f 6 5 45
f 36 42 43
f 20 42 15
f 33 35 14
f 43 22 16
f 22 29 44
f 29 20 45
f 6 17 8
f 32 31 11
f 19 3 7
f 46 25 47
f 38 46 47
f 26 48 49
f 48 37 49
f 28 1 44
f 5 27 45
f 27 29 45
f 29 28 44
f 14 35 16
f 32 11 15
f 20 6 45
f 3 22 44
f 43 42 41
f 13 26 49
f 24 19 7
f 17 23 8
f 42 20 41
f 25 9 47
f 22 43 41
f 11 38 47
f 37 14 49
f 14 13 49
f 9 11 47
f 42 32 15
f 35 43 16
f 50 51 52
f 53 54 55
f 52 56 50
f 55 57 53
f 52 51 58
f 55 54 59
f 60 61 53
f 62 63 50
f 61 54 53
f 63 51 50
f 59 52 58
f 58 55 59
f 60 53 64
f 65 60 64
f 62 50 66
f 62 66 67
f 65 64 68
f 69 62 67
f 70 60 65
f 67 66 71
f 72 73 74
f 75 73 72
f 76 77 78
f 79 77 76
f 80 81 75
f 81 73 75
f 78 77 82
f 78 82 83
f 84 79 76
f 72 74 85
f 77 58 82
f 73 59 74
f 86 87 80
f 85 61 88
f 89 90 84
f 83 63 91
f 50 56 66
f 53 57 64
f 80 87 81
f 84 90 79
f 74 61 85
f 82 63 83
f 77 55 58
f 73 52 59
f 92 93 70
f 68 94 95
f 96 97 69
f 71 98 99
f 95 94 89
f 88 93 92
f 91 97 96
f 66 56 87
f 99 98 86
f 64 57 90
f 82 51 63
f 74 54 61
f 81 52 73
f 79 55 77
f 81 56 52
f 79 57 55
f 66 98 71
f 69 97 62
f 64 94 68
f 70 93 60
f 89 94 90
f 61 93 88
f 63 97 91
f 86 98 87
f 58 51 82
f 59 54 74
f 87 98 66
f 62 97 63
f 60 93 61
f 90 94 64
f 87 56 81
f 90 57 79
f 100 101 102
f 103 104 105
f 101 106 102
f 103 107 104
f 108 109 110
f 111 112 113
f 109 114 110
f 111 115 112
f 108 110 116
f 117 108 116
f 118 111 113
f 110 104 116
f 118 101 111
f 101 119 111
f 118 113 120
f 110 121 104
f 117 116 122
f 123 118 120
f 124 108 117
f 120 113 125
f 126 127 128
f 129 130 131
f 129 131 132
f 133 134 135
f 135 130 129
f 134 130 135
f 136 112 133
f 132 109 137
f 110 114 121
f 119 115 111
f 127 138 119
f 139 107 103
f 102 106 140
f 122 107 139
f 140 106 123
f 130 141 131
f 134 142 130
f 121 138 127
f 100 143 101
f 130 142 141
f 104 144 105
f 121 114 141
f 142 115 119
f 133 112 134
f 119 143 127
f 127 144 121
f 104 107 116
f 131 109 132
f 118 106 101
f 145 146 124
f 137 146 145
f 125 147 148
f 148 147 136
f 128 143 100
f 105 144 126
f 127 143 128
f 126 144 127
f 112 115 134
f 131 114 109
f 101 143 119
f 121 144 104
f 142 138 141
f 113 147 125
f 116 107 122
f 123 106 118
f 119 138 142
f 124 146 108
f 141 138 121
f 109 146 137
f 136 147 112
f 112 147 113
f 108 146 109
f 134 115 142
f 141 114 131
f 105 149 103
f 102 150 100
f 149 151 103
f 102 152 150
f 153 154 155
f 156 157 158
f 154 159 155
f 156 160 157
f 153 155 161
f 162 153 161
f 163 156 158
f 155 150 161
f 163 149 156
f 155 164 150
f 163 158 165
f 149 166 156
f 167 163 165
f 162 161 168
f 169 153 162
f 165 158 170
f 171 172 173
f 174 172 171
f 175 176 174
f 128 177 126
f 171 173 178
f 176 172 174
f 179 157 175
f 178 154 180
f 155 159 164
f 166 160 156
f 140 152 102
f 103 151 139
f 177 181 166
f 168 152 140
f 139 151 167
f 164 181 177
f 172 182 173
f 176 183 172
f 105 184 149
f 150 185 100
f 172 183 182
f 164 159 182
f 175 157 176
f 183 160 166
f 166 184 177
f 177 185 164
f 150 152 161
f 173 154 178
f 163 151 149
f 186 187 169
f 180 187 186
f 170 188 189
f 189 188 179
f 126 184 105
f 100 185 128
f 128 185 177
f 177 184 126
f 157 160 176
f 173 159 154
f 164 185 150
f 149 184 166
f 183 181 182
f 158 188 170
f 161 152 168
f 167 151 163
f 182 181 164
f 169 187 153
f 166 181 183
f 154 187 180
f 179 188 157
f 157 188 158
f 153 187 154
f 182 159 173
f 176 160 183
f 46 190 25
f 139 191 122
f 192 193 194
f 139 195 191
f 196 197 198
f 99 199 71
f 196 200 197
f 193 201 194
f 139 202 195
f 200 203 204
f 205 206 201
f 165 207 201
f 200 208 67
f 190 209 25
f 191 210 122
f 197 199 198
f 46 211 190
f 165 201 193
f 197 200 67
f 212 213 210
f 214 215 209
f 216 211 202
f 214 209 190
f 212 210 191
f 217 218 219
f 220 221 222
f 71 199 197
f 192 223 193
f 190 211 216
f 224 203 200
f 201 206 225
f 99 226 199
f 227 213 212
f 228 215 214
f 219 218 124
f 222 221 23
f 202 211 195
f 229 230 231
f 232 203 224
f 124 218 145
f 69 233 96
f 23 221 40
f 234 235 236
f 189 237 170
f 225 206 238
f 18 209 222
f 117 210 219
f 224 200 196
f 194 201 225
f 67 208 69
f 170 207 165
f 239 215 228
f 240 213 227
f 25 209 18
f 122 210 117
f 236 239 228
f 231 240 227
f 198 199 46
f 202 223 216
f 18 222 23
f 117 219 124
f 204 208 200
f 201 207 205
f 216 223 192
f 212 191 99
f 214 190 216
f 191 195 99
f 71 197 67
f 165 193 167
f 195 226 99
f 199 226 46
f 46 226 211
f 219 240 217
f 222 239 220
f 193 241 167
f 223 241 193
f 139 241 202
f 211 226 195
f 242 204 243
f 244 217 245
f 246 220 247
f 248 205 249
f 210 213 219
f 209 215 222
f 245 230 229
f 249 237 189
f 40 221 246
f 96 233 242
f 145 218 244
f 238 206 248
f 243 203 232
f 247 235 234
f 202 241 223
f 167 241 139
f 222 215 239
f 219 213 240
f 204 203 243
f 217 230 245
f 242 233 204
f 244 218 217
f 205 237 249
f 220 235 247
f 246 221 220
f 248 206 205
f 217 240 230
f 220 239 235
f 205 207 237
f 233 208 204
f 69 208 233
f 237 207 170
f 235 239 236
f 230 240 231
f 250 251 252
f 253 254 255
f 252 256 250
f 255 257 253
f 258 251 250
f 259 254 253
f 255 260 261
f 252 262 263
f 255 254 260
f 252 251 262
f 258 250 259
f 259 253 258
f 264 255 261
f 265 264 261
f 266 252 263
f 266 263 228
f 267 264 265
f 265 261 268
f 214 266 228
f 228 263 236
f 269 270 271
f 272 270 269
f 273 274 275
f 276 277 272
f 275 278 279
f 275 274 278
f 277 270 272
f 280 274 273
f 269 271 281
f 282 280 273
f 277 258 270
f 280 259 274
f 283 262 276
f 281 284 285
f 279 286 287
f 288 260 282
f 264 257 255
f 266 256 252
f 276 262 277
f 282 260 280
f 271 284 281
f 278 286 279
f 258 253 270
f 259 250 274
f 216 289 214
f 290 291 267
f 268 292 293
f 236 294 234
f 293 292 288
f 285 291 290
f 287 289 216
f 234 294 283
f 284 257 264
f 286 256 266
f 262 251 277
f 260 254 280
f 274 250 278
f 270 253 271
f 250 256 278
f 253 257 271
f 263 294 236
f 261 292 268
f 214 289 266
f 267 291 264
f 288 292 260
f 284 291 285
f 286 289 287
f 283 294 262
f 277 251 258
f 280 254 259
f 262 294 263
f 266 289 286
f 264 291 284
f 260 292 261
f 278 256 286
f 271 257 284
f 85 88 295
f 86 80 296
f 295 88 297
f 86 296 298
f 299 300 301
f 302 303 304
f 301 300 305
f 302 304 306
f 299 307 300
f 227 307 299
f 308 303 302
f 300 307 296
f 308 302 295
f 300 296 309
f 308 310 303
f 295 302 311
f 227 212 307
f 312 310 308
f 231 227 299
f 310 313 303
f 314 315 316
f 317 314 316
f 75 72 318
f 315 319 320
f 315 320 316
f 321 314 317
f 322 321 304
f 319 323 301
f 300 309 305
f 311 302 306
f 88 92 297
f 99 86 298
f 318 311 324
f 92 312 297
f 212 99 298
f 309 318 324
f 316 320 325
f 317 316 326
f 85 295 327
f 296 80 328
f 316 325 326
f 309 325 305
f 321 317 304
f 326 311 306
f 311 318 327
f 318 309 328
f 296 307 298
f 320 319 301
f 308 295 297
f 229 231 329
f 323 229 329
f 313 330 331
f 330 322 331
f 72 85 327
f 80 75 328
f 75 318 328
f 318 72 327
f 304 317 306
f 320 301 305
f 309 296 328
f 295 311 327
f 326 325 324
f 303 313 331
f 312 308 297
f 307 212 298
f 325 309 324
f 231 299 329
f 311 326 324
f 301 323 329
f 322 304 331
f 304 303 331
f 299 301 329
f 325 320 305
f 317 326 306
f 332 65 333
f 310 334 335
f 336 332 333
f 313 310 335
f 337 313 335
f 335 334 338
f 337 330 313
f 95 339 68
f 65 68 333
f 68 339 333
f 310 312 334
f 340 341 336
f 342 337 335
f 343 335 338
f 332 336 338
f 339 340 333
f 340 336 333
f 70 65 332
f 312 92 344
f 92 70 344
f 341 342 343
f 336 341 343
f 342 335 343
f 334 312 344
f 334 332 338
f 332 334 344
f 70 332 344
f 336 343 338
f 345 346 347
f 265 348 349
f 350 345 347
f 267 265 349
f 351 267 349
f 349 348 352
f 353 354 355
f 351 290 267
f 346 355 347
f 355 354 347
f 265 268 348
f 356 357 350
f 358 351 349
f 359 349 352
f 345 350 352
f 354 356 347
f 356 350 347
f 360 346 345
f 268 293 361
f 293 360 361
f 357 358 359
f 350 357 359
f 358 349 359
f 348 268 361
f 348 345 352
f 345 348 361
f 360 345 361
f 350 359 352
f 279 287 362
f 288 282 363
f 362 287 364
f 288 363 365
f 366 367 368
f 369 370 371
f 368 367 372
f 369 371 373
f 366 374 367
f 346 374 366
f 375 370 369
f 367 374 363
f 375 369 362
f 362 369 376
f 375 194 370
f 367 363 377
f 192 194 375
f 346 360 374
f 355 346 366
f 194 225 370
f 378 379 380
f 273 275 381
f 379 382 380
f 383 378 384
f 384 378 380
f 379 385 382
f 386 383 371
f 385 387 368
f 367 377 372
f 376 369 373
f 381 376 388
f 287 216 364
f 293 288 365
f 360 293 365
f 216 192 364
f 380 382 389
f 384 380 390
f 377 381 388
f 279 362 391
f 380 389 390
f 363 282 392
f 377 389 372
f 390 376 373
f 383 384 371
f 376 381 391
f 381 377 392
f 363 374 365
f 382 385 368
f 375 362 364
f 353 355 393
f 387 353 393
f 225 238 394
f 238 386 394
f 275 279 391
f 282 273 392
f 381 275 391
f 273 381 392
f 371 384 373
f 382 368 372
f 362 376 391
f 377 363 392
f 390 389 388
f 370 225 394
f 192 375 364
f 374 360 365
f 376 390 388
f 355 366 393
f 389 377 388
f 368 387 393
f 386 371 394
f 371 370 394
f 366 368 393
f 384 390 373
f 389 382 372
f 395 396 397
f 398 399 400
f 397 396 401
f 398 400 402
f 403 404 405
f 406 407 408
f 405 404 409
f 406 408 410
f 403 411 404
f 412 411 403
f 413 407 406
f 404 411 400
f 413 406 397
f 397 406 414
f 413 196 407
f 404 400 415
f 224 196 413
f 412 416 411
f 417 412 403
f 196 198 407
f 418 419 420
f 31 30 421
f 34 33 422
f 34 422 423
f 30 34 423
f 421 30 423
f 38 31 408
f 33 37 405
f 404 415 409
f 414 406 410
f 420 414 424
f 425 398 402
f 396 232 401
f 416 425 402
f 232 224 401
f 423 422 426
f 421 423 427
f 415 420 424
f 395 397 428
f 423 426 427
f 400 399 429
f 415 426 409
f 427 414 410
f 31 421 408
f 414 420 428
f 420 415 429
f 400 411 402
f 422 33 405
f 413 397 401
f 48 417 430
f 37 48 430
f 198 46 431
f 46 38 431
f 419 395 428
f 399 418 429
f 420 419 428
f 418 420 429
f 408 421 410
f 422 405 409
f 397 414 428
f 415 400 429
f 427 426 424
f 407 198 431
f 411 416 402
f 224 413 401
f 414 427 424
f 417 403 430
f 426 415 424
f 405 37 430
f 38 408 431
f 408 407 431
f 403 405 430
f 421 427 410
f 426 422 409
f 432 21 433
f 434 432 433
f 412 435 436
f 437 416 436
f 416 412 436
f 24 39 438
f 425 416 437
f 21 24 433
f 436 435 439
f 24 438 433
f 440 437 436
f 412 417 435
f 441 442 434
f 432 434 439
f 438 441 433
f 441 434 433
f 443 436 439
f 26 21 432
f 417 48 444
f 48 26 444
f 440 436 443
f 442 440 443
f 434 442 443
f 435 417 444
f 435 432 439
f 432 435 444
f 26 432 444
f 434 443 439
f 162 445 446
f 445 447 446
f 448 120 449
f 125 450 449
f 120 125 449
f 450 125 148
f 186 169 451
f 169 162 446
f 448 449 452
f 451 169 446
f 450 453 449
f 123 120 448
f 454 455 447
f 447 445 452
f 455 451 446
f 447 455 446
f 449 456 452
f 162 168 445
f 168 140 457
f 140 123 457
f 449 453 456
f 453 454 456
f 454 447 456
f 123 448 457
f 445 448 452
f 448 445 457
f 445 168 457
f 456 447 452
f 458 459 460
f 461 462 463
f 464 465 437
f 466 467 468
f 469 470 471
f 463 472 461
f 473 464 437
f 474 475 476
f 477 478 479
f 480 481 482
f 483 477 479
f 484 485 486
f 487 485 488
f 486 489 484
f 490 467 466
f 491 492 493
f 494 495 496
f 488 485 497
f 458 467 459
f 498 470 469
f 450 489 499
f 500 501 95
f 425 502 500
f 484 503 485
f 485 503 497
f 493 492 504
f 460 505 458
f 476 475 496
f 438 494 496
f 506 462 461
f 507 475 474
f 508 492 491
f 471 509 469
f 510 492 508
f 511 478 477
f 486 485 487
f 512 459 490
f 513 514 470
f 468 467 515
f 516 517 518
f 506 519 520
f 521 522 523
f 524 525 526
f 527 528 529
f 290 479 530
f 330 531 532
f 499 489 486
f 523 533 521
f 148 489 450
f 499 534 450
f 351 535 290
f 337 524 330
f 337 525 524
f 497 514 488
f 529 536 527
f 537 511 477
f 538 461 539
f 483 540 477
f 39 494 438
f 351 541 535
f 493 542 491
f 535 541 543
f 544 545 546
f 512 540 459
f 357 538 539
f 497 503 531
f 517 464 518
f 547 508 491
f 473 548 507
f 488 514 513
f 507 549 473
f 550 486 487
f 535 479 290
f 524 531 330
f 551 487 552
f 487 488 552
f 553 552 554
f 537 477 512
f 555 556 557
f 459 467 490
f 558 559 560
f 470 514 471
f 556 561 557
f 556 554 561
f 554 513 562
f 563 497 531
f 495 564 476
f 513 470 562
f 357 539 358
f 341 565 342
f 544 566 545
f 552 513 554
f 567 568 353
f 186 527 567
f 341 569 565
f 495 476 496
f 570 571 572
f 555 573 556
f 574 575 576
f 577 506 578
f 575 579 580
f 581 557 582
f 582 583 584
f 585 582 584
f 586 587 588
f 589 590 591
f 592 577 578
f 579 593 580
f 594 595 596
f 597 594 598
f 599 600 593
f 595 515 458
f 556 553 554
f 592 578 601
f 495 537 564
f 575 580 576
f 594 596 598
f 602 523 603
f 595 458 596
f 496 475 441
f 523 597 603
f 553 551 552
f 604 584 605
f 606 574 607
f 556 573 553
f 554 562 561
f 579 599 593
f 575 608 579
f 597 598 609
f 438 496 441
f 529 610 536
f 460 459 611
f 596 520 598
f 589 504 590
f 585 581 582
f 440 473 437
f 612 484 148
f 354 601 356
f 455 558 451
f 453 547 454
f 339 613 340
f 614 615 39
f 600 616 593
f 563 514 497
f 490 466 617
f 604 585 584
f 588 570 618
f 564 606 476
f 574 576 607
f 353 568 619
f 602 603 620
f 600 621 616
f 537 617 564
f 597 609 603
f 622 544 546
f 551 550 487
f 586 588 623
f 547 491 624
f 545 521 546
f 529 625 626
f 537 512 617
f 599 605 600
f 627 602 628
f 353 619 354
f 512 490 617
f 621 586 629
f 630 516 631
f 570 469 571
f 469 632 498
f 441 475 442
f 520 519 598
f 633 634 627
f 463 460 611
f 602 620 628
f 581 555 557
f 560 559 528
f 619 635 592
f 570 572 618
f 622 546 604
f 580 636 576
f 340 569 341
f 562 470 498
f 622 604 605
f 628 637 589
f 550 499 486
f 606 607 474
f 588 618 623
f 527 568 567
f 586 623 629
f 621 629 616
f 620 480 626
f 627 589 591
f 599 622 605
f 627 628 589
f 620 626 628
f 633 627 591
f 606 474 476
f 636 638 576
f 480 529 626
f 562 498 639
f 607 640 474
f 640 507 474
f 633 591 555
f 620 481 480
f 594 545 595
f 622 641 544
f 354 619 601
f 623 642 629
f 613 569 340
f 572 643 618
f 616 644 593
f 645 646 630
f 581 633 555
f 543 463 611
f 618 647 623
f 629 648 616
f 526 471 563
f 619 592 601
f 557 649 582
f 633 650 634
f 578 461 538
f 651 468 608
f 583 652 584
f 645 630 631
f 561 649 557
f 562 639 561
f 479 653 530
f 475 548 442
f 466 654 617
f 531 503 532
f 502 464 517
f 507 548 475
f 582 649 583
f 598 519 609
f 642 645 631
f 603 481 620
f 520 462 506
f 593 644 580
f 577 519 506
f 599 641 622
f 589 637 504
f 488 513 552
f 463 462 460
f 576 638 607
f 466 651 654
f 626 637 628
f 462 505 460
f 494 511 495
f 590 573 591
f 581 650 633
f 600 652 621
f 623 647 642
f 543 611 483
f 591 573 555
f 643 647 618
f 642 648 629
f 585 650 581
f 627 634 602
f 584 652 605
f 648 644 616
f 477 540 512
f 630 517 516
f 524 526 563
f 583 655 652
f 639 649 561
f 480 610 529
f 656 468 515
f 642 631 648
f 579 641 599
f 481 657 482
f 551 510 550
f 630 646 658
f 605 652 600
f 659 660 646
f 606 654 574
f 466 468 651
f 342 525 337
f 619 568 635
f 609 481 603
f 455 624 558
f 547 624 454
f 625 637 626
f 644 661 636
f 580 644 636
f 617 654 564
f 586 655 587
f 602 634 523
f 654 651 574
f 592 482 577
f 638 518 640
f 186 560 527
f 530 653 614
f 524 563 531
f 532 503 612
f 510 508 550
f 614 653 615
f 607 638 640
f 612 503 484
f 471 514 563
f 608 641 579
f 587 632 588
f 450 534 453
f 356 538 357
f 630 658 517
f 575 651 608
f 358 541 351
f 546 662 604
f 659 646 645
f 652 655 621
f 570 632 469
f 459 540 611
f 521 662 546
f 578 538 601
f 558 560 451
f 564 654 606
f 535 543 483
f 573 663 553
f 571 664 572
f 553 663 551
f 502 465 464
f 642 647 645
f 545 522 521
f 523 522 597
f 550 508 499
f 664 665 565
f 647 659 645
f 571 665 664
f 518 666 516
f 339 667 613
f 484 489 148
f 458 505 596
f 529 528 625
f 646 660 501
f 454 624 455
f 585 662 650
f 551 663 510
f 604 662 585
f 545 566 595
f 594 522 545
f 495 511 537
f 461 472 539
f 615 494 39
f 621 655 586
f 535 483 479
f 506 461 578
f 572 668 643
f 640 549 507
f 635 482 592
f 574 651 575
f 515 566 656
f 572 664 668
f 565 525 342
f 590 663 573
f 637 493 504
f 661 666 636
f 648 661 644
f 601 538 356
f 588 632 570
f 655 669 587
f 516 661 631
f 615 511 494
f 527 536 568
f 526 509 471
f 539 541 358
f 560 528 527
f 504 670 590
f 643 659 647
f 451 560 186
f 569 664 565
f 520 505 462
f 508 534 499
f 525 665 526
f 543 472 463
f 662 533 650
f 613 668 569
f 638 666 518
f 440 548 473
f 482 657 577
f 491 542 624
f 516 666 661
f 519 657 609
f 641 656 544
f 583 669 655
f 625 493 637
f 565 665 525
f 469 509 571
f 515 467 458
f 635 610 482
f 668 664 569
f 547 534 508
f 613 667 660
f 611 540 483
f 639 671 669
f 577 657 519
f 634 533 523
f 518 549 640
f 639 669 649
f 649 669 583
f 521 533 662
f 650 533 634
f 597 522 594
f 615 478 511
f 636 666 638
f 608 656 641
f 541 472 543
f 624 542 558
f 517 658 502
f 595 566 515
f 665 509 526
f 631 661 648
f 453 534 547
f 669 671 587
f 596 505 520
f 502 658 672
f 464 549 518
f 95 667 339
f 442 548 440
f 437 465 425
f 608 468 656
f 587 671 632
f 498 671 639
f 501 667 95
f 536 610 635
f 568 536 635
f 653 478 615
f 492 670 504
f 656 566 544
f 609 657 481
f 425 465 502
f 539 472 541
f 528 559 625
f 493 559 542
f 632 671 498
f 659 673 660
f 571 509 665
f 663 670 510
f 510 670 492
f 643 673 659
f 542 559 558
f 590 670 663
f 625 559 493
f 668 673 643
f 660 673 613
f 660 667 501
f 613 673 668
f 473 549 464
f 672 501 500
f 500 502 672
f 672 646 501
f 658 646 672
f 479 478 653
f 482 610 480
f 674 675 676
f 677 678 679
f 680 681 677
f 676 682 683
f 677 681 684
f 685 682 676
f 676 675 136
f 137 678 677
f 136 675 148
f 145 678 137
f 323 686 229
f 330 687 322
f 679 686 680
f 683 687 674
f 137 677 132
f 133 676 136
f 135 685 133
f 132 684 129
f 314 688 315
f 685 689 688
f 688 682 685
f 684 681 688
f 688 689 684
f 132 677 684
f 685 676 133
f 679 680 677
f 676 683 674
f 135 689 685
f 314 682 688
f 688 681 315
f 684 689 129
f 680 686 323
f 322 687 683
f 612 674 532
f 245 679 244
f 319 681 680
f 322 683 321
f 319 680 323
f 683 682 321
f 129 689 135
f 315 681 319
f 321 682 314
f 229 686 245
f 532 687 330
f 244 678 145
f 148 675 612
f 612 675 674
f 679 678 244
f 245 686 679
f 674 687 532
f 690 691 692
f 693 694 690
f 690 694 695
f 91 691 690
f 96 691 91
f 396 696 232
f 692 696 693
f 91 690 83
f 76 697 84
f 83 695 78
f 398 698 399
f 418 699 419
f 697 700 699
f 699 701 697
f 695 694 699
f 697 701 698
f 698 702 697
f 699 700 695
f 83 690 695
f 692 693 690
f 76 700 697
f 418 701 699
f 698 701 399
f 699 694 419
f 697 702 84
f 695 700 78
f 500 703 425
f 425 703 398
f 693 696 396
f 243 692 242
f 698 704 702
f 95 704 500
f 703 704 698
f 89 704 95
f 395 694 693
f 395 693 396
f 398 703 698
f 84 702 89
f 78 700 76
f 419 694 395
f 399 701 418
f 232 696 243
f 242 691 96
f 692 691 242
f 243 696 692
f 702 704 89
f 500 704 703
f 705 706 707
f 708 709 710
f 711 712 705
f 710 713 714
f 705 712 715
f 716 713 710
f 4 706 705
f 710 709 2
f 290 717 285
f 40 706 4
f 2 709 39
f 283 718 234
f 714 717 708
f 707 718 711
f 1 710 2
f 4 705 5
f 5 715 27
f 28 716 1
f 269 719 272
f 716 720 719
f 719 713 716
f 715 712 719
f 719 720 715
f 716 710 1
f 5 705 715
f 710 714 708
f 707 711 705
f 28 720 716
f 269 713 719
f 719 712 272
f 715 720 27
f 285 717 714
f 711 718 283
f 614 708 530
f 247 707 246
f 276 712 711
f 276 711 283
f 285 714 281
f 714 713 281
f 27 720 28
f 272 712 276
f 281 713 269
f 234 718 247
f 39 709 614
f 246 706 40
f 530 717 290
f 707 706 246
f 614 709 708
f 708 717 530
f 247 718 707
f 721 722 723
f 723 724 725
f 726 724 723
f 727 728 729
f 730 728 727
f 723 722 179
f 238 731 386
f 179 722 189
f 725 731 721
f 175 723 179
f 378 732 379
f 180 730 178
f 174 726 175
f 178 727 171
f 730 727 178
f 732 724 726
f 726 733 732
f 732 733 727
f 727 729 732
f 726 723 175
f 723 725 721
f 378 724 732
f 174 733 726
f 727 733 171
f 732 729 379
f 567 734 186
f 186 734 180
f 386 731 725
f 249 721 248
f 730 735 728
f 353 735 567
f 734 735 730
f 387 735 353
f 386 725 383
f 725 724 383
f 180 734 730
f 379 729 385
f 729 728 385
f 383 724 378
f 385 728 387
f 171 733 174
f 189 722 249
f 248 731 238
f 721 731 248
f 249 722 721
f 728 735 387
f 567 735 734
