v 1.00000000 8.29583152 -1.00000000
v 1.00000000 9.14791576 -1.00000000
v 1.80794349 8.97800667 -1.00000000
v 1.91046587 8.01111075 -1.00000000
v 3.48230312 6.94580397 -1.00000000
v 2.74849213 7.55534105 -1.00000000
v 3.43923716 8.14285714 -1.00000000
v 4.18045057 7.66294252 -1.00000000
v 2.67438678 8.52825876 -1.00000000
v 3.42931450 9.17924478 -1.00000000
v 4.14414053 8.60178017 -1.00000000
v 1.97474487 10.00000000 -1.00000000
v 2.60863448 9.28897198 -1.00000000
v 1.46609675 9.55228580 -1.00000000
v 4.89897949 9.07142857 -1.00000000
v 4.89897949 8.14285714 -1.00000000
v 4.89897949 7.21428571 -1.00000000
v 4.89897949 6.28571429 -1.00000000
v 4.08407475 6.20561147 -1.00000000
v 4.21906363 6.93007098 -1.00000000
v 2.94948974 10.00000000 -1.00000000
v 3.92423461 10.00000000 -1.00000000
v 4.89897949 10.00000000 -1.00000000
v 4.25912972 9.37049070 -1.00000000
v 1.00000000 10.00000000 -1.00000000
v 4.80610157 4.44941441 -1.00000000
v 4.89897949 4.42857143 -1.00000000
v 4.89897949 3.50000000 -1.00000000
v 4.89897949 5.35714286 -1.00000000
v 4.53098949 5.36282963 -1.00000000
v 1.00000000 9.14791576 1.00000000
v 1.00000000 8.97800667 1.80794349
v 1.00000000 8.29583152 1.00000000
v 1.00000000 8.01111075 1.91046587
v 1.00000000 7.55534105 2.74849213
v 1.00000000 8.14285714 3.43923716
v 1.00000000 6.94580397 3.48230312
v 1.00000000 7.66294252 4.18045057
v 1.00000000 9.17924478 3.42931450
v 1.00000000 8.52825876 2.67438678
v 1.00000000 8.60178017 4.14414053
v 1.00000000 10.00000000 1.97474487
v 1.00000000 9.28897198 2.60863448
v 1.00000000 9.55228580 1.46609675
v 1.00000000 8.14285714 4.89897949
v 1.00000000 9.07142857 4.89897949
v 1.00000000 7.21428571 4.89897949
v 1.00000000 6.20561147 4.08407475
v 1.00000000 6.93007098 4.21906363
v 1.00000000 6.28571429 4.89897949
v 1.00000000 10.00000000 3.92423461
v 1.00000000 10.00000000 2.94948974
v 1.00000000 10.00000000 4.89897949
v 1.00000000 9.37049070 4.25912972
v 1.00000000 10.00000000 1.00000000
v 1.00000000 4.44941441 4.80610157
v 1.00000000 4.42857143 4.89897949
v 1.00000000 3.50000000 4.89897949
v 1.00000000 5.35714286 4.89897949
v 1.00000000 5.36282963 4.53098949
v -1.00000000 8.29583152 -1.00000000
v -1.00000000 9.14791576 -1.00000000
v -1.00000000 8.97800667 -1.80794349
v -1.00000000 8.01111075 -1.91046587
v -1.00000000 6.94580397 -3.48230312
v -1.00000000 7.55534105 -2.74849213
v -1.00000000 8.14285714 -3.43923716
v -1.00000000 7.66294252 -4.18045057
v -1.00000000 8.52825876 -2.67438678
v -1.00000000 9.17924478 -3.42931450
v -1.00000000 8.60178017 -4.14414053
v -1.00000000 10.00000000 -1.97474487
v -1.00000000 9.28897198 -2.60863448
v -1.00000000 9.55228580 -1.46609675
v -1.00000000 9.07142857 -4.89897949
v -1.00000000 8.14285714 -4.89897949
v -1.00000000 7.21428571 -4.89897949
v -1.00000000 6.28571429 -4.89897949
v -1.00000000 6.20561147 -4.08407475
v -1.00000000 6.93007098 -4.21906363
v -1.00000000 10.00000000 -2.94948974
v -1.00000000 10.00000000 -3.92423461
v -1.00000000 10.00000000 -4.89897949
v -1.00000000 9.37049070 -4.25912972
v -1.00000000 10.00000000 -1.00000000
v -1.00000000 4.44941441 -4.80610157
v -1.00000000 4.42857143 -4.89897949
v -1.00000000 3.50000000 -4.89897949
v -1.00000000 5.35714286 -4.89897949
v -1.00000000 5.36282963 -4.53098949
v -0.05528677 3.50000000 3.80218415
v 0.52268305 3.50000000 4.29163528
v -0.01853177 3.50000000 4.48153540
v 0.71563774 3.50000000 3.58791674
v -1.30124101 3.50000000 3.26878602
v -1.25719821 3.50000000 4.09582052
v -2.00307461 3.50000000 3.76806541
v 1.92883027 3.50000000 4.61298318
v 1.26402120 3.50000000 4.07230966
v 2.59656250 3.50000000 -2.02973096
v 3.64156299 3.50000000 -1.95819624
v 3.11992302 3.50000000 -1.33779062
v 3.57631452 3.50000000 -0.64000323
v 4.08844897 3.50000000 -1.30530685
v 3.13956654 3.50000000 -2.63525414
v 2.23380526 3.50000000 -2.61716576
v 4.89897949 3.50000000 1.00000000
v 4.61298318 3.50000000 1.92883027
v 4.10793504 3.50000000 1.25097577
v -1.00000000 3.50000000 4.89897949
v -1.92883027 3.50000000 4.61298318
v -4.89897949 3.50000000 -1.00000000
v -4.61298318 3.50000000 -1.92883027
v -4.13265175 3.50000000 -1.24347158
v 1.00000000 3.50000000 -4.89897949
v 1.92883027 3.50000000 -4.61298318
v 1.26099217 3.50000000 -4.10608077
v 2.61122164 3.50000000 -3.24074202
v 4.33562135 3.50000000 -0.55979074
v -4.89897949 3.50000000 1.00000000
v -4.36624066 3.50000000 0.56803709
v -4.12753527 3.50000000 1.25442261
v 2.04779713 3.50000000 3.59775579
v 1.72940182 3.50000000 2.84545178
v 2.46066264 3.50000000 2.74541266
v 3.93759911 3.50000000 0.00583817
v -4.61298318 3.50000000 1.92883027
v 4.61298318 3.50000000 -1.92883027
v -0.56005514 3.50000000 4.33637413
v 4.35019904 3.50000000 0.54434606
v 1.71927527 3.50000000 1.52229943
v 2.14476256 3.50000000 2.12860226
v 1.35862802 3.50000000 2.23155691
v -1.95459038 3.50000000 3.12542756
v -4.35758110 3.50000000 -0.55574999
v -0.73443477 3.50000000 3.71702411
v 4.15270476 3.50000000 -2.78478782
v 3.53553391 3.50000000 -3.53553391
v 2.80889598 3.50000000 3.33623449
v 0.54341559 3.50000000 -4.34697277
v -1.97166430 3.50000000 -3.71207424
v -1.92883027 3.50000000 -4.61298318
v -1.21438328 3.50000000 -4.21414219
v -4.15270476 3.50000000 2.78478782
v -3.75117765 3.50000000 1.99767005
v 0.90565647 3.50000000 1.61157970
v 2.78478782 3.50000000 4.15270476
v -1.20859395 3.50000000 -3.53334518
v 1.26755802 3.50000000 0.87903246
v -2.78478782 3.50000000 4.15270476
v -3.53553391 3.50000000 3.53553391
v -2.64202399 3.50000000 3.22455688
v 4.15270476 3.50000000 2.78478782
v 3.53553391 3.50000000 3.53553391
v 3.21569842 3.50000000 2.64976535
v -2.78478782 3.50000000 -4.15270476
v 2.28145415 3.50000000 -1.28848710
v 2.78478782 3.50000000 -4.15270476
v -4.15270476 3.50000000 -2.78478782
v -3.53553391 3.50000000 -3.53553391
v -3.19395415 3.50000000 -2.62567522
v -0.52194293 3.50000000 -4.38373359
v -0.57583604 3.50000000 -3.67482738
v 0.99538154 3.50000000 2.92479558
v -3.98947144 3.50000000 0.02688183
v -3.72689123 3.50000000 0.67072250
v 3.20020108 3.50000000 0.01399250
v -0.30828454 3.50000000 1.04121210
v 0.48725843 3.50000000 0.95983071
v 0.13246721 3.50000000 1.68497104
v 3.73507541 3.50000000 1.98450909
v -2.78959338 3.50000000 -0.09551471
v -2.33413348 3.50000000 0.54159640
v -3.09077851 3.50000000 0.62340594
v -2.65711791 3.50000000 1.25100572
v 2.92984664 3.50000000 2.01933296
v -1.87876218 3.50000000 1.18334789
v -0.49839273 3.50000000 3.08195575
v 0.23726676 3.50000000 3.01569194
v 2.75477551 3.50000000 -0.63584289
v -2.43683870 3.50000000 -0.79465257
v -2.01113549 3.50000000 -0.17408317
v -0.63944861 3.50000000 1.75893297
v -1.09062782 3.50000000 1.11245065
v -3.25789053 3.50000000 2.66356526
v 1.94574549 3.50000000 -0.56837252
v -0.96255774 3.50000000 2.46562349
v -0.19932376 3.50000000 2.39684050
v 2.07308995 3.50000000 0.79512207
v 1.60722206 3.50000000 0.14935241
v 2.42111238 3.50000000 0.06622464
v -0.76266025 3.50000000 0.39312995
v -3.38232218 3.50000000 0.02058107
v -1.55121916 3.50000000 0.46767032
v -3.71927442 3.50000000 -0.60014723
v -0.25956373 3.50000000 -2.41210791
v -0.75516334 3.50000000 -3.02548239
v 0.05616031 3.50000000 -3.14715383
v 2.03645585 3.50000000 -3.78431831
v 1.34094030 3.50000000 -3.40604176
v 0.66957036 3.50000000 -3.65191932
v 0.03011349 3.50000000 -3.95152980
v -2.47551708 3.50000000 2.54676171
v -1.72169496 3.50000000 2.51815507
v 1.35106667 3.50000000 -2.64634544
v 0.99455281 3.50000000 -1.85628968
v 0.52639634 3.50000000 -2.47818120
v -2.96503385 3.50000000 1.93083760
v -1.41838592 3.50000000 1.82983279
v 2.53584509 3.50000000 1.41510092
v 0.55741877 3.50000000 2.33610931
v 0.02651981 3.50000000 0.31457884
v -1.22606317 3.50000000 -0.24854975
v 0.20588205 3.50000000 -1.77173550
v -1.68830892 3.50000000 -0.88713902
v 0.81401513 3.50000000 0.23311352
v 0.34977544 3.50000000 -0.41055646
v -3.79138382 3.50000000 -1.98856736
v 2.86842363 3.50000000 0.71459965
v 0.67203487 3.50000000 -1.13116885
v -0.11572316 3.50000000 -1.05177632
v -0.43852623 3.50000000 -0.32907389
v -0.58022418 3.50000000 -1.68875344
v 1.78713737 3.50000000 -1.93879014
v -1.04347101 3.50000000 -2.32522827
v -2.19324108 3.50000000 1.87690979
v -0.90140505 3.50000000 -0.97062118
v -3.46005365 3.50000000 -1.31603612
v 1.14249888 3.50000000 -0.48956088
v 1.46740997 3.50000000 -1.21192129
v 4.98874172 3.50000000 -0.33534461
v -4.98874172 3.50000000 0.33534461
v 0.33534461 3.50000000 4.98874172
v 3.63490188 3.50000000 0.64754047
v -2.14548033 3.50000000 -1.52115047
v -2.85185581 3.50000000 -1.40560023
v -3.07931817 3.50000000 -0.66155464
v 3.32289060 3.50000000 1.33104448
v -1.36584812 3.50000000 -1.60310132
v -1.51982912 3.50000000 -2.96879694
v -2.32205977 3.50000000 -2.85141127
v -0.33534461 3.50000000 4.98874172
v 4.98874172 3.50000000 0.33534461
v -4.98874172 3.50000000 -0.33534461
v 1.35044789 3.50000000 3.40564591
v -2.59548559 3.50000000 -2.12255659
v 0.33534461 3.50000000 -4.98874172
v -2.79499838 3.50000000 -3.40582161
v -1.82961927 3.50000000 -2.23965753
v -3.38812230 3.50000000 1.28802091
v -3.17854660 3.50000000 -1.89168711
v -0.33534461 3.50000000 -4.98874172
v -4.53815533 3.50000000 0.00783379
v 1.91660552 3.50000000 -3.19307491
v 0.80246175 3.50000000 -3.04656032
v 4.51721411 3.50000000 -0.00000000
v 0.01031723 3.50000000 -4.53194392
v 1.48737244 10.00000000 0.15584618
v -1.97474487 10.00000000 1.00000000
v -1.00000000 10.00000000 1.00000000
v -1.48737244 10.00000000 -0.15584618
v -0.05606960 10.00000000 1.48620276
v 0.05795318 10.00000000 -1.48173568
v -0.09409682 10.00000000 -0.46585286
v -0.12204781 10.00000000 -2.44260381
v 0.12204781 10.00000000 2.44260381
v 2.44260381 10.00000000 -0.12204781
v -2.44260381 10.00000000 0.12204781
v 0.11624774 10.00000000 0.51838570
v 1.00000000 10.00000000 -1.97474487
v 0.35514439 10.00000000 -2.94106906
v -1.97474487 10.00000000 -1.00000000
v -2.94106906 10.00000000 -0.35514439
v 1.97474487 10.00000000 1.00000000
v 2.94106906 10.00000000 0.35514439
v -1.00000000 10.00000000 1.97474487
v -0.35514439 10.00000000 2.94106906
v 0.71379320 10.00000000 -0.19864298
v 0.25183482 10.00000000 3.52650937
v -0.03050284 10.00000000 4.36106990
v 0.57747101 10.00000000 4.42007707
v -0.25183482 10.00000000 -3.52650937
v 0.03050284 10.00000000 -4.36106990
v -0.57747101 10.00000000 -4.42007707
v 3.52650937 10.00000000 -0.25183482
v 4.36106990 10.00000000 0.03050284
v 4.42007707 10.00000000 -0.57747101
v -3.52650937 10.00000000 0.25183482
v -4.36106990 10.00000000 -0.03050284
v -4.42007707 10.00000000 0.57747101
v -0.68835747 10.00000000 0.18791779
v 1.00000000 10.00000000 -2.94948974
v -2.94948974 10.00000000 -1.00000000
v 2.94948974 10.00000000 1.00000000
v -1.00000000 10.00000000 2.94948974
v -3.92423461 10.00000000 1.00000000
v -1.00000000 10.00000000 3.92423461
v -1.00000000 10.00000000 4.89897949
v -0.54094214 10.00000000 4.40570387
v 3.92423461 10.00000000 1.00000000
v 4.89897949 10.00000000 1.00000000
v 4.40570387 10.00000000 0.54094214
v 1.00000000 10.00000000 -3.92423461
v 1.00000000 10.00000000 -4.89897949
v 0.54094214 10.00000000 -4.40570387
v -3.92423461 10.00000000 -1.00000000
v -4.89897949 10.00000000 -1.00000000
v -4.40570387 10.00000000 -0.54094214
v -4.89897949 10.00000000 1.00000000
v -2.94948974 10.00000000 1.00000000
v -3.68706724 10.00000000 -0.44023752
v 0.44023752 10.00000000 -3.68706724
v 3.68706724 10.00000000 0.44023752
v -0.44023752 10.00000000 3.68706724
v -0.33534461 10.00000000 4.98874172
v 0.33534461 10.00000000 4.98874172
v 4.98874172 10.00000000 0.33534461
v 4.98874172 10.00000000 -0.33534461
v -4.98874172 10.00000000 -0.33534461
v -4.98874172 10.00000000 0.33534461
v 0.33534461 10.00000000 -4.98874172
v -0.33534461 10.00000000 -4.98874172
v -1.80794349 8.97800667 -1.00000000
v -1.91046587 8.01111075 -1.00000000
v -2.74849213 7.55534105 -1.00000000
v -3.48230312 6.94580397 -1.00000000
v -3.43923716 8.14285714 -1.00000000
v -4.18045057 7.66294252 -1.00000000
v -3.42931450 9.17924478 -1.00000000
v -2.67438678 8.52825876 -1.00000000
v -4.14414053 8.60178017 -1.00000000
v -2.60863448 9.28897198 -1.00000000
v -1.46609675 9.55228580 -1.00000000
v -4.89897949 8.14285714 -1.00000000
v -4.89897949 9.07142857 -1.00000000
v -4.89897949 7.21428571 -1.00000000
v -4.08407475 6.20561147 -1.00000000
v -4.89897949 6.28571429 -1.00000000
v -4.21906363 6.93007098 -1.00000000
v -4.25912972 9.37049070 -1.00000000
v -4.89897949 4.42857143 -1.00000000
v -4.80610157 4.44941441 -1.00000000
v -4.89897949 5.35714286 -1.00000000
v -4.53098949 5.36282963 -1.00000000
v -1.00000000 9.14791576 1.00000000
v -1.80794349 8.97800667 1.00000000
v -1.00000000 8.29583152 1.00000000
v -1.91046587 8.01111075 1.00000000
v -2.74849213 7.55534105 1.00000000
v -3.43923716 8.14285714 1.00000000
v -3.48230312 6.94580397 1.00000000
v -4.18045057 7.66294252 1.00000000
v -3.42931450 9.17924478 1.00000000
v -2.67438678 8.52825876 1.00000000
v -4.14414053 8.60178017 1.00000000
v -2.60863448 9.28897198 1.00000000
v -1.46609675 9.55228580 1.00000000
v -4.89897949 8.14285714 1.00000000
v -4.89897949 9.07142857 1.00000000
v -4.89897949 7.21428571 1.00000000
v -4.08407475 6.20561147 1.00000000
v -4.21906363 6.93007098 1.00000000
v -4.89897949 6.28571429 1.00000000
v -4.25912972 9.37049070 1.00000000
v -4.80610157 4.44941441 1.00000000
v -4.89897949 4.42857143 1.00000000
v -4.89897949 5.35714286 1.00000000
v -4.53098949 5.36282963 1.00000000
v 1.80794349 8.97800667 1.00000000
v 1.91046587 8.01111075 1.00000000
v 3.48230312 6.94580397 1.00000000
v 3.43923716 8.14285714 1.00000000
v 2.74849213 7.55534105 1.00000000
v 4.18045057 7.66294252 1.00000000
v 2.67438678 8.52825876 1.00000000
v 3.42931450 9.17924478 1.00000000
v 4.14414053 8.60178017 1.00000000
v 2.60863448 9.28897198 1.00000000
v 1.46609675 9.55228580 1.00000000
v 4.89897949 9.07142857 1.00000000
v 4.89897949 8.14285714 1.00000000
v 4.89897949 7.21428571 1.00000000
v 4.89897949 6.28571429 1.00000000
v 4.21906363 6.93007098 1.00000000
v 4.08407475 6.20561147 1.00000000
v 4.25912972 9.37049070 1.00000000
v 4.89897949 4.42857143 1.00000000
v 4.80610157 4.44941441 1.00000000
v 4.89897949 5.35714286 1.00000000
v 4.53098949 5.36282963 1.00000000
v 2.05921571 7.58759379 2.01276120
v 2.91196771 7.09477487 1.89684942
v 1.89371497 7.06250755 2.95336817
v 3.13111166 5.71132389 3.21032498
v 3.96470566 5.05347775 2.62065181
v 3.70583270 5.81050934 2.43482044
v 3.42934702 4.95168513 3.33649357
v 4.14533121 5.64721502 1.79044598
v 4.46698143 4.84541281 1.79887222
v 1.93488604 5.66745138 4.06919778
v 3.61985004 6.44291427 1.79887222
v 1.86155110 6.44903175 3.58299305
v 1.84296132 4.88888894 4.43559253
v 2.57085583 6.94509141 2.55382957
v 3.14434379 6.44011891 2.54338415
v 2.56238298 6.39553066 3.17018859
v 2.69130625 5.12404469 3.88836077
v 2.52912302 5.81897780 3.63674012
v 3.80746466 4.34032024 3.13002791
v 3.12140553 4.33157385 3.81645286
v 2.31776609 4.32210203 4.35340196
v 4.36158113 4.24055979 2.32984576
v 1.83323317 4.12764828 4.60926391
v 4.69106510 4.11805796 1.61614126
v -4.47444918 4.80754043 1.80821530
v -4.10723061 5.68654727 1.83020975
v -2.53532310 5.54397957 3.79398001
v -2.86319179 4.80189597 3.88679812
v -1.98179814 4.93304082 4.36106296
v -2.78733119 6.13196423 3.20991419
v -1.86961988 6.43982660 3.58635484
v -2.49591328 4.07231245 4.29451690
v -3.83385405 4.29235573 3.11026293
v -3.23925202 4.21585538 3.74096210
v -3.37458565 5.17326432 3.28821505
v -3.60331310 6.46539966 1.79514333
v -1.76363504 5.74837824 4.10297291
v -3.93791810 5.08333345 2.64307704
v -3.52462089 5.95479992 2.55949310
v -2.35547779 6.73942979 2.99296158
v -4.70430833 4.08066501 1.59132374
v -4.33438269 4.21617078 2.38751462
v -2.97890935 6.64790434 2.49335064
v -2.96134965 7.13222255 1.74280451
v -2.31910505 7.19369452 2.44507108
v -2.23938314 7.63865617 1.69017404
v -1.00000000 6.94580397 3.48230312
v -1.00000000 6.20561147 4.08407475
v -1.00000000 5.36282963 4.53098949
v -1.00000000 4.44941441 4.80610157
v -1.71406166 4.03801664 4.66610445
v -1.69831634 7.11751822 3.00487663
v -1.58320804 7.97380035 1.57434518
v -1.00000000 8.01111075 1.91046587
v -1.00000000 7.55534105 2.74849213
v -1.65780175 7.64583812 2.25027102
v -2.05921571 7.58759379 -2.01276120
v -2.91196771 7.09477487 -1.89684942
v -1.89371497 7.06250755 -2.95336817
v -3.13111166 5.71132389 -3.21032498
v -3.96470566 5.05347775 -2.62065181
v -3.70583270 5.81050934 -2.43482044
v -3.42934702 4.95168513 -3.33649357
v -4.14533121 5.64721502 -1.79044598
v -4.46698143 4.84541281 -1.79887222
v -1.93488604 5.66745138 -4.06919778
v -3.61985004 6.44291427 -1.79887222
v -1.86155110 6.44903175 -3.58299305
v -1.84296132 4.88888894 -4.43559253
v -2.57085583 6.94509141 -2.55382957
v -3.14434379 6.44011891 -2.54338415
v -2.56238298 6.39553066 -3.17018859
v -2.69130625 5.12404469 -3.88836077
v -2.52912302 5.81897780 -3.63674012
v -3.80746466 4.34032024 -3.13002791
v -3.12140553 4.33157385 -3.81645286
v -2.31776609 4.32210203 -4.35340196
v -4.36158113 4.24055979 -2.32984576
v -1.83323317 4.12764828 -4.60926391
v -4.69106510 4.11805796 -1.61614126
v -1.00000000 8.97800667 1.80794349
v -1.00000000 8.14285714 3.43923716
v -1.00000000 7.66294252 4.18045057
v -1.00000000 9.17924478 3.42931450
v -1.00000000 8.52825876 2.67438678
v -1.00000000 8.60178017 4.14414053
v -1.00000000 9.28897198 2.60863448
v -1.00000000 9.55228580 1.46609675
v -1.00000000 8.14285714 4.89897949
v -1.00000000 9.07142857 4.89897949
v -1.00000000 7.21428571 4.89897949
v -1.00000000 6.28571429 4.89897949
v -1.00000000 6.93007098 4.21906363
v -1.00000000 9.37049070 4.25912972
v -1.00000000 4.42857143 4.89897949
v -1.00000000 5.35714286 4.89897949
v 1.00000000 8.97800667 -1.80794349
v 1.00000000 8.01111075 -1.91046587
v 1.00000000 6.94580397 -3.48230312
v 1.00000000 8.14285714 -3.43923716
v 1.00000000 7.55534105 -2.74849213
v 1.00000000 7.66294252 -4.18045057
v 1.00000000 8.52825876 -2.67438678
v 1.00000000 9.17924478 -3.42931450
v 1.00000000 8.60178017 -4.14414053
v 1.00000000 9.28897198 -2.60863448
v 1.00000000 9.55228580 -1.46609675
v 1.00000000 9.07142857 -4.89897949
v 1.00000000 8.14285714 -4.89897949
v 1.00000000 7.21428571 -4.89897949
v 1.00000000 6.28571429 -4.89897949
v 1.00000000 6.93007098 -4.21906363
v 1.00000000 6.20561147 -4.08407475
v 1.00000000 9.37049070 -4.25912972
v 1.00000000 4.44941441 -4.80610157
v 1.00000000 4.42857143 -4.89897949
v 1.00000000 5.35714286 -4.89897949
v 1.00000000 5.36282963 -4.53098949
v 4.47444918 4.80754043 -1.80821530
v 4.10723061 5.68654727 -1.83020975
v 2.53532310 5.54397957 -3.79398001
v 2.86319179 4.80189597 -3.88679812
v 1.98179814 4.93304082 -4.36106296
v 2.78733119 6.13196423 -3.20991419
v 1.86961988 6.43982660 -3.58635484
v 2.49591328 4.07231245 -4.29451690
v 3.83385405 4.29235573 -3.11026293
v 3.23925202 4.21585538 -3.74096210
v 3.37458565 5.17326432 -3.28821505
v 3.60331310 6.46539966 -1.79514333
v 1.76363504 5.74837824 -4.10297291
v 3.93791810 5.08333345 -2.64307704
v 3.52462089 5.95479992 -2.55949310
v 2.35547779 6.73942979 -2.99296158
v 4.70430833 4.08066501 -1.59132374
v 4.33438269 4.21617078 -2.38751462
v 2.97890935 6.64790434 -2.49335064
v 2.96134965 7.13222255 -1.74280451
v 2.31910505 7.19369452 -2.44507108
v 2.23938314 7.63865617 -1.69017404
v 1.71406166 4.03801664 -4.66610445
v 1.69831634 7.11751822 -3.00487663
v 1.58320804 7.97380035 -1.57434518
v 1.65780175 7.64583812 -2.25027102
v 0.01845214 9.44319943 4.99996595
v -0.58360085 9.51007224 4.96582421
v -0.22698084 8.56344655 4.99484531
v -0.22698084 4.93655345 4.99484531
v -0.58359720 3.98993057 4.96582464
v 0.01850071 4.05682327 4.99996577
v 0.47547633 4.89285714 4.97734088
v 0.49018046 5.82390348 4.97591430
v 0.49018046 7.68104634 4.97591430
v 0.47547633 8.60714286 4.97734088
v -0.20169915 5.82142857 4.99593009
v -0.20169915 7.67857143 4.99593009
v 0.59650785 9.51328694 4.96429032
v 0.59645544 3.98682277 4.96429662
v 0.20169915 6.75000000 4.99593009
v -0.49018046 6.74752509 4.97591430
v 4.99484531 8.56344655 -0.22698084
v 4.96583013 9.50996292 -0.58355045
v 4.99996615 9.44317673 0.01839854
v 4.99996615 4.05682327 0.01839854
v 4.96583013 3.99003708 -0.58355045
v 4.99484531 4.93655345 -0.22698084
v 4.97734088 8.60714286 0.47547633
v 4.97591430 7.67609652 0.49018046
v 4.97591430 5.81895366 0.49018046
v 4.97734088 4.89285714 0.47547633
v 4.99593009 7.67857143 -0.20169915
v 4.99593009 5.82142857 -0.20169915
v 4.96429082 9.51328421 0.59650368
v 4.96429082 3.98671579 0.59650368
v 4.99593009 6.75000000 0.20169915
v 4.97591430 6.75247491 -0.49018046
v -0.22698084 8.56344655 -4.99484531
v -0.58360085 9.51007224 -4.96582421
v 0.01845214 9.44319943 -4.99996595
v 0.01839854 4.05682327 -4.99996615
v -0.58355045 3.99003708 -4.96583013
v -0.22698084 4.93655345 -4.99484531
v 0.47547633 8.60714286 -4.97734088
v 0.49018046 7.67609652 -4.97591430
v 0.49018046 5.81895366 -4.97591430
v 0.47547633 4.89285714 -4.97734088
v -0.20169915 7.67857143 -4.99593009
v -0.20169915 5.82142857 -4.99593009
v 0.59650368 3.98671579 -4.96429082
v 0.59650785 9.51328694 -4.96429032
v 0.20169915 6.75000000 -4.99593009
v -0.49018046 6.75247491 -4.97591430
v -4.99484531 4.93655345 -0.22698084
v -4.96582464 3.98993057 -0.58359720
v -4.99996577 4.05682327 0.01850071
v -4.99484531 8.56344655 0.22698084
v -4.96583013 9.50996292 0.58355045
v -4.99996615 9.44317673 -0.01839854
v -4.97734088 8.60714286 -0.47547633
v -4.97591430 7.67609652 -0.49018046
v -4.97734088 4.89285714 0.47547633
v -4.97591430 5.82390348 0.49018046
v -4.99593009 7.67857143 0.20169915
v -4.99593009 5.82142857 -0.20169915
v -4.99592570 6.74981208 -0.20180791
v -4.97592052 6.75247663 0.49011735
v -4.96429082 9.51328421 -0.59650368
v -4.96429662 3.98682277 0.59645544
f 1 2 3
f 4 1 3
f 5 6 7
f 8 5 7
f 9 10 7
f 10 11 7
f 3 12 13
f 6 4 9
f 12 3 14
f 15 16 11
f 16 17 8
f 9 4 3
f 18 19 20
f 11 16 8
f 17 18 20
f 21 22 10
f 22 23 24
f 23 15 24
f 12 21 13
f 10 9 13
f 6 9 7
f 19 5 20
f 25 12 14
f 3 2 14
f 11 8 7
f 5 8 20
f 9 3 13
f 8 17 20
f 21 10 13
f 15 11 24
f 11 10 24
f 2 25 14
f 10 22 24
f 26 27 28
f 18 29 30
f 19 18 30
f 26 29 27
f 29 26 30
f 31 32 33
f 33 32 34
f 35 36 37
f 37 36 38
f 39 36 40
f 41 36 39
f 42 43 32
f 34 40 35
f 32 44 42
f 45 41 46
f 47 38 45
f 34 32 40
f 48 49 50
f 45 38 41
f 50 49 47
f 51 39 52
f 53 54 51
f 46 54 53
f 52 43 42
f 40 43 39
f 40 36 35
f 37 49 48
f 42 44 55
f 31 44 32
f 38 36 41
f 38 49 37
f 32 43 40
f 47 49 38
f 39 43 52
f 41 54 46
f 39 54 41
f 55 44 31
f 51 54 39
f 56 57 58
f 50 59 60
f 60 48 50
f 59 57 56
f 60 59 56
f 61 62 63
f 64 61 63
f 65 66 67
f 68 65 67
f 69 70 67
f 70 71 67
f 63 72 73
f 66 64 69
f 72 63 74
f 75 76 71
f 76 77 68
f 69 64 63
f 78 79 80
f 71 76 68
f 77 78 80
f 81 82 70
f 82 83 84
f 83 75 84
f 72 81 73
f 70 69 73
f 66 69 67
f 79 65 80
f 85 72 74
f 63 62 74
f 71 68 67
f 65 68 80
f 69 63 73
f 68 77 80
f 81 70 73
f 75 71 84
f 71 70 84
f 62 85 74
f 70 82 84
f 86 87 88
f 78 89 90
f 79 78 90
f 89 87 86
f 89 86 90
f 91 92 93
f 92 91 94
f 95 96 97
f 98 58 99
f 100 101 102
f 103 102 104
f 105 100 106
f 107 108 109
f 110 111 96
f 112 113 114
f 115 116 117
f 101 100 105
f 118 105 106
f 58 92 99
f 119 103 104
f 102 101 104
f 120 121 122
f 28 119 104
f 123 124 125
f 103 119 126
f 127 120 122
f 128 28 104
f 110 96 129
f 123 98 99
f 107 109 130
f 129 91 93
f 131 132 133
f 95 97 134
f 112 114 135
f 96 95 136
f 137 101 105
f 138 137 105
f 139 123 125
f 115 117 140
f 141 142 143
f 144 127 145
f 131 133 146
f 147 98 123
f 137 128 101
f 118 138 105
f 148 141 143
f 149 131 146
f 133 132 124
f 150 151 152
f 153 154 155
f 156 142 141
f 157 100 102
f 142 88 143
f 158 138 118
f 159 160 161
f 143 162 163
f 164 133 124
f 121 165 166
f 167 103 126
f 168 169 170
f 153 155 171
f 145 127 122
f 172 173 174
f 173 175 174
f 132 176 125
f 91 129 136
f 177 175 173
f 101 128 104
f 178 179 91
f 167 180 103
f 169 149 146
f 180 157 102
f 181 182 172
f 170 169 146
f 91 179 94
f 92 94 99
f 183 184 168
f 144 145 185
f 147 123 139
f 150 152 97
f 157 180 186
f 148 143 163
f 187 188 178
f 178 188 179
f 189 190 191
f 187 183 188
f 184 192 168
f 183 168 170
f 166 165 193
f 194 177 173
f 135 195 165
f 180 191 186
f 196 197 198
f 117 199 200
f 201 198 202
f 203 204 134
f 205 206 207
f 196 198 207
f 185 145 208
f 209 183 187
f 189 210 131
f 189 131 149
f 133 211 146
f 95 178 136
f 211 170 146
f 212 169 168
f 213 194 182
f 192 212 168
f 194 192 184
f 176 155 125
f 214 196 207
f 158 118 199
f 215 182 181
f 131 210 132
f 216 212 217
f 187 178 95
f 194 184 177
f 172 182 173
f 191 190 186
f 213 192 194
f 216 149 169
f 209 184 183
f 216 169 212
f 159 161 218
f 219 189 191
f 220 221 214
f 222 192 213
f 179 164 94
f 214 223 196
f 103 180 102
f 96 111 97
f 224 206 205
f 152 151 185
f 217 222 221
f 177 184 209
f 196 225 197
f 155 154 139
f 177 226 175
f 179 188 211
f 222 213 227
f 213 182 215
f 167 191 180
f 167 219 191
f 217 212 222
f 114 218 228
f 221 222 227
f 229 230 186
f 206 214 207
f 28 231 119
f 120 232 121
f 214 221 223
f 190 149 216
f 217 221 220
f 226 209 204
f 182 194 173
f 222 212 192
f 58 233 92
f 213 215 227
f 157 224 100
f 190 229 186
f 189 149 190
f 209 187 204
f 230 224 157
f 188 183 170
f 234 219 167
f 235 181 236
f 230 157 186
f 193 195 237
f 219 210 189
f 220 214 206
f 223 221 227
f 217 220 229
f 216 217 229
f 179 211 164
f 135 114 195
f 114 113 218
f 220 206 230
f 220 230 229
f 165 195 193
f 177 209 226
f 230 206 224
f 219 238 210
f 211 188 170
f 196 223 225
f 122 121 166
f 190 216 229
f 187 95 204
f 223 227 239
f 164 211 133
f 141 240 241
f 215 181 235
f 197 225 240
f 227 215 239
f 202 198 163
f 225 223 239
f 117 116 199
f 242 110 129
f 243 107 130
f 244 112 135
f 185 208 203
f 164 124 245
f 161 241 246
f 140 117 201
f 130 234 126
f 140 201 202
f 234 167 126
f 247 115 140
f 215 235 239
f 241 161 248
f 236 181 237
f 152 203 134
f 130 109 234
f 234 238 219
f 240 249 241
f 100 224 106
f 225 239 249
f 156 141 248
f 174 175 250
f 198 197 163
f 111 150 97
f 240 225 249
f 226 204 203
f 197 240 148
f 239 235 249
f 224 205 106
f 113 159 218
f 228 218 251
f 234 109 238
f 108 153 171
f 161 160 248
f 116 158 199
f 201 117 200
f 88 252 162
f 132 210 176
f 141 241 248
f 241 249 246
f 145 122 250
f 236 237 228
f 250 175 208
f 171 155 176
f 235 236 246
f 151 144 185
f 154 147 139
f 123 99 245
f 145 250 208
f 240 141 148
f 165 121 253
f 109 108 171
f 178 91 136
f 205 200 254
f 249 235 246
f 238 109 171
f 198 201 255
f 94 164 245
f 126 119 256
f 207 198 255
f 175 226 208
f 152 185 203
f 174 166 193
f 106 205 254
f 99 94 245
f 233 242 93
f 124 123 245
f 92 233 93
f 135 165 253
f 129 96 136
f 121 232 253
f 172 174 193
f 119 231 256
f 130 126 256
f 242 129 93
f 172 193 237
f 210 238 176
f 250 122 166
f 232 244 253
f 97 152 134
f 231 243 256
f 205 207 255
f 238 171 176
f 244 135 253
f 162 202 163
f 243 130 256
f 181 172 237
f 252 247 257
f 174 250 166
f 155 139 125
f 236 228 251
f 140 202 257
f 88 162 143
f 247 140 257
f 160 156 248
f 204 95 134
f 199 118 254
f 202 162 257
f 237 195 228
f 162 252 257
f 200 199 254
f 124 132 125
f 197 148 163
f 208 226 203
f 200 205 255
f 195 114 228
f 218 161 251
f 201 200 255
f 118 106 254
f 246 236 251
f 161 246 251
f 12 25 258
f 259 260 261
f 42 55 262
f 72 85 263
f 263 85 264
f 72 263 265
f 42 262 266
f 12 258 267
f 259 261 268
f 262 55 269
f 265 270 271
f 268 272 273
f 267 274 275
f 266 276 277
f 25 263 264
f 263 270 265
f 261 272 268
f 262 276 266
f 258 274 267
f 258 25 278
f 279 280 281
f 282 283 284
f 285 286 287
f 288 289 290
f 269 55 278
f 261 260 291
f 260 262 269
f 264 85 291
f 55 258 278
f 85 261 291
f 25 264 278
f 260 269 291
f 270 292 271
f 272 293 273
f 274 294 275
f 276 295 277
f 296 288 290
f 51 279 281
f 82 282 284
f 22 285 287
f 297 298 299
f 300 301 302
f 53 51 281
f 23 22 287
f 303 304 305
f 306 307 308
f 309 296 290
f 83 82 284
f 285 21 267
f 288 310 268
f 282 81 265
f 279 52 266
f 293 311 273
f 292 312 271
f 294 313 275
f 295 314 277
f 21 12 267
f 310 259 268
f 52 42 266
f 81 72 265
f 293 306 311
f 292 303 312
f 294 300 313
f 295 297 314
f 22 21 285
f 51 52 279
f 82 81 282
f 296 310 288
f 25 270 263
f 55 274 258
f 85 272 261
f 260 276 262
f 280 279 314
f 286 285 313
f 283 282 312
f 289 288 311
f 264 269 278
f 269 264 291
f 315 316 280
f 317 318 286
f 319 320 289
f 321 322 283
f 285 267 275
f 288 268 273
f 282 265 271
f 279 266 277
f 307 319 308
f 298 315 299
f 322 83 284
f 304 321 305
f 301 317 302
f 316 53 281
f 318 23 287
f 320 309 290
f 311 288 273
f 314 279 277
f 313 285 275
f 312 282 271
f 283 322 284
f 317 286 302
f 286 318 287
f 321 283 305
f 315 280 299
f 319 289 308
f 280 316 281
f 289 320 290
f 299 280 314
f 305 283 312
f 308 289 311
f 302 286 313
f 300 302 313
f 303 305 312
f 297 299 314
f 306 308 311
f 62 61 323
f 61 324 323
f 325 326 327
f 326 328 327
f 329 330 327
f 331 329 327
f 272 323 332
f 324 325 330
f 323 272 333
f 334 335 331
f 336 334 328
f 324 330 323
f 337 338 339
f 334 331 328
f 338 336 339
f 306 293 329
f 307 306 340
f 335 307 340
f 293 272 332
f 330 329 332
f 330 325 327
f 326 337 339
f 272 85 333
f 62 323 333
f 328 331 327
f 328 326 339
f 323 330 332
f 336 328 339
f 329 293 332
f 331 335 340
f 329 331 340
f 85 62 333
f 306 329 340
f 341 342 112
f 341 343 342
f 343 338 344
f 342 343 344
f 344 338 337
f 345 346 347
f 347 346 348
f 349 350 351
f 351 350 352
f 353 350 354
f 355 350 353
f 259 356 346
f 348 354 349
f 346 357 259
f 358 355 359
f 360 352 358
f 348 346 354
f 361 362 363
f 358 352 355
f 363 362 360
f 296 353 310
f 309 364 296
f 359 364 309
f 310 356 259
f 354 356 353
f 354 350 349
f 351 362 361
f 259 357 260
f 345 357 346
f 352 350 355
f 352 362 351
f 346 356 354
f 360 362 352
f 353 356 310
f 355 364 359
f 353 364 355
f 260 357 345
f 296 364 353
f 365 366 120
f 363 367 368
f 361 363 368
f 365 367 366
f 368 367 365
f 33 369 31
f 370 369 33
f 371 372 373
f 374 372 371
f 375 372 376
f 376 372 377
f 369 378 274
f 373 375 370
f 274 379 369
f 380 377 381
f 381 374 382
f 375 369 370
f 383 384 385
f 377 374 381
f 382 384 383
f 294 376 300
f 300 386 301
f 301 386 380
f 274 378 294
f 376 378 375
f 373 372 375
f 385 384 371
f 55 379 274
f 369 379 31
f 377 372 374
f 371 384 374
f 375 378 369
f 374 384 382
f 294 378 376
f 380 386 377
f 377 386 376
f 31 379 55
f 376 386 300
f 107 387 388
f 387 389 388
f 390 389 383
f 388 389 390
f 390 383 385
f 34 391 370
f 391 392 373
f 35 393 391
f 370 33 34
f 35 391 34
f 370 391 373
f 394 395 396
f 394 397 395
f 398 395 399
f 373 392 371
f 37 393 35
f 60 400 48
f 371 392 401
f 402 393 37
f 396 395 398
f 403 400 60
f 391 404 392
f 393 404 391
f 48 400 402
f 392 405 401
f 402 406 393
f 407 397 394
f 394 408 407
f 405 396 401
f 409 410 154
f 153 409 154
f 405 394 396
f 371 401 385
f 48 402 37
f 56 403 60
f 390 399 388
f 154 410 147
f 410 411 147
f 147 411 98
f 407 400 403
f 406 404 393
f 400 408 402
f 108 412 153
f 58 413 56
f 401 398 385
f 402 408 406
f 390 398 399
f 410 407 411
f 396 398 401
f 56 413 403
f 385 398 390
f 399 395 412
f 405 406 394
f 388 414 107
f 107 414 108
f 411 407 403
f 153 412 409
f 410 397 407
f 108 414 412
f 409 397 410
f 395 397 409
f 98 413 58
f 392 404 405
f 405 404 406
f 412 414 399
f 399 414 388
f 412 395 409
f 411 413 98
f 406 408 394
f 407 408 400
f 403 413 411
f 415 416 368
f 417 418 419
f 365 415 368
f 420 417 421
f 418 422 419
f 423 424 425
f 425 424 418
f 368 416 361
f 361 416 426
f 417 427 421
f 415 428 416
f 416 429 426
f 425 428 423
f 419 427 417
f 421 430 420
f 415 431 432
f 429 433 426
f 432 431 127
f 429 420 433
f 434 435 436
f 151 423 144
f 349 436 348
f 425 417 420
f 361 426 351
f 437 421 438
f 439 419 440
f 429 425 420
f 425 418 417
f 421 427 438
f 433 435 434
f 365 431 415
f 438 427 439
f 419 422 441
f 415 432 428
f 416 428 429
f 429 428 425
f 349 434 436
f 426 434 351
f 439 427 419
f 437 442 421
f 433 434 426
f 144 432 127
f 440 441 110
f 351 434 349
f 347 443 444
f 422 424 150
f 445 442 437
f 348 443 347
f 418 424 422
f 419 441 440
f 150 424 151
f 420 430 433
f 445 446 442
f 442 446 435
f 428 432 423
f 110 441 111
f 444 446 445
f 120 431 365
f 127 431 120
f 111 422 150
f 433 430 435
f 442 430 421
f 151 424 423
f 423 432 144
f 435 446 436
f 436 443 348
f 441 422 111
f 435 430 442
f 444 443 446
f 446 443 436
f 64 447 324
f 447 448 325
f 66 449 447
f 61 64 324
f 324 447 325
f 66 447 64
f 450 451 452
f 450 453 451
f 454 451 455
f 325 448 326
f 65 449 66
f 90 456 79
f 326 448 457
f 458 449 65
f 452 451 454
f 459 456 90
f 447 460 448
f 449 460 447
f 79 456 458
f 448 461 457
f 458 462 449
f 463 453 450
f 450 464 463
f 461 452 457
f 465 466 160
f 159 465 160
f 461 450 452
f 326 457 337
f 79 458 65
f 86 459 90
f 344 455 342
f 160 466 156
f 466 467 156
f 156 467 142
f 463 456 459
f 462 460 449
f 456 464 458
f 113 468 159
f 88 469 86
f 457 454 337
f 458 464 462
f 344 454 455
f 466 463 467
f 452 454 457
f 86 469 459
f 337 454 344
f 455 451 468
f 461 462 450
f 342 470 112
f 112 470 113
f 467 463 459
f 159 468 465
f 466 453 463
f 113 470 468
f 465 453 466
f 451 453 465
f 142 469 88
f 448 460 461
f 461 460 462
f 468 470 455
f 455 470 342
f 468 451 465
f 467 469 142
f 462 464 450
f 463 464 456
f 459 469 467
f 345 347 471
f 347 444 471
f 445 437 472
f 437 473 472
f 474 475 472
f 476 474 472
f 276 471 477
f 444 445 475
f 471 276 478
f 479 480 476
f 481 479 473
f 444 475 471
f 438 482 483
f 479 476 473
f 482 481 483
f 297 295 474
f 298 297 484
f 480 298 484
f 295 276 477
f 475 474 477
f 475 445 472
f 437 438 483
f 276 260 478
f 345 471 478
f 473 476 472
f 473 437 483
f 471 475 477
f 481 473 483
f 474 295 477
f 476 480 484
f 474 476 484
f 260 345 478
f 297 474 484
f 440 110 485
f 439 440 486
f 440 485 486
f 439 482 438
f 482 439 486
f 1 487 2
f 488 487 1
f 489 490 491
f 492 490 489
f 493 490 494
f 494 490 495
f 487 496 270
f 491 493 488
f 270 497 487
f 498 495 499
f 499 492 500
f 493 487 488
f 501 502 503
f 495 492 499
f 500 502 501
f 292 494 303
f 303 504 304
f 304 504 498
f 270 496 292
f 494 496 493
f 491 490 493
f 503 502 489
f 25 497 270
f 487 497 2
f 495 490 492
f 489 502 492
f 493 496 487
f 492 502 500
f 292 496 494
f 498 504 495
f 495 504 494
f 2 497 25
f 494 504 303
f 505 115 506
f 506 507 505
f 508 507 501
f 505 507 508
f 508 501 503
f 509 510 30
f 511 512 513
f 26 509 30
f 514 511 515
f 512 516 513
f 517 518 519
f 519 518 512
f 30 510 19
f 19 510 520
f 511 521 515
f 509 522 510
f 510 523 520
f 519 522 517
f 513 521 511
f 515 524 514
f 509 525 526
f 523 527 520
f 526 525 128
f 523 514 527
f 528 529 530
f 138 517 137
f 6 530 4
f 519 511 514
f 19 520 5
f 489 515 503
f 508 513 505
f 523 519 514
f 519 512 511
f 515 521 503
f 527 529 528
f 26 525 509
f 503 521 508
f 513 516 531
f 509 526 522
f 510 522 523
f 523 522 519
f 6 528 530
f 520 528 5
f 508 521 513
f 489 532 515
f 527 528 520
f 137 526 128
f 505 531 115
f 5 528 6
f 1 533 488
f 516 518 158
f 491 532 489
f 4 533 1
f 512 518 516
f 513 531 505
f 158 518 138
f 514 524 527
f 491 534 532
f 532 534 529
f 522 526 517
f 115 531 116
f 488 534 491
f 28 525 26
f 128 525 28
f 116 516 158
f 527 524 529
f 532 524 515
f 138 518 517
f 517 526 137
f 529 534 530
f 530 533 4
f 531 516 116
f 529 524 532
f 488 533 534
f 534 533 530
f 535 536 537
f 538 539 540
f 541 542 538
f 537 543 544
f 538 542 545
f 546 543 537
f 537 536 480
f 485 539 538
f 53 547 46
f 480 536 298
f 110 539 485
f 57 548 58
f 544 547 535
f 540 548 541
f 479 537 480
f 485 538 486
f 481 546 479
f 486 545 482
f 47 549 50
f 546 550 549
f 549 543 546
f 545 542 549
f 549 550 545
f 546 537 479
f 486 538 545
f 537 544 535
f 540 541 538
f 481 550 546
f 47 543 549
f 549 542 50
f 545 550 482
f 46 547 544
f 541 548 57
f 315 535 316
f 233 540 242
f 59 542 541
f 59 541 57
f 46 544 45
f 544 543 45
f 482 550 481
f 50 542 59
f 45 543 47
f 58 548 233
f 242 539 110
f 298 536 315
f 316 547 53
f 315 536 535
f 535 547 316
f 540 539 242
f 233 548 540
f 551 552 553
f 554 555 556
f 557 558 551
f 556 559 560
f 551 558 561
f 562 559 556
f 15 552 551
f 556 555 27
f 380 563 301
f 107 564 387
f 27 555 28
f 23 552 15
f 560 564 554
f 553 563 557
f 29 556 27
f 15 551 16
f 18 562 29
f 16 561 17
f 383 565 382
f 565 559 562
f 562 566 565
f 565 566 561
f 561 558 565
f 562 556 29
f 16 551 561
f 556 560 554
f 553 557 551
f 383 559 565
f 18 566 562
f 561 566 17
f 565 558 382
f 557 563 380
f 387 564 560
f 317 553 318
f 231 554 243
f 381 558 557
f 381 557 380
f 387 560 389
f 560 559 389
f 382 558 381
f 389 559 383
f 17 566 18
f 28 555 231
f 318 552 23
f 301 563 317
f 243 564 107
f 554 564 243
f 317 563 553
f 553 552 318
f 231 555 554
f 567 568 569
f 570 571 572
f 573 574 567
f 572 575 576
f 567 574 577
f 578 575 572
f 75 568 567
f 572 571 87
f 115 579 506
f 83 568 75
f 498 580 304
f 87 571 88
f 576 579 570
f 569 580 573
f 89 572 87
f 75 567 76
f 501 581 500
f 78 578 89
f 76 577 77
f 581 575 578
f 578 582 581
f 581 582 577
f 577 574 581
f 76 567 577
f 578 572 89
f 569 573 567
f 572 576 570
f 501 575 581
f 78 582 578
f 577 582 77
f 581 574 500
f 573 580 498
f 506 579 576
f 252 570 247
f 321 569 322
f 499 574 573
f 499 573 498
f 506 576 507
f 576 575 507
f 500 574 499
f 507 575 501
f 77 582 78
f 88 571 252
f 247 579 115
f 322 568 83
f 304 580 321
f 321 580 569
f 570 579 247
f 569 568 322
f 252 571 570
f 583 584 585
f 586 587 588
f 589 590 586
f 591 592 583
f 586 590 593
f 583 592 594
f 595 592 596
f 594 592 595
f 341 584 583
f 359 587 586
f 112 584 341
f 335 597 307
f 366 598 120
f 309 587 359
f 588 597 589
f 585 598 591
f 341 583 343
f 359 586 358
f 358 593 360
f 343 594 338
f 338 595 336
f 594 595 338
f 593 590 595
f 595 596 593
f 343 583 594
f 358 586 593
f 585 591 583
f 588 589 586
f 595 590 336
f 593 596 360
f 589 597 335
f 591 598 366
f 319 588 320
f 232 585 244
f 334 590 589
f 367 592 591
f 334 589 335
f 367 591 366
f 360 596 363
f 596 592 363
f 336 590 334
f 363 592 367
f 320 587 309
f 120 598 232
f 307 597 319
f 244 584 112
f 585 584 244
f 319 597 588
f 232 598 585
f 588 587 320
