v 6.79777352 -2.84163134 2.81516097
v 7.50296343 -2.63633495 3.00827825
v 7.08857979 -2.05760591 3.43019794
v 0.77754878 3.19988183 -2.40015755
v 1.74563232 3.11017516 -2.51531518
v 1.32156741 2.63316874 -3.01105004
v 6.34659801 -2.38944516 3.20788900
v 8.44972468 -3.81741098 -1.19472735
v 9.28024043 -3.70629542 -1.50445149
v 9.27814629 -3.93356194 -0.72600997
v 6.67302340 -1.41226394 3.74239369
v 5.94124931 -1.77207048 3.58605162
v 6.22337997 -0.77702414 3.92380345
v 5.42998185 -1.11202180 3.84231799
v 2.65684469 3.74415099 1.40759845
v 3.59720407 3.73157134 1.44061629
v 3.03654251 3.93584611 0.71352321
v 8.61975324 -3.96744745 -0.50927474
v 0.82281572 3.99998963 0.00910974
v 1.46166471 3.93143372 0.73744757
v 1.81364119 3.99995200 0.01959597
v 1.33492004 -2.64400599 -3.00153833
v 1.75092721 -3.12943461 -2.49131271
v 0.78212738 -3.20938009 -2.38744203
v 8.44131936 -3.09839214 -2.52981543
v 9.29180362 -2.82842712 -2.82842712
v 9.28157306 -3.34137782 -2.19890752
v 9.24422712 -2.14618901 -3.37548111
v 8.33174920 -2.02676402 -3.44851093
v 8.75007067 -1.41586005 -3.74103466
v 3.54617962 2.08516248 3.41351687
v 4.32708445 1.84005641 3.55164644
v 4.30958610 2.49018490 3.13033212
v 1.45674611 3.93975041 -0.69164057
v 3.67933887 2.62454988 3.01856554
v 8.29602646 3.10155621 -2.52593528
v 8.71984327 3.47768038 -1.97629430
v 9.23640017 3.03557476 -2.60485813
v 1.74878763 -2.06247958 -3.42726976
v 0.74346262 -2.02905279 -3.44716474
v 0.00000000 2.35114101 -3.23606798
v 0.84073768 1.99364138 -3.46776499
v 0.00000000 1.62694657 -3.65418183
v 0.60346673 2.67652243 -2.97257930
v 8.32021959 3.77576156 -1.32046381
v 9.27459848 3.78817785 -1.28440980
v 10.00000000 -0.81382405 3.91633635
v 9.22183213 -1.29197235 3.78560529
v 10.00000000 -1.59360436 3.66884521
v 9.43158805 -1.46741688 -3.72111377
v 8.43949142 -3.53628962 1.86939982
v 9.28185683 -3.59814863 1.74737703
v 8.82245926 -3.19301016 2.40929162
v 3.72679879 3.92211268 0.78551394
v 0.60205238 -2.67652243 -2.97257930
v 0.72386285 1.23606798 -3.80422607
v 3.04839022 3.44995936 2.02429750
v 1.28438980 -1.41670212 -3.74071586
v 0.00000000 -1.62694657 3.65418183
v 0.76841773 -1.29721236 3.78381290
v 0.00000000 -0.83164676 3.91259040
v 9.38116725 -0.61078947 3.95309198
v 9.28466329 -0.68536250 -3.94084740
v 8.33792865 -0.69200081 -3.93968715
v 8.65634236 -3.51905815 -1.90163870
v 8.72714757 0.01682737 -3.99996460
v 1.40259897 -3.54866956 -1.84579098
v 8.62631662 -2.58787514 -3.05006595
v 9.41578139 3.48664188 -1.96044087
v 9.47558346 -3.18722045 2.41694556
v 1.35490523 3.51404020 -1.91089547
v 8.74418444 -2.05732830 3.43036445
v 8.35268740 -2.64644755 2.99938583
v 9.29180362 -2.62881472 3.01485210
v 3.09146862 1.31939617 3.77613476
v 2.29120629 1.37170460 3.75744947
v 2.90440073 0.65662079 3.94573810
v 2.08333333 0.71874528 3.93489583
v 8.70950299 3.94635940 -0.65287632
v 0.72391445 3.91142168 0.83712632
v 8.62440156 2.60293071 -3.03722763
v 0.60959126 -0.60858324 3.95343224
v 3.52051169 3.99970450 0.04861980
v 4.30812994 3.97583522 0.43901511
v 5.41666667 -0.48282374 3.97075323
v 4.58333333 -0.71874528 3.93489583
v 4.69942628 -1.32052056 3.77574171
v 2.55192469 -1.43195717 3.73490276
v 2.61544864 -1.97050802 3.48096224
v 3.36230347 -1.79793328 3.57315490
v 0.72223831 3.91318061 -0.82886520
v 3.26630960 -1.20801270 3.81322768
v 4.22777535 3.99391946 -0.22047080
v 0.70672550 2.05228709 3.43338283
v 1.43517966 2.45180090 3.16048609
v 0.71438111 2.68595102 2.96406260
v 1.44233246 -3.04508936 2.59372913
v 1.41057450 -3.46410462 1.99999479
v 2.15672182 -3.29210253 2.27201694
v 8.37554274 -3.99831167 0.11620566
v 9.22347293 -3.99833809 0.11529312
v 8.00592171 -3.13757255 2.48105593
v 3.45989951 3.04740028 2.59101361
v 4.25160918 3.06930377 2.56502912
v 7.61428431 -3.52406659 1.89234106
v 6.99211786 -3.31531512 2.23800931
v 6.81931336 -3.67536932 1.57849940
v 2.16191845 -1.41530113 -3.74124614
v 1.76853652 -0.71621308 -3.93535752
v 2.17204734 -3.96161840 -0.55279258
v 1.40287987 -3.97676411 -0.43051972
v 1.77547442 -3.80909712 -1.22097467
v 5.83333333 4.00000000 0.00000000
v 5.41666667 3.93868256 -0.69769598
v 5.00000000 4.00000000 0.00000000
v 6.24274455 3.48370960 -1.96564682
v 5.83280283 3.08337380 -2.54809851
v 5.42320369 3.47460460 -1.98169696
v 6.64836061 3.09206843 -2.53754071
v 2.01996945 -2.83810129 2.81871975
v 3.75000000 0.71874528 3.93489583
v 7.07183057 2.59995253 -3.03977743
v 6.66293093 2.02662981 -3.44858980
v 6.24391843 2.59471218 -3.04425175
v 1.29855255 1.88221325 3.52948626
v 2.20263107 3.47637557 -1.97858861
v 1.80835400 3.76103727 -1.36183650
v 6.24739565 3.94037692 -0.68806230
v 4.63675838 3.92991431 -0.74550220
v 2.14880249 -3.90777789 0.85397423
v 1.40587398 -3.80010709 1.24867373
v 1.41003699 -3.97673794 0.43076134
v 7.08622663 1.39339066 -3.74946162
v 6.67748688 0.70875092 -3.93670829
v 6.25350806 1.38969168 -3.75083418
v 3.81413128 2.58866963 -3.04939167
v 3.39567580 2.01836770 -3.45343189
v 2.98280653 2.59738956 -3.04196770
v 6.26583418 0.00364462 -3.99999834
v 5.84904303 0.70391654 -3.93757559
v 2.57161727 2.03244595 -3.44516523
v 7.48027630 3.09771090 -2.53064956
v 7.06417932 3.49394570 -1.94739401
v 7.48854175 2.03065244 -3.44622267
v 7.13398108 -3.95662486 -0.58746888
v 7.95767629 -3.95783087 -0.57928822
v 7.53527539 -3.99955495 0.05966772
v 0.00000000 3.97808758 0.41811385
v 6.66666667 4.00000000 0.00000000
v 7.08205289 3.93978817 -0.69142547
v 0.00000000 3.46410162 -2.00000000
v 0.71588180 3.65137806 -1.63322939
v 5.83922989 2.01979624 -3.45259658
v 7.09089578 0.00581296 -3.99999578
v 6.71619421 -3.78974784 -1.27977003
v 7.11834109 -3.49959755 -1.93721888
v 7.53914977 -3.78711663 -1.28753547
v 6.68103238 -0.70271106 -3.93779090
v 1.23398497 -2.01760507 3.45387750
v 0.55638594 -2.00000000 3.46410162
v 0.74817427 -2.65931299 2.98798501
v 4.16666667 -0.00000000 4.00000000
v 3.33333333 -0.00000000 4.00000000
v 3.02606435 3.93992154 -0.69066511
v 3.81413069 3.92743726 -0.75844354
v 3.42610178 3.07393841 -2.55947311
v 2.58042057 3.08766209 -2.54290047
v 3.02353644 3.47039142 -1.98906595
v 3.05020236 2.55135496 3.08067977
v 2.65017186 3.04144058 2.59800677
v 5.81982560 3.76342773 -1.35521650
v 2.62656725 3.99997039 0.01539074
v 7.13779702 -3.92426441 0.77469273
v 6.72772619 -3.99779623 0.13276047
v 6.33297803 -3.90901238 0.84830549
v 7.93711072 -3.49662645 -1.94257651
v 7.50329325 -0.69686338 -3.93882996
v 7.91666667 3.93489583 -0.71874528
v 7.50000000 4.00000000 0.00000000
v 2.22984204 3.93569984 0.71432959
v 0.00000000 2.35114101 3.23606798
v 2.23743728 3.45087899 2.02272940
v 0.70154448 3.65187905 1.63210888
v 0.00000000 3.80422607 1.23606798
v 0.70438495 3.23076219 2.35842653
v 0.00000000 3.46410162 2.00000000
v 2.57794566 -2.05735552 -3.43034813
v 3.40542806 -2.04871636 -3.43551470
v 2.99208790 -2.63271769 -3.01144444
v 7.09683851 -1.38511641 -3.75252615
v 0.00000000 3.97808758 -0.41811385
v 0.00000000 3.80422607 -1.23606798
v 2.15645132 2.60658740 -3.03409000
v 7.08492741 -0.71764918 3.93509589
v 7.50177717 -1.41029094 3.74313765
v 7.91544557 -0.71670672 3.93526765
v 0.00000000 2.97257930 2.67652243
v 8.33036439 -1.40387021 3.74555048
v 8.72961996 -0.70696392 3.93702959
v 5.49673960 -3.90832840 0.85145119
v 5.90397171 -3.99762464 0.13783043
v 7.50000000 0.00000000 4.00000000
v 2.67910764 1.98858267 3.47066838
v 0.00000000 2.97257930 -2.67652243
v 8.33333333 4.00000000 0.00000000
v 6.27498469 -1.38971436 -3.75082578
v 2.99643704 -3.51821659 -1.90319522
v 3.41325688 -3.79799581 -1.25508081
v 2.58299391 -3.79780123 -1.25566948
v 2.25680427 2.53173348 3.09682508
v 7.91687854 -2.05412236 3.43228515
v 3.82460259 -3.51283168 -1.91311620
v 6.69123269 -2.02940442 -3.44695775
v 5.47443234 -3.50731256 -1.92321570
v 5.87991147 -3.10830568 -2.51762503
v 6.29888324 -3.50477106 -1.92784330
v 5.44618204 -0.00153825 -3.99999970
v 5.91611847 -3.69463967 1.53285281
v 8.33333333 0.00000000 4.00000000
v 9.16666667 0.00000000 4.00000000
v 10.00000000 1.33951845 -3.76904369
v 9.29180362 1.71793377 -3.61229893
v 10.00000000 2.07833580 -3.41767762
v 0.70919556 -3.65648481 -1.62176411
v 0.00000000 -3.46410162 -2.00000000
v 6.70114391 -3.10384894 -2.52311747
v 7.49747807 0.71484421 -3.93560640
v 7.89404342 1.39376454 -3.74932266
v 8.31387627 0.71946534 -3.93476424
v 4.21591596 0.69910715 -3.93843233
v 3.80441143 1.38323239 -3.75322104
v 4.62371426 1.38079884 -3.75411702
v 5.89197752 -3.79262976 -1.27120395
v 1.40004829 3.45737522 2.01160547
v 3.81754971 -2.62467587 -3.01845599
v 7.90940552 0.01310684 -3.99997853
v 0.72358039 0.41762214 -3.97813923
v 0.00000000 0.83164676 -3.91259040
v 2.16864923 1.39282813 -3.74967062
v 2.98256500 1.38288816 -3.75334788
v 6.32385149 -3.35976829 2.17070428
v 5.86997206 -2.03341133 -3.44459553
v 0.00000000 -3.80422607 1.23606798
v 0.71861566 -3.91263083 0.83145652
v 0.72065308 -3.65419987 1.62690605
v 1.74666526 2.03287851 -3.44491001
v 5.86029193 -0.70583493 -3.93723216
v 9.29692762 2.40938047 -3.19294312
v 0.72788494 -3.23298067 2.35538447
v 0.71266479 -3.99999966 -0.00164286
v 6.66666667 0.00000000 4.00000000
v 6.30928079 -3.95778267 -0.57961741
v 0.00000000 -3.80422607 -1.23606798
v 0.70079481 -3.91127436 -0.83781437
v 0.00000000 1.62694657 3.65418183
v 0.00000000 -2.97257930 -2.67652243
v 7.91778478 -1.37996047 -3.75442527
v 0.00000000 -0.00000000 -4.00000000
v 0.66179075 -0.38638849 -3.98129425
v 5.07718879 -3.99739265 0.14440209
v 9.10710519 0.65357578 -3.94624362
v 0.00000000 -3.97808758 -0.41811385
v 0.00000000 -2.97257930 2.67652243
v 7.51222849 -2.02464395 -3.44975606
v 7.10666345 -2.60536602 -3.03513886
v 8.11809242 -3.80672286 1.22835707
v 10.00000000 2.73021257 -2.92334386
v 6.28549305 -2.60965515 -3.03145180
v 0.00000000 -0.83164676 -3.91259040
v 0.00000000 -1.62694657 -3.65418183
v 0.00000000 -2.35114101 -3.23606798
v 7.91790831 -2.59658702 -3.04265277
v 3.74978769 -0.71862421 3.93491795
v 3.86952669 -1.31725675 3.77688161
v 2.57211239 0.69871088 -3.93850265
v 3.39526750 0.69989670 -3.93829209
v 5.50798426 -3.36007894 2.17022337
v 2.17188750 -3.52371608 -1.89299366
v 0.00000000 -3.97808758 0.41811385
v 5.08867299 -3.69212371 1.53890302
v 0.00000000 -3.46410162 2.00000000
v 0.00000000 -2.35114101 3.23606798
v 5.48452150 -3.95870733 -0.57326804
v 5.06715458 -3.79445755 -1.26573769
v 5.92577729 -2.92084412 2.73288668
v 7.87990524 2.60899391 -3.03202091
v 4.66922598 -3.90678871 0.85848820
v 2.50000000 -0.00000000 4.00000000
v 1.66666667 -0.00000000 4.00000000
v 2.91666667 -0.71874528 3.93489583
v 5.02235304 3.75709798 -1.37266703
v 5.05703620 -3.11160200 -2.51354988
v 7.52183457 -3.09780203 -2.53053800
v 5.46365666 -2.61378209 -3.02789418
v 2.08327233 -0.71891366 3.93486507
v 5.02314240 3.07799081 -2.55459831
v 4.64988597 -3.51026375 -1.91782388
v 5.45460486 -1.39357908 -3.74939160
v 5.04833481 -2.03795057 -3.44191189
v 5.00000000 0.00000000 4.00000000
v 8.27225896 2.04729805 -3.43636010
v 5.42913877 2.58881358 -3.04926946
v 3.00210279 -3.96102358 -0.55703881
v 2.62656199 -2.91093947 2.74343423
v 3.01726026 -3.35218489 2.18239695
v 3.43787931 -2.90791286 2.74664210
v 1.64549040 -1.36136554 3.76120777
v 10.00000000 -2.52435178 -3.10284516
v 10.00000000 -1.84026015 -3.55154087
v 1.25164722 0.70106149 3.93808491
v 4.26916149 -2.91223953 2.74205414
v 3.84857629 -3.35379724 2.17991837
v 4.68043787 -3.35658687 2.17562051
v 10.00000000 -3.96274378 0.54466660
v 10.00000000 -3.99067508 -0.27296965
v 5.51903509 -2.38275714 3.21285985
v 5.12762058 -1.82852653 3.55759620
v 10.00000000 -3.85166915 -1.07918708
v 10.00000000 -3.55154087 -1.84026015
v 3.85898487 -2.37150677 3.22117302
v 3.04542576 -2.42478001 3.18126420
v 1.25000000 -0.71874528 3.93489583
v 10.00000000 -3.10284516 -2.52435178
v 0.83333333 -0.00000000 4.00000000
v 10.00000000 -3.76904369 1.33951845
v 9.31544933 -3.88251271 0.96233834
v 10.00000000 -1.07918708 -3.85166915
v 10.00000000 -0.27296965 -3.99067508
v 5.04074829 -0.71040898 -3.93640941
v 4.68962854 -2.37693597 3.21716885
v 5.09890543 -2.91625935 2.73777855
v 10.00000000 3.26787957 -2.30672129
v 10.00000000 -3.41767762 2.07833580
v 4.27469175 -1.86047309 3.54099419
v 5.03264138 0.70077141 -3.93813654
v 4.62792201 -0.00581970 -3.99999577
v 2.16600288 -2.64189382 -3.00339759
v 3.42165748 -3.99691781 0.15699679
v 3.01292076 -3.90506648 0.86628849
v 2.61270301 -3.99718506 0.15003861
v 8.67600520 -3.93365615 0.72549933
v 2.25045710 -2.43164022 3.17602359
v 4.25032807 -3.99716464 0.15058170
v 4.23375923 -3.11525001 -2.50902718
v 4.64115546 -2.61786404 -3.02436570
v 4.65901407 -3.95958404 -0.56718097
v 3.83159364 -3.96033908 -0.56188469
v 2.98878762 -1.40706476 -3.74435158
v 4.26056540 -3.68997108 1.54405745
v 7.88289020 3.49695244 -1.94198960
v 4.24209716 -3.79635611 -1.26003185
v 4.63430779 -1.39764976 -3.74787608
v 10.00000000 -2.30672129 3.26787957
v 10.00000000 -2.92334386 2.73021257
v 2.22183329 3.94223531 -0.67733355
v 5.43602851 1.38267004 -3.75342824
v 1.84880817 3.76054856 1.36318543
v 4.62247867 2.58701838 -3.05079266
v 10.00000000 3.66884521 -1.59360436
v 10.00000000 3.91633635 -0.81382405
v 4.22608389 -2.04183827 -3.43960702
v 3.39854414 -0.71822979 -3.93498996
v 2.57442839 -0.72402830 -3.93392717
v 4.21888868 2.01553507 -3.45508587
v 3.80771804 -0.00947797 -3.99998877
v 2.98561080 -0.01158035 -3.99998324
v 3.84183614 -3.90555639 0.86407715
v 5.02834162 2.01672000 -3.45439436
v 4.22103539 -0.71455416 -3.93565908
v 4.62206964 3.47303017 -1.98445495
v 5.00000000 3.69551813 1.53073373
v 4.33279700 3.53409514 1.87354518
v 5.00000000 3.32587845 2.22228093
v 5.83333333 0.00000000 4.00000000
v 3.43268141 -3.68850914 1.54754654
v 1.77869982 0.74693668 -3.92964192
v 2.16654541 0.01060729 -3.99998594
v 3.81505880 -1.40204356 -3.74623462
v 5.00000000 2.82842712 2.82842712
v 5.00000000 2.22228093 3.32587845
v 5.00000000 3.92314112 0.78036129
v 4.32703131 3.82807704 1.16009748
v 3.41864799 3.75478427 -1.37898337
v 2.62127777 3.76380178 -1.35417729
v 4.22142697 3.07790108 -2.55470643
v 2.60332539 -3.68225337 1.56237324
v 5.00000000 1.53073373 3.69551813
v 1.85944882 3.02270938 2.61977633
v 4.22271053 3.75525721 -1.37769491
v 7.49604662 -3.78135455 1.30436104
v 3.41135324 -3.12116223 -2.50166871
v 1.89074539 1.95529148 3.48953224
v 1.42571523 1.41496331 -3.74137392
v 7.41933407 -3.06346764 2.57199651
v 6.65217656 3.76559143 -1.34919278
v 1.15218196 -3.80425771 -1.23597059
v 3.82677421 3.47117346 -1.98770089
v 2.58389538 -3.12250364 -2.49999421
v 9.40622856 1.19537318 -3.81720879
v 10.00000000 0.54466660 -3.96274378
v 3.71211640 3.41220833 2.08730312
v 9.16666667 4.00000000 0.00000000
v 9.40187243 0.03127854 -3.99987770
v 0.00000000 0.83164676 3.91259040
v 0.73953284 1.33871209 3.76933017
v 1.55515488 -2.55741472 3.07565114
v 2.00684026 -1.91504139 3.51178252
v 9.42686057 -1.98614936 3.47206145
v 1.21010036 3.79893403 1.25223810
v 8.68389323 1.41916306 -3.73978291
v 4.37343949 1.19036683 3.81877295
v 0.58775688 -1.23606798 -3.80422607
v 3.76459345 1.36386611 3.76030175
v 1.34920400 0.00614305 -3.99999528
v 1.96560851 -3.99971088 0.04809215
v 5.00000000 0.78036129 3.92314112
v 7.47235044 3.76844510 -1.34120152
v 7.94712272 -3.94345090 0.67022010
v 10.00000000 0.00000000 4.00000000
v 1.57995023 1.34397491 3.76745689
v 1.19422775 3.80585624 -1.23103950
v 0.00000000 0.00000000 4.00000000
v 0.60969874 0.60868952 3.95341587
v 10.00000000 4.00000000 -0.00000000
v 9.39375689 3.95358032 -0.60762051
v 1.14981553 -0.84750862 -3.90918523
v 4.42219488 0.58621174 3.95681132
v 1.94266296 -3.64711522 1.64272657
v 1.20630226 2.97290029 2.67616588
v 8.74102392 -3.78541827 1.29252022
v 8.88115544 2.07799606 -3.41788419
v 1.15778612 0.83140072 -3.91264269
v 10.00000000 3.23464794 0.00000000
v 10.00000000 0.00000000 3.23464794
v 10.00000000 3.08565472 -0.97881186
v 10.00000000 -0.97857971 3.08590743
v 10.00000000 -3.06552878 -1.23036433
v 10.00000000 -2.70588369 -1.84296923
v 10.00000000 -2.21892859 -1.22932544
v 10.00000000 -2.66132892 -0.71444596
v 10.00000000 1.29845603 -2.16016056
v 10.00000000 1.37617950 -2.95982412
v 10.00000000 2.00762554 -2.61987036
v 10.00000000 -2.62013963 2.00857764
v 10.00000000 -2.95959997 1.37851506
v 10.00000000 -2.15350019 1.30077131
v 10.00000000 2.85078501 -1.60291640
v 10.00000000 -1.60291640 2.85078501
v 10.00000000 0.78616043 -2.61553169
v 10.00000000 -2.58849946 0.79782169
v 10.00000000 -2.02362224 -1.85706071
v 10.00000000 -1.51162690 -2.32331739
v 10.00000000 -0.85687604 -1.82656454
v 10.00000000 -1.45473753 -1.56093999
v 10.00000000 -0.71139039 -2.54398730
v 10.00000000 2.30247738 -1.26154076
v 10.00000000 -1.24219995 2.31909913
v 10.00000000 2.58609676 -0.56261546
v 10.00000000 -0.56159762 2.58698486
v 10.00000000 0.72486576 -3.22724828
v 10.00000000 0.06447757 -2.73260412
v 10.00000000 0.07794101 -3.42327622
v 10.00000000 -0.31254794 -1.21822071
v 10.00000000 0.22190152 -1.52377029
v 10.00000000 0.37372984 -0.76384970
v 10.00000000 -3.29690809 -0.54982048
v 10.00000000 -0.56235263 -3.24342525
v 10.00000000 -2.31873849 -2.42415448
v 10.00000000 -3.23206094 0.73079077
v 10.00000000 -1.44409481 -0.82430528
v 10.00000000 0.00000000 0.80866199
v 10.00000000 -0.70097234 0.40463209
v 10.00000000 0.00000000 0.00000000
v 10.00000000 0.80866199 0.00000000
v 10.00000000 1.20490655 -0.70944163
v 10.00000000 1.61732397 0.00000000
v 10.00000000 0.00000000 1.61732397
v 10.00000000 -0.69944653 1.21052742
v 10.00000000 0.00000000 2.42598596
v 10.00000000 -0.68999958 2.00392168
v 10.00000000 2.00373756 -0.68997728
v 10.00000000 2.42598596 0.00000000
v 10.00000000 -1.40315523 0.80857305
v 10.00000000 -1.40395754 -0.01159055
v 10.00000000 -2.05209042 0.40400284
v 10.00000000 -0.70581078 -0.47436277
v 10.00000000 0.83667882 -1.43483045
v 10.00000000 0.42259332 -2.09899638
v 10.00000000 -2.05936706 -0.41032839
v 10.00000000 -1.36696448 1.59604225
v 10.00000000 -0.94540295 -1.19936672
v 10.00000000 1.58495332 -1.36581733
v 10.00000000 2.09596313 -1.88949906
v 10.00000000 -1.88844974 2.09866939
v 10.00000000 2.56815370 -2.28006627
v 10.00000000 -2.28040718 2.56851868
v 10.00000000 -0.17871801 -0.66690218
v 10.00000000 -2.74861090 0.04183320
v 10.00000000 -1.27958303 -3.05943266
v 10.00000000 -3.44619976 0.09890009
v 10.00000000 -0.19530699 -1.99069056
v 10.00000000 -1.89491207 -2.89225811
v 9.29967818 2.02165496 0.00000000
v 9.34761015 2.82642084 0.00000000
v 8.47935745 2.45730289 0.00000000
v 8.75408274 3.33682276 0.00000000
v 6.48074606 2.43732161 0.00000000
v 5.60975963 2.83031695 0.00000000
v 5.69253438 2.02323808 0.00000000
v 8.67866280 1.62438108 0.00000000
v 7.06694260 3.25483223 0.00000000
v 7.46330016 2.45768039 0.00000000
v 6.20573435 3.32754433 0.00000000
v 7.93283605 3.25110638 0.00000000
v 9.00000000 0.00000000 0.00000000
v 8.53160293 0.84162974 0.00000000
v 8.00000000 0.00000000 0.00000000
v 7.47675827 0.85322013 0.00000000
v 7.02187883 1.64747839 0.00000000
v 6.44042731 0.84261887 0.00000000
v 7.00000000 0.00000000 0.00000000
v 7.89165875 1.65900904 0.00000000
v 9.36913413 0.57857357 0.00000000
v 9.31406774 1.24257611 0.00000000
v 6.00000000 0.00000000 0.00000000
v 6.27483087 1.62824662 0.00000000
v 5.00000000 1.61732397 0.00000000
v 5.00000000 2.42598596 0.00000000
v 5.00000000 0.80866199 0.00000000
v 5.67305304 1.24300482 0.00000000
v 5.62269607 0.57885713 0.00000000
v 5.00000000 0.00000000 0.00000000
v 9.42170715 3.44134158 0.00000000
v 5.00000000 3.23464794 0.00000000
v 5.52976546 3.47850185 0.00000000
v 5.00000000 0.00000000 3.23464794
v 5.00000000 0.95842022 3.15948803
v 5.00000000 1.38527270 2.31889594
v 5.00000000 2.19787648 1.83529612
v 5.00000000 2.12766549 2.55323876
v 5.00000000 3.31019555 0.89994584
v 5.00000000 1.62778204 1.39263514
v 5.00000000 1.11132481 1.74873862
v 5.00000000 2.76299793 0.70613198
v 5.00000000 0.60312802 2.63056942
v 5.00000000 0.76029731 1.26959417
v 5.00000000 1.21770105 0.68389822
v 5.00000000 1.64487461 3.01060386
v 5.00000000 2.01494906 0.64752517
v 5.00000000 2.67396265 2.16201897
v 5.00000000 0.00000000 1.61732397
v 5.00000000 0.67194720 2.01382925
v 5.00000000 0.00000000 2.42598596
v 5.00000000 2.93467260 1.48250219
v 5.00000000 0.00000000 0.80866199
v 5.00000000 2.30765562 1.21281812
v 5.00000000 0.59198166 0.59198166
v 0.00000000 3.15216082 0.66279071
v 0.00000000 2.22090522 0.43612614
v 0.00000000 2.63987180 1.13622136
v 0.00000000 2.82185414 0.00000000
v 0.00000000 -0.36087781 3.31410117
v 0.00000000 0.18038212 2.63416676
v 0.00000000 -0.79484309 2.69165308
v 0.00000000 -0.46818509 1.99500407
v 0.00000000 -1.89712692 1.86797274
v 0.00000000 -1.71688450 0.99548125
v 0.00000000 -2.51616715 1.22841549
v 0.00000000 2.23922232 -0.43909684
v 0.00000000 3.09952273 -0.67639997
v 0.00000000 2.36856360 -1.21698188
v 0.00000000 -2.14722240 -1.21704528
v 0.00000000 -2.63422599 -1.94978238
v 0.00000000 -2.99042629 -1.31050309
v 0.00000000 1.02032603 -3.10315338
v 0.00000000 0.48353035 -2.39118442
v 0.00000000 1.16450881 -2.28404081
v 0.00000000 -2.63876321 -0.76133600
v 0.00000000 -2.72821418 1.94020858
v 0.00000000 0.31365025 -3.23997363
v 0.00000000 -0.31082536 -2.56516199
v 0.00000000 3.08367633 -1.40142387
v 0.00000000 1.67778436 2.80129958
v 0.00000000 2.62943291 1.87332143
v 0.00000000 1.96718238 1.27092334
v 0.00000000 1.78504945 2.02081870
v 0.00000000 1.62694657 -2.81795412
v 0.00000000 1.75043743 -1.88292735
v 0.00000000 2.26671183 -2.50521246
v 0.00000000 -1.60970500 2.77107223
v 0.00000000 -2.31175328 2.49836879
v 0.00000000 2.63245485 -1.91259040
v 0.00000000 -1.25508239 2.16017083
v 0.00000000 -0.38190739 -3.36498312
v 0.00000000 -2.35658874 0.46228364
v 0.00000000 -1.87029121 -2.01652512
v 0.00000000 0.98656229 3.09301161
v 0.00000000 0.84291382 -1.60034400
v 0.00000000 0.11177592 -1.86717749
v 0.00000000 1.02146364 2.28344160
v 0.00000000 -2.14527957 -0.32625658
v 0.00000000 -1.41365126 -0.62565819
v 0.00000000 -1.55922759 0.19662580
v 0.00000000 -0.77831736 -0.09999282
v 0.00000000 -0.64473133 -0.92013168
v 0.00000000 0.10729302 -1.18532297
v 0.00000000 0.77819477 -0.68697607
v 0.00000000 0.65134630 0.12927963
v 0.00000000 1.43337009 -0.17008673
v 0.00000000 1.56112666 -0.98011837
v 0.00000000 -0.00121135 -0.39195486
v 0.00000000 0.38525531 1.77393290
v 0.00000000 -0.26469445 1.24396641
v 0.00000000 0.51949071 0.95389354
v 0.00000000 -0.12988005 0.42740987
v 0.00000000 -1.05862414 1.50725323
v 0.00000000 -0.91042346 0.72418217
v 0.00000000 1.30087395 0.65561253
v 0.00000000 1.16609997 1.47475146
v 0.00000000 -3.30781008 -0.64458688
v 0.00000000 -3.19083017 0.67653878
v 0.00000000 -1.00550828 -3.09463628
v 0.00000000 -1.27908241 -1.44673303
v 0.00000000 -0.52416505 -1.71726464
v 0.00000000 -1.13810893 -2.27723664
v 0.00000000 -1.71734321 -2.80256746
v 0.00000000 0.32754267 3.39077399
v 0.00000000 2.28319740 2.52160602
v 0.00000000 -2.86127751 -0.04812794
v 0.00000000 -2.30911615 -2.53629307
v 0.00000000 -1.05877298 3.28568253
v 0.00000000 3.42583596 -0.00194418
v 0.00000000 -3.48800882 -0.00117901
v 0.00000000 -3.17335299 1.42200704
v 0.00000000 3.16416409 1.39775597
v 8.48776470 0.00000000 2.43246686
v 9.39769900 0.00000000 2.83031695
v 9.29538598 0.00000000 2.02345409
v 8.78689518 0.00000000 3.32325304
v 5.69861962 0.00000000 2.02481872
v 5.67223562 0.00000000 2.81127333
v 6.51237701 0.00000000 2.44843072
v 8.68762631 0.00000000 1.62896958
v 7.08333333 0.00000000 3.27831216
v 7.46760623 0.00000000 2.45565190
v 6.24412425 0.00000000 3.29241506
v 7.91265720 0.00000000 3.23371276
v 8.53113648 0.00000000 0.84225358
v 6.43966665 0.00000000 0.84415658
v 7.02271891 0.00000000 1.64987050
v 7.47201211 0.00000000 0.85700380
v 7.89262894 0.00000000 1.65959229
v 9.36889925 0.00000000 0.57877910
v 9.31335977 0.00000000 1.24297994
v 6.28351206 0.00000000 1.62378905
v 5.67393649 0.00000000 1.24352455
v 5.62272063 0.00000000 0.57926862
v 5.54993864 0.00000000 3.46766727
v 9.47025217 0.00000000 3.47764359
f 1 2 3
f 4 5 6
f 3 7 1
f 8 9 10
f 11 7 3
f 12 7 11
f 11 13 12
f 12 13 14
f 15 16 17
f 10 18 8
f 19 20 21
f 22 23 24
f 25 26 27
f 28 29 30
f 31 32 33
f 21 34 19
f 33 35 31
f 36 37 38
f 39 22 40
f 41 42 43
f 6 44 4
f 37 45 46
f 47 48 49
f 30 50 28
f 51 52 53
f 16 54 17
f 24 55 22
f 43 42 56
f 57 16 15
f 40 58 39
f 59 60 61
f 47 62 48
f 63 30 64
f 27 65 25
f 64 66 63
f 23 67 24
f 25 68 26
f 37 69 38
f 52 70 53
f 4 71 5
f 72 73 74
f 75 76 77
f 73 53 74
f 77 76 78
f 46 45 79
f 80 20 19
f 38 81 36
f 60 82 61
f 83 54 84
f 14 85 86
f 86 87 14
f 88 89 90
f 41 44 42
f 22 55 40
f 46 69 37
f 19 34 91
f 90 92 88
f 84 93 83
f 94 95 96
f 97 98 99
f 28 68 29
f 100 18 101
f 73 2 102
f 103 35 104
f 105 106 107
f 39 58 108
f 108 58 109
f 110 111 112
f 8 65 9
f 113 114 115
f 116 117 118
f 73 102 53
f 119 117 116
f 99 120 97
f 75 77 121
f 122 123 124
f 94 125 95
f 126 71 127
f 124 119 122
f 113 128 114
f 114 129 115
f 130 131 132
f 133 134 135
f 135 123 133
f 136 137 138
f 139 140 134
f 134 140 135
f 138 137 141
f 142 119 143
f 144 123 122
f 145 146 147
f 104 35 33
f 119 116 143
f 148 80 19
f 149 150 128
f 122 119 142
f 146 100 147
f 133 123 144
f 151 152 4
f 63 50 30
f 153 123 135
f 134 154 139
f 155 156 157
f 124 123 153
f 139 154 158
f 102 51 53
f 159 160 161
f 162 121 163
f 164 83 165
f 166 167 168
f 169 103 170
f 128 171 114
f 124 117 119
f 17 83 172
f 147 173 174
f 157 146 145
f 172 83 164
f 174 173 175
f 157 156 176
f 149 128 113
f 158 154 177
f 178 150 179
f 180 17 172
f 94 96 181
f 170 103 57
f 101 18 10
f 182 57 15
f 183 80 184
f 185 183 186
f 187 188 189
f 190 158 177
f 19 91 191
f 91 152 192
f 193 138 141
f 138 167 166
f 194 195 196
f 184 80 148
f 148 19 191
f 197 185 186
f 196 198 199
f 200 201 175
f 194 196 202
f 192 152 151
f 203 31 169
f 197 96 185
f 179 150 149
f 151 4 204
f 176 8 157
f 198 48 199
f 205 178 179
f 175 201 174
f 190 206 158
f 207 208 209
f 210 169 170
f 211 72 198
f 212 208 207
f 195 198 196
f 211 2 73
f 175 173 107
f 213 206 190
f 211 73 72
f 180 15 17
f 214 215 216
f 217 140 139
f 186 183 184
f 195 211 198
f 218 175 107
f 219 199 220
f 219 196 199
f 72 48 198
f 221 222 223
f 191 91 192
f 24 224 225
f 216 156 155
f 216 215 226
f 227 228 229
f 230 231 232
f 233 216 155
f 185 234 183
f 189 188 235
f 236 227 229
f 56 237 238
f 227 133 228
f 239 141 240
f 218 107 241
f 236 229 66
f 242 206 213
f 200 175 218
f 243 244 245
f 177 236 64
f 102 105 51
f 246 193 141
f 3 2 211
f 217 139 247
f 222 248 223
f 249 97 161
f 182 170 57
f 155 157 145
f 250 132 244
f 214 216 233
f 251 194 202
f 133 144 228
f 233 155 252
f 181 96 197
f 253 224 254
f 255 94 181
f 155 145 252
f 256 24 225
f 190 177 257
f 258 237 259
f 260 201 200
f 202 196 219
f 8 146 157
f 229 261 66
f 236 66 64
f 254 250 262
f 263 249 161
f 213 264 265
f 105 266 51
f 177 64 257
f 267 248 38
f 242 213 268
f 145 147 174
f 258 259 269
f 43 56 238
f 253 254 262
f 270 40 271
f 264 29 272
f 273 274 86
f 275 240 276
f 218 241 277
f 278 207 209
f 250 244 279
f 6 5 193
f 200 218 280
f 213 190 264
f 225 224 253
f 264 272 265
f 213 265 268
f 190 257 264
f 279 244 243
f 195 3 211
f 238 237 258
f 86 274 87
f 139 158 247
f 245 249 281
f 262 250 279
f 263 161 282
f 233 252 283
f 214 233 284
f 241 1 285
f 144 122 286
f 260 200 287
f 288 78 289
f 243 245 281
f 288 290 163
f 114 291 129
f 281 249 263
f 292 215 214
f 276 231 230
f 177 154 236
f 272 25 293
f 141 137 240
f 242 268 294
f 295 88 290
f 162 273 86
f 290 273 163
f 288 295 290
f 118 117 296
f 292 214 297
f 298 242 299
f 298 206 242
f 64 30 257
f 145 174 252
f 227 134 133
f 163 273 162
f 257 29 264
f 162 86 300
f 144 301 228
f 240 231 276
f 112 278 209
f 223 248 267
f 296 117 302
f 289 295 288
f 110 209 303
f 304 305 306
f 272 293 265
f 30 29 257
f 218 277 280
f 307 88 295
f 308 28 309
f 233 283 284
f 25 176 293
f 78 310 289
f 200 280 287
f 311 312 313
f 314 101 315
f 316 12 317
f 318 9 319
f 60 159 307
f 320 90 321
f 242 294 299
f 322 307 295
f 323 26 308
f 289 310 324
f 324 322 289
f 315 10 318
f 214 284 297
f 241 285 277
f 322 295 289
f 236 154 227
f 325 326 314
f 319 27 323
f 327 63 328
f 320 306 311
f 217 247 329
f 265 226 268
f 330 311 331
f 304 99 305
f 268 215 294
f 322 60 307
f 10 9 318
f 305 312 306
f 227 154 134
f 144 286 301
f 275 239 240
f 294 215 292
f 326 101 314
f 308 26 28
f 267 38 332
f 110 112 209
f 330 320 311
f 247 298 329
f 283 201 260
f 333 52 325
f 12 14 317
f 320 334 90
f 320 321 306
f 335 217 336
f 252 201 283
f 247 206 298
f 293 226 265
f 321 304 306
f 316 7 12
f 187 337 39
f 338 339 340
f 209 208 303
f 101 341 100
f 1 7 285
f 158 206 247
f 210 203 169
f 321 342 304
f 194 11 195
f 239 246 141
f 260 287 343
f 316 317 330
f 292 297 344
f 294 292 345
f 283 260 346
f 302 124 153
f 316 330 331
f 343 347 346
f 174 201 252
f 27 26 323
f 348 187 108
f 132 131 244
f 226 215 268
f 285 316 331
f 280 349 287
f 142 143 350
f 338 303 347
f 294 345 299
f 347 208 351
f 195 11 3
f 21 180 172
f 339 130 340
f 330 334 320
f 315 101 10
f 283 346 284
f 340 110 303
f 313 312 349
f 343 338 347
f 298 299 352
f 353 74 354
f 355 172 164
f 260 343 346
f 319 9 27
f 217 329 336
f 153 135 356
f 122 142 286
f 325 52 326
f 357 182 15
f 296 302 358
f 285 331 277
f 338 340 303
f 337 22 39
f 284 351 297
f 297 212 344
f 359 46 360
f 292 344 345
f 351 208 212
f 344 235 345
f 299 361 352
f 298 352 329
f 317 334 330
f 362 348 363
f 246 6 193
f 306 312 311
f 345 361 299
f 364 137 136
f 311 313 331
f 365 362 366
f 187 39 108
f 338 367 339
f 350 37 36
f 226 156 216
f 297 351 212
f 285 7 316
f 277 313 280
f 153 356 368
f 349 367 287
f 329 369 336
f 348 108 363
f 108 109 363
f 346 351 284
f 287 367 343
f 280 313 349
f 347 351 346
f 291 118 370
f 303 208 347
f 302 153 368
f 331 313 277
f 194 13 11
f 343 367 338
f 293 156 226
f 302 117 124
f 235 361 345
f 142 36 286
f 362 363 366
f 365 276 230
f 135 140 356
f 366 275 276
f 335 336 230
f 176 156 293
f 352 369 329
f 356 232 368
f 302 368 358
f 365 369 362
f 365 366 276
f 336 365 230
f 203 75 31
f 371 372 373
f 336 369 365
f 374 13 251
f 142 350 36
f 118 171 116
f 305 375 312
f 335 140 217
f 275 376 239
f 366 377 275
f 356 335 232
f 362 378 348
f 379 33 380
f 381 382 371
f 231 137 364
f 356 140 335
f 187 189 337
f 368 364 358
f 115 84 381
f 180 357 15
f 355 21 172
f 363 377 366
f 335 230 232
f 246 42 6
f 118 296 370
f 373 104 379
f 383 168 384
f 296 358 385
f 305 386 375
f 348 188 187
f 358 136 385
f 380 32 387
f 275 377 376
f 388 210 170
f 358 364 136
f 389 165 129
f 231 364 232
f 107 390 105
f 378 188 348
f 244 131 245
f 182 388 170
f 291 389 129
f 291 370 389
f 109 377 363
f 361 378 352
f 361 188 378
f 5 167 193
f 296 385 370
f 383 164 165
f 375 386 339
f 349 375 367
f 232 364 368
f 251 13 194
f 367 375 339
f 382 372 371
f 384 355 164
f 99 386 305
f 344 391 235
f 312 375 349
f 384 127 355
f 210 392 203
f 383 384 164
f 389 383 165
f 5 71 126
f 42 393 56
f 352 378 369
f 372 104 373
f 33 32 380
f 102 394 105
f 235 391 189
f 339 386 130
f 381 84 382
f 207 391 212
f 171 395 116
f 369 378 362
f 128 395 171
f 240 137 231
f 382 16 372
f 379 104 33
f 235 188 361
f 111 396 112
f 212 391 344
f 138 166 136
f 114 171 291
f 383 397 168
f 291 171 118
f 385 397 370
f 370 397 389
f 182 234 388
f 389 397 383
f 207 398 391
f 397 166 168
f 391 398 189
f 249 98 97
f 385 166 397
f 278 398 207
f 261 399 400
f 104 401 103
f 278 23 398
f 357 234 182
f 402 79 205
f 193 167 138
f 66 403 63
f 131 98 245
f 404 405 255
f 398 23 337
f 250 111 132
f 337 23 22
f 136 166 385
f 248 81 38
f 5 126 167
f 189 398 337
f 406 407 159
f 74 408 72
f 168 126 384
f 388 95 210
f 17 54 83
f 121 77 163
f 105 394 106
f 161 406 159
f 234 409 183
f 42 44 6
f 229 410 261
f 32 411 387
f 301 410 228
f 24 67 224
f 245 98 249
f 40 412 58
f 167 126 168
f 180 20 357
f 53 70 74
f 288 77 78
f 127 34 355
f 150 395 128
f 121 413 75
f 272 68 25
f 4 44 204
f 205 79 178
f 342 407 406
f 109 414 377
f 286 81 301
f 112 67 278
f 255 405 94
f 132 415 130
f 8 18 146
f 387 411 416
f 256 55 24
f 178 417 150
f 40 55 271
f 384 126 127
f 107 106 241
f 357 409 234
f 400 403 261
f 116 395 143
f 270 412 40
f 259 412 269
f 254 111 250
f 38 69 332
f 376 393 239
f 210 95 392
f 31 35 169
f 246 393 42
f 359 69 46
f 25 65 176
f 418 390 173
f 220 62 419
f 419 62 47
f 28 50 309
f 327 50 63
f 203 76 75
f 48 62 199
f 377 414 376
f 178 45 417
f 78 420 310
f 150 417 395
f 161 160 282
f 382 54 16
f 71 421 127
f 310 420 405
f 237 414 259
f 374 85 13
f 83 93 165
f 395 417 143
f 333 70 52
f 74 70 354
f 400 399 221
f 31 413 32
f 143 417 350
f 147 418 173
f 13 85 14
f 422 423 404
f 61 82 422
f 324 423 422
f 86 85 300
f 422 82 324
f 322 82 60
f 90 89 321
f 424 425 402
f 9 65 27
f 130 415 340
f 14 87 317
f 360 425 424
f 304 120 99
f 417 45 350
f 2 394 102
f 21 20 180
f 26 68 28
f 350 45 37
f 355 34 21
f 79 45 178
f 372 401 104
f 109 426 414
f 129 93 115
f 228 410 229
f 300 427 162
f 326 341 101
f 130 428 131
f 152 71 4
f 115 93 84
f 386 428 130
f 353 408 74
f 416 427 300
f 63 403 328
f 420 125 405
f 48 408 49
f 234 429 388
f 414 426 259
f 163 77 288
f 278 67 23
f 36 81 286
f 29 68 272
f 51 430 52
f 301 431 410
f 185 429 234
f 254 396 111
f 414 432 376
f 32 413 411
f 392 76 203
f 239 393 246
f 410 399 261
f 204 44 41
f 176 65 8
f 97 406 161
f 237 432 414
f 271 55 256
f 76 420 78
f 84 54 382
f 328 403 400
f 59 160 60
f 241 106 1
f 332 69 359
f 152 421 71
f 269 412 270
f 88 92 290
f 159 407 307
f 49 408 353
f 95 125 392
f 173 390 107
f 309 50 327
f 266 390 418
f 112 396 67
f 405 125 94
f 261 403 66
f 72 408 48
f 410 431 222
f 60 160 159
f 103 401 57
f 57 401 16
f 81 431 301
f 111 415 132
f 282 160 59
f 52 430 326
f 146 18 100
f 266 430 51
f 1 394 2
f 222 399 410
f 162 427 121
f 402 425 79
f 75 413 31
f 354 70 333
f 16 401 372
f 404 423 405
f 259 426 412
f 266 418 341
f 169 35 103
f 131 428 98
f 388 429 95
f 58 426 109
f 411 413 121
f 99 428 386
f 290 92 273
f 199 62 220
f 183 409 80
f 266 341 430
f 96 429 185
f 67 396 224
f 307 407 88
f 376 432 393
f 100 418 147
f 165 93 129
f 310 423 324
f 324 82 322
f 91 421 152
f 46 425 360
f 110 415 111
f 300 85 374
f 392 420 76
f 127 421 34
f 20 409 357
f 340 415 110
f 317 87 334
f 334 274 90
f 87 274 334
f 79 425 46
f 321 89 342
f 56 432 237
f 98 428 99
f 221 399 222
f 224 396 254
f 342 120 304
f 222 431 248
f 105 390 266
f 405 423 310
f 95 429 96
f 121 427 411
f 248 431 81
f 411 427 416
f 34 421 91
f 80 409 20
f 341 418 100
f 393 432 56
f 412 426 58
f 106 394 1
f 430 341 326
f 342 406 120
f 273 92 274
f 392 125 420
f 88 407 89
f 274 92 90
f 120 406 97
f 89 407 342
f 433 360 424
f 434 419 47
f 433 435 360
f 47 436 434
f 437 438 439
f 439 440 437
f 441 442 443
f 444 445 446
f 359 435 447
f 448 436 49
f 360 435 359
f 49 436 47
f 441 449 442
f 445 450 446
f 438 451 439
f 452 453 454
f 455 453 452
f 435 456 447
f 448 457 436
f 435 458 456
f 457 459 436
f 460 449 461
f 460 461 462
f 463 464 465
f 359 447 332
f 353 448 49
f 267 443 223
f 333 444 354
f 318 466 315
f 328 467 327
f 308 468 323
f 221 460 400
f 314 469 325
f 439 454 470
f 471 472 473
f 473 465 474
f 474 475 476
f 477 478 471
f 479 480 477
f 476 481 482
f 472 483 484
f 483 446 485
f 472 486 473
f 484 470 486
f 471 478 472
f 465 475 474
f 483 485 484
f 487 488 441
f 472 484 486
f 476 475 481
f 480 478 477
f 489 439 470
f 465 487 475
f 480 490 478
f 484 489 470
f 472 478 483
f 485 489 484
f 486 491 463
f 478 490 483
f 487 441 492
f 475 492 481
f 487 492 475
f 483 490 446
f 447 456 493
f 494 457 448
f 447 493 495
f 496 494 448
f 443 493 441
f 433 458 435
f 436 459 434
f 465 497 463
f 446 494 444
f 463 497 486
f 498 450 469
f 467 499 327
f 327 499 309
f 434 459 479
f 482 458 433
f 469 500 498
f 461 455 467
f 465 464 487
f 470 491 486
f 463 501 464
f 485 498 489
f 453 501 463
f 455 499 467
f 468 451 438
f 461 449 488
f 441 493 492
f 490 494 446
f 498 440 489
f 466 440 498
f 485 450 498
f 447 495 332
f 353 496 448
f 267 495 443
f 444 496 354
f 318 437 466
f 443 442 223
f 333 445 444
f 328 462 467
f 468 438 323
f 460 462 400
f 221 442 460
f 469 445 325
f 332 495 267
f 354 496 353
f 466 500 315
f 319 437 318
f 400 462 328
f 323 438 319
f 223 442 221
f 325 445 333
f 314 500 469
f 455 452 499
f 315 500 314
f 442 449 460
f 469 450 445
f 308 502 468
f 309 502 308
f 489 440 439
f 492 456 481
f 462 461 467
f 480 457 490
f 486 497 473
f 473 497 465
f 456 458 481
f 461 501 455
f 480 459 457
f 498 500 466
f 454 491 470
f 468 502 452
f 487 464 488
f 446 450 485
f 488 449 441
f 439 451 454
f 479 459 480
f 481 458 482
f 452 451 468
f 319 438 437
f 499 502 309
f 437 440 466
f 454 451 452
f 452 502 499
f 490 457 494
f 493 456 492
f 495 493 443
f 444 494 496
f 455 501 453
f 488 501 461
f 464 501 488
f 453 491 454
f 463 491 453
f 503 504 505
f 505 504 506
f 507 508 509
f 505 510 503
f 511 507 512
f 511 513 507
f 513 508 507
f 505 514 512
f 512 514 511
f 515 516 517
f 506 514 505
f 518 519 520
f 113 513 149
f 518 520 521
f 522 512 519
f 149 513 511
f 515 523 516
f 518 522 519
f 517 518 521
f 512 507 519
f 522 505 512
f 516 523 524
f 517 516 518
f 521 520 525
f 509 526 507
f 205 506 402
f 518 516 522
f 179 514 205
f 205 514 506
f 149 511 179
f 511 514 179
f 527 509 528
f 482 503 476
f 522 510 505
f 529 530 527
f 476 524 474
f 433 504 482
f 527 530 509
f 503 524 476
f 525 531 532
f 473 523 515
f 530 531 520
f 482 504 503
f 520 531 525
f 509 508 528
f 402 533 424
f 528 508 534
f 115 535 113
f 507 526 519
f 424 533 433
f 534 535 115
f 524 510 516
f 519 526 520
f 532 531 529
f 474 523 473
f 520 526 530
f 516 510 522
f 113 535 513
f 503 510 524
f 506 533 402
f 530 526 509
f 529 531 530
f 524 523 474
f 433 533 504
f 504 533 506
f 508 535 534
f 513 535 508
f 536 537 416
f 538 539 540
f 381 541 534
f 542 539 538
f 536 416 300
f 115 381 534
f 538 543 542
f 534 541 544
f 536 545 537
f 542 546 547
f 537 545 538
f 537 538 548
f 542 543 546
f 534 544 528
f 549 542 547
f 527 549 547
f 540 539 550
f 551 552 553
f 527 547 529
f 416 537 387
f 528 549 527
f 380 540 379
f 373 554 371
f 544 549 528
f 555 546 551
f 553 545 536
f 551 546 552
f 544 541 554
f 549 556 542
f 554 556 544
f 538 545 552
f 529 557 532
f 532 557 555
f 542 556 539
f 548 538 540
f 387 548 380
f 537 548 387
f 379 550 373
f 380 548 540
f 540 550 379
f 373 550 554
f 554 541 371
f 555 557 546
f 552 545 553
f 546 543 552
f 371 541 381
f 547 557 529
f 544 556 549
f 546 557 547
f 550 539 554
f 552 543 538
f 539 556 554
f 558 559 560
f 559 558 561
f 562 563 564
f 563 565 564
f 566 567 568
f 569 570 571
f 572 573 574
f 575 576 577
f 572 574 578
f 579 566 568
f 580 576 575
f 580 581 576
f 571 570 582
f 255 181 583
f 584 585 586
f 587 588 589
f 559 585 560
f 590 566 591
f 570 569 561
f 588 592 589
f 566 590 593
f 585 584 560
f 588 587 577
f 580 594 581
f 567 595 568
f 573 572 596
f 592 588 571
f 597 255 583
f 598 576 599
f 563 597 600
f 576 598 577
f 601 602 572
f 603 604 602
f 601 603 602
f 604 605 602
f 606 607 598
f 608 609 607
f 609 610 607
f 611 608 607
f 612 565 563
f 612 613 565
f 607 610 598
f 612 614 613
f 614 615 613
f 598 610 588
f 613 616 565
f 617 616 613
f 618 619 585
f 404 255 597
f 253 262 620
f 184 148 558
f 238 258 580
f 151 204 592
f 197 186 584
f 61 422 562
f 41 43 587
f 282 59 590
f 279 243 621
f 256 225 573
f 191 192 570
f 281 263 579
f 269 270 622
f 609 569 610
f 559 618 585
f 609 559 569
f 619 614 612
f 609 618 559
f 595 603 601
f 618 614 619
f 567 603 595
f 608 618 609
f 617 567 616
f 617 603 567
f 608 614 618
f 617 604 603
f 615 617 613
f 608 615 614
f 615 604 617
f 611 615 608
f 611 604 615
f 611 605 604
f 606 611 607
f 602 623 572
f 606 605 611
f 624 605 606
f 605 623 602
f 624 623 605
f 624 625 623
f 587 575 577
f 581 625 624
f 612 563 600
f 585 619 586
f 616 567 566
f 586 619 600
f 581 622 625
f 619 612 600
f 622 270 626
f 270 271 626
f 572 623 596
f 588 610 571
f 576 581 599
f 597 563 627
f 569 559 561
f 596 625 626
f 581 624 599
f 606 598 599
f 565 616 593
f 563 562 627
f 566 579 591
f 623 625 596
f 583 181 628
f 621 595 629
f 610 569 571
f 625 622 626
f 595 621 568
f 598 588 577
f 594 622 581
f 564 565 593
f 592 571 582
f 595 601 629
f 586 600 583
f 600 597 583
f 258 269 594
f 263 282 591
f 225 253 574
f 192 151 582
f 43 238 575
f 282 590 591
f 580 258 594
f 253 620 574
f 422 404 627
f 269 622 594
f 204 41 589
f 573 225 574
f 570 192 582
f 404 597 627
f 579 263 591
f 587 43 575
f 238 580 575
f 562 422 627
f 41 587 589
f 592 204 589
f 151 592 582
f 181 197 628
f 596 626 630
f 271 256 630
f 61 562 631
f 590 59 631
f 558 148 632
f 191 570 632
f 629 601 578
f 620 629 578
f 620 262 633
f 279 621 633
f 197 584 628
f 621 243 634
f 281 579 634
f 184 558 635
f 584 186 635
f 584 586 628
f 256 573 630
f 59 61 631
f 148 191 632
f 262 279 633
f 624 606 599
f 590 564 593
f 243 281 634
f 601 572 578
f 616 566 593
f 626 271 630
f 186 184 635
f 562 564 631
f 564 590 631
f 561 558 632
f 570 561 632
f 573 596 630
f 621 629 633
f 586 583 628
f 568 621 634
f 579 568 634
f 629 620 633
f 574 620 578
f 558 560 635
f 560 584 635
f 636 637 638
f 639 637 636
f 640 641 642
f 638 643 636
f 642 644 645
f 646 644 642
f 647 636 645
f 642 641 646
f 645 644 647
f 517 648 515
f 649 650 651
f 220 639 219
f 521 649 651
f 647 639 636
f 219 639 647
f 650 652 651
f 648 653 515
f 650 645 652
f 525 649 521
f 521 651 517
f 654 653 648
f 645 636 652
f 651 648 517
f 650 642 645
f 642 655 640
f 251 646 374
f 652 648 651
f 202 644 251
f 251 644 646
f 219 647 202
f 647 644 202
f 477 638 479
f 553 640 551
f 636 643 652
f 471 654 477
f 551 656 555
f 536 641 553
f 477 654 638
f 640 656 551
f 515 653 473
f 532 657 525
f 553 641 640
f 638 637 479
f 374 658 300
f 419 659 220
f 650 655 642
f 525 657 649
f 479 637 434
f 300 658 536
f 434 659 419
f 649 657 656
f 648 643 654
f 649 655 650
f 220 659 639
f 473 653 471
f 555 657 532
f 652 643 648
f 656 655 649
f 654 643 638
f 646 658 374
f 640 655 656
f 471 653 654
f 656 657 555
f 536 658 641
f 641 658 646
f 639 659 637
f 637 659 434
