v -0.73422050 2.38975318 -2.38975318
v -1.10858769 2.69296408 -2.24076624
v -0.65904673 2.75910034 -2.41156742
v -1.47296419 5.50723549 -2.01999418
v -0.99447272 5.52700582 -2.29369222
v -1.11436111 5.02315501 -2.23790065
v -2.31970208 3.40599064 -0.93219217
v -2.45566684 3.22880948 -0.46872207
v -2.44861302 3.70991452 -0.50427602
v -2.50000000 4.50000000 -0.00000000
v -2.43541688 4.22814681 -0.56457471
v -2.50000000 4.00000000 -0.00000000
v -1.51468458 4.98309931 -1.98890187
v -2.34195645 3.84558826 -0.87477996
v -1.61277884 4.47335271 -1.91022104
v -1.23155839 4.56955493 -2.17560657
v 0.24914654 2.84612538 -2.48755422
v -0.22801219 2.81821692 -2.48958037
v -0.08202620 3.20823347 -2.49865398
v -0.91393074 3.07414931 -2.32695737
v -2.22680301 4.21581234 -1.13637510
v -2.46129371 4.74477563 -0.43821600
v 0.34961729 3.25277572 -2.47543284
v -2.33842474 4.66925073 -0.88417744
v 2.29917536 1.59054013 -0.98172942
v 2.33446510 2.08824476 -0.89457962
v 2.45390615 1.72210473 -0.47785417
v 0.66887905 2.73794421 -2.40885882
v 0.61858258 3.07672262 -2.42226250
v 1.02775552 3.01345995 -2.27897314
v 2.46179325 2.25722155 -0.43540097
v 1.03316314 2.61896569 -2.27652673
v -1.25000000 6.00000000 -2.16506351
v -1.11680664 2.23668123 -2.23668123
v -1.90581676 3.10694702 -1.61798099
v -1.56114901 3.25428240 -1.95264276
v -1.73539919 2.76360800 -1.79955262
v 1.82865594 2.27484354 -1.70470451
v 2.16400963 2.38616939 -1.25182359
v 2.10713010 1.91145925 -1.34536342
v -2.06803010 1.90100339 -1.40472471
v -1.83660476 2.26013513 -1.69613766
v -1.81506603 1.71916704 -1.71916704
v 1.81506603 1.71916704 -1.71916704
v -0.77254249 6.00000000 -2.37764129
v 0.51765752 3.68710299 -2.44581902
v 0.79097314 3.35274558 -2.37157363
v -1.44860320 2.92380999 -2.03753498
v -1.83780271 4.80716323 -1.69483958
v -2.50000000 0.00000000 0.00000000
v -2.50000000 0.50000000 -0.00000000
v -2.47370268 0.36165597 -0.36165597
v 2.47370268 0.36165597 -0.36165597
v 2.50000000 0.50000000 0.00000000
v 2.50000000 0.00000000 0.00000000
v 2.06817075 1.40451763 -1.40451763
v 2.26000099 1.06882905 -1.06882905
v -2.26000099 1.06882905 -1.06882905
v -2.29858109 1.64625094 -0.98312001
v -2.06817075 1.40451763 -1.40451763
v -0.51272899 3.15002206 -2.44685696
v 0.94738441 5.02461901 -2.31353902
v 1.12202843 5.51645869 -2.23406630
v 1.35022768 5.11239711 -2.10401645
v 0.07262141 3.62378806 -2.49894500
v 0.77254249 6.00000000 -2.37764129
v 0.64982543 5.38306961 -2.41406854
v 1.99445079 2.74060550 -1.50737057
v 1.11680664 2.23668123 -2.23668123
v 1.46980676 2.48135983 -2.02229278
v -2.35476448 2.91168030 -0.83969294
v -2.08027048 2.30017783 -1.38653334
v 0.33819441 5.62691207 -2.47701929
v -1.34762813 4.11106485 -2.10568241
v -1.08037792 3.78878079 -2.25450295
v -1.46882196 3.67277401 -2.02300817
v 2.45979528 4.25319960 -0.44655033
v 2.35901809 3.98969028 -0.82766760
v 2.32874400 4.50155685 -0.90936866
v -0.22390309 3.96665172 -2.48995329
v -0.37427198 3.55573537 -2.47182533
v -2.42172358 1.18748093 -0.62068906
v 2.42060690 1.18690126 -0.62502977
v 2.46318799 4.74525450 -0.42743998
v 1.69820567 2.72716985 -1.83469275
v 1.30969974 2.77170741 -2.12948036
v 1.45414927 3.08310416 -2.03358056
v -2.46099679 1.71156676 -0.43988046
v -1.19663371 3.39542377 -2.19500974
v -1.21578387 3.07120927 -2.18446094
v -1.45936522 2.47130373 -2.02984068
v -1.49668524 2.00248178 -2.00248178
v 1.49668524 2.00248178 -2.00248178
v 0.65712548 4.13038827 -2.41209165
v 0.21140967 4.04885738 -2.49104515
v -0.50167073 5.55485953 -2.44914811
v 1.49782602 5.56499709 -2.00162864
v 1.79929461 3.13269876 -1.73566670
v 1.58509933 3.49825690 -1.93325118
v 1.90744234 3.56094163 -1.61606427
v 2.50000000 2.00000000 0.00000000
v 2.50000000 2.50000000 0.00000000
v 2.22979904 2.82687517 -1.13048496
v 2.36597344 2.54520149 -0.80757023
v -2.46583239 2.74677769 -0.41191092
v 0.73422050 2.38975318 -2.38975318
v -2.39425778 0.71939537 -0.71939537
v -2.47509587 0.79470775 -0.35199491
v 2.47502046 0.79460075 -0.35252477
v 2.39425778 0.71939537 -0.71939537
v 1.20234024 3.42781819 -2.19188913
v 0.94384879 3.77490078 -2.31498368
v 2.46595198 2.74512416 -0.41119442
v -0.36354681 2.47342550 -2.47342550
v 0.36354681 2.47342550 -2.47342550
v -1.87610379 5.55781536 -1.65234215
v -1.67282652 6.00000000 -1.85786206
v -2.38434614 2.08067602 -0.75159396
v 2.16248002 5.57583706 -1.25446409
v 1.86741290 5.58060513 -1.66215795
v 2.02254249 6.00000000 -1.46946313
v 2.50000000 3.50000000 -0.00000000
v 2.44761966 3.25515341 -0.50907565
v 2.46285471 3.76485626 -0.42935614
v -2.50000000 3.00000000 -0.00000000
v 1.08067127 4.21370577 -2.25436235
v 2.20044027 3.66238996 -1.18661814
v 2.21020075 4.12511740 -1.16833756
v -2.24241165 2.13926730 -1.10525561
v -2.24729398 5.09107794 -1.09529438
v -2.12495894 4.71905362 -1.31702297
v 2.31564558 3.25189788 -0.94222371
v 2.36325566 3.60705092 -0.81548922
v 1.67282652 6.00000000 -1.85786206
v 1.25000000 6.00000000 -2.16506351
v 0.26132116 6.00000000 -2.48630474
v -0.01926779 5.56324825 -2.49992575
v -0.26132116 6.00000000 -2.48630474
v -2.48677095 1.25132559 -0.25684669
v -2.16584326 5.55516316 -1.24864846
v -2.37539167 5.52194147 -0.77943210
v 1.70799097 3.93035316 -1.82558671
v -1.93121880 4.35254185 -1.58757487
v -2.02254249 6.00000000 -1.46946313
v 2.48679334 1.24889941 -0.25662982
v 2.28386364 6.00000000 -1.01684161
v 2.37011176 5.53905486 -0.79534283
v -2.50000000 3.50000000 -0.00000000
v 2.50000000 3.00000000 0.00000000
v -1.71525627 4.00894857 -1.81876219
v 2.50000000 4.00000000 -0.00000000
v -1.81252632 3.55542093 -1.72184446
v -1.98636464 3.89858505 -1.51801037
v 1.33958396 3.85727605 -2.11080905
v 2.09562013 3.18990931 -1.36322275
v -2.50000000 2.50000000 -0.00000000
v -0.94692363 4.21319968 -2.31372765
v -2.28386364 6.00000000 -1.01684161
v 1.99397008 4.01174330 -1.50800640
v 2.44536900 6.00000000 -0.51977923
v -2.08073070 3.44155038 -1.38584262
v -2.44536900 6.00000000 -0.51977923
v 0.00000000 2.50000000 -2.50000000
v 2.50000000 4.50000000 -0.00000000
v -0.08533153 4.39337348 -2.49854328
v -1.78977172 5.17886296 -1.74548480
v -2.50000000 2.00000000 -0.00000000
v -2.50000000 1.50000000 -0.00000000
v 2.50000000 1.50000000 0.00000000
v 2.50000000 5.00000000 -0.00000000
v -2.50000000 5.00000000 -0.00000000
v -2.16724422 3.00475171 -1.24621526
v 2.19065047 4.89577625 -1.20459558
v 2.10759116 4.46382429 -1.34464103
v 1.82786012 4.37435709 -1.70555779
v 0.35759709 4.47953525 -2.47429269
v 1.47716700 4.29487709 -2.01692282
v -1.99267850 2.65752470 -1.50971269
v 0.80317240 4.56988723 -2.36746998
v 1.93092335 4.82342140 -1.58793420
v -0.78831772 3.47241904 -2.37245762
v -0.22222027 5.15493126 -2.49010404
v 1.22358000 4.65568797 -2.18010367
v 1.60243508 4.73735762 -1.91890641
v -0.81859588 4.64719497 -2.36218136
v -0.65664382 3.88241213 -2.41222281
v -0.52529876 4.30449662 -2.44418927
v -0.68019049 5.09397183 -2.40568928
v -2.50000000 5.50000000 -0.00000000
v -2.47371595 5.23653417 -0.36156521
v -2.03210948 5.15392659 -1.45620433
v -2.22516002 2.58587883 -1.13958891
v 2.46435019 5.23126239 -0.42068772
v 2.50000000 5.50000000 -0.00000000
v 0.50979740 4.91654071 -2.44746943
v -2.47279848 2.25000000 -0.36778754
v -2.39815525 5.01116059 -0.70629413
v 2.37723176 2.91729831 -0.77380177
v 2.37501452 4.99885235 -0.78058058
v 0.06115323 4.81689139 -2.49925194
v 2.50000000 1.00000000 0.00000000
v -2.50000000 1.00000000 -0.00000000
v -0.38766002 4.73179244 -2.46976106
v -2.19530078 3.75859402 -1.19609969
v 2.50000000 6.00000000 -0.00000000
v 2.47261340 5.63055864 -0.36902980
v -2.47263373 5.62879099 -0.36889355
v -2.50000000 6.00000000 -0.00000000
v -2.36856776 2.47151164 -0.79992923
v 1.72011313 5.17085194 -1.81416945
v 0.20428417 5.23652583 -2.49163962
v 2.26046672 5.25440852 -1.06784372
v 2.03360921 5.22289917 -1.45410920
v 0.79200767 2.37122834 3.53510740
v 0.51939547 2.44545054 3.15997621
v 0.38777071 2.46974369 3.61758040
v -1.02898439 2.27841856 3.77909154
v -1.47951901 2.01519813 3.70167393
v -1.23627803 2.17292812 4.11244985
v -1.21423334 2.18532318 3.37937630
v 0.20868811 2.49127463 4.08279720
v -0.06264791 2.49921492 3.66041015
v -0.26788505 2.48560608 4.13512439
v -2.10071841 1.35535315 1.93185392
v -1.84234348 1.68990252 2.32865607
v -1.81506603 1.71916704 1.71916704
v -0.14624776 2.49571865 3.21128111
v 0.17479942 2.49388155 2.86020827
v -0.22961586 2.48943298 2.80697231
v 0.19110153 2.49268534 3.33190396
v 2.50000000 0.00000000 4.00000000
v 2.45149600 0.49006872 4.14910246
v 2.50000000 0.00000000 4.50000000
v -2.16642232 1.24764352 2.45166206
v -2.36202157 0.81905684 2.59793712
v -2.22703136 1.13592751 2.98384865
v 1.32093474 2.12252948 2.96453133
v 0.93147578 2.31998984 3.08043654
v 1.21400842 2.18544814 3.42388045
v 1.11680664 2.23668123 2.23668123
v 1.02630947 2.27962472 2.65792397
v 1.45319897 2.03425976 2.48426543
v 2.47005050 0.38581152 4.62567021
v 1.29668551 2.13742993 4.19802776
v 1.48689330 2.00976325 4.59344740
v 1.69172280 1.84067215 4.14550600
v 2.28387401 1.01681832 4.10175075
v 2.37902178 0.76828079 3.67836502
v 2.17329034 1.23564118 3.57920188
v -2.45272451 0.48388270 4.22683044
v -2.30286916 0.97303321 4.23830670
v -2.34616920 0.86341767 3.85507265
v -0.94019375 2.31647053 3.04531272
v -1.34122401 2.10976732 2.94509709
v 2.03290647 1.45509150 4.07568581
v 1.86652008 1.66316049 4.56231855
v -1.49668524 2.00248178 2.00248178
v 2.03504907 1.45209341 2.72775435
v 1.85424831 1.67683130 2.28765537
v 1.71326560 1.82063752 2.83297942
v 2.47370268 0.36165597 0.36165597
v 2.50000000 0.00000000 0.50000000
v -2.47370268 0.36165597 0.36165597
v -2.50000000 -0.00000000 0.50000000
v -0.56394728 2.43556225 3.80771005
v 1.81506603 1.71916704 1.71916704
v 2.09614062 1.36242230 1.90994034
v -2.46183525 0.43516340 3.73990224
v -2.50000000 -0.00000000 2.00000000
v -2.45453272 0.47462526 1.70285730
v -2.50000000 -0.00000000 1.50000000
v 2.50000000 0.00000000 1.50000000
v 2.45487277 0.47286326 1.69794212
v 2.50000000 0.00000000 2.00000000
v -2.45828684 0.45478107 2.26998164
v -2.32079493 0.92946808 2.12537286
v -0.39762148 2.46817689 3.47084869
v -0.00000000 2.50000000 2.50000000
v 0.67665659 2.40668566 3.99690145
v 0.57631606 2.43266516 4.50975699
v -2.29761699 0.98537108 1.58327850
v -0.78071758 2.37496949 3.43993575
v 0.97594698 2.30163583 4.21863556
v 2.16645430 1.24758798 4.54917647
v 2.32546837 0.91771284 2.12422571
v 2.46250000 0.43138585 2.25000000
v -2.35055170 0.85141454 3.34948090
v -1.44797686 2.03798013 4.53446609
v -1.62490316 1.89991834 4.07611500
v -1.83025909 1.70298316 4.54847640
v 2.29630805 0.98841759 1.57888045
v -2.13998301 1.29246769 4.51350346
v -1.91359731 1.60877137 4.15065524
v -2.14461850 1.28476126 3.98864065
v -1.04240532 2.27230965 2.64457334
v -2.37085623 0.79312087 4.58723075
v -1.67282652 1.85786206 5.00000000
v 2.12107426 1.32327018 2.33028123
v -1.99736399 1.50350826 2.76069595
v -1.44339839 2.04122539 2.49194335
v -2.41539838 0.64486483 1.19002343
v -2.26000099 1.06882905 1.06882905
v 2.26000099 1.06882905 1.06882905
v 2.41555077 0.64429378 1.18881988
v -0.51544306 2.44628667 4.55490373
v -0.75223693 2.38414337 4.14345959
v -1.00051516 2.29106294 4.54682124
v -2.46491292 0.41737787 3.23481238
v 1.06209826 2.26317195 4.59798787
v -0.36354681 2.47342550 2.47342550
v -1.25000000 2.16506351 5.00000000
v -1.11680664 2.23668123 2.23668123
v -0.77254249 2.37764129 5.00000000
v 0.77254249 2.37764129 5.00000000
v -0.00268918 2.49999855 4.55538227
v -0.73422050 2.38975318 2.38975318
v -0.64738929 2.41472299 2.75141591
v -1.86453042 1.66539074 3.67459159
v 1.49668524 2.00248178 2.00248178
v 2.47685207 0.33941692 0.78093704
v 2.39425778 0.71939537 0.71939537
v 0.73422050 2.38975318 2.38975318
v -2.39425778 0.71939537 0.71939537
v -2.47675853 0.34009882 0.78415369
v 1.10356496 2.24324417 3.87725887
v 0.26132116 2.48630474 5.00000000
v -0.26132116 2.48630474 5.00000000
v -2.06817075 1.40451763 1.40451763
v 2.06817075 1.40451763 1.40451763
v 1.25000000 2.16506351 5.00000000
v 0.36354681 2.47342550 2.47342550
v 0.60118191 2.42663971 2.75159843
v -2.28386364 1.01684161 5.00000000
v 2.36435043 0.81230970 4.56737521
v 2.48455354 0.27747737 1.24436518
v 2.02254249 1.46946313 5.00000000
v -2.48452628 0.27772136 1.24667575
v 2.28386364 1.01684161 5.00000000
v -2.44536900 0.51977923 5.00000000
v 2.44536900 0.51977923 5.00000000
v -2.02254249 1.46946313 5.00000000
v 1.61640465 1.90715390 3.30635567
v 1.67282652 1.85786206 5.00000000
v -2.50000000 -0.00000000 3.50000000
v -2.50000000 -0.00000000 3.00000000
v 2.50000000 0.00000000 3.00000000
v 2.45055132 0.49477088 3.27799836
v 2.50000000 0.00000000 3.50000000
v -1.65307358 1.87545934 3.28802663
v -1.96728257 1.54265981 3.16566036
v -2.16639854 1.24768481 3.50472180
v 2.46496828 0.41705080 2.75213639
v 1.86432664 1.66561886 3.66520606
v 2.50000000 0.00000000 2.50000000
v -2.50000000 -0.00000000 4.00000000
v -2.50000000 -0.00000000 2.50000000
v 1.50103556 1.99922291 3.76819614
v -1.72151178 1.81284230 2.83095944
v 1.94883098 1.56590479 3.19337363
v 2.20410898 1.17978964 3.07555624
v 2.26439613 1.05948580 2.61282349
v -2.50000000 -0.00000000 4.50000000
v 2.32593874 0.91652002 3.32982922
v -2.46647578 0.40804073 2.75491889
v 2.50000000 0.00000000 5.00000000
v 2.47285167 0.36742975 3.70947467
v -2.50000000 -0.00000000 1.00000000
v 2.50000000 0.00000000 1.00000000
v -2.38912003 0.73627814 2.98967572
v -0.51511105 2.44635660 3.13023175
v -2.47140685 0.37702544 4.62798665
v -2.50000000 -0.00000000 5.00000000
v 2.36285886 0.81663824 2.96197908
v 2.39548985 0.71528202 2.51172194
v -2.31828467 -0.93571159 -2.97444851
v -2.45715297 -0.46086795 -2.75587502
v -2.45692016 -0.46210748 -3.23936512
v 2.45458250 -0.47436772 -4.20737039
v 2.36855210 -0.79997560 -3.64896806
v 2.28286941 -1.01907176 -4.13939381
v 2.47112181 -0.37888913 -3.72968703
v -2.36260089 -0.81738426 2.75105711
v -2.27829894 -1.02924921 3.19745592
v -2.44988362 -0.49806651 3.23058010
v -2.36606086 -0.80731407 -0.74876529
v -2.27791981 -1.03008802 -0.30733267
v -2.45013769 -0.49681516 -0.26979424
v 2.39315417 -0.72305817 -2.15623154
v 2.30937218 -0.95749681 -2.57683622
v 2.45834796 -0.45445057 -2.68627860
v 2.48129108 -0.30527784 -2.24869615
v -2.44591047 -0.51722525 2.28638816
v 2.35793211 -0.83075637 -3.05315568
v 2.46421363 -0.42148687 -3.26758899
v -2.33648232 -0.88929769 -3.58590561
v -2.50000000 -0.00000000 -1.50000000
v -2.44682448 -0.51288398 -1.21229440
v -2.50000000 -0.00000000 -1.00000000
v -2.46250000 -0.43138585 1.75000000
v -2.35660944 -0.83450100 3.65399888
v -2.46250000 -0.43138585 -1.75000000
v 2.47002009 -0.38600613 0.82943269
v 2.46941388 -0.38986546 0.17731769
v 2.39120337 -0.72948369 0.50892843
v 2.28386364 -1.01684161 5.00000000
v 2.37301297 -0.78664441 4.48790240
v 2.44536900 -0.51977923 5.00000000
v -2.35485862 -0.83942891 0.13140884
v 2.34730126 -0.86033528 -1.62980204
v 2.46553225 -0.41370367 -1.77446352
v 2.46141207 -0.43755072 -1.29105598
v -2.35604221 -0.83610113 -2.46555317
v 2.36489997 -0.81070843 -1.15952888
v -2.47188049 -0.37390754 2.75000000
v 1.72308798 -1.81134420 -3.34907010
v 1.52019135 -1.98469601 -3.74746678
v 1.87905917 -1.64898048 -3.72811205
v 1.34404581 -2.10797079 -3.36850137
v 1.19865037 -2.19390914 -4.11701732
v 1.16993250 -2.20935691 -3.72280583
v 0.72751294 -2.39180370 -3.87703510
v 2.37324416 -0.78594665 -4.57019830
v 0.77715446 -2.37613782 -4.25369192
v -2.47292062 -0.36696542 -0.75000000
v 2.21904388 -1.15145310 -3.32502583
v -2.27269265 -1.04157002 -4.09399166
v -2.15867342 -1.26100319 -3.79249733
v 1.98512892 -1.51962599 4.03510852
v 2.24562212 -1.09871802 4.03285008
v 2.15580105 -1.26590751 4.52218586
v -2.40247714 -0.69145035 -4.00098291
v 1.84088384 -1.69149244 4.52535544
v 1.45818173 -2.03069103 4.52696918
v 1.00050466 -2.29106753 4.51343811
v 1.21422001 -2.18533059 4.04708714
v 1.25000000 -2.16506351 5.00000000
v 0.26132116 -2.48630474 5.00000000
v 0.50562243 -2.44833534 4.52062375
v 0.77254249 -2.37764129 5.00000000
v 2.47518689 -0.35135435 4.63032326
v 2.46491587 -0.41736043 -0.23610296
v 2.35258701 -0.84577443 0.04872015
v 1.81377799 -1.72052591 3.59374681
v 1.63517016 -1.89108925 4.06994144
v 1.42599542 -2.05342082 3.60081840
v 1.18244362 -2.20268633 1.40950648
v 0.94509752 -2.31447417 1.85881883
v 0.70866450 -2.39745587 1.41741044
v -1.65796698 -1.87113482 -4.23329826
v -1.25000000 -2.16506351 -4.24720657
v -1.34986589 -2.10424858 -3.84329019
v -1.71198275 -1.82184386 -3.82668063
v 0.95527827 -2.31029076 0.96894795
v -2.50000000 -0.00000000 -2.50000000
v -2.46819145 -0.39753107 -2.24211630
v 0.45718043 -2.45784175 0.98098020
v 1.79599593 -1.73907982 1.83490893
v 1.39943898 -2.07161062 1.84697504
v 1.61171285 -1.91112054 1.39787349
v -2.16105981 -1.25690911 -3.39998509
v 1.18530124 -2.20114992 0.52949840
v 0.70321195 -2.39906085 0.54282275
v 0.95054847 -2.31224082 0.09396404
v 1.67282652 -1.85786206 5.00000000
v 2.02254249 -1.46946313 5.00000000
v 0.45390537 -2.45844868 0.10427825
v -2.34726055 -0.86044635 1.87977256
v -0.01700314 -2.49994218 4.52741642
v -0.27848713 -2.48444056 4.08239604
v 0.23940496 -2.48851065 4.05963333
v -2.15339437 -1.26999711 3.64625433
v 2.35090790 -0.85043052 0.97326530
v 2.46509448 -0.41630420 1.24359386
v 2.37820654 -0.77080067 -0.43114910
v -0.53612630 -2.44183713 3.63741238
v -0.01778660 -2.49993673 3.61788113
v -2.34748629 -0.85983029 -1.62927560
v -2.01944110 -1.47372237 4.09761944
v -2.24908384 -1.09161435 4.07843646
v 2.33864346 -0.88359876 1.82146202
v 2.46214033 -0.43343395 1.76155785
v 2.40314397 -0.68912919 2.24955309
v -1.85469301 -1.67633942 3.64399792
v -2.01591328 -1.47854444 3.18881355
v 2.46686310 -0.40569257 3.75362913
v 2.34777516 -0.85904122 3.55404312
v 2.46695988 -0.40510361 3.26512315
v -0.30965218 -2.48074899 1.42527833
v -0.56614785 -2.43505166 0.98346045
v -0.05852249 -2.49931493 0.98671459
v -0.55427020 -2.43778271 1.87046360
v -0.80721920 -2.36609323 1.42402980
v -1.26266201 -2.15770356 2.30937881
v -1.48109129 -2.01404285 1.85911876
v -1.04027954 -2.27328363 1.86710225
v 1.60978563 -1.91274416 2.27266414
v 1.41522947 -2.06085553 2.71120350
v 1.18235854 -2.20273200 2.27927925
v -1.67206572 -1.85854681 3.19919774
v 1.17252503 -2.20798212 -1.21705632
v 1.39055261 -2.07758596 -1.66326323
v 1.59818650 -1.92244634 -1.22408233
v -0.75480041 -2.38333303 -4.24152414
v -0.91864548 -2.32510010 -3.84952070
v -0.52954572 -2.44327267 4.54108624
v -1.27045636 -2.15312346 1.42184453
v 0.70356747 -2.39895661 -0.33694128
v 0.93823828 -2.31726324 -1.65824468
v 0.69350234 -2.40188561 -1.21151299
v 0.44451110 -2.46016460 -1.65487394
v 1.18498029 -2.20132272 -0.34809578
v -1.67495726 -1.85594132 2.30039495
v -1.47421875 -2.01907877 2.75567655
v 0.93656734 -2.31793909 -0.77111906
v 0.69858968 -2.40041089 -2.09622681
v -1.04943445 -2.26907191 0.10980994
v -0.81323849 -2.36403113 -0.32857820
v -0.56435897 -2.43546689 0.11356353
v 1.39426702 -2.07509506 -0.78360204
v -1.85290260 -1.67831819 2.74728198
v -0.31700793 -2.47981975 -0.32877885
v 2.38201910 -0.75893675 1.45113791
v 0.18578402 -2.49308730 -2.09434665
v -0.03931024 -2.49969092 2.74872311
v 0.20926062 -2.49122660 2.29972150
v 0.47715766 -2.45404168 2.72550421
v 0.18842079 -2.49288941 -1.21147532
v 0.44507527 -2.46006260 -0.77104015
v 2.37956029 -0.76661125 3.05185539
v 0.26132116 -2.48630474 -5.00000000
v 0.52286370 -2.44471134 -4.55621841
v -0.00000000 -2.50000000 -4.54758572
v 2.45863555 -0.45289208 2.71882355
v 2.32320984 -0.92341543 2.68861174
v 0.23522678 -2.48890907 3.16959147
v -0.28534879 -2.48366183 3.19060564
v 2.16414557 -1.25158857 -4.54873324
v 0.44129294 -2.46074390 -2.53579334
v -0.81788470 -2.36242769 -1.20727828
v -0.56948812 -2.43427264 -0.76637128
v -1.05255909 -2.26762417 -0.76707104
v -0.26132116 -2.48630474 5.00000000
v -0.31310602 -2.48031543 0.55061952
v -2.16001030 -1.25871184 -0.75984231
v -1.02042545 -2.28226464 4.54659227
v -0.77254249 -2.37764129 5.00000000
v -1.47409604 -2.01916836 3.64996714
v -2.15597978 -1.26560309 -1.62883998
v -2.25484403 -1.07966588 -2.05410243
v -2.02724426 -1.46296982 -2.07864509
v -1.67446831 -1.85638248 4.09889478
v 0.18230178 -2.49334435 -2.98048224
v -0.07263578 -2.49894459 -2.53524359
v 2.02130030 -1.47117133 -4.09975211
v 1.85735349 -1.67339117 -4.54866099
v 1.01780605 -2.28343400 -4.55023733
v 0.77254249 -2.37764129 -5.00000000
v -0.81303899 -2.36409975 0.54566209
v -1.86751818 -1.66203966 -1.64000396
v -1.69204993 -1.84037144 -2.08175413
v -2.02145323 -1.47096119 -0.32415618
v -1.25000000 -2.16506351 5.00000000
v -1.85687163 -1.67392585 4.54997433
v -1.47163794 -2.02096061 4.54727699
v -2.00093761 -1.49874904 -4.11321699
v -2.16088580 -1.25720824 -4.55315082
v 0.68822951 -2.40340179 -2.98347010
v 1.67588710 -1.85510173 -4.11896873
v 2.02254249 -1.46946313 -5.00000000
v 2.14472784 -1.28457873 -3.69444974
v -1.67282652 -1.85786206 5.00000000
v -1.46960745 -2.02243762 -4.55470673
v -1.85426595 -1.67681179 -4.56517199
v -1.67282652 -1.85786206 -5.00000000
v -0.78367772 -2.37399436 4.09235491
v 1.25000000 -2.16506351 -5.00000000
v 1.96941284 -1.53993930 2.26628547
v 2.11363033 -1.33512802 2.69697800
v 1.80685511 -1.72779472 2.70613556
v -0.32165219 -2.47922163 -1.20929490
v 1.96489129 -1.54570443 1.39149617
v 2.11110251 -1.33912143 0.95470656
v 2.22164344 -1.14642942 1.40472809
v -0.79665993 -2.36966938 2.31480386
v -2.16837831 -1.24424093 -2.51651360
v -0.77254249 -2.37764129 -5.00000000
v -0.51874079 -2.44558950 -4.54819221
v -1.01684161 -2.28386364 -4.54758572
v -2.16075091 -1.25744006 4.55337476
v 2.23831084 -1.11353698 2.25910272
v -0.29959993 -2.48198305 2.30960241
v 2.10567060 -1.34764658 0.07827325
v 2.21345057 -1.16216891 -0.37404001
v 1.95718305 -1.55545315 -0.35712408
v 2.28386364 -1.01684161 -5.00000000
v 2.21105654 -1.16671717 -1.21473388
v 2.31526047 -0.94316963 -0.78410643
v 2.10280229 -1.35211779 -0.79590120
v -1.25000000 -2.16506351 -5.00000000
v 1.95360605 -1.55994339 -1.23243074
v -2.02254249 -1.46946313 -5.00000000
v -2.02254249 -1.46946313 5.00000000
v -2.03332828 -1.45450202 -2.95818615
v -1.03273308 -2.27672185 2.75780990
v -2.28386364 -1.01684161 5.00000000
v -2.28386364 -1.01684161 -5.00000000
v 1.17078173 -2.20890700 -2.10218822
v 0.93500248 -2.31857076 -2.54052047
v 1.38639648 -2.08036170 -2.54379690
v -1.25551399 -2.16187063 4.09658096
v 1.67282652 -1.85786206 -5.00000000
v 1.47077472 -2.02158891 -4.54798528
v 1.91891668 -1.60242278 -2.94814350
v 2.07994127 -1.38702714 -2.54687858
v 1.78110725 -1.75432522 -2.54828549
v 1.16452559 -2.21221160 -2.98535539
v -1.86411776 -1.66585263 -0.76316710
v -1.86100437 -1.66933003 0.11216780
v -2.15505233 -1.26718170 0.11182750
v -1.25831115 -2.16024375 3.20264256
v -0.79096094 -2.37157770 3.20031897
v 1.58591183 -1.93258471 -2.97160437
v -1.02852090 -2.27862783 3.64748074
v -2.14897297 -1.27746435 0.99130207
v -2.25259915 -1.08434177 0.53562219
v -2.01890045 -1.47446294 0.55072002
v 1.97675439 -1.53050387 3.14538099
v 2.22009175 -1.14943143 3.11609579
v 2.12282932 -1.32045284 3.58323116
v -1.49408268 -2.00442434 -1.64345484
v -2.26763831 -1.05252862 2.30716820
v -1.87251448 -1.65640862 -2.52016083
v -1.85841887 -1.67220791 0.98667739
v -0.25020855 -2.48744762 -4.24852291
v -0.39083289 -2.46926095 -3.85948821
v 1.79696317 -1.73808037 0.95545537
v -0.54778911 -2.43924724 2.75524620
v 2.44536900 -0.51977923 -5.00000000
v 1.95075510 -1.56350713 -2.10877314
v 1.59459880 -1.92542325 -2.10636550
v -0.26132116 -2.48630474 -5.00000000
v 2.22566450 -1.13860333 -2.11040079
v 2.10013887 -1.35625099 -1.67169480
v -1.05744981 -2.26534763 -1.64645044
v -1.28462483 -2.14470022 -2.08555659
v 0.93013307 -2.32052849 -3.41597892
v 1.78358594 -1.75180512 -1.66889828
v -0.57587598 -2.43276938 -1.64912939
v -0.82333022 -2.36053539 -2.08909308
v -2.14799883 -1.27910165 1.87043927
v -2.24737792 -1.09512213 1.44868825
v -2.01680520 -1.47732758 1.42497943
v 2.11222974 -1.33734271 1.82711221
v 0.19373769 -2.49248184 -0.32963228
v -2.02419838 -1.46718128 -1.19975713
v -2.27366770 -1.03943984 -1.19179366
v -1.28036064 -2.14724862 -1.20570710
v -1.68738549 -1.84464907 -1.20271689
v 2.23206870 -1.12599704 0.51277959
v -0.04862220 -2.49952713 1.86804298
v 1.78842224 -1.74686745 -0.79151509
v -1.49010352 -2.00738424 -0.76583258
v 0.20145450 -2.49187000 1.42659302
v 1.79228733 -1.74290164 0.08220076
v 1.96093928 -1.55071505 0.51686400
v -1.68411302 -1.84763723 -0.32692474
v -2.15247636 -1.27155240 2.73984724
v -1.06204581 -2.26319657 -2.52863154
v 0.43463143 -2.46192923 -3.42750553
v 0.45740764 -2.45779947 1.86260548
v 1.41088195 -2.06383433 0.95983490
v -1.68131444 -1.85018425 0.54787081
v -2.01362975 -1.48165287 2.30136753
v -1.67845469 -1.85277896 1.42277986
v 0.73489304 -2.38954645 3.15825951
v 0.96496723 -2.30626066 2.71601163
v -1.85594044 -1.67495823 1.86137037
v -0.32709025 -2.47851003 -2.09211184
v 1.60525521 -1.91654786 -0.35269327
v -1.69671863 -1.83606805 -2.96151599
v -0.06982863 -2.49902460 -1.65168314
v -1.49868418 -2.00098619 -2.52406492
v 1.60962341 -1.91288068 0.52096744
v 1.20543981 -2.19018604 3.15439736
v -0.05918369 -2.49929936 0.11163744
v 0.19762677 -2.49217649 0.54917501
v -0.06431514 -2.49917258 -0.76903391
v -1.48724580 -2.00950241 0.10935495
v -1.27714392 -2.14916342 -0.32921274
v -1.86541521 -1.66439962 -3.38740666
v -1.48397167 -2.01192149 0.98418329
v -1.04860866 -2.26945365 0.98172106
v 1.62430213 -1.90043221 3.14970199
v -1.27450255 -2.15073086 0.54565185
v 2.50000000 0.00000000 -1.00000000
v 2.50000000 0.00000000 -1.50000000
v 2.50000000 0.00000000 -0.50000000
v 1.40461035 -2.06810777 0.08661851
v -0.58042172 -2.43168884 -2.53305898
v -2.50000000 -0.00000000 -0.50000000
v -2.46885105 -0.39341387 1.24495289
v -2.47171509 -0.37499935 0.75580433
v -2.50000000 -0.00000000 -2.00000000
v -0.33134953 -2.47794421 -2.97801904
v -0.58709197 -2.43008704 -3.42023586
v -0.07836907 -2.49877136 -3.42447674
v 0.12193753 -2.49702448 -3.86141767
v -0.82852783 -2.35871610 -2.97265311
v 0.97812513 -2.30071103 3.59983382
v 0.74135395 -2.38754986 4.04667843
v 0.48825171 -2.45185853 3.60365920
v 2.50000000 0.00000000 -2.50000000
v 2.50000000 0.00000000 -3.00000000
v -2.50000000 -0.00000000 -3.50000000
v -2.50000000 -0.00000000 -3.00000000
v -2.46907313 -0.39201768 3.75470895
v -1.49907139 -2.00069612 -3.40270631
v -2.50000000 -0.00000000 -4.00000000
v -2.47178914 -0.37451096 -3.74187080
v -2.50000000 -0.00000000 -4.50000000
v -2.47413173 -0.35870907 -4.25015901
v -2.47521569 -0.35115138 4.24958278
v 2.50000000 0.00000000 -3.50000000
v 2.50000000 0.00000000 -4.00000000
v 2.44725730 -0.51081477 -0.76914944
v -2.37971596 -0.76612790 -4.52325452
v -1.29106723 -2.14082821 -2.96566039
v -2.37530946 -0.77968261 4.53241731
v -2.40222676 -0.69231971 3.99986682
v -2.47099874 -0.37969096 0.25000000
v 0.31874885 -2.47959657 -4.23235740
v -1.07503206 -2.25705695 -3.41403017
v 0.71204092 -2.39645524 2.28793419
v 2.48213722 -0.29832003 2.25064643
v -2.44536900 -0.51977923 5.00000000
v -2.44536900 -0.51977923 -5.00000000
v -2.35853254 -0.82905022 1.00000000
v 2.50000000 0.00000000 -4.50000000
v 2.50000000 0.00000000 -2.00000000
v 2.16499273 -1.25012259 -2.97036001
v 2.47029774 -0.38422527 4.24549644
v -2.40272736 -0.69058036 0.48058085
v 2.50000000 0.00000000 -5.00000000
v 2.47146963 -0.37661366 -4.62842078
v -2.47375220 -0.36131708 -4.63687891
v -2.50000000 -0.00000000 -5.00000000
v -2.47376189 -0.36125074 4.63700266
v -2.39489365 -0.71727570 -2.00798443
v 2.39667630 -0.71129650 4.03368054
v -2.39995757 -0.70014547 1.50000000
v -1.95792006 -1.55452534 -3.74651663
v 2.04077535 -1.44403462 -3.31932516
v 0.82117582 2.36128572 -3.52858714
v 0.43341272 2.46214407 -3.12425050
v 0.90955973 2.32866938 -3.05685849
v -0.79183719 2.37128528 -3.53484305
v -0.40066010 2.46768545 -3.14825438
v -0.35333044 2.47490557 -3.64874256
v 0.42055728 2.46437245 -3.51438017
v 2.10071841 1.35535315 -1.93185392
v 1.84253420 1.68969456 -2.32868433
v -2.45149600 0.49006872 -4.14910246
v 1.50861968 1.99350612 -3.76000499
v 1.25130139 2.16431163 -4.25723854
v 1.13378631 2.22812221 -3.86869413
v 0.05815246 2.49932357 -3.34100200
v 2.16646273 1.24757334 -2.45169825
v 2.36203311 0.81902356 -2.59796652
v 2.22704383 1.13590306 -2.98409732
v -1.32062450 2.12272253 -2.96445730
v -0.84616641 2.35244605 -3.08099884
v -1.21379266 2.18556798 -3.42379817
v 1.66957189 1.86078739 -4.12243039
v -1.02612492 2.27970780 -2.65787870
v -1.45319897 2.03425976 -2.48426543
v -2.47005050 0.38581152 -4.62567021
v -1.29747228 2.13695243 -4.19773149
v -1.48814603 2.00883583 -4.59342606
v -1.69195895 1.84045509 -4.14544987
v -2.28387401 1.01681832 -4.10175075
v -2.37904869 0.76819746 -3.67848297
v -2.17361560 1.23506891 -3.57973105
v -0.00000000 2.50000000 -3.02923309
v 2.45270419 0.48398569 -4.22682993
v 2.30319382 0.97226448 -4.23842276
v 2.34581928 0.86436794 -3.85557424
v -2.03295006 1.45503061 -4.07569820
v 1.26211278 2.15802487 -3.41191895
v 1.34575785 2.10687821 -2.95053732
v -1.86652008 1.66316049 -4.56231855
v -2.03504907 1.45209341 -2.72775435
v -1.85423974 1.67684078 -2.28765668
v -1.71317643 1.82072143 -2.83297010
v -2.09614062 1.36242230 -1.90994034
v 2.46182629 0.43521409 -3.73993008
v -2.45487277 0.47286326 -1.69794212
v 2.45453272 0.47462526 -1.70285730
v -0.67575448 2.40693911 -3.99411998
v -0.22633531 2.48973339 -4.10575308
v -0.57699441 2.43250436 -4.51044699
v 2.45828684 0.45478107 -2.26998164
v 2.32079493 0.92946808 -2.12537286
v 0.53006155 2.44316081 -3.85459455
v 0.77880072 2.37559875 -4.20299520
v 0.24416946 2.48804768 -4.17326210
v 2.29761699 0.98537108 -1.58327850
v 0.50720536 2.44800791 -4.57112700
v -2.16645430 1.24758798 -4.54917647
v -2.32547329 0.91770036 -2.12422422
v -2.46250000 0.43138585 -2.25000000
v 1.04351083 2.27180218 -2.64955314
v 2.35055170 0.85141454 -3.34948090
v -0.97684364 2.30125542 -4.21844333
v -0.00646217 2.49999165 -4.56241167
v -2.29630805 0.98841759 -1.57888045
v 2.37085623 0.79312087 -4.58723075
v -2.12107833 1.32326367 -2.33028362
v 1.99755450 1.50325514 -2.76077915
v 1.44339839 2.04122539 -2.49194335
v -2.41555077 0.64429378 -1.18881988
v 2.41539838 0.64486483 -1.19002343
v 2.46491292 0.41737787 -3.23481238
v 0.61885613 2.42219262 -2.74393424
v 0.26132116 2.48630474 -5.00000000
v -0.26132116 2.48630474 -5.00000000
v -2.47685207 0.33941692 -0.78093704
v 1.02001614 2.28244761 -4.56665962
v 1.46315238 2.02711250 -4.57233289
v 1.25000000 2.16506351 -5.00000000
v 1.87680973 1.65154026 -3.68322429
v 1.93461880 1.58342985 -4.16818621
v 2.47675853 0.34009882 -0.78415369
v -1.10351969 2.24326643 -3.87725178
v 0.08731764 2.49847466 -3.77110306
v -1.06656643 2.26106967 -4.59798811
v -0.77254249 2.37764129 -5.00000000
v 0.77254249 2.37764129 -5.00000000
v -0.19678968 2.49224273 -2.78540159
v -0.60105037 2.42667230 -2.75140069
v -1.25000000 2.16506351 -5.00000000
v 1.84440348 1.68765394 -4.56351343
v 0.20358447 2.49169688 -2.77656577
v 1.67282652 1.85786206 -5.00000000
v 2.28386364 1.01684161 -5.00000000
v 2.14527806 1.28365963 -4.52128707
v -2.36435043 0.81230970 -4.56737521
v 2.14287663 1.28766446 -3.99055069
v -2.48455354 0.27747737 -1.24436518
v -2.02254249 1.46946313 -5.00000000
v 2.48452628 0.27772136 -1.24667575
v -2.28386364 1.01684161 -5.00000000
v -2.44536900 0.51977923 -5.00000000
v 2.44536900 0.51977923 -5.00000000
v 2.02254249 1.46946313 -5.00000000
v -1.61634007 1.90720864 -3.30633166
v -1.67282652 1.85786206 -5.00000000
v -2.45055132 0.49477088 -3.27799836
v 1.65307358 1.87545934 -3.28802663
v 1.96758691 1.54227162 -3.16588776
v 2.16572115 1.24886024 -3.50695424
v -2.46496828 0.41705080 -2.75213639
v -1.86481221 1.66507520 -3.66565357
v -1.50099111 1.99925629 -3.76817484
v 1.72340161 1.81104580 -2.83189751
v -1.95129333 1.56283535 -3.19759140
v -2.20503635 1.17805547 -3.07630865
v -2.26444925 1.05937226 -2.61283557
v -2.32593874 0.91652002 -3.32982922
v 2.46647634 0.40803732 -2.75492287
v -2.47285167 0.36742975 -3.70947467
v 2.38912103 0.73627489 -2.98970780
v 2.47140685 0.37702544 -4.62798665
v 0.82696668 2.35926389 -3.87260285
v -2.36303344 0.81613293 -2.96208553
v -2.39549969 0.71524908 -2.51172246
v 0.43721342 -1.99351260 -5.00000000
v -0.02103641 -2.02218690 -5.00000000
v 0.16715899 -1.49439214 -5.00000000
v -0.36225049 -1.66157301 -5.00000000
v -0.78222182 -1.36323139 -5.00000000
v -0.79043764 -1.87023303 -5.00000000
v -1.80830176 -1.03501469 -5.00000000
v -1.65299995 -0.58693192 -5.00000000
v -1.26606245 -1.05943565 -5.00000000
v -1.18039161 -0.49573777 -5.00000000
v 1.63581132 0.30547642 -5.00000000
v 2.11296717 0.25430784 -5.00000000
v 2.02254249 -0.21257778 -5.00000000
v -0.43823861 -2.10099178 -5.00000000
v 1.52728697 -0.20666740 -5.00000000
v -1.64143638 0.27302743 -5.00000000
v -1.54546491 0.82098908 -5.00000000
v -1.13400663 0.50242194 -5.00000000
v 1.92500433 -0.62142033 -5.00000000
v 1.47309722 -0.72064239 -5.00000000
v 1.13187177 0.63038618 -5.00000000
v 1.56862880 0.86869977 -5.00000000
v -0.17274770 1.53322110 -5.00000000
v -0.43582877 1.99356808 -5.00000000
v 0.01815493 2.04824182 -5.00000000
v -0.58434670 1.61399120 -5.00000000
v -1.98329111 0.66671603 -5.00000000
v 1.96111304 0.65886136 -5.00000000
v 0.67219912 -1.59487451 -5.00000000
v -1.99250337 -0.20407293 -5.00000000
v -2.11251997 0.25108995 -5.00000000
v -1.55333365 -0.15895848 -5.00000000
v -1.09944600 1.02175548 -5.00000000
v 0.33264146 1.68751365 -5.00000000
v -1.20727067 -1.64285478 -5.00000000
v 1.07896044 -0.42592268 -5.00000000
v 0.64018589 -0.14068462 -5.00000000
v 1.10046258 0.09371605 -5.00000000
v 0.67036307 0.38193225 -5.00000000
v 0.69845892 0.90298427 -5.00000000
v 1.16156967 1.14215602 -5.00000000
v -0.62309802 1.20459534 -5.00000000
v -0.20146177 0.94530086 -5.00000000
v -0.67203500 0.71622036 -5.00000000
v -0.23412481 0.43046524 -5.00000000
v 0.23272741 0.66556863 -5.00000000
v 0.17506078 -0.37672561 -5.00000000
v 0.61280671 -0.66225623 -5.00000000
v 0.20346176 0.14514853 -5.00000000
v -0.75394093 -0.84430923 -5.00000000
v -0.72568242 -0.32276166 -5.00000000
v -0.29109489 -0.61306201 -5.00000000
v -0.26266666 -0.09122186 -5.00000000
v -1.15097512 -0.01843266 -5.00000000
v -0.70041099 0.19430819 -5.00000000
v 0.14665076 -0.89859281 -5.00000000
v -0.30872747 -1.11840284 -5.00000000
v -0.88925015 1.90934577 -5.00000000
v -1.51428393 1.36486020 -5.00000000
v 1.79786666 -1.05201356 -5.00000000
v 1.18878194 -1.63213260 -5.00000000
v 1.19536900 1.64528428 -5.00000000
v 1.01718239 -0.88508122 -5.00000000
v 0.58113127 -1.14472293 -5.00000000
v 0.26488929 1.18041401 -5.00000000
v 0.73020454 1.41806875 -5.00000000
v 0.86497714 -1.94277046 -5.00000000
v 0.97080782 -1.27076337 -5.00000000
v 1.34384807 -1.16372142 -5.00000000
v 0.78465576 1.89833807 -5.00000000
v -1.59540078 -1.41292606 -5.00000000
v 1.61535240 -1.42169539 -5.00000000
v -1.02679609 1.46444545 -5.00000000
v 1.59516285 1.36320109 -5.00000000
v 0.43386316 2.09960791 -5.00000000
v -2.05031572 -0.67169519 -5.00000000
v -1.28077864 1.76409472 -5.00000000
v -1.88479673 1.08216390 -5.00000000
v 1.88626217 1.07541339 -5.00000000
v 0.43721342 1.99351260 5.00000000
v -0.02103641 2.02218690 5.00000000
v 0.16715899 1.49439214 5.00000000
v -0.36225049 1.66157301 5.00000000
v -0.78222182 1.36323139 5.00000000
v -0.79043764 1.87023303 5.00000000
v -1.80830176 1.03501469 5.00000000
v -1.65299995 0.58693192 5.00000000
v -1.26606245 1.05943565 5.00000000
v -1.18039161 0.49573777 5.00000000
v 1.63581132 -0.30547642 5.00000000
v 2.11296717 -0.25430784 5.00000000
v 2.02254249 0.21257778 5.00000000
v -0.43823861 2.10099178 5.00000000
v 1.52728697 0.20666740 5.00000000
v -1.64143638 -0.27302743 5.00000000
v -1.54546491 -0.82098908 5.00000000
v -1.13400663 -0.50242194 5.00000000
v 1.92500433 0.62142033 5.00000000
v 1.47309722 0.72064239 5.00000000
v 1.13187177 -0.63038618 5.00000000
v 1.56862880 -0.86869977 5.00000000
v -0.17274770 -1.53322110 5.00000000
v -0.43582877 -1.99356808 5.00000000
v 0.01815493 -2.04824182 5.00000000
v -0.58434670 -1.61399120 5.00000000
v -1.98329111 -0.66671603 5.00000000
v 1.96111304 -0.65886136 5.00000000
v 0.67219912 1.59487451 5.00000000
v -1.99250337 0.20407293 5.00000000
v -2.11251997 -0.25108995 5.00000000
v -1.55333365 0.15895848 5.00000000
v -1.09944600 -1.02175548 5.00000000
v 0.33264146 -1.68751365 5.00000000
v -1.20727067 1.64285478 5.00000000
v 1.07896044 0.42592268 5.00000000
v 0.64018589 0.14068462 5.00000000
v 1.10046258 -0.09371605 5.00000000
v 0.67036307 -0.38193225 5.00000000
v 0.69845892 -0.90298427 5.00000000
v 1.16156967 -1.14215602 5.00000000
v -0.62309802 -1.20459534 5.00000000
v -0.20146177 -0.94530086 5.00000000
v -0.67203500 -0.71622036 5.00000000
v -0.23412481 -0.43046524 5.00000000
v 0.23272741 -0.66556863 5.00000000
v 0.17506078 0.37672561 5.00000000
v 0.61280671 0.66225623 5.00000000
v 0.20346176 -0.14514853 5.00000000
v -0.75394093 0.84430923 5.00000000
v -0.72568242 0.32276166 5.00000000
v -0.29109489 0.61306201 5.00000000
v -0.26266666 0.09122186 5.00000000
v -1.15097512 0.01843266 5.00000000
v -0.70041099 -0.19430819 5.00000000
v 0.14665076 0.89859281 5.00000000
v -0.30872747 1.11840284 5.00000000
v -0.88925015 -1.90934577 5.00000000
v -1.51428393 -1.36486020 5.00000000
v 1.79786666 1.05201356 5.00000000
v 1.18878194 1.63213260 5.00000000
v 1.19536900 -1.64528428 5.00000000
v 1.01718239 0.88508122 5.00000000
v 0.58113127 1.14472293 5.00000000
v 0.26488929 -1.18041401 5.00000000
v 0.73020454 -1.41806875 5.00000000
v 0.86497714 1.94277046 5.00000000
v 0.97080782 1.27076337 5.00000000
v 1.34384807 1.16372142 5.00000000
v 0.78465576 -1.89833807 5.00000000
v -1.59540078 1.41292606 5.00000000
v 1.61535240 1.42169539 5.00000000
v -1.02679609 -1.46444545 5.00000000
v 1.59516285 -1.36320109 5.00000000
v 0.43386316 -2.09960791 5.00000000
v -2.05031572 0.67169519 5.00000000
v -1.28077864 -1.76409472 5.00000000
v -1.88479673 -1.08216390 5.00000000
v 1.88626217 -1.07541339 5.00000000
v 1.10858769 2.69296408 2.24076624
v 0.65904673 2.75910034 2.41156742
v 1.47206603 5.50752329 2.02064881
v 0.99415352 5.52708449 2.29383059
v 1.11429511 5.02314745 2.23793351
v 2.31970208 3.40599064 0.93219217
v 2.45566684 3.22880948 0.46872207
v 2.44861302 3.70991452 0.50427602
v 2.43541688 4.22814681 0.56457471
v 1.51460449 4.98313170 1.98896285
v 2.34195645 3.84558826 0.87477996
v 1.61277884 4.47335271 1.91022104
v 1.23155839 4.56955493 2.17560657
v -0.24914654 2.84612538 2.48755422
v 0.22801219 2.81821692 2.48958037
v 0.08202620 3.20823347 2.49865398
v 0.91393074 3.07414931 2.32695737
v 2.22680301 4.21581234 1.13637510
v 2.46129371 4.74477563 0.43821600
v -0.34961729 3.25277572 2.47543284
v 2.33840401 4.66928165 0.88423226
v -2.29917536 1.59054013 0.98172942
v -2.33446510 2.08824476 0.89457962
v -2.45390615 1.72210473 0.47785417
v -0.66887905 2.73794421 2.40885882
v -0.61858258 3.07672262 2.42226250
v -1.02775552 3.01345995 2.27897314
v -2.46179325 2.25722155 0.43540097
v -1.03316314 2.61896569 2.27652673
v 1.25000000 6.00000000 2.16506351
v 1.90581676 3.10694702 1.61798099
v 1.56114901 3.25428240 1.95264276
v 1.73539919 2.76360800 1.79955262
v -1.82865594 2.27484354 1.70470451
v -2.16400962 2.38616938 1.25182361
v -2.10713010 1.91145925 1.34536342
v 2.06803010 1.90100339 1.40472471
v 1.83660476 2.26013513 1.69613766
v 0.77254249 6.00000000 2.37764129
v -0.51765752 3.68710299 2.44581902
v -0.79097314 3.35274558 2.37157363
v 1.44860320 2.92380999 2.03753498
v 1.83780271 4.80716323 1.69483958
v 2.29857465 1.64631067 0.98313507
v 0.51272899 3.15002206 2.44685696
v -0.94738441 5.02461901 2.31353902
v -1.12202842 5.51645869 2.23406630
v -1.35022766 5.11239711 2.10401646
v -0.07262141 3.62378806 2.49894500
v -0.77254249 6.00000000 2.37764129
v -0.64982543 5.38306961 2.41406854
v -1.99445079 2.74060550 1.50737057
v -1.46980676 2.48135983 2.02229278
v 2.35476448 2.91168030 0.83969294
v 2.08027048 2.30017783 1.38653334
v -0.33819539 5.62691227 2.47701915
v 1.34762813 4.11106485 2.10568241
v 1.08037792 3.78878079 2.25450295
v 1.46882196 3.67277401 2.02300817
v -2.45979422 4.25319909 0.44655616
v -2.35901769 3.98969109 0.82766874
v -2.32874276 4.50155705 0.90937184
v 0.22390309 3.96665172 2.48995329
v 0.37427198 3.55573537 2.47182533
v 2.42167066 1.18808587 0.62089551
v -2.42060690 1.18690126 0.62502977
v -2.46318799 4.74525450 0.42743998
v -1.69820566 2.72716984 1.83469276
v -1.30969974 2.77170741 2.12948036
v -1.45414923 3.08310414 2.03358059
v 2.46099679 1.71156676 0.43988046
v 1.19663371 3.39542377 2.19500974
v 1.21578387 3.07120927 2.18446094
v 1.45936522 2.47130373 2.02984068
v -0.65712548 4.13038827 2.41209165
v -0.21140967 4.04885738 2.49104515
v 0.50158394 5.55488034 2.44916589
v -1.49782602 5.56499709 2.00162864
v -1.79929447 3.13269871 1.73566685
v -1.58509922 3.49825689 1.93325127
v -1.90744209 3.56094159 1.61606457
v -2.22979897 2.82687519 1.13048510
v -2.36597344 2.54520149 0.80757024
v 2.46583239 2.74677769 0.41191092
v -2.47502046 0.79460075 0.35252477
v -1.20234024 3.42781819 2.19188913
v -0.94384879 3.77490078 2.31498368
v -2.46595198 2.74512416 0.41119442
v 2.47508246 0.79687864 0.35208920
v 2.38434515 2.08068250 0.75159711
v -2.16248002 5.57583706 1.25446409
v -1.86741290 5.58060513 1.66215795
v -2.02254249 6.00000000 1.46946313
v 2.02254249 6.00000000 1.46946313
v 1.87620325 5.55808011 1.65222921
v 2.16463407 5.55580116 1.25074352
v -2.44761951 3.25515370 0.50907636
v -2.46285384 3.76485715 0.42936113
v -1.08067127 4.21370577 2.25436235
v -2.20043815 3.66239002 1.18662207
v -2.21019689 4.12512053 1.16834485
v 2.24241165 2.13926730 1.10525561
v 2.24710662 5.09123616 1.09567871
v 2.12492810 4.71905561 1.31707273
v -2.31564548 3.25189795 0.94222397
v -2.36325453 3.60705138 0.81549251
v -1.67282652 6.00000000 1.85786206
v -1.25000000 6.00000000 2.16506351
v -0.26132116 6.00000000 2.48630474
v 0.01926779 5.56324825 2.49992575
v 0.26132116 6.00000000 2.48630474
v 1.67282652 6.00000000 1.85786206
v 2.37521610 5.52209179 0.77996696
v -1.70799097 3.93035316 1.82558671
v 1.93121880 4.35254185 1.58757487
v -2.48679334 1.24889941 0.25662982
v -2.28386364 6.00000000 1.01684161
v -2.37011176 5.53905486 0.79534283
v 1.71525627 4.00894857 1.81876219
v 1.81252632 3.55542093 1.72184446
v 1.98636464 3.89858505 1.51801037
v -1.33958396 3.85727605 2.11080905
v -2.09561978 3.18990918 1.36322329
v 0.94692363 4.21319968 2.31372765
v 2.28386364 6.00000000 1.01684161
v -1.99396812 4.01174361 1.50800900
v -2.44536900 6.00000000 0.51977923
v 2.08073070 3.44155038 1.38584262
v 2.44536900 6.00000000 0.51977923
v 0.08533153 4.39337348 2.49854328
v 2.48677095 1.25132559 0.25684669
v 2.16724422 3.00475171 1.24621526
v -2.19065032 4.89577628 1.20459585
v -2.10759029 4.46382486 1.34464239
v 1.78977172 5.17886296 1.74548480
v -1.82786012 4.37435709 1.70555779
v -0.35759709 4.47953525 2.47429269
v -1.47716700 4.29487709 2.01692282
v 1.99267850 2.65752470 1.50971269
v -0.80317240 4.56988723 2.36746998
v -1.93092318 4.82342153 1.58793440
v 0.78831772 3.47241904 2.37245762
v 0.22220025 5.15492915 2.49010583
v -1.22357997 4.65568798 2.18010368
v -1.60243500 4.73735765 1.91890647
v 0.81859588 4.64719497 2.36218136
v 0.65664382 3.88241213 2.41222281
v 0.52529876 4.30449662 2.44418927
v 0.68016950 5.09397042 2.40569521
v 2.47369685 5.23658204 0.36169588
v 2.03210948 5.15392659 1.45620433
v 2.22516002 2.58587883 1.13958891
v -2.46435019 5.23126239 0.42068772
v -0.50979740 4.91654071 2.44746943
v 2.47279848 2.25000000 0.36778754
v 2.39813634 5.01118101 0.70635833
v -2.37723171 2.91729831 0.77380190
v -2.37501452 4.99885235 0.78058058
v -0.06115323 4.81689139 2.49925194
v 0.38766002 4.73179244 2.46976106
v 2.19530078 3.75859402 1.19609969
v -2.47261340 5.63055864 0.36902980
v 2.47262373 5.62879893 0.36896052
v 2.36856764 2.47151238 0.79992959
v -1.72011310 5.17085196 1.81416948
v -0.20429021 5.23652537 2.49163912
v -2.26046671 5.25440852 1.06784374
v -2.03360918 5.22289919 1.45410924
v -1.51132116 6.00000000 1.36079968
v -1.07503698 6.00000000 1.47966146
v -1.06163132 6.00000000 0.93355876
v 1.76122133 6.00000000 -1.01684161
v 1.14869499 6.00000000 -0.85487548
v 1.52496282 6.00000000 -0.44187938
v -1.55566875 6.00000000 0.83653064
v 0.15131790 6.00000000 1.57469950
v 0.44389795 6.00000000 2.00240219
v 0.62712162 6.00000000 1.48099583
v 0.88875250 6.00000000 1.85254081
v -1.36919772 6.00000000 -0.94497659
v -1.82666688 6.00000000 -1.09185607
v -1.93414767 6.00000000 -0.62844267
v -1.47842169 6.00000000 -0.43282250
v 1.32771872 6.00000000 -1.26487521
v -2.01159772 6.00000000 -0.21461623
v -1.64132260 6.00000000 0.06354305
v 2.02254249 6.00000000 -0.21257778
v 2.00759186 6.00000000 -0.64158392
v 1.24125062 6.00000000 -1.65452792
v 0.83854662 6.00000000 -1.87358960
v 0.84281106 6.00000000 -1.31731252
v -0.77545122 6.00000000 -1.03792966
v -1.07916406 6.00000000 -1.43198806
v 0.45466139 6.00000000 -1.57916198
v 1.93414767 6.00000000 0.62844267
v 1.51236690 6.00000000 0.41007934
v 1.39861691 6.00000000 0.90063987
v 1.83390641 6.00000000 1.07969403
v 1.66038546 6.00000000 0.01102335
v -1.52358285 6.00000000 -1.39955634
v 0.41099635 6.00000000 -1.99615266
v -0.00758854 6.00000000 -2.11999501
v -0.02611255 6.00000000 -1.64197055
v -0.83195170 6.00000000 1.84654219
v -0.33939731 6.00000000 1.65945347
v -0.67164478 6.00000000 1.28910846
v 2.04175674 6.00000000 0.22502978
v -0.03347441 6.00000000 2.05562394
v -1.14209667 6.00000000 -0.05754003
v -0.63816411 6.00000000 -0.13390469
v -0.96365957 6.00000000 -0.53508295
v -0.45477470 6.00000000 -0.62334089
v -0.26010019 6.00000000 -1.11725591
v -0.59658999 6.00000000 -1.51586439
v 0.58530646 6.00000000 -0.78441447
v 0.90531455 6.00000000 -0.38106257
v 0.38956880 6.00000000 -0.29852217
v 0.06112668 6.00000000 -0.70503922
v -0.31302615 6.00000000 0.27281300
v -0.82916558 6.00000000 0.35572303
v -0.12626198 6.00000000 -0.21600032
v 0.34386772 6.00000000 1.06873147
v 0.83626653 6.00000000 0.97284934
v 0.53262335 6.00000000 0.59565344
v 0.01658124 6.00000000 0.67845504
v 0.20304992 6.00000000 0.18998065
v 1.03508843 6.00000000 0.50971258
v 0.71902195 6.00000000 0.10725836
v -0.49944017 6.00000000 0.76123327
v -0.17047631 6.00000000 1.16209521
v -0.42282652 6.00000000 -1.98924236
v 1.53036135 6.00000000 1.38308287
v -2.07032538 6.00000000 0.22980396
v -1.32175992 6.00000000 0.42923908
v 1.21117382 6.00000000 0.03273154
v 0.24556781 6.00000000 -1.19197167
v 1.09895730 6.00000000 1.34945996
v -1.72035477 6.00000000 0.43487084
v -1.99008438 6.00000000 0.68575684
v 1.28846297 6.00000000 1.71910960
v -1.87269608 6.00000000 1.07387838
v -0.90278994 6.00000000 -1.89415735
v -0.44623001 6.00000000 2.08411441
v -1.28567267 6.00000000 -1.74972546
v -1.28763067 6.00000000 1.77096716
v 1.63433247 6.00000000 -1.47350269
f 1 2 3
f 4 5 6
f 7 8 9
f 10 11 12
f 6 13 4
f 9 14 7
f 15 13 16
f 17 18 19
f 2 20 3
f 14 11 21
f 22 11 10
f 19 23 17
f 11 24 21
f 25 26 27
f 28 29 30
f 26 31 27
f 30 32 28
f 33 5 4
f 34 2 1
f 35 36 37
f 12 11 9
f 38 39 40
f 41 42 43
f 44 38 40
f 45 5 33
f 23 46 47
f 37 36 48
f 16 13 6
f 49 13 15
f 50 51 52
f 53 54 55
f 56 25 57
f 58 59 60
f 61 18 3
f 62 63 64
f 19 18 61
f 40 25 56
f 60 59 41
f 23 65 46
f 17 29 28
f 66 63 67
f 68 39 38
f 23 29 17
f 69 32 70
f 7 71 8
f 41 72 42
f 67 73 66
f 74 75 76
f 77 78 79
f 19 65 23
f 80 65 81
f 82 59 58
f 57 25 83
f 40 26 25
f 84 77 79
f 85 86 87
f 88 59 82
f 83 25 27
f 89 90 36
f 91 2 34
f 81 65 19
f 92 91 34
f 69 70 93
f 76 75 89
f 94 46 95
f 45 96 5
f 20 61 3
f 64 63 97
f 22 24 11
f 98 99 100
f 101 31 102
f 103 104 39
f 32 86 70
f 46 65 95
f 89 36 76
f 67 63 62
f 8 71 105
f 87 99 98
f 95 65 80
f 28 32 106
f 107 108 82
f 83 109 110
f 111 47 112
f 102 31 113
f 43 42 92
f 3 18 114
f 93 38 44
f 47 29 23
f 98 85 87
f 115 17 28
f 112 46 94
f 4 116 117
f 38 85 68
f 111 30 47
f 88 118 59
f 27 31 101
f 47 46 112
f 9 11 14
f 119 120 121
f 122 123 124
f 125 8 105
f 39 104 26
f 126 112 94
f 127 128 78
f 59 129 41
f 130 131 24
f 132 133 123
f 30 29 47
f 134 97 135
f 136 137 138
f 33 4 117
f 134 120 97
f 108 139 82
f 140 130 141
f 100 99 142
f 21 131 143
f 91 48 2
f 144 116 140
f 83 145 109
f 146 147 119
f 9 8 148
f 113 123 149
f 74 76 150
f 122 124 151
f 12 9 148
f 150 152 153
f 78 133 127
f 154 111 112
f 117 116 144
f 155 98 100
f 70 86 85
f 102 113 149
f 125 105 156
f 157 75 74
f 124 78 77
f 140 141 158
f 143 131 49
f 159 100 142
f 160 147 146
f 149 123 122
f 146 119 121
f 144 140 158
f 124 77 151
f 137 96 138
f 148 8 125
f 121 120 134
f 44 40 56
f 60 41 43
f 81 19 61
f 152 35 161
f 107 82 58
f 57 83 110
f 158 141 162
f 163 18 17
f 164 77 84
f 126 154 112
f 1 3 114
f 115 28 106
f 165 95 80
f 159 127 100
f 24 131 21
f 4 166 116
f 151 77 164
f 157 74 16
f 152 161 153
f 167 88 168
f 169 27 101
f 150 76 152
f 74 150 15
f 164 84 170
f 171 22 10
f 150 153 143
f 155 68 98
f 35 172 161
f 127 155 100
f 27 145 83
f 173 79 174
f 36 90 48
f 138 96 45
f 82 139 88
f 111 87 30
f 175 159 142
f 13 166 4
f 127 132 155
f 110 109 53
f 52 108 107
f 176 94 95
f 177 142 154
f 165 176 95
f 35 178 172
f 179 126 94
f 150 143 15
f 74 15 16
f 172 7 161
f 153 21 143
f 92 42 91
f 175 174 159
f 142 99 154
f 70 38 93
f 177 175 142
f 175 180 174
f 20 181 61
f 180 173 174
f 137 182 96
f 179 183 126
f 177 184 175
f 181 81 61
f 157 16 185
f 186 157 187
f 154 99 111
f 143 49 15
f 135 63 66
f 6 188 185
f 126 177 154
f 78 128 79
f 176 179 94
f 189 190 171
f 130 191 131
f 178 192 172
f 132 103 155
f 186 80 81
f 170 193 194
f 118 129 59
f 111 99 87
f 126 183 177
f 187 165 80
f 175 184 180
f 195 62 179
f 62 183 179
f 5 96 188
f 16 6 185
f 176 195 179
f 123 133 124
f 157 185 187
f 177 183 184
f 181 186 81
f 20 89 181
f 195 67 62
f 106 32 69
f 155 103 68
f 114 18 163
f 152 36 35
f 140 191 130
f 186 187 80
f 6 5 188
f 88 196 118
f 105 196 156
f 163 17 115
f 130 197 141
f 123 198 132
f 103 39 68
f 193 199 147
f 165 200 176
f 54 109 201
f 202 108 51
f 188 203 185
f 167 196 88
f 171 190 22
f 187 203 165
f 186 75 157
f 84 193 170
f 192 71 172
f 79 199 84
f 185 203 187
f 96 182 188
f 176 200 195
f 97 63 135
f 21 204 14
f 165 203 200
f 42 37 91
f 205 206 160
f 40 39 26
f 14 204 7
f 116 191 140
f 66 73 136
f 162 207 208
f 194 206 205
f 192 129 209
f 208 207 189
f 141 197 190
f 183 64 184
f 172 71 7
f 181 75 186
f 62 64 183
f 35 37 178
f 89 75 181
f 120 210 97
f 178 37 42
f 70 85 38
f 131 191 49
f 209 129 118
f 79 128 174
f 169 145 27
f 159 128 127
f 88 139 168
f 153 204 21
f 173 199 79
f 184 210 180
f 105 209 196
f 31 104 113
f 7 204 161
f 127 133 132
f 26 104 31
f 195 211 67
f 156 196 167
f 97 210 64
f 53 109 54
f 51 108 52
f 199 212 147
f 42 72 178
f 113 198 123
f 2 90 20
f 91 37 48
f 76 36 152
f 203 182 200
f 210 213 180
f 180 213 173
f 188 182 203
f 68 85 98
f 119 213 120
f 24 197 130
f 213 212 173
f 64 210 184
f 196 209 118
f 48 90 2
f 202 139 108
f 137 211 182
f 84 199 193
f 109 145 201
f 124 133 78
f 87 86 30
f 211 73 67
f 182 211 200
f 141 207 162
f 160 206 147
f 120 213 210
f 147 212 119
f 136 73 137
f 22 197 24
f 49 166 13
f 119 212 213
f 193 206 194
f 189 207 190
f 178 72 192
f 200 211 195
f 192 209 71
f 174 128 159
f 132 198 103
f 168 139 202
f 201 145 169
f 161 204 153
f 20 90 89
f 190 207 141
f 71 209 105
f 30 86 32
f 147 206 193
f 116 166 191
f 137 73 211
f 191 166 49
f 190 197 22
f 103 198 104
f 104 198 113
f 173 212 199
f 72 129 192
f 41 129 72
f 214 215 216
f 217 218 219
f 220 218 217
f 221 222 223
f 224 225 226
f 227 228 229
f 227 230 228
f 231 232 233
f 234 235 236
f 237 238 239
f 240 241 242
f 241 237 242
f 224 234 225
f 232 243 233
f 215 230 216
f 244 245 246
f 247 248 249
f 241 238 237
f 250 251 252
f 220 253 254
f 249 255 247
f 228 230 215
f 214 238 215
f 246 245 256
f 226 225 257
f 258 259 260
f 55 261 262
f 263 50 264
f 222 265 223
f 266 259 267
f 268 250 252
f 239 238 214
f 269 270 271
f 272 273 274
f 275 276 270
f 277 265 222
f 229 228 278
f 279 221 280
f 270 276 281
f 282 253 220
f 280 283 279
f 284 255 256
f 273 285 286
f 216 222 221
f 275 270 269
f 274 273 286
f 276 235 234
f 252 287 268
f 260 259 242
f 288 289 290
f 247 255 284
f 291 285 273
f 292 293 294
f 254 253 295
f 296 251 250
f 297 288 290
f 259 298 267
f 236 299 234
f 300 254 295
f 301 281 302
f 303 291 304
f 305 306 307
f 291 273 304
f 301 270 281
f 268 287 308
f 305 223 306
f 217 265 282
f 309 283 280
f 310 229 278
f 311 288 297
f 300 295 312
f 313 305 307
f 309 280 314
f 219 218 289
f 280 221 315
f 224 276 234
f 258 298 259
f 315 221 223
f 316 295 317
f 289 218 318
f 275 235 276
f 318 293 289
f 319 259 266
f 304 320 321
f 315 223 305
f 322 241 240
f 290 293 292
f 281 276 224
f 323 324 301
f 239 214 325
f 257 225 300
f 326 280 315
f 315 305 327
f 282 265 277
f 214 216 279
f 302 281 328
f 329 291 303
f 240 242 319
f 257 300 312
f 307 288 311
f 313 307 311
f 326 315 327
f 330 309 314
f 237 260 242
f 306 219 307
f 331 228 332
f 228 215 332
f 214 279 325
f 327 305 313
f 314 280 326
f 333 292 296
f 334 232 247
f 304 335 320
f 334 247 284
f 336 284 256
f 232 248 247
f 309 245 244
f 272 335 273
f 270 337 271
f 312 295 316
f 267 285 291
f 334 284 338
f 333 296 339
f 340 334 338
f 290 292 341
f 303 304 321
f 323 301 302
f 267 291 329
f 328 281 224
f 237 239 342
f 297 290 341
f 336 256 343
f 237 342 260
f 341 292 333
f 338 284 336
f 266 267 329
f 328 224 226
f 324 337 301
f 344 308 345
f 346 347 348
f 349 220 254
f 350 236 351
f 346 352 347
f 249 353 255
f 354 352 346
f 344 268 308
f 355 268 344
f 295 253 317
f 274 286 354
f 356 275 269
f 286 352 354
f 239 325 357
f 331 332 322
f 316 317 310
f 358 349 254
f 359 249 360
f 360 361 258
f 300 358 254
f 351 252 294
f 216 221 279
f 359 360 258
f 220 217 282
f 263 324 323
f 321 320 261
f 219 289 288
f 350 351 318
f 342 359 260
f 359 258 260
f 239 357 342
f 358 350 349
f 350 318 349
f 351 294 318
f 219 288 307
f 325 244 357
f 300 225 358
f 255 246 256
f 317 229 310
f 362 250 355
f 248 363 249
f 244 283 309
f 234 299 225
f 330 245 309
f 242 259 319
f 359 353 249
f 275 364 235
f 365 243 340
f 233 243 365
f 347 363 248
f 289 293 290
f 278 228 331
f 248 366 347
f 367 324 264
f 262 320 368
f 308 364 345
f 294 251 292
f 273 335 304
f 355 250 268
f 351 287 252
f 356 364 275
f 231 366 232
f 334 243 232
f 285 298 361
f 301 337 270
f 235 369 236
f 215 238 332
f 370 282 277
f 256 245 343
f 357 353 342
f 342 353 359
f 370 227 229
f 339 371 372
f 372 371 362
f 370 277 227
f 332 238 241
f 350 299 236
f 317 253 370
f 267 298 285
f 317 370 229
f 294 293 318
f 225 299 358
f 360 373 361
f 357 246 353
f 332 241 322
f 318 218 349
f 325 283 244
f 370 253 282
f 285 374 286
f 264 324 263
f 223 265 306
f 345 364 356
f 348 366 231
f 236 287 351
f 261 320 262
f 353 246 255
f 347 366 348
f 361 374 285
f 373 374 361
f 306 265 217
f 352 373 347
f 244 246 357
f 232 366 248
f 277 222 227
f 306 217 219
f 361 298 258
f 249 363 360
f 349 218 220
f 373 363 347
f 252 251 294
f 308 369 364
f 343 245 330
f 320 335 368
f 292 251 296
f 352 374 373
f 367 337 324
f 340 243 334
f 296 371 339
f 358 299 350
f 362 371 250
f 286 374 352
f 271 337 367
f 368 335 272
f 236 369 287
f 250 371 296
f 279 283 325
f 364 369 235
f 222 230 227
f 216 230 222
f 287 369 308
f 360 363 373
f 375 376 377
f 378 379 380
f 381 379 378
f 382 383 384
f 385 386 387
f 388 389 390
f 390 391 388
f 269 392 356
f 393 379 394
f 377 395 375
f 396 397 398
f 399 392 269
f 383 400 384
f 401 397 396
f 262 402 403
f 403 402 404
f 405 406 407
f 387 386 408
f 409 410 411
f 412 376 375
f 411 413 409
f 384 414 382
f 415 416 417
f 418 416 415
f 419 420 421
f 422 378 380
f 421 423 419
f 387 424 385
f 394 379 381
f 393 425 379
f 426 427 395
f 428 429 430
f 395 431 426
f 430 406 405
f 430 432 428
f 433 434 435
f 436 434 433
f 437 438 439
f 439 434 436
f 439 438 434
f 392 414 356
f 406 440 407
f 441 403 442
f 443 444 445
f 435 444 433
f 446 447 448
f 449 450 451
f 452 449 451
f 448 453 446
f 454 376 455
f 456 453 448
f 457 458 459
f 375 395 460
f 461 462 463
f 397 424 398
f 429 406 430
f 464 432 465
f 463 462 466
f 399 467 392
f 468 469 470
f 383 471 400
f 472 402 473
f 442 474 441
f 389 393 390
f 475 476 469
f 401 477 397
f 478 479 471
f 480 481 482
f 483 471 484
f 485 486 487
f 471 479 400
f 465 432 430
f 446 458 447
f 468 438 437
f 433 432 464
f 488 489 490
f 445 444 435
f 491 492 488
f 493 494 495
f 459 458 446
f 462 453 456
f 461 453 462
f 496 458 457
f 497 498 496
f 428 444 443
f 484 499 483
f 500 501 502
f 495 492 491
f 492 489 488
f 450 503 504
f 505 469 468
f 495 494 506
f 506 492 495
f 466 507 463
f 508 509 510
f 508 501 500
f 507 511 463
f 512 493 513
f 514 511 507
f 484 471 383
f 478 471 483
f 515 508 510
f 451 450 504
f 516 517 518
f 514 519 511
f 432 444 428
f 513 499 520
f 512 494 493
f 500 519 514
f 518 517 521
f 473 522 472
f 433 444 432
f 510 523 515
f 470 438 468
f 513 520 512
f 520 499 484
f 524 525 526
f 527 509 528
f 486 529 487
f 469 476 470
f 510 509 527
f 530 531 532
f 533 534 482
f 524 535 536
f 537 422 380
f 515 523 538
f 539 540 541
f 542 505 468
f 508 500 509
f 490 489 543
f 544 386 385
f 545 505 546
f 483 499 547
f 455 376 412
f 548 549 550
f 551 478 483
f 535 476 536
f 552 538 553
f 509 514 528
f 537 554 555
f 556 531 557
f 543 558 518
f 559 550 560
f 561 386 544
f 562 545 546
f 543 489 558
f 563 551 564
f 496 498 458
f 526 535 524
f 565 426 566
f 567 538 552
f 554 568 555
f 417 568 554
f 563 478 551
f 548 550 559
f 537 555 569
f 380 570 554
f 537 380 554
f 571 563 564
f 572 573 574
f 545 575 505
f 575 469 505
f 557 531 530
f 576 556 557
f 577 578 579
f 546 505 542
f 580 540 539
f 581 582 583
f 584 493 495
f 412 375 585
f 573 565 566
f 586 587 588
f 589 478 563
f 590 578 577
f 591 525 524
f 536 476 475
f 592 593 442
f 594 593 592
f 521 517 540
f 595 422 537
f 583 582 472
f 596 597 598
f 551 483 547
f 599 588 572
f 600 596 598
f 518 558 516
f 601 573 566
f 589 563 602
f 585 375 603
f 604 493 584
f 605 589 602
f 601 566 606
f 607 608 609
f 551 547 610
f 611 555 612
f 555 568 612
f 613 614 615
f 551 610 564
f 609 608 616
f 561 544 617
f 618 619 561
f 620 604 621
f 538 523 553
f 622 609 616
f 540 517 541
f 547 620 623
f 622 615 609
f 513 493 604
f 624 625 626
f 627 628 629
f 630 559 560
f 382 392 631
f 560 550 632
f 589 479 478
f 595 537 569
f 465 430 405
f 509 500 514
f 619 386 561
f 620 621 623
f 611 612 576
f 436 433 464
f 633 624 626
f 418 622 616
f 514 507 528
f 503 634 635
f 636 582 581
f 604 584 637
f 620 513 604
f 638 422 595
f 564 545 562
f 615 639 640
f 632 585 603
f 604 637 621
f 532 587 641
f 550 549 585
f 615 640 609
f 547 623 610
f 642 409 643
f 570 417 554
f 549 412 585
f 644 630 645
f 584 591 637
f 502 519 500
f 599 572 574
f 571 564 562
f 632 550 585
f 646 616 567
f 639 643 647
f 530 532 641
f 542 468 437
f 648 644 649
f 598 593 594
f 603 375 460
f 650 651 652
f 653 480 590
f 528 507 654
f 642 388 409
f 655 656 548
f 586 588 599
f 622 613 615
f 584 491 591
f 639 642 643
f 607 515 608
f 569 555 611
f 657 658 630
f 581 583 653
f 643 596 600
f 584 495 491
f 630 560 645
f 442 404 659
f 644 645 649
f 568 419 612
f 639 647 640
f 385 397 656
f 607 508 515
f 491 660 591
f 597 593 598
f 644 657 630
f 574 573 601
f 602 563 571
f 600 598 661
f 617 655 658
f 637 536 621
f 662 617 658
f 652 624 633
f 592 442 659
f 653 583 480
f 657 539 541
f 626 619 618
f 612 556 576
f 480 482 590
f 409 596 643
f 579 578 627
f 544 385 656
f 488 663 660
f 643 600 647
f 594 592 664
f 625 408 619
f 592 659 665
f 491 488 660
f 644 539 657
f 641 587 586
f 666 561 617
f 651 624 652
f 617 544 655
f 616 608 567
f 657 662 658
f 524 536 637
f 667 382 631
f 655 548 559
f 598 594 661
f 625 619 626
f 645 668 649
f 580 539 648
f 655 544 656
f 608 538 567
f 669 567 552
f 663 670 660
f 592 665 664
f 446 453 671
f 672 626 618
f 662 666 617
f 663 448 670
f 636 581 459
f 673 631 650
f 665 582 636
f 404 472 659
f 646 418 616
f 666 618 561
f 674 652 633
f 408 386 619
f 502 501 647
f 600 661 502
f 675 526 676
f 677 650 652
f 658 559 630
f 672 633 626
f 623 575 610
f 615 614 639
f 647 501 640
f 490 456 663
f 448 447 670
f 648 649 678
f 456 448 663
f 640 607 609
f 627 629 443
f 671 453 461
f 581 653 457
f 655 559 658
f 594 664 679
f 632 603 680
f 475 575 623
f 580 648 681
f 560 632 682
f 488 490 663
f 621 475 623
f 653 590 577
f 665 636 683
f 669 646 567
f 684 676 497
f 591 524 637
f 642 389 388
f 648 539 644
f 639 614 642
f 685 466 686
f 687 528 654
f 547 499 620
f 688 672 618
f 687 580 527
f 659 582 665
f 685 521 654
f 657 541 662
f 636 459 671
f 666 689 688
f 490 543 686
f 600 502 647
f 603 460 690
f 686 462 456
f 681 510 527
f 665 683 664
f 594 679 661
f 687 540 580
f 662 689 666
f 666 688 618
f 689 516 688
f 610 545 564
f 581 457 459
f 685 518 521
f 475 469 575
f 636 671 683
f 543 685 686
f 682 668 645
f 685 654 466
f 674 677 652
f 459 446 671
f 642 614 389
f 691 692 506
f 687 527 528
f 692 492 506
f 521 687 654
f 579 627 693
f 490 686 456
f 580 681 527
f 472 582 659
f 667 383 382
f 691 674 633
f 672 691 633
f 654 507 466
f 466 462 686
f 689 517 516
f 691 694 692
f 272 473 368
f 695 411 696
f 55 441 697
f 673 667 631
f 627 578 628
f 515 538 608
f 677 673 650
f 671 461 683
f 664 698 679
f 649 699 678
f 691 506 674
f 640 501 607
f 521 540 687
f 621 536 475
f 684 675 676
f 681 523 510
f 648 678 681
f 560 682 645
f 700 387 50
f 367 701 271
f 264 702 367
f 271 399 269
f 703 401 396
f 543 518 685
f 704 705 706
f 649 668 699
f 607 501 508
f 541 689 662
f 699 553 678
f 419 556 612
f 504 503 635
f 629 429 428
f 704 552 553
f 683 698 664
f 706 669 552
f 653 577 457
f 706 707 669
f 699 704 553
f 627 443 693
f 632 680 682
f 672 694 691
f 461 698 683
f 541 517 689
f 705 635 706
f 669 707 421
f 516 694 688
f 669 421 646
f 461 463 698
f 688 694 672
f 610 575 545
f 704 706 552
f 577 496 457
f 704 708 705
f 709 435 710
f 677 512 673
f 709 711 675
f 699 668 708
f 553 523 678
f 620 499 513
f 702 701 367
f 271 701 399
f 579 497 496
f 699 708 704
f 346 533 354
f 712 390 713
f 693 684 497
f 506 494 674
f 714 377 715
f 345 384 344
f 674 494 677
f 603 690 680
f 710 470 711
f 400 716 384
f 678 523 681
f 684 709 675
f 577 579 496
f 698 511 679
f 463 511 698
f 579 693 497
f 677 494 512
f 629 428 443
f 667 484 383
f 452 451 717
f 709 710 711
f 435 434 710
f 718 719 714
f 348 487 346
f 443 445 693
f 635 707 706
f 694 558 692
f 709 445 435
f 690 452 717
f 693 445 684
f 690 717 680
f 661 519 502
f 720 721 718
f 355 722 362
f 231 485 348
f 723 381 724
f 673 520 667
f 695 725 411
f 441 725 697
f 516 558 694
f 558 489 692
f 426 726 566
f 512 520 673
f 692 489 492
f 684 445 709
f 660 525 591
f 668 727 708
f 682 727 668
f 728 729 479
f 408 730 387
f 667 520 484
f 634 731 707
f 680 727 682
f 426 431 726
f 346 487 533
f 714 719 377
f 697 725 695
f 676 498 497
f 511 519 679
f 675 535 526
f 727 732 708
f 589 728 479
f 676 733 498
f 717 727 680
f 721 719 718
f 485 487 348
f 679 519 661
f 629 486 429
f 732 504 705
f 526 733 676
f 635 634 707
f 717 732 727
f 481 734 482
f 670 525 660
f 272 481 473
f 710 438 470
f 708 732 705
f 731 423 421
f 451 732 717
f 451 504 732
f 705 504 635
f 735 728 605
f 606 726 736
f 578 534 628
f 393 394 390
f 722 729 728
f 388 410 409
f 711 535 675
f 442 403 404
f 707 731 421
f 726 431 721
f 711 476 535
f 434 438 710
f 725 413 411
f 624 737 625
f 482 534 590
f 404 402 472
f 670 733 525
f 274 481 272
f 390 394 713
f 454 455 703
f 724 378 738
f 470 476 711
f 565 449 452
f 525 733 526
f 628 486 629
f 723 394 381
f 597 413 725
f 696 410 739
f 548 477 549
f 498 733 447
f 715 376 454
f 458 498 447
f 392 467 631
f 447 733 670
f 650 467 651
f 482 734 533
f 410 391 739
f 397 477 656
f 651 737 624
f 605 728 589
f 566 726 606
f 387 730 50
f 264 730 702
f 590 534 578
f 713 394 723
f 702 737 701
f 395 427 460
f 345 414 384
f 389 740 393
f 700 424 387
f 381 378 724
f 384 716 344
f 231 741 485
f 737 742 625
f 355 716 722
f 628 529 486
f 703 455 401
f 614 740 389
f 262 403 55
f 417 416 568
f 743 744 638
f 368 402 262
f 738 744 743
f 593 474 442
f 472 522 583
f 411 410 696
f 573 449 565
f 382 414 392
f 419 423 556
f 388 391 410
f 409 413 596
f 702 742 737
f 377 376 715
f 712 391 390
f 719 395 377
f 385 424 397
f 736 745 746
f 372 747 735
f 418 415 622
f 533 734 354
f 362 747 372
f 746 745 720
f 549 748 412
f 407 440 365
f 631 467 650
f 50 730 264
f 365 440 233
f 274 734 481
f 421 420 646
f 233 741 231
f 656 477 548
f 356 414 345
f 486 749 429
f 651 750 737
f 460 751 690
f 344 716 355
f 737 750 701
f 398 424 700
f 412 748 455
f 380 379 570
f 485 749 486
f 441 474 725
f 452 751 565
f 725 474 597
f 719 431 395
f 613 740 614
f 55 403 441
f 481 522 473
f 473 402 368
f 752 425 740
f 613 752 740
f 726 745 736
f 735 747 728
f 429 749 406
f 480 522 481
f 477 748 549
f 467 750 651
f 487 529 533
f 638 744 422
f 565 427 426
f 728 747 722
f 721 745 726
f 572 449 573
f 572 450 449
f 531 731 532
f 531 423 731
f 534 529 628
f 739 391 712
f 597 474 593
f 583 522 480
f 427 751 460
f 588 503 450
f 741 749 485
f 588 450 572
f 587 503 588
f 532 731 634
f 730 742 702
f 587 634 503
f 570 752 417
f 479 729 400
f 556 423 531
f 716 729 722
f 532 634 587
f 622 415 613
f 596 413 597
f 568 416 419
f 646 420 418
f 378 744 738
f 625 742 408
f 533 529 534
f 720 745 721
f 722 747 362
f 354 734 274
f 741 440 406
f 690 751 452
f 701 750 399
f 721 431 719
f 379 425 570
f 422 744 378
f 399 750 467
f 401 748 477
f 406 749 741
f 455 748 401
f 408 742 730
f 233 440 741
f 400 729 716
f 570 425 752
f 740 425 393
f 613 415 752
f 418 420 416
f 752 415 417
f 416 420 419
f 565 751 427
f 753 754 755
f 756 757 758
f 759 754 753
f 760 761 44
f 718 762 720
f 763 764 765
f 757 766 758
f 767 768 769
f 770 771 772
f 773 764 763
f 34 774 775
f 774 770 775
f 760 767 761
f 762 776 720
f 777 778 779
f 780 781 782
f 774 771 770
f 766 783 754
f 784 785 786
f 756 771 757
f 782 787 780
f 788 755 789
f 779 778 790
f 44 761 93
f 791 792 793
f 52 700 50
f 55 697 53
f 766 754 759
f 43 792 794
f 772 771 756
f 795 784 786
f 788 753 755
f 396 796 703
f 739 797 696
f 798 799 800
f 801 802 797
f 803 804 805
f 797 802 806
f 805 804 807
f 808 787 790
f 796 809 810
f 789 755 811
f 703 796 810
f 801 797 739
f 802 768 767
f 786 812 795
f 800 813 798
f 800 799 814
f 793 792 775
f 780 787 808
f 815 809 796
f 816 785 784
f 792 817 794
f 769 818 767
f 759 753 803
f 819 789 811
f 58 815 820
f 821 806 57
f 821 797 806
f 815 796 820
f 795 812 822
f 819 811 69
f 755 754 823
f 814 807 824
f 825 800 814
f 811 755 823
f 760 802 767
f 791 817 792
f 106 811 823
f 801 768 802
f 92 792 43
f 820 826 107
f 1 774 34
f 827 828 829
f 830 831 773
f 806 802 760
f 110 832 821
f 772 756 833
f 93 761 819
f 766 834 758
f 835 800 836
f 837 807 827
f 756 758 798
f 114 838 839
f 60 815 58
f 57 806 56
f 773 763 830
f 93 819 69
f 34 775 92
f 757 783 766
f 835 813 800
f 837 827 829
f 840 835 836
f 825 814 824
f 770 793 775
f 838 757 839
f 828 773 841
f 823 842 115
f 756 798 833
f 843 828 841
f 824 807 837
f 836 800 825
f 844 845 816
f 846 762 780
f 845 831 847
f 820 848 826
f 846 780 808
f 849 808 790
f 762 781 780
f 835 778 777
f 829 828 843
f 396 848 796
f 814 805 807
f 766 759 834
f 797 850 696
f 69 811 106
f 794 809 815
f 846 808 851
f 852 846 851
f 844 816 853
f 841 845 854
f 765 764 804
f 58 820 107
f 110 821 57
f 56 806 760
f 794 815 60
f 770 772 855
f 843 841 854
f 849 790 856
f 770 855 793
f 854 845 844
f 851 808 849
f 56 760 44
f 43 794 60
f 838 783 757
f 832 850 821
f 715 857 714
f 723 822 713
f 858 788 789
f 859 769 860
f 715 861 857
f 782 862 787
f 454 861 715
f 788 765 753
f 723 795 822
f 724 795 723
f 712 801 739
f 703 810 454
f 810 861 454
f 772 833 863
f 106 823 115
f 114 839 1
f 864 858 789
f 865 782 866
f 866 867 791
f 819 864 789
f 860 786 847
f 163 842 838
f 865 866 791
f 53 832 110
f 107 826 52
f 859 860 830
f 855 865 793
f 865 791 793
f 772 863 855
f 864 859 858
f 859 830 858
f 860 847 830
f 833 777 863
f 819 761 864
f 758 799 798
f 787 779 790
f 759 803 834
f 738 784 724
f 781 868 782
f 777 813 835
f 828 764 773
f 834 799 758
f 767 818 761
f 840 778 835
f 775 792 92
f 865 862 782
f 801 869 768
f 163 838 114
f 746 776 852
f 720 776 746
f 857 868 781
f 823 754 842
f 754 783 842
f 781 870 857
f 115 842 163
f 847 831 830
f 695 832 697
f 700 826 398
f 822 869 713
f 847 785 845
f 788 763 765
f 796 848 820
f 724 784 795
f 860 812 786
f 712 869 801
f 718 870 762
f 846 776 762
f 809 817 867
f 821 850 797
f 768 871 769
f 790 778 856
f 863 862 855
f 841 831 845
f 757 771 839
f 855 862 865
f 853 872 743
f 743 872 738
f 839 771 774
f 804 873 765
f 859 818 769
f 794 817 809
f 830 763 858
f 753 873 803
f 761 818 864
f 866 874 867
f 799 805 814
f 863 779 862
f 839 774 1
f 833 813 777
f 809 875 810
f 697 832 53
f 804 764 827
f 807 804 827
f 713 869 712
f 714 870 718
f 769 812 860
f 52 826 700
f 862 779 787
f 857 870 714
f 834 805 799
f 867 875 809
f 874 875 867
f 858 763 788
f 803 805 834
f 861 874 857
f 777 779 863
f 827 764 828
f 762 870 781
f 867 817 791
f 782 868 866
f 874 868 857
f 786 785 847
f 822 871 869
f 856 778 840
f 826 848 398
f 845 785 816
f 861 875 874
f 842 783 838
f 695 850 832
f 852 776 846
f 816 872 853
f 864 818 859
f 738 872 784
f 773 831 841
f 765 873 753
f 810 875 861
f 696 850 695
f 398 848 396
f 769 871 812
f 784 872 816
f 798 813 833
f 869 871 768
f 812 871 822
f 803 873 804
f 866 868 874
f 876 877 878
f 877 879 878
f 880 879 881
f 882 883 884
f 884 883 885
f 886 887 888
f 881 879 889
f 890 886 888
f 891 892 893
f 890 894 895
f 888 894 890
f 896 897 886
f 898 899 900
f 898 901 899
f 902 892 891
f 886 897 903
f 878 904 876
f 905 906 891
f 889 879 877
f 891 907 905
f 893 892 908
f 900 909 898
f 884 880 910
f 880 881 910
f 911 912 913
f 896 913 914
f 913 912 914
f 915 896 914
f 916 897 896
f 917 898 918
f 919 918 920
f 917 918 919
f 920 918 921
f 922 912 923
f 923 912 911
f 924 912 922
f 925 884 885
f 925 885 926
f 925 926 927
f 927 926 928
f 926 885 929
f 930 926 929
f 931 878 932
f 836 933 840
f 851 902 852
f 853 903 844
f 638 888 743
f 586 889 641
f 856 934 849
f 569 935 595
f 576 936 611
f 843 937 829
f 746 905 736
f 574 910 599
f 824 900 825
f 530 876 557
f 606 882 601
f 923 911 938
f 939 878 931
f 923 938 939
f 932 925 927
f 923 939 931
f 908 917 919
f 893 908 919
f 922 923 931
f 931 932 927
f 930 929 893
f 930 893 919
f 922 931 927
f 930 919 920
f 928 926 930
f 922 927 928
f 928 930 920
f 924 922 928
f 924 928 920
f 924 920 921
f 914 912 924
f 914 924 921
f 918 898 940
f 921 918 940
f 915 914 921
f 915 921 940
f 915 940 941
f 916 896 915
f 916 915 941
f 925 880 884
f 929 891 893
f 896 886 913
f 916 941 937
f 932 880 925
f 942 904 936
f 943 944 936
f 937 945 829
f 829 945 837
f 904 943 936
f 898 909 940
f 913 890 911
f 903 887 886
f 910 946 884
f 911 895 938
f 936 944 947
f 909 945 941
f 885 907 929
f 884 946 882
f 913 886 890
f 891 906 902
f 940 909 941
f 932 879 880
f 939 904 878
f 934 948 908
f 941 945 937
f 908 892 934
f 895 894 935
f 949 916 937
f 883 907 885
f 908 948 917
f 949 897 916
f 890 895 911
f 854 949 843
f 599 881 586
f 836 899 933
f 843 949 937
f 888 887 743
f 557 942 576
f 743 887 853
f 611 947 569
f 601 946 574
f 569 947 935
f 936 947 611
f 889 877 641
f 825 899 836
f 935 894 595
f 902 906 852
f 853 887 903
f 852 906 746
f 900 899 825
f 576 942 936
f 876 942 557
f 586 881 889
f 638 894 888
f 641 877 530
f 910 881 599
f 530 877 876
f 746 906 905
f 595 894 638
f 574 946 910
f 882 946 601
f 909 950 945
f 837 950 824
f 878 879 932
f 905 951 736
f 606 951 882
f 933 901 948
f 948 901 917
f 856 952 934
f 933 952 840
f 851 953 902
f 934 953 849
f 903 954 844
f 895 944 938
f 824 950 900
f 736 951 606
f 938 943 939
f 840 952 856
f 905 907 883
f 849 953 851
f 917 901 898
f 929 907 891
f 945 950 837
f 883 951 905
f 882 951 883
f 844 954 854
f 900 950 909
f 934 952 948
f 897 954 903
f 902 953 892
f 892 953 934
f 948 952 933
f 899 901 933
f 949 954 897
f 938 944 943
f 935 944 895
f 854 954 949
f 876 904 942
f 939 943 904
f 947 944 935
f 955 956 957
f 956 958 957
f 959 958 960
f 961 962 963
f 963 962 964
f 965 966 967
f 960 958 968
f 969 965 967
f 970 971 972
f 969 973 974
f 967 973 969
f 975 976 965
f 977 978 979
f 977 980 978
f 981 971 970
f 965 976 982
f 957 983 955
f 984 985 970
f 968 958 956
f 970 986 984
f 972 971 987
f 979 988 977
f 963 959 989
f 959 960 989
f 990 991 992
f 975 992 993
f 992 991 993
f 994 975 993
f 995 976 975
f 996 977 997
f 998 997 999
f 996 997 998
f 999 997 1000
f 1001 991 1002
f 1002 991 990
f 1003 991 1001
f 1004 963 964
f 1004 964 1005
f 1004 1005 1006
f 1006 1005 1007
f 1005 964 1008
f 1009 1005 1008
f 1010 957 1011
f 546 1012 562
f 605 981 735
f 407 982 405
f 340 967 365
f 372 984 339
f 313 968 327
f 571 1013 602
f 336 1014 338
f 330 1015 343
f 464 1016 436
f 297 989 311
f 437 979 542
f 326 955 314
f 333 961 341
f 1002 990 1017
f 1018 957 1010
f 1002 1017 1018
f 987 996 998
f 1002 1018 1010
f 1011 1004 1006
f 1001 1002 1010
f 1010 1011 1006
f 1009 1008 972
f 972 987 998
f 1001 1010 1006
f 1009 972 998
f 1009 998 999
f 1001 1006 1007
f 1007 1005 1009
f 1003 1001 1007
f 1007 1009 999
f 1003 1007 999
f 1003 999 1000
f 993 991 1003
f 993 1003 1000
f 997 977 1019
f 1000 997 1019
f 994 993 1000
f 994 1000 1019
f 995 975 994
f 994 1019 1020
f 995 994 1020
f 1004 959 963
f 1008 970 972
f 975 965 992
f 995 1020 1016
f 1011 959 1004
f 1021 983 1015
f 1022 1023 1015
f 1016 1024 436
f 436 1024 439
f 983 1022 1015
f 977 988 1019
f 992 969 990
f 982 966 965
f 989 1025 963
f 990 974 1017
f 1015 1023 1026
f 988 1024 1020
f 964 986 1008
f 963 1025 961
f 992 965 969
f 970 985 981
f 1019 988 1020
f 1011 958 959
f 1018 983 957
f 1013 1027 987
f 1020 1024 1016
f 987 971 1013
f 974 973 1014
f 1028 995 1016
f 962 986 964
f 987 1027 996
f 1028 976 995
f 969 974 990
f 465 1028 464
f 311 960 313
f 546 978 1012
f 464 1028 1016
f 967 966 365
f 314 1021 330
f 365 966 407
f 343 1026 336
f 981 985 735
f 336 1026 1014
f 1015 1026 343
f 968 956 327
f 735 985 372
f 542 978 546
f 1014 973 338
f 407 966 982
f 313 960 968
f 341 1025 297
f 979 978 542
f 330 1021 1015
f 955 1021 314
f 327 956 326
f 989 960 311
f 372 985 984
f 340 973 967
f 326 956 955
f 338 973 340
f 297 1025 989
f 961 1025 341
f 988 1029 1024
f 439 1029 437
f 957 958 1011
f 984 1030 339
f 333 1030 961
f 1027 980 996
f 1012 980 1027
f 571 1031 1013
f 1012 1031 562
f 605 1032 981
f 1013 1032 602
f 982 1033 405
f 974 1023 1017
f 437 1029 979
f 339 1030 333
f 1017 1022 1018
f 562 1031 571
f 984 986 962
f 602 1032 605
f 996 980 977
f 1008 986 970
f 1024 1029 439
f 962 1030 984
f 961 1030 962
f 405 1033 465
f 979 1029 988
f 1013 1031 1027
f 976 1033 982
f 981 1032 971
f 971 1032 1013
f 1027 1031 1012
f 978 980 1012
f 1028 1033 976
f 1017 1023 1022
f 1014 1023 974
f 465 1033 1028
f 955 983 1021
f 1018 1022 983
f 1026 1023 1014
f 322 1034 1035
f 1036 1037 1038
f 1039 1040 1041
f 164 1042 151
f 1038 1043 1036
f 1041 1044 1039
f 1045 1043 1046
f 1047 1048 1049
f 1034 1050 1035
f 1044 1042 1051
f 1052 1042 164
f 1049 1053 1047
f 1042 1054 1051
f 1055 1056 1057
f 1058 1059 1060
f 1056 1061 1057
f 1060 1062 1058
f 1063 1037 1036
f 240 1034 322
f 1064 1065 1066
f 151 1042 1041
f 1067 1068 1069
f 1070 1071 266
f 226 1067 1069
f 1072 1037 1063
f 1053 1073 1074
f 1066 1065 1075
f 1046 1043 1038
f 1076 1043 1045
f 55 54 261
f 263 51 50
f 328 1055 302
f 303 1077 329
f 1078 1048 1035
f 1079 1080 1081
f 1049 1048 1078
f 1069 1055 328
f 329 1077 1070
f 1053 1082 1073
f 1047 1059 1058
f 1083 1080 1084
f 1085 1068 1067
f 1053 1059 1047
f 312 1062 1086
f 1039 1087 1040
f 1070 1088 1071
f 1084 1089 1083
f 1090 1091 1092
f 1093 1094 1095
f 1049 1082 1053
f 1096 1082 1097
f 1098 1077 303
f 302 1055 1099
f 1069 1056 1055
f 1100 1093 1095
f 1101 1102 1103
f 1104 1077 1098
f 1099 1055 1057
f 1105 1106 1065
f 1107 1034 240
f 1097 1082 1049
f 319 1107 240
f 312 1086 257
f 1092 1091 1105
f 1108 1073 1109
f 1072 1110 1037
f 1050 1078 1035
f 1081 1080 1111
f 1052 1054 1042
f 1112 1113 1114
f 167 1061 156
f 1115 1116 1068
f 1062 1102 1086
f 1073 1082 1109
f 1105 1065 1092
f 1084 1080 1079
f 1040 1087 1117
f 1103 1113 1112
f 1109 1082 1096
f 1058 1062 316
f 1099 1118 323
f 1119 1074 1120
f 156 1061 1121
f 266 1071 319
f 1035 1048 331
f 257 1067 226
f 321 1122 1098
f 1074 1059 1053
f 1112 1101 1103
f 310 1047 1058
f 1120 1073 1108
f 1067 1101 1085
f 1119 1060 1074
f 1104 1123 1077
f 1057 1061 167
f 1074 1073 1120
f 1041 1042 1044
f 1124 1125 1126
f 1127 1128 1129
f 148 1130 1131
f 149 1040 1117
f 1068 1116 1056
f 1132 1120 1108
f 1133 1134 1094
f 1077 1135 1070
f 1136 1137 1054
f 1138 1139 1130
f 1060 1059 1074
f 1140 1111 1141
f 1142 1143 1144
f 1063 1036 1145
f 1140 1125 1111
f 1036 1128 1145
f 1129 1136 1146
f 1114 1113 1147
f 1051 1137 1148
f 1107 1075 1034
f 1099 1149 1118
f 1150 1151 1124
f 1041 1040 122
f 1121 1130 125
f 1090 1092 1152
f 148 1131 12
f 151 1041 122
f 1152 1153 1154
f 1094 1139 1133
f 1155 1119 1120
f 1156 1112 1114
f 1086 1102 1101
f 156 1121 125
f 149 1117 102
f 1157 1091 1090
f 1131 1094 1093
f 1129 1146 1158
f 1148 1137 1076
f 1159 1114 1147
f 1160 1151 1150
f 125 1130 148
f 1150 1124 1126
f 1127 1129 1158
f 1131 1093 12
f 1143 1110 1144
f 122 1040 149
f 1126 1125 1140
f 1145 1128 1127
f 226 1069 328
f 329 1070 266
f 1097 1049 1078
f 1153 1064 1161
f 321 1098 303
f 302 1099 323
f 1158 1146 1162
f 278 1048 1047
f 10 1093 1100
f 1132 1155 1120
f 322 1035 331
f 310 1058 316
f 1163 1109 1096
f 1122 1164 1098
f 1159 1133 1114
f 1054 1137 1051
f 12 1093 10
f 1157 1090 1046
f 1153 1161 1154
f 101 1104 169
f 168 1057 167
f 1152 1092 1153
f 1090 1152 1045
f 10 1100 171
f 170 1052 164
f 1152 1154 1148
f 1156 1085 1112
f 1064 1165 1161
f 1133 1156 1114
f 1057 1149 1099
f 1166 1095 1167
f 1065 1106 1075
f 1144 1110 1072
f 1098 1164 1104
f 1036 1168 1128
f 1119 1103 1060
f 1169 1159 1147
f 1043 1168 1036
f 1133 1138 1156
f 261 1122 321
f 323 1118 263
f 1170 1108 1109
f 1171 1147 1155
f 1163 1170 1109
f 1064 1172 1165
f 1173 1132 1108
f 1152 1148 1045
f 1090 1045 1046
f 1165 1039 1161
f 1154 1051 1148
f 319 1071 1107
f 1169 1167 1159
f 1147 1113 1155
f 1086 1067 257
f 1171 1169 1147
f 1169 1174 1167
f 1050 1175 1078
f 1174 1166 1167
f 1143 1176 1110
f 1173 1177 1132
f 1171 1178 1169
f 1175 1097 1078
f 1157 1046 1179
f 1180 1157 1181
f 1155 1113 1119
f 1148 1076 1045
f 1141 1080 1083
f 1038 1182 1179
f 1132 1171 1155
f 1094 1134 1095
f 1170 1173 1108
f 194 1183 170
f 1136 1184 1137
f 1172 1185 1165
f 1138 1115 1156
f 1180 1096 1097
f 171 1186 189
f 1123 1135 1077
f 1119 1113 1103
f 1132 1177 1171
f 1181 1163 1096
f 1169 1178 1174
f 1187 1079 1173
f 1079 1177 1173
f 1037 1110 1182
f 1046 1038 1179
f 1170 1187 1173
f 1130 1139 1131
f 1157 1179 1181
f 1171 1177 1178
f 1175 1180 1097
f 1050 1105 1175
f 1187 1084 1079
f 316 1062 312
f 1156 1115 1085
f 331 1048 278
f 1153 1065 1064
f 1129 1184 1136
f 1180 1181 1096
f 1038 1037 1182
f 1104 1188 1123
f 1117 1188 102
f 278 1047 310
f 1136 1189 1146
f 1130 1190 1138
f 1115 1068 1085
f 1186 1191 1151
f 1128 1184 1129
f 1163 1192 1170
f 201 1122 54
f 51 1118 202
f 1182 1193 1179
f 101 1188 1104
f 170 1183 1052
f 1181 1193 1163
f 1180 1091 1157
f 1100 1186 171
f 1185 1087 1165
f 1095 1191 1100
f 1179 1193 1181
f 1110 1176 1182
f 1170 1192 1187
f 1111 1080 1141
f 1051 1194 1044
f 1163 1193 1192
f 1071 1066 1107
f 208 1195 1160
f 1069 1068 1056
f 1044 1194 1039
f 1083 1089 1142
f 1162 1196 205
f 189 1195 208
f 1185 1135 1197
f 205 1196 194
f 1146 1189 1183
f 1177 1081 1178
f 1165 1087 1039
f 1175 1091 1180
f 1079 1081 1177
f 1064 1066 1172
f 1105 1091 1175
f 1125 1198 1111
f 1172 1066 1071
f 1086 1101 1067
f 1137 1184 1076
f 1197 1135 1123
f 1095 1134 1167
f 168 1149 1057
f 1159 1134 1133
f 1104 1164 169
f 1154 1194 1051
f 1166 1191 1095
f 1178 1198 1174
f 1117 1197 1188
f 1061 1116 1121
f 1039 1194 1161
f 54 1122 261
f 1133 1139 1138
f 1056 1116 1061
f 1187 1199 1084
f 102 1188 101
f 1111 1198 1081
f 263 1118 51
f 1191 1200 1151
f 1071 1088 1172
f 1121 1190 1130
f 1034 1106 1050
f 1107 1066 1075
f 1092 1065 1153
f 1193 1176 1192
f 1198 1201 1174
f 1174 1201 1166
f 1182 1176 1193
f 1085 1101 1112
f 1124 1201 1125
f 1054 1189 1136
f 1201 1200 1166
f 1081 1198 1178
f 1188 1197 1123
f 1075 1106 1034
f 1143 1199 1176
f 1100 1191 1186
f 1118 1149 202
f 1131 1139 1094
f 1103 1102 1060
f 201 1164 1122
f 1199 1089 1084
f 1176 1199 1192
f 1146 1196 1162
f 1160 1195 1151
f 1125 1201 1198
f 1151 1200 1124
f 1142 1089 1143
f 1052 1189 1054
f 1076 1168 1043
f 1124 1200 1201
f 1186 1195 189
f 194 1196 1183
f 1172 1088 1185
f 1192 1199 1187
f 1185 1197 1087
f 1167 1134 1159
f 1138 1190 1115
f 169 1164 201
f 202 1149 168
f 1161 1194 1154
f 1050 1106 1105
f 1183 1196 1146
f 1087 1197 1117
f 1060 1102 1062
f 1128 1168 1184
f 1151 1195 1186
f 1143 1089 1199
f 1184 1168 1076
f 1183 1189 1052
f 1115 1190 1116
f 1116 1190 1121
f 1166 1200 1191
f 1088 1135 1185
f 1070 1135 1088
f 1202 1203 1204
f 1205 1206 1207
f 1204 1208 1202
f 1209 1210 1211
f 1211 1210 1212
f 1213 1214 1215
f 1216 1213 1215
f 1205 1217 1206
f 1216 1218 1219
f 1215 1218 1216
f 1220 1221 1207
f 1207 1221 1205
f 1222 1223 1224
f 1225 1226 1213
f 1223 1227 1224
f 1228 1229 1230
f 1230 1231 1228
f 1207 1232 1220
f 1213 1226 1233
f 1234 1235 1236
f 1237 1238 1239
f 1236 1227 1234
f 1204 1203 1239
f 1224 1217 1222
f 1240 1232 1229
f 1228 1240 1229
f 1239 1203 1237
f 1206 1217 1224
f 1241 1210 1209
f 1242 1243 1244
f 1225 1244 1245
f 1244 1243 1245
f 1246 1225 1245
f 1247 1226 1225
f 1206 1224 1248
f 1249 1248 1250
f 1206 1248 1249
f 1250 1248 1251
f 1252 1243 1253
f 1253 1243 1242
f 1254 1243 1252
f 1255 1256 1257
f 1255 1257 1258
f 1258 1257 1259
f 1257 1256 1260
f 1261 1257 1260
f 1262 1239 1263
f 1083 1237 1141
f 45 1264 138
f 144 1233 117
f 1140 1202 1126
f 1127 1265 1145
f 135 1222 134
f 1063 1212 1072
f 1162 1228 1158
f 121 1205 146
f 160 1220 205
f 1160 1266 208
f 162 1215 158
f 136 1234 66
f 1144 1241 1142
f 1253 1242 1267
f 1204 1239 1262
f 1253 1267 1204
f 1207 1206 1249
f 1263 1255 1258
f 1253 1204 1262
f 1252 1253 1262
f 1268 1207 1249
f 1262 1263 1258
f 1261 1260 1268
f 1261 1268 1249
f 1252 1262 1258
f 1252 1258 1259
f 1261 1249 1250
f 1259 1257 1261
f 1259 1261 1250
f 1254 1252 1259
f 1254 1259 1250
f 1254 1250 1251
f 1245 1243 1254
f 1248 1224 1269
f 1245 1254 1251
f 1246 1245 1251
f 1251 1248 1269
f 1246 1251 1269
f 1247 1225 1246
f 1246 1269 1236
f 1247 1246 1236
f 1241 1209 1238
f 1239 1238 1263
f 1212 1270 1211
f 1225 1213 1244
f 1238 1209 1263
f 1247 1236 1264
f 1208 1271 1272
f 1263 1209 1255
f 1273 1270 1212
f 1244 1216 1242
f 1272 1274 1208
f 1233 1214 1213
f 1242 1219 1267
f 1236 1235 1264
f 1269 1227 1236
f 1256 1230 1260
f 1209 1211 1255
f 1268 1232 1207
f 1244 1213 1216
f 1230 1229 1260
f 1234 1227 1223
f 1260 1229 1268
f 1267 1208 1204
f 1265 1231 1230
f 1219 1218 1266
f 1255 1211 1256
f 1275 1247 1264
f 1275 1226 1247
f 1238 1276 1241
f 1216 1219 1242
f 33 1275 45
f 1150 1272 1160
f 1160 1272 1266
f 1072 1210 1144
f 66 1223 135
f 45 1275 1264
f 1266 1218 208
f 1264 1235 138
f 144 1214 1233
f 205 1240 1162
f 208 1218 162
f 1265 1273 1145
f 1158 1231 1127
f 162 1218 1215
f 1220 1240 205
f 1205 1221 146
f 135 1223 1222
f 1212 1210 1072
f 1234 1223 66
f 138 1235 136
f 158 1214 144
f 1127 1231 1265
f 146 1221 160
f 136 1235 1234
f 1215 1214 158
f 1063 1273 1212
f 1228 1231 1158
f 1145 1273 1063
f 1162 1240 1228
f 160 1221 1220
f 1144 1210 1241
f 1083 1276 1237
f 1241 1276 1142
f 1142 1276 1083
f 1202 1274 1126
f 1237 1276 1238
f 1233 1277 117
f 1140 1278 1202
f 1237 1278 1141
f 1222 1279 134
f 121 1279 1205
f 1256 1270 1230
f 1230 1270 1265
f 1224 1227 1269
f 1219 1271 1267
f 1126 1274 1150
f 1267 1271 1208
f 1220 1232 1240
f 1141 1278 1140
f 134 1279 121
f 117 1277 33
f 1208 1274 1202
f 1226 1277 1233
f 1229 1232 1268
f 1202 1278 1203
f 1203 1278 1237
f 1211 1270 1256
f 1275 1277 1226
f 1217 1279 1222
f 1205 1279 1217
f 1150 1274 1272
f 1266 1271 1219
f 33 1277 1275
f 1265 1270 1273
f 1272 1271 1266
