v 8.09154085 0.81621879 5.81899936
v 8.51003773 1.48228359 5.03806443
v 7.87889978 1.75414886 5.90304160
v 9.57874232 2.21001697 1.83399034
v 9.83860736 1.50106909 0.97395939
v 9.66524509 2.42101786 0.84953513
v 8.57927420 0.65412904 5.09589731
v 9.72495342 1.37646877 1.87899302
v 4.48114290 2.06537365 8.69790722
v 3.65202303 1.72159789 9.14870638
v 4.37153846 0.90838203 8.94787649
v 6.69131213 0.84953513 7.38272525
v 7.40910044 0.84492553 6.66268201
v 7.21454183 1.74154804 6.70204421
v 6.58340881 1.74040125 7.32323234
v 5.24189297 1.34962732 8.40839249
v 8.99355715 0.97034706 4.26313927
v 9.18091258 1.76032077 3.55135396
v 8.76606527 1.98253600 4.38470647
v 2.56555166 9.62770391 0.85162318
v 3.13643319 9.34567992 1.67959927
v 3.40295463 9.36721314 0.82171632
v 3.83414702 2.80106172 8.80075962
v 2.93856842 2.54138875 9.21445380
v 2.29641722 9.60357994 1.58041773
v 2.04756126 2.26801403 9.52174381
v 1.48404700 2.99085729 9.42615389
v 0.84748482 2.41762500 9.66627430
v 5.99702589 1.56946359 7.84681238
v 1.39771915 1.81409329 9.73424094
v 9.40491777 0.84264771 3.29203078
v 8.26056126 2.27179596 5.15771954
v 1.95090322 -0.00000000 9.80785280
v 1.46005458 0.96966768 9.84520113
v 0.98017140 -0.00000000 9.95184727
v 5.90174788 0.71486246 8.04104120
v 5.13200364 0.59223521 8.56223079
v 3.30278967 8.35835035 4.38515220
v 4.10011280 8.29804635 3.78569701
v 3.32998343 8.73288926 3.55638236
v 1.60655509 9.67841193 1.93580039
v 1.55250605 9.83377664 0.94157420
v 7.04722884 6.89739631 1.66207394
v 6.72623539 7.35342001 0.82763010
v 6.32577128 7.56999107 1.63702564
v 0.92980766 0.61634672 9.93758393
v 2.42101786 0.84953513 9.66524509
v 7.41417855 6.65981733 0.82267217
v 3.42311362 0.80192109 9.36158190
v 2.78208656 1.67847219 9.45741643
v 4.02811842 4.52435848 7.95640888
v 4.84770216 4.68366563 7.38668126
v 4.09910313 5.33922159 7.39527324
v 3.32672243 7.32197516 5.94319760
v 3.31931699 7.89515588 5.16223289
v 2.51169143 7.80243639 5.72829752
v 5.53494507 3.97562065 7.31838941
v 6.24688197 4.03379409 6.68617760
v 5.56905443 4.77555833 6.79556292
v 5.54645294 8.13360360 1.75537809
v 5.96373375 7.98316740 0.83840208
v 5.14527985 8.53413285 0.83346971
v 0.79332120 9.85655561 1.48961503
v 4.75536028 3.86035865 7.90469352
v 4.86870079 5.45319469 6.82337309
v 6.25406903 4.79093842 6.15902019
v 6.63943572 7.06254751 2.45729850
v 4.09776243 7.89525062 4.56873732
v 9.46240461 2.90219008 1.42835283
v 9.86235715 0.75300901 1.47203561
v 7.34467469 2.54367095 6.29170023
v 0.00000000 8.31469612 5.55570233
v 0.84754419 8.01539751 5.91904313
v 0.84939749 8.55187448 5.11311713
v 0.00000000 2.90284677 9.56940336
v 0.85867941 3.39734467 9.36593396
v 0.85595610 4.27978455 8.99726532
v 1.69292427 4.64280569 8.69358170
v 0.84953513 5.12244220 8.54627849
v 0.00000000 4.71396737 8.81921264
v 0.00000000 6.34393284 7.73010453
v 0.85184753 5.94716522 7.99409668
v 0.84953513 6.69131213 7.38272525
v 4.62503709 2.98288655 8.34933649
v 5.27318440 2.26354619 8.18962056
v 0.00000000 9.56940336 2.90284677
v 0.84613724 9.38466240 3.34845686
v 0.83244507 9.66737008 2.41846872
v 0.00000000 8.81921264 4.71396737
v 0.84995570 9.00928768 4.25562109
v 0.00000000 9.23879533 3.82683432
v 8.89101923 2.66112206 3.72400408
v 9.26639878 2.44489927 2.85592738
v 8.93704942 3.33287098 3.00351773
v 8.51047483 3.55467581 3.86472483
v 8.51305175 4.20859925 3.13299253
v 8.42379490 2.86913104 4.56155309
v 8.81921264 4.71396737 0.00000000
v 9.01008881 4.25868303 0.82578353
v 9.23879533 3.82683432 0.00000000
v 2.90284677 9.56940336 0.00000000
v 3.82683432 9.23879533 0.00000000
v 7.89725899 5.62804853 2.44097730
v 7.28037549 6.39014860 2.48236451
v 7.42945708 5.83575681 3.27827851
v 9.56940336 -0.00000000 2.90284677
v 9.23879533 -0.00000000 3.82683432
v 0.00000000 -0.00000000 10.00000000
v 0.00000000 0.98017140 9.95184727
v 8.04673962 4.41287348 3.97196792
v 0.00000000 9.80785280 1.95090322
v 9.56940336 2.90284677 0.00000000
v 9.80785280 1.95090322 0.00000000
v 8.00935035 5.04598945 3.22308818
v 7.50428769 5.22743521 4.04469867
v 4.71396737 8.81921264 0.00000000
v 5.55570233 8.31469612 0.00000000
v 0.00000000 3.82683432 9.23879533
v 0.84953513 1.46200031 9.85600554
v 0.00000000 1.95090322 9.80785280
v 7.50414537 4.57105286 4.77423062
v 0.00000000 7.07106781 7.07106781
v 2.90284677 -0.00000000 9.56940336
v 8.81921264 -0.00000000 4.71396737
v 8.31469612 -0.00000000 5.55570233
v 0.00000000 5.55570233 8.31469612
v 6.92547139 5.36196645 4.82567735
v 6.89678194 4.71306279 5.49740284
v 7.44409402 3.94144478 5.38984947
v 7.69534970 6.17196518 1.63964594
v 6.27848583 5.44828523 5.55848934
v 6.03877688 2.41753856 7.59530652
v 5.41642838 3.14994409 7.79359710
v 6.75672964 2.55447024 6.91529366
v 6.81129015 3.34111499 6.51485050
v 2.20103505 3.18875249 9.21885580
v 0.84953513 7.38272525 6.69131213
v 0.00000000 7.73010453 6.34393284
v 7.07106781 7.07106781 0.00000000
v 7.73010453 6.34393284 0.00000000
v 8.27400489 5.38605679 1.59098569
v 9.25299103 3.10812400 2.17295243
v 7.07106781 -0.00000000 7.07106781
v 6.34393284 -0.00000000 7.73010453
v 6.77707218 6.56835030 3.30576271
v 6.89186705 5.98402185 4.08578647
v 4.71396737 -0.00000000 8.81921264
v 3.82683432 -0.00000000 9.23879533
v 3.07963806 3.44829782 8.86707796
v 0.98017140 9.95184727 0.00000000
v 1.95090322 9.80785280 0.00000000
v 9.95184727 -0.00000000 0.98017140
v 9.80785280 -0.00000000 1.95090322
v 6.15437433 3.29049964 7.16214275
v 6.28158621 6.10255042 4.82706463
v 2.35166570 4.09097825 8.81666408
v 5.60428758 6.16099187 5.53481164
v 5.59294177 5.49190385 6.20950839
v 3.93004344 3.67092401 8.43084073
v 3.19490873 4.32102042 8.43334695
v 5.57870203 6.78565965 4.77837909
v 5.51902263 7.29735907 4.03595587
v 4.83451315 7.39204863 4.68882711
v 4.87441385 6.81285504 5.46123575
v 5.54950383 7.87325031 2.68606342
v 4.83313889 8.42260509 2.38757033
v 4.85428144 8.12920545 3.21744782
v 4.09590643 7.39758556 5.33847154
v 3.27555132 5.15310703 7.91935929
v 4.12507061 6.77144097 6.09355231
v 4.88185823 6.15392543 6.18842969
v 4.11946107 8.62320490 2.94455053
v 3.32078774 5.93652967 7.33007396
v 4.01886835 8.90860751 2.11787853
v 2.50010185 5.74213005 7.79598828
v 2.45075929 4.93988918 8.34213844
v 3.29907825 9.06189383 2.64540409
v 3.33790183 6.66181748 6.66922778
v 2.52050024 6.48504984 7.18270194
v 2.44770979 9.41181059 2.32949314
v 2.50650120 9.13274193 3.21099308
v 2.52347113 7.17860034 6.48843514
v 2.51453866 8.76570832 4.10359026
v 1.69393161 6.96888067 6.96888067
v 1.69426549 8.69574033 4.63827173
v 2.50625646 8.32877219 4.93459546
v 1.68788621 9.11311018 3.75529799
v 4.28876073 9.00054273 0.77250365
v 1.68665612 7.62816169 6.24230248
v 7.73010453 -0.00000000 6.34393284
v 4.12977263 6.09162128 6.77031227
v 1.68665612 6.24230248 7.62816169
v 9.67545078 0.79504112 2.39865835
v 9.38266515 3.35895395 0.82645211
v 8.00324277 3.74614226 4.68129504
v 6.34393284 7.73010453 0.00000000
v 8.87369207 3.99573517 2.30036727
v 8.02597180 5.91169072 0.79730139
v 7.92832399 3.11853900 5.23606657
v 1.69290482 5.47555161 8.19465728
v 1.62491931 3.78848111 9.11082039
v 1.68394270 8.20735473 5.45927332
v 8.43369539 4.81875155 2.37748092
v 6.21493420 6.68586932 4.08334965
v 1.67219499 9.44071383 2.84195113
v 8.55986300 5.11098826 0.77880963
v 4.67160090 8.70281789 1.56112325
v 9.95184727 0.98017140 0.00000000
v 0.00000000 9.95184727 0.98017140
v 6.07068968 7.28373732 3.17708947
v 8.72755811 4.61568697 1.58907624
v 6.09217852 7.58308680 2.31994730
v 8.31469612 5.55570233 0.00000000
v 9.49372317 1.59669193 2.70551202
v 0.00000000 10.00000000 0.00000000
v 0.71712994 9.94843954 0.71712994
v 9.94852964 0.71650472 0.71650472
v 10.00000000 -0.00000000 0.00000000
v 6.86685353 4.05455078 6.03381642
v 9.15033189 3.73621411 1.52056911
v 3.84280829 9.12565298 1.39831406
v 7.82421458 2.50025811 5.70354062
v 7.41211248 3.26832965 5.86332754
v 4.81426234 7.81701743 3.96448189
v 5.55570233 -0.00000000 8.31469612
v 5.42950078 7.68995850 3.37417540
v 2.02928260 1.51066419 9.67470443
v 0.00000000 1.88859723 5.11702565
v 0.00000000 0.90985285 4.56867818
v 0.00000000 0.86454852 5.53232348
v 0.00000000 0.89918428 2.41073736
v 0.00000000 1.86000187 1.81302619
v 0.00000000 0.83266829 1.46708375
v 0.00000000 2.05786773 8.64101855
v 0.00000000 1.68139069 2.75576300
v 0.00000000 1.68652907 4.18958728
v 0.00000000 4.55869566 6.05179719
v 0.00000000 5.63672844 6.08170548
v 0.00000000 5.04803404 5.18255172
v 0.00000000 3.17598856 8.58331562
v 0.00000000 6.76856554 6.11629292
v 0.00000000 6.02966698 5.17425760
v 0.00000000 3.07013446 6.90129191
v 0.00000000 2.61228602 7.76390050
v 0.00000000 3.60052330 7.74592483
v 0.00000000 7.02877880 5.11143061
v 0.00000000 8.07008591 1.72162465
v 0.00000000 8.86422078 2.22037172
v 0.00000000 9.19130647 1.36340152
v 0.00000000 8.49968900 0.76789040
v 0.00000000 5.11749820 6.87022944
v 0.00000000 1.61755540 7.72355709
v 0.00000000 0.86602540 8.50000000
v 0.00000000 1.03495442 3.48118871
v 0.00000000 2.06056622 3.46629893
v 0.00000000 4.03271410 6.88515393
v 0.00000000 4.68762044 7.83301619
v 0.00000000 6.08297558 6.89437901
v 0.00000000 1.58715742 6.19229814
v 0.00000000 5.55754588 7.52848506
v 0.00000000 1.30133231 9.24204503
v 0.00000000 1.50470495 0.84662031
v 0.00000000 3.02853918 1.72886022
v 0.00000000 2.50618529 0.86462193
v 0.00000000 2.55224664 2.60756381
v 0.00000000 7.00064481 1.72422492
v 0.00000000 7.41454041 2.55864204
v 0.00000000 3.50843838 0.86115350
v 0.00000000 4.50739388 0.86495952
v 0.00000000 5.01113158 1.72858714
v 0.00000000 5.50315011 0.86420669
v 0.00000000 7.49991066 0.84790429
v 0.00000000 8.00000000 0.00000000
v 0.00000000 6.00808869 3.44771804
v 0.00000000 6.49413675 4.31050406
v 0.00000000 6.93642964 3.42608185
v 0.00000000 3.00000000 0.00000000
v 0.00000000 5.51321008 4.30749320
v 0.00000000 5.00000000 0.00000000
v 0.00000000 6.50111409 0.86446070
v 0.00000000 4.52196359 4.31000107
v 0.00000000 6.50349912 2.58728906
v 0.00000000 0.00000000 8.00000000
v 0.00000000 0.00000000 9.00000000
v 0.00000000 3.53441707 6.02951072
v 0.00000000 0.00000000 6.00000000
v 0.00000000 0.75876900 6.50897677
v 0.00000000 9.00000000 0.00000000
v 0.00000000 7.00000000 0.00000000
v 0.00000000 6.00507820 1.72727115
v 0.00000000 4.02793949 5.17005578
v 0.00000000 6.00000000 0.00000000
v 0.00000000 0.00000000 4.00000000
v 0.00000000 5.51066275 2.58956593
v 0.00000000 0.00000000 5.00000000
v 0.00000000 0.00000000 7.00000000
v 0.00000000 2.11640236 6.91382566
v 0.00000000 4.01796395 1.72921057
v 0.00000000 2.55588769 6.02625084
v 0.00000000 5.01639961 3.45014486
v 0.00000000 4.00000000 0.00000000
v 0.00000000 3.03644289 5.17223746
v 0.00000000 3.53038977 4.31191117
v 0.00000000 0.00000000 3.00000000
v 0.00000000 2.00000000 0.00000000
v 0.00000000 0.00000000 2.00000000
v 0.00000000 1.00000000 0.00000000
v 0.00000000 4.02449335 3.45148260
v 0.00000000 3.03144554 3.45300384
v 0.00000000 8.33173650 4.02075092
v 0.00000000 2.53867462 4.31474495
v 0.00000000 3.52617221 2.59189985
v 0.00000000 4.51834317 2.59077542
v 0.00000000 7.43350727 4.16760978
v 0.00000000 7.91762281 4.86492410
v 0.00000000 0.00000000 1.00000000
v 0.00000000 7.83352194 3.31112713
v 0.00000000 7.57780552 5.62008360
v 0.00000000 0.71823074 7.50000000
v 0.00000000 1.34635023 7.02344225
v 0.00000000 0.00000000 0.00000000
v 0.00000000 0.73211865 0.73211865
v 0.00000000 8.66464375 3.13978129
v 0.00000000 4.01245262 8.47580048
v 0.00000000 0.62950582 9.33877846
v 0.00000000 9.30950655 0.65169381
v 0.00000000 8.22027404 2.55389692
v 4.56867950 0.90985315 0.00000000
v 5.11703574 1.88859512 0.00000000
v 5.53232544 0.86454832 0.00000000
v 1.81304928 1.85997789 0.00000000
v 2.41075708 0.89917760 0.00000000
v 1.46708845 0.83263633 0.00000000
v 8.64105949 2.05788414 0.00000000
v 2.75577383 1.68138380 0.00000000
v 4.18959102 1.68652813 0.00000000
v 6.08192085 5.63656027 0.00000000
v 6.05236661 4.55825864 0.00000000
v 5.18268257 5.04793317 0.00000000
v 8.58377079 3.17620437 0.00000000
v 5.17425758 6.02966698 0.00000000
v 6.11629292 6.76856554 0.00000000
v 7.76439813 2.61243261 0.00000000
v 6.90195595 3.06999533 0.00000000
v 7.74669479 3.60037149 0.00000000
v 5.11143060 7.02877880 0.00000000
v 2.22037172 8.86422078 0.00000000
v 1.72162465 8.07008591 0.00000000
v 1.36340152 9.19130647 0.00000000
v 0.76789040 8.49968900 0.00000000
v 6.87071749 5.11714633 0.00000000
v 8.50000000 0.86602540 0.00000000
v 7.72366113 1.61757642 0.00000000
v 3.46630099 2.06056556 0.00000000
v 3.48119228 1.03495318 0.00000000
v 7.83323528 4.68757770 0.00000000
v 6.88694989 4.03115549 0.00000000
v 6.89451766 6.08290478 0.00000000
v 6.19233170 1.58715056 0.00000000
v 7.52865422 5.55745280 0.00000000
v 9.24205322 1.30133560 0.00000000
v 0.84667353 1.50461171 0.00000000
v 0.86464073 2.50616311 0.00000000
v 1.72885347 3.02853767 0.00000000
v 2.60756953 2.55224478 0.00000000
v 2.55864204 7.41454041 0.00000000
v 1.72422492 7.00064481 0.00000000
v 0.86115200 3.50844098 0.00000000
v 1.72858694 5.01113192 0.00000000
v 0.86495913 4.50739454 0.00000000
v 0.86420669 5.50315011 0.00000000
v 0.84790429 7.49991066 0.00000000
v 4.31050405 6.49413675 0.00000000
v 3.44771804 6.00808869 0.00000000
v 3.42608185 6.93642964 0.00000000
v 4.30749312 5.51321009 0.00000000
v 6.02989129 3.53432905 0.00000000
v 0.86446070 6.50111409 0.00000000
v 4.31000113 4.52196345 0.00000000
v 2.58728906 6.50349912 0.00000000
v 9.00000000 0.00000000 0.00000000
v 8.00000000 0.00000000 0.00000000
v 6.50897709 0.75876930 0.00000000
v 6.00000000 0.00000000 0.00000000
v 1.72727115 6.00507820 0.00000000
v 5.17005611 4.02793960 0.00000000
v 4.00000000 0.00000000 0.00000000
v 2.58956593 5.51066275 0.00000000
v 5.00000000 0.00000000 0.00000000
v 7.00000000 0.00000000 0.00000000
v 6.91394815 2.11637756 0.00000000
v 1.72920898 4.01796449 0.00000000
v 6.02631540 2.55587349 0.00000000
v 3.45014486 5.01639961 0.00000000
v 5.17223862 3.03644284 0.00000000
v 4.31191150 3.53038928 0.00000000
v 3.00000000 0.00000000 0.00000000
v 2.00000000 0.00000000 0.00000000
v 3.45148205 4.02449295 0.00000000
v 3.45300307 3.03144377 0.00000000
v 4.02075092 8.33173650 0.00000000
v 4.31474661 2.53867365 0.00000000
v 2.59189783 3.52617130 0.00000000
v 2.59077482 4.51834323 0.00000000
v 4.16760978 7.43350728 0.00000000
v 4.86492410 7.91762281 0.00000000
v 1.00000000 0.00000000 0.00000000
v 3.31112713 7.83352194 0.00000000
v 5.62008360 7.57780552 0.00000000
v 7.50000000 0.71823232 0.00000000
v 7.02346245 1.34634952 0.00000000
v 0.73205081 0.73205081 0.00000000
v 3.13978129 8.66464375 0.00000000
v 8.47643169 4.01268364 0.00000000
v 9.33878010 0.62950648 0.00000000
v 0.65169381 9.30950655 0.00000000
v 2.55389692 8.22027404 0.00000000
v 5.11702565 0.00000000 1.88859723
v 4.56867818 0.00000000 0.90985285
v 5.53232348 0.00000000 0.86454852
v 2.41073736 0.00000000 0.89918428
v 1.81302619 0.00000000 1.86000187
v 1.46708375 0.00000000 0.83266829
v 8.64101855 0.00000000 2.05786773
v 2.75576300 0.00000000 1.68139069
v 4.18958728 0.00000000 1.68652907
v 6.05179719 0.00000000 4.55869566
v 6.08170548 0.00000000 5.63672844
v 5.18255172 0.00000000 5.04803404
v 8.58331562 0.00000000 3.17598856
v 6.11629292 0.00000000 6.76856554
v 5.17425760 0.00000000 6.02966698
v 6.90129191 0.00000000 3.07013446
v 7.76390050 0.00000000 2.61228602
v 7.74592483 0.00000000 3.60052330
v 5.11143061 0.00000000 7.02877880
v 1.72162465 0.00000000 8.07008591
v 2.22037172 0.00000000 8.86422078
v 1.36340152 0.00000000 9.19130647
v 0.76789040 0.00000000 8.49968900
v 6.87022944 0.00000000 5.11749820
v 7.72355709 0.00000000 1.61755540
v 8.50000000 0.00000000 0.86602540
v 3.48118871 0.00000000 1.03495442
v 3.46629893 0.00000000 2.06056622
v 6.88515393 0.00000000 4.03271410
v 7.83301619 0.00000000 4.68762044
v 6.89437901 0.00000000 6.08297558
v 6.19229814 0.00000000 1.58715742
v 7.52848506 0.00000000 5.55754588
v 9.24204503 0.00000000 1.30133231
v 0.84662031 0.00000000 1.50470495
v 1.72886022 0.00000000 3.02853918
v 0.86462193 0.00000000 2.50618529
v 2.60756381 0.00000000 2.55224664
v 1.72422492 0.00000000 7.00064481
v 2.55864204 0.00000000 7.41454041
v 0.86115350 0.00000000 3.50843838
v 0.86495952 0.00000000 4.50739388
v 1.72858714 0.00000000 5.01113158
v 0.86420669 0.00000000 5.50315011
v 0.84790429 0.00000000 7.49991066
v 3.44771804 0.00000000 6.00808869
v 4.31050406 0.00000000 6.49413675
v 3.42608185 0.00000000 6.93642964
v 4.30749320 0.00000000 5.51321008
v 0.86446070 0.00000000 6.50111409
v 4.31000107 0.00000000 4.52196359
v 2.58728906 0.00000000 6.50349912
v 6.02951072 0.00000000 3.53441707
v 6.50897677 0.00000000 0.75876900
v 1.72727115 0.00000000 6.00507820
v 5.17005578 0.00000000 4.02793949
v 2.58956593 0.00000000 5.51066275
v 6.91382566 0.00000000 2.11640236
v 1.72921057 0.00000000 4.01796395
v 6.02625084 0.00000000 2.55588769
v 3.45014486 0.00000000 5.01639961
v 5.17223746 0.00000000 3.03644289
v 4.31191117 0.00000000 3.53038977
v 3.45148260 0.00000000 4.02449335
v 3.45300384 0.00000000 3.03144554
v 4.02075092 0.00000000 8.33173650
v 4.31474495 0.00000000 2.53867462
v 2.59189985 0.00000000 3.52617221
v 2.59077542 0.00000000 4.51834317
v 4.16760978 0.00000000 7.43350727
v 4.86492410 0.00000000 7.91762281
v 3.31112713 0.00000000 7.83352194
v 5.62008360 0.00000000 7.57780552
v 7.50000000 0.00000000 0.71823074
v 7.02344225 0.00000000 1.34635023
v 0.73211865 0.00000000 0.73211865
v 3.13978129 0.00000000 8.66464375
v 8.47580048 0.00000000 4.01245262
v 9.33877846 0.00000000 0.62950582
v 0.65169381 0.00000000 9.30950655
v 2.55389692 0.00000000 8.22027404
f 1 2 3
f 4 5 6
f 7 2 1
f 4 8 5
f 9 10 11
f 12 13 14
f 14 15 12
f 11 16 9
f 17 18 19
f 1 3 13
f 20 21 22
f 13 3 14
f 10 23 24
f 20 25 21
f 9 23 10
f 26 27 28
f 12 15 29
f 28 30 26
f 31 18 17
f 3 2 32
f 33 34 35
f 29 36 12
f 16 36 29
f 19 2 17
f 16 37 36
f 38 39 40
f 41 25 42
f 43 44 45
f 35 34 46
f 47 34 33
f 48 44 43
f 49 50 47
f 10 49 11
f 51 52 53
f 54 55 56
f 10 50 49
f 57 58 59
f 60 61 62
f 63 41 42
f 42 25 20
f 64 52 51
f 53 52 65
f 59 58 66
f 67 43 45
f 68 39 38
f 6 69 4
f 24 50 10
f 5 8 70
f 14 3 71
f 72 73 74
f 75 28 76
f 77 78 79
f 80 77 79
f 81 82 83
f 84 9 85
f 9 16 85
f 86 87 88
f 89 90 91
f 72 74 89
f 92 93 94
f 95 94 96
f 95 92 94
f 95 97 92
f 98 99 100
f 101 22 102
f 103 104 105
f 106 31 107
f 108 46 109
f 110 95 96
f 86 88 111
f 112 6 113
f 114 103 105
f 110 96 114
f 114 105 115
f 116 62 117
f 110 114 115
f 75 76 118
f 109 119 120
f 121 110 115
f 81 83 122
f 123 47 33
f 124 7 125
f 80 79 126
f 121 115 127
f 128 129 121
f 103 130 104
f 7 1 125
f 128 121 127
f 131 66 128
f 85 132 133
f 134 14 71
f 134 71 135
f 136 26 24
f 97 32 19
f 97 19 92
f 122 137 138
f 139 48 140
f 103 141 130
f 85 29 132
f 93 4 142
f 93 142 94
f 143 12 144
f 145 146 105
f 147 11 148
f 131 128 127
f 84 85 133
f 136 24 149
f 150 42 151
f 152 70 153
f 104 145 105
f 104 67 145
f 134 135 154
f 132 134 154
f 131 127 155
f 156 136 149
f 84 133 64
f 157 158 131
f 132 154 133
f 149 23 159
f 160 156 149
f 159 84 64
f 157 131 155
f 160 149 159
f 159 64 51
f 157 155 161
f 161 162 163
f 160 159 51
f 164 157 161
f 165 60 166
f 167 165 166
f 164 161 163
f 163 68 168
f 169 160 51
f 170 171 164
f 164 163 168
f 172 167 166
f 169 51 53
f 170 164 168
f 169 53 173
f 172 166 174
f 175 176 169
f 170 168 54
f 175 169 173
f 172 174 177
f 178 170 54
f 179 175 173
f 40 172 177
f 177 180 181
f 179 173 178
f 178 54 182
f 40 177 181
f 179 178 182
f 183 40 181
f 184 179 182
f 185 186 183
f 183 181 187
f 22 188 102
f 62 61 117
f 184 182 189
f 185 183 187
f 1 13 190
f 178 191 170
f 83 192 184
f 184 189 137
f 185 187 90
f 56 55 186
f 70 193 153
f 112 194 6
f 101 20 22
f 95 195 97
f 122 83 137
f 109 46 119
f 89 74 90
f 91 87 86
f 125 1 190
f 126 82 81
f 118 77 80
f 120 28 75
f 102 188 116
f 117 61 196
f 11 37 16
f 153 193 106
f 142 197 94
f 100 194 112
f 151 20 101
f 83 184 137
f 74 185 90
f 184 192 179
f 169 176 160
f 164 171 157
f 159 23 84
f 24 23 149
f 131 158 66
f 105 146 115
f 85 16 29
f 173 191 178
f 191 171 170
f 141 198 130
f 110 195 95
f 99 194 100
f 42 20 151
f 106 193 31
f 97 199 32
f 116 188 62
f 79 200 82
f 76 201 77
f 90 87 91
f 79 82 126
f 76 77 118
f 119 28 120
f 158 59 66
f 60 45 61
f 82 192 83
f 79 78 200
f 138 73 72
f 195 199 97
f 73 202 74
f 96 203 114
f 103 203 141
f 114 203 103
f 179 192 175
f 48 43 130
f 94 197 96
f 77 201 78
f 121 195 110
f 190 13 143
f 185 202 186
f 53 65 191
f 145 204 146
f 53 191 173
f 137 73 138
f 160 176 156
f 171 158 157
f 84 23 9
f 115 146 127
f 187 87 90
f 189 73 137
f 181 205 187
f 19 18 92
f 124 17 7
f 31 17 107
f 57 52 64
f 129 195 121
f 205 87 187
f 127 146 155
f 130 198 48
f 180 205 181
f 92 18 93
f 17 2 7
f 74 202 185
f 141 206 198
f 62 207 60
f 143 13 12
f 96 197 203
f 88 87 205
f 161 204 162
f 107 17 124
f 82 200 192
f 189 202 73
f 139 44 48
f 65 171 191
f 168 55 54
f 130 43 104
f 61 44 196
f 45 44 61
f 113 5 208
f 146 204 155
f 48 198 140
f 133 57 64
f 111 63 209
f 54 56 182
f 174 21 177
f 129 199 195
f 155 204 161
f 202 56 186
f 134 15 14
f 29 15 132
f 204 210 162
f 98 206 99
f 145 210 204
f 11 49 148
f 123 49 47
f 196 44 139
f 206 211 99
f 68 55 168
f 180 41 205
f 104 43 67
f 210 212 165
f 67 210 145
f 192 200 175
f 175 200 176
f 154 57 133
f 40 39 172
f 6 5 113
f 26 50 24
f 140 198 213
f 182 56 189
f 12 36 144
f 205 41 88
f 189 56 202
f 88 63 111
f 93 214 4
f 65 59 158
f 65 158 171
f 60 207 166
f 177 21 180
f 186 38 183
f 183 38 40
f 198 206 213
f 215 216 150
f 209 216 215
f 193 214 31
f 147 37 11
f 132 15 134
f 208 217 218
f 218 217 152
f 76 27 201
f 197 211 203
f 213 206 98
f 88 41 63
f 154 58 57
f 148 49 123
f 200 78 176
f 141 211 206
f 31 214 18
f 128 219 129
f 142 220 197
f 67 212 210
f 60 212 45
f 165 212 60
f 188 207 62
f 188 221 207
f 135 58 154
f 3 222 71
f 52 59 65
f 55 38 186
f 197 220 211
f 203 211 141
f 172 39 167
f 223 222 199
f 136 27 26
f 219 223 129
f 163 224 68
f 57 59 52
f 142 69 220
f 71 222 223
f 176 78 156
f 201 27 136
f 144 36 225
f 207 221 174
f 66 219 128
f 21 25 180
f 166 207 174
f 165 226 210
f 68 38 55
f 4 69 142
f 18 214 93
f 214 8 4
f 162 224 163
f 99 220 194
f 45 212 67
f 36 37 225
f 35 46 108
f 211 220 99
f 47 227 34
f 78 201 156
f 63 216 209
f 5 217 208
f 162 226 224
f 220 69 194
f 46 34 119
f 28 27 76
f 156 201 136
f 225 37 147
f 152 217 70
f 150 216 42
f 194 69 6
f 70 8 193
f 135 223 219
f 68 224 39
f 129 223 199
f 22 221 188
f 119 30 28
f 32 2 19
f 71 223 135
f 167 226 165
f 224 226 167
f 174 221 21
f 199 222 32
f 42 216 63
f 70 217 5
f 50 227 47
f 58 219 66
f 26 227 50
f 193 8 214
f 210 226 162
f 180 25 41
f 21 221 22
f 135 219 58
f 32 222 3
f 39 224 167
f 227 30 34
f 34 30 119
f 26 30 227
f 228 229 230
f 231 232 233
f 120 75 234
f 232 231 235
f 229 228 236
f 237 238 239
f 75 240 234
f 241 242 238
f 238 242 239
f 243 244 245
f 242 241 246
f 247 248 249
f 250 247 249
f 238 237 251
f 252 253 234
f 254 255 235
f 256 257 251
f 257 256 245
f 244 240 245
f 238 251 258
f 228 230 259
f 255 254 236
f 256 243 245
f 258 251 260
f 120 234 261
f 232 262 233
f 234 253 261
f 231 254 235
f 240 244 234
f 263 264 232
f 265 263 232
f 266 267 247
f 264 263 268
f 269 270 271
f 250 272 247
f 272 266 247
f 254 229 236
f 250 273 272
f 274 275 276
f 277 264 268
f 242 278 239
f 279 269 271
f 272 280 266
f 278 281 239
f 266 282 267
f 283 284 253
f 285 243 256
f 286 287 230
f 282 274 276
f 267 282 276
f 288 273 250
f 289 280 272
f 237 256 251
f 275 242 246
f 266 290 282
f 274 278 275
f 291 285 237
f 237 285 256
f 275 278 242
f 290 280 271
f 244 252 234
f 281 291 239
f 289 292 280
f 266 280 290
f 293 229 254
f 273 289 272
f 270 290 271
f 282 294 274
f 229 295 230
f 286 296 287
f 243 297 244
f 291 237 239
f 263 298 268
f 285 299 243
f 274 300 278
f 279 301 269
f 293 295 229
f 291 302 285
f 295 286 230
f 282 290 294
f 281 303 291
f 264 262 232
f 231 304 254
f 304 293 254
f 298 269 268
f 274 294 300
f 277 305 264
f 306 304 231
f 264 305 262
f 278 300 281
f 305 307 262
f 280 292 271
f 243 299 297
f 291 303 302
f 292 279 271
f 285 302 299
f 244 297 252
f 281 308 303
f 122 138 241
f 309 265 255
f 80 126 257
f 89 91 310
f 294 290 270
f 281 300 308
f 75 118 240
f 309 255 311
f 265 312 263
f 303 308 309
f 270 269 298
f 309 308 312
f 86 111 248
f 299 302 228
f 309 312 265
f 300 294 313
f 303 309 311
f 308 300 313
f 294 270 313
f 302 303 311
f 312 308 313
f 228 302 311
f 301 277 268
f 313 270 298
f 312 313 298
f 263 312 298
f 269 301 268
f 276 275 314
f 314 246 315
f 316 306 233
f 276 314 317
f 315 246 318
f 253 252 319
f 297 259 320
f 297 299 259
f 241 238 258
f 283 253 319
f 287 296 319
f 306 231 233
f 314 310 317
f 275 246 314
f 265 232 235
f 228 311 236
f 259 287 320
f 307 321 322
f 321 316 322
f 299 228 259
f 91 86 323
f 310 91 323
f 230 287 259
f 86 248 323
f 251 257 260
f 122 241 258
f 248 111 249
f 246 241 318
f 257 126 260
f 257 245 324
f 245 240 324
f 89 310 315
f 81 122 258
f 80 257 324
f 240 118 324
f 241 138 318
f 296 283 319
f 284 108 325
f 215 288 326
f 109 120 261
f 111 209 249
f 108 109 325
f 209 215 326
f 311 255 236
f 255 265 235
f 310 314 315
f 126 81 260
f 310 323 317
f 248 247 327
f 247 267 327
f 316 233 322
f 253 284 325
f 288 250 326
f 72 89 315
f 81 258 260
f 267 276 317
f 287 319 320
f 262 307 322
f 317 323 327
f 118 80 324
f 138 72 318
f 252 297 320
f 233 262 322
f 72 315 318
f 261 253 325
f 250 249 326
f 267 317 327
f 323 248 327
f 319 252 320
f 109 261 325
f 249 209 326
f 328 329 330
f 331 332 333
f 112 113 334
f 332 331 335
f 329 328 336
f 337 338 339
f 340 112 334
f 341 342 337
f 341 337 339
f 343 344 345
f 342 341 346
f 347 348 349
f 348 350 349
f 338 337 351
f 352 353 334
f 354 355 335
f 356 357 351
f 351 337 358
f 340 343 345
f 357 356 345
f 330 329 359
f 355 354 336
f 344 357 345
f 351 358 360
f 334 113 361
f 362 331 333
f 352 334 361
f 355 332 335
f 343 340 334
f 363 364 331
f 364 365 331
f 366 367 348
f 364 363 368
f 369 370 371
f 372 350 348
f 367 372 348
f 328 355 336
f 273 350 372
f 373 374 375
f 363 277 368
f 376 341 339
f 357 338 351
f 370 279 371
f 377 338 357
f 378 372 367
f 379 376 339
f 380 367 366
f 381 382 352
f 383 384 330
f 374 380 375
f 380 366 375
f 273 288 350
f 378 289 372
f 344 377 357
f 341 373 346
f 385 367 380
f 376 374 373
f 377 386 338
f 376 373 341
f 378 385 371
f 353 343 334
f 386 379 339
f 292 289 378
f 378 367 385
f 328 387 355
f 289 273 372
f 385 369 371
f 388 380 374
f 389 328 330
f 390 384 383
f 391 344 343
f 338 386 339
f 392 364 368
f 393 377 344
f 394 374 376
f 301 279 370
f 389 387 328
f 395 386 377
f 384 389 330
f 385 380 388
f 396 379 386
f 362 363 331
f 397 332 355
f 387 397 355
f 305 363 362
f 370 392 368
f 388 374 394
f 305 277 363
f 397 398 332
f 307 305 362
f 394 376 379
f 292 378 371
f 393 344 391
f 396 386 395
f 279 292 371
f 395 377 393
f 391 343 353
f 399 379 396
f 196 139 342
f 365 400 354
f 213 98 356
f 102 116 401
f 385 388 369
f 394 379 399
f 100 112 340
f 354 400 402
f 403 365 364
f 399 396 400
f 370 369 392
f 399 400 403
f 151 101 347
f 395 393 329
f 403 400 365
f 388 394 404
f 400 396 402
f 394 399 404
f 369 388 404
f 396 395 402
f 399 403 404
f 395 329 402
f 277 301 368
f 369 404 392
f 404 403 392
f 403 364 392
f 301 370 368
f 373 375 405
f 346 405 406
f 398 407 333
f 405 375 408
f 346 406 409
f 353 352 410
f 359 391 411
f 393 391 359
f 337 342 358
f 352 382 410
f 390 383 410
f 332 398 333
f 401 405 408
f 346 373 405
f 331 365 335
f 402 329 336
f 383 359 411
f 321 307 412
f 407 321 412
f 329 393 359
f 101 102 413
f 102 401 413
f 383 330 359
f 347 101 413
f 356 351 360
f 342 139 358
f 151 347 349
f 342 346 409
f 213 356 360
f 345 356 414
f 340 345 414
f 401 116 406
f 139 140 358
f 356 98 414
f 100 340 414
f 196 342 409
f 382 390 410
f 218 381 415
f 288 215 416
f 113 208 361
f 150 151 349
f 208 218 415
f 215 150 416
f 354 402 336
f 365 354 335
f 405 401 406
f 140 213 360
f 413 401 408
f 348 347 417
f 366 348 417
f 333 407 412
f 381 352 415
f 350 288 416
f 116 117 406
f 358 140 360
f 375 366 408
f 410 383 411
f 307 362 412
f 413 408 417
f 98 100 414
f 117 196 409
f 391 353 411
f 362 333 412
f 406 117 409
f 352 361 415
f 349 350 416
f 408 366 417
f 347 413 417
f 353 410 411
f 361 208 415
f 150 349 416
f 418 419 420
f 421 422 423
f 153 106 424
f 422 421 425
f 419 418 426
f 427 428 429
f 106 430 424
f 431 432 428
f 428 432 429
f 433 434 435
f 432 431 436
f 437 438 439
f 440 437 439
f 428 427 441
f 442 443 424
f 444 445 425
f 446 447 441
f 447 446 435
f 434 430 435
f 428 441 448
f 418 420 449
f 445 444 426
f 446 433 435
f 448 441 450
f 153 424 451
f 422 452 423
f 424 443 451
f 421 444 425
f 430 434 424
f 453 454 422
f 455 453 422
f 456 457 437
f 454 453 458
f 459 460 461
f 440 462 437
f 462 456 437
f 444 419 426
f 440 283 462
f 463 464 465
f 304 454 458
f 432 466 429
f 295 459 461
f 462 467 456
f 466 468 429
f 456 469 457
f 382 381 443
f 470 433 446
f 384 471 420
f 469 463 465
f 457 469 465
f 284 283 440
f 296 467 462
f 427 446 441
f 464 432 436
f 456 472 469
f 463 466 464
f 473 470 427
f 427 470 446
f 464 466 432
f 472 467 461
f 434 442 424
f 468 473 429
f 296 286 467
f 456 467 472
f 387 419 444
f 283 296 462
f 460 472 461
f 469 474 463
f 419 389 420
f 384 390 471
f 433 475 434
f 473 427 429
f 453 476 458
f 470 477 433
f 463 478 466
f 295 293 459
f 387 389 419
f 473 479 470
f 389 384 420
f 469 472 474
f 468 480 473
f 454 452 422
f 421 397 444
f 397 387 444
f 476 459 458
f 463 474 478
f 304 306 454
f 398 397 421
f 454 306 452
f 466 478 468
f 306 316 452
f 467 286 461
f 433 477 475
f 473 480 479
f 286 295 461
f 470 479 477
f 434 475 442
f 468 481 480
f 143 144 431
f 482 455 445
f 124 125 447
f 147 148 483
f 474 472 460
f 468 478 481
f 106 107 430
f 482 445 484
f 455 485 453
f 480 481 482
f 460 459 476
f 482 481 485
f 123 33 438
f 477 479 418
f 482 485 455
f 478 474 486
f 480 482 484
f 481 478 486
f 474 460 486
f 479 480 484
f 485 481 486
f 418 479 484
f 293 304 458
f 486 460 476
f 485 486 476
f 453 485 476
f 459 293 458
f 465 464 487
f 487 436 488
f 407 398 423
f 465 487 489
f 488 436 490
f 443 442 491
f 475 449 492
f 475 477 449
f 431 428 448
f 382 443 491
f 471 390 491
f 398 421 423
f 487 483 489
f 464 436 487
f 455 422 425
f 418 484 426
f 449 471 492
f 316 321 493
f 321 407 493
f 477 418 449
f 148 123 494
f 483 148 494
f 420 471 449
f 123 438 494
f 441 447 450
f 143 431 448
f 438 33 439
f 436 431 490
f 447 125 450
f 447 435 495
f 435 430 495
f 147 483 488
f 190 143 448
f 124 447 495
f 430 107 495
f 431 144 490
f 390 382 491
f 381 218 496
f 108 284 497
f 152 153 451
f 33 35 439
f 218 152 496
f 35 108 497
f 484 445 426
f 445 455 425
f 483 487 488
f 125 190 450
f 483 494 489
f 438 437 498
f 437 457 498
f 407 423 493
f 443 381 496
f 284 440 497
f 225 147 488
f 190 448 450
f 457 465 489
f 471 491 492
f 452 316 493
f 489 494 498
f 107 124 495
f 144 225 490
f 442 475 492
f 423 452 493
f 225 488 490
f 451 443 496
f 440 439 497
f 457 489 498
f 494 438 498
f 491 442 492
f 152 451 496
f 439 35 497
