v -2.31957088 -0.93251861 -2.97492732
v -2.45749728 -0.45902844 -2.75718338
v -2.45691731 -0.46212264 -3.23972200
v 2.45458376 -0.47436119 -4.20736955
v 2.36868853 -0.79957155 -3.64932305
v 2.28286927 -1.01907208 -4.13939308
v 2.47114148 -0.37876087 -3.72968155
v -2.36244719 -0.81782838 2.74989841
v -2.27787057 -1.03019691 3.19604768
v -2.44977875 -0.49858207 3.23016368
v -2.50000000 -0.00000000 2.00000000
v -2.44594444 -0.51706459 2.28515829
v -2.50000000 -0.00000000 2.50000000
v 2.39336162 -0.72237119 -2.15747204
v 2.30965846 -0.95680603 -2.57837821
v 2.45841682 -0.45407789 -2.68674497
v 2.35836936 -0.82951430 -3.05450350
v 2.46419675 -0.42158556 -3.26787687
v 2.48135565 -0.30475259 -2.24869399
v -2.33880098 -0.88318173 -3.58654530
v -2.35639551 -0.83510492 3.65291319
v -2.46250000 -0.43138585 1.75000000
v 2.46200408 -0.43420721 1.23356602
v 2.33704204 -0.88782571 0.97174700
v 2.46534662 -0.41480843 0.75044567
v -2.28289121 -1.01902292 -1.21310574
v -2.34878382 -0.85627949 -0.79586764
v -2.44612960 -0.51618791 -1.23756516
v 2.45974608 -0.44682123 0.19247695
v 2.31498847 -0.94383707 0.09840997
v 2.39353474 -0.72179736 -0.32292903
v 2.28386364 -1.01684161 5.00000000
v 2.37302534 -0.78660709 4.48793016
v 2.44536900 -0.51977923 5.00000000
v 2.48015690 -0.31435924 -0.25879506
v 2.34749085 -0.85981784 -1.63124252
v 2.46559847 -0.41330882 -1.77534138
v 2.46163362 -0.43630254 -1.29387244
v -2.35613689 -0.83583429 -2.46719552
v 2.37103005 -0.79260110 -1.15652148
v -2.47178370 -0.37454682 2.75000000
v -2.34702204 -0.86109671 -1.64658591
v 1.72094750 -1.81337798 -3.35148420
v 1.52021348 -1.98467906 -3.74838105
v 1.87934689 -1.64865257 -3.72853052
v 1.34418391 -2.10788273 -3.36981581
v 1.19879817 -2.19382838 -4.11748519
v 1.15094051 -2.21930979 -3.73061949
v 0.72775845 -2.39172901 -3.87834234
v 2.37324417 -0.78594665 -4.57019822
v 0.77715051 -2.37613911 -4.25478381
v 2.22555209 -1.13882303 -3.32853800
v -2.46250000 -0.43138585 -0.75000000
v -2.27276892 -1.04140358 -4.09402266
v -2.16335819 -1.25294905 -3.79735660
v 1.98537100 -1.51930971 4.03496989
v 2.24572560 -1.09850650 4.03275601
v 2.15585816 -1.26581025 4.52214860
v -2.40247821 -0.69144665 -4.00098288
v 1.84099737 -1.69136887 4.52530606
v 2.36552497 -0.80888295 0.55358743
v 1.45828442 -2.03061729 4.52691784
v 1.00064061 -2.29100815 4.51347381
v 1.21450705 -2.18517107 4.04705330
v 1.25000000 -2.16506351 5.00000000
v 0.26132116 -2.48630474 5.00000000
v 0.50527157 -2.44840778 4.51968232
v 0.77254249 -2.37764129 5.00000000
v 2.47518870 -0.35134154 4.63032909
v 1.81403627 -1.72025359 3.59361463
v 1.63543381 -1.89086125 4.06998512
v 1.42626239 -2.05323540 3.60073359
v 2.37680443 -0.77511334 1.43943259
v 1.18268597 -2.20255622 1.40915358
v 0.94534909 -2.31437143 1.85937526
v 0.70878961 -2.39741888 1.41865889
v 0.95529446 -2.31028407 0.96982700
v -1.65824985 -1.87088413 -4.23413128
v -1.25000000 -2.16506351 -4.24836821
v -1.35094875 -2.10355353 -3.84296033
v -1.71675732 -1.81734540 -3.82030011
v 0.46293141 -2.45676505 0.97867583
v -2.50000000 -0.00000000 -2.50000000
v -2.46960777 -0.38863537 -2.24985213
v 1.79629148 -1.73877454 1.83429565
v 1.39979802 -2.07136803 1.84666410
v 1.61139427 -1.91138916 1.39747935
v 0.71238272 -2.39635366 0.53383457
v 2.09125908 -1.36990344 0.95705873
v 2.20269339 -1.18243047 0.52360730
v -2.17297435 -1.23619678 -3.39975784
v 1.67282652 -1.85786206 5.00000000
v 2.02254249 -1.46946313 5.00000000
v 0.20605648 -2.49149367 0.54394335
v 0.46297819 -2.45675623 0.09959033
v 0.71405468 -2.39585599 -0.34664870
v 0.95683522 -2.30964637 0.09032632
v 1.38441632 -2.08167996 -1.66684596
v 0.93415673 -2.31891164 -1.66206763
v 1.16745886 -2.21066502 -2.10255034
v -0.01694266 -2.49994259 4.52745720
v -0.28159664 -2.48409004 4.07591602
v 0.23548626 -2.48888453 4.05111425
v 0.19927945 -2.49204488 -0.33389950
v -2.14809115 -1.27894660 3.64038788
v -2.34679686 -0.86171020 1.87209020
v -2.24968663 -1.09037152 4.07692121
v -2.01930708 -1.47390601 4.09733321
v -1.85425634 -1.67682242 3.64325316
v -2.01539278 -1.47925385 3.18735585
v 2.33879233 -0.88320465 1.82103615
v 2.46285435 -0.42935819 1.75795568
v 2.40322897 -0.68883271 2.24932801
v 1.59605860 -1.92421333 -1.23497131
v 1.39640246 -2.07365865 -0.79185948
v 1.17072733 -2.20893584 -1.23044353
v 2.46689787 -0.40548108 3.75359319
v 2.34786534 -0.85879469 3.55384568
v 2.46699831 -0.40486956 3.26506768
v -1.25652140 -2.16128526 1.42633852
v -1.67407113 -1.85674065 1.42375241
v -1.48251925 -2.01299197 0.98406389
v -0.56002931 -2.43646612 0.98736514
v -0.79770731 -2.36931700 1.42923636
v -1.04302921 -2.27202334 0.98373901
v -0.02426662 -2.49988222 3.61477065
v -0.54086041 -2.44079291 3.63377614
v -1.26160890 -2.15831948 2.31077802
v -1.47610859 -2.01769756 1.86087636
v -1.03409979 -2.27610141 1.87043419
v -1.67174199 -1.85883800 3.19845908
v 1.61022443 -1.91237478 2.27236174
v 1.41557039 -2.06062138 2.71102644
v 1.18384358 -2.20193424 2.27935545
v -0.52954788 -2.44327220 4.54111259
v 0.44758589 -2.45960706 -0.77498185
v -0.75481521 -2.38332834 -4.24255025
v -0.91895732 -2.32497687 -3.85062135
v 0.68997704 -2.40290068 -1.22253706
v 0.94813502 -2.31323150 -0.78740946
v -0.56435776 -2.43546717 0.11071059
v -0.80457409 -2.36699399 0.55480766
v -1.04781691 -2.26981931 0.11069824
v -1.67447410 -1.85637725 2.29609461
v -1.47463908 -2.01877180 2.75771265
v -1.27281628 -2.15172924 0.54676200
v -0.81500177 -2.36342381 -0.33088588
v -1.85289961 -1.67832149 2.74048140
v -0.31517679 -2.48005314 -0.33059639
v -2.47008380 -0.38559826 -0.22947294
v -2.38981077 -0.73403304 -0.43388823
v -2.35666674 -0.83433919 0.06527814
v 0.43889707 -2.46117235 -1.65636893
v 0.18451250 -2.49318173 -2.09666500
v 0.68711685 -2.40372012 -2.09943962
v -0.03458284 -2.49976079 2.73980189
v 0.21199342 -2.49099554 2.29794847
v 0.47783678 -2.45390954 2.72373935
v 2.37966045 -0.76630031 3.05147001
v 0.26132116 -2.48630474 -5.00000000
v 0.52286007 -2.44471212 -4.55628768
v -0.00000000 -2.50000000 -4.54758572
v 2.45868179 -0.45264098 2.71865657
v 2.32332219 -0.92313271 2.68831964
v 2.16414566 -1.25158841 -4.54873311
v -0.26132116 -2.48630474 5.00000000
v -2.46368622 -0.42455885 -1.75033220
v -2.15623093 -1.26517515 -1.62994529
v -2.25480313 -1.07975129 -2.05540511
v -2.02756533 -1.46252482 -2.08041444
v 0.43851297 -2.46124082 -2.53981740
v -0.81784459 -2.36244158 -1.20864569
v -0.56842932 -2.43452010 -0.76677571
v -1.05262521 -2.26759347 -0.76814066
v -1.47409559 -2.01916869 3.65008929
v -1.02047243 -2.28224364 4.54657998
v -0.77254249 -2.37764129 5.00000000
v -0.29037518 -2.48307919 3.18393790
v 0.22595176 -2.48976822 3.17036106
v -1.86793669 -1.66156929 -1.64134486
v -1.69241175 -1.84003871 -2.08349107
v -1.67446687 -1.85638377 4.09890719
v 0.18241890 -2.49333579 -2.98228734
v -0.07252951 -2.49894767 -2.53698893
v 2.02130017 -1.47117152 -4.09975130
v 1.85735339 -1.67339129 -4.54866103
v -1.25000000 -2.16506351 5.00000000
v 1.01779937 -2.28343698 -4.55027334
v 0.77254249 -2.37764129 -5.00000000
v -1.85687700 -1.67391989 4.54996988
v -1.47166125 -2.02094364 4.54726124
v -0.79206825 -2.37120811 3.19686192
v -2.00236201 -1.49684548 -4.11332160
v -2.16088619 -1.25720757 -4.55315026
v 1.67591613 -1.85507550 -4.11907500
v 0.68860414 -2.40329448 -2.98533120
v 2.02254249 -1.46946313 -5.00000000
v 2.14484353 -1.28438554 -3.69458696
v -1.67282652 -1.85786206 5.00000000
v -1.46960760 -2.02243752 -4.55475764
v -1.85423812 -1.67684256 -4.56528726
v -1.67282652 -1.85786206 -5.00000000
v -0.78439796 -2.37375648 4.09227560
v -2.01910894 -1.47417743 0.54961632
v -2.25374191 -1.08196460 0.53922437
v -2.14750186 -1.27993583 0.10499130
v 1.25000000 -2.16506351 -5.00000000
v 1.96964867 -1.53963766 2.26592011
v 2.11380280 -1.33485494 2.69665869
v 1.80707999 -1.72755952 2.70588963
v -2.46528253 -0.41518918 0.25194086
v -0.55197913 -2.43830249 1.87215656
v -0.32132399 -2.47926418 -1.21074926
v -0.79678393 -2.36962769 2.31455120
v -2.16864968 -1.24376789 -2.51851802
v -1.86142500 -1.66886098 0.11046333
v -0.29960651 -2.48198226 2.30926419
v 2.10278355 -1.35214694 -0.79762401
v 2.20966092 -1.16935821 -1.21471960
v 2.32486780 -0.91923322 -0.78045255
v 2.23849130 -1.11317416 2.25870975
v -0.77254249 -2.37764129 -5.00000000
v -0.51874079 -2.44558950 -4.54819221
v -1.01684161 -2.28386364 -4.54758572
v -2.16075162 -1.25743884 4.55337372
v 2.28386364 -1.01684161 -5.00000000
v -1.25000000 -2.16506351 -5.00000000
v 2.22997153 -1.13014468 1.39260370
v 1.96570121 -1.54467432 1.39011186
v -2.02172922 -1.47058185 -0.32580602
v -2.24885392 -1.09208793 -0.35130222
v -2.15261874 -1.27131135 -0.77341553
v 1.95392044 -1.55954958 -1.23420104
v -2.02254249 -1.46946313 -5.00000000
v -2.02254249 -1.46946313 5.00000000
v -2.03359005 -1.45413600 -2.96023501
v -1.03284778 -2.27666982 2.75773806
v 1.79246149 -1.74272253 0.08021258
v 2.09071892 -1.37072769 0.07581042
v 1.94612902 -1.56926156 0.50419298
v -1.25555286 -2.16184805 4.09660414
v -2.28386364 -1.01684161 5.00000000
v -2.28386364 -1.01684161 -5.00000000
v 1.91923371 -1.60204306 -2.94977502
v 2.08023418 -1.38658781 -2.54864565
v 1.78131066 -1.75411867 -2.55011224
v 0.93468302 -2.31869956 -2.54234372
v 1.38662997 -2.08020608 -2.54559364
v 1.67282652 -1.85786206 -5.00000000
v 1.47077367 -2.02158968 -4.54798570
v -1.49455824 -2.00406977 -1.64509917
v 1.16478616 -2.21207441 -2.98718602
v -1.25822632 -2.16029316 3.20262431
v -1.86445605 -1.66547399 -0.76404306
v 1.58621692 -1.93233431 -2.97331515
v 1.97698220 -1.53020959 3.14517332
v 2.22021865 -1.14918630 3.11579947
v 2.12301936 -1.32014727 3.58302431
v -2.26824544 -1.05121959 2.30482578
v -1.87280752 -1.65607729 -2.52207731
v -1.02856293 -2.27860885 3.64758842
v -0.54799904 -2.43920008 2.75352492
v 2.44536900 -0.51977923 -5.00000000
v 1.95096788 -1.56324161 -2.11064884
v 1.59491266 -1.92516327 -2.10846661
v -0.26132116 -2.48630474 -5.00000000
v 2.22582573 -1.13828812 -2.11221549
v 2.10041414 -1.35582464 -1.67351958
v 1.78430950 -1.75106813 -1.67076693
v 0.93046648 -2.32039482 -3.41775861
v -2.24887309 -1.09204846 1.44495625
v -2.36630724 -0.80659162 0.99069583
v -2.15636969 -1.26493863 0.98813031
v -1.05739957 -2.26537108 -1.64811961
v -1.28479383 -2.14459899 -2.08725301
v 2.11252154 -1.33688172 1.82660033
v 2.22970525 -1.13066993 -0.36241520
v -0.57577772 -2.43279264 -1.65068190
v -0.82334528 -2.36053014 -2.09076170
v -1.28056771 -2.14712513 -1.20696220
v -1.68775070 -1.84431494 -1.20384373
v -1.49032181 -2.00722219 -0.76677337
v -2.02457998 -1.46665467 -1.20071365
v -0.25020577 -2.48744790 -4.24957137
v -0.39086211 -2.46925633 -3.86121852
v 1.78791419 -1.74738743 -0.79416867
v 0.18896704 -2.49284806 -1.21317863
v -0.04782734 -2.49954247 1.86828052
v 1.95732672 -1.55527236 -0.35868670
v -1.68433962 -1.84743066 -0.32773736
v -0.30275137 -2.48160061 1.43015377
v 0.20360144 -2.49169550 1.42792714
v -1.85838812 -1.67224209 0.98554797
v -2.15217840 -1.27205666 2.73780987
v -0.05337653 -2.49943012 0.98989395
v 1.60975618 -1.91276895 0.52002427
v 1.18917162 -2.19906136 0.52508587
v -1.06215034 -2.26314751 -2.53039612
v -0.30760847 -2.48100323 0.55068170
v 0.43476210 -2.46190615 -3.42935496
v 0.45818588 -2.45765451 1.86271189
v -1.68156138 -1.84995982 0.54705829
v 1.79448630 -1.74063750 0.95487848
v -2.01648166 -1.47776917 1.42350719
v 0.73507617 -2.38949012 3.15817391
v 0.96533465 -2.30610690 2.71586222
v 0.48900196 -2.45170901 3.60459606
v -0.32698313 -2.47852416 -2.09377251
v -2.01407635 -1.48104573 2.29810569
v -2.15435029 -1.26837488 1.86136809
v -1.69697313 -1.83583283 -2.96350531
v -1.49890008 -2.00082447 -2.52588764
v 1.60451814 -1.91716498 -0.35500545
v -0.06959769 -2.49903104 -1.65328150
v 1.40514373 -2.06774541 0.08441852
v 1.20566780 -2.19006054 3.15425877
v -0.06310435 -2.49920344 -0.77058416
v -0.05698630 -2.49935043 0.11039502
v 1.41023339 -2.06427755 0.95922244
v -1.27718819 -2.14913711 -0.33004222
v -1.48730226 -2.00946062 0.10855223
v -1.86571342 -1.66406533 -3.38937294
v -1.85544878 -1.67550285 1.85926055
v 1.62456115 -1.90021079 3.14953478
v 1.18565104 -2.20096152 -0.35157587
v 2.50000000 0.00000000 -1.00000000
v 2.50000000 0.00000000 -1.50000000
v 2.50000000 0.00000000 1.50000000
v 2.50000000 0.00000000 1.00000000
v 2.50000000 0.00000000 0.50000000
v 2.50000000 0.00000000 -0.00000000
v -0.58038594 -2.43169738 -2.53478632
v -2.50000000 -0.00000000 -0.00000000
v -2.50000000 -0.00000000 0.50000000
v -2.50000000 -0.00000000 -1.00000000
v -2.50000000 -0.00000000 -0.50000000
v -2.50000000 -0.00000000 1.50000000
v -2.50000000 -0.00000000 -2.00000000
v -2.50000000 -0.00000000 -1.50000000
v -0.33128444 -2.47795291 -2.97980787
v -0.58706833 -2.43009275 -3.42208021
v -0.07828372 -2.49877403 -3.42631585
v 0.12198337 -2.49702224 -3.86295560
v -2.46898196 -0.39259149 3.75455121
v -0.82856051 -2.35870462 -2.97447359
v 0.97837393 -2.30060524 3.59976976
v 0.74167914 -2.38744886 4.04680814
v 2.50000000 0.00000000 3.00000000
v 2.50000000 0.00000000 2.50000000
v 2.50000000 0.00000000 -2.50000000
v 2.50000000 0.00000000 -3.00000000
v -2.50000000 -0.00000000 -3.50000000
v -2.50000000 -0.00000000 -3.00000000
v -2.50000000 -0.00000000 3.00000000
v -2.50000000 -0.00000000 3.50000000
v -1.49927087 -2.00054664 -3.40468160
v -2.50000000 -0.00000000 -4.00000000
v -2.47180965 -0.37437553 -3.74193777
v -2.50000000 -0.00000000 1.00000000
v -2.47102495 -0.37952035 0.75786820
v -2.46948111 -0.38943938 1.25350828
v 2.50000000 0.00000000 3.50000000
v -2.37536151 -0.77952402 4.53228671
v -2.40229640 -0.69207803 3.99885942
v -2.50000000 -0.00000000 -4.50000000
v -2.47413187 -0.35870812 -4.25015923
v -2.50000000 -0.00000000 4.00000000
v -2.47521889 -0.35112883 4.24950631
v -2.50000000 -0.00000000 4.50000000
v 2.50000000 0.00000000 -3.50000000
v 2.50000000 0.00000000 -4.00000000
v 2.50000000 0.00000000 4.00000000
v -2.37972313 -0.76610561 -4.52326286
v -1.29119914 -2.14074865 -2.96753995
v 0.31879413 -2.47959075 -4.23331692
v -1.07534603 -2.25690738 -3.41577907
v 0.71310903 -2.39613762 2.28750284
v 2.48218239 -0.29794395 2.25052981
v -2.44536900 -0.51977923 5.00000000
v -2.44536900 -0.51977923 -5.00000000
v 2.46175108 -0.43563935 -0.77151068
v 2.50000000 0.00000000 -0.50000000
v 2.50000000 0.00000000 2.00000000
v 2.50000000 0.00000000 -4.50000000
v 2.50000000 0.00000000 -2.00000000
v 2.16547562 -1.24928593 -2.97198033
v 2.47030999 -0.38414656 4.24550308
v 2.50000000 0.00000000 -5.00000000
v 2.47146963 -0.37661366 -4.62842078
v -2.47375244 -0.36131545 -4.63687950
v -2.50000000 -0.00000000 -5.00000000
v -2.50000000 -0.00000000 5.00000000
v -2.47376704 -0.36121552 4.63698902
v -2.39941990 -0.70198587 1.50265514
v -2.39748558 -0.70856397 -2.00546124
v 2.50000000 0.00000000 5.00000000
v 2.50000000 0.00000000 4.50000000
v 2.39674785 -0.71105538 4.03367091
v -1.96847848 -1.54113350 -3.74092179
v -2.40282082 -0.69025511 0.51563486
v 2.03547107 -1.45150182 -3.32524125
v 0.72444166 2.12584010 -1.31346270
v 0.80340059 1.77403594 -1.26670734
v 0.96805444 2.02194217 -1.14580566
v -1.37825723 1.60172140 -0.59195187
v -1.41796663 1.28625940 -0.48925519
v -1.29117377 1.46610296 -0.76345942
v 0.55567821 1.89202811 -1.39327733
v 0.43104701 1.55038668 -1.43673187
v 0.66167500 1.58856478 -1.34617465
v 0.49257813 2.25905075 -1.41681572
v -0.69687662 2.10344280 -1.32829326
v -0.80065856 1.78398415 -1.26844230
v -0.55030685 1.80794080 -1.39540760
v 0.32475315 2.05719734 -1.46442323
v -0.42756459 2.04316412 -1.43777207
v -1.26391345 1.23202301 -0.80778883
v -1.10259414 1.42624371 -1.01699860
v 1.41969344 1.28456553 -0.48422157
v 1.38614056 1.59831909 -0.57324893
v 1.29968634 1.46361975 -0.74887610
v 0.25786976 1.81372809 -1.47766816
v 1.03154440 1.70729474 -1.08899778
v -1.11185530 1.18081835 -1.00686533
v -1.44971851 1.54546281 -0.38511849
v 1.33759710 1.86087060 -0.67884755
v 1.16089337 1.93965938 -0.94990873
v 1.22789263 1.64953970 -0.86155655
v 1.29032837 2.14109718 -0.76436857
v -0.96327144 2.01742099 -1.14982961
v 1.44885445 1.51315531 -0.38835653
v 1.11318629 1.41632029 -1.00539360
v 1.26831825 1.22839829 -0.80085505
v -0.90512531 2.33022045 -1.19574731
v -1.11884461 2.23560094 -0.99896230
v 0.86498418 1.48092305 -1.22548046
v 0.63600799 1.28726046 -1.35848954
v 0.92830591 1.22698240 -1.17823942
v -1.21678204 1.65274255 -0.87717813
v -1.32923662 1.86470285 -0.69507554
v -0.63744526 1.29621990 -1.35781573
v -0.85957532 1.49011180 -1.22928039
v -0.92533005 1.23390999 -1.18057795
v 0.30459167 1.26719968 -1.46874910
v -1.44226454 1.80997941 -0.41215654
v 1.11439749 1.17516803 -1.00405091
v -1.41286026 2.06248616 -0.50376936
v -0.66682940 1.58240812 -1.34362887
v -0.15374423 2.03305027 -1.49210010
v -0.27016755 2.26419079 -1.47546925
v 1.50000000 1.51258647 0.00000000
v 1.50000000 1.76887970 0.00000000
v 1.48499197 1.63910150 -0.21165735
v 1.41286026 2.06248616 -0.50376936
v -0.31870241 1.27368170 -1.46575195
v -0.00437290 1.26830643 -1.49999363
v -0.16105374 1.53304009 -1.49132883
v -0.29941048 1.79006812 -1.46981406
v -0.44098404 1.54557903 -1.43371304
v -1.16745740 1.93621423 -0.94182972
v -1.29032836 2.14109718 -0.76436858
v 0.46352549 1.00000000 -1.42658477
v -0.15679269 1.00000000 -1.49178284
v 0.14254190 1.53390143 -1.49321191
v -0.01609177 1.78700816 -1.49991368
v -0.65524288 2.41255779 -1.34923028
v 0.90512532 2.33022044 -1.19574731
v 0.65524289 2.41255779 -1.34923028
v 1.21352549 1.00000000 -0.88167788
v 1.37031819 1.00000000 -0.61010496
v -1.37031819 1.00000000 -0.61010496
v -1.21352549 1.00000000 -0.88167788
v 0.15679269 1.00000000 -1.49178284
v -0.46352549 1.00000000 -1.42658477
v -1.02175245 1.71594118 -1.09819029
v 1.46722140 1.00000000 -0.31186754
v -1.46722140 1.00000000 -0.31186754
v -0.75000000 1.00000000 -1.29903811
v 0.75000000 1.00000000 -1.29903811
v -1.50000000 1.76887970 -0.00000000
v -1.50000000 1.51258647 -0.00000000
v -1.48515175 1.64073308 -0.21053330
v -1.47947590 2.01523589 -0.24724046
v 1.47947590 2.01523589 -0.24724046
v 1.44588867 1.79357593 -0.39925674
v 1.11884462 2.23560094 -0.99896230
v 0.09616808 2.03391180 -1.49691406
v -0.48934798 2.26016919 -1.41793461
v 0.13109724 2.49653650 -1.49423240
v -0.13109724 2.49653650 -1.49423240
v -0.00371419 2.27148460 -1.49999540
v 0.24298292 2.27560316 -1.48018894
v 1.48424744 1.38967065 -0.21681682
v 1.48585497 1.18771714 -0.20551158
v -1.48429449 1.39088784 -0.21649453
v -1.48569361 1.18831366 -0.20667486
v 1.50000000 1.25629323 0.00000000
v -1.50000000 1.25629323 -0.00000000
v 1.50000000 2.00000000 0.00000000
v 1.48869391 1.83149343 -0.18382173
v -1.50000000 2.00000000 0.00000000
v -1.48882321 1.83257478 -0.18277157
v -1.50000000 1.00000000 0.00000000
v 1.50000000 1.00000000 0.00000000
v -0.39408896 2.46872562 -1.44728466
v -1.00369591 1.00000000 -1.11471724
v 0.39408896 2.46872562 -1.44728466
v 1.00369591 1.00000000 -1.11471724
v -0.72444166 2.12584010 1.31346270
v -0.80356741 1.77408104 1.26660152
v -0.96808119 2.02195439 1.14578306
v 1.37825723 1.60172140 0.59195187
v 1.41796663 1.28625940 0.48925519
v 1.29117377 1.46610296 0.76345942
v -0.55648817 1.89220932 1.39295402
v -0.43180332 1.54998728 1.43650475
v -0.66204867 1.58845100 1.34599092
v 0.69643819 2.10334202 1.32852318
v 0.79952842 1.78345660 1.26915495
v 0.54927232 1.80754017 1.39581514
v -0.49245896 2.25842435 1.41685715
v 0.42843548 2.04206514 1.43751280
v -0.32524669 2.05737018 1.46431369
v 1.26391345 1.23202301 0.80778883
v 1.10259414 1.42624371 1.01699860
v -1.41969344 1.28456553 0.48422157
v -1.38614056 1.59831909 0.57324893
v -1.29968634 1.46361975 0.74887610
v -0.25899546 1.81329030 1.47747127
v -1.03154440 1.70729474 1.08899778
v 1.11176863 1.18080851 1.00696103
v 1.44971851 1.54546281 0.38511849
v -1.33759710 1.86087060 0.67884755
v -1.16089337 1.93965938 0.94990873
v -1.22789263 1.64953970 0.86155655
v -1.29032837 2.14109718 0.76436857
v 0.96300271 2.01729136 1.15005469
v -1.44885445 1.51315531 0.38835653
v -1.11318629 1.41632029 1.00539360
v -1.26831825 1.22839829 0.80085505
v 0.90512531 2.33022045 1.19574731
v 1.11884461 2.23560094 0.99896230
v -0.86518158 1.48094028 1.22534111
v -0.63618039 1.28697875 1.35840881
v -0.92834905 1.22693174 1.17820543
v 1.21678204 1.65274255 0.87717813
v 1.32923662 1.86470285 0.69507554
v 0.63444331 1.29579990 1.35922098
v 0.85957532 1.49011180 1.22928039
v 0.92475964 1.23384295 1.18102481
v -0.30399674 1.26685231 1.46887235
v 1.44226454 1.80997941 0.41215654
v -1.11440271 1.17515981 1.00404511
v 1.41286026 2.06248616 0.50376936
v 0.66363316 1.58114052 1.34521040
v -1.48499197 1.63910150 0.21165735
v -1.41286026 2.06248616 0.50376936
v 0.15191220 2.03329785 1.49228774
v 0.26976518 2.26381722 1.47554287
v 1.16745740 1.93621423 0.94182972
v 1.29032836 2.14109718 0.76436858
v -0.46352549 1.00000000 1.42658477
v 0.15705339 1.53223841 1.49175542
v -0.14457085 1.53303455 1.49301683
v 0.01376707 1.78651237 1.49993682
v 0.65524288 2.41255779 1.34923028
v -0.90512532 2.33022044 1.19574731
v -0.65524289 2.41255779 1.34923028
v 0.31589889 1.27304249 1.46635872
v 0.00205152 1.26884480 1.49999860
v 0.46352549 1.00000000 1.42658477
v 0.43804155 1.54464900 1.43461479
v -1.21352549 1.00000000 0.88167788
v -1.37031819 1.00000000 0.61010496
v 1.37031819 1.00000000 0.61010496
v 1.21352549 1.00000000 0.88167788
v 0.29550527 1.78957701 1.47060417
v 0.15679269 1.00000000 1.49178284
v -0.15679269 1.00000000 1.49178284
v -0.09705469 2.03616985 1.49685684
v 1.02175245 1.71594118 1.09819029
v -1.46722140 1.00000000 0.31186754
v 1.46722140 1.00000000 0.31186754
v 0.75000000 1.00000000 1.29903811
v -0.75000000 1.00000000 1.29903811
v 1.48515175 1.64073308 0.21053330
v 1.47947590 2.01523589 0.24724046
v -1.47947590 2.01523589 0.24724046
v -1.44588867 1.79357593 0.39925674
v 0.48928996 2.25983549 1.41795463
v -1.11884462 2.23560094 0.99896230
v -0.13109724 2.49653650 1.49423240
v 0.13109724 2.49653650 1.49423240
v 0.00249120 2.27095243 1.49999793
v -1.48424744 1.38967065 0.21681682
v -1.48585497 1.18771714 0.20551158
v 1.48429449 1.39088784 0.21649453
v 1.48569361 1.18831366 0.20667486
v -0.24325664 2.27545997 1.48014398
v -1.48869391 1.83149343 0.18382173
v 1.48882321 1.83257478 0.18277157
v 0.39408896 2.46872562 1.44728466
v -0.39408896 2.46872562 1.44728466
v 1.00369591 1.00000000 1.11471724
v -1.00369591 1.00000000 1.11471724
v 0.71722140 1.00000000 -0.98717057
v 0.49048436 1.00000000 -0.69203943
v 0.81551026 1.00000000 -0.73428873
v -0.49630409 1.00000000 1.11471724
v -0.16803402 1.00000000 0.93767873
v -0.43807264 1.00000000 0.73905668
v 0.40160182 1.00000000 -0.98075274
v 0.94913410 1.00000000 -0.00846717
v 0.92306091 1.00000000 0.28132798
v 1.22269968 1.00000000 0.13929492
v 1.16117540 1.00000000 0.41414435
v -0.64975202 1.00000000 -0.75775210
v -0.49630409 1.00000000 -1.11471724
v -0.76608807 1.00000000 -1.02151810
v -0.35099316 1.00000000 -0.85504828
v -0.67149702 1.00000000 0.87159648
v -0.06502199 1.00000000 -0.98338399
v -0.25422586 1.00000000 -1.18688669
v -0.00000000 1.00000000 1.22020993
v -0.25693126 1.00000000 1.23819470
v -0.90943093 1.00000000 0.84443771
v -0.73319904 1.00000000 0.58553443
v -1.06540434 1.00000000 0.61787785
v -0.66798030 1.00000000 -0.39762602
v -0.92216811 1.00000000 -0.55414127
v -0.91379167 1.00000000 0.37034285
v 0.49630409 1.00000000 1.11471724
v 0.62514081 1.00000000 0.77808758
v 0.33955096 1.00000000 0.87673022
v 0.75928486 1.00000000 1.02660079
v 0.11071230 1.00000000 0.99008246
v -0.93068832 1.00000000 -0.82136582
v -1.16535403 1.00000000 0.37043978
v -0.98142310 1.00000000 0.08739789
v -1.26550480 1.00000000 0.12843171
v 1.04967840 1.00000000 -0.61224624
v 0.72710436 1.00000000 -0.48162838
v 0.96893168 1.00000000 -0.30659891
v 0.26233124 1.00000000 1.20422986
v 1.22451839 1.00000000 -0.14889734
v -0.10596386 1.00000000 -0.67789535
v -0.37972894 1.00000000 -0.54146949
v -0.11992648 1.00000000 -0.37240280
v -0.40047784 1.00000000 -0.23227592
v -0.68299400 1.00000000 -0.08513417
v -0.94195258 1.00000000 -0.26092250
v -0.43136171 1.00000000 0.39845624
v -0.17060636 1.00000000 0.56411222
v -0.15369948 1.00000000 0.25118326
v -0.41687248 1.00000000 0.08069309
v 0.14315902 1.00000000 -0.20389685
v 0.16026176 1.00000000 -0.51708390
v -0.13680901 1.00000000 -0.06179527
v 0.65929249 1.00000000 0.13816267
v 0.38883881 1.00000000 0.28046571
v 0.63296018 1.00000000 0.43799696
v 0.40588296 1.00000000 -0.03265647
v 0.12609865 1.00000000 0.10924752
v 0.36906991 1.00000000 0.58568318
v 0.10909743 1.00000000 0.42232291
v 0.42291446 1.00000000 -0.34576484
v 0.68274570 1.00000000 -0.17460867
v 0.92128351 1.00000000 0.82644381
v 0.00728229 1.00000000 -1.24980299
v -1.21352549 1.00000000 -0.12754667
v 0.17323568 1.00000000 -0.81563213
v 0.09549262 1.00000000 0.72067050
v -0.69586386 1.00000000 0.22129052
v 0.87416388 1.00000000 0.57112807
v 0.28438784 1.00000000 -1.23051816
v 0.15159752 1.00000000 -1.05383212
v 1.10662392 1.00000000 0.66102525
v 0.52334731 1.00000000 -1.18481287
v -1.18688892 1.00000000 -0.41991061
v 1.21563221 1.00000000 -0.39698087
v -1.12471780 1.00000000 -0.65744011
v 0.97600294 1.00000000 -0.87941602
v -0.77675786 1.00000000 1.06764144
v -1.64856501 1.87942369 -4.05600732
v -1.13424307 2.22788973 -4.14638958
v -1.44361138 2.04107476 -4.54538885
v -1.92506142 1.59503559 -3.78604588
v -2.03317637 1.45471435 -4.19101256
v -2.19318043 1.19998318 -3.68979277
v -2.29596469 0.98921491 -4.19080237
v 2.16106510 1.25690001 -2.26523091
v 2.37078249 0.79334129 -2.01394681
v 2.33518349 0.89270269 -2.54602088
v -1.63937276 1.88744721 -0.49283526
v -1.87288821 1.65598603 -0.46856839
v -1.67482866 1.85605737 -0.20274633
v -2.17779655 1.22768163 4.53818158
v -1.84801724 1.68369602 4.54064760
v -1.94456471 1.57119956 4.02071205
v -0.73465754 2.38961886 4.10441651
v -1.03895326 2.27389008 3.65126241
v -1.18498000 2.20132287 4.09746781
v -1.82032899 1.71359341 1.09807421
v -1.60431176 1.91733768 0.98958854
v -1.76204093 1.77347448 0.67667778
v 2.46745825 0.40205696 -4.49694863
v 2.42070738 0.62464051 -4.12124070
v -0.67390142 2.40745859 3.62712681
v -2.21251382 1.16395128 4.04446622
v 1.71122571 1.82255496 -0.13104084
v 1.63198200 1.89384127 -0.42751587
v -1.21328211 2.18585144 -1.32567763
v -1.49006549 2.00741247 -1.33756143
v -1.38256763 2.08290825 -1.04133033
v -1.85854712 1.67206537 -0.14274818
v -1.69959274 1.83340789 0.12538329
v 2.45178370 0.48862735 -3.69830351
v 2.10575136 1.34752039 -2.67561019
v 2.25378157 1.08188199 -2.98385456
v -2.46349717 0.42565443 2.26003938
v -2.36003471 0.82476431 2.24519593
v -2.37081822 0.79323449 1.88533356
v -1.60514436 1.91664071 4.06966514
v -1.44099031 2.04292607 4.53391263
v -0.00358929 2.49999742 -3.52905589
v -0.40151076 2.46754718 -3.69869945
v -0.28314647 2.48391386 -3.24346370
v -0.01819591 2.49993378 -2.02031117
v -0.23172972 2.48923710 -2.33016971
v -0.28130506 2.48412308 -2.06066149
v -2.31528957 0.94309821 -1.64008908
v -2.35884721 0.82815449 -2.03841741
v -2.44611837 0.51624114 -1.70935060
v -2.37900150 0.76834358 -1.33832674
v -2.06712271 1.40605964 -2.21808268
v -1.92718792 1.59246561 -2.53513289
v -2.18366398 1.21721470 -2.65215587
v -2.46250000 0.43138585 1.75000000
v 2.02761247 1.46245947 -0.52612889
v 1.81562228 1.71857956 -0.64451119
v 1.83035776 1.70287711 -0.36213809
v -1.97748034 1.52956578 0.74819194
v 1.46346594 2.02688614 -4.53601120
v 0.97800381 2.30076260 -4.54885312
v 1.10846911 2.24082490 -4.08998060
v -1.92436906 1.59587084 0.10704518
v 1.86358588 1.66644762 0.99422025
v 1.99708448 1.50387951 1.29456552
v 2.09840798 1.35892750 0.85720699
v 2.21406779 1.16099261 -1.83658297
v -1.70174686 1.83140865 -1.46420036
v -1.61939637 1.90461423 -1.06761725
v 1.99324050 1.50897061 -0.89587662
v -2.46250000 0.43138585 1.25000000
v -2.34826081 0.85771275 1.41126182
v -1.34421762 2.10786124 -3.75178611
v 0.08747960 2.49846900 -2.27025995
v -1.54882725 1.96243067 0.71197525
v -1.37753547 2.08623968 1.04922175
v -1.32885642 2.11757895 -1.50965951
v 1.57784548 1.93917602 -0.75061309
v 1.39398365 2.07528542 -1.02543428
v 1.52997424 1.97716434 -1.31870349
v 1.21152879 2.18682372 -1.30805118
v -1.34097082 2.10992826 -2.34820393
v -1.34273342 2.10880700 -1.97925928
v -1.11026964 2.23993333 -2.03393014
v -1.02732420 2.27916761 -2.36574664
v 2.47105333 0.37933552 -0.23447719
v 2.45968361 0.44716499 0.28627244
v -1.75162034 1.78376742 3.62318404
v -1.43157495 2.04953486 3.64018249
v -1.58250886 1.93537224 3.24305336
v -1.85035966 1.68112139 -1.16793276
v 1.65404230 1.87460504 -1.09225493
v 1.81354547 1.72077100 -0.90997002
v 1.91236191 1.61023971 -1.25384756
v 1.51204208 1.99091154 1.32980986
v 1.19292130 2.19702954 1.31591291
v 1.36781405 2.09262627 1.62732660
v -0.65357765 2.41305538 -3.29993927
v -0.58061478 2.43164275 -1.93152057
v -0.31051326 2.48064135 -1.72477001
v -2.46250000 0.43138585 -1.25000000
v -2.47366089 0.36194171 -0.87150301
v -2.36866702 0.79963525 -0.96571095
v 1.49725530 2.00205559 -4.01872620
v 0.39100569 2.46923360 -1.73485628
v -0.06870544 2.49905573 2.58751064
v 0.35766921 2.47428227 2.64686214
v 0.22261482 2.49006880 2.30499882
v 1.73391687 1.80098092 -1.41516188
v 1.13621278 2.22688583 4.13183587
v 0.96914692 2.30450738 4.56120082
v 1.46053867 2.02899650 4.53264937
v 0.01881929 2.49992917 1.71288291
v 0.13012114 2.49661140 1.99393416
v 0.32304246 2.47904086 1.72287182
v -1.21682663 2.18388025 1.29420828
v -0.92578121 2.32226810 1.48580451
v -0.41798475 2.46481008 -2.55501037
v -0.73067135 2.39084072 -2.38213794
v -0.51095456 2.44722811 -2.24149806
v 1.38388342 2.08203427 1.03608011
v 2.20168789 1.18430167 1.25628585
v 2.47184154 0.37416494 1.70988362
v 2.45033975 0.49581762 2.26716056
v -2.45086357 0.49322182 -4.21482301
v -2.37065992 0.79370747 -3.81446245
v 2.44536900 0.51977923 -5.00000000
v 2.38304053 0.75572339 1.91933783
v -2.24717188 1.09554486 -2.25362344
v -1.75357504 1.78184583 -0.78709423
v 1.37083805 2.09064656 -1.55742600
v 2.36408092 0.81309373 -1.50211244
v -1.23314422 2.17470810 3.24968988
v 1.25000000 2.16506351 -5.00000000
v -1.85010220 1.68140473 -4.55930617
v -0.47137380 2.45515921 2.60212523
v -0.88194357 2.33926816 2.51990741
v -0.67528568 2.40707068 2.92120619
v -2.33674686 0.88860234 0.71844510
v -2.37719332 0.77391985 0.34883221
v -2.45803367 0.45614742 0.72981884
v 1.95951126 1.55251912 -0.18525736
v 1.83631551 1.69645081 0.07553916
v 1.75020872 1.78515250 0.70320262
v 1.63937525 1.88744504 1.03338747
v -1.98626764 1.51813730 -0.84259814
v -0.15575063 2.49514363 -1.87701887
v 2.39480395 0.71757512 -0.05672298
v -0.60369327 2.42601617 -1.62110393
v -1.16091945 2.21410615 1.63573360
v -0.91153345 2.32789750 -3.65388944
v -2.46101926 0.43975472 -0.29291783
v -2.46968396 0.38815094 0.23334763
v -0.98783205 2.29656000 4.54150624
v -0.78478634 2.37362811 -2.64318440
v 1.58581773 1.93266193 -1.73538724
v -2.37325494 0.78591413 -4.56992896
v 1.85074360 1.68069870 0.38294931
v 2.05740354 1.42024317 0.44773490
v 2.00259547 1.49653312 0.10962934
v -1.52789691 1.97877008 -0.76552281
v 0.16873915 2.49429892 -1.80863395
v 1.22584631 2.17883015 -1.93484378
v 1.13751128 2.22622283 -1.60616499
v 0.41294442 2.46565953 2.00520074
v -2.00420559 1.49437610 -2.93024990
v -0.60145923 2.42657100 2.28417266
v -0.89698429 2.33354220 2.12863797
v 0.86268183 2.34643987 -2.07651925
v 0.91459974 2.32669450 -1.79438201
v 0.73308903 2.39010052 -2.35824326
v 1.09769985 2.24612000 -2.25766530
v 0.98073385 2.29960021 -2.61914925
v -2.40386397 0.68661344 -0.63478846
v -0.72076948 2.39384447 -4.13593857
v 1.32319605 2.12112051 -2.54022737
v 1.44647444 2.03904676 -2.14303510
v -1.25000000 2.16506351 5.00000000
v -1.83711828 1.69558145 1.78180606
v -1.58526766 1.93311315 1.80165864
v -1.69736757 1.83546815 1.47137346
v 2.23714231 1.11588274 0.54556947
v -0.02200292 2.49990317 -3.87415416
v 0.01192882 2.49997154 4.54471402
v 0.50284728 2.44890682 4.55610337
v 0.26509377 2.48590533 4.11241524
v -1.05428070 2.26682426 2.90079841
v -1.25305413 2.16329733 2.53026330
v -0.08994401 2.49838149 2.22478643
v -1.52994777 1.97718483 1.25922620
v -1.80923107 1.72530662 0.33807107
v 2.47106370 0.37926798 -1.25851222
v 2.45672375 0.46315054 -0.73810148
v 0.09460923 2.49820918 3.67741532
v -0.24581993 2.48788516 4.08048601
v -1.16117550 2.21397187 2.23460158
v 0.64900493 2.41428925 -1.63936178
v 1.25000000 2.16506351 5.00000000
v -2.36536266 0.80935746 3.10559079
v -2.38240234 0.75773285 2.60138748
v -2.46865484 0.39464323 2.78044310
v -0.65772925 2.41192708 1.64523258
v -2.46174579 0.43566919 -2.23662717
v -2.36758825 0.80282368 -2.49425051
v -2.46345529 0.42589672 -2.73861856
v -0.40410966 2.46712290 1.77715758
v 0.93214527 2.31972093 2.31292531
v 1.27873024 2.14821995 2.26425860
v 1.02011412 2.28240382 1.98400747
v -0.30856898 2.48088395 3.64555538
v 1.51435638 1.98915177 0.74466384
v 2.47177044 0.37463437 0.79314875
v 0.61330529 2.42360406 -2.70252148
v 0.36972181 2.47251002 -2.41066423
v 1.11107271 2.23953509 2.64702235
v -0.52018304 2.44528313 -2.92775260
v -2.46953218 0.38911541 3.25000000
v -1.47578308 2.01793566 -1.70881880
v 1.64683939 1.88093594 -2.45267386
v -0.48747947 2.45201219 4.52914722
v -0.77254249 2.37764129 5.00000000
v 2.27749473 1.03102752 1.56529949
v 2.12061777 1.32400161 1.60877811
v -1.95186637 1.56211961 1.42038698
v 2.23146950 1.12718404 -1.47150742
v 1.46863338 2.02314508 4.13695322
v -2.28303469 1.01870144 3.55785484
v -2.05631593 1.42181743 3.58204238
v -1.41624483 2.06015790 2.87547838
v 2.32023384 0.93086785 -3.77817274
v 2.36709050 0.80429009 -3.34471082
v -0.27290992 2.48505939 2.94529822
v 0.13188787 2.49651869 2.96426759
v -2.46250000 0.43138585 -3.75000000
v -2.46415462 0.42183171 -3.23326572
v -2.35738171 0.83231693 -3.41750128
v 1.52814788 1.97857627 1.94950621
v 1.64056774 1.88640862 1.64026939
v 1.77161944 1.76390605 1.96807885
v 0.57728170 2.43243619 2.31119992
v -2.39683825 0.71075059 0.01865728
v 2.32965960 0.90702048 2.28787041
v -0.98561434 2.29751265 -4.56085248
v -2.39107555 0.72990254 1.02287377
v 0.73783135 2.38864081 2.64606629
v -2.03651821 1.45003228 0.40304331
v -2.12803298 1.31205016 0.07213890
v 2.46582460 0.41195759 -1.75010733
v -0.63965464 2.41678339 1.95296479
v -0.37287844 2.47203594 2.08175745
v 0.26132116 2.48630474 -5.00000000
v 0.47732156 2.45400981 -4.55205247
v 0.77254249 2.37764129 -5.00000000
v 1.65654858 1.87239067 0.18569002
v 0.71167317 2.39656448 4.10111629
v 0.74460231 2.38653879 2.00584879
v -0.51629692 2.44610660 -4.55547752
v -0.25970162 2.48647443 -4.14098925
v -0.01872962 2.49992984 -4.54739370
v 2.37584417 0.77805171 2.62397206
v -0.26132116 2.48630474 5.00000000
v 0.69866031 2.40039034 -3.36283231
v 1.06736280 2.26069384 -3.31094539
v 0.87984095 2.34005981 -3.73898696
v 1.26095109 2.15870386 -3.66089018
v 1.10862610 2.24074723 1.66562630
v -1.42523534 2.05394845 1.50941757
v 2.38997367 0.73350246 -2.95915038
v 1.27382930 2.15112968 1.87805501
v -1.70807506 1.82550804 2.13681599
v 2.46808236 0.39820779 -2.25631329
v -2.09458899 1.36480656 -0.54618842
v 1.74530464 1.78994740 -3.17556533
v 1.41589071 2.06040129 -3.24599913
v 1.53794162 1.97097325 -2.84944401
v -2.16314268 1.25332108 0.73223162
v -2.23509069 1.11998643 0.37945488
v 1.74161477 1.79353785 -2.05440530
v 1.84481249 1.68720682 -1.68225314
v -2.06311800 1.41192922 1.07762132
v -1.25000000 2.16506351 -5.00000000
v 2.12275459 1.32057297 -0.20723238
v 2.18283077 1.21870827 0.16130998
v 1.93759458 1.57978709 0.68259324
v -0.13824661 2.49617465 -2.85751263
v -0.00993967 2.49998024 -2.50344522
v 0.24013067 2.48844073 -2.78199742
v 2.46769067 0.40062793 -3.23530543
v -0.26132116 2.48630474 -5.00000000
v 2.16802762 1.24485189 4.59133046
v 2.04296060 1.44094135 4.18382690
v 1.85786206 1.67282652 4.62415573
v 0.61828940 2.42233735 1.61079069
v 0.83117045 2.35778618 1.76584314
v 0.88527142 2.33801080 1.48339109
v -0.02526534 2.49987233 -1.72462228
v -1.57186596 1.94402608 2.49724959
v -1.41092147 2.06380731 2.14268410
v 1.62087505 1.90335600 0.45833132
v 1.76869776 1.76683565 4.18436830
v 1.46347588 2.02687897 2.65006408
v -0.86576233 2.34530501 -1.80143677
v -0.88764983 2.33710885 -1.49599855
v 0.40844716 2.46640851 -3.73702224
v 0.21240823 2.49096020 -4.13907250
v 0.91672173 2.32585926 2.99514370
v -2.16582434 1.24868128 3.17523057
v -2.01588936 1.47857705 2.81617609
v -2.23913332 1.11188217 2.75518638
v -1.73955016 1.79554038 -1.80354148
v -1.57601264 1.94066591 -2.08638060
v -1.67282652 1.85786206 5.00000000
v 2.12539892 1.31631281 -1.20427432
v 2.06305801 1.41201687 -1.58820505
v 2.40170282 0.69413512 -1.05945031
v -2.36013905 0.82446570 -2.95765178
v 1.20413189 2.19090538 -2.91909719
v -0.33917490 2.47688522 2.34091011
v 0.91973744 2.32466837 -1.48835719
v 2.47425830 0.35783500 1.24787659
v -2.03417747 1.45331416 -0.20971147
v 0.68944195 2.40305427 -4.12665949
v 2.28421708 1.01604741 0.92386132
v 2.00307854 1.49588649 -1.97163543
v 2.46962557 0.38852224 -2.74235381
v 0.58370474 2.43090287 1.83980462
v -1.86431319 1.66563391 2.47401265
v -1.13112442 2.22947473 -2.69373904
v -0.88207893 2.33921713 -2.99555274
v -2.16162279 1.25594065 -4.56195993
v -2.02254249 1.46946313 -5.00000000
v 2.02254249 1.46946313 -5.00000000
v 1.85673018 1.67408274 -4.58590001
v 2.15250676 1.27150095 -4.59231106
v 2.38609017 0.74603869 0.63278637
v 2.25372094 1.08200828 -4.18379127
v 2.35623330 0.83556247 -4.58551433
v 1.62495846 1.89987105 2.30429018
v 2.32771801 0.91199171 1.25219132
v 2.46475594 0.41830389 3.24914601
v 2.36912572 0.79827522 3.51170254
v 2.46466007 0.41886839 3.74461170
v -0.77254249 2.37764129 -5.00000000
v 0.26132116 2.48630474 5.00000000
v -2.17161177 1.23858884 -0.89877867
v -2.06527069 1.40877854 1.74422086
v -2.16579386 1.24873413 1.39189408
v -1.73882872 1.79623904 2.85130832
v 1.28487861 2.14454820 3.00575578
v -1.97948203 1.52697442 2.11110124
v 1.92744011 1.59216036 -2.36617771
v 2.46431996 0.42086473 2.77136218
v 0.53265357 2.44259701 2.98487454
v -1.67282652 1.85786206 -5.00000000
v 1.67282652 1.85786206 5.00000000
v 1.67282652 1.85786206 -5.00000000
v -2.10187735 1.35355518 2.44826315
v -2.05272523 1.42699654 -1.20985804
v -1.90302161 1.62126763 -1.50475435
v -2.12196107 1.32184766 -1.55872693
v 2.18729212 1.21068295 3.78076942
v 2.37003362 0.79557565 3.99667295
v -1.61464457 1.90864426 0.43464010
v 0.31778398 2.47972042 3.32813146
v 0.11649691 2.49728422 -3.14713904
v 2.19109575 1.20378545 -0.84381942
v -2.02254249 1.46946313 5.00000000
v 1.62685640 1.89824610 -3.58387139
v 2.34957378 0.85410952 -0.76914569
v 2.38193435 0.75920270 -0.40963073
v -2.28386364 1.01684161 -5.00000000
v 2.28386364 1.01684161 5.00000000
v 2.36689528 0.80486442 4.53661431
v -2.25227123 1.08502271 1.04871080
v 2.35454869 0.84029784 3.00624921
v -1.14448864 2.22264386 -1.66146804
v -0.08868925 2.49842635 3.30705999
v -1.99045197 1.51264700 -3.39232141
v -1.68529558 1.84655864 -3.56606171
v -1.98380472 1.52135428 -1.85605577
v -0.83005428 2.35817936 -2.12043541
v -2.19457156 1.19743713 -3.16239428
v 0.49353929 2.45079966 -3.06574002
v 0.77254249 2.37764129 5.00000000
v -1.81021925 1.72426977 -3.13864354
v -1.57172836 1.94413733 -3.12186640
v -2.36321461 0.81560819 4.37941219
v 2.02254249 1.46946313 5.00000000
v -2.28386364 1.01684161 5.00000000
v 2.28386364 1.01684161 -5.00000000
v 0.61544155 2.42306246 -1.93113203
v 2.23621011 1.11774967 -0.48033800
v -2.44536900 0.51977923 -5.00000000
v 2.44536900 0.51977923 5.00000000
v -0.49167058 2.45117524 3.28663446
v -1.82778890 1.70563412 -2.15392864
v 2.46435019 0.42068772 4.23126239
v -2.18831519 1.20883276 -1.91600772
v 0.53262348 2.44260358 -2.18991304
v -1.65167107 1.87669462 -2.45032094
v 0.85880269 2.34786242 -2.99103569
v -1.20244962 2.19182912 -3.44321743
v -0.87780525 2.34082420 3.26172728
v -1.46000507 2.02938050 -2.75193574
v 1.90816312 1.61521315 2.30044677
v -2.46710557 0.40421541 3.74667650
v -2.37154006 0.79107378 3.90589678
v -2.46564906 0.41300695 4.22246303
v 1.84678620 1.68504621 -2.76494876
v -1.90289267 1.62141898 0.53286390
v -0.19522828 2.49236553 1.68272200
v 2.29173562 0.99897339 -0.12380145
v 1.45222194 2.03495736 3.38477542
v 1.62435332 1.90038846 3.01194158
v 2.02938385 1.46000041 -3.08598535
v 2.18883222 1.20789631 -3.42178201
v -1.24380631 2.16862765 -3.09876016
v 1.77903074 1.75643093 2.65117908
v 2.04699712 1.43520130 2.64789845
v -1.90374918 1.62041324 3.21130908
v 2.34323767 0.87134219 0.25162491
v 0.36255407 2.47357121 -3.38161030
v 1.77917951 1.75628024 3.39095153
v 1.60091110 1.92017803 3.77656213
v 1.92411178 1.59618102 3.77967056
v 2.04184702 1.44251889 3.37378895
v 2.17550702 1.23173422 2.99235711
v 1.92670230 1.59305312 3.00905787
v -2.23831963 1.11351931 -1.25409532
v 1.93807775 1.57919430 -3.50715855
v 1.83313778 1.69988408 -3.92008579
v 0.71977999 2.39414218 3.34393401
v 2.23525650 1.11965547 1.94747804
v 0.51046082 2.44733115 3.70385578
v -2.21264514 1.16370163 -0.25033392
v -2.27756461 1.03087314 -0.59466413
v 1.76466072 1.77086773 1.32735825
v -1.76085284 1.77465413 -2.82158598
v 2.24218386 1.10571765 2.64152305
v 2.02541849 1.46549648 1.95443732
v 1.89915587 1.62579426 1.63157465
v 0.91073217 2.32821110 3.72177862
v -2.19944587 1.18846030 2.07718036
v 0.32041903 2.47938130 -2.05069249
v -0.91921557 2.32487478 1.80122470
v -0.14109640 2.49601519 1.92132014
v 2.14702895 1.28072897 2.29438523
v -0.50223051 2.44903338 3.88873670
v -2.37702081 0.77444953 4.73322291
v 2.11016402 1.34059980 -3.84219304
v 2.28553517 1.01307895 -1.13393546
v 2.47266548 0.36868064 4.63088471
v -2.47131905 0.37760052 -4.63007569
v 2.23839231 1.11337319 4.21735205
v -1.34438147 2.10775674 1.79482959
v 1.10006482 2.24496267 3.36257187
v 2.40964748 0.66603230 1.45858760
v -2.36077827 0.82263355 -0.28509021
v -1.44300277 2.04150509 -3.41006051
v 1.72764351 1.80699970 -4.25198841
v -2.44536900 0.51977923 5.00000000
v -2.47327778 0.36455042 4.64121786
v -2.29459587 0.99238591 0.03874974
v 2.23411144 1.12193853 3.32020221
v -1.14125209 2.22430746 1.96044049
v -2.23197803 1.12617674 1.70901774
v 1.28061960 2.14709419 3.74865253
v 2.00192972 1.49742359 -4.22709236
v -0.96313719 2.30702552 -3.29745092
v 2.40286478 0.69010204 1.02236652
v -2.40650061 0.67731442 3.47684493
v -2.25873919 1.07149302 2.43249251
v 0.43721342 -1.99351260 -5.00000000
v -0.02103641 -2.02218690 -5.00000000
v 0.16715899 -1.49439214 -5.00000000
v -0.36225049 -1.66157301 -5.00000000
v -0.78222182 -1.36323139 -5.00000000
v -0.79043764 -1.87023303 -5.00000000
v -1.80830176 -1.03501469 -5.00000000
v -1.65299995 -0.58693192 -5.00000000
v -1.26606245 -1.05943565 -5.00000000
v -1.18039161 -0.49573777 -5.00000000
v 1.63581132 0.30547642 -5.00000000
v 2.11296717 0.25430784 -5.00000000
v 2.02254249 -0.21257778 -5.00000000
v -0.43823861 -2.10099178 -5.00000000
v 1.52728697 -0.20666740 -5.00000000
v -1.64143638 0.27302743 -5.00000000
v -1.54546491 0.82098908 -5.00000000
v -1.13400663 0.50242194 -5.00000000
v 1.92500433 -0.62142033 -5.00000000
v 1.47309722 -0.72064239 -5.00000000
v 1.13187177 0.63038618 -5.00000000
v 1.56862880 0.86869977 -5.00000000
v -0.17274770 1.53322110 -5.00000000
v -0.43582877 1.99356808 -5.00000000
v 0.01815493 2.04824182 -5.00000000
v -0.58434670 1.61399120 -5.00000000
v -1.98329111 0.66671603 -5.00000000
v 1.96111304 0.65886136 -5.00000000
v 0.67219912 -1.59487451 -5.00000000
v -1.99250337 -0.20407293 -5.00000000
v -2.11251997 0.25108995 -5.00000000
v -1.55333365 -0.15895848 -5.00000000
v -1.09944600 1.02175548 -5.00000000
v 0.33264146 1.68751365 -5.00000000
v -1.20727067 -1.64285478 -5.00000000
v 1.07896044 -0.42592268 -5.00000000
v 0.64018589 -0.14068462 -5.00000000
v 1.10046258 0.09371605 -5.00000000
v 0.67036307 0.38193225 -5.00000000
v 0.69845892 0.90298427 -5.00000000
v 1.16156967 1.14215602 -5.00000000
v -0.62309802 1.20459534 -5.00000000
v -0.20146177 0.94530086 -5.00000000
v -0.67203500 0.71622036 -5.00000000
v -0.23412481 0.43046524 -5.00000000
v 0.23272741 0.66556863 -5.00000000
v 0.17506078 -0.37672561 -5.00000000
v 0.61280671 -0.66225623 -5.00000000
v 0.20346176 0.14514853 -5.00000000
v -0.75394093 -0.84430923 -5.00000000
v -0.72568242 -0.32276166 -5.00000000
v -0.29109489 -0.61306201 -5.00000000
v -0.26266666 -0.09122186 -5.00000000
v -1.15097512 -0.01843266 -5.00000000
v -0.70041099 0.19430819 -5.00000000
v 0.14665076 -0.89859281 -5.00000000
v -0.30872747 -1.11840284 -5.00000000
v -0.88925015 1.90934577 -5.00000000
v -1.51428393 1.36486020 -5.00000000
v 1.79786666 -1.05201356 -5.00000000
v 1.18878194 -1.63213260 -5.00000000
v 1.19536900 1.64528428 -5.00000000
v 1.01718239 -0.88508122 -5.00000000
v 0.58113127 -1.14472293 -5.00000000
v 0.26488929 1.18041401 -5.00000000
v 0.73020454 1.41806875 -5.00000000
v 0.86497714 -1.94277046 -5.00000000
v 0.97080782 -1.27076337 -5.00000000
v 1.34384807 -1.16372142 -5.00000000
v 0.78465576 1.89833807 -5.00000000
v -1.59540078 -1.41292606 -5.00000000
v 1.61535240 -1.42169539 -5.00000000
v -1.02679609 1.46444545 -5.00000000
v 1.59516285 1.36320109 -5.00000000
v 0.43386316 2.09960791 -5.00000000
v -2.05031572 -0.67169519 -5.00000000
v -1.28077864 1.76409472 -5.00000000
v -1.88479673 1.08216390 -5.00000000
v 1.88626217 1.07541339 -5.00000000
v 0.43721342 1.99351260 5.00000000
v -0.02103641 2.02218690 5.00000000
v 0.16715899 1.49439214 5.00000000
v -0.36225049 1.66157301 5.00000000
v -0.78222182 1.36323139 5.00000000
v -0.79043764 1.87023303 5.00000000
v -1.80830176 1.03501469 5.00000000
v -1.65299995 0.58693192 5.00000000
v -1.26606245 1.05943565 5.00000000
v -1.18039161 0.49573777 5.00000000
v 1.63581132 -0.30547642 5.00000000
v 2.11296717 -0.25430784 5.00000000
v 2.02254249 0.21257778 5.00000000
v -0.43823861 2.10099178 5.00000000
v 1.52728697 0.20666740 5.00000000
v -1.64143638 -0.27302743 5.00000000
v -1.54546491 -0.82098908 5.00000000
v -1.13400663 -0.50242194 5.00000000
v 1.92500433 0.62142033 5.00000000
v 1.47309722 0.72064239 5.00000000
v 1.13187177 -0.63038618 5.00000000
v 1.56862880 -0.86869977 5.00000000
v -0.17274770 -1.53322110 5.00000000
v -0.43582877 -1.99356808 5.00000000
v 0.01815493 -2.04824182 5.00000000
v -0.58434670 -1.61399120 5.00000000
v -1.98329111 -0.66671603 5.00000000
v 1.96111304 -0.65886136 5.00000000
v 0.67219912 1.59487451 5.00000000
v -1.99250337 0.20407293 5.00000000
v -2.11251997 -0.25108995 5.00000000
v -1.55333365 0.15895848 5.00000000
v -1.09944600 -1.02175548 5.00000000
v 0.33264146 -1.68751365 5.00000000
v -1.20727067 1.64285478 5.00000000
v 1.07896044 0.42592268 5.00000000
v 0.64018589 0.14068462 5.00000000
v 1.10046258 -0.09371605 5.00000000
v 0.67036307 -0.38193225 5.00000000
v 0.69845892 -0.90298427 5.00000000
v 1.16156967 -1.14215602 5.00000000
v -0.62309802 -1.20459534 5.00000000
v -0.20146177 -0.94530086 5.00000000
v -0.67203500 -0.71622036 5.00000000
v -0.23412481 -0.43046524 5.00000000
v 0.23272741 -0.66556863 5.00000000
v 0.17506078 0.37672561 5.00000000
v 0.61280671 0.66225623 5.00000000
v 0.20346176 -0.14514853 5.00000000
v -0.75394093 0.84430923 5.00000000
v -0.72568242 0.32276166 5.00000000
v -0.29109489 0.61306201 5.00000000
v -0.26266666 0.09122186 5.00000000
v -1.15097512 0.01843266 5.00000000
v -0.70041099 -0.19430819 5.00000000
v 0.14665076 0.89859281 5.00000000
v -0.30872747 1.11840284 5.00000000
v -0.88925015 -1.90934577 5.00000000
v -1.51428393 -1.36486020 5.00000000
v 1.79786666 1.05201356 5.00000000
v 1.18878194 1.63213260 5.00000000
v 1.19536900 -1.64528428 5.00000000
v 1.01718239 0.88508122 5.00000000
v 0.58113127 1.14472293 5.00000000
v 0.26488929 -1.18041401 5.00000000
v 0.73020454 -1.41806875 5.00000000
v 0.86497714 1.94277046 5.00000000
v 0.97080782 1.27076337 5.00000000
v 1.34384807 1.16372142 5.00000000
v 0.78465576 -1.89833807 5.00000000
v -1.59540078 1.41292606 5.00000000
v 1.61535240 1.42169539 5.00000000
v -1.02679609 -1.46444545 5.00000000
v 1.59516285 -1.36320109 5.00000000
v 0.43386316 -2.09960791 5.00000000
v -2.05031572 0.67169519 5.00000000
v -1.28077864 -1.76409472 5.00000000
v -1.88479673 -1.08216390 5.00000000
v 1.88626217 -1.07541339 5.00000000
f 1 2 3
f 4 5 6
f 7 5 4
f 8 9 10
f 11 12 13
f 14 15 16
f 17 5 18
f 16 19 14
f 3 20 1
f 9 21 10
f 22 12 11
f 23 24 25
f 26 27 28
f 29 30 31
f 32 33 34
f 31 35 29
f 36 37 38
f 39 2 1
f 38 40 36
f 10 41 8
f 28 42 26
f 43 44 45
f 46 44 43
f 47 48 49
f 50 4 6
f 49 51 47
f 18 5 7
f 17 52 5
f 28 27 53
f 54 55 20
f 56 57 58
f 20 59 54
f 58 33 32
f 58 60 56
f 25 24 61
f 62 63 64
f 65 63 62
f 66 67 68
f 68 63 65
f 12 41 13
f 68 67 63
f 33 69 34
f 70 71 72
f 64 71 62
f 23 73 24
f 74 75 76
f 74 76 77
f 78 79 80
f 81 78 80
f 77 76 82
f 83 2 84
f 85 86 87
f 82 88 77
f 89 90 24
f 57 33 58
f 1 20 91
f 92 60 93
f 94 88 82
f 95 96 97
f 98 99 100
f 101 102 103
f 104 96 95
f 9 105 21
f 22 106 12
f 107 105 108
f 15 17 16
f 109 105 110
f 111 112 113
f 114 115 116
f 21 105 107
f 117 118 119
f 120 121 122
f 123 124 125
f 93 60 58
f 74 86 75
f 101 67 66
f 62 60 92
f 126 102 127
f 72 71 64
f 128 129 130
f 87 86 74
f 110 131 109
f 56 71 70
f 132 86 85
f 133 134 132
f 103 102 126
f 135 102 101
f 136 96 104
f 79 137 138
f 95 88 94
f 136 139 140
f 129 121 120
f 141 142 143
f 97 88 95
f 144 128 145
f 136 140 96
f 142 146 143
f 108 105 109
f 144 129 128
f 116 115 140
f 110 105 9
f 143 147 141
f 80 79 138
f 60 71 56
f 145 131 148
f 116 99 98
f 29 61 30
f 141 147 149
f 150 151 152
f 62 71 60
f 145 148 144
f 153 154 155
f 103 67 101
f 148 131 110
f 156 157 158
f 116 98 114
f 118 159 119
f 125 124 120
f 160 161 162
f 163 164 113
f 24 90 61
f 165 50 6
f 166 135 101
f 167 42 28
f 168 169 170
f 155 154 171
f 172 173 174
f 129 120 130
f 109 131 175
f 176 135 177
f 84 2 39
f 123 125 142
f 126 178 179
f 180 170 181
f 182 108 109
f 183 171 184
f 165 185 186
f 187 176 177
f 188 161 189
f 168 170 180
f 190 182 191
f 158 179 156
f 192 178 127
f 193 54 194
f 185 195 186
f 45 195 185
f 132 134 86
f 196 171 183
f 190 108 182
f 165 186 197
f 6 198 185
f 165 6 185
f 199 190 191
f 200 201 202
f 176 203 135
f 204 205 206
f 203 102 135
f 189 161 160
f 207 188 189
f 208 209 210
f 177 135 166
f 150 152 211
f 122 125 120
f 130 124 212
f 213 173 172
f 214 128 130
f 39 1 215
f 201 193 194
f 204 206 216
f 217 157 156
f 218 219 220
f 100 99 155
f 221 209 208
f 222 223 224
f 225 108 190
f 226 50 165
f 149 147 173
f 227 224 200
f 182 109 175
f 89 228 229
f 230 231 232
f 233 219 218
f 234 201 194
f 225 190 235
f 215 1 236
f 237 128 214
f 238 239 240
f 182 241 191
f 182 175 241
f 242 225 235
f 234 194 243
f 244 245 246
f 100 247 248
f 249 186 250
f 186 195 250
f 251 180 181
f 248 247 252
f 179 178 156
f 253 237 192
f 230 232 254
f 145 128 237
f 171 154 184
f 255 248 252
f 173 147 174
f 255 246 248
f 256 257 258
f 8 12 259
f 181 170 260
f 225 107 108
f 226 165 197
f 93 58 32
f 175 253 261
f 249 250 207
f 65 62 92
f 46 255 252
f 253 145 237
f 127 178 126
f 237 262 192
f 191 176 187
f 260 215 236
f 263 50 226
f 253 192 261
f 246 264 265
f 237 214 262
f 162 223 266
f 170 169 215
f 246 265 248
f 267 36 268
f 175 261 241
f 169 39 215
f 198 45 185
f 264 268 269
f 260 170 215
f 227 200 202
f 199 191 187
f 139 116 140
f 270 252 196
f 216 206 230
f 160 162 266
f 166 101 66
f 236 1 91
f 214 217 262
f 271 272 273
f 274 251 275
f 276 111 221
f 267 14 36
f 220 31 277
f 255 244 246
f 278 274 279
f 222 224 227
f 280 281 251
f 264 267 268
f 218 220 277
f 197 186 249
f 282 254 281
f 283 26 168
f 100 155 247
f 251 181 275
f 264 269 265
f 137 284 285
f 120 124 130
f 214 212 217
f 229 228 276
f 254 283 281
f 214 130 212
f 195 47 250
f 233 218 286
f 268 219 233
f 153 139 287
f 274 275 279
f 202 201 234
f 235 190 199
f 212 288 217
f 218 277 289
f 111 113 221
f 250 188 207
f 210 209 256
f 36 219 268
f 274 280 251
f 276 228 111
f 287 139 136
f 280 172 174
f 280 282 281
f 290 230 254
f 291 292 288
f 268 233 269
f 254 232 283
f 212 291 288
f 289 239 238
f 266 223 222
f 230 206 231
f 293 273 204
f 252 247 196
f 274 172 280
f 294 8 259
f 291 123 295
f 283 168 180
f 238 240 296
f 213 172 278
f 273 205 204
f 218 289 286
f 297 88 97
f 275 298 279
f 272 205 273
f 77 88 297
f 295 123 299
f 282 290 254
f 300 196 183
f 247 171 196
f 292 301 288
f 283 232 26
f 302 204 216
f 31 30 277
f 303 229 87
f 304 271 273
f 270 46 252
f 292 76 301
f 303 89 229
f 281 180 251
f 240 303 296
f 290 216 230
f 305 158 306
f 261 203 241
f 302 293 204
f 103 126 307
f 246 245 264
f 233 286 114
f 278 279 308
f 299 123 142
f 76 75 301
f 256 258 70
f 295 82 292
f 229 276 85
f 309 259 310
f 283 180 281
f 265 100 248
f 260 236 311
f 181 260 312
f 289 238 313
f 213 278 314
f 238 296 315
f 299 142 141
f 142 125 146
f 127 203 261
f 82 76 292
f 291 295 292
f 276 221 208
f 300 270 196
f 217 156 262
f 278 172 274
f 192 127 261
f 316 306 133
f 267 15 14
f 317 136 104
f 318 95 94
f 240 89 303
f 277 239 289
f 264 245 267
f 318 149 104
f 317 213 287
f 303 87 319
f 280 174 282
f 290 320 321
f 293 304 273
f 321 302 216
f 295 299 94
f 236 91 322
f 304 310 271
f 314 153 287
f 241 176 191
f 233 114 269
f 282 320 290
f 317 173 213
f 303 319 296
f 318 141 149
f 238 315 313
f 323 129 144
f 289 313 286
f 229 85 87
f 312 298 275
f 320 143 321
f 290 321 216
f 299 318 94
f 318 104 95
f 320 147 143
f 149 317 104
f 317 287 136
f 87 74 319
f 267 245 15
f 294 9 8
f 315 297 97
f 210 256 324
f 30 239 277
f 213 314 287
f 127 102 203
f 295 94 82
f 74 77 319
f 302 122 293
f 175 131 253
f 96 140 325
f 256 209 257
f 309 294 259
f 326 38 327
f 328 23 329
f 330 29 331
f 286 115 114
f 181 312 275
f 279 332 308
f 155 171 247
f 315 97 325
f 296 297 315
f 323 121 129
f 149 173 317
f 314 154 153
f 278 308 314
f 299 141 318
f 316 305 306
f 333 211 334
f 335 53 336
f 337 22 11
f 338 167 339
f 315 325 313
f 304 323 310
f 340 341 342
f 336 150 333
f 339 28 335
f 279 298 332
f 97 96 325
f 174 320 282
f 332 184 308
f 47 188 250
f 258 57 56
f 340 183 184
f 342 300 183
f 276 208 85
f 313 115 286
f 319 297 296
f 323 309 310
f 342 343 300
f 174 147 320
f 332 340 184
f 77 297 319
f 256 70 324
f 260 311 312
f 304 121 323
f 21 344 10
f 293 121 304
f 300 343 49
f 341 285 342
f 140 115 325
f 265 98 100
f 302 146 122
f 300 49 270
f 241 203 176
f 143 146 321
f 325 115 313
f 321 146 302
f 340 342 183
f 208 132 85
f 340 345 341
f 346 64 347
f 323 144 309
f 346 307 305
f 184 154 308
f 122 121 293
f 114 98 269
f 333 150 211
f 335 28 53
f 138 137 285
f 332 298 345
f 210 133 132
f 332 345 340
f 348 163 349
f 350 16 351
f 324 316 133
f 352 3 353
f 354 10 355
f 53 150 336
f 167 28 339
f 236 322 311
f 308 154 314
f 347 103 307
f 316 346 305
f 208 210 132
f 210 324 133
f 258 56 70
f 294 110 9
f 81 80 356
f 64 63 347
f 346 347 307
f 269 98 265
f 357 358 352
f 70 72 324
f 359 360 361
f 362 119 348
f 253 131 145
f 285 343 342
f 346 72 64
f 322 81 356
f 212 124 291
f 324 72 316
f 322 356 311
f 363 364 107
f 365 366 357
f 367 368 369
f 370 7 371
f 372 117 362
f 309 148 294
f 144 148 309
f 54 373 194
f 316 72 346
f 298 374 345
f 312 374 298
f 288 157 217
f 294 148 110
f 311 374 312
f 54 59 373
f 348 119 163
f 126 179 307
f 352 358 3
f 284 375 343
f 306 134 133
f 374 376 345
f 291 124 123
f 305 179 158
f 225 363 107
f 306 377 134
f 356 374 311
f 366 358 357
f 117 119 362
f 262 178 192
f 376 138 341
f 258 118 57
f 146 125 122
f 158 377 306
f 356 376 374
f 112 378 113
f 285 284 343
f 347 67 103
f 301 157 288
f 328 112 23
f 345 376 341
f 80 376 356
f 80 138 376
f 341 138 285
f 375 51 49
f 379 363 242
f 243 373 380
f 359 361 337
f 368 364 363
f 209 164 257
f 139 99 116
f 153 99 139
f 14 37 36
f 307 179 305
f 17 18 16
f 155 99 153
f 220 381 31
f 373 59 366
f 63 67 347
f 343 375 49
f 382 381 326
f 156 178 262
f 211 360 334
f 113 164 221
f 301 377 157
f 361 360 272
f 383 112 328
f 83 84 338
f 371 4 384
f 16 18 351
f 205 152 206
f 157 377 158
f 257 118 258
f 168 42 169
f 327 37 385
f 370 18 7
f 193 78 81
f 29 25 61
f 134 377 75
f 86 134 75
f 23 25 329
f 330 25 29
f 353 2 83
f 12 106 259
f 75 377 301
f 337 361 22
f 113 378 163
f 310 106 271
f 220 40 381
f 37 19 385
f 152 151 231
f 194 373 243
f 242 363 225
f 221 164 209
f 20 55 91
f 334 360 359
f 382 35 381
f 351 18 370
f 231 27 232
f 354 41 10
f 326 381 38
f 15 386 17
f 61 90 30
f 10 344 355
f 7 4 371
f 372 387 117
f 367 344 368
f 240 90 89
f 30 90 239
f 338 84 167
f 257 159 118
f 245 386 15
f 45 44 195
f 381 40 38
f 388 389 263
f 384 389 388
f 38 37 327
f 201 78 193
f 8 41 12
f 329 25 330
f 36 40 219
f 47 51 188
f 14 19 37
f 381 35 31
f 3 2 353
f 350 19 16
f 29 35 331
f 358 20 3
f 380 390 391
f 392 393 379
f 271 394 272
f 46 43 255
f 163 378 349
f 169 395 39
f 391 390 365
f 369 393 392
f 34 69 396
f 259 106 310
f 206 152 231
f 396 69 397
f 383 378 112
f 49 48 270
f 272 394 361
f 397 387 372
f 13 41 354
f 26 42 168
f 118 398 57
f 355 344 367
f 39 395 84
f 91 399 322
f 89 24 228
f 232 27 26
f 272 400 205
f 6 5 198
f 117 398 118
f 81 399 193
f 358 59 20
f 239 90 240
f 244 386 245
f 205 400 152
f 112 73 23
f 24 73 228
f 386 401 52
f 360 400 272
f 379 393 363
f 373 390 380
f 244 401 386
f 57 398 33
f 111 73 112
f 42 395 169
f 119 159 163
f 263 389 50
f 106 394 271
f 366 390 373
f 363 393 368
f 193 55 54
f 200 78 201
f 200 79 78
f 161 375 162
f 164 159 257
f 161 51 375
f 385 19 350
f 228 73 111
f 224 137 79
f 387 398 117
f 224 79 200
f 223 137 224
f 55 399 91
f 331 35 382
f 162 375 284
f 231 151 27
f 223 284 137
f 219 40 220
f 107 364 21
f 198 401 45
f 188 51 161
f 53 151 150
f 344 364 368
f 162 284 223
f 255 43 244
f 195 44 47
f 4 389 384
f 270 48 46
f 163 159 164
f 365 390 366
f 368 393 369
f 211 400 360
f 349 378 383
f 387 69 33
f 322 399 81
f 152 400 211
f 366 59 358
f 5 52 198
f 50 389 4
f 361 394 22
f 22 394 106
f 167 395 42
f 33 398 387
f 84 395 167
f 397 69 387
f 21 364 344
f 27 151 53
f 52 401 198
f 386 52 17
f 244 43 401
f 46 48 44
f 401 43 45
f 44 48 47
f 193 399 55
f 402 403 404
f 405 406 407
f 408 409 410
f 403 402 408
f 408 402 411
f 412 413 414
f 415 408 411
f 416 412 414
f 417 418 407
f 419 420 421
f 406 417 407
f 422 409 408
f 403 423 404
f 418 417 424
f 406 405 425
f 426 427 428
f 429 427 426
f 403 408 410
f 413 412 430
f 420 419 431
f 432 433 421
f 433 419 421
f 426 428 420
f 434 435 430
f 436 437 438
f 439 440 405
f 423 427 404
f 441 442 443
f 437 409 444
f 432 436 438
f 437 436 410
f 440 445 405
f 433 432 446
f 412 434 430
f 432 438 446
f 447 445 440
f 442 441 448
f 416 449 450
f 451 452 453
f 454 429 426
f 455 456 457
f 457 458 459
f 435 460 430
f 455 457 459
f 460 440 439
f 461 447 440
f 462 437 444
f 463 456 455
f 422 408 415
f 457 464 465
f 466 434 412
f 467 468 402
f 460 461 440
f 464 456 444
f 457 456 464
f 469 470 433
f 471 472 417
f 409 464 444
f 418 439 407
f 457 465 458
f 463 473 456
f 441 455 459
f 428 427 423
f 441 474 455
f 465 464 422
f 475 413 430
f 442 418 443
f 470 476 419
f 477 471 406
f 474 463 455
f 475 442 413
f 467 402 404
f 478 474 441
f 462 479 437
f 480 481 482
f 436 423 403
f 447 483 445
f 484 454 485
f 428 432 421
f 429 486 427
f 435 461 460
f 445 482 425
f 486 467 404
f 465 422 487
f 453 485 431
f 422 415 487
f 456 473 444
f 428 423 432
f 433 470 419
f 471 417 406
f 473 462 444
f 458 465 449
f 412 416 488
f 432 423 436
f 460 475 430
f 475 418 442
f 420 428 421
f 475 439 418
f 427 486 404
f 460 439 475
f 443 418 424
f 422 464 409
f 458 449 416
f 489 490 491
f 405 445 425
f 491 487 492
f 439 405 407
f 485 420 431
f 416 450 488
f 493 419 494
f 406 495 496
f 497 451 493
f 481 498 495
f 485 426 420
f 478 441 443
f 493 451 453
f 417 472 424
f 469 433 446
f 459 458 414
f 437 479 438
f 499 484 500
f 485 454 426
f 452 499 500
f 419 476 494
f 409 437 410
f 477 406 496
f 483 501 502
f 481 495 482
f 402 468 411
f 441 459 448
f 466 412 488
f 449 491 450
f 503 477 496
f 476 504 494
f 501 480 502
f 487 415 492
f 495 406 425
f 491 449 487
f 490 505 450
f 419 493 431
f 449 465 487
f 491 490 450
f 482 445 502
f 489 491 492
f 498 503 496
f 504 497 494
f 458 416 414
f 506 478 443
f 445 483 502
f 507 489 492
f 484 485 500
f 468 507 411
f 485 453 500
f 505 466 488
f 436 403 410
f 453 452 500
f 506 443 424
f 479 508 438
f 438 508 446
f 450 505 488
f 480 482 502
f 413 442 448
f 459 414 448
f 507 492 411
f 472 506 424
f 508 469 446
f 482 495 425
f 492 415 411
f 493 453 431
f 495 498 496
f 497 493 494
f 414 413 448
f 509 510 511
f 512 513 514
f 515 516 517
f 518 519 520
f 510 509 515
f 515 509 521
f 522 518 520
f 523 515 521
f 524 525 514
f 526 527 528
f 529 516 515
f 513 524 514
f 510 530 511
f 525 524 531
f 513 512 532
f 533 534 535
f 536 534 533
f 510 515 517
f 519 518 537
f 527 526 538
f 539 540 528
f 540 526 528
f 533 535 527
f 541 542 537
f 543 544 545
f 546 547 512
f 530 534 511
f 548 549 550
f 539 543 545
f 544 516 551
f 544 543 517
f 547 552 512
f 540 539 553
f 518 541 537
f 539 545 553
f 554 552 547
f 549 548 555
f 481 480 556
f 557 536 533
f 522 558 559
f 542 560 537
f 560 547 546
f 561 554 547
f 562 544 551
f 529 515 523
f 563 564 565
f 566 541 518
f 567 568 509
f 569 570 563
f 560 561 547
f 548 571 569
f 548 569 572
f 573 574 540
f 575 576 524
f 563 570 564
f 563 577 572
f 564 570 551
f 525 546 514
f 563 565 577
f 578 570 569
f 578 579 570
f 569 563 572
f 535 534 530
f 516 564 551
f 565 529 580
f 565 564 529
f 581 519 537
f 549 525 550
f 574 582 526
f 583 575 513
f 581 549 519
f 567 509 511
f 584 571 548
f 562 585 544
f 529 523 580
f 452 451 586
f 543 530 510
f 571 578 569
f 554 587 552
f 588 557 589
f 518 522 590
f 535 539 528
f 536 591 534
f 542 561 560
f 552 586 532
f 591 567 511
f 556 589 538
f 535 530 539
f 570 579 551
f 540 574 526
f 575 524 513
f 579 562 551
f 577 565 558
f 539 530 543
f 560 581 537
f 581 525 549
f 527 535 528
f 581 546 525
f 534 591 511
f 560 546 581
f 550 525 531
f 529 564 516
f 577 558 522
f 592 593 594
f 512 552 532
f 546 512 514
f 589 527 538
f 595 526 596
f 513 597 598
f 594 580 599
f 522 559 590
f 498 481 595
f 451 497 597
f 589 533 527
f 584 548 550
f 595 481 556
f 524 576 531
f 573 540 553
f 572 577 520
f 544 585 545
f 501 588 600
f 548 572 555
f 589 557 533
f 480 501 600
f 526 582 596
f 583 513 598
f 558 594 559
f 587 499 601
f 451 597 586
f 509 568 521
f 566 518 590
f 504 583 598
f 582 503 596
f 499 452 601
f 516 544 517
f 597 513 532
f 580 523 599
f 594 558 580
f 593 602 559
f 526 595 538
f 558 565 580
f 594 593 559
f 586 552 601
f 577 522 520
f 592 594 599
f 497 504 598
f 503 498 596
f 603 592 599
f 604 584 550
f 552 587 601
f 588 589 600
f 568 603 521
f 589 556 600
f 602 566 590
f 543 510 517
f 556 480 600
f 604 550 531
f 585 605 545
f 545 605 553
f 559 602 590
f 572 520 555
f 519 549 555
f 452 586 601
f 603 599 521
f 576 604 531
f 605 573 553
f 586 597 532
f 599 523 521
f 595 556 538
f 520 519 555
f 597 497 598
f 498 595 596
f 606 607 608
f 609 610 611
f 607 606 612
f 613 614 615
f 614 616 615
f 617 618 619
f 620 618 617
f 609 611 621
f 620 622 623
f 618 620 623
f 624 610 625
f 610 609 625
f 626 627 628
f 629 617 630
f 628 627 631
f 632 633 634
f 633 632 635
f 610 624 636
f 617 637 630
f 638 639 640
f 641 642 643
f 639 638 631
f 607 642 608
f 627 626 621
f 644 634 636
f 632 634 644
f 642 641 608
f 611 627 621
f 645 613 615
f 646 647 648
f 629 649 647
f 647 649 648
f 650 649 629
f 651 629 630
f 611 652 627
f 653 654 652
f 611 653 652
f 654 655 652
f 656 657 648
f 657 646 648
f 658 656 648
f 659 660 661
f 659 662 660
f 662 663 660
f 660 664 661
f 665 664 660
f 666 667 642
f 585 562 609
f 474 478 618
f 604 576 668
f 575 583 616
f 579 578 624
f 582 574 638
f 504 476 645
f 506 472 637
f 473 463 669
f 477 503 670
f 508 479 606
f 470 469 641
f 571 584 632
f 573 605 626
f 657 671 646
f 657 607 671
f 607 666 642
f 610 653 611
f 657 666 607
f 667 662 659
f 656 666 657
f 666 662 667
f 672 653 610
f 665 672 664
f 656 662 666
f 665 653 672
f 665 654 653
f 663 665 660
f 656 663 662
f 658 663 656
f 663 654 665
f 658 654 663
f 658 655 654
f 649 658 648
f 652 673 627
f 649 655 658
f 655 673 652
f 650 655 649
f 650 673 655
f 651 650 629
f 650 639 673
f 651 639 650
f 645 643 613
f 642 667 643
f 616 614 674
f 629 647 617
f 643 667 613
f 651 670 639
f 612 675 676
f 667 659 613
f 677 616 674
f 647 646 620
f 675 612 678
f 637 617 619
f 646 671 622
f 639 670 640
f 673 639 631
f 661 664 633
f 613 659 614
f 672 610 636
f 647 620 617
f 633 664 634
f 638 628 631
f 664 672 634
f 671 607 612
f 668 633 635
f 622 669 623
f 659 661 614
f 679 670 651
f 679 651 630
f 643 645 680
f 620 646 622
f 477 670 679
f 471 477 679
f 609 562 625
f 584 604 635
f 578 571 644
f 506 637 619
f 668 576 677
f 504 645 615
f 463 474 623
f 669 463 623
f 616 583 615
f 575 616 677
f 579 624 625
f 503 582 640
f 583 504 615
f 632 584 635
f 571 632 644
f 618 478 619
f 462 473 675
f 576 575 677
f 624 578 644
f 562 579 625
f 582 638 640
f 478 506 619
f 474 618 623
f 604 668 635
f 574 573 628
f 573 626 628
f 638 574 628
f 670 503 640
f 473 669 675
f 645 476 680
f 470 641 680
f 476 470 680
f 606 479 678
f 641 643 680
f 637 472 681
f 641 469 682
f 508 606 682
f 585 609 683
f 626 605 683
f 661 633 674
f 633 668 674
f 627 673 631
f 622 671 676
f 479 462 678
f 671 612 676
f 624 644 636
f 469 508 682
f 605 585 683
f 472 471 681
f 612 606 678
f 630 637 681
f 634 672 636
f 608 641 682
f 606 608 682
f 614 661 674
f 679 630 681
f 609 621 683
f 621 626 683
f 462 675 678
f 669 622 676
f 471 679 681
f 668 677 674
f 675 669 676
f 684 685 686
f 687 688 689
f 689 688 690
f 691 692 693
f 694 695 696
f 697 698 699
f 700 701 702
f 703 704 705
f 371 706 707
f 708 701 700
f 699 709 697
f 484 710 711
f 712 713 714
f 696 715 716
f 371 707 717
f 718 691 693
f 719 718 693
f 720 721 722
f 723 698 724
f 725 726 727
f 728 729 730
f 731 732 733
f 733 734 731
f 735 736 737
f 720 722 738
f 739 740 741
f 705 742 703
f 699 698 723
f 743 744 745
f 716 715 746
f 747 748 749
f 750 692 691
f 713 751 752
f 753 740 739
f 754 738 755
f 756 685 684
f 757 729 728
f 536 758 759
f 712 760 713
f 429 761 762
f 762 763 764
f 765 766 767
f 695 715 696
f 767 768 765
f 769 770 331
f 771 772 773
f 752 751 774
f 775 776 777
f 778 779 780
f 738 722 755
f 761 775 762
f 727 726 781
f 782 783 730
f 784 785 786
f 743 745 787
f 507 788 489
f 789 790 791
f 724 702 723
f 777 792 775
f 435 712 714
f 793 794 795
f 796 797 798
f 567 799 800
f 801 802 803
f 710 741 711
f 804 779 778
f 749 748 805
f 383 806 807
f 808 809 690
f 786 734 784
f 705 704 758
f 810 706 388
f 807 806 811
f 737 812 735
f 752 774 813
f 696 716 501
f 763 814 764
f 815 692 750
f 694 813 695
f 773 772 816
f 758 704 759
f 817 744 743
f 686 818 684
f 819 820 821
f 822 823 824
f 741 825 739
f 710 826 825
f 747 827 828
f 813 774 829
f 783 830 730
f 769 831 770
f 499 710 484
f 832 783 782
f 800 799 833
f 388 706 384
f 710 825 741
f 834 685 756
f 835 785 336
f 836 835 333
f 837 702 724
f 838 802 801
f 839 814 763
f 840 808 690
f 841 842 843
f 763 792 839
f 844 813 694
f 788 845 489
f 384 706 371
f 846 814 839
f 847 814 846
f 798 797 848
f 736 849 737
f 820 850 851
f 753 776 740
f 846 852 853
f 854 855 856
f 857 785 835
f 858 685 834
f 859 855 860
f 861 837 724
f 862 863 864
f 865 842 749
f 725 866 726
f 867 868 869
f 331 770 330
f 870 820 871
f 791 872 789
f 786 785 857
f 864 873 703
f 746 874 716
f 875 876 326
f 869 877 878
f 851 879 820
f 818 688 684
f 468 880 507
f 703 873 704
f 795 794 881
f 882 883 884
f 819 850 820
f 568 885 603
f 886 887 888
f 880 788 507
f 784 734 733
f 885 889 603
f 890 891 892
f 877 893 878
f 723 772 771
f 828 827 894
f 770 895 330
f 896 897 854
f 898 891 890
f 838 801 899
f 884 900 882
f 843 826 841
f 761 776 775
f 869 878 867
f 740 776 761
f 901 751 713
f 859 860 902
f 83 886 888
f 754 824 359
f 903 837 904
f 905 805 906
f 907 864 703
f 821 820 870
f 750 908 815
f 795 909 793
f 856 855 859
f 910 709 911
f 870 871 912
f 717 913 914
f 915 789 819
f 733 732 886
f 911 709 699
f 916 790 789
f 917 918 919
f 713 760 901
f 780 920 921
f 921 920 922
f 791 790 923
f 836 924 835
f 925 807 811
f 686 685 926
f 824 927 822
f 923 790 928
f 929 746 930
f 931 815 875
f 855 852 846
f 932 933 889
f 483 696 501
f 934 935 936
f 587 937 499
f 869 868 938
f 868 794 938
f 337 738 754
f 939 848 923
f 940 941 942
f 925 943 807
f 944 903 904
f 945 946 947
f 824 823 836
f 947 946 948
f 557 758 536
f 779 949 780
f 327 931 875
f 11 720 738
f 863 950 864
f 454 761 429
f 693 951 719
f 890 923 928
f 891 952 892
f 890 939 923
f 904 837 861
f 953 863 862
f 931 692 815
f 385 954 931
f 932 889 885
f 955 695 829
f 956 957 958
f 591 799 567
f 862 864 907
f 858 834 726
f 898 890 928
f 959 929 960
f 961 839 962
f 907 703 963
f 940 926 858
f 686 926 964
f 965 843 966
f 842 967 749
f 968 969 970
f 820 879 871
f 938 794 793
f 914 971 717
f 434 712 435
f 972 940 942
f 973 974 975
f 929 874 746
f 976 977 978
f 747 967 827
f 915 819 821
f 489 845 979
f 980 981 953
f 554 894 982
f 975 974 983
f 916 789 915
f 878 700 903
f 334 824 836
f 981 863 953
f 447 844 694
f 684 688 687
f 984 891 898
f 832 985 986
f 804 828 894
f 714 752 844
f 959 742 929
f 969 897 970
f 702 701 772
f 987 866 725
f 935 744 936
f 902 860 961
f 941 988 942
f 945 947 987
f 937 710 499
f 860 846 839
f 898 928 989
f 990 991 992
f 993 901 994
f 784 733 339
f 724 698 995
f 804 894 561
f 759 873 799
f 714 844 461
f 777 753 996
f 992 883 882
f 777 776 753
f 962 777 997
f 936 744 817
f 466 832 986
f 875 998 876
f 999 918 888
f 958 957 1000
f 789 1001 819
f 896 854 856
f 764 847 1002
f 337 754 359
f 334 836 333
f 327 875 326
f 382 769 331
f 335 784 339
f 329 1003 328
f 703 742 963
f 1004 695 955
f 795 975 983
f 940 858 941
f 970 897 896
f 744 1005 745
f 733 886 338
f 566 976 978
f 912 871 980
f 899 801 968
f 865 749 1006
f 961 962 1007
f 775 792 763
f 1008 693 954
f 762 764 486
f 887 999 888
f 976 1009 977
f 980 953 1010
f 726 834 781
f 1011 838 1012
f 746 1004 930
f 1013 818 1014
f 1015 1016 1017
f 884 720 13
f 1018 895 770
f 903 700 837
f 887 737 999
f 1017 1019 1020
f 338 886 83
f 922 920 1021
f 929 930 960
f 1008 954 350
f 917 809 808
f 467 764 1002
f 905 1022 805
f 333 835 336
f 1023 1024 1025
f 1026 926 940
f 702 772 723
f 542 779 804
f 839 792 962
f 11 738 337
f 1027 867 944
f 972 942 934
f 955 829 1028
f 894 827 982
f 862 907 1029
f 907 963 1030
f 505 783 832
f 919 918 999
f 840 690 1013
f 912 980 1031
f 899 968 727
f 984 898 1032
f 858 726 941
f 385 931 327
f 886 732 887
f 799 873 950
f 1027 868 867
f 867 903 944
f 978 779 541
f 961 860 839
f 1026 940 972
f 717 707 913
f 1021 891 984
f 920 952 891
f 799 950 833
f 953 862 1033
f 359 824 334
f 352 918 917
f 902 961 1034
f 83 888 353
f 349 1035 348
f 354 884 13
f 351 1008 350
f 602 798 976
f 693 692 954
f 1011 768 838
f 942 935 934
f 1036 790 916
f 1037 686 964
f 1038 795 881
f 817 743 1039
f 861 724 995
f 1037 818 686
f 743 1016 1039
f 935 1005 744
f 991 1040 992
f 1041 1042 1043
f 1044 1045 1024
f 588 716 1046
f 843 842 966
f 1036 916 1047
f 968 801 969
f 980 871 981
f 928 790 1036
f 362 1023 1025
f 988 987 1005
f 968 970 1048
f 753 739 1049
f 979 783 490
f 838 899 1012
f 796 798 593
f 754 927 824
f 1050 698 697
f 749 967 747
f 1035 1023 348
f 339 733 338
f 13 720 11
f 787 948 1051
f 739 825 965
f 1052 1053 876
f 350 954 385
f 990 992 882
f 1054 840 1013
f 1055 1056 973
f 963 959 1057
f 848 791 923
f 890 892 939
f 966 842 865
f 1023 1058 1024
f 964 926 1026
f 928 1036 989
f 985 1059 986
f 829 1041 1028
f 916 915 1060
f 782 730 803
f 995 698 1050
f 1061 1062 687
f 980 1010 1031
f 1042 993 1063
f 1004 715 695
f 898 989 1032
f 1064 768 767
f 1065 1061 689
f 1020 1019 707
f 970 896 1066
f 1067 868 1027
f 382 876 769
f 851 850 932
f 700 702 837
f 1062 1068 1069
f 709 1070 697
f 1054 1013 1014
f 1055 973 1071
f 1050 697 1072
f 1015 1017 1073
f 881 794 1067
f 1062 756 684
f 853 1074 880
f 1021 920 891
f 739 965 1075
f 878 903 867
f 1014 818 1037
f 1039 1016 1015
f 1076 840 1054
f 1077 1056 1055
f 915 821 1078
f 961 1007 1034
f 354 900 884
f 777 996 997
f 962 997 1007
f 993 994 1079
f 1024 1045 1025
f 326 876 382
f 737 1065 999
f 888 918 353
f 1080 1045 1056
f 731 1081 732
f 775 763 762
f 897 1082 854
f 994 765 1083
f 854 852 855
f 896 856 1084
f 1059 766 901
f 756 1085 834
f 348 1023 362
f 821 870 1086
f 561 894 554
f 993 751 901
f 461 844 447
f 987 947 1005
f 968 1048 727
f 872 1001 789
f 953 1033 1010
f 954 692 931
f 765 1011 1087
f 383 807 349
f 716 874 1046
f 978 949 779
f 922 1021 1088
f 1051 957 956
f 690 688 1013
f 352 917 357
f 362 1025 372
f 367 1089 355
f 371 717 370
f 767 1059 985
f 1070 1090 1091
f 847 846 853
f 1034 718 1092
f 907 1030 1029
f 959 960 822
f 742 1093 929
f 349 807 1035
f 856 859 1000
f 887 812 737
f 787 745 948
f 603 1094 592
f 353 918 352
f 988 935 942
f 741 740 711
f 1091 1090 1089
f 778 780 921
f 965 966 1095
f 829 774 1041
f 753 1049 996
f 1038 975 795
f 862 1029 1033
f 916 1060 1047
f 566 978 541
f 466 986 434
f 467 1002 468
f 567 800 568
f 870 912 816
f 749 805 1006
f 351 971 1008
f 1042 1063 1043
f 1032 1096 1097
f 1061 687 689
f 832 782 985
f 752 813 844
f 1035 1058 1023
f 1098 719 1099
f 1011 1012 1100
f 807 943 1035
f 1062 684 687
f 1101 1102 1088
f 1021 984 1101
f 970 1066 1048
f 1103 991 990
f 963 1057 1030
f 966 865 1104
f 726 866 941
f 915 1078 1060
f 505 832 466
f 990 882 910
f 912 1031 773
f 1002 880 468
f 725 1105 987
f 1103 990 911
f 429 762 486
f 536 759 591
f 542 804 561
f 435 714 461
f 896 1084 1066
f 859 902 958
f 865 1006 1018
f 988 866 987
f 1106 1107 1108
f 1109 1110 1111
f 994 766 765
f 800 885 568
f 1092 718 1098
f 988 1005 935
f 821 1086 1078
f 1067 794 868
f 602 976 566
f 1041 1043 1112
f 699 723 771
f 690 809 689
f 993 1079 1063
f 1065 849 1061
f 1113 1051 956
f 899 727 781
f 1114 787 1051
f 984 1032 1097
f 767 766 1059
f 841 967 842
f 486 764 467
f 902 1034 1092
f 1089 900 355
f 870 816 1086
f 994 1083 1079
f 554 982 587
f 447 694 483
f 484 711 454
f 588 1046 557
f 1111 1102 1101
f 1065 689 919
f 330 895 329
f 973 975 1071
f 889 1094 603
f 719 914 1099
f 357 808 365
f 372 1080 397
f 1097 1096 1106
f 765 1087 1083
f 1036 1047 1115
f 1021 1101 1088
f 328 806 383
f 1011 1100 1087
f 541 779 542
f 856 1000 1084
f 739 1075 1049
f 764 814 847
f 1010 991 1031
f 876 1053 769
f 695 813 829
f 1065 919 999
f 815 998 875
f 1116 925 811
f 1002 847 853
f 798 1009 976
f 990 910 911
f 859 958 1000
f 912 773 816
f 490 783 505
f 1117 869 938
f 1031 1103 773
f 926 685 858
f 711 740 761
f 593 798 602
f 592 796 593
f 489 979 490
f 1004 955 1118
f 1107 983 1108
f 955 1028 1119
f 1120 747 828
f 948 957 1051
f 914 913 1099
f 804 778 828
f 714 713 752
f 919 809 917
f 1113 1114 1051
f 965 1095 1075
f 1098 718 719
f 848 797 791
f 1121 849 736
f 1058 1122 1110
f 959 822 1057
f 902 1092 958
f 336 785 335
f 1017 1020 1073
f 759 799 591
f 984 1097 1101
f 1098 1099 1113
f 1031 991 1103
f 1123 906 1124
f 717 971 370
f 938 793 1125
f 1061 1068 1062
f 722 721 1126
f 899 781 1012
f 932 850 933
f 1041 1112 1028
f 367 1091 1089
f 897 757 1127
f 1108 1044 1109
f 1029 1126 1033
f 1103 771 773
f 1097 1111 1101
f 1128 932 885
f 1106 1108 1109
f 1106 1109 1111
f 1116 905 906
f 911 699 771
f 1106 1096 1107
f 880 1074 788
f 884 883 720
f 1103 911 771
f 1074 1127 788
f 1092 956 958
f 922 1088 1123
f 865 1018 1104
f 1097 1106 1111
f 997 750 1007
f 1117 1125 1115
f 1098 1113 956
f 1048 725 727
f 1036 1115 989
f 1092 1098 956
f 1087 1121 1083
f 1084 945 1066
f 797 1129 872
f 1116 1130 925
f 782 803 1064
f 917 808 357
f 1025 1080 372
f 1117 877 869
f 878 1131 700
f 1110 1102 1111
f 1086 708 1078
f 1060 877 1047
f 1079 735 1063
f 986 712 434
f 872 1129 933
f 966 1104 1095
f 1123 1116 906
f 1117 938 1125
f 1043 731 1112
f 1127 1082 897
f 1004 1118 930
f 1047 1117 1115
f 1070 1132 697
f 755 927 754
f 800 833 1128
f 986 1059 712
f 987 1105 945
f 1064 767 985
f 697 1132 1072
f 1116 811 905
f 922 1123 1124
f 501 716 588
f 848 1009 798
f 921 922 1124
f 778 921 1120
f 913 1133 1099
f 730 830 728
f 694 696 483
f 1134 998 815
f 933 1129 889
f 800 1128 885
f 1099 1133 1113
f 982 937 587
f 1028 786 1119
f 396 1135 1077
f 391 1136 1076
f 782 1064 985
f 963 742 959
f 397 1135 396
f 365 1136 391
f 1113 1133 1114
f 1003 806 328
f 1045 1137 1056
f 355 900 354
f 971 951 1008
f 981 1138 863
f 1057 755 1030
f 1047 877 1117
f 989 1139 1032
f 827 967 841
f 955 1119 1118
f 778 1120 828
f 1075 1052 1049
f 983 909 795
f 855 846 860
f 811 1140 905
f 1034 691 718
f 1128 851 932
f 1007 691 1034
f 1046 874 705
f 906 748 1124
f 1010 1040 991
f 921 1124 1120
f 1032 1139 1096
f 1002 853 880
f 329 895 1003
f 1018 770 1104
f 1078 893 1060
f 1112 786 1028
f 797 872 791
f 1025 1045 1080
f 768 802 838
f 1119 1141 1118
f 1069 1142 1062
f 1033 1040 1010
f 1063 1081 1043
f 1008 951 693
f 929 1093 874
f 787 1143 743
f 765 768 1011
f 1119 857 1141
f 1115 1139 989
f 1043 1081 731
f 1125 1139 1115
f 1100 1069 1087
f 876 998 1052
f 1083 736 1079
f 750 691 1007
f 892 949 977
f 982 827 841
f 1123 1130 1116
f 1126 1040 1033
f 857 835 1141
f 369 1091 367
f 1121 736 1083
f 737 849 1065
f 806 1140 811
f 1087 1069 1121
f 1088 1130 1123
f 1144 1145 392
f 930 1146 960
f 969 729 757
f 1041 774 1042
f 708 893 1078
f 1102 1130 1088
f 1119 786 857
f 689 809 919
f 1060 893 877
f 1079 736 735
f 983 974 1108
f 745 947 948
f 392 1145 369
f 735 1081 1063
f 772 701 816
f 1046 758 557
f 774 751 1042
f 711 761 454
f 1058 1147 1024
f 1024 1147 1044
f 709 1090 1070
f 720 883 721
f 833 1148 1128
f 370 971 351
f 730 729 803
f 977 1009 939
f 805 748 906
f 939 1009 848
f 841 826 937
f 1005 947 745
f 1110 1147 1058
f 1118 1146 930
f 948 946 957
f 803 729 801
f 965 825 843
f 853 852 1074
f 957 946 1000
f 1146 823 960
f 1000 946 1084
f 1091 1145 1070
f 1046 705 758
f 1071 975 1038
f 1126 1149 722
f 1049 1134 996
f 1139 1150 1096
f 707 1019 913
f 1128 1148 851
f 969 757 897
f 910 1090 709
f 1016 1151 1017
f 1013 688 818
f 960 823 822
f 1120 748 747
f 1148 1138 981
f 982 841 937
f 700 1131 708
f 892 952 949
f 1012 1152 1100
f 722 1149 755
f 816 701 1086
f 1125 1150 1139
f 796 1129 797
f 1108 974 1044
f 1044 1147 1109
f 1052 1134 1049
f 793 1150 1125
f 1130 1122 925
f 335 785 784
f 746 715 1004
f 1057 927 755
f 962 792 777
f 822 927 1057
f 1073 1020 810
f 1141 1146 1118
f 1048 1105 725
f 945 1105 1066
f 1124 748 1120
f 997 908 750
f 1075 1053 1052
f 1056 1137 973
f 892 977 939
f 1095 1053 1075
f 979 830 783
f 1029 1149 1126
f 901 760 1059
f 1100 1142 1069
f 1084 946 945
f 793 909 1150
f 1062 1142 756
f 1058 943 1122
f 1081 812 732
f 1112 734 786
f 941 866 988
f 732 812 887
f 1042 751 993
f 914 951 971
f 1150 909 1107
f 743 1143 1016
f 1145 1132 1070
f 1102 1122 1130
f 780 952 920
f 1020 706 810
f 849 1068 1061
f 893 1131 878
f 755 1149 1030
f 1085 1142 1100
f 852 1082 1074
f 770 831 1104
f 801 729 969
f 805 1022 1006
f 901 766 994
f 835 924 1141
f 731 734 1112
f 1096 1150 1107
f 871 879 981
f 1129 1094 889
f 825 826 843
f 1006 1153 1018
f 1044 1137 1045
f 1100 1152 1085
f 1107 909 983
f 834 1152 781
f 913 1019 1133
f 1134 908 996
f 1076 1136 840
f 1077 1135 1056
f 815 908 1134
f 950 873 864
f 1127 845 788
f 1089 1154 900
f 1022 1140 1153
f 1066 1105 1048
f 1110 1122 1102
f 1133 1151 1114
f 1086 701 708
f 719 951 914
f 704 873 759
f 950 1138 833
f 1146 924 823
f 1059 760 712
f 1080 1135 397
f 808 1136 365
f 1035 943 1058
f 735 812 1081
f 933 1001 872
f 996 908 997
f 1095 831 1053
f 854 1082 852
f 1153 1140 1003
f 1018 1153 895
f 1040 1155 992
f 1019 1151 1133
f 1072 1132 1144
f 1151 1143 1114
f 1121 1068 849
f 974 1137 1044
f 882 1154 910
f 1064 802 768
f 757 728 1127
f 863 1138 950
f 1104 831 1095
f 850 1001 933
f 1016 1143 1151
f 705 1093 742
f 1109 1147 1110
f 977 949 978
f 1056 1135 1080
f 840 1136 808
f 721 1155 1126
f 728 830 979
f 1114 1143 787
f 1017 1151 1019
f 900 1154 882
f 819 1001 850
f 1030 1149 1029
f 910 1154 1090
f 756 1142 1085
f 1126 1155 1040
f 1074 1082 1127
f 781 1152 1012
f 937 826 710
f 981 879 1148
f 1053 831 769
f 1090 1154 1089
f 895 1153 1003
f 803 802 1064
f 874 1093 705
f 796 1094 1129
f 592 1094 796
f 369 1145 1091
f 707 706 1020
f 1148 879 851
f 1003 1140 806
f 1141 924 1146
f 1069 1068 1121
f 728 845 1127
f 979 845 728
f 823 924 836
f 1122 943 925
f 833 1138 1148
f 1052 998 1134
f 1085 1152 834
f 708 1131 893
f 949 952 780
f 973 1137 974
f 1006 1022 1153
f 883 1155 721
f 992 1155 883
f 1144 1132 1145
f 905 1140 1022
f 1156 1157 1158
f 1157 1159 1158
f 1160 1159 1161
f 1162 1163 1164
f 1164 1163 1165
f 1166 1167 1168
f 1161 1159 1169
f 1170 1166 1168
f 1171 1172 1173
f 1170 1174 1175
f 1168 1174 1170
f 1176 1177 1166
f 1178 1179 1180
f 1178 1181 1179
f 1182 1172 1171
f 1166 1177 1183
f 1158 1184 1156
f 1185 1186 1171
f 1169 1159 1157
f 1171 1187 1185
f 1173 1172 1188
f 1180 1189 1178
f 1164 1160 1190
f 1160 1161 1190
f 1191 1192 1193
f 1176 1193 1194
f 1193 1192 1194
f 1195 1176 1194
f 1196 1177 1176
f 1197 1178 1198
f 1199 1198 1200
f 1197 1198 1199
f 1200 1198 1201
f 1202 1192 1203
f 1203 1192 1191
f 1204 1192 1202
f 1205 1164 1165
f 1205 1165 1206
f 1205 1206 1207
f 1207 1206 1208
f 1206 1165 1209
f 1210 1206 1209
f 1211 1158 1212
f 1026 1213 964
f 1054 1182 1076
f 810 1183 1073
f 263 1168 388
f 222 1169 266
f 1037 1214 1014
f 197 1215 226
f 207 1216 249
f 1039 1217 817
f 391 1185 380
f 202 1190 227
f 934 1180 972
f 160 1156 189
f 243 1162 234
f 1203 1191 1218
f 1219 1158 1211
f 1203 1218 1219
f 1212 1205 1207
f 1203 1219 1211
f 1188 1197 1199
f 1173 1188 1199
f 1202 1203 1211
f 1211 1212 1207
f 1210 1209 1173
f 1210 1173 1199
f 1202 1211 1207
f 1210 1199 1200
f 1208 1206 1210
f 1202 1207 1208
f 1208 1210 1200
f 1204 1202 1208
f 1204 1208 1200
f 1204 1200 1201
f 1194 1192 1204
f 1194 1204 1201
f 1198 1178 1220
f 1201 1198 1220
f 1195 1194 1201
f 1195 1201 1220
f 1195 1220 1221
f 1196 1176 1195
f 1196 1195 1221
f 1205 1160 1164
f 1209 1171 1173
f 1176 1166 1193
f 1196 1221 1217
f 1212 1160 1205
f 1222 1184 1216
f 1223 1224 1216
f 1217 1225 817
f 817 1225 936
f 1184 1223 1216
f 1178 1189 1220
f 1193 1170 1191
f 1183 1167 1166
f 1190 1226 1164
f 1191 1175 1218
f 1216 1224 1227
f 1189 1225 1221
f 1165 1187 1209
f 1164 1226 1162
f 1193 1166 1170
f 1171 1186 1182
f 1220 1189 1221
f 1212 1159 1160
f 1219 1184 1158
f 1214 1228 1188
f 1221 1225 1217
f 1188 1172 1214
f 1175 1174 1215
f 1229 1196 1217
f 1163 1187 1165
f 1188 1228 1197
f 1229 1177 1196
f 1170 1175 1191
f 1015 1229 1039
f 227 1161 222
f 1026 1179 1213
f 1039 1229 1217
f 1168 1167 388
f 189 1222 207
f 388 1167 810
f 249 1227 197
f 234 1226 202
f 197 1227 1215
f 1216 1227 249
f 1169 1157 266
f 972 1179 1026
f 1215 1174 226
f 1182 1186 1076
f 810 1167 1183
f 1076 1186 391
f 1180 1179 972
f 207 1222 1216
f 1156 1222 189
f 222 1161 1169
f 263 1174 1168
f 266 1157 160
f 1190 1161 227
f 160 1157 1156
f 391 1186 1185
f 226 1174 263
f 202 1226 1190
f 1162 1226 234
f 1189 1230 1225
f 936 1230 934
f 1158 1159 1212
f 1185 1231 380
f 243 1231 1162
f 1213 1181 1228
f 1228 1181 1197
f 1037 1232 1214
f 1213 1232 964
f 1054 1233 1182
f 1214 1233 1014
f 1183 1234 1073
f 1175 1224 1218
f 934 1230 1180
f 380 1231 243
f 1218 1223 1219
f 964 1232 1037
f 1185 1187 1163
f 1014 1233 1054
f 1197 1181 1178
f 1209 1187 1171
f 1225 1230 936
f 1163 1231 1185
f 1162 1231 1163
f 1073 1234 1015
f 1180 1230 1189
f 1214 1232 1228
f 1177 1234 1183
f 1182 1233 1172
f 1172 1233 1214
f 1228 1232 1213
f 1179 1181 1213
f 1229 1234 1177
f 1218 1224 1223
f 1215 1224 1175
f 1015 1234 1229
f 1156 1184 1222
f 1219 1223 1184
f 1227 1224 1215
f 1235 1236 1237
f 1236 1238 1237
f 1239 1238 1240
f 1241 1242 1243
f 1243 1242 1244
f 1245 1246 1247
f 1240 1238 1248
f 1249 1245 1247
f 1250 1251 1252
f 1249 1253 1254
f 1247 1253 1249
f 1255 1256 1245
f 1257 1258 1259
f 1257 1260 1258
f 1261 1251 1250
f 1245 1256 1262
f 1237 1263 1235
f 1264 1265 1250
f 1248 1238 1236
f 1250 1266 1264
f 1252 1251 1267
f 1259 1268 1257
f 1243 1239 1269
f 1239 1240 1269
f 1270 1271 1272
f 1255 1272 1273
f 1272 1271 1273
f 1274 1255 1273
f 1275 1256 1255
f 1276 1257 1277
f 1278 1277 1279
f 1276 1277 1278
f 1279 1277 1280
f 1281 1271 1282
f 1282 1271 1270
f 1283 1271 1281
f 1284 1243 1244
f 1284 1244 1285
f 1284 1285 1286
f 1286 1285 1287
f 1285 1244 1288
f 1289 1285 1288
f 1290 1237 1291
f 177 1292 187
f 242 1261 379
f 34 1262 32
f 1077 1247 396
f 392 1264 1144
f 904 1248 944
f 199 1293 235
f 1071 1294 1055
f 881 1295 1038
f 92 1296 65
f 66 1259 166
f 995 1269 861
f 1027 1235 1067
f 1072 1241 1050
f 1282 1270 1297
f 1298 1237 1290
f 1282 1297 1298
f 1267 1276 1278
f 1282 1298 1290
f 1291 1284 1286
f 1290 1291 1286
f 1252 1267 1278
f 1281 1282 1290
f 1289 1288 1252
f 1281 1290 1286
f 1289 1252 1278
f 1281 1286 1287
f 1287 1285 1289
f 1289 1278 1279
f 1283 1281 1287
f 1287 1289 1279
f 1283 1287 1279
f 1283 1279 1280
f 1273 1271 1283
f 1277 1257 1299
f 1273 1283 1280
f 1274 1273 1280
f 1280 1277 1299
f 1274 1280 1299
f 1275 1255 1274
f 1274 1299 1300
f 1275 1274 1300
f 1284 1239 1243
f 1288 1250 1252
f 1255 1245 1272
f 1275 1300 1296
f 1291 1239 1284
f 1301 1263 1295
f 1302 1303 1295
f 1296 1304 65
f 65 1304 68
f 1263 1302 1295
f 1257 1268 1299
f 1272 1249 1270
f 1262 1246 1245
f 1269 1305 1243
f 1270 1254 1297
f 1295 1303 1306
f 1268 1304 1300
f 1244 1266 1288
f 1243 1305 1241
f 1272 1245 1249
f 1250 1265 1261
f 1299 1268 1300
f 1291 1238 1239
f 1298 1263 1237
f 1293 1307 1267
f 1300 1304 1296
f 1267 1251 1293
f 1254 1253 1294
f 1308 1275 1296
f 1242 1266 1244
f 1267 1307 1276
f 1308 1256 1275
f 1249 1254 1270
f 93 1308 92
f 861 1240 904
f 177 1258 1292
f 92 1308 1296
f 1067 1301 881
f 1038 1306 1071
f 1261 1265 379
f 1071 1306 1294
f 1295 1306 1038
f 1248 1236 944
f 1247 1246 396
f 379 1265 392
f 166 1258 177
f 1077 1253 1247
f 1294 1253 1055
f 396 1246 34
f 1259 1258 166
f 34 1246 1262
f 1055 1253 1077
f 904 1240 1248
f 1050 1305 995
f 881 1301 1295
f 1235 1301 1067
f 944 1236 1027
f 1269 1240 861
f 392 1265 1264
f 1027 1236 1235
f 995 1305 1269
f 1241 1305 1050
f 1268 1309 1304
f 68 1309 66
f 1237 1238 1291
f 1264 1310 1144
f 1072 1310 1241
f 1292 1260 1307
f 1307 1260 1276
f 199 1311 1293
f 1292 1311 187
f 242 1312 1261
f 1293 1312 235
f 1262 1313 32
f 1254 1303 1297
f 66 1309 1259
f 1144 1310 1072
f 1297 1302 1298
f 187 1311 199
f 1264 1266 1242
f 235 1312 242
f 1276 1260 1257
f 1288 1266 1250
f 1304 1309 68
f 1242 1310 1264
f 1241 1310 1242
f 32 1313 93
f 1259 1309 1268
f 1293 1311 1307
f 1256 1313 1262
f 1261 1312 1251
f 1251 1312 1293
f 1307 1311 1292
f 1258 1260 1292
f 1308 1313 1256
f 1297 1303 1302
f 1294 1303 1254
f 93 1313 1308
f 1235 1263 1301
f 1298 1302 1263
f 1306 1303 1294
