v -1.04615507 -4.56254602 0.50000000
v -0.28846256 -4.12509205 0.50000000
v -0.46493213 -4.63551141 0.50000000
v -0.03589838 -5.00000000 0.50000000
v -0.91987298 -5.00000000 0.50000000
v 2.08320313 -3.60629822 0.50000000
v 1.98461498 -2.81273012 0.50000000
v 2.77551482 -3.14214673 0.50000000
v 2.84296333 -3.88629816 0.50000000
v 0.46922996 -3.68763807 0.50000000
v 1.22692247 -3.25018410 0.50000000
v 1.29006351 -4.23445554 0.50000000
v 1.73205081 -5.00000000 0.50000000
v 2.24828712 -4.36519513 0.50000000
v 3.50000000 -1.93782217 0.50000000
v 3.50000000 -2.70336663 0.50000000
v 2.74230749 -2.37527615 0.50000000
v 0.30301277 -4.44711618 0.50000000
v 0.84807621 -5.00000000 0.50000000
v 3.50000000 -3.46891109 0.50000000
v 3.50000000 -4.23445554 0.50000000
v 2.61602540 -5.00000000 0.50000000
v 3.50000000 -5.00000000 0.50000000
v 2.92541651 -4.46411888 0.50000000
v -1.80384758 -5.00000000 0.50000000
v -1.04615507 -4.56254602 -0.50000000
v -0.46493213 -4.63551141 -0.50000000
v -0.28846256 -4.12509205 -0.50000000
v -0.03589838 -5.00000000 -0.50000000
v -0.91987298 -5.00000000 -0.50000000
v 2.08320313 -3.60629822 -0.50000000
v 2.77551482 -3.14214673 -0.50000000
v 1.98461498 -2.81273012 -0.50000000
v 2.84296333 -3.88629816 -0.50000000
v 0.46922996 -3.68763807 -0.50000000
v 1.29006351 -4.23445554 -0.50000000
v 1.22692247 -3.25018410 -0.50000000
v 1.73205081 -5.00000000 -0.50000000
v 2.24828712 -4.36519513 -0.50000000
v 2.74230749 -2.37527615 -0.50000000
v 3.50000000 -2.70336663 -0.50000000
v 3.50000000 -1.93782217 -0.50000000
v 0.30301277 -4.44711618 -0.50000000
v 0.84807621 -5.00000000 -0.50000000
v 3.50000000 -3.46891109 -0.50000000
v 3.50000000 -4.23445554 -0.50000000
v 2.61602540 -5.00000000 -0.50000000
v 3.50000000 -5.00000000 -0.50000000
v 2.92541651 -4.46411888 -0.50000000
v -1.80384758 -5.00000000 -0.50000000
v -1.36977592 -4.74938861 -0.00000000
v 3.06592834 -2.18843356 0.00000000
v 1.60576872 -3.03145711 -0.00000000
v 2.36346123 -2.59400314 0.00000000
v 0.84807621 -3.46891109 -0.00000000
v 0.09038370 -3.90636506 -0.00000000
v -0.66730881 -4.34381904 -0.00000000
v 3.50000000 2.00000000 0.66116736
v 3.50000000 1.16837302 -0.00117921
v 3.50000000 1.71050848 -0.53100855
v 3.50000000 2.89711432 -1.59529946
v 3.50000000 1.97833496 -1.38277164
v 3.50000000 2.19615242 -2.00000000
v 3.50000000 3.59807621 -1.19059892
v 3.50000000 2.57358493 -0.83983558
v 3.50000000 3.05081686 -0.31998310
v 3.50000000 0.77109741 -0.70028925
v 3.50000000 1.16991258 -1.33064067
v 3.50000000 -1.27484123 0.00000000
v 3.50000000 0.00000000 0.66116736
v 3.50000000 0.36025920 -0.09693296
v 3.50000000 1.00000000 0.66116736
v 3.50000000 3.73069087 -0.17775878
v 3.50000000 4.50495483 0.01957741
v 3.50000000 4.00000000 0.66116736
v 3.50000000 2.35173231 -0.05288959
v 3.50000000 -0.70425880 0.97077343
v 3.50000000 -0.62203597 1.51315090
v 3.50000000 -1.40592104 1.26439741
v 3.50000000 3.00000000 0.66116736
v 3.50000000 -3.00000000 2.00000000
v 3.50000000 -3.81796549 1.24747618
v 3.50000000 -3.06891109 1.06519238
v 3.50000000 -0.74131403 -0.62575241
v 3.50000000 -0.40054528 -0.03604772
v 3.50000000 -1.00000000 2.00000000
v 3.50000000 0.00000000 2.00000000
v 3.50000000 -4.00000000 2.00000000
v 3.50000000 -0.00168542 -0.72688909
v 3.50000000 4.29903811 -0.78589838
v 3.50000000 -0.75168344 0.42952574
v 3.50000000 -1.95991602 -2.76493459
v 3.50000000 -2.71257744 -2.99763986
v 3.50000000 -2.00000000 -3.83883264
v 3.50000000 -0.37222212 -1.34643326
v 3.50000000 -1.12364220 -1.34440858
v 3.50000000 -1.77827451 -1.34704490
v 3.50000000 -1.36549494 -0.78136932
v 3.50000000 -1.26172436 0.60973826
v 3.50000000 -2.32059440 1.16298095
v 3.50000000 -2.00000000 2.00000000
v 3.50000000 -3.75716417 -2.00672430
v 3.50000000 -4.34050177 -2.53090463
v 3.50000000 -3.60766445 -2.97478914
v 3.50000000 -2.44007491 -1.15932767
v 3.50000000 5.00000000 -0.38119785
v 3.50000000 -3.00000000 -3.83883264
v 3.50000000 -4.38641735 -1.68608779
v 3.50000000 -5.00000000 -2.16941632
v 3.50000000 -5.00000000 2.00000000
v 3.50000000 -4.46734945 1.54137387
v 3.50000000 -4.00000000 -3.83883264
v 3.50000000 -2.36088384 -2.03551195
v 3.50000000 -3.08080816 -2.30117946
v 3.50000000 -3.08771025 -1.60111103
v 3.50000000 -3.78363563 -1.16583150
v 3.50000000 0.36338219 -1.36977458
v 3.50000000 0.73205081 -2.00000000
v 3.50000000 0.00000000 -2.00000000
v 3.50000000 1.46410162 -2.00000000
v 3.50000000 -1.44708252 -3.29963481
v 3.50000000 -1.50993565 -2.04651419
v 3.50000000 -0.50250429 -2.54588094
v 3.50000000 0.00000000 -2.91941632
v 3.50000000 -0.74742621 -1.98473612
v 3.50000000 -5.00000000 -3.00412448
v 3.50000000 -4.38963324 -3.23749671
v 3.50000000 -5.00000000 -3.83883264
v 3.50000000 -1.11905364 -2.63683241
v 3.50000000 -3.09000214 -0.96345120
v 3.50000000 -5.00000000 -1.33470816
v 3.50000000 0.00000000 1.33058368
v 3.50000000 -4.48090171 -1.03732549
v 3.50000000 -4.46661932 1.03319388
v 3.50000000 -5.00000000 1.25000000
v 3.50000000 0.00000000 -3.83883264
v 3.50000000 -0.64604158 -3.18841983
v 3.50000000 -1.00000000 -3.83883264
v 3.50000000 5.00000000 0.13998476
v 3.50000000 5.00000000 0.66116736
v 1.50000000 2.19615242 -2.00000000
v 1.00938814 2.90928005 -1.58827557
v 2.05632884 2.92192619 -1.58097432
v -2.05632884 2.92192619 -1.58097432
v -1.00938814 2.90928005 -1.58827557
v -1.50000000 2.19615242 -2.00000000
v -2.50000000 2.19615242 -2.00000000
v 2.50000000 2.19615242 -2.00000000
v -0.50000000 2.19615242 -2.00000000
v 0.00000000 2.94615242 -1.56698730
v 0.50000000 2.19615242 -2.00000000
v 1.50000000 5.00000000 -0.38119785
v 1.00000000 4.25000000 -0.81421055
v 0.50000000 5.00000000 -0.38119785
v -0.00000000 4.25000000 -0.81421055
v -0.50000000 5.00000000 -0.38119785
v -1.00000000 4.25000000 -0.81421055
v -1.50000000 5.00000000 -0.38119785
v 2.50000000 5.00000000 -0.38119785
v 2.05728069 4.27054152 -0.80235090
v -2.05728069 4.27054152 -0.80235090
v -2.50000000 5.00000000 -0.38119785
v -3.50000000 3.59807621 -1.19059892
v -2.82621562 3.26863370 -1.38080265
v -3.50000000 2.89711432 -1.59529946
v 2.82621562 3.26863370 -1.38080265
v -3.50000000 4.29903811 -0.78589838
v -2.80570110 3.92447532 -1.00215231
v 2.80570110 3.92447532 -1.00215231
v -3.50000000 2.19615242 -2.00000000
v -2.87650889 2.69599581 -1.71141529
v 2.87650889 2.69599581 -1.71141529
v 2.87259636 4.49881099 -0.67055946
v -2.87259636 4.49881099 -0.67055946
v -3.50000000 5.00000000 -0.38119785
v 1.47259271 3.59131670 -1.19450153
v -1.47259271 3.59131670 -1.19450153
v -0.50000000 3.59807621 -1.19059892
v 0.50000000 3.59807621 -1.19059892
v -2.22840819 3.59669992 -1.19139352
v 2.22840819 3.59669992 -1.19139352
v -3.50000000 5.00000000 0.41253477
v -3.50000000 5.00000000 1.20626738
v -2.71039018 5.00000000 0.60690762
v -2.89037090 5.00000000 1.39844919
v 2.23038320 5.00000000 0.55666284
v 1.67852427 5.00000000 0.23615311
v -0.58633078 5.00000000 1.23841903
v 0.22306438 5.00000000 1.22558847
v -0.08589091 5.00000000 0.43523842
v 0.86253967 5.00000000 0.46554490
v -1.00000000 5.00000000 0.48482756
v -1.91537755 5.00000000 0.43597077
v -1.43642926 5.00000000 1.24115254
v -2.24573135 5.00000000 1.28769789
v 0.89535812 5.00000000 1.24654876
v 2.99944043 5.00000000 0.25992652
v 2.78221603 5.00000000 0.99587552
v 1.41567431 5.00000000 0.87631861
v 2.06443207 5.00000000 1.33058368
v -3.05259754 5.00000000 0.06426167
v -0.19690869 5.00000000 2.00000000
v 0.62886413 5.00000000 2.00000000
v -1.02268152 5.00000000 2.00000000
v -1.84845435 5.00000000 2.00000000
v -2.67422717 5.00000000 2.00000000
v 1.34664810 5.00000000 1.66529184
v -3.50000000 5.00000000 2.00000000
v -3.50000000 -0.67716354 -0.34303417
v -3.50000000 0.43307561 -0.46903226
v -3.50000000 -0.09619687 -1.22048871
v -3.50000000 0.00000000 2.00000000
v -3.50000000 0.71277072 1.02198171
v -3.50000000 -0.16524646 1.05314480
v -3.50000000 1.00000000 2.00000000
v -3.50000000 1.40338096 -0.45146470
v -3.50000000 1.06452453 0.30015035
v -3.50000000 0.88870276 -1.23262348
v -3.50000000 0.07754910 0.34250916
v -3.50000000 3.94777249 0.36467865
v -3.50000000 4.25800380 1.00405047
v -3.50000000 2.96466329 0.19966915
v -3.50000000 3.65366211 -0.39643316
v -3.50000000 2.94602403 -0.75288707
v -3.50000000 -0.98977220 -1.22729662
v -3.50000000 4.39814830 -0.14816120
v -3.50000000 2.24517192 -0.50798727
v -3.50000000 -3.18218057 2.08451156
v -3.50000000 -3.53539169 3.04447490
v -3.50000000 -2.58806193 2.99435243
v -3.50000000 -4.15019003 0.45455566
v -3.50000000 -4.15723710 1.40598571
v -3.50000000 -3.23846478 1.04399903
v -3.50000000 -3.26239729 0.10329789
v -3.50000000 -2.28498275 2.27451663
v -3.50000000 -1.87973336 -1.22647427
v -3.50000000 -2.75120237 -1.22099365
v -3.50000000 -2.38206320 -0.36422520
v -3.50000000 1.76617568 -1.20056559
v -3.50000000 -4.15723710 2.37912448
v -3.50000000 -4.11652346 -0.52058380
v -3.50000000 2.50877879 1.14550277
v -3.50000000 1.99996258 0.34792349
v -3.50000000 1.56096605 1.12186242
v -3.50000000 -3.23009822 -0.65290209
v -3.50000000 3.45239176 1.12776625
v -3.50000000 2.00000000 2.00000000
v -3.50000000 2.41012767 -1.21134788
v -3.50000000 -1.47146998 -0.58890967
v -3.50000000 -2.41178494 0.60150194
v -3.50000000 3.00000000 2.00000000
v -3.50000000 4.00000000 2.00000000
v -3.50000000 1.29663337 -2.00000000
v -3.50000000 4.56450095 1.55257946
v -3.50000000 -1.57070695 1.96843730
v -3.50000000 -1.55987004 2.98799102
v -3.50000000 -0.77442719 2.44011162
v -3.50000000 -0.82216142 0.60276525
v -3.50000000 -1.58069811 0.17239117
v -3.50000000 -5.00000000 0.91941632
v -3.50000000 -5.00000000 -0.05372245
v -3.50000000 -2.00000000 3.83883264
v -3.50000000 -3.00000000 3.83883264
v -3.50000000 0.39711432 -2.00000000
v -3.50000000 -5.00000000 1.89255509
v -3.50000000 -1.60449600 1.06737367
v -3.50000000 -0.79679827 1.53128549
v -3.50000000 -0.50240474 -2.00000000
v -3.50000000 -2.30144284 -2.00000000
v -3.50000000 -1.40192379 -2.00000000
v -3.50000000 -5.00000000 2.86569387
v -3.50000000 -3.20096189 -2.00000000
v -3.50000000 -4.10048095 -2.00000000
v -3.50000000 -3.63830481 -1.26200570
v -3.50000000 0.00000000 2.91941632
v -3.50000000 -1.00000000 3.83883264
v -3.50000000 -5.00000000 -1.02686123
v -3.50000000 -2.39402044 1.50121670
v -3.50000000 -4.00000000 3.83883264
v -3.50000000 -4.28487054 3.13119565
v -3.50000000 -5.00000000 3.83883264
v -3.50000000 -4.35550300 -1.33342538
v -3.50000000 -5.00000000 -2.00000000
v -3.50000000 0.00000000 3.83883264
v -3.50000000 -0.68196956 3.18120592
v -0.39362194 -2.49564492 2.39030476
v -1.19057605 -3.38499913 2.76193057
v -0.26167273 -3.57997701 2.32877584
v -1.25196294 -2.47037435 2.79055574
v -1.16045923 -1.56345911 2.74788687
v -0.25274529 -1.41043318 2.32461290
v -1.52830534 -4.24637626 2.91941632
v -0.76159181 -4.25981415 2.56189193
v -2.69435171 -3.52451774 3.46315267
v -2.72157739 -2.48628565 3.47584822
v -1.95238819 -2.91677614 3.11716940
v -1.94624447 -2.03860345 3.11430454
v -2.69628377 -1.45635190 3.46405361
v 0.44338933 -3.00000000 2.00000000
v 0.44338933 -2.00000000 2.00000000
v 0.44338933 -4.00000000 2.00000000
v 0.44338933 -1.00000000 2.00000000
v -1.13396640 -5.00000000 2.73553306
v -1.92264427 -5.00000000 3.10329958
v -2.28768944 -4.29884669 3.27352294
v -2.71132213 -5.00000000 3.47106611
v -0.34528854 -5.00000000 2.36776653
v -2.71132213 0.00000000 3.47106611
v -2.28874736 -0.68984575 3.27401626
v -1.92264427 0.00000000 3.10329958
v -1.53272081 -0.72836536 2.92147529
v -1.13396640 0.00000000 2.73553306
v -0.73962747 -0.75121959 2.55164979
v -0.34528854 0.00000000 2.36776653
v -2.93867266 -4.36467289 3.57708140
v -0.09635489 -4.36795823 2.25168686
v 0.44338933 -5.00000000 2.00000000
v -2.93927065 -0.62923953 3.57736025
v 0.44338933 0.00000000 2.00000000
v -0.10954174 -0.65227544 2.25783599
v -1.92489113 -1.29532511 3.10434731
v -1.93066215 -3.67430319 3.10703838
v -1.73816044 -5.00000000 2.39359161
v -2.59699037 -5.00000000 2.40350073
v -2.01146735 -5.00000000 1.52501795
v -2.82164944 -5.00000000 1.53754745
v -2.56939203 -5.00000000 0.00000000
v -2.69667422 -5.00000000 0.74399879
v -2.77470806 -5.00000000 -0.71970033
v 0.82546566 -5.00000000 1.33822438
v 1.58961833 -5.00000000 1.33822438
v 2.17403811 -5.00000000 -1.26554446
v 1.91926153 -5.00000000 -2.14818472
v 2.81344555 -5.00000000 -1.75206224
v 0.41023155 -5.00000000 -1.58228053
v 1.23870046 -5.00000000 -1.16434638
v 0.40608891 -5.00000000 -0.93922937
v 1.08877334 -5.00000000 -1.94163990
v 2.63547836 -5.00000000 -2.60416778
v -0.84430896 -5.00000000 -1.35714179
v -1.58961833 -5.00000000 -1.33822438
v 2.35377100 -5.00000000 1.33822438
v 1.62270516 -5.00000000 -1.63139091
v 2.71132213 -5.00000000 -3.47106611
v -2.28566779 -5.00000000 -1.32515664
v -1.34351780 -5.00000000 1.22986127
v -2.95924464 -5.00000000 -1.41434364
v -1.07943163 -5.00000000 1.86662578
v -0.44338933 -5.00000000 -2.00000000
v 0.34528854 -5.00000000 -2.36776653
v -0.27538671 -5.00000000 1.66151458
v 1.92264427 -5.00000000 -3.10329958
v 1.13396640 -5.00000000 -2.73553306
v 0.19104550 -5.00000000 1.16049914
v -0.23177371 -5.00000000 -1.12979009
v -0.65425532 -5.00000000 1.13558723
v 1.20754199 -5.00000000 2.00000000
v -1.20754199 -5.00000000 -2.00000000
v 1.97169466 -5.00000000 2.00000000
v 2.73584733 -5.00000000 2.00000000
v -1.97169466 -5.00000000 -2.00000000
v -2.73584733 -5.00000000 -2.00000000
v 2.94805862 -5.00000000 1.04830801
v 2.92070181 -5.00000000 -1.07046297
v 3.03907490 -5.00000000 1.55521891
v -2.07219136 -2.15995967 -2.00000000
v -1.27388198 -2.54451217 -2.00000000
v -2.01850378 -3.08652093 -2.00000000
v -2.81046054 -2.68411638 -2.00000000
v 2.15416104 0.65774865 -2.00000000
v 2.84005022 1.12543488 -2.00000000
v 2.90167278 0.50304687 -2.00000000
v 1.03538167 0.85376883 -2.00000000
v 2.00000000 1.60126278 -2.00000000
v 1.02655633 1.64503506 -2.00000000
v -2.86438324 -0.92405679 -2.00000000
v -2.09801211 -1.18379152 -2.00000000
v -2.83369581 -1.79753940 -2.00000000
v -1.29741415 -1.49651548 -2.00000000
v 2.51415267 0.00000000 -2.00000000
v 2.86801004 1.71662082 -2.00000000
v -1.32981715 0.44830612 -2.00000000
v -2.00000000 1.33012702 -2.00000000
v -0.96080555 1.38620289 -2.00000000
v -0.44338933 -2.00000000 -2.00000000
v -1.28086027 -0.55096714 -2.00000000
v -0.44338933 -3.00000000 -2.00000000
v -0.44338933 -4.00000000 -2.00000000
v -1.24884755 -3.61463277 -2.00000000
v 0.09740000 1.37783884 -2.00000000
v -0.44338933 -1.00000000 -2.00000000
v -0.44338933 0.00000000 -2.00000000
v -2.05822781 -0.29463329 -2.00000000
v -2.15572517 0.44798058 -2.00000000
v -2.79621571 -0.01578753 -2.00000000
v 1.52830534 0.00000000 -2.00000000
v 0.54245801 0.00000000 -2.00000000
v 0.16313268 0.61336644 -2.00000000
v -2.73394661 -3.68613302 -2.00000000
v -1.61295999 -4.36945032 -2.00000000
v -0.99122564 -4.39681662 -2.00000000
v -2.33192262 -4.36444894 -2.00000000
v -2.73958333 0.84687384 -2.00000000
v -2.96034331 -4.43021258 -2.00000000
v -2.84791667 1.57318782 -2.00000000
v -1.98923611 -3.82423720 -2.00000000
v -0.49155551 0.76794613 -2.00000000
v -1.75421985 2.17697488 2.00000000
v -0.96554245 2.90944393 2.00000000
v -1.79765483 2.99989778 2.00000000
v -0.93383761 1.89388570 2.00000000
v 1.22425681 -3.58271803 2.00000000
v 0.98398189 -4.38414578 2.00000000
v 1.60133202 -4.33801086 2.00000000
v 1.22322679 -1.48144150 2.00000000
v 1.98900012 -1.98505745 2.00000000
v 2.03075864 -0.84111362 2.00000000
v 2.35343446 -4.36079023 2.00000000
v 2.96227924 -4.38859270 2.00000000
v 2.72211440 -3.58217325 2.00000000
v 2.74718272 -1.49668143 2.00000000
v 1.18242966 -0.66451102 2.00000000
v 0.62886413 0.00000000 2.00000000
v 0.62886413 1.00000000 2.00000000
v -0.11904058 0.68077209 2.00000000
v -0.54245801 0.00000000 2.00000000
v 1.58590942 0.00000000 2.00000000
v -0.15511183 1.50181644 2.00000000
v -0.96988650 0.90204402 2.00000000
v 2.73595959 -2.51270153 2.00000000
v -2.64039258 2.50837905 2.00000000
v -2.64023236 3.55346151 2.00000000
v -1.56073249 1.40095905 2.00000000
v -2.52215247 1.51897959 2.00000000
v 0.62886413 3.00000000 2.00000000
v -0.21236666 3.55202539 2.00000000
v -0.23716127 2.50000000 2.00000000
v 0.62886413 4.00000000 2.00000000
v 1.30941473 -2.50000000 2.00000000
v 0.62886413 2.00000000 2.00000000
v -1.52830534 0.00000000 2.00000000
v -1.96912839 0.75640946 2.00000000
v -2.51415267 0.00000000 2.00000000
v -1.05470899 3.68870115 2.00000000
v -1.82525133 3.77281098 2.00000000
v -1.43556793 4.28485975 2.00000000
v -2.23012003 4.31990254 2.00000000
v -0.63792636 4.31936718 2.00000000
v -2.75916957 0.74439822 2.00000000
v 2.54295471 0.00000000 2.00000000
v -2.90891591 4.37467281 2.00000000
v 0.04210531 4.37427851 2.00000000
v 1.98913145 -2.98717441 2.00000000
v 2.81101611 -0.70142094 2.00000000
v 1.97401214 -3.75389257 2.00000000
v 2.87792056 0.00000000 1.53140858
v 2.06443207 0.00000000 1.33058368
v 2.78221603 0.00000000 0.99587552
v 1.34664810 0.00000000 1.66529184
v 2.41723250 0.67123880 1.16607013
v 2.99498622 0.61864725 0.89665915
v 2.77548259 1.42199747 0.99901538
v 2.77546991 3.57736668 0.99902129
v 2.99498369 4.38118078 0.89666033
v 2.41723250 4.32853723 1.16607013
v 1.35581101 1.42376638 1.66101911
v 1.13324787 0.61402556 1.76480200
v 1.70605198 0.64636140 1.49769906
v 1.70604987 4.35316905 1.49770004
v 1.13324491 4.38563064 1.76480338
v 1.35579833 3.57498414 1.66102502
v 1.34912910 2.49938108 1.66413493
v 2.74284265 2.49979047 1.01423563
v 2.05768387 2.01764991 1.33373041
v 2.05840582 2.97780086 1.33339376
v 2.06311722 3.74897769 1.33119680
v 2.06301801 1.24962006 1.33124306
v 2.71132213 0.00000000 -3.47106611
v 2.76942358 0.00000000 -2.71453214
v 1.13396640 0.00000000 -2.73553306
v 2.00885641 0.00000000 -2.46279198
v 1.92264427 0.00000000 -3.10329958
v 0.34528854 0.00000000 -2.36776653
v -2.76942358 0.00000000 2.71453214
v -2.00885641 0.00000000 2.46279198
v 0.26195676 -3.58079707 -2.32890828
v 0.39357374 -2.49643451 -2.39028229
v 1.19170154 -3.38640109 -2.76245539
v 1.25011736 -2.47339218 -2.78969514
v 1.16008121 -1.56522970 -2.74771059
v 0.25270759 -1.41129258 -2.32459532
v 2.69394509 -3.52431746 -3.46296307
v 1.52830534 -4.24637626 -2.91941632
v 0.76179339 -4.26021650 -2.56198593
v 2.71933763 -2.48372058 -3.47480380
v 2.69558511 -1.45546340 -3.46372782
v 1.94539726 -2.03895099 -3.11390948
v 1.95178164 -2.91741580 -3.11688656
v 2.28762167 -4.29890056 -3.27349134
v 1.53288675 -0.72851688 -2.92155267
v 2.28892085 -0.68954732 -3.27409716
v 0.73962747 -0.75362374 -2.55164979
v 2.93857778 -4.36464360 -3.57703716
v 2.93916562 -0.62900215 -3.57731127
v 0.09645201 -4.36820271 -2.25173215
v 0.10974176 -0.65246750 -2.25792926
v 1.92457423 -1.29554166 -3.10419954
v 1.93067106 -3.67468223 -3.10704254
f 1 2 3
f 4 5 3
f 6 7 8
f 9 6 8
f 10 11 12
f 13 12 14
f 12 11 6
f 15 16 17
f 12 6 14
f 7 17 8
f 10 12 18
f 11 7 6
f 13 19 12
f 3 2 18
f 5 1 3
f 4 3 18
f 20 21 9
f 17 16 8
f 16 20 8
f 12 19 18
f 22 13 14
f 23 22 24
f 20 9 8
f 21 23 24
f 6 9 14
f 2 10 18
f 19 4 18
f 9 21 24
f 14 9 24
f 22 14 24
f 5 25 1
f 26 27 28
f 29 27 30
f 31 32 33
f 34 32 31
f 35 36 37
f 38 39 36
f 36 31 37
f 40 41 42
f 36 39 31
f 33 32 40
f 35 43 36
f 37 31 33
f 38 36 44
f 27 43 28
f 30 27 26
f 29 43 27
f 45 34 46
f 40 32 41
f 41 32 45
f 36 43 44
f 47 39 38
f 48 49 47
f 45 32 34
f 46 49 48
f 31 39 34
f 28 43 35
f 44 43 29
f 34 49 46
f 39 49 34
f 47 49 39
f 30 26 50
f 50 51 25
f 15 52 42
f 7 53 54
f 54 53 33
f 11 55 53
f 2 56 10
f 1 57 2
f 40 54 33
f 10 55 11
f 11 53 7
f 56 55 10
f 25 51 1
f 42 52 40
f 33 53 37
f 53 55 37
f 26 51 50
f 28 57 26
f 7 54 17
f 35 56 28
f 57 56 2
f 26 57 51
f 17 52 15
f 37 55 35
f 35 55 56
f 28 56 57
f 51 57 1
f 17 54 52
f 52 54 40
f 58 59 60
f 61 62 63
f 64 65 61
f 64 66 65
f 67 68 60
f 42 69 15
f 70 71 72
f 73 74 75
f 61 65 62
f 60 76 58
f 77 78 79
f 80 73 75
f 81 82 83
f 60 68 62
f 69 84 85
f 73 66 64
f 80 66 73
f 86 78 87
f 70 85 71
f 88 82 81
f 72 59 58
f 71 85 89
f 85 84 89
f 79 78 86
f 90 74 73
f 85 91 69
f 92 93 94
f 60 59 67
f 95 84 96
f 42 97 98
f 70 91 85
f 79 99 77
f 89 84 95
f 81 100 101
f 102 103 104
f 105 97 42
f 77 99 91
f 106 74 90
f 94 93 107
f 103 108 109
f 110 111 88
f 81 83 100
f 107 104 112
f 65 60 62
f 113 93 92
f 101 79 86
f 77 91 70
f 71 59 72
f 114 93 113
f 105 115 113
f 116 102 115
f 117 89 95
f 118 117 119
f 69 98 84
f 117 95 119
f 104 114 102
f 42 98 69
f 118 68 117
f 67 71 89
f 102 108 103
f 120 68 118
f 94 121 92
f 122 113 92
f 117 67 89
f 46 116 45
f 41 105 42
f 119 123 124
f 100 79 101
f 90 73 64
f 63 62 120
f 95 96 125
f 117 68 67
f 126 103 109
f 62 68 120
f 113 97 105
f 95 125 119
f 96 122 125
f 112 127 128
f 122 92 129
f 16 83 20
f 20 82 21
f 15 100 16
f 58 76 80
f 69 99 15
f 107 93 104
f 122 129 125
f 115 130 116
f 122 97 113
f 15 79 100
f 109 108 131
f 76 66 80
f 103 127 104
f 67 59 71
f 104 127 112
f 132 77 70
f 105 130 115
f 84 98 96
f 131 133 48
f 21 134 23
f 23 134 135
f 128 127 126
f 136 137 138
f 116 130 45
f 41 130 105
f 115 114 113
f 48 133 46
f 83 82 20
f 100 83 16
f 102 114 115
f 65 76 60
f 124 137 136
f 116 108 102
f 139 74 106
f 98 97 96
f 138 121 94
f 15 99 79
f 129 123 125
f 45 130 41
f 104 93 114
f 87 78 132
f 96 97 122
f 137 123 129
f 46 133 116
f 135 111 110
f 132 78 77
f 121 137 129
f 88 111 82
f 92 121 129
f 126 127 103
f 82 134 21
f 138 137 121
f 111 134 82
f 125 123 119
f 124 123 137
f 65 66 76
f 116 133 108
f 91 99 69
f 108 133 131
f 135 134 111
f 140 74 139
f 75 74 140
f 141 142 143
f 144 145 146
f 147 144 146
f 141 143 148
f 149 145 150
f 146 145 149
f 151 142 141
f 150 142 151
f 152 153 154
f 154 155 156
f 153 155 154
f 156 157 158
f 156 155 157
f 149 150 151
f 159 160 152
f 158 161 162
f 152 160 153
f 157 161 158
f 163 164 165
f 61 166 64
f 167 168 163
f 64 169 90
f 170 171 147
f 148 172 63
f 160 173 169
f 168 174 161
f 162 174 175
f 106 173 159
f 159 173 160
f 161 174 162
f 142 176 143
f 144 177 145
f 177 178 145
f 157 178 177
f 142 179 176
f 176 179 153
f 145 178 150
f 150 179 142
f 178 179 150
f 155 178 157
f 155 179 178
f 153 179 155
f 157 177 161
f 160 176 153
f 64 166 169
f 168 164 163
f 143 172 148
f 147 171 144
f 63 172 61
f 165 171 170
f 175 174 167
f 90 173 106
f 161 180 168
f 169 181 160
f 166 172 143
f 144 171 164
f 177 180 161
f 160 181 176
f 143 181 166
f 164 180 144
f 176 181 143
f 144 180 177
f 164 171 165
f 61 172 166
f 169 173 90
f 167 174 168
f 166 181 169
f 168 180 164
f 182 183 184
f 184 183 185
f 186 159 187
f 188 189 190
f 190 189 191
f 192 188 190
f 193 162 184
f 156 158 192
f 194 192 193
f 152 154 191
f 195 194 193
f 191 189 196
f 197 159 186
f 198 140 197
f 152 191 187
f 154 156 190
f 199 200 186
f 158 162 193
f 162 175 201
f 156 192 190
f 192 158 193
f 202 203 189
f 159 152 187
f 140 139 197
f 204 202 188
f 205 204 194
f 188 192 194
f 206 205 195
f 184 162 201
f 200 198 186
f 207 200 199
f 208 206 185
f 183 208 185
f 204 188 194
f 195 205 194
f 202 189 188
f 195 193 184
f 154 190 191
f 203 207 196
f 189 203 196
f 195 184 185
f 191 199 187
f 198 197 186
f 199 191 196
f 199 186 187
f 206 195 185
f 175 182 201
f 182 184 201
f 207 199 196
f 139 106 197
f 106 159 197
f 209 210 211
f 212 213 214
f 215 213 212
f 216 210 217
f 218 210 216
f 219 210 209
f 220 221 182
f 222 223 224
f 211 225 209
f 182 226 220
f 224 227 222
f 228 229 230
f 217 210 219
f 219 213 217
f 231 232 233
f 233 234 231
f 230 235 228
f 236 237 238
f 233 232 228
f 218 216 239
f 228 232 240
f 234 241 231
f 242 222 243
f 242 243 244
f 214 213 219
f 234 245 241
f 246 220 222
f 182 221 183
f 247 242 244
f 220 223 222
f 227 248 239
f 238 249 236
f 246 222 242
f 238 234 250
f 216 227 239
f 243 217 244
f 250 234 233
f 246 242 251
f 222 227 243
f 252 246 251
f 247 244 215
f 252 221 246
f 253 239 170
f 240 229 228
f 252 254 221
f 251 242 247
f 255 256 257
f 258 209 259
f 260 232 231
f 260 231 261
f 219 209 258
f 262 230 263
f 211 218 264
f 214 219 258
f 265 232 260
f 258 259 266
f 259 238 250
f 240 232 265
f 214 258 267
f 258 266 267
f 212 214 267
f 268 211 264
f 269 236 270
f 270 225 268
f 271 240 265
f 236 225 270
f 268 225 211
f 264 218 253
f 259 250 266
f 272 237 269
f 212 267 257
f 269 237 236
f 266 255 267
f 273 274 272
f 212 257 275
f 255 235 256
f 276 256 262
f 261 241 277
f 208 254 252
f 244 213 215
f 250 233 278
f 267 255 257
f 274 237 272
f 233 228 278
f 250 278 266
f 263 229 279
f 278 255 266
f 165 224 163
f 253 218 239
f 231 241 261
f 243 216 217
f 262 256 230
f 230 229 263
f 241 245 274
f 259 249 238
f 163 223 167
f 224 223 163
f 256 235 230
f 279 280 281
f 281 280 271
f 175 226 182
f 277 282 283
f 284 285 276
f 246 221 220
f 237 245 238
f 283 282 273
f 275 285 284
f 170 248 165
f 211 210 218
f 228 235 278
f 239 248 170
f 238 245 234
f 223 226 167
f 276 285 256
f 225 249 209
f 241 282 277
f 236 249 225
f 220 226 223
f 256 285 257
f 274 282 241
f 209 249 259
f 229 280 279
f 217 213 244
f 167 226 175
f 274 245 237
f 240 280 229
f 271 280 240
f 243 227 216
f 224 248 227
f 273 282 274
f 257 285 275
f 278 235 255
f 165 248 224
f 183 254 208
f 221 254 183
f 286 287 288
f 289 287 286
f 286 290 289
f 291 290 286
f 292 293 287
f 279 294 263
f 287 293 288
f 295 296 297
f 295 298 262
f 295 297 298
f 263 295 262
f 286 288 299
f 300 291 286
f 263 294 295
f 299 288 301
f 302 291 300
f 262 298 276
f 300 286 299
f 295 294 296
f 296 289 297
f 303 292 304
f 289 290 297
f 296 287 289
f 304 305 306
f 307 293 303
f 292 305 304
f 303 293 292
f 308 309 310
f 310 311 312
f 312 313 314
f 311 290 313
f 279 315 294
f 310 309 311
f 311 313 312
f 313 290 291
f 281 315 279
f 301 316 317
f 276 318 284
f 319 320 302
f 290 321 297
f 306 315 281
f 317 316 307
f 284 318 308
f 314 320 319
f 294 315 305
f 287 322 292
f 294 322 296
f 297 321 298
f 298 318 276
f 288 316 301
f 302 320 291
f 296 322 287
f 305 322 294
f 311 321 290
f 298 321 309
f 309 318 298
f 293 316 288
f 291 320 313
f 292 322 305
f 305 315 306
f 307 316 293
f 308 318 309
f 313 320 314
f 309 321 311
f 323 324 325
f 324 326 325
f 261 327 328
f 265 326 324
f 261 277 329
f 260 261 328
f 330 19 331
f 19 13 331
f 327 261 329
f 332 333 334
f 335 336 337
f 335 338 336
f 333 339 334
f 340 30 341
f 30 50 341
f 13 22 342
f 126 109 339
f 13 342 331
f 333 332 343
f 344 126 339
f 50 345 341
f 328 25 325
f 271 265 324
f 25 346 325
f 50 25 327
f 329 277 347
f 281 271 306
f 339 109 334
f 348 323 325
f 128 126 344
f 346 348 325
f 349 350 335
f 265 260 326
f 345 50 329
f 317 307 351
f 352 339 333
f 306 271 324
f 352 344 339
f 353 352 333
f 25 5 346
f 47 38 332
f 330 317 354
f 349 335 355
f 338 353 333
f 350 353 338
f 303 304 323
f 4 354 356
f 350 338 335
f 317 351 354
f 326 260 328
f 340 349 355
f 304 306 324
f 323 304 324
f 357 317 330
f 358 349 340
f 359 357 331
f 360 359 342
f 361 358 341
f 362 361 345
f 30 340 355
f 22 23 363
f 277 283 347
f 332 38 336
f 303 323 348
f 109 131 334
f 29 30 355
f 23 135 363
f 342 359 331
f 357 330 331
f 354 351 356
f 358 340 341
f 5 4 356
f 345 361 341
f 351 307 348
f 48 47 364
f 131 48 364
f 326 328 325
f 360 342 365
f 351 348 356
f 19 330 354
f 307 303 348
f 4 19 354
f 345 329 347
f 38 44 336
f 283 362 347
f 342 22 363
f 336 44 337
f 348 346 356
f 342 363 365
f 47 332 364
f 50 327 329
f 327 25 328
f 332 336 343
f 110 360 365
f 44 29 337
f 346 5 356
f 338 333 343
f 135 110 365
f 332 334 364
f 362 345 347
f 334 131 364
f 336 338 343
f 363 135 365
f 355 335 337
f 29 355 337
f 366 367 368
f 369 366 368
f 370 371 372
f 370 373 374
f 374 373 375
f 376 377 378
f 377 366 378
f 379 367 366
f 380 370 372
f 148 63 381
f 382 383 384
f 119 380 372
f 379 385 367
f 371 374 381
f 386 379 377
f 387 388 389
f 387 389 367
f 373 390 375
f 391 379 386
f 377 379 366
f 392 391 386
f 382 386 393
f 392 386 382
f 367 389 368
f 147 146 383
f 391 385 379
f 385 387 367
f 383 382 394
f 376 395 393
f 149 151 390
f 383 146 384
f 396 397 373
f 380 396 370
f 390 373 398
f 273 272 399
f 268 264 395
f 149 390 384
f 272 269 369
f 377 376 393
f 394 382 393
f 400 389 401
f 388 349 401
f 396 373 370
f 361 362 402
f 264 253 403
f 371 370 374
f 395 264 403
f 146 149 384
f 358 361 400
f 389 388 401
f 366 369 378
f 272 369 399
f 390 151 375
f 283 273 404
f 361 402 400
f 170 147 405
f 268 395 376
f 369 269 378
f 374 148 381
f 399 402 404
f 273 399 404
f 253 170 405
f 120 118 371
f 362 283 404
f 403 383 394
f 349 358 401
f 402 399 406
f 147 383 405
f 399 369 368
f 386 377 393
f 270 268 376
f 269 270 378
f 397 392 398
f 373 397 398
f 270 376 378
f 392 382 407
f 395 403 394
f 389 400 406
f 384 390 407
f 141 148 374
f 141 374 375
f 151 141 375
f 382 384 407
f 383 403 405
f 399 368 406
f 63 120 381
f 118 119 372
f 403 253 405
f 371 118 372
f 120 371 381
f 402 362 404
f 358 400 401
f 400 402 406
f 392 407 398
f 368 389 406
f 395 394 393
f 407 390 398
f 408 409 410
f 408 411 409
f 412 413 414
f 415 416 417
f 418 419 420
f 417 416 421
f 302 422 423
f 424 425 319
f 301 413 412
f 319 425 426
f 423 422 427
f 428 411 429
f 81 430 420
f 420 419 88
f 81 420 88
f 88 419 110
f 317 413 301
f 431 410 432
f 431 432 251
f 411 433 429
f 215 434 247
f 435 436 437
f 421 430 101
f 438 436 435
f 101 430 81
f 251 432 252
f 247 431 251
f 301 412 299
f 299 439 300
f 417 422 415
f 439 415 300
f 247 434 431
f 86 421 101
f 437 428 440
f 435 437 440
f 431 408 410
f 440 428 424
f 300 415 302
f 426 429 441
f 429 425 428
f 299 412 439
f 431 434 408
f 434 433 408
f 441 442 443
f 442 433 434
f 410 444 445
f 205 446 204
f 206 447 205
f 204 448 202
f 429 442 441
f 212 449 215
f 443 449 212
f 427 417 450
f 360 418 359
f 409 444 410
f 359 414 357
f 252 451 208
f 203 452 438
f 426 425 429
f 205 447 446
f 446 448 204
f 430 453 420
f 87 454 86
f 450 454 87
f 436 409 437
f 432 451 252
f 430 416 453
f 409 411 437
f 438 452 436
f 453 416 439
f 359 418 414
f 427 422 417
f 414 455 412
f 208 451 206
f 202 452 203
f 415 422 302
f 437 411 428
f 412 453 439
f 421 416 430
f 447 451 432
f 428 425 424
f 439 416 415
f 410 445 432
f 436 452 448
f 215 449 434
f 86 454 421
f 442 449 443
f 360 419 418
f 432 445 447
f 414 413 357
f 420 455 418
f 448 444 436
f 434 449 442
f 110 419 360
f 357 413 317
f 421 454 417
f 417 454 450
f 206 451 447
f 412 455 453
f 448 452 202
f 447 445 446
f 436 444 409
f 446 444 448
f 429 433 442
f 418 455 414
f 408 433 411
f 445 444 446
f 453 455 420
f 319 423 424
f 302 423 319
f 87 456 450
f 457 456 458
f 450 456 457
f 132 70 458
f 458 456 132
f 132 456 87
f 427 459 423
f 427 450 457
f 457 459 427
f 460 461 462
f 463 464 465
f 462 461 72
f 75 464 463
f 466 467 468
f 469 470 471
f 435 472 471
f 471 470 438
f 424 467 466
f 466 472 440
f 424 466 440
f 435 471 438
f 440 472 435
f 80 473 58
f 58 462 72
f 75 463 80
f 72 461 70
f 140 464 75
f 438 470 203
f 423 467 424
f 80 463 473
f 473 462 58
f 457 468 459
f 207 469 200
f 458 460 457
f 200 465 198
f 472 474 475
f 475 474 473
f 472 475 471
f 466 474 472
f 200 469 465
f 460 468 457
f 473 474 462
f 463 475 473
f 465 476 463
f 462 477 460
f 207 470 469
f 468 467 459
f 465 464 198
f 458 461 460
f 459 467 423
f 198 464 140
f 203 470 207
f 70 461 458
f 463 476 475
f 474 477 462
f 471 476 469
f 468 477 466
f 469 476 465
f 460 477 468
f 475 476 471
f 466 477 474
f 124 136 478
f 119 124 479
f 380 119 479
f 480 396 481
f 482 480 481
f 478 482 479
f 396 380 481
f 124 478 479
f 479 482 481
f 380 479 481
f 397 483 392
f 480 397 396
f 480 483 397
f 308 275 284
f 212 275 484
f 443 212 484
f 312 441 485
f 310 312 485
f 308 310 484
f 441 443 485
f 275 308 484
f 484 310 485
f 443 484 485
f 426 314 319
f 312 314 426
f 312 426 441
f 486 487 488
f 487 489 488
f 489 487 490
f 487 491 490
f 107 112 492
f 488 493 494
f 94 495 496
f 496 495 497
f 497 495 498
f 486 488 494
f 387 487 486
f 94 107 495
f 138 94 496
f 388 387 486
f 495 107 492
f 487 385 491
f 385 391 491
f 387 385 487
f 498 495 492
f 497 498 489
f 352 353 493
f 497 489 490
f 489 498 488
f 344 352 499
f 352 493 499
f 480 482 500
f 482 478 501
f 483 480 502
f 353 350 494
f 493 353 494
f 502 500 490
f 492 112 503
f 500 482 501
f 480 500 502
f 491 502 490
f 112 128 503
f 136 138 504
f 349 388 505
f 391 392 506
f 128 344 503
f 497 490 507
f 478 136 504
f 350 349 505
f 392 483 506
f 499 492 503
f 493 488 508
f 498 492 508
f 496 497 507
f 138 496 504
f 388 486 505
f 491 391 506
f 492 499 508
f 488 498 508
f 490 500 507
f 501 496 507
f 496 501 504
f 486 494 505
f 502 491 506
f 499 493 508
f 344 499 503
f 501 478 504
f 494 350 505
f 483 502 506
f 500 501 507
