v 0.00000000 2.50000000 3.93782217
v 0.00000000 1.81274947 4.91834290
v 0.00000000 2.96785258 4.82595624
v 0.00000000 1.84472982 8.18570709
v 0.00000000 0.89629612 7.58672565
v 0.00000000 0.83188404 8.50903791
v 0.00000000 9.04999912 4.63910294
v 0.00000000 8.00000000 4.80384758
v 0.00000000 8.49863187 5.62940849
v 0.00000000 1.67403811 7.30144284
v 0.00000000 0.86602540 3.50000000
v 0.00000000 1.85402102 3.03238858
v 0.00000000 0.86150211 2.50638682
v 0.00000000 9.11274902 2.52041533
v 0.00000000 8.14305203 3.03541796
v 0.00000000 9.13397460 3.50000000
v 0.00000000 9.32601861 5.51464340
v 0.00000000 1.58434932 3.98332678
v 0.00000000 1.61946883 2.00000000
v 0.00000000 8.38023278 2.00165709
v 0.00000000 2.49487025 5.68453654
v 0.00000000 9.12411846 8.37326348
v 0.00000000 8.58125785 7.41567462
v 0.00000000 8.12733101 8.29232056
v 0.00000000 6.56987303 7.47919630
v 0.00000000 6.01829689 6.57855097
v 0.00000000 5.53010224 7.45888770
v 0.00000000 6.05029673 8.29964284
v 0.00000000 6.53522089 9.14775074
v 0.00000000 7.09776299 8.29520588
v 0.00000000 9.38129956 7.50000000
v 0.00000000 7.04207102 6.58294879
v 0.00000000 9.11420049 6.51275890
v 0.00000000 8.04990480 6.55220953
v 0.00000000 8.39230485 4.00000000
v 0.00000000 7.50059369 5.68772839
v 0.00000000 6.51051836 5.68847803
v 0.00000000 1.50423737 9.15322795
v 0.00000000 2.02711056 6.53667802
v 0.00000000 1.00968898 6.52909527
v 0.00000000 5.00865621 6.55204600
v 0.00000000 4.50391422 7.41739458
v 0.00000000 1.55906610 0.93854344
v 0.00000000 0.82949740 1.50593232
v 0.00000000 2.51893237 2.21710114
v 0.00000000 7.48978095 2.21499468
v 0.00000000 9.20108174 1.53484601
v 0.00000000 8.44555945 0.95495283
v 0.00000000 7.59123724 7.45423764
v 0.00000000 1.63391323 5.82255579
v 0.00000000 5.00381143 8.29167569
v 0.00000000 2.24753585 1.49749311
v 0.00000000 7.54855251 9.14515392
v 0.00000000 8.47093315 9.17738469
v 0.00000000 3.49946435 7.40235025
v 0.00000000 3.00000457 6.53641105
v 0.00000000 2.50000000 7.40192379
v 0.00000000 2.50070623 9.13718349
v 0.00000000 3.00011770 8.26848401
v 0.00000000 3.00000000 10.00000000
v 0.00000000 3.50000000 9.13397460
v 0.00000000 5.50169879 5.67308639
v 0.00000000 4.50000000 3.93782217
v 0.00000000 4.00000000 3.07179677
v 0.00000000 3.50000000 3.93782217
v 0.00000000 2.00000000 10.00000000
v 0.00000000 10.00000000 4.00000000
v 0.00000000 0.00000000 4.00000000
v 0.00000000 0.84225903 4.49473382
v 0.00000000 5.50015204 3.93811710
v 0.00000000 5.00000000 3.07179677
v 0.00000000 7.00007675 4.80399419
v 0.00000000 3.99666839 8.26997316
v 0.00000000 5.00000000 10.00000000
v 0.00000000 5.49664878 9.14475188
v 0.00000000 4.49553497 9.13804297
v 0.00000000 7.00000000 10.00000000
v 0.00000000 10.00000000 3.00000000
v 0.00000000 4.00000000 4.80384758
v 0.00000000 7.00002124 3.07183759
v 0.00000000 6.50008751 3.93798997
v 0.00000000 7.48208172 3.94824435
v 0.00000000 4.50000000 2.20577137
v 0.00000000 3.50000000 2.20577137
v 0.00000000 3.00000000 3.07179677
v 0.00000000 0.00000000 3.00000000
v 0.00000000 4.00056310 6.53854793
v 0.00000000 6.00003992 3.07187389
v 0.00000000 5.00000000 0.00000000
v 0.00000000 4.50000000 0.86602540
v 0.00000000 5.50000000 0.86602540
v 0.00000000 7.00000000 0.00000000
v 0.00000000 6.50000000 0.86602540
v 0.00000000 7.45900115 0.81546250
v 0.00000000 5.00053922 4.80490529
v 0.00000000 6.00037300 4.80455943
v 0.00000000 1.00000000 10.00000000
v 0.00000000 4.00000000 10.00000000
v 0.00000000 6.00000000 10.00000000
v 0.00000000 8.00000000 10.00000000
v 0.00000000 10.00000000 2.00000000
v 0.00000000 10.00000000 5.00000000
v 0.00000000 10.00000000 7.00000000
v 0.00000000 10.00000000 6.00000000
v 0.00000000 10.00000000 9.00000000
v 0.00000000 10.00000000 8.00000000
v 0.00000000 3.00000000 0.00000000
v 0.00000000 2.54021197 0.79592257
v 0.00000000 3.50000000 0.86602540
v 0.00000000 4.00000000 0.00000000
v 0.00000000 6.00000000 0.00000000
v 0.00000000 8.00000000 0.00000000
v 0.00000000 0.00000000 2.00000000
v 0.00000000 0.00000000 5.00000000
v 0.00000000 0.84778281 5.46840291
v 0.00000000 0.00000000 6.00000000
v 0.00000000 0.00000000 7.00000000
v 0.00000000 4.50153655 5.67300584
v 0.00000000 3.49949574 5.67336609
v 0.00000000 2.00000000 0.00000000
v 0.00000000 9.00000000 0.00000000
v 0.00000000 0.00000000 1.00000000
v 0.00000000 0.00000000 8.00000000
v 0.00000000 5.50000000 2.20577137
v 0.00000000 6.50000000 2.20577137
v 0.00000000 7.77020989 1.51353746
v 0.00000000 10.00000000 1.00000000
v 0.00000000 0.00000000 9.00000000
v 0.00000000 1.00000000 0.00000000
v 0.00000000 9.00000000 10.00000000
v 0.00000000 0.00000000 10.00000000
v 0.00000000 0.73205081 9.26794919
v 0.00000000 10.00000000 10.00000000
v 0.00000000 9.26794919 9.26794919
v 0.00000000 10.00000000 0.00000000
v 0.00000000 9.26794919 0.73205081
v 0.00000000 0.00000000 0.00000000
v 0.00000000 0.73205081 0.73205081
v 0.00000000 7.00000000 1.53589838
v 0.00000000 6.00000000 1.53589838
v 0.00000000 5.00000000 1.53589838
v 0.00000000 4.00000000 1.53589838
v 0.00000000 3.00000000 1.53589838
v 4.63910294 0.00000000 9.04999912
v 4.80384758 0.00000000 8.00000000
v 5.62759552 0.00000000 8.49608570
v 3.03197169 0.00000000 1.85684876
v 2.52041533 0.00000000 0.88725098
v 3.50000000 0.00000000 0.86602540
v 2.50000000 0.00000000 9.13397460
v 3.03253834 0.00000000 8.14562086
v 3.50000000 0.00000000 9.13397460
v 4.62964041 0.00000000 0.93546348
v 5.61440142 0.00000000 1.47223450
v 4.78395576 0.00000000 1.95677693
v 8.40817438 0.00000000 9.09430275
v 7.43647764 0.00000000 8.50545856
v 8.30274100 0.00000000 8.00682097
v 8.40817438 0.00000000 0.90569725
v 8.29695627 0.00000000 1.99404509
v 7.42978350 0.00000000 1.49088158
v 5.50000000 0.00000000 9.32371439
v 2.00000000 0.00000000 8.38053117
v 2.00165709 0.00000000 1.61976722
v 5.50000000 0.00000000 0.65256264
v 7.47200741 0.00000000 9.33863344
v 7.46943198 0.00000000 0.65702437
v 6.52493070 0.00000000 1.96703159
v 6.50920200 0.00000000 0.88854302
v 6.51538502 0.00000000 9.09340592
v 6.52543341 0.00000000 8.01491556
v 4.00000000 0.00000000 8.39230485
v 3.97276426 0.00000000 1.61493459
v 9.17941025 0.00000000 8.46942958
v 9.17872159 0.00000000 1.53067353
v 1.50593232 0.00000000 9.17050260
v 0.93854344 0.00000000 8.44093390
v 2.21483903 0.00000000 7.48970045
v 2.21723913 0.00000000 2.51884448
v 5.64758523 0.00000000 2.46139648
v 6.53221481 0.00000000 2.99361986
v 5.66555156 0.00000000 3.49251508
v 0.95495283 0.00000000 1.55444055
v 1.53484601 0.00000000 0.79891826
v 4.80384758 0.00000000 3.00000000
v 3.94090925 0.00000000 2.49465303
v 1.49704069 0.00000000 7.75419071
v 3.93833698 0.00000000 3.49910935
v 3.07241139 0.00000000 2.99893566
v 7.40207671 0.00000000 3.50026487
v 7.40630093 0.00000000 2.49821533
v 8.26873564 0.00000000 3.00136217
v 2.20577137 0.00000000 5.50000000
v 2.20577137 0.00000000 4.50000000
v 3.07191512 0.00000000 4.99979539
v 3.07188260 0.00000000 3.99985160
v 3.93782233 0.00000000 4.50000026
v 3.93782251 0.00000000 5.50000059
v 3.93954944 0.00000000 6.49700864
v 3.07242054 0.00000000 5.99891986
v 9.13397460 0.00000000 3.50000000
v 10.00000000 0.00000000 4.00000000
v 9.13399644 0.00000000 4.50003784
v 8.26808027 0.00000000 4.00022703
v 4.80413663 0.00000000 5.99950348
v 4.80384780 0.00000000 7.00000039
v 7.40194005 0.00000000 5.50002817
v 8.26798257 0.00000000 5.00005781
v 8.26808864 0.00000000 5.99978747
v 2.00000000 0.00000000 10.00000000
v 1.00000000 0.00000000 10.00000000
v 4.00000000 0.00000000 10.00000000
v 5.66987327 0.00000000 7.50000049
v 4.80384947 0.00000000 5.00000328
v 5.66987652 0.00000000 5.50000614
v 2.20577137 0.00000000 6.50000000
v 3.07381181 0.00000000 6.99650992
v 7.40197112 0.00000000 4.50008198
v 7.40192437 0.00000000 6.50000101
v 10.00000000 0.00000000 3.00000000
v 9.13869329 0.00000000 2.50817302
v 10.00000000 0.00000000 7.00000000
v 9.13869329 0.00000000 7.49182698
v 9.13476105 0.00000000 6.49863783
v 3.00000000 0.00000000 10.00000000
v 6.53593176 0.00000000 4.00005781
v 5.66988079 0.00000000 4.50001352
v 4.80384919 0.00000000 4.00000280
v 5.66987404 0.00000000 6.50000184
v 6.53590122 0.00000000 6.00000491
v 6.53589903 0.00000000 7.00000112
v 2.20577137 0.00000000 3.50000000
v 7.40192384 0.00000000 7.50000009
v 8.26889006 0.00000000 6.99837556
v 3.94818518 0.00000000 7.48205087
v 0.86602540 0.00000000 5.50000000
v 0.86602540 0.00000000 6.50000000
v 0.81546250 0.00000000 2.54099885
v 0.86602540 0.00000000 3.50000000
v 0.86602540 0.00000000 4.50000000
v 0.79592257 0.00000000 7.45978803
v 10.00000000 0.00000000 2.00000000
v 10.00000000 0.00000000 5.00000000
v 10.00000000 0.00000000 6.00000000
v 9.13397460 0.00000000 5.50000000
v 10.00000000 0.00000000 8.00000000
v 5.00000000 0.00000000 10.00000000
v 7.00000000 0.00000000 10.00000000
v 6.00000000 0.00000000 10.00000000
v 9.00000000 0.00000000 10.00000000
v 8.00000000 0.00000000 10.00000000
v 3.00000000 0.00000000 0.00000000
v 4.00000000 0.00000000 0.00000000
v 6.53591184 0.00000000 5.00002330
v 2.00000000 0.00000000 0.00000000
v 5.00000000 0.00000000 0.00000000
v 6.00000000 0.00000000 0.00000000
v 7.00000000 0.00000000 0.00000000
v 8.00000000 0.00000000 0.00000000
v 9.00000000 0.00000000 0.00000000
v 1.51385810 0.00000000 2.23102231
v 10.00000000 0.00000000 1.00000000
v 10.00000000 0.00000000 9.00000000
v 1.00000000 0.00000000 0.00000000
v 10.00000000 0.00000000 10.00000000
v 9.26794919 0.00000000 9.26794919
v 10.00000000 0.00000000 0.00000000
v 9.26794919 0.00000000 0.73205081
v 0.73205081 0.00000000 0.73205081
v 0.73205081 0.00000000 9.26794919
v 1.53589838 0.00000000 5.00000000
v 1.53589838 0.00000000 6.00000000
v 1.53589838 0.00000000 7.00000000
v 1.53589838 0.00000000 4.00000000
v 1.53589838 0.00000000 3.00000000
v 2.48861603 9.14345965 10.00000000
v 3.03600709 8.70036293 10.00000000
v 3.34499793 9.25848903 10.00000000
v 4.10803817 8.98965326 10.00000000
v 4.75937332 9.20626123 10.00000000
v 4.00000000 10.00000000 10.00000000
v 2.73504811 1.76759620 10.00000000
v 2.87392168 2.33342216 10.00000000
v 2.33124714 2.32061005 10.00000000
v 6.13334883 1.59022825 10.00000000
v 5.67083989 0.84312473 10.00000000
v 6.50994679 0.79291942 10.00000000
v 2.38812226 3.55520816 10.00000000
v 2.03714273 3.05222563 10.00000000
v 2.72954033 2.96165323 10.00000000
v 3.58205369 8.69933409 10.00000000
v 0.93216315 6.47693573 10.00000000
v 1.54940735 5.79124594 10.00000000
v 1.81167294 6.47037460 10.00000000
v 1.53254213 7.16541956 10.00000000
v 5.36059275 1.56918917 10.00000000
v 2.03139337 1.66074514 10.00000000
v 9.27578658 6.53970053 10.00000000
v 8.76149415 6.15139080 10.00000000
v 9.13933493 5.58379949 10.00000000
v 3.00000000 10.00000000 10.00000000
v 5.00000000 10.00000000 10.00000000
v 10.00000000 4.00000000 10.00000000
v 9.19824178 4.70454983 10.00000000
v 9.01573418 3.88937897 10.00000000
v 0.79364809 7.48903716 10.00000000
v 1.03318529 3.83804642 10.00000000
v 0.82338378 4.60010132 10.00000000
v 0.80427765 5.46827398 10.00000000
v 10.00000000 6.00000000 10.00000000
v 4.52521915 0.75558390 10.00000000
v 3.94833097 1.01340162 10.00000000
v 5.03166538 0.93561666 10.00000000
v 2.70635299 7.59966520 10.00000000
v 3.27513721 7.40199310 10.00000000
v 3.23417065 8.10487910 10.00000000
v 3.37197466 0.68854908 10.00000000
v 7.82900891 6.99942978 10.00000000
v 7.54518480 6.46946313 10.00000000
v 8.14521586 6.37398333 10.00000000
v 8.21051219 8.45471080 10.00000000
v 8.50883388 9.23612726 10.00000000
v 7.50000000 9.13397460 10.00000000
v 7.45944515 8.22863994 10.00000000
v 8.50138768 0.92656289 10.00000000
v 8.57973414 1.95376226 10.00000000
v 7.98842841 1.51625549 10.00000000
v 5.61103713 2.12529633 10.00000000
v 7.36408258 7.52670902 10.00000000
v 6.80979400 7.95880652 10.00000000
v 6.75057392 7.36395923 10.00000000
v 6.16091696 8.24572636 10.00000000
v 5.38806079 8.53429718 10.00000000
v 5.63100372 7.86091570 10.00000000
v 9.12929223 8.47447162 10.00000000
v 2.45621617 6.51756666 10.00000000
v 2.23674615 7.09509717 10.00000000
v 5.44500267 9.28283583 10.00000000
v 6.07167290 8.97289749 10.00000000
v 6.00000000 10.00000000 10.00000000
v 1.66056193 2.42610115 10.00000000
v 2.53019713 8.29565277 10.00000000
v 6.25000000 7.16506351 10.00000000
v 6.23061259 7.68767272 10.00000000
v 8.42790724 4.33227241 10.00000000
v 8.47734259 5.02873137 10.00000000
v 6.69068375 9.33117927 10.00000000
v 2.97745751 3.53053687 10.00000000
v 7.47063683 0.90271042 10.00000000
v 2.00000000 10.00000000 10.00000000
v 1.48654803 9.18970436 10.00000000
v 8.55286911 7.02601339 10.00000000
v 2.71613636 6.01684161 10.00000000
v 2.18888140 5.95759698 10.00000000
v 1.48999723 5.04078646 10.00000000
v 0.63910527 3.28793716 10.00000000
v 2.06945170 5.33350787 10.00000000
v 4.73867884 2.51369526 10.00000000
v 4.36413222 2.12613041 10.00000000
v 4.98525234 2.05545492 10.00000000
v 3.88528471 1.75358385 10.00000000
v 4.60167510 1.51018548 10.00000000
v 9.25684754 1.53439614 10.00000000
v 2.57531001 0.89333471 10.00000000
v 2.06781804 4.70369088 10.00000000
v 2.50000000 5.00000000 10.00000000
v 9.19378816 7.49945949 10.00000000
v 10.00000000 7.00000000 10.00000000
v 3.30583219 1.37250741 10.00000000
v 1.51154685 0.95113292 10.00000000
v 7.76548516 2.82528107 10.00000000
v 7.65115206 3.46940000 10.00000000
v 7.18404784 3.03347449 10.00000000
v 7.00000000 10.00000000 10.00000000
v 10.00000000 5.00000000 10.00000000
v 1.82354539 8.46646066 10.00000000
v 3.80872778 7.68888467 10.00000000
v 8.00000000 10.00000000 10.00000000
v 8.18814165 3.15548794 10.00000000
v 10.00000000 3.00000000 10.00000000
v 9.19709224 2.53714704 10.00000000
v 10.00000000 2.00000000 10.00000000
v 10.00000000 8.00000000 10.00000000
v 0.83649500 2.47369763 10.00000000
v 7.99531301 7.69615653 10.00000000
v 7.80095163 4.09718102 10.00000000
v 8.28030302 3.69330333 10.00000000
v 8.37491206 5.71735970 10.00000000
v 7.80059296 5.90270318 10.00000000
v 6.84329086 1.40348520 10.00000000
v 6.19964318 2.31608700 10.00000000
v 2.03721803 7.74096479 10.00000000
v 6.81542453 8.63073736 10.00000000
v 0.88962227 8.47117335 10.00000000
v 1.00000000 10.00000000 10.00000000
v 0.75222195 1.50311819 10.00000000
v 9.39458864 3.32758078 10.00000000
v 1.40119456 7.90349509 10.00000000
v 6.67282652 6.85786206 10.00000000
v 2.71613636 3.98315839 10.00000000
v 2.97745751 6.46946313 10.00000000
v 2.55463100 5.51977923 10.00000000
v 7.38011651 1.73032223 10.00000000
v 1.38060477 1.81945886 10.00000000
v 4.22745751 2.62235871 10.00000000
v 8.64700019 7.95603175 10.00000000
v 1.32584605 3.12794176 10.00000000
v 4.61513828 8.43078111 10.00000000
v 10.00000000 9.00000000 10.00000000
v 10.00000000 1.00000000 10.00000000
v 3.27254249 2.62235871 10.00000000
v 6.72438529 2.62711495 10.00000000
v 6.74303498 2.02704837 10.00000000
v 7.27898089 2.41466405 10.00000000
v 9.35164705 0.69219181 10.00000000
v 0.67523406 9.33217554 10.00000000
v 9.00000000 10.00000000 10.00000000
v 9.30947001 9.30477015 10.00000000
v 10.00000000 10.00000000 10.00000000
v 2.82439838 6.99560403 10.00000000
v 3.77123789 2.31231038 10.00000000
v 3.30123036 1.99489261 10.00000000
v 7.21186445 6.95485793 10.00000000
v 0.76160076 0.75723239 10.00000000
v 3.32717348 6.85786206 10.00000000
v 7.02254249 6.46946313 10.00000000
v 3.32717348 3.14213794 10.00000000
v 6.67282652 3.14213794 10.00000000
v 7.02254249 3.53053687 10.00000000
v 3.75000000 7.16506351 10.00000000
v 3.75000000 2.83493649 10.00000000
v 6.25000000 2.83493649 10.00000000
v 1.59093379 4.30127990 10.00000000
v 5.77254249 2.62235871 10.00000000
v 5.77254249 7.37764129 10.00000000
v 7.28386364 6.01684161 10.00000000
v 4.99998984 7.93689560 10.00000000
v 4.39022728 7.87077052 10.00000000
v 3.96241382 8.30405167 10.00000000
v 4.22745751 7.37764129 10.00000000
v 7.28386364 3.98315839 10.00000000
v 2.17998577 4.11412912 10.00000000
v 7.92061844 5.30655956 10.00000000
v 5.26132116 2.51369526 10.00000000
v 5.26132116 7.48630474 10.00000000
v 7.44536900 5.51977923 10.00000000
v 7.92076250 4.69333992 10.00000000
v 2.55463100 4.48022077 10.00000000
v 8.76011678 3.21137791 10.00000000
v 4.73867884 7.48630474 10.00000000
v 7.44536900 4.48022077 10.00000000
v 7.50000000 5.00000000 10.00000000
v 7.91098300 2.17837115 10.00000000
v 1.75736277 3.67601829 10.00000000
v 8.41819321 2.64332363 10.00000000
v 0.86602540 10.00000000 5.50000000
v 1.72312536 10.00000000 5.99939164
v 1.93718027 10.00000000 4.86587802
v 9.04999912 10.00000000 4.63910294
v 7.99339650 10.00000000 4.79237974
v 8.49794622 10.00000000 5.62719242
v 8.14341564 10.00000000 3.03386946
v 9.13397460 10.00000000 3.50000000
v 9.13397460 10.00000000 2.50000000
v 0.86969694 10.00000000 4.45287966
v 8.50557082 10.00000000 7.43765392
v 8.00711041 10.00000000 8.30278022
v 9.09430275 10.00000000 8.40817438
v 9.32490032 10.00000000 5.51466474
v 8.38053117 10.00000000 2.00000000
v 9.33865590 10.00000000 7.47224267
v 8.01558921 10.00000000 6.53249116
v 9.09340592 10.00000000 6.51538502
v 2.58649741 10.00000000 5.69703080
v 8.39230485 10.00000000 4.00000000
v 0.77648912 10.00000000 3.46631610
v 1.56082880 10.00000000 2.28150759
v 1.99273582 10.00000000 1.52863176
v 0.89078645 10.00000000 1.53222916
v 8.46946403 10.00000000 9.17941492
v 1.63615736 10.00000000 7.97539511
v 0.80260497 10.00000000 8.46287644
v 1.58611497 10.00000000 9.04208736
v 1.50460009 10.00000000 0.77148051
v 8.44093390 10.00000000 0.93854344
v 9.17050260 10.00000000 1.50593232
v 7.48106784 10.00000000 2.21710126
v 2.29072135 10.00000000 8.42077684
v 7.75246419 10.00000000 1.49749313
v 7.48205306 10.00000000 3.94818637
v 6.99594124 10.00000000 4.80368150
v 7.50003963 10.00000000 5.66989444
v 4.50601721 10.00000000 7.40516109
v 5.00350274 10.00000000 8.26984653
v 5.50135276 10.00000000 7.40269490
v 6.50014809 10.00000000 5.66995317
v 6.49863783 10.00000000 9.13476105
v 5.50000000 10.00000000 9.13397460
v 10.00000000 10.00000000 4.00000000
v 3.50000000 10.00000000 9.13397460
v 4.01188015 10.00000000 8.27415262
v 3.07128087 10.00000000 8.30516973
v 6.99957358 10.00000000 8.27470215
v 5.99978630 10.00000000 8.26808748
v 6.50007999 10.00000000 7.40196707
v 3.52422314 10.00000000 7.41514418
v 5.99948716 10.00000000 4.80390860
v 2.56451748 10.00000000 9.14762282
v 7.49182698 10.00000000 9.13869329
v 10.00000000 10.00000000 3.00000000
v 5.00184288 10.00000000 6.53689509
v 6.00039020 10.00000000 6.53610950
v 5.50049834 10.00000000 5.67014298
v 7.50000000 10.00000000 7.40192379
v 3.50000000 10.00000000 0.86602540
v 4.50000000 10.00000000 0.86602540
v 4.00000000 10.00000000 0.00000000
v 5.50005088 10.00000000 3.93784980
v 6.50001016 10.00000000 3.93782769
v 4.50198002 10.00000000 9.13500850
v 10.00000000 10.00000000 2.00000000
v 4.00504006 10.00000000 6.53864133
v 4.50114716 10.00000000 5.67049626
v 5.00027425 10.00000000 4.80399646
v 4.50003105 10.00000000 3.93783903
v 6.00001011 10.00000000 3.07180226
v 5.00000975 10.00000000 3.07180207
v 7.00008972 10.00000000 6.53594694
v 6.50000000 10.00000000 2.20577137
v 5.50000000 10.00000000 2.20577137
v 7.00000338 10.00000000 3.07179860
v 2.52523284 10.00000000 3.92780727
v 3.01286553 10.00000000 4.79647225
v 0.86523895 10.00000000 6.49863783
v 1.66864147 10.00000000 6.98794644
v 3.00000000 10.00000000 0.00000000
v 2.50019957 10.00000000 0.84490357
v 0.86130671 10.00000000 7.49182698
v 4.00023690 10.00000000 4.80397627
v 2.00000000 10.00000000 0.00000000
v 5.00000000 10.00000000 0.00000000
v 5.50000000 10.00000000 0.86602540
v 6.50000000 10.00000000 0.86602540
v 6.00000000 10.00000000 0.00000000
v 7.00000000 10.00000000 0.00000000
v 7.45978803 10.00000000 0.79592257
v 10.00000000 10.00000000 1.00000000
v 10.00000000 10.00000000 5.00000000
v 10.00000000 10.00000000 6.00000000
v 10.00000000 10.00000000 7.00000000
v 10.00000000 10.00000000 8.00000000
v 10.00000000 10.00000000 9.00000000
v 1.00000000 10.00000000 0.00000000
v 8.00000000 10.00000000 0.00000000
v 3.07271697 10.00000000 6.53115812
v 3.50004466 10.00000000 3.93784643
v 4.00071640 10.00000000 3.07152699
v 3.00421292 10.00000000 3.07013166
v 2.07667724 10.00000000 3.03456304
v 3.50000000 10.00000000 2.20577137
v 2.50000000 10.00000000 2.20577137
v 3.52815304 10.00000000 5.66103538
v 4.50000000 10.00000000 2.20577137
v 9.00000000 10.00000000 0.00000000
v 2.50599413 10.00000000 7.45093420
v 0.69552350 10.00000000 2.50000000
v 1.57956787 10.00000000 3.77670948
v 0.73205081 10.00000000 9.26794919
v 9.26794919 10.00000000 9.26794919
v 10.00000000 10.00000000 0.00000000
v 9.26794919 10.00000000 0.73205081
v 0.72695926 10.00000000 0.72695926
v 2.26794919 10.00000000 6.50000000
v 1.30878042 10.00000000 2.94889384
v 5.99999722 10.00000000 1.53588721
v 7.00000000 10.00000000 1.53589838
v 2.99939927 10.00000000 1.53348440
v 4.99998331 10.00000000 1.53583133
v 3.99989988 10.00000000 1.53549605
v 2.48861603 9.14345965 0.00000000
v 3.34499793 9.25848903 0.00000000
v 3.03600709 8.70036293 0.00000000
v 4.10803817 8.98965326 0.00000000
v 4.75937332 9.20626123 0.00000000
v 2.73504811 1.76759620 0.00000000
v 2.33124714 2.32061005 0.00000000
v 2.87392168 2.33342216 0.00000000
v 6.13334883 1.59022825 0.00000000
v 6.50994679 0.79291942 0.00000000
v 5.67083989 0.84312473 0.00000000
v 2.38812226 3.55520816 0.00000000
v 2.72954033 2.96165323 0.00000000
v 2.03714273 3.05222563 0.00000000
v 3.58205369 8.69933409 0.00000000
v 0.93216315 6.47693573 0.00000000
v 1.81167294 6.47037460 0.00000000
v 1.54940735 5.79124594 0.00000000
v 1.53254213 7.16541956 0.00000000
v 5.36059275 1.56918917 0.00000000
v 2.03139337 1.66074514 0.00000000
v 9.27578658 6.53970053 0.00000000
v 9.13933493 5.58379949 0.00000000
v 8.76149415 6.15139080 0.00000000
v 10.00000000 4.00000000 0.00000000
v 9.01573418 3.88937897 0.00000000
v 9.19824178 4.70454983 0.00000000
v 0.79364809 7.48903716 0.00000000
v 1.03318529 3.83804642 0.00000000
v 0.82338378 4.60010132 0.00000000
v 0.80427765 5.46827398 0.00000000
v 10.00000000 6.00000000 0.00000000
v 4.52521915 0.75558390 0.00000000
v 3.94833097 1.01340162 0.00000000
v 5.03166538 0.93561666 0.00000000
v 2.70635299 7.59966520 0.00000000
v 3.23417065 8.10487910 0.00000000
v 3.27513721 7.40199310 0.00000000
v 3.37197466 0.68854908 0.00000000
v 7.82900891 6.99942978 0.00000000
v 8.14521586 6.37398333 0.00000000
v 7.54518480 6.46946313 0.00000000
v 8.21051219 8.45471080 0.00000000
v 7.50000000 9.13397460 0.00000000
v 8.50883388 9.23612726 0.00000000
v 7.45944515 8.22863994 0.00000000
v 8.50138768 0.92656289 0.00000000
v 7.98842841 1.51625549 0.00000000
v 8.57973414 1.95376226 0.00000000
v 5.61103713 2.12529633 0.00000000
v 7.36408258 7.52670902 0.00000000
v 6.75057392 7.36395923 0.00000000
v 6.80979400 7.95880652 0.00000000
v 6.16091696 8.24572636 0.00000000
v 5.63100372 7.86091570 0.00000000
v 5.38806079 8.53429718 0.00000000
v 9.12929223 8.47447162 0.00000000
v 2.45621617 6.51756666 0.00000000
v 2.23674615 7.09509717 0.00000000
v 5.44500267 9.28283583 0.00000000
v 6.07167290 8.97289749 0.00000000
v 1.66056193 2.42610115 0.00000000
v 2.53019713 8.29565277 0.00000000
v 6.25000000 7.16506351 0.00000000
v 6.23061259 7.68767272 0.00000000
v 8.42790724 4.33227241 0.00000000
v 8.47734259 5.02873137 0.00000000
v 6.69068375 9.33117927 0.00000000
v 2.97745751 3.53053687 0.00000000
v 7.47063683 0.90271042 0.00000000
v 1.48654803 9.18970436 0.00000000
v 8.55286911 7.02601339 0.00000000
v 2.71613636 6.01684161 0.00000000
v 2.18888140 5.95759698 0.00000000
v 1.48999723 5.04078646 0.00000000
v 0.63910527 3.28793716 0.00000000
v 2.06945170 5.33350787 0.00000000
v 4.73867884 2.51369526 0.00000000
v 4.98525234 2.05545492 0.00000000
v 4.36413222 2.12613041 0.00000000
v 3.88528471 1.75358385 0.00000000
v 4.60167510 1.51018548 0.00000000
v 9.25684754 1.53439614 0.00000000
v 2.57531001 0.89333471 0.00000000
v 2.50000000 5.00000000 0.00000000
v 2.06781804 4.70369088 0.00000000
v 9.19378816 7.49945949 0.00000000
v 10.00000000 7.00000000 0.00000000
v 3.30583219 1.37250741 0.00000000
v 1.51154685 0.95113292 0.00000000
v 7.76548516 2.82528107 0.00000000
v 7.18404784 3.03347449 0.00000000
v 7.65115206 3.46940000 0.00000000
v 10.00000000 5.00000000 0.00000000
v 1.82354539 8.46646066 0.00000000
v 3.80872778 7.68888467 0.00000000
v 8.18814165 3.15548794 0.00000000
v 10.00000000 3.00000000 0.00000000
v 10.00000000 2.00000000 0.00000000
v 9.19709224 2.53714704 0.00000000
v 10.00000000 8.00000000 0.00000000
v 0.83649500 2.47369763 0.00000000
v 7.99531301 7.69615653 0.00000000
v 7.80095163 4.09718102 0.00000000
v 8.28030302 3.69330333 0.00000000
v 8.37491206 5.71735970 0.00000000
v 7.80059296 5.90270318 0.00000000
v 6.84329086 1.40348520 0.00000000
v 6.19964318 2.31608700 0.00000000
v 2.03721803 7.74096479 0.00000000
v 6.81542453 8.63073736 0.00000000
v 0.88962227 8.47117335 0.00000000
v 0.75222195 1.50311819 0.00000000
v 9.39458864 3.32758078 0.00000000
v 1.40119456 7.90349509 0.00000000
v 6.67282652 6.85786206 0.00000000
v 2.71613636 3.98315839 0.00000000
v 2.97745751 6.46946313 0.00000000
v 2.55463100 5.51977923 0.00000000
v 7.38011651 1.73032223 0.00000000
v 1.38060477 1.81945886 0.00000000
v 4.22745751 2.62235871 0.00000000
v 8.64700019 7.95603175 0.00000000
v 1.32584605 3.12794176 0.00000000
v 4.61513828 8.43078111 0.00000000
v 10.00000000 9.00000000 0.00000000
v 10.00000000 1.00000000 0.00000000
v 3.27254249 2.62235871 0.00000000
v 6.72438529 2.62711495 0.00000000
v 7.27898089 2.41466405 0.00000000
v 6.74303498 2.02704837 0.00000000
v 9.35164705 0.69219181 0.00000000
v 0.67523406 9.33217554 0.00000000
v 9.30947001 9.30477015 0.00000000
v 2.82439838 6.99560403 0.00000000
v 3.77123789 2.31231038 0.00000000
v 3.30123036 1.99489261 0.00000000
v 7.21186445 6.95485793 0.00000000
v 0.76160076 0.75723239 0.00000000
v 3.32717348 6.85786206 0.00000000
v 7.02254249 6.46946313 0.00000000
v 3.32717348 3.14213794 0.00000000
v 6.67282652 3.14213794 0.00000000
v 7.02254249 3.53053687 0.00000000
v 3.75000000 7.16506351 0.00000000
v 3.75000000 2.83493649 0.00000000
v 6.25000000 2.83493649 0.00000000
v 1.59093379 4.30127990 0.00000000
v 5.77254249 2.62235871 0.00000000
v 5.77254249 7.37764129 0.00000000
v 7.28386364 6.01684161 0.00000000
v 4.99998984 7.93689560 0.00000000
v 4.39022728 7.87077052 0.00000000
v 3.96241382 8.30405167 0.00000000
v 4.22745751 7.37764129 0.00000000
v 7.28386364 3.98315839 0.00000000
v 2.17998577 4.11412912 0.00000000
v 7.92061844 5.30655956 0.00000000
v 5.26132116 2.51369526 0.00000000
v 5.26132116 7.48630474 0.00000000
v 7.44536900 5.51977923 0.00000000
v 7.92076250 4.69333992 0.00000000
v 2.55463100 4.48022077 0.00000000
v 8.76011678 3.21137791 0.00000000
v 4.73867884 7.48630474 0.00000000
v 7.44536900 4.48022077 0.00000000
v 7.50000000 5.00000000 0.00000000
v 7.91098300 2.17837115 0.00000000
v 1.75736277 3.67601829 0.00000000
v 8.41819321 2.64332363 0.00000000
v 10.00000000 8.19009592 4.92273052
v 10.00000000 7.03718384 4.83327111
v 10.00000000 7.52670881 3.98087711
v 10.00000000 1.84461212 8.18517227
v 10.00000000 0.83187002 8.50897424
v 10.00000000 0.89629612 7.58672565
v 10.00000000 9.10370388 7.58672565
v 10.00000000 9.16755444 8.50864195
v 10.00000000 8.15055334 8.18238106
v 10.00000000 0.89939505 5.42809841
v 10.00000000 0.87102639 4.47638434
v 10.00000000 1.86504512 4.87353007
v 10.00000000 1.67032406 7.28640887
v 10.00000000 8.32596189 7.30144284
v 10.00000000 0.86602540 3.50000000
v 10.00000000 0.86154949 2.50640468
v 10.00000000 1.85430527 3.03249579
v 10.00000000 8.15249915 3.03692075
v 10.00000000 9.13958458 2.50714218
v 10.00000000 9.13397460 3.50000000
v 10.00000000 1.66447661 5.80322429
v 10.00000000 8.42080416 3.99075174
v 10.00000000 1.61946883 2.00000000
v 10.00000000 8.38053117 2.00000000
v 10.00000000 7.50630577 5.68448028
v 10.00000000 1.60769515 4.00000000
v 10.00000000 1.50423737 9.15322795
v 10.00000000 8.49576263 9.15322795
v 10.00000000 2.03394393 6.52891627
v 10.00000000 1.02399896 6.51570372
v 10.00000000 8.99418396 6.52898389
v 10.00000000 8.00000000 6.53589838
v 10.00000000 9.17050260 1.50593232
v 10.00000000 8.44093390 0.93854344
v 10.00000000 1.55906610 0.93854344
v 10.00000000 0.82949740 1.50593232
v 10.00000000 2.51026443 2.21481878
v 10.00000000 7.49033021 2.21498282
v 10.00000000 8.37108747 5.82304727
v 10.00000000 7.75431666 1.49706944
v 10.00000000 2.24580227 1.49703663
v 10.00000000 4.49914073 7.40146605
v 10.00000000 4.99982386 6.53580455
v 10.00000000 5.49985530 7.40184671
v 10.00000000 7.52358020 9.12245691
v 10.00000000 6.99516523 8.26515786
v 10.00000000 4.99983267 8.26786005
v 10.00000000 4.50000000 9.13397460
v 10.00000000 3.99407379 8.26479223
v 10.00000000 5.99914193 8.26745612
v 10.00000000 5.49982910 9.13387756
v 10.00000000 6.50000000 9.13397460
v 10.00000000 9.15221719 5.46840291
v 10.00000000 2.97410202 8.25415304
v 10.00000000 3.49568367 9.13167524
v 10.00000000 2.50000000 9.13397460
v 10.00000000 5.99999268 6.53589448
v 10.00000000 3.99916071 6.53545129
v 10.00000000 9.15774097 4.49473382
v 10.00000000 3.99992617 4.80380825
v 10.00000000 4.99995717 4.80382476
v 10.00000000 4.49981682 5.66977540
v 10.00000000 7.00000000 3.07179677
v 10.00000000 6.50000000 2.20577137
v 10.00000000 5.99999861 3.07179603
v 10.00000000 3.49974022 5.66973459
v 10.00000000 2.99994440 4.80381796
v 10.00000000 2.50000000 5.66987298
v 10.00000000 4.99999858 3.07179601
v 10.00000000 5.50000000 2.20577137
v 10.00000000 5.49996233 5.66985291
v 10.00000000 6.00000000 4.80384758
v 10.00000000 6.49999372 5.66986964
v 10.00000000 6.99999773 6.53589718
v 10.00000000 7.47099300 7.38517662
v 10.00000000 2.50000000 7.40192379
v 10.00000000 5.50000000 0.86602540
v 10.00000000 4.50000000 0.86602540
v 10.00000000 3.49568367 7.39962443
v 10.00000000 3.49997843 3.93781068
v 10.00000000 6.49999881 3.93782154
v 10.00000000 6.49999840 7.40192294
v 10.00000000 2.51793633 3.94817829
v 10.00000000 3.50000000 0.86602540
v 10.00000000 2.54021197 0.79592257
v 10.00000000 6.50000000 0.86602540
v 10.00000000 7.45978803 0.79592257
v 10.00000000 4.49997553 3.93780914
v 10.00000000 5.49999286 3.93781837
v 10.00000000 3.00298579 3.07352087
v 10.00000000 2.99928061 6.53551516
v 10.00000000 4.50000000 2.20577137
v 10.00000000 4.00048972 3.07207991
v 10.00000000 3.50000000 2.20577137
v 10.00000000 0.73205081 9.26794919
v 10.00000000 9.26794919 9.26794919
v 10.00000000 9.26794919 0.73205081
v 10.00000000 0.73205081 0.73205081
v 10.00000000 5.00000000 1.53589838
v 10.00000000 6.00000000 1.53589838
v 10.00000000 3.00000000 1.53589838
v 10.00000000 7.00000000 1.53589838
v 10.00000000 4.00000000 1.53589838
v 3.41157051 3.06948407 1.87950755
v 3.56548390 2.95252263 1.36818220
v 3.18606563 3.27963896 1.39030200
v 3.57245672 7.05234504 9.50055018
v 3.27066779 6.80538364 8.93610572
v 3.69680537 7.13346754 8.94836146
v 3.34242111 3.12852138 0.91100981
v 4.95887747 7.49966176 9.45752703
v 4.37276302 7.42003590 9.47902726
v 4.65544800 7.47614295 8.95695417
v 4.35658166 2.58421589 8.98386729
v 4.53309852 2.54398636 9.47515193
v 4.84149055 2.50503011 8.99526721
v 2.62235871 4.22745751 9.54758572
v 2.79942941 3.81362356 8.99913761
v 2.60391000 4.28673098 8.99993381
v 2.53750000 5.43138585 4.25000000
v 2.68038233 5.93240219 4.50681965
v 2.53750000 5.43138585 4.75000000
v 6.87383463 3.34508497 9.45679679
v 5.03681149 2.50027103 9.45810672
v 5.16381358 7.49462725 8.95280256
v 4.06640887 2.68086059 9.46998012
v 6.32850123 2.88219820 9.00376572
v 6.48078340 2.98573077 9.47941365
v 6.72900880 3.19430662 8.99645772
v 2.84175735 3.73825967 9.51894035
v 2.84874102 3.72638906 1.41838843
v 3.06959141 3.41144006 1.89269337
v 2.84604571 3.73095276 1.95164165
v 2.55163501 5.50547887 5.30311020
v 2.70810488 5.99860740 5.38199460
v 2.62253194 5.77307544 5.80030209
v 5.99956271 7.29147865 9.49693800
v 5.68249549 7.40503636 8.96024791
v 6.17283438 7.20781782 8.96870989
v 2.62832095 5.79065701 2.28829702
v 2.54920952 5.49358485 1.79610392
v 2.71193327 6.00734832 1.82958319
v 3.13950562 3.33010160 9.53866929
v 3.43525134 3.05024062 9.07145010
v 3.08855038 3.38867745 8.99848561
v 6.45274766 2.96541792 0.44299840
v 6.25560171 2.83818032 0.91894651
v 6.72969270 3.19496173 0.88286284
v 3.41469135 3.06692047 9.62868383
v 3.13956784 6.66996772 9.48451264
v 6.83941344 6.69309131 9.48163892
v 6.60977330 6.91275453 8.97378473
v 6.96411776 6.54668724 8.97164734
v 3.77881716 2.81855267 0.91120429
v 7.36886299 5.79905454 9.48637600
v 7.24736888 6.09514069 8.97976216
v 7.42307182 5.61540470 8.97842327
v 2.50000000 5.00000000 0.50000000
v 2.50000000 5.00000000 1.00000000
v 2.55647218 4.47163289 0.90169680
v 5.48868098 7.45177301 9.47145241
v 2.54964107 5.49572283 0.85265094
v 7.48910265 4.76683056 9.49101025
v 7.49847167 5.08740319 8.98635058
v 7.46406928 4.57767006 8.98511822
v 3.67348058 2.88095629 9.44479505
v 6.45450605 7.03332539 9.47730455
v 7.17204763 3.76217565 9.52757928
v 7.32567518 4.08281139 8.98452453
v 7.07213033 3.60133068 8.98328346
v 2.81016541 6.20607814 8.50692912
v 3.09613915 6.62028203 8.50179381
v 2.91777310 6.38359355 9.04387081
v 5.27029592 2.51465493 0.91256230
v 4.73964361 2.51359405 0.90318023
v 5.05736137 2.50065815 1.40414155
v 3.85498359 2.77762797 1.88200253
v 4.33832011 2.58915373 1.86971335
v 4.04288618 2.69046906 1.38195757
v 7.15046593 6.27494952 9.48135216
v 2.63120689 5.79926166 1.33951250
v 2.52399349 5.34553115 5.75000000
v 7.48307303 5.29042783 9.48619848
v 5.84446459 2.64694251 1.86023058
v 6.04237840 2.72767800 1.36350159
v 5.58515980 2.56944698 1.39900214
v 2.53081967 4.60865808 0.38179624
v 2.54531576 4.52615902 4.19468997
v 2.68390025 4.05889322 4.11054692
v 2.61226184 4.25925275 3.69992092
v 5.77963666 2.62467546 0.91203910
v 2.52982572 5.38501823 0.38089011
v 7.38676636 4.25612747 9.49677553
v 6.52717519 3.02067285 1.36921239
v 2.52651304 5.36312846 2.25474072
v 5.53708652 2.55837389 9.53198960
v 5.88637871 2.66240876 9.02175865
v 5.36261739 2.52643807 9.00146161
v 7.20712551 3.82586330 1.39389182
v 7.40007374 4.30025287 1.39634260
v 7.30949077 4.04278928 0.86767641
v 2.53964601 4.55653834 5.23735157
v 2.67117207 4.09084630 4.98452042
v 2.53750000 4.56861415 4.75000000
v 2.61172309 4.26099160 6.27169117
v 2.68665066 4.05215253 5.85991243
v 2.54809017 4.51200598 5.79241876
v 6.05379549 2.73295014 9.50702657
v 2.66196899 4.11478195 8.53039888
v 2.53750000 4.56861415 8.25000000
v 2.53207272 4.60083221 8.69359225
v 4.55484763 2.53995135 1.40966748
v 4.25566669 2.61337730 0.91154294
v 2.63943912 5.82325714 3.97010467
v 2.70132615 4.01709689 1.78779056
v 2.83390390 6.24820978 1.35396557
v 6.32141080 2.87776686 1.85528569
v 6.73559491 3.20063614 1.85076010
v 3.24702487 3.21756397 7.64492917
v 2.89631117 3.64926194 7.61490861
v 3.08395223 3.39414791 8.10945787
v 2.50000000 5.00000000 3.00000000
v 2.50000000 5.00000000 2.50000000
v 2.55227638 5.50857556 2.74508643
v 2.64034429 5.82584802 4.97604424
v 2.67123687 5.90931968 8.90560346
v 2.62749287 4.21183129 1.33620404
v 2.55388709 4.48373298 1.74615735
v 2.62784838 4.21076194 8.00832931
v 2.80066355 3.81133723 8.08490345
v 2.66894115 4.09658170 7.57299845
v 2.50000000 5.00000000 9.00000000
v 2.53275652 4.59662720 9.31321578
v 2.52282809 4.66292533 3.74127870
v 5.34120462 2.52339357 1.87416812
v 2.55532821 5.52304862 9.24439662
v 2.53748826 5.43131884 8.75011738
v 2.60919988 4.26919581 2.76582374
v 2.69293134 4.03696615 2.30628405
v 2.53748826 4.56868116 2.24988262
v 2.70886675 6.00035414 9.27932174
v 2.60907561 4.26960246 2.01966353
v 2.96051647 6.44585855 2.74833655
v 3.13000071 6.65924762 2.27374761
v 3.29910214 6.83219717 2.72796043
v 2.70394708 5.98901012 6.25431101
v 2.54553385 5.47496938 6.25057042
v 3.51062398 7.00792407 2.24905763
v 2.83493649 6.25000000 9.54758572
v 7.07097045 3.59961384 0.91681545
v 7.21319388 3.83734233 0.40886517
v 6.00825589 7.28766695 0.45755346
v 6.22708512 7.17813271 0.91226260
v 5.73099121 7.39074295 0.92153169
v 3.07273990 3.40762174 7.18928812
v 2.97109626 6.46066752 1.81431539
v 5.96096707 7.30793031 1.37577207
v 2.82346522 6.22991721 2.31373610
v 3.95732125 7.27218420 9.36147906
v 3.71977933 7.14733208 2.70652937
v 3.94040425 7.26434469 3.15107942
v 3.48610207 6.98950070 3.17659970
v 7.00095913 3.50127970 0.51908500
v 2.64220702 5.83115118 6.65771059
v 2.52351026 4.65794947 6.25395905
v 2.53869413 4.56185226 7.27201819
v 2.53966954 4.55640782 7.75727960
v 6.93070103 3.41179550 1.39735483
v 3.44945485 3.03892638 7.20968958
v 2.53626279 5.42426284 3.26162880
v 7.49289283 4.81162452 1.39635408
v 7.45374926 4.52134088 0.90273646
v 3.93675421 7.26263306 4.03653315
v 4.17120859 7.35862350 4.48334195
v 3.69882646 7.13470078 4.49934206
v 7.49989271 5.02316121 0.91021219
v 7.47926046 5.32135270 1.38826857
v 3.48820459 6.99109885 4.05920048
v 3.71547547 7.14476030 3.58466508
v 3.29296145 6.82647731 3.61813107
v 7.44327479 5.52953595 0.90794636
v 2.51889667 4.69319999 2.75000000
v 7.35276559 5.84527752 1.39208714
v 7.28135039 6.02246779 0.90605113
v 6.76202819 3.22651285 0.37273085
v 7.12621462 6.31499482 1.39065809
v 7.01924286 6.47399399 0.90615431
v 2.63191856 4.19863223 5.46533546
v 2.63290954 5.80429022 9.60258348
v 6.66189263 6.86764903 0.90688653
v 6.41497874 7.06102769 1.38299560
v 6.80728916 6.72734070 1.38555608
v 3.97385807 7.27970014 9.71243035
v 3.25582431 3.20895250 6.76254916
v 3.07713502 3.40231722 6.29870442
v 2.92251675 3.60929394 6.73943675
v 2.54542904 4.52557254 6.74003797
v 2.68757258 4.04990557 6.72112013
v 5.51977923 7.44536900 0.45241428
v 5.20871573 7.49127231 0.91989351
v 4.99499458 7.49999499 0.44955430
v 3.14626782 3.32259814 0.45508524
v 3.54731165 2.96537558 0.46560784
v 3.44430135 3.04301208 5.43573017
v 3.65212006 2.89447876 4.99411292
v 3.24856426 3.21605133 4.98621508
v 3.92925353 7.25909318 5.82168773
v 3.48100891 6.98561478 5.83394437
v 3.69868687 7.13461569 5.37473762
v 2.62923400 4.20660944 4.50954972
v 4.17024913 7.35828614 5.36531883
v 3.44224147 3.04465134 6.32193887
v 3.92024522 7.25480146 6.71891453
v 3.69799121 7.13419144 6.27329475
v 4.16810154 7.35752942 6.26495238
v 3.65489098 2.89270749 5.87909626
v 3.25345080 3.21126696 5.87023532
v 3.28867039 6.82245740 5.38284209
v 4.94778124 7.49945458 1.36794183
v 4.43602514 7.43555586 1.36512121
v 4.70886229 7.48298990 0.89977882
v 3.08126285 3.39736225 5.43075378
v 2.63138237 5.79978155 7.55089216
v 2.52532214 5.35492183 7.25987409
v 2.59928922 5.69755842 7.02342770
v 2.74297406 6.07509716 7.11944889
v 4.41761717 7.43121991 5.81526168
v 4.91523326 7.49856251 6.72525644
v 4.40643565 7.42851423 6.72087879
v 4.66509113 7.47746565 6.26746458
v 2.54186894 4.54437769 3.24283470
v 2.68122747 4.06549801 3.23103811
v 3.74530271 7.16234473 0.90556034
v 4.21509305 7.37358823 0.90218382
v 3.96081831 7.27378570 1.35576762
v 2.63712528 4.18340766 7.09943852
v 3.44424817 3.04305436 4.55641011
v 3.64917757 2.89636534 4.11177085
v 3.24919191 3.21543534 4.10970828
v 2.53432694 5.41286360 6.76228777
v 3.07747748 3.40190515 4.54503541
v 3.66344835 2.88726962 6.77079305
v 3.88340868 2.76321127 6.32575047
v 3.99604915 2.71044050 0.45475617
v 4.83233780 2.50562846 1.87719280
v 3.98155707 7.28315001 0.45508307
v 6.01331136 2.71456786 0.45177329
v 4.47513460 7.44428237 0.45170679
v 3.93187651 7.26033454 4.92117022
v 3.43915267 3.04711608 3.67308107
v 3.24321002 3.22132381 3.22822809
v 3.07278737 3.40756430 3.66963808
v 2.82866269 6.23906993 6.69979249
v 2.95061120 6.43178404 7.15886867
v 3.45427086 3.03512814 8.10432019
v 3.48638860 6.98971870 4.94079490
v 3.10717900 6.63316523 6.71526433
v 3.64240103 2.90073226 3.22629873
v 3.28104745 6.81526916 7.16173064
v 2.81805331 6.22029039 5.82648390
v 2.84174957 3.73827298 0.44674357
v 2.63608786 4.18641570 0.43322040
v 2.72049481 3.97342508 0.89701048
v 3.86983679 2.77003787 3.67020772
v 4.09970474 2.66773320 3.22413090
v 2.72006858 6.02562797 0.89848866
v 4.86014043 2.50391521 4.54813737
v 5.37586966 2.52841711 4.53652648
v 5.11495637 2.50264439 4.09503421
v 2.98202759 3.52426718 0.90485075
v 2.84024879 6.25915634 0.44555243
v 3.14029954 6.67078251 0.45084754
v 2.97636346 6.46795612 0.89953079
v 2.95222858 6.43409630 6.27094759
v 5.39115367 2.53078984 7.21638434
v 4.87500735 2.50312659 7.20952115
v 5.13684911 2.50374835 7.66295687
v 7.46507909 4.58360465 6.30348025
v 7.49512257 4.84391235 5.85304739
v 7.40758587 4.32655345 5.85970842
v 3.88234716 2.76374149 5.44392395
v 5.18128313 7.49341862 6.27196601
v 4.92391028 7.49884180 5.81581059
v 5.43978794 7.46101332 5.82658490
v 7.31620837 4.05916060 1.85957227
v 7.46119672 4.56123958 1.85247374
v 4.11421818 2.66218252 4.99686816
v 5.12160486 2.50295930 4.98947786
v 3.52701066 7.01997584 0.45505663
v 5.63190722 2.58117936 4.98076035
v 3.26026373 3.20463995 8.55776440
v 2.63557143 5.81208223 0.43290949
v 2.80167470 3.80946823 7.15179719
v 4.60149857 2.53196503 4.10530705
v 2.79030914 3.83069837 3.67094013
v 2.81141920 6.20835180 7.59978706
v 2.72735305 6.04166974 8.02094445
v 3.32137462 6.85262431 0.90203722
v 3.31611473 6.84784479 1.79440617
v 3.10938285 6.63571599 5.83174976
v 3.47845132 6.98365562 6.71882718
v 5.38187875 2.52933842 5.43062492
v 5.88106742 2.66040170 5.42658519
v 7.49827486 5.09285866 4.51020141
v 7.46323490 4.57283047 4.51413526
v 7.49456746 4.83527848 4.96289235
v 3.86192222 2.77406672 2.78209691
v 5.13970877 2.50390676 8.55987584
v 5.39640837 2.53162799 8.11353046
v 4.88245846 2.50276473 8.10687659
v 5.18600469 7.49307085 5.37519056
v 5.69402500 7.40173464 5.38174637
v 2.91848578 3.61533449 3.22938614
v 2.94346994 6.42150770 8.04367064
v 3.89456247 2.75767802 8.10308242
v 3.66798896 2.88440397 7.65804606
v 2.93131207 3.59624424 8.55588623
v 3.13686845 6.66695556 1.34743237
v 5.64214316 2.58387663 6.76972959
v 5.88613436 2.66231612 6.32148121
v 5.38683129 2.53010900 6.32285172
v 6.11551612 2.76267486 4.97667096
v 4.42796098 7.43367446 4.02922503
v 4.36066580 2.58313182 5.43863186
v 5.51889025 2.55444221 0.45193157
v 5.00163102 2.50000053 0.45196313
v 2.71412937 6.01232183 2.74399598
v 4.62342316 2.52852476 7.65871691
v 5.87544624 2.65829253 4.53029813
v 3.10216551 6.62733655 7.60312041
v 2.78866849 3.83380407 2.79199963
v 3.68809903 7.12812496 7.16456275
v 3.23628536 3.22819000 2.34340327
v 2.92573099 3.60450437 2.36075479
v 5.13271147 2.50352495 6.76834693
v 4.15147670 7.35159695 7.16883337
v 6.33834757 2.88840681 4.52714199
v 7.49781890 5.10440660 6.29931850
v 7.42201352 5.61955672 6.29559160
v 7.47347719 5.36319498 5.84645496
v 3.06978018 3.41121070 2.78975103
v 7.40588867 4.32051511 4.96763426
v 3.28665295 6.82056087 6.27353348
v 4.48682299 2.55323696 0.45287231
v 2.82790769 6.23774594 4.95620378
v 2.95469228 6.43760784 5.38675350
v 5.94639556 7.31394370 2.28056024
v 5.70042173 7.39987696 2.71894627
v 5.44999833 7.45916683 2.27312605
v 7.47453136 5.35594177 4.95874107
v 6.12512746 2.76749285 6.76896547
v 5.44589234 7.45991464 4.93052739
v 5.94277043 7.31542305 4.93573209
v 3.63702625 2.90421791 2.34108314
v 3.43138471 3.05335004 2.78480931
v 3.87702204 2.76641085 4.55593544
v 3.67088707 2.88258204 8.54936850
v 2.92112352 3.61137746 4.10765206
v 4.11971493 2.66010723 5.88386772
v 4.61524225 2.52978514 5.88068702
v 4.86805405 2.50348437 5.43498927
v 7.24113132 6.10784946 6.29254143
v 7.11426324 6.33412554 5.84043029
v 7.34486599 5.86695068 5.84250106
v 3.11160627 6.63828236 4.94953576
v 5.12827761 2.50329320 5.87810616
v 6.74578137 3.21051756 4.52359994
v 6.54807870 3.03697877 4.07608472
v 4.65229249 7.47570182 7.17335174
v 5.63751054 2.58265015 5.87555044
v 3.51809528 7.01344441 1.35155013
v 7.07825567 3.61044850 4.52048416
v 6.92033976 3.39928291 4.07198029
v 5.62513144 2.57941935 4.08625259
v 4.42057174 7.43192576 4.92113697
v 4.18243637 7.36253883 3.58354473
v 2.95979216 6.44483631 3.63048741
v 2.83019378 6.24174915 4.06171381
v 2.74798950 6.08556377 3.59470636
v 2.79503495 3.82181108 6.29573333
v 6.10994100 2.75990380 4.08004074
v 5.86749719 2.65533614 3.63967246
v 5.64664194 2.58507677 7.66839036
v 5.88985200 2.66372874 7.21906256
v 6.96303867 6.54805658 6.28980698
v 4.60918051 2.53073693 4.99347449
v 2.92505477 3.60551003 4.98339114
v 2.80281421 3.80736652 4.53551092
v 3.11453525 6.64165242 4.07169186
v 2.95672088 6.44048966 4.51065058
v 6.61165373 6.91117039 2.73304772
v 6.80322086 6.73158728 2.28794066
v 6.97328896 6.53496927 2.73514857
v 6.17295697 7.20775269 5.38730723
v 2.82305689 6.22919432 3.19267884
v 6.17964544 7.20418616 2.72960075
v 6.74033941 3.20522460 3.62739241
v 7.32226443 4.07420957 5.41746046
v 7.46408005 4.57773290 5.41527892
v 3.27655232 6.81100195 8.04760580
v 3.47362110 6.97994127 7.60640956
v 4.67827917 7.47921272 4.47749949
v 5.43037125 7.46267752 6.72996727
v 5.16970291 7.49423353 7.17731146
v 5.45589490 7.45808052 1.37621312
v 5.70375955 7.39890027 1.82858903
v 5.19546335 7.49234710 1.82299192
v 6.46934525 7.02262813 0.45194792
v 6.18501128 7.20130603 1.83231896
v 6.40518140 7.06771981 2.28420174
v 2.92600892 3.60409134 5.86197788
v 2.80312551 3.80679319 5.43162970
v 6.59990765 6.92101419 6.28727451
v 6.79212688 6.74306662 5.83863121
v 6.55277687 3.04069298 4.97379538
v 5.68822348 7.40340351 6.28038729
v 7.47319078 5.36514022 6.74830872
v 6.34352685 2.89169840 5.42340525
v 5.92983775 7.32064684 6.73285665
v 5.68100167 7.40545977 7.18085882
v 6.12073382 2.76528398 5.87255752
v 4.09417006 2.66987723 2.33654150
v 7.24778684 6.09428256 2.74455675
v 7.35073854 5.85089853 2.29512097
v 7.42618701 5.60300630 2.74381482
v 7.21017494 3.83161362 4.06813843
v 4.35487777 2.58467035 4.55245414
v 6.16813581 7.21030738 6.28476601
v 5.93489334 7.31861477 5.83425038
v 4.10810337 2.66450853 4.11193810
v 7.07448921 3.60483173 3.61920220
v 7.40439064 4.31523313 4.06431541
v 7.46215582 4.56665406 3.61116684
v 7.31859156 4.06504909 3.61502615
v 7.12309925 6.32001878 2.29154339
v 7.32112870 4.07136575 4.51736396
v 7.21260487 3.83622180 4.96904444
v 3.72977808 7.15326177 1.79863179
v 6.38966657 7.07817873 6.73581878
v 6.16355233 7.21272365 7.18431282
v 3.89082410 2.75952487 7.21356788
v 4.36636676 2.58163094 6.32525636
v 6.61520610 6.90816908 1.83553798
v 6.33228541 2.88457674 3.63049649
v 6.39274043 7.07611996 5.83621495
v 6.78979762 6.74545825 6.73890126
v 6.59621813 6.92408099 7.18777977
v 4.12367165 2.65862249 6.76919271
v 7.47613246 5.34462740 2.29863593
v 6.32703361 2.88127826 2.75357597
v 6.09858022 2.75431046 2.31459548
v 5.85692744 2.65145250 2.76018162
v 7.11252732 6.33687259 6.74199428
v 6.96009430 6.55178295 7.19117562
v 7.40285522 4.30986466 2.30552590
v 7.31872229 4.06537337 2.75739613
v 7.46212101 4.56645632 2.75357695
v 4.87350280 2.50320236 6.32376977
v 7.34371932 5.87004584 6.74511408
v 4.34191882 2.58816892 2.77880385
v 4.39456040 7.42558094 7.61684895
v 3.95419480 7.27074690 2.24742048
v 6.97573937 6.53181394 1.83872060
v 7.48660867 4.74158691 0.45094268
v 7.20750678 3.82658029 2.30847065
v 7.07331030 3.60308039 2.75486394
v 6.12962585 2.76976561 7.66644385
v 4.18950656 7.36497366 2.69704507
v 6.91621309 3.39434518 2.31053453
v 6.92389980 3.40356348 4.97074119
v 7.08016547 3.61330911 5.41906794
v 7.40879060 4.33087530 8.53383572
v 7.21808433 3.84669957 8.54111482
v 7.23911719 6.11191467 7.19455515
v 7.25046604 6.08876195 1.84211309
v 6.73876341 3.20369774 2.75543147
v 6.35278042 2.89762393 7.21610532
v 7.49412593 4.82872286 4.06064437
v 7.49850030 5.08658093 3.60921002
v 7.49848763 5.08694584 2.75076235
v 7.49375170 4.82335783 2.30212159
v 7.48630638 5.26130555 0.45240318
v 7.49513331 4.84408412 8.53053950
v 6.97079250 6.53817324 4.49810692
v 7.11782478 6.32846460 4.94958614
v 6.79704751 6.73799317 4.94503770
v 7.37764129 5.77254249 0.45241428
v 7.42738513 5.59816507 1.84540793
v 7.38100796 4.23789694 0.44683061
v 7.40871649 4.33060860 6.75505368
v 7.49515093 4.84436636 6.75164734
v 6.61044040 6.91219290 4.49402278
v 7.42483278 5.60842912 4.50592895
v 7.34703919 5.86104996 4.95321672
v 7.16509398 6.24994722 0.45228122
v 6.85755911 6.67316292 0.45209073
v 7.47296627 5.36665765 8.52724646
v 7.32450118 4.07984009 6.30833145
v 7.42098470 5.62356484 7.19783465
v 7.24630135 6.09732868 4.50196148
v 7.47546410 5.34939590 4.05702980
v 7.34345725 5.87075147 8.52394278
v 7.49867260 5.08145708 1.84890275
v 7.49766215 5.10809147 7.20107499
v 6.54096927 3.03139295 2.31140820
v 7.11107446 6.33916564 8.52061362
v 5.42447040 7.46370146 7.62766379
v 4.90670225 7.49825850 7.62233241
v 6.13378536 2.77187730 8.56562891
v 5.89424919 2.66540831 8.11680962
v 5.65074852 2.58618013 8.56686955
v 7.42610161 5.60334980 3.60835851
v 4.43208464 7.43464004 3.14367605
v 6.74930318 3.21396014 5.42093904
v 7.21785482 3.84625825 6.75897803
v 7.46581783 4.58800188 7.20424389
v 6.78841374 6.74687616 8.51739042
v 6.38484933 7.08139192 7.63556152
v 4.68483918 7.48005517 3.58593732
v 6.09971314 2.75486503 3.19551032
v 7.10951328 6.34162354 7.64387896
v 7.34940412 5.85457608 4.05350906
v 7.12172210 6.32223119 4.05000465
v 7.24772692 6.09440564 3.60709398
v 7.49549261 4.84994449 7.65382477
v 7.34183983 5.87509213 7.64732543
v 7.47238360 5.37056620 7.65068366
v 6.80249741 6.73234035 4.04658419
v 6.97377626 6.53434262 3.60270575
v 7.32696289 4.08608332 7.20738134
v 7.41019614 4.33595591 7.65680260
v 4.59107689 2.53367036 2.32938538
v 5.10451735 2.50218573 2.32566441
v 6.18137824 7.20325792 4.48990956
v 6.39948283 7.07158099 4.94064243
v 7.08731891 3.62410038 7.21031610
v 7.21933565 3.84910936 7.65703157
v 7.07153479 3.60044878 1.85974303
v 6.38648357 7.08030366 8.51408044
v 6.40602670 7.06714511 4.04319472
v 6.61278073 6.91021944 3.60045112
v 6.92651852 3.40672463 5.86739073
v 5.92441869 7.32281081 8.51062478
v 6.78572700 6.74962255 7.63992646
v 4.67046431 7.47818608 5.36831974
v 4.93875288 7.49924965 4.03347254
v 6.75781990 3.22234165 7.21327332
v 6.93350375 3.41520877 7.66019032
v 5.42334310 7.46389542 8.50713504
v 5.92437213 7.32282934 7.63102852
v 7.49802624 5.09932220 5.40639308
v 5.94981383 7.31254269 4.03990246
v 6.18326611 7.20224461 3.59547731
v 5.19397781 7.49246316 4.48161667
v 5.70226516 7.39933817 4.48577575
v 6.93101439 3.41217651 6.76257530
v 7.08409086 3.61921570 6.31357071
v 6.75247746 3.21707467 6.31649886
v 6.56134509 3.04751402 6.76592814
v 3.28979194 6.82350991 4.51239156
v 3.88974420 2.76005981 8.98946796
v 4.13353988 2.65495269 8.54787550
v 4.90684959 7.49826400 8.50400914
v 5.45355257 7.45851379 4.03681806
v 5.70233491 7.39931775 3.59402010
v 4.15203934 7.35179989 8.94490306
v 3.90929087 7.24952297 8.49770936
v 4.39381658 7.42539516 8.49993751
v 4.93211731 7.49907822 4.92477868
v 6.34797561 2.89454001 6.31900076
v 6.35723983 2.90050005 8.11432385
v 6.56806233 3.05290459 8.55493832
v 5.61440164 2.57667365 2.32034975
v 4.12942465 2.65647732 7.65589084
v 4.37564573 2.57921877 8.10156449
v 4.84989205 2.50451055 2.77471368
v 4.59553925 2.53293464 3.22059813
v 5.10601931 2.50224903 3.21523936
v 3.68235129 7.12457098 8.05176516
v 4.61959780 2.52911065 6.76713142
v 6.56546546 3.05081610 7.66355603
v 5.36358174 2.52657963 2.76982224
v 2.50000000 5.00000000 5.50000000
v 2.50000000 5.00000000 6.00000000
v 2.50000000 5.00000000 5.00000000
v 4.34679332 2.58684418 3.66597308
v 3.46897806 6.97635316 8.49653708
v 3.11356173 6.64053365 3.19074180
v 7.08681306 3.62333327 8.10113484
v 7.32797466 4.08866362 8.09323076
v 2.50000000 5.00000000 4.50000000
v 2.50000000 5.00000000 7.00000000
v 2.50000000 5.00000000 6.50000000
v 2.50000000 5.00000000 4.00000000
v 3.90916367 7.24946129 7.60990567
v 4.69013485 7.48072239 2.69705750
v 2.50000000 5.00000000 3.50000000
v 2.52776474 5.37155461 3.76314370
v 6.55667983 3.04379247 5.86963387
v 2.50000000 5.00000000 7.50000000
v 4.19606156 7.36720996 1.80316294
v 4.62747102 2.52791138 8.54706679
v 6.60332981 6.91815889 5.39095639
v 6.75925961 3.22376645 8.11007491
v 5.19785111 7.49215869 3.59042808
v 2.50000000 5.00000000 2.00000000
v 5.61218824 2.57611354 3.20783869
v 2.50000000 5.00000000 8.00000000
v 4.43928153 7.43630762 2.25079323
v 2.50000000 5.00000000 8.50000000
v 2.52425450 5.34739634 8.25400309
v 4.36971289 2.58075670 7.21116149
v 2.50000000 5.00000000 1.50000000
v 6.96551956 6.54490545 5.39408172
v 4.94350103 7.49936149 3.14325504
v 7.24289093 6.10428269 5.39710162
v 2.50000000 5.00000000 9.50000000
v 7.21461501 3.84005158 5.86410616
v 4.14524585 7.34933934 8.05512193
v 4.64764590 7.47504476 8.05954537
v 4.85123678 2.50443002 3.65977668
v 5.36633254 2.52698555 3.65095030
v 7.42301994 5.61560896 5.40049678
v 6.40534887 7.06760599 3.16367996
v 6.80167487 6.73319579 3.16714460
v 5.16346518 7.49465010 8.06274222
v 5.67622996 7.40680557 8.06694493
v 5.19358243 7.49249390 2.70785889
v 7.46615625 4.59003253 8.09058333
v 6.16046070 7.21434662 8.07098278
v 6.54287105 3.03288309 3.19298380
v 6.91693695 3.39520944 3.19112866
v 7.49758311 5.10990264 8.08781443
v 6.93124036 3.41245137 8.54255841
v 6.59414447 6.92579942 8.07466098
v 5.44726515 7.45966540 3.15236429
v 5.94270110 7.31545128 3.15684807
v 7.42026376 5.62635720 8.08400066
v 6.95800703 6.55441579 8.07742590
v 7.23811194 6.11393669 8.08138094
v 4.94258672 7.49934066 2.26083243
v 7.34957971 5.85409319 3.17383530
v 7.47580441 5.34697626 3.17843550
v 4.68819805 7.48047970 1.81268800
v 7.11997189 6.32503555 3.16823365
v 2.63056616 5.79736019 8.42279247
v 2.59020478 5.66549757 7.97208648
v 7.20779939 3.82713093 3.18901528
v 7.40308742 4.31067363 3.18610332
v 7.49381114 4.82419892 3.18278446
v 2.52457985 5.34970715 7.75000000
v 2.64440583 5.83736260 3.14781020
v 2.60492666 5.71667544 3.52612364
v 2.53201520 4.60118797 1.30421014
v 2.53013193 5.38697766 1.30283486
v 2.52943920 5.38253016 9.64400023
v 2.52341838 4.65861534 9.67159318
f 1 2 3
f 4 5 6
f 7 8 9
f 5 4 10
f 11 12 13
f 14 15 16
f 7 9 17
f 2 1 18
f 13 12 19
f 15 14 20
f 2 21 3
f 22 23 24
f 25 26 27
f 28 29 30
f 23 22 31
f 32 26 25
f 33 34 23
f 12 11 18
f 16 15 35
f 32 36 37
f 33 9 34
f 38 4 6
f 39 40 10
f 41 42 27
f 26 41 27
f 25 28 30
f 26 32 37
f 34 36 32
f 43 44 19
f 12 45 19
f 46 15 20
f 8 7 35
f 47 48 20
f 23 34 49
f 40 39 50
f 40 5 10
f 27 42 51
f 43 19 52
f 29 53 30
f 23 49 24
f 49 34 32
f 24 53 54
f 49 32 25
f 53 24 30
f 55 56 57
f 58 59 4
f 59 55 57
f 57 56 39
f 4 59 57
f 60 61 58
f 62 26 37
f 63 64 65
f 66 60 58
f 7 67 16
f 58 61 59
f 11 68 69
f 70 71 63
f 39 56 21
f 8 72 36
f 38 66 58
f 59 73 55
f 74 75 76
f 77 53 29
f 78 14 16
f 79 63 65
f 80 81 82
f 82 72 8
f 64 83 84
f 85 84 45
f 86 11 13
f 87 42 41
f 88 81 80
f 89 90 91
f 92 93 94
f 55 42 87
f 95 96 70
f 85 12 1
f 97 66 38
f 60 98 61
f 74 99 75
f 99 77 29
f 75 99 29
f 77 100 53
f 78 101 14
f 67 78 16
f 102 67 7
f 103 104 33
f 105 106 22
f 107 108 109
f 90 110 109
f 93 111 91
f 48 112 94
f 113 86 13
f 44 113 13
f 68 114 69
f 115 116 40
f 117 5 40
f 118 41 62
f 118 79 119
f 81 72 82
f 71 64 63
f 64 84 85
f 64 85 65
f 85 45 12
f 107 120 108
f 110 107 109
f 89 110 90
f 111 89 91
f 92 111 93
f 112 92 94
f 121 112 48
f 122 113 44
f 86 68 11
f 114 116 115
f 114 115 69
f 116 117 40
f 117 123 5
f 81 96 72
f 70 88 71
f 71 124 83
f 61 98 76
f 59 61 73
f 71 83 64
f 9 36 34
f 87 41 118
f 79 95 63
f 80 82 15
f 70 81 88
f 71 88 124
f 38 58 4
f 55 73 42
f 55 87 56
f 62 41 26
f 118 95 79
f 95 62 96
f 96 62 37
f 95 70 63
f 70 96 81
f 80 46 125
f 8 36 9
f 118 62 95
f 21 56 119
f 80 15 46
f 98 74 76
f 69 115 2
f 56 87 119
f 72 96 37
f 36 72 37
f 124 88 125
f 88 80 125
f 73 61 76
f 87 118 119
f 65 1 3
f 85 1 65
f 79 65 3
f 119 79 3
f 21 119 3
f 20 48 126
f 76 75 51
f 42 73 51
f 51 75 28
f 25 27 28
f 73 76 51
f 27 51 28
f 101 127 47
f 123 128 6
f 120 129 43
f 9 33 17
f 100 130 54
f 53 100 54
f 24 49 30
f 1 12 18
f 69 2 18
f 15 82 35
f 75 29 28
f 33 23 31
f 5 123 6
f 14 101 47
f 108 120 43
f 22 24 54
f 102 7 17
f 33 104 17
f 4 57 10
f 115 40 50
f 103 33 31
f 22 106 31
f 131 97 132
f 130 133 134
f 133 105 134
f 128 131 132
f 127 135 136
f 135 121 136
f 137 122 138
f 129 137 138
f 49 25 30
f 44 13 19
f 11 69 18
f 82 8 35
f 7 16 35
f 21 2 50
f 14 47 20
f 48 94 126
f 39 21 50
f 104 102 17
f 125 139 140
f 125 46 139
f 124 125 140
f 83 124 141
f 124 140 141
f 83 141 142
f 84 83 142
f 45 84 143
f 84 142 143
f 94 93 139
f 139 93 140
f 141 90 142
f 93 91 140
f 91 90 141
f 140 91 141
f 90 109 142
f 109 108 143
f 142 109 143
f 57 39 10
f 2 115 50
f 108 43 52
f 47 127 136
f 43 129 138
f 6 128 132
f 106 103 31
f 105 22 134
f 97 38 132
f 121 48 136
f 122 44 138
f 54 130 134
f 48 47 136
f 44 43 138
f 38 6 132
f 22 54 134
f 19 45 52
f 46 20 126
f 139 46 126
f 94 139 126
f 143 108 52
f 45 143 52
f 144 145 146
f 147 148 149
f 150 151 152
f 153 154 155
f 156 157 158
f 159 160 161
f 144 146 162
f 151 150 163
f 148 147 164
f 154 153 165
f 157 156 166
f 159 161 167
f 168 169 161
f 170 171 157
f 169 168 154
f 152 151 172
f 170 146 171
f 147 149 173
f 156 158 174
f 160 159 175
f 176 177 163
f 178 151 163
f 147 179 164
f 145 144 172
f 180 181 182
f 183 184 164
f 180 185 155
f 155 185 186
f 168 181 180
f 185 180 182
f 154 168 180
f 163 177 187
f 188 189 186
f 170 157 166
f 161 169 167
f 189 147 186
f 185 188 186
f 154 180 155
f 190 181 191
f 191 168 161
f 192 190 191
f 193 194 195
f 196 197 195
f 191 181 168
f 198 199 200
f 201 202 203
f 194 196 195
f 204 201 203
f 197 198 195
f 199 198 205
f 206 199 205
f 198 200 195
f 207 208 209
f 210 211 176
f 144 212 152
f 192 201 204
f 146 213 171
f 214 215 205
f 198 214 205
f 200 216 193
f 204 203 208
f 160 192 191
f 217 216 200
f 150 210 176
f 190 204 218
f 219 207 209
f 220 201 221
f 222 223 224
f 225 150 152
f 221 192 160
f 218 204 208
f 226 227 182
f 227 214 228
f 228 197 188
f 229 230 231
f 231 230 219
f 232 196 194
f 231 219 233
f 213 231 171
f 233 219 234
f 219 209 234
f 206 235 199
f 233 234 158
f 116 236 237
f 192 204 190
f 231 233 171
f 200 193 195
f 229 231 213
f 189 196 232
f 113 183 238
f 239 86 238
f 68 239 240
f 236 114 240
f 117 116 237
f 241 117 237
f 242 220 221
f 220 202 201
f 243 244 245
f 244 222 224
f 245 244 224
f 222 246 223
f 225 210 150
f 212 225 152
f 247 212 144
f 248 249 170
f 250 251 156
f 148 252 149
f 253 153 149
f 221 201 192
f 226 218 254
f 226 254 227
f 181 226 182
f 227 254 215
f 227 215 214
f 215 230 229
f 228 214 197
f 197 214 198
f 228 188 185
f 189 232 179
f 189 179 147
f 113 122 183
f 86 113 238
f 68 86 239
f 114 68 240
f 116 114 236
f 123 117 241
f 255 252 148
f 252 253 149
f 253 256 153
f 257 258 169
f 259 260 159
f 215 229 205
f 188 196 189
f 188 197 196
f 217 235 151
f 227 228 182
f 206 213 145
f 190 218 226
f 206 145 235
f 217 151 178
f 190 226 181
f 254 218 207
f 215 254 230
f 229 213 206
f 229 206 205
f 145 213 146
f 171 233 157
f 160 191 161
f 199 235 217
f 199 217 200
f 217 178 216
f 202 243 203
f 228 185 182
f 219 230 207
f 157 233 158
f 218 208 207
f 243 245 203
f 208 245 209
f 230 254 207
f 245 224 209
f 203 245 208
f 209 224 234
f 234 223 158
f 224 223 234
f 153 155 173
f 183 164 261
f 262 242 175
f 246 263 174
f 264 255 184
f 128 123 177
f 221 160 175
f 158 223 174
f 146 170 162
f 169 154 165
f 151 235 172
f 223 246 174
f 242 221 175
f 255 148 184
f 123 241 177
f 247 144 162
f 170 249 162
f 248 170 166
f 156 251 166
f 169 258 167
f 259 159 167
f 257 169 165
f 153 256 165
f 186 147 173
f 263 265 266
f 265 250 266
f 267 262 268
f 260 267 268
f 122 137 269
f 137 264 269
f 211 131 270
f 131 128 270
f 150 176 163
f 149 153 173
f 235 145 172
f 144 152 172
f 155 186 173
f 184 148 164
f 238 183 261
f 249 247 162
f 236 271 272
f 271 193 272
f 194 193 271
f 241 237 273
f 237 236 272
f 273 237 272
f 240 239 274
f 239 238 275
f 274 239 275
f 251 248 166
f 236 240 271
f 232 274 275
f 179 232 275
f 232 194 274
f 193 216 272
f 240 274 271
f 258 259 167
f 216 273 272
f 274 194 271
f 216 178 273
f 256 257 165
f 177 241 187
f 262 175 268
f 174 263 266
f 264 184 269
f 128 177 270
f 250 156 266
f 176 211 270
f 183 122 269
f 159 260 268
f 175 159 268
f 184 183 269
f 177 176 270
f 156 174 266
f 178 163 187
f 164 179 261
f 275 238 261
f 179 275 261
f 273 178 187
f 241 273 187
f 276 277 278
f 279 280 281
f 282 283 284
f 285 286 287
f 288 289 290
f 278 277 291
f 292 293 294
f 294 295 292
f 285 296 286
f 297 282 284
f 289 284 290
f 298 299 300
f 276 278 301
f 281 280 302
f 303 304 305
f 292 295 306
f 307 308 98
f 309 293 292
f 310 298 300
f 311 312 212
f 77 292 306
f 286 313 247
f 314 315 316
f 212 312 317
f 74 308 309
f 318 319 320
f 321 322 323
f 324 321 323
f 325 326 327
f 328 296 285
f 329 330 331
f 247 313 311
f 332 333 334
f 335 322 321
f 336 337 294
f 338 339 340
f 284 341 297
f 316 342 314
f 343 331 344
f 345 304 346
f 340 339 347
f 348 288 290
f 251 325 349
f 329 324 330
f 350 351 276
f 320 299 352
f 353 336 354
f 337 295 294
f 355 293 309
f 308 355 309
f 98 356 307
f 98 308 74
f 287 286 249
f 357 293 355
f 358 359 360
f 361 362 359
f 305 304 345
f 309 292 99
f 363 326 325
f 225 317 364
f 357 365 366
f 367 298 368
f 364 369 282
f 249 286 247
f 364 297 370
f 317 369 364
f 349 287 248
f 302 338 340
f 247 311 212
f 371 372 373
f 374 347 323
f 310 300 375
f 74 309 99
f 320 352 318
f 351 376 276
f 276 376 342
f 316 315 377
f 350 276 301
f 374 323 378
f 251 349 248
f 225 364 210
f 371 379 372
f 331 330 344
f 323 322 378
f 77 306 100
f 380 381 382
f 383 367 368
f 66 384 60
f 281 278 279
f 385 324 329
f 364 370 210
f 386 372 387
f 300 388 346
f 383 335 367
f 332 334 344
f 320 319 389
f 287 390 285
f 391 328 285
f 392 295 337
f 332 339 333
f 336 294 354
f 393 339 332
f 212 317 225
f 381 363 382
f 375 304 303
f 306 394 100
f 385 321 324
f 250 325 251
f 368 298 310
f 99 292 77
f 395 351 350
f 66 396 384
f 305 397 303
f 248 287 249
f 392 398 295
f 372 379 387
f 340 347 374
f 399 331 343
f 400 288 348
f 361 312 362
f 401 336 353
f 402 357 366
f 403 390 349
f 297 404 370
f 405 359 358
f 352 406 385
f 341 407 384
f 359 362 360
f 352 299 298
f 349 327 403
f 394 376 351
f 333 280 408
f 325 327 349
f 367 352 298
f 409 335 383
f 210 370 211
f 370 404 396
f 357 355 365
f 302 280 338
f 382 363 410
f 346 304 300
f 100 394 130
f 290 283 411
f 412 413 414
f 97 396 66
f 323 393 324
f 349 390 287
f 289 407 341
f 265 415 250
f 300 304 375
f 133 416 395
f 417 418 419
f 413 403 414
f 420 315 314
f 421 411 422
f 423 319 318
f 284 283 290
f 318 352 385
f 410 415 265
f 130 416 133
f 131 424 97
f 419 418 409
f 211 424 131
f 425 315 420
f 321 406 335
f 360 362 296
f 426 319 423
f 290 411 427
f 428 412 373
f 394 398 376
f 347 393 323
f 412 414 373
f 373 372 429
f 377 315 430
f 431 411 421
f 391 412 432
f 391 413 412
f 364 282 297
f 433 355 308
f 434 328 391
f 422 283 282
f 344 334 435
f 367 406 352
f 389 319 436
f 437 333 408
f 330 393 332
f 438 408 439
f 380 397 381
f 440 438 377
f 441 372 386
f 442 365 433
f 335 418 322
f 347 339 393
f 346 388 443
f 360 328 444
f 445 334 437
f 446 443 389
f 365 355 433
f 338 280 333
f 295 398 306
f 345 346 447
f 448 365 442
f 408 279 439
f 381 397 449
f 437 438 450
f 428 373 429
f 425 420 401
f 348 290 427
f 426 423 399
f 386 447 451
f 438 439 377
f 378 322 417
f 289 341 284
f 330 332 344
f 452 447 443
f 343 344 435
f 431 421 405
f 434 391 432
f 440 377 430
f 334 333 437
f 430 315 425
f 414 371 373
f 360 296 328
f 316 277 342
f 436 319 426
f 443 388 389
f 427 411 431
f 386 345 447
f 432 412 428
f 384 356 60
f 429 372 441
f 446 389 436
f 353 354 402
f 448 442 400
f 441 386 451
f 437 408 438
f 444 328 434
f 445 437 450
f 358 360 444
f 435 334 445
f 381 326 363
f 452 443 446
f 447 346 443
f 450 438 440
f 366 365 448
f 420 314 337
f 396 404 384
f 421 422 361
f 439 316 377
f 386 387 345
f 451 447 452
f 423 331 399
f 314 342 392
f 391 285 413
f 403 327 453
f 407 356 384
f 423 318 329
f 414 403 453
f 420 336 401
f 294 293 354
f 396 424 370
f 454 289 288
f 306 398 394
f 60 356 98
f 333 339 338
f 335 406 367
f 442 288 400
f 388 320 389
f 342 277 276
f 421 359 405
f 354 357 402
f 442 433 454
f 453 455 371
f 354 293 357
f 250 415 325
f 395 416 351
f 342 376 392
f 433 308 307
f 439 279 291
f 414 453 371
f 420 337 336
f 423 329 331
f 318 385 329
f 439 291 316
f 384 404 341
f 314 392 337
f 285 390 413
f 370 424 211
f 442 454 288
f 301 278 281
f 97 424 396
f 387 305 345
f 409 418 335
f 421 361 359
f 433 307 454
f 363 415 410
f 324 393 330
f 394 416 130
f 325 415 363
f 341 404 297
f 303 397 380
f 300 299 388
f 351 416 394
f 327 326 453
f 362 312 311
f 381 449 455
f 291 277 316
f 454 407 289
f 453 326 455
f 413 390 403
f 455 326 381
f 408 280 279
f 385 406 321
f 307 407 454
f 322 418 417
f 282 369 422
f 362 313 296
f 376 398 392
f 296 313 286
f 387 449 305
f 411 283 422
f 369 312 361
f 422 369 361
f 455 379 371
f 279 278 291
f 307 356 407
f 388 299 320
f 449 397 305
f 311 313 362
f 317 312 369
f 387 379 449
f 449 379 455
f 456 457 458
f 459 460 461
f 462 463 464
f 458 465 456
f 466 467 468
f 461 469 459
f 464 470 462
f 102 465 67
f 468 471 466
f 472 466 473
f 457 474 458
f 462 475 463
f 473 461 472
f 456 465 102
f 67 465 476
f 477 478 479
f 467 480 468
f 481 482 483
f 479 478 484
f 485 470 486
f 462 470 487
f 459 475 460
f 483 488 481
f 485 489 470
f 466 471 473
f 490 491 460
f 460 491 492
f 493 494 495
f 492 491 496
f 340 497 498
f 499 463 459
f 500 501 502
f 497 503 504
f 504 503 505
f 497 504 498
f 501 493 506
f 495 494 504
f 501 494 493
f 491 507 496
f 500 508 301
f 374 497 340
f 509 497 374
f 510 463 499
f 501 506 502
f 511 512 513
f 514 466 472
f 515 516 517
f 518 507 519
f 464 463 510
f 350 508 483
f 281 520 500
f 521 486 464
f 493 511 522
f 511 513 523
f 512 496 513
f 524 518 525
f 518 526 527
f 518 519 526
f 512 495 505
f 528 492 496
f 529 530 526
f 514 472 528
f 519 490 531
f 519 507 491
f 531 462 487
f 532 458 533
f 472 461 492
f 514 503 467
f 534 535 457
f 104 534 456
f 536 537 515
f 498 520 302
f 538 481 535
f 467 503 509
f 524 539 523
f 103 534 104
f 538 534 103
f 350 483 395
f 301 508 350
f 281 500 301
f 340 498 302
f 378 509 374
f 540 537 536
f 484 537 540
f 517 516 541
f 542 543 544
f 545 543 546
f 547 486 521
f 521 464 510
f 499 459 548
f 549 473 550
f 551 468 552
f 500 502 508
f 496 507 513
f 528 472 492
f 505 495 504
f 461 460 492
f 67 476 78
f 104 456 102
f 106 538 103
f 553 484 540
f 536 515 517
f 541 542 544
f 541 516 542
f 544 543 545
f 545 546 554
f 500 520 501
f 538 535 534
f 522 555 506
f 513 524 523
f 524 525 539
f 556 557 558
f 531 487 529
f 490 462 531
f 514 467 466
f 558 559 532
f 558 560 561
f 534 457 456
f 524 507 518
f 527 557 525
f 556 532 533
f 505 503 514
f 558 557 560
f 518 527 525
f 512 528 496
f 512 505 528
f 526 530 527
f 531 529 526
f 561 477 559
f 493 522 506
f 556 558 532
f 493 495 511
f 511 495 512
f 539 562 523
f 556 533 539
f 525 557 556
f 519 531 526
f 557 563 560
f 509 503 497
f 523 562 522
f 525 556 539
f 558 561 559
f 527 563 557
f 302 520 281
f 519 491 490
f 533 562 539
f 505 514 528
f 530 563 527
f 520 494 501
f 513 507 524
f 511 523 522
f 522 562 555
f 504 494 498
f 498 494 520
f 417 480 378
f 538 482 481
f 105 482 106
f 554 485 564
f 509 480 467
f 481 565 535
f 555 565 506
f 473 469 461
f 458 474 533
f 562 474 555
f 490 475 462
f 106 482 538
f 378 480 509
f 546 485 554
f 476 566 78
f 101 479 127
f 549 469 473
f 459 469 548
f 458 567 465
f 551 471 468
f 473 471 550
f 506 565 502
f 479 566 477
f 532 567 458
f 395 568 133
f 419 569 417
f 552 569 419
f 570 571 547
f 564 571 570
f 133 568 105
f 508 488 483
f 533 474 562
f 127 572 135
f 135 572 553
f 481 488 565
f 101 566 479
f 486 470 464
f 460 475 490
f 463 475 459
f 555 573 565
f 565 488 502
f 559 567 532
f 465 567 476
f 78 566 101
f 559 574 567
f 474 573 555
f 567 574 476
f 548 469 549
f 575 576 543
f 529 576 575
f 561 577 478
f 561 478 477
f 560 577 561
f 578 575 542
f 515 579 516
f 516 578 542
f 542 575 543
f 487 576 529
f 484 478 537
f 550 471 551
f 478 577 537
f 537 577 515
f 579 578 516
f 563 579 560
f 529 575 530
f 530 575 578
f 543 576 546
f 530 578 563
f 563 578 579
f 560 579 577
f 577 579 515
f 565 573 535
f 546 489 485
f 417 569 480
f 105 568 482
f 485 571 564
f 553 572 484
f 547 571 486
f 483 568 395
f 468 569 552
f 476 574 566
f 457 573 474
f 535 573 457
f 477 574 559
f 502 488 508
f 480 569 468
f 482 568 483
f 486 571 485
f 484 572 479
f 479 572 127
f 470 489 487
f 576 489 546
f 487 489 576
f 566 574 477
f 580 581 582
f 583 517 584
f 585 586 587
f 588 589 590
f 591 592 593
f 581 594 582
f 595 596 597
f 596 595 598
f 588 590 599
f 600 586 585
f 593 592 586
f 601 602 603
f 580 536 581
f 517 541 584
f 604 605 606
f 595 607 598
f 608 110 609
f 610 595 597
f 611 602 601
f 612 253 613
f 92 607 595
f 590 256 614
f 615 616 617
f 253 618 613
f 89 610 609
f 619 620 621
f 622 623 624
f 625 623 622
f 626 627 628
f 629 588 599
f 630 631 632
f 256 612 614
f 633 634 635
f 636 622 624
f 637 596 638
f 639 544 640
f 586 600 641
f 616 615 642
f 643 644 631
f 645 646 606
f 544 647 640
f 648 592 591
f 259 649 626
f 630 632 625
f 540 580 650
f 620 651 603
f 652 653 637
f 638 596 598
f 654 610 597
f 609 610 654
f 110 608 655
f 110 89 609
f 589 257 590
f 656 654 597
f 657 658 659
f 660 659 661
f 605 645 606
f 610 111 595
f 662 626 628
f 252 663 618
f 656 664 665
f 666 667 601
f 663 585 668
f 257 256 590
f 663 669 600
f 618 663 668
f 649 258 589
f 541 544 639
f 256 253 612
f 670 671 672
f 545 623 647
f 611 673 602
f 89 111 610
f 620 619 651
f 650 580 674
f 580 642 674
f 616 675 617
f 540 536 580
f 545 554 623
f 259 258 649
f 252 255 663
f 670 672 676
f 631 644 632
f 623 554 624
f 92 112 607
f 677 678 679
f 680 667 666
f 120 107 681
f 517 583 581
f 682 630 625
f 663 255 669
f 683 684 672
f 602 646 685
f 680 666 636
f 633 644 634
f 620 686 621
f 589 588 687
f 688 588 629
f 689 638 598
f 633 635 640
f 637 653 596
f 690 633 640
f 253 252 618
f 679 678 662
f 673 604 606
f 607 112 691
f 682 625 622
f 260 259 626
f 667 611 601
f 111 92 595
f 553 540 650
f 120 681 692
f 605 604 693
f 258 257 589
f 689 598 694
f 672 684 676
f 544 545 647
f 695 643 631
f 696 648 591
f 660 661 613
f 697 652 637
f 698 664 656
f 699 649 687
f 600 669 700
f 701 657 659
f 651 682 702
f 641 681 703
f 659 658 661
f 651 601 603
f 649 699 627
f 691 650 674
f 635 704 584
f 626 649 627
f 666 601 651
f 705 680 636
f 255 264 669
f 669 692 700
f 656 665 654
f 541 639 584
f 678 706 662
f 646 602 606
f 112 121 691
f 592 707 587
f 708 709 710
f 129 120 692
f 623 625 690
f 649 589 687
f 593 641 703
f 267 260 711
f 602 673 606
f 135 553 712
f 564 570 713
f 710 709 699
f 714 615 617
f 715 716 707
f 717 619 621
f 586 592 587
f 619 682 651
f 706 267 711
f 121 135 712
f 137 129 718
f 570 705 713
f 264 137 718
f 719 714 617
f 622 636 702
f 658 599 661
f 720 717 621
f 592 721 707
f 722 671 708
f 691 674 694
f 647 623 690
f 708 671 709
f 671 723 672
f 675 724 617
f 725 715 707
f 688 726 708
f 688 708 710
f 663 600 585
f 727 609 654
f 728 688 629
f 716 585 587
f 644 729 634
f 666 651 702
f 686 730 621
f 731 704 635
f 632 633 690
f 732 733 704
f 677 679 693
f 734 675 732
f 735 683 672
f 736 727 665
f 636 624 713
f 647 690 640
f 646 737 685
f 658 738 629
f 739 731 634
f 740 686 737
f 665 727 654
f 639 635 584
f 598 607 694
f 645 741 646
f 742 736 665
f 704 733 583
f 679 743 693
f 731 744 732
f 722 723 671
f 719 697 714
f 648 721 592
f 720 695 717
f 683 745 741
f 732 675 733
f 554 564 624
f 593 586 641
f 632 644 633
f 746 737 741
f 643 729 644
f 725 701 715
f 728 726 688
f 734 724 675
f 634 731 635
f 724 719 617
f 709 671 670
f 658 629 599
f 616 642 582
f 730 720 621
f 737 686 685
f 721 725 707
f 683 741 645
f 726 722 708
f 681 107 655
f 723 735 672
f 740 730 686
f 652 698 653
f 742 696 736
f 735 745 683
f 731 732 704
f 738 728 629
f 739 744 731
f 657 738 658
f 729 739 634
f 679 662 628
f 746 740 737
f 741 737 646
f 744 734 732
f 664 742 665
f 714 638 615
f 692 681 700
f 715 660 716
f 733 675 616
f 683 645 684
f 745 746 741
f 717 695 631
f 615 689 642
f 688 710 588
f 699 747 627
f 703 681 655
f 717 630 619
f 709 747 699
f 714 697 637
f 596 653 597
f 692 669 718
f 748 591 593
f 607 691 694
f 107 110 655
f 635 639 640
f 636 666 702
f 736 696 591
f 685 686 620
f 642 580 582
f 715 701 659
f 653 698 656
f 736 748 727
f 747 670 749
f 653 656 597
f 260 626 711
f 553 650 712
f 642 689 674
f 727 608 609
f 733 594 583
f 709 670 747
f 714 637 638
f 717 631 630
f 619 630 682
f 733 616 594
f 681 641 700
f 615 638 689
f 588 710 687
f 669 264 718
f 736 591 748
f 536 517 581
f 129 692 718
f 684 645 605
f 705 636 713
f 715 659 660
f 727 748 608
f 662 706 711
f 625 632 690
f 691 121 712
f 626 662 711
f 641 600 700
f 604 677 693
f 602 685 603
f 650 691 712
f 627 747 628
f 661 612 613
f 679 749 743
f 594 616 582
f 748 593 703
f 747 749 628
f 710 699 687
f 749 679 628
f 704 583 584
f 682 622 702
f 608 748 703
f 624 564 713
f 585 716 668
f 661 599 614
f 674 689 694
f 599 590 614
f 684 605 743
f 707 716 587
f 668 660 613
f 716 660 668
f 749 670 676
f 583 594 581
f 608 703 655
f 685 620 603
f 743 605 693
f 612 661 614
f 618 668 613
f 684 743 676
f 743 749 676
f 750 751 752
f 753 754 755
f 756 757 758
f 759 760 761
f 755 762 753
f 758 763 756
f 764 765 766
f 767 768 769
f 761 770 759
f 752 771 750
f 765 772 766
f 767 773 768
f 774 751 750
f 769 771 767
f 766 775 764
f 776 754 753
f 758 757 777
f 778 762 779
f 780 763 781
f 779 770 778
f 782 773 783
f 784 772 785
f 766 772 786
f 787 773 767
f 760 775 761
f 781 788 780
f 779 762 755
f 756 763 780
f 773 789 783
f 784 790 772
f 791 792 793
f 758 794 795
f 793 796 791
f 797 798 796
f 777 794 758
f 799 800 796
f 796 798 791
f 801 794 368
f 549 780 802
f 795 794 801
f 801 799 795
f 803 804 805
f 793 792 806
f 793 799 796
f 805 804 380
f 797 800 375
f 807 792 791
f 801 800 799
f 769 768 510
f 802 808 548
f 550 780 549
f 756 780 550
f 753 803 805
f 809 810 811
f 812 813 787
f 764 760 202
f 814 813 812
f 815 811 807
f 816 817 761
f 818 819 814
f 382 776 805
f 383 794 777
f 521 768 782
f 499 808 769
f 796 800 797
f 811 792 807
f 810 820 811
f 820 792 811
f 810 821 820
f 821 822 820
f 806 792 820
f 822 823 806
f 824 758 795
f 220 765 764
f 753 825 803
f 673 826 827
f 825 828 803
f 816 829 809
f 822 806 820
f 814 812 830
f 823 831 806
f 816 761 832
f 242 765 220
f 785 765 242
f 202 760 243
f 759 779 244
f 222 779 755
f 410 776 382
f 382 805 380
f 303 797 375
f 310 801 368
f 368 794 383
f 383 777 409
f 521 782 547
f 510 768 521
f 499 769 510
f 548 808 499
f 549 802 548
f 551 756 550
f 677 833 834
f 827 833 604
f 835 826 611
f 667 836 835
f 802 750 808
f 809 837 810
f 812 767 752
f 824 795 831
f 262 785 242
f 220 764 202
f 243 759 244
f 243 760 759
f 244 779 222
f 222 755 246
f 677 834 678
f 604 833 677
f 673 827 604
f 611 826 673
f 667 835 611
f 680 836 667
f 776 753 805
f 838 830 821
f 838 818 814
f 812 752 830
f 819 813 814
f 832 766 839
f 822 774 823
f 822 751 774
f 831 793 806
f 766 786 839
f 840 807 828
f 815 809 811
f 810 838 821
f 832 839 829
f 803 798 804
f 825 840 828
f 840 815 807
f 829 837 809
f 825 778 840
f 807 791 828
f 815 816 809
f 810 837 838
f 838 814 830
f 816 832 829
f 823 824 831
f 818 841 819
f 815 817 816
f 838 837 818
f 839 842 829
f 795 799 831
f 839 843 842
f 380 804 303
f 375 800 310
f 804 798 797
f 818 842 841
f 752 751 830
f 829 842 837
f 812 787 767
f 303 804 797
f 310 800 801
f 828 798 803
f 821 751 822
f 837 842 818
f 786 843 839
f 842 843 841
f 778 817 840
f 830 751 821
f 791 798 828
f 831 799 793
f 840 817 815
f 774 781 823
f 823 781 824
f 759 770 779
f 552 757 551
f 246 754 263
f 678 784 706
f 705 783 680
f 767 771 752
f 750 771 808
f 832 775 766
f 551 757 756
f 680 783 836
f 755 754 246
f 834 784 678
f 817 770 761
f 753 762 825
f 824 763 758
f 780 788 802
f 265 844 410
f 409 845 419
f 419 845 552
f 547 846 570
f 263 844 265
f 570 846 705
f 267 847 262
f 706 847 267
f 785 772 765
f 768 773 782
f 761 775 832
f 764 775 760
f 808 771 769
f 750 788 774
f 774 788 781
f 778 770 817
f 848 849 819
f 826 849 848
f 826 848 827
f 833 850 834
f 813 851 787
f 827 852 833
f 819 849 813
f 813 849 851
f 835 849 826
f 836 851 835
f 851 849 835
f 841 848 819
f 843 852 841
f 786 850 843
f 852 850 833
f 843 850 852
f 852 848 841
f 827 848 852
f 825 762 778
f 781 763 824
f 802 788 750
f 834 790 784
f 783 789 836
f 552 845 757
f 784 847 706
f 705 846 783
f 754 844 263
f 410 844 776
f 782 846 547
f 262 847 785
f 777 845 409
f 785 847 784
f 757 845 777
f 783 846 782
f 776 844 754
f 772 790 786
f 787 789 773
f 850 790 834
f 851 789 787
f 786 790 850
f 836 789 851
f 853 854 855
f 856 857 858
f 854 859 855
f 860 450 861
f 862 860 861
f 450 440 861
f 863 864 865
f 866 867 868
f 869 870 871
f 428 429 872
f 358 444 873
f 864 873 865
f 860 862 874
f 431 405 875
f 876 877 878
f 867 866 879
f 880 881 855
f 881 880 882
f 883 884 885
f 886 887 888
f 889 890 891
f 877 872 878
f 892 893 894
f 895 896 897
f 893 892 898
f 857 856 899
f 900 901 902
f 881 853 855
f 859 854 903
f 904 905 906
f 907 908 909
f 892 894 879
f 887 886 910
f 908 907 911
f 912 913 914
f 915 431 875
f 901 900 916
f 894 867 879
f 917 918 919
f 920 921 922
f 923 924 925
f 926 927 928
f 864 358 873
f 905 904 929
f 891 890 930
f 877 428 872
f 883 885 931
f 913 912 932
f 933 934 935
f 907 909 936
f 860 874 910
f 937 938 939
f 934 940 935
f 911 907 941
f 425 401 899
f 918 917 942
f 896 943 897
f 890 889 944
f 886 888 916
f 945 946 947
f 900 902 929
f 429 917 872
f 948 949 950
f 951 952 953
f 904 906 932
f 954 955 956
f 946 945 957
f 958 959 960
f 928 961 962
f 961 924 962
f 870 869 963
f 912 914 942
f 444 945 873
f 880 964 882
f 928 927 961
f 921 857 922
f 965 891 930
f 966 967 943
f 968 969 970
f 971 972 973
f 871 870 974
f 957 877 876
f 920 922 975
f 976 977 964
f 959 958 978
f 924 961 925
f 435 445 910
f 979 969 980
f 960 981 982
f 937 939 983
f 984 933 935
f 975 985 986
f 946 957 876
f 987 988 989
f 399 343 916
f 854 926 928
f 940 934 896
f 985 975 990
f 964 977 991
f 992 993 994
f 885 995 996
f 993 997 994
f 856 425 899
f 401 998 899
f 999 950 1000
f 1001 1002 1003
f 968 1004 969
f 436 426 929
f 888 901 916
f 874 887 910
f 891 965 1005
f 902 905 929
f 906 913 932
f 914 918 942
f 1002 1006 1003
f 993 1007 1005
f 856 858 1008
f 1007 891 1005
f 1009 1010 1011
f 1012 999 1000
f 452 446 932
f 996 995 1013
f 969 979 970
f 993 992 1007
f 954 956 1014
f 997 1009 994
f 915 893 898
f 980 1015 1016
f 967 1017 943
f 441 451 942
f 968 1018 1004
f 886 435 910
f 1019 971 973
f 934 966 943
f 1020 1021 949
f 445 860 910
f 1022 1023 1024
f 1021 1020 1025
f 994 1009 1011
f 868 960 982
f 917 919 872
f 1025 1020 1026
f 1027 1028 1022
f 1028 1027 1029
f 1030 1025 1026
f 900 399 916
f 343 886 916
f 987 989 1031
f 1032 1030 1026
f 999 948 950
f 979 980 978
f 1030 1032 1033
f 895 897 1034
f 884 883 974
f 1033 1032 1035
f 1036 1033 1035
f 904 436 929
f 405 864 875
f 952 951 1037
f 1038 985 990
f 1002 1039 1040
f 1039 1041 1040
f 426 900 929
f 1027 1022 1024
f 861 440 1042
f 1036 1041 1039
f 1041 1036 1035
f 912 452 932
f 973 972 944
f 1043 1044 1045
f 903 854 928
f 446 904 932
f 954 1046 1047
f 1048 1001 1003
f 1048 1049 1050
f 1006 1002 1040
f 721 1051 1052
f 917 441 942
f 868 958 960
f 1053 1054 1055
f 1056 1057 1058
f 857 899 922
f 451 912 942
f 400 348 879
f 953 952 1059
f 1060 1056 1058
f 935 923 925
f 1044 1043 1061
f 1062 1063 1064
f 1049 1048 1003
f 1061 1065 1066
f 1018 1043 1004
f 859 903 1052
f 1057 1067 1058
f 1068 1069 1070
f 1071 1053 1055
f 1072 1073 1074
f 1075 1072 1074
f 1056 1060 1076
f 1077 1078 1079
f 987 1080 1081
f 1082 1083 1084
f 1015 980 1085
f 949 1021 950
f 866 400 879
f 434 432 957
f 1086 1087 1088
f 1089 996 1013
f 1090 1086 1088
f 1091 1092 1061
f 348 892 879
f 1051 859 1052
f 701 725 1093
f 945 947 873
f 1010 1028 1011
f 961 927 1094
f 725 721 1052
f 1082 1095 1083
f 958 979 978
f 1043 1045 1004
f 940 896 1096
f 1063 1056 1064
f 1078 1062 1064
f 1081 1080 939
f 896 895 1096
f 899 998 922
f 734 1097 1095
f 1023 1098 1024
f 724 734 1095
f 1099 1100 1101
f 945 434 957
f 1043 1091 1061
f 1065 1053 1066
f 1092 1065 1061
f 964 988 882
f 1044 1061 1066
f 1102 1103 1075
f 968 970 1104
f 1098 1058 1105
f 1078 1064 1079
f 432 877 957
f 725 1052 1093
f 1102 1106 1103
f 1100 1099 1107
f 943 1017 897
f 1054 1086 1055
f 1106 1108 1103
f 896 934 943
f 885 1109 995
f 1095 1097 1083
f 1098 1105 1024
f 1110 1111 1112
f 1113 1114 1107
f 1056 1076 1064
f 1115 930 911
f 1116 1117 1118
f 1119 880 855
f 696 1111 1110
f 1120 1121 1122
f 1112 1111 909
f 1109 1123 995
f 1124 1125 1126
f 1087 1099 1088
f 697 1121 1120
f 1122 965 1115
f 1127 1128 1129
f 1053 1130 1054
f 1110 1112 1119
f 1053 1071 1066
f 1131 1132 1133
f 1115 965 930
f 1134 1135 949
f 1120 1122 1115
f 1135 1020 949
f 1099 1113 1107
f 1130 1136 1054
f 1117 1116 1137
f 1112 880 1119
f 1086 1090 1055
f 1138 724 1095
f 1139 1117 1137
f 1112 909 976
f 970 1140 1104
f 1141 1115 911
f 1004 1045 1142
f 1116 1118 1143
f 1144 1081 939
f 1072 1145 1146
f 1147 1121 1138
f 1148 993 1005
f 1149 1123 1109
f 1150 1108 1106
f 1082 1147 1138
f 1151 1152 1139
f 1153 1154 1155
f 1114 1156 1107
f 739 1048 1050
f 1157 1158 1159
f 1160 1161 1133
f 1144 1162 1081
f 1141 652 1120
f 1141 1120 1115
f 1145 1163 1146
f 1131 1077 1079
f 1051 648 1110
f 448 400 866
f 696 742 1111
f 698 652 1141
f 1164 1165 1104
f 1165 968 1104
f 958 1166 979
f 1122 1167 965
f 867 1166 958
f 1168 1169 1170
f 965 1167 1005
f 1152 1171 1139
f 1028 1029 1011
f 894 1140 1166
f 1172 1023 1022
f 1122 1121 1147
f 1163 920 1146
f 1099 1101 1088
f 401 353 998
f 1173 1136 1130
f 1174 1175 923
f 889 1176 973
f 1125 1177 1126
f 1171 1178 1139
f 1179 1163 1145
f 1167 1148 1005
f 1180 988 987
f 1062 1181 1150
f 721 648 1051
f 697 719 1121
f 1122 1147 1167
f 1182 881 1183
f 348 427 892
f 1075 1145 1072
f 1051 1110 1119
f 1124 1168 1184
f 1078 1185 1062
f 1171 1186 1178
f 1108 1179 1103
f 1150 1181 1108
f 1103 1145 1075
f 1174 738 1175
f 1062 1185 1181
f 1123 1102 995
f 1187 1188 1189
f 1190 1183 1180
f 1154 1191 1155
f 1149 1192 1123
f 1175 1193 924
f 1194 1195 884
f 1069 1083 1070
f 1196 1197 1198
f 648 696 1110
f 867 958 868
f 1180 1183 988
f 1199 1153 1155
f 1018 1091 1043
f 1200 1169 1168
f 897 1017 999
f 1063 1150 1192
f 1132 1160 1133
f 1148 997 993
f 1161 1201 1202
f 1156 1203 1204
f 938 1144 939
f 1057 1192 1149
f 859 1119 855
f 1162 1180 1081
f 1151 1139 1137
f 1067 1149 1195
f 1205 1087 1086
f 893 1206 1140
f 1166 1140 970
f 1207 1144 938
f 652 697 1120
f 1203 853 1182
f 1092 1208 1065
f 1209 1210 1173
f 884 1109 885
f 1211 1212 1213
f 1214 1195 1194
f 1215 1151 1210
f 923 1175 924
f 1216 1217 1186
f 1182 853 881
f 1078 1218 1185
f 1209 1173 1208
f 1179 1145 1103
f 1123 1106 1102
f 1182 1183 1190
f 1215 1210 1209
f 1101 1162 1144
f 430 425 856
f 880 976 964
f 1219 1152 1151
f 1174 940 1096
f 1219 1151 1215
f 1058 1067 1105
f 1167 1220 1148
f 1188 1213 1189
f 1221 1222 1216
f 1121 719 1138
f 1190 1180 1162
f 657 1193 1175
f 734 744 1097
f 657 701 1193
f 1117 1223 1118
f 1098 1060 1058
f 1023 1224 1098
f 1010 1225 1028
f 1007 1176 889
f 1077 1218 1078
f 1180 987 1081
f 1226 1227 1228
f 969 1142 980
f 1195 1149 1109
f 1229 955 954
f 1230 1231 1223
f 1211 1213 1188
f 1065 1130 1053
f 1232 1233 1124
f 1234 1212 1211
f 1136 1205 1054
f 1173 1235 1136
f 1062 1150 1063
f 1236 1237 952
f 1186 1217 1230
f 1238 1239 1227
f 894 1166 867
f 1240 1241 1242
f 1192 1150 1106
f 1243 1161 1202
f 992 1244 1176
f 1196 1245 1197
f 1217 1222 1246
f 1239 1194 870
f 1178 1223 1117
f 1216 1222 1217
f 1191 1247 1248
f 1233 1200 1168
f 405 358 864
f 1167 1147 1220
f 1139 1178 1117
f 1179 1249 1163
f 1108 1250 1179
f 445 450 860
f 1101 1144 1207
f 1172 1251 1023
f 1252 1253 1077
f 893 1140 894
f 1186 1230 1178
f 1254 1255 1256
f 1001 1257 1002
f 1256 1255 1198
f 1258 1259 1196
f 1182 1190 1204
f 1260 1261 955
f 1234 1262 1263
f 1255 1196 1198
f 1208 1173 1130
f 1264 1186 1171
f 1063 1192 1057
f 1265 1131 1133
f 1234 1263 1212
f 1207 938 1237
f 1187 1266 1188
f 1107 1156 1204
f 1124 1233 1168
f 1227 1239 870
f 1087 1113 1099
f 1259 1240 1245
f 1193 701 1093
f 940 923 935
f 1267 1171 1152
f 1065 1208 1130
f 1268 1269 1252
f 1270 1152 1219
f 1156 1271 1203
f 1272 1273 1274
f 1205 1086 1054
f 1057 1149 1067
f 1230 1223 1178
f 1221 1275 1222
f 1252 1131 1265
f 1028 1225 1022
f 1136 1276 1205
f 1277 1265 1278
f 1205 1279 1087
f 1196 1259 1245
f 1258 1196 1255
f 895 726 1096
f 1004 1142 969
f 1222 1280 1246
f 1252 1077 1131
f 884 1195 1109
f 1281 1282 1283
f 1277 1268 1265
f 1241 1284 1242
f 1285 1275 1221
f 1067 1195 1214
f 1082 1138 1095
f 1077 1253 1218
f 1174 923 940
f 739 729 1048
f 728 738 1174
f 1191 1286 1247
f 1148 1287 997
f 1254 1256 1068
f 1288 1289 1268
f 1290 1091 1018
f 728 1174 1096
f 1268 1252 1265
f 1214 1194 1239
f 1173 1210 1235
f 643 1257 1001
f 1216 1186 1264
f 1100 1107 1204
f 1291 1208 1092
f 1123 1192 1106
f 1259 1241 1240
f 1190 1100 1204
f 1292 1241 1259
f 1230 1293 1231
f 1277 1294 1262
f 738 657 1175
f 444 434 945
f 1295 1296 1288
f 1048 729 1001
f 1297 1092 1091
f 1252 1269 1253
f 343 435 886
f 1225 1172 1022
f 1288 1268 1277
f 1236 952 1261
f 1284 1272 1242
f 1268 1289 1269
f 1163 921 920
f 1273 1298 1274
f 1299 1300 1301
f 1302 1303 1295
f 1288 1277 1262
f 1304 1305 1306
f 1170 1307 1184
f 1266 1308 1188
f 1114 1309 1156
f 1284 1273 1272
f 1165 1018 968
f 1203 1182 1204
f 1185 1218 1310
f 1234 1295 1262
f 1292 1259 1258
f 1098 1224 1060
f 1023 1251 1224
f 1262 1294 1263
f 997 1311 1009
f 1312 1284 1241
f 1313 1021 1025
f 1288 1296 1289
f 1260 955 1229
f 1305 1314 1315
f 1302 1295 1234
f 1316 1233 1232
f 1009 1317 1010
f 1295 1303 1296
f 1314 1318 1315
f 1206 1164 1104
f 1319 1320 1286
f 979 1166 970
f 1203 926 853
f 719 724 1138
f 918 1321 1322
f 1308 1323 1302
f 1324 1273 1284
f 1318 1325 1315
f 1326 1200 1233
f 1282 1327 1328
f 1298 1329 1274
f 1293 1217 1246
f 1330 1304 1306
f 1295 1288 1262
f 726 728 1096
f 1100 1162 1101
f 1191 1248 1155
f 1148 1220 1287
f 1329 1330 1306
f 1331 1025 1030
f 1298 1330 1329
f 914 1332 1321
f 1302 1323 1303
f 1281 1327 1282
f 1333 1334 1335
f 1331 1030 1336
f 1337 1298 1273
f 1313 1338 1021
f 1339 1340 1127
f 1331 1313 1025
f 1238 1227 1226
f 1312 1241 1292
f 1341 1333 1335
f 1226 1228 1244
f 1342 1199 1343
f 1344 1036 1345
f 1308 1302 1211
f 1304 1314 1305
f 1136 1235 1276
f 1257 695 1345
f 695 720 1345
f 720 1344 1345
f 913 1346 1332
f 1219 1215 1170
f 1347 1339 1127
f 729 643 1001
f 1308 1211 1188
f 1266 1348 1308
f 1340 1187 1127
f 1344 730 1336
f 730 740 1336
f 740 1331 1336
f 1222 1275 1280
f 1275 1281 1283
f 1340 1266 1187
f 918 1322 919
f 1349 1342 1343
f 1006 1255 1254
f 1324 1284 1312
f 1264 1171 1267
f 1327 1350 1328
f 1308 1348 1323
f 906 1351 1346
f 1352 1330 1298
f 1051 1119 859
f 1112 976 880
f 1337 1273 1324
f 746 745 1313
f 722 726 895
f 745 1338 1313
f 446 436 904
f 429 441 917
f 1331 746 1313
f 426 399 900
f 432 428 877
f 451 452 912
f 745 735 1338
f 720 730 1344
f 740 746 1331
f 643 695 1257
f 1285 1281 1275
f 1168 1170 1184
f 914 1321 918
f 1267 1152 1270
f 1336 1030 1033
f 1340 1353 1266
f 1318 1354 1325
f 905 1355 1351
f 1154 1285 1191
f 1154 1281 1285
f 1253 1356 1357
f 1230 1217 1293
f 913 1332 914
f 1358 1359 1360
f 992 1176 1007
f 1209 1208 1291
f 1352 1298 1337
f 1350 1361 1328
f 1302 1234 1211
f 906 1346 913
f 1010 1362 1225
f 1135 1304 1330
f 1216 1264 1319
f 1342 1153 1199
f 1280 1275 1283
f 1108 1181 1250
f 1266 1353 1348
f 1264 1363 1319
f 946 1360 947
f 1364 1339 1347
f 1277 1278 1294
f 1339 1365 1340
f 1169 1219 1170
f 905 1351 906
f 1154 1327 1281
f 1294 1278 1243
f 902 1366 1355
f 1340 1365 1353
f 1326 1233 1316
f 1289 1296 1367
f 1135 1330 1352
f 1134 1314 1304
f 1090 1237 1236
f 1225 1368 1172
f 1270 1219 1169
f 1231 1293 1369
f 1153 1327 1154
f 1303 1323 1370
f 1371 1372 1373
f 1353 1365 1374
f 1323 1348 1375
f 1348 1353 1376
f 1205 1276 1279
f 1087 1279 1113
f 1350 1371 1361
f 1352 1337 1026
f 902 1355 905
f 1372 1377 1378
f 1235 1210 1137
f 1253 1269 1356
f 1134 1304 1135
f 1135 1352 1020
f 1372 1378 1373
f 1153 1350 1327
f 1333 1349 1334
f 1337 1324 1032
f 1203 1271 926
f 1365 1379 1380
f 1361 1371 1373
f 1342 1350 1153
f 1381 1382 1094
f 1370 1323 1375
f 997 1287 1311
f 1383 1341 1384
f 1379 1385 1386
f 1387 1318 1314
f 1156 1309 1271
f 1221 1319 1286
f 1376 1353 1374
f 901 1388 1366
f 1339 1379 1365
f 1377 1389 1390
f 1312 1292 1041
f 1258 1255 1006
f 1364 1379 1339
f 1342 1371 1350
f 1365 1380 1374
f 1334 1349 1343
f 1007 889 891
f 1320 1363 1391
f 1387 1314 1134
f 1378 1377 1390
f 1254 1068 1049
f 1020 1352 1026
f 1009 1311 1317
f 1286 1320 1247
f 1349 1371 1342
f 888 1392 1388
f 1296 1303 1393
f 1348 1376 1375
f 1337 1032 1026
f 1243 1278 1161
f 1380 1379 1386
f 1191 1285 1286
f 1060 1394 1076
f 901 1366 902
f 1303 1370 1393
f 1349 1372 1371
f 1116 1235 1137
f 1359 1232 1158
f 1344 1033 1036
f 1333 1372 1349
f 1172 1395 1251
f 1385 1396 1397
f 1367 1296 1393
f 887 1398 1392
f 967 1354 1318
f 1289 1367 1399
f 1285 1221 1286
f 1384 1341 1335
f 967 1318 1387
f 1155 1248 1400
f 1316 1232 1359
f 1269 1289 1399
f 1389 1401 1402
f 1190 1162 1100
f 1403 1404 1201
f 1291 1092 1297
f 1140 1206 1104
f 1383 1384 1202
f 1405 1406 1407
f 1333 1377 1372
f 1364 1385 1379
f 1408 1396 1405
f 1409 1239 1238
f 888 1388 901
f 1385 1397 1386
f 1410 1206 893
f 1341 1377 1333
f 1221 1216 1319
f 1161 1278 1133
f 1411 1164 1206
f 1297 1091 1290
f 1389 1402 1390
f 1071 1261 1260
f 1179 1250 1249
f 967 1387 1017
f 1405 1385 1364
f 1358 1360 946
f 1010 1317 1362
f 887 1392 888
f 1356 1269 1399
f 874 1412 1398
f 1408 1326 1396
f 1341 1389 1377
f 1408 1200 1326
f 1044 1229 1045
f 1383 1389 1341
f 1207 1237 1090
f 1344 1336 1033
f 1405 1396 1385
f 1218 1253 1357
f 874 1398 887
f 1319 1363 1320
f 966 1354 967
f 1124 1184 1125
f 966 1300 1354
f 1128 1248 1129
f 1401 1413 1414
f 1415 1416 1417
f 862 1417 1412
f 1394 1224 1418
f 1402 1401 1414
f 1419 1169 1200
f 1420 1358 1421
f 1383 1401 1389
f 933 1422 1300
f 933 966 934
f 1423 1424 1177
f 1224 1251 1418
f 1421 1358 876
f 1264 1267 1363
f 1172 1368 1395
f 1419 1200 1408
f 1384 1243 1202
f 1225 1362 1368
f 1404 1401 1383
f 1251 1395 1403
f 1002 1257 1039
f 1420 1359 1358
f 1290 1018 1165
f 1236 1261 1071
f 1220 1147 1082
f 1310 1218 1357
f 1425 1426 1427
f 1210 1151 1137
f 1249 1250 1428
f 1403 1395 1413
f 1307 1429 1184
f 1316 1359 1420
f 862 1412 874
f 1404 1413 1401
f 1360 1359 1158
f 1403 1413 1404
f 1397 1396 1430
f 1063 1057 1056
f 1170 1215 1307
f 1060 1224 1394
f 1425 1431 1382
f 933 1300 966
f 1382 1422 984
f 1345 1036 1039
f 1415 1417 862
f 1432 1433 956
f 1278 1265 1133
f 1434 1432 951
f 1432 1434 883
f 1113 1435 1114
f 858 1436 1416
f 1437 1244 992
f 1214 1239 1409
f 1276 1235 1116
f 1270 1169 1419
f 1316 1420 1430
f 1386 1438 1439
f 1438 1322 1439
f 1326 1316 1430
f 1403 1201 1418
f 1440 1434 953
f 1434 1440 871
f 984 1422 933
f 1358 946 876
f 1441 1442 1089
f 1076 1394 1132
f 1442 1433 996
f 853 926 854
f 1209 1291 1307
f 927 1381 1094
f 1382 1431 1422
f 1443 1440 937
f 1440 1443 869
f 1425 1427 1431
f 1260 1229 1044
f 1185 1310 1444
f 1114 1426 1309
f 1362 1317 1445
f 1032 1324 1035
f 1442 1441 1046
f 1382 984 1094
f 1443 1446 1447
f 1411 1206 1410
f 1163 1249 921
f 1113 1279 1435
f 1396 1326 1430
f 858 1416 1415
f 1158 1232 1126
f 1309 1426 1425
f 1404 1383 1202
f 971 1446 1080
f 1446 971 1019
f 1215 1209 1307
f 1238 1226 1029
f 1312 1041 1035
f 1415 862 861
f 1267 1270 1448
f 1441 1449 1015
f 1270 1419 1448
f 1311 1287 1450
f 1409 1238 1027
f 1424 1411 1451
f 1291 1297 1429
f 1291 1429 1307
f 1201 1404 1202
f 1424 1164 1411
f 1114 1435 1426
f 1243 1384 1452
f 1397 1430 1453
f 926 1271 927
f 1226 1244 1437
f 1423 1164 1424
f 1410 893 915
f 1364 1347 1406
f 1251 1403 1418
f 1413 1454 1414
f 1406 1391 1407
f 1430 1420 1453
f 1423 1165 1164
f 1271 1309 1381
f 1436 1249 1428
f 1451 1411 863
f 1395 1368 1454
f 1455 972 989
f 1226 1437 1029
f 1391 1363 1448
f 1231 1369 1456
f 744 739 1050
f 1425 1382 1381
f 1437 992 994
f 1451 1157 1159
f 1449 1457 1016
f 1363 1267 1448
f 1317 1311 1458
f 1459 1457 1460
f 1423 1177 1461
f 927 1271 1381
f 1324 1312 1035
f 1207 1090 1088
f 1290 1165 1423
f 1201 1161 1160
f 1294 1243 1452
f 1279 1276 1143
f 1420 1421 1453
f 857 1436 858
f 897 999 1012
f 1250 1181 1444
f 1101 1207 1088
f 1408 1405 1407
f 1254 1049 1003
f 951 1432 956
f 1384 1335 1452
f 1435 1279 1143
f 1248 1128 1400
f 1434 951 953
f 883 1434 871
f 1413 1395 1454
f 1309 1425 1381
f 1411 1410 863
f 1041 1292 1040
f 1127 1187 1128
f 921 1436 857
f 1258 1006 1040
f 1457 1459 959
f 937 1440 953
f 1440 869 871
f 1462 1455 977
f 1455 1462 890
f 1287 1220 1084
f 1311 1450 1458
f 1089 1442 996
f 1445 1317 1458
f 1428 1250 1444
f 1452 1335 1463
f 1276 1116 1143
f 869 1443 1447
f 1418 1201 1160
f 1220 1082 1084
f 981 1459 986
f 1297 1290 1461
f 1027 1238 1029
f 1368 1464 1454
f 1446 1019 1447
f 1090 1236 1055
f 1181 1185 1444
f 1448 1419 1407
f 921 1249 1436
f 1046 1441 1015
f 1290 1423 1461
f 1362 1445 1464
f 1429 1297 1461
f 1049 1068 1070
f 1450 1287 1084
f 1097 744 1050
f 1394 1418 1160
f 1463 1334 1465
f 1466 981 985
f 1416 1436 1428
f 947 1360 1157
f 1257 1345 1039
f 1405 1364 1406
f 1015 1449 1016
f 1368 1362 1464
f 1391 1448 1407
f 1335 1334 1463
f 1419 1408 1407
f 1456 1369 1301
f 864 863 875
f 1320 1391 1467
f 1417 1468 1469
f 1292 1258 1040
f 1006 1254 1003
f 1263 1294 1452
f 1427 1470 1471
f 1132 1394 1160
f 1417 1416 1468
f 1232 1124 1126
f 1406 1347 1467
f 977 1455 989
f 1457 959 1016
f 1391 1406 1467
f 1459 1460 986
f 1263 1452 1463
f 1223 1231 1471
f 1236 1071 1055
f 1071 1260 1066
f 1247 1320 1467
f 1143 1118 1470
f 1142 1045 1047
f 1212 1463 1465
f 1132 1131 1079
f 1212 1263 1463
f 1427 1426 1470
f 1465 1343 1472
f 1158 1126 1159
f 1467 1347 1129
f 1334 1343 1465
f 1084 1083 1069
f 985 981 986
f 1435 1143 1470
f 1369 1299 1301
f 1213 1212 1465
f 885 996 931
f 1187 1189 1128
f 1347 1127 1129
f 1045 1229 1047
f 1343 1199 1472
f 1444 1310 1468
f 1052 903 1093
f 1213 1465 1472
f 1247 1467 1129
f 1177 1424 1159
f 1189 1213 1472
f 1325 1354 1299
f 1412 1417 1469
f 1468 1310 1469
f 1067 1214 1105
f 1390 1473 1474
f 1076 1132 1079
f 1064 1076 1079
f 1461 1177 1125
f 1470 1118 1471
f 1398 1412 1475
f 1398 1475 1476
f 1428 1444 1468
f 1300 1422 1301
f 1429 1461 1125
f 1360 1158 1157
f 1184 1429 1125
f 1248 1247 1129
f 1322 1321 1439
f 1386 1397 1438
f 1412 1469 1475
f 1473 1240 1474
f 988 964 991
f 1449 1441 1073
f 353 402 1038
f 1416 1428 1468
f 1392 1398 1476
f 1260 1044 1066
f 1198 1197 1477
f 1321 1332 1478
f 1126 1177 1159
f 1426 1435 1470
f 1388 1392 1479
f 1439 1321 1478
f 1310 1357 1469
f 1480 1246 1481
f 1332 1346 1482
f 919 1322 1483
f 1472 1199 1400
f 1199 1155 1400
f 1388 1479 1484
f 1414 1485 1486
f 1366 1388 1484
f 1189 1472 1400
f 1346 1351 1487
f 1332 1482 1478
f 1355 1366 1488
f 1351 1355 1489
f 1471 1231 1456
f 1392 1476 1479
f 1414 1454 1485
f 1346 1487 1482
f 1355 1488 1489
f 1351 1489 1487
f 1366 1484 1488
f 1128 1189 1400
f 1357 1356 1475
f 1118 1223 1471
f 1469 1357 1475
f 1293 1246 1480
f 1229 954 1047
f 1256 1198 1490
f 1475 1356 1476
f 431 915 898
f 1369 1293 1480
f 1424 1451 1159
f 1483 1322 1438
f 1029 1437 1011
f 1214 1409 1105
f 1402 1414 1486
f 1402 1486 1473
f 903 928 962
f 1490 1198 1477
f 1356 1399 1476
f 1325 1480 1481
f 1431 1427 1456
f 1361 1491 1492
f 1476 1399 1479
f 1068 1256 1493
f 1399 1367 1479
f 1409 1027 1024
f 1390 1402 1473
f 858 1415 1008
f 1105 1409 1024
f 1491 1274 1492
f 1479 1367 1484
f 1354 1300 1299
f 1431 1456 1301
f 1458 1450 1493
f 1367 1393 1484
f 1477 1197 1485
f 1240 1242 1474
f 1325 1299 1480
f 1422 1431 1301
f 1493 1450 1069
f 1484 1393 1488
f 1445 1490 1477
f 1393 1370 1488
f 1453 1421 1483
f 1488 1370 1489
f 1046 954 1014
f 1370 1375 1489
f 1445 1458 1490
f 1068 1493 1069
f 889 973 944
f 1427 1471 1456
f 1464 1445 1477
f 1489 1375 1487
f 1380 1386 1439
f 1375 1376 1487
f 1380 1439 1478
f 1397 1453 1438
f 1373 1494 1491
f 1487 1376 1482
f 1376 1374 1482
f 1374 1380 1478
f 873 947 865
f 1482 1374 1478
f 1146 1495 1496
f 1458 1493 1490
f 1450 1084 1069
f 1373 1378 1494
f 999 1017 948
f 1134 949 948
f 1315 1325 1481
f 1453 1483 1438
f 1305 1497 1498
f 1305 1315 1497
f 1315 1481 1497
f 1102 1075 1013
f 1493 1256 1490
f 1017 1387 948
f 1361 1373 1491
f 1441 1089 1073
f 1306 1305 1498
f 1306 1498 1499
f 984 935 925
f 1485 1197 1486
f 1274 1329 1492
f 1329 1306 1499
f 1454 1464 1485
f 1329 1499 1492
f 1097 1050 1070
f 1299 1369 1480
f 742 664 936
f 664 698 941
f 1050 1049 1070
f 947 1157 865
f 907 664 941
f 664 907 936
f 1464 1477 1485
f 1197 1245 1486
f 870 1194 974
f 1246 1280 1481
f 1486 1245 1473
f 1245 1240 1473
f 1437 994 1011
f 1481 1280 1497
f 1047 1046 1085
f 1497 1283 1498
f 1283 1282 1498
f 1280 1283 1497
f 1498 1282 1499
f 1272 1274 1491
f 1227 870 963
f 1378 1390 1474
f 1494 1272 1491
f 1242 1272 1494
f 1282 1328 1499
f 998 353 1038
f 1499 1328 1492
f 1328 1361 1492
f 956 955 1037
f 981 1466 982
f 1449 1073 1500
f 975 986 1495
f 1080 987 1031
f 1093 903 962
f 1019 973 1501
f 909 1111 936
f 924 1193 962
f 1421 876 878
f 1495 1460 1496
f 973 1176 1501
f 963 1447 1502
f 1141 911 941
f 872 919 878
f 1378 1474 1494
f 1474 1242 1494
f 909 908 1503
f 1459 981 960
f 952 1237 1059
f 908 911 1504
f 1083 1097 1070
f 1244 1228 1501
f 1415 861 1008
f 938 937 1059
f 1261 952 1037
f 866 868 982
f 863 1410 875
f 996 1433 931
f 1432 883 931
f 1460 1457 1500
f 1455 890 944
f 977 976 1503
f 1146 920 1495
f 1073 1072 1500
f 920 975 1495
f 735 723 1000
f 930 890 1504
f 430 856 1042
f 1094 984 925
f 869 1447 963
f 988 1183 882
f 939 1080 983
f 723 1012 1000
f 427 431 898
f 956 1433 1014
f 1442 1046 1014
f 897 1012 1034
f 1451 863 865
f 1387 1134 948
f 1443 937 983
f 1080 1446 983
f 723 722 1034
f 1228 963 1502
f 971 1080 1031
f 1012 723 1034
f 989 972 1031
f 402 366 1505
f 883 871 974
f 980 1142 1085
f 366 1466 1505
f 1193 1093 962
f 919 1483 878
f 961 1094 925
f 856 1008 1042
f 1046 1015 1085
f 1194 884 974
f 1228 1227 963
f 980 1016 978
f 1462 908 1504
f 908 1462 1503
f 975 922 990
f 1008 861 1042
f 1157 1451 865
f 951 956 1037
f 1021 1338 950
f 959 1459 960
f 986 1460 1495
f 1016 959 978
f 1462 977 1503
f 890 1462 1504
f 1483 1421 878
f 1410 915 875
f 937 953 1059
f 972 1455 944
f 1176 1244 1501
f 1237 938 1059
f 1457 1449 1500
f 911 930 1504
f 989 988 991
f 1433 1432 931
f 922 998 990
f 955 1261 1037
f 950 1338 1000
f 976 909 1503
f 366 448 1506
f 995 1102 1013
f 448 866 1506
f 1038 402 1505
f 1013 1075 1074
f 1466 366 1506
f 1338 735 1000
f 1433 1442 1014
f 1111 742 936
f 698 1141 941
f 1446 1443 983
f 985 1038 1505
f 972 971 1031
f 1501 1228 1502
f 1142 1047 1085
f 1072 1146 1496
f 1466 985 1505
f 1460 1500 1496
f 722 895 1034
f 892 427 898
f 977 989 991
f 1183 881 882
f 440 430 1042
f 1447 1019 1502
f 866 982 1506
f 1073 1089 1074
f 998 1038 990
f 982 1466 1506
f 1019 1501 1502
f 1500 1072 1496
f 1089 1013 1074
