v 0.00000000 2.27384254 -1.41349614
v 0.00000000 2.02975996 -1.14033293
v 0.00000000 2.27801141 -1.13499560
v 0.00000000 1.25294001 1.81630659
v 0.00000000 1.14734871 1.22010377
v 0.00000000 0.63349366 1.79986350
v 0.00000000 3.00624929 1.83003272
v 0.00000000 3.67017288 1.88652892
v 0.00000000 3.35422637 1.44165265
v 0.00000000 0.60285345 -0.23694850
v 0.00000000 0.62595436 0.38970754
v 0.00000000 1.02419946 0.01814812
v 0.00000000 4.29374430 0.42310615
v 0.00000000 4.35209642 -0.35602166
v 0.00000000 3.96010812 0.00045723
v 0.00000000 3.33333333 -2.50000000
v 0.00000000 2.93909519 -1.87005987
v 0.00000000 3.32139586 -1.65360778
v 0.00000000 1.66666667 2.50000000
v 0.00000000 2.05691039 1.85368180
v 0.00000000 1.66357396 1.63974120
v 0.00000000 3.74551703 -1.79971819
v 0.00000000 5.00000000 -2.50000000
v 0.00000000 4.16666667 -2.50000000
v 0.00000000 4.35636281 -1.78836285
v 0.00000000 0.83333333 -2.50000000
v 0.00000000 0.00000000 -2.50000000
v 0.00000000 0.63641831 -1.80931459
v 0.00000000 1.22974499 -0.54782483
v 0.00000000 1.36186788 -0.82690139
v 0.00000000 0.84309550 -0.71135659
v 0.00000000 3.81854618 1.24763397
v 0.00000000 4.34489470 1.82082113
v 0.00000000 1.94200206 -1.87061851
v 0.00000000 1.28411003 -1.82955393
v 0.00000000 1.51284716 -1.45968752
v 0.00000000 1.66666667 -2.50000000
v 0.00000000 3.33333333 2.50000000
v 0.00000000 0.56733993 1.09610400
v 0.00000000 4.38379226 -1.06185026
v 0.00000000 3.98508236 -0.72815512
v 0.00000000 1.08040577 0.36970731
v 0.00000000 0.00000000 -0.83333333
v 0.00000000 3.84220090 -1.20194199
v 0.00000000 5.00000000 -1.66666667
v 0.00000000 0.00000000 -1.66666667
v 0.00000000 5.00000000 -0.83333333
v 0.00000000 1.12218981 -1.21080466
v 0.00000000 0.57887668 -1.14886228
v 0.00000000 4.41398245 1.12409724
v 0.00000000 2.50000000 -2.50000000
v 0.00000000 2.46094765 -1.83256401
v 0.00000000 1.87390969 -1.44700857
v 0.00000000 0.00000000 0.00000000
v 0.00000000 5.00000000 0.00000000
v 0.00000000 0.83333333 2.50000000
v 0.00000000 4.16666667 2.50000000
v 0.00000000 3.88017171 0.29397876
v 0.00000000 2.50000000 2.50000000
v 0.00000000 2.50992032 1.81949116
v 0.00000000 5.00000000 2.50000000
v 0.00000000 0.00000000 2.50000000
v 0.00000000 0.99831551 0.74585959
v 0.00000000 2.64979845 -1.50864555
v 0.00000000 2.96837468 -1.42841261
v 0.00000000 3.83578421 0.56302583
v 0.00000000 2.33562541 1.47881809
v 0.00000000 2.01135589 1.40191623
v 0.00000000 5.00000000 1.66666667
v 0.00000000 0.00000000 1.66666667
v 0.00000000 4.02437359 0.86704329
v 0.00000000 5.00000000 0.83333333
v 0.00000000 0.00000000 0.83333333
v 0.00000000 3.43799301 1.09110181
v 0.00000000 3.65632379 -0.82618482
v 0.00000000 2.98937152 1.37694293
v 0.00000000 2.68144287 1.47668573
v 0.00000000 1.33832037 0.83432775
v 0.00000000 1.76658461 1.23064702
v 0.00000000 3.90694651 -0.35787701
v 0.00000000 2.73721020 -1.19182481
v 0.00000000 2.97814760 -1.07393709
v 0.00000000 3.47732686 -1.33781980
v 0.00000000 1.49021301 1.37625836
v 0.00000000 3.41354546 0.40673664
v 0.00000000 3.30901699 0.58778525
v 0.00000000 3.53608806 0.59236477
v 0.00000000 1.76649950 -1.21515086
v 0.00000000 3.47814760 -0.20791169
v 0.00000000 3.50000000 0.00000000
v 0.00000000 3.68548498 -0.13074467
v 0.00000000 2.60452846 -0.99452190
v 0.00000000 2.80901699 -0.95105652
v 0.00000000 1.52185240 0.20791169
v 0.00000000 1.50000000 0.00000000
v 0.00000000 1.31343842 0.13084709
v 0.00000000 3.21539082 -1.23170447
v 0.00000000 3.38505051 0.80363050
v 0.00000000 1.06161072 -0.31967159
v 0.00000000 3.19479733 1.19861062
v 0.00000000 1.53572575 -1.07987024
v 0.00000000 1.61839818 -0.79609058
v 0.00000000 1.80328927 -0.97154498
v 0.00000000 3.67628638 0.12384383
v 0.00000000 3.19587703 0.96668628
v 0.00000000 3.16913061 0.74314483
v 0.00000000 1.69098301 -0.58778525
v 0.00000000 1.83086939 -0.74314483
v 0.00000000 3.16913061 -0.74314483
v 0.00000000 3.30901699 -0.58778525
v 0.00000000 3.38196788 -0.79390719
v 0.00000000 1.83086939 0.74314483
v 0.00000000 1.69098301 0.58778525
v 0.00000000 1.61803212 0.79390719
v 0.00000000 1.31325108 -0.12675508
v 0.00000000 3.52029587 -0.58905761
v 0.00000000 1.47943759 0.58942529
v 0.00000000 3.66684252 0.84737485
v 0.00000000 3.47814760 0.20791169
v 0.00000000 3.63493554 0.35946078
v 0.00000000 1.52185240 -0.20791169
v 0.00000000 1.58645454 -0.40673664
v 0.00000000 1.37633233 -0.36502496
v 0.00000000 1.58645454 0.40673664
v 0.00000000 1.36988379 0.37654962
v 0.00000000 3.41354546 -0.40673664
v 0.00000000 3.62967020 -0.37636995
v 0.00000000 3.00000000 -0.86602540
v 0.00000000 2.19098301 0.95105652
v 0.00000000 2.00000000 0.86602540
v 0.00000000 2.01963526 1.07906258
v 0.00000000 2.00000000 -0.86602540
v 0.00000000 2.19098301 -0.95105652
v 0.00000000 3.00000000 0.86602540
v 0.00000000 2.80901699 0.95105652
v 0.00000000 2.98006278 1.07853956
v 0.00000000 3.19349792 -0.95424182
v 0.00000000 1.80371824 0.95815397
v 0.00000000 1.47403298 -0.59280195
v 0.00000000 2.60452846 0.99452190
v 0.00000000 2.39547154 0.99452190
v 0.00000000 2.50042663 1.18904971
v 0.00000000 2.39547154 -0.99452190
v 0.00000000 2.50000000 -1.17557050
v 0.00000000 2.74706405 1.16577978
v 0.00000000 2.25406324 1.15840028
v 0.00000000 1.25327261 0.58317391
v 0.00000000 3.44403092 -1.05099794
v 0.00000000 1.55569751 1.05137035
v 0.00000000 3.73966375 -0.57552890
v 3.02655173 0.00000000 1.38457969
v 3.23615674 0.00000000 1.18889440
v 3.42228148 0.00000000 1.42630665
v 0.71573042 0.00000000 0.42586174
v 0.64853510 0.00000000 -0.35602132
v 1.03341676 0.00000000 0.00179411
v 1.66666667 0.00000000 -2.50000000
v 2.06090481 0.00000000 -1.87005987
v 1.67856852 0.00000000 -1.65368640
v 3.72493878 0.00000000 1.82112042
v 3.86958672 0.00000000 1.20756079
v 4.37271678 0.00000000 1.82160568
v 1.16223589 0.00000000 1.21626952
v 1.17610852 0.00000000 1.79638773
v 0.62952377 0.00000000 1.78336712
v 4.33067853 0.00000000 -1.05117889
v 4.35070568 0.00000000 -0.35170449
v 4.04816425 0.00000000 -0.69474981
v 1.25448297 0.00000000 -1.79971819
v 1.54334268 0.00000000 1.08004334
v 1.62072696 0.00000000 1.51496954
v 3.67382694 0.00000000 -0.79152761
v 3.80333715 0.00000000 -1.27350079
v 4.16666667 0.00000000 -2.50000000
v 5.00000000 0.00000000 -2.50000000
v 4.36843110 0.00000000 -1.77978336
v 0.83333333 0.00000000 -2.50000000
v 0.64367152 0.00000000 -1.78843404
v 3.02211212 0.00000000 1.85501316
v 3.33333333 0.00000000 2.50000000
v 3.49129416 0.00000000 -1.02554423
v 3.29410445 0.00000000 -1.26891818
v 0.61634557 0.00000000 -1.06205618
v 1.01467331 0.00000000 -0.72832439
v 1.21028453 0.00000000 0.57421832
v 1.11333106 0.00000000 0.29474558
v 0.83333333 0.00000000 2.50000000
v 1.60821622 0.00000000 2.00059317
v 1.15786726 0.00000000 -1.20216323
v 5.00000000 0.00000000 -1.66666667
v 4.47510853 0.00000000 1.23428617
v 0.65261045 0.00000000 1.13542289
v 3.33333333 0.00000000 -2.50000000
v 3.82465467 0.00000000 -1.92724454
v 3.36819051 0.00000000 -1.66131777
v 5.00000000 0.00000000 -0.83333333
v 2.92546104 0.00000000 -1.88708972
v 2.50000000 0.00000000 -2.50000000
v 2.49999255 0.00000000 -1.86913487
v 1.01681719 0.00000000 0.83791984
v 2.50000000 0.00000000 2.50000000
v 2.04004302 0.00000000 1.89882361
v 2.50682728 0.00000000 1.87448064
v 4.16666667 0.00000000 2.50000000
v 3.78456405 0.00000000 0.57098967
v 3.99195419 0.00000000 0.32634454
v 4.17707352 0.00000000 0.77011660
v 4.46873338 0.00000000 0.39152406
v 5.00000000 0.00000000 0.83333333
v 5.00000000 0.00000000 2.50000000
v 1.66666667 0.00000000 2.50000000
v 3.69880630 0.00000000 0.82741439
v 5.00000000 0.00000000 0.00000000
v 2.34668277 0.00000000 -1.51641212
v 2.03120641 0.00000000 -1.42933720
v 2.32767913 0.00000000 1.51273913
v 2.00995435 0.00000000 1.40921984
v 5.00000000 0.00000000 1.66666667
v 1.80518806 0.00000000 1.20344958
v 1.34368012 0.00000000 -0.82641693
v 4.28172846 0.00000000 0.05980825
v 1.09123945 0.00000000 -0.35801407
v 2.26278980 0.00000000 -1.19182481
v 2.02185240 0.00000000 -1.07393709
v 1.52267314 0.00000000 -1.33781980
v 3.22858991 0.00000000 -0.96616493
v 3.00924064 0.00000000 -1.10459568
v 3.91881748 0.00000000 0.00000000
v 3.90139208 0.00000000 -0.34739528
v 2.67747933 0.00000000 -1.51372078
v 2.76785808 0.00000000 -1.18522796
v 3.00900359 0.00000000 -1.42367109
v 3.16913061 0.00000000 -0.74314483
v 3.00000000 0.00000000 -0.86602540
v 2.39547154 0.00000000 -0.99452190
v 2.19098301 0.00000000 -0.95105652
v 2.60452846 0.00000000 0.99452190
v 2.80901699 0.00000000 0.95105652
v 2.75948422 0.00000000 1.18712956
v 2.19098301 0.00000000 0.95105652
v 2.39547154 0.00000000 0.99452190
v 2.24195751 0.00000000 1.17566362
v 1.78460918 0.00000000 -1.23170447
v 1.52185240 0.00000000 -0.20791169
v 1.50000000 0.00000000 0.00000000
v 1.31007952 0.00000000 -0.13069743
v 2.50413676 0.00000000 1.21781827
v 2.68454476 0.00000000 1.50787240
v 2.98556203 0.00000000 1.09087293
v 3.38161837 0.00000000 0.79585416
v 3.46647048 0.00000000 1.06312474
v 3.20163785 0.00000000 0.96394351
v 1.61838163 0.00000000 0.79585416
v 1.80319271 0.00000000 0.95900772
v 1.31047482 0.00000000 0.12444415
v 3.16913061 0.00000000 0.74314483
v 3.30901699 0.00000000 0.58778525
v 3.30901699 0.00000000 -0.58778525
v 3.37993551 0.00000000 -0.78594342
v 1.83086939 0.00000000 -0.74314483
v 1.69098301 0.00000000 -0.58778525
v 1.61803212 0.00000000 -0.79390719
v 1.69098301 0.00000000 0.58778525
v 1.83086939 0.00000000 0.74314483
v 1.47965521 0.00000000 -0.58908836
v 3.41354546 0.00000000 0.40673664
v 3.47814760 0.00000000 0.20791169
v 3.63030857 0.00000000 0.36775455
v 1.58645454 0.00000000 -0.40673664
v 1.36969174 0.00000000 -0.37662701
v 1.52185240 0.00000000 0.20791169
v 1.58645454 0.00000000 0.40673664
v 1.37636148 0.00000000 0.36501537
v 3.47814760 0.00000000 -0.20791169
v 3.41354546 0.00000000 -0.40673664
v 3.61803399 0.00000000 -0.36327126
v 3.00000000 0.00000000 0.86602540
v 2.80901699 0.00000000 -0.95105652
v 2.00000000 0.00000000 0.86602540
v 2.00739619 0.00000000 1.08461190
v 2.00000000 0.00000000 -0.86602540
v 1.80650208 0.00000000 -0.95424182
v 1.47407360 0.00000000 0.59273871
v 3.53176698 0.00000000 0.59530069
v 3.52386075 0.00000000 -0.58430195
v 2.60452846 0.00000000 -0.99452190
v 2.51587794 0.00000000 -1.20078889
v 3.50000000 0.00000000 0.00000000
v 3.68258449 0.00000000 -0.12471665
v 3.68245384 0.00000000 0.12421862
v 1.55596908 0.00000000 -1.05099794
v 1.34322468 0.00000000 0.83782673
v 3.75305560 0.00000000 -0.55624918
v 1.25978797 0.00000000 -0.57569415
v 1.51235644 1.53717677 2.50000000
v 1.24252147 0.69322502 2.50000000
v 2.01106195 0.74691344 2.50000000
v 2.01106195 4.25308656 2.50000000
v 1.24297403 4.30586450 2.50000000
v 1.51615796 3.45517523 2.50000000
v 2.24879763 1.39503175 2.50000000
v 2.29832204 3.61034632 2.50000000
v 4.24578676 2.09244522 2.50000000
v 4.42562709 2.90288148 2.50000000
v 3.63888915 2.90049996 2.50000000
v 3.43449008 2.10782793 2.50000000
v 4.24345955 3.68812887 2.50000000
v 3.47759853 3.66936181 2.50000000
v 3.58985725 1.43961802 2.50000000
v 4.31525329 1.23558448 2.50000000
v 0.70564337 1.25353114 2.50000000
v 0.70564337 3.74646886 2.50000000
v 2.88675135 1.66666667 2.50000000
v 2.89539342 0.84099396 2.50000000
v 2.88978512 4.15412485 2.50000000
v 2.89366985 3.30044717 2.50000000
v 0.72168784 2.08333333 2.50000000
v 2.16506351 2.08333333 2.50000000
v 2.87468208 2.49537185 2.50000000
v 2.18093533 2.88889777 2.50000000
v 0.72092989 2.91248120 2.50000000
v 5.00000000 2.50000000 2.50000000
v 5.00000000 1.66666667 2.50000000
v 5.00000000 4.16666667 2.50000000
v 5.00000000 3.33333333 2.50000000
v 3.76146863 0.69418989 2.50000000
v 1.45487247 2.47841835 2.50000000
v 1.66666667 5.00000000 2.50000000
v 2.50000000 5.00000000 2.50000000
v 3.33333333 5.00000000 2.50000000
v 5.00000000 0.83333333 2.50000000
v 0.83333333 5.00000000 2.50000000
v 3.72218898 4.30360822 2.50000000
v 4.16666667 5.00000000 2.50000000
v 0.61004234 0.61004234 2.50000000
v 0.61004234 4.38995766 2.50000000
v 4.38995766 0.61004234 2.50000000
v 5.00000000 5.00000000 2.50000000
v 4.38995766 4.38995766 2.50000000
v 1.51235644 1.53717677 -2.50000000
v 2.01106195 0.74691344 -2.50000000
v 1.24252147 0.69322502 -2.50000000
v 2.01106195 4.25308656 -2.50000000
v 1.51615796 3.45517523 -2.50000000
v 1.24297403 4.30586450 -2.50000000
v 2.24879763 1.39503175 -2.50000000
v 2.29987040 3.61055617 -2.50000000
v 4.34346366 3.79096385 -2.50000000
v 4.32418269 2.97002380 -2.50000000
v 3.58340320 3.58396212 -2.50000000
v 3.58214351 2.79767041 -2.50000000
v 4.24578676 2.09244522 -2.50000000
v 3.42314095 2.08726202 -2.50000000
v 4.31525329 1.23558448 -2.50000000
v 3.58796573 1.43619037 -2.50000000
v 0.70564337 1.25353114 -2.50000000
v 0.70564337 3.74646886 -2.50000000
v 2.88675135 1.66666667 -2.50000000
v 2.89539342 0.84099396 -2.50000000
v 2.89804643 4.15607399 -2.50000000
v 2.89315030 3.29954730 -2.50000000
v 3.33333333 5.00000000 -2.50000000
v 3.77060085 4.32184870 -2.50000000
v 0.72168784 2.08333333 -2.50000000
v 2.16506351 2.08333333 -2.50000000
v 2.18093533 2.88889777 -2.50000000
v 2.87468208 2.49537185 -2.50000000
v 1.45487247 2.47841835 -2.50000000
v 0.72092989 2.91248120 -2.50000000
v 4.16666667 5.00000000 -2.50000000
v 5.00000000 2.50000000 -2.50000000
v 5.00000000 1.66666667 -2.50000000
v 3.76146863 0.69418989 -2.50000000
v 1.66666667 5.00000000 -2.50000000
v 2.50000000 5.00000000 -2.50000000
v 5.00000000 0.83333333 -2.50000000
v 0.83333333 5.00000000 -2.50000000
v 5.00000000 4.16666667 -2.50000000
v 5.00000000 3.33333333 -2.50000000
v 0.61004234 0.61004234 -2.50000000
v 0.61004234 4.38995766 -2.50000000
v 4.38995766 0.61004234 -2.50000000
v 5.00000000 5.00000000 -2.50000000
v 4.39420061 4.39420061 -2.50000000
v 2.01106195 5.00000000 -1.75308656
v 1.24252147 5.00000000 -1.80677498
v 1.51235644 5.00000000 -0.96282323
v 1.51615796 5.00000000 0.95517523
v 1.24297403 5.00000000 1.80586450
v 2.01106195 5.00000000 1.75308656
v 2.24879763 5.00000000 -1.10496825
v 2.29987040 5.00000000 1.11055617
v 4.32418269 5.00000000 0.47002380
v 3.58340320 5.00000000 1.08396212
v 4.34346366 5.00000000 1.29096385
v 3.58214351 5.00000000 0.29767041
v 4.24578676 5.00000000 -0.40755478
v 3.42314095 5.00000000 -0.41273798
v 4.31525329 5.00000000 -1.26441552
v 3.58796573 5.00000000 -1.06380963
v 0.70564337 5.00000000 -1.24646886
v 0.70564337 5.00000000 1.24646886
v 2.89539342 5.00000000 -1.65900604
v 2.88675135 5.00000000 -0.83333333
v 2.89315030 5.00000000 0.79954730
v 2.89804643 5.00000000 1.65607399
v 3.77060085 5.00000000 1.82184870
v 1.45487247 5.00000000 -0.02158165
v 2.18093533 5.00000000 0.38889777
v 2.16506351 5.00000000 -0.41666667
v 0.72168784 5.00000000 -0.41666667
v 0.72092989 5.00000000 0.41248120
v 3.76146863 5.00000000 -1.80581011
v 2.87468208 5.00000000 -0.00462815
v 5.00000000 5.00000000 -0.83333333
v 5.00000000 5.00000000 0.00000000
v 5.00000000 5.00000000 -1.66666667
v 5.00000000 5.00000000 0.83333333
v 5.00000000 5.00000000 1.66666667
v 0.61004234 5.00000000 -1.88995766
v 4.38995766 5.00000000 -1.88995766
v 0.61004234 5.00000000 1.88995766
v 4.39420061 5.00000000 1.89420061
v 2.95522166 1.33415824 0.66993032
v 2.89377757 1.58013675 0.60386486
v 3.03852484 1.47699991 0.47776966
v 1.75750123 1.22657455 -0.93417986
v 1.52187423 1.15878933 -0.80945896
v 1.69755480 1.04310458 -0.86160789
v 1.59499846 1.33633183 -0.90790215
v 0.22501480 1.49602044 -0.15978346
v 3.08127708 0.23461793 0.80725966
v 2.79580683 1.46919776 0.75272535
v 2.48615840 0.55008911 -0.99892814
v 2.58727320 0.73327701 -0.98194283
v 2.34964758 0.74737751 -0.99940977
v 1.35442122 1.06150799 0.62681272
v 1.22122935 1.24525818 0.65474808
v 1.41523845 1.20739096 0.76861948
v 3.12004397 0.60378489 0.73512770
v 3.04638984 0.79571735 0.76113281
v 3.21876748 0.75707879 0.59109171
v 0.37598148 1.67955366 -0.62717605
v 0.17857510 1.75244162 -0.67427164
v 0.18107129 1.62760534 -0.50630661
v 2.47818751 0.91471847 -0.98992199
v 2.23156420 0.95133430 -0.99724967
v 1.86122011 1.96722669 -0.97809516
v 1.73080726 2.13197903 -0.96924615
v 1.65230928 1.92203254 -0.99940030
v 1.29903811 0.75000000 -0.00000000
v 1.35608575 0.68153124 -0.18738375
v 1.24261027 0.87952149 -0.21037468
v 1.69955468 1.56878700 -0.98234385
v 1.84445526 1.41673541 -0.98470302
v 0.34868725 2.12435916 -0.93778567
v 0.50391117 1.96787154 -0.88339204
v 0.57399575 2.14540248 -0.96025066
v 0.18238039 3.46343837 -0.25003418
v 0.26339042 3.41564840 -0.37804127
v 2.39280526 1.11971485 -0.98989069
v 0.45134801 2.30507585 -0.98851062
v 0.18867630 2.29451452 -0.98025426
v 0.31481824 2.49534914 -0.99988554
v 0.39465019 2.67230223 -0.97953244
v 0.19860940 2.69849166 -0.97859604
v 3.41576056 0.56956992 -0.26977927
v 3.42884133 0.67849062 -0.09657413
v 3.39203870 0.74901747 -0.22761114
v 1.37672055 1.72086362 -0.95512570
v 1.56810991 1.72701364 -0.98590806
v 1.44829702 1.90950869 -0.99464194
v 0.19259916 2.89767316 0.91472947
v 0.38982283 2.80312569 0.94394538
v 0.19364330 2.71612408 0.97481430
v 0.14509714 2.50000000 -0.99999115
v 1.20555380 1.09692998 0.49289761
v 3.11993400 0.94606593 0.64966671
v 2.29676808 0.19285340 0.98077352
v 2.13094292 0.35072555 0.94028525
v 2.31030385 0.37892094 0.98730622
v 3.37120656 0.21772952 0.47823799
v 1.19003001 0.91314214 -0.00000000
v 2.12993253 0.15791592 0.93131237
v 0.18765932 1.74955696 0.67215821
v 0.44270562 1.69979452 0.66873512
v 0.31132277 1.63271805 0.54587627
v 2.60008962 2.33828281 -0.07917946
v 2.50030901 2.38411792 -0.29728600
v 2.67013344 2.21995838 -0.23316033
v 2.06648812 0.54801345 -0.93214611
v 2.28061279 0.54685359 -0.98795520
v 2.14007882 0.74034156 -0.97187878
v 0.30566074 1.93334299 -0.83996297
v 2.07465801 2.46112229 0.69511165
v 2.11762432 2.60429273 0.51600334
v 2.22087401 2.44146682 0.59938509
v 0.37236418 1.55410304 -0.43192382
v 0.49142130 1.47893771 0.33686004
v 0.30895516 1.48516099 0.18337151
v 0.32053069 1.54892069 0.39597345
v 1.31208030 1.38597046 0.80632356
v 3.46429401 0.47864811 -0.07472518
v 1.57199319 0.52245653 -0.53719134
v 1.44731426 0.60267228 -0.36189068
v 1.50991859 0.41308348 -0.35571303
v 2.37937044 2.52024688 0.25860024
v 2.50603965 2.43794902 0.08641243
v 2.51550337 2.37896148 0.27214675
v 3.35417497 0.71662956 -0.36787374
v 1.54303834 0.19769978 -0.32894754
v 1.48392020 0.30428171 -0.17138501
v 2.90305807 0.17605354 0.91280688
v 3.24031709 0.19893885 0.66547711
v 0.49749351 1.42901409 0.16155424
v 1.52188300 2.10566628 -0.99517970
v 1.30827842 1.53699072 -0.87639038
v 1.50132891 1.51811299 -0.93104704
v 1.96903805 2.59475743 0.65308964
v 1.53942184 0.18038477 0.31211076
v 1.55696786 0.37053603 0.43682145
v 1.63052027 0.17380172 0.50988446
v 3.14485433 1.42001640 0.31045622
v 3.09508368 1.28213404 0.52656331
v 1.34931242 0.79410394 -0.35634424
v 1.77350187 1.75739190 -0.99999470
v 2.59616111 2.20670484 -0.42051382
v 2.30621534 2.22704485 0.70822396
v 2.15137111 2.30296559 0.75863557
v 3.21435964 1.21040989 0.35542389
v 1.71170951 2.80916579 0.61364269
v 1.93102108 2.73387489 0.53147260
v 1.81816119 2.65076854 0.69975079
v 0.33638234 1.85136552 0.78592388
v 0.39316709 3.15660425 -0.73228783
v 0.52698620 3.01996422 -0.82468028
v 0.57506867 3.15671117 -0.70554539
v 2.36082389 2.34719703 0.55911893
v 2.30960923 2.17623790 -0.73930148
v 2.42610116 2.01816884 -0.75494862
v 2.48164941 2.17315038 -0.60178080
v 1.48370920 0.71133438 -0.51931107
v 1.61173878 2.94141857 0.52019246
v 1.67059383 3.00522935 0.34567228
v 1.78272407 2.88180055 0.45860588
v 1.23389754 1.37261707 -0.75622859
v 1.41861080 1.33985361 -0.83603490
v 2.95209400 1.69144765 0.43104445
v 3.06557331 1.60424543 0.28012723
v 3.48849754 0.19745173 0.10864117
v 3.43892790 0.32533101 0.29890723
v 3.47009885 0.40717941 0.11022846
v 3.28843639 1.19839665 -0.00300241
v 3.35165965 1.00646486 0.03119301
v 3.29270475 1.11385394 0.21777104
v 1.97418040 1.98449886 0.95418463
v 2.06569732 2.16441224 0.87062147
v 2.16100347 1.94056393 0.91456814
v 2.82489976 0.47586307 0.93112520
v 2.62245099 0.35335105 0.98926254
v 2.64037681 0.53967008 0.98081030
v 1.15584408 0.98083602 0.17772861
v 1.30085748 0.83363585 0.29676614
v 1.26207755 0.82649254 0.13100627
v 2.80342965 0.30948350 0.94726185
v 2.18531141 0.36133998 -0.95852265
v 2.39392657 2.55017097 0.06704148
v 0.38822857 1.44888874 -0.00000000
v 0.37385237 1.48282894 -0.24001546
v 1.20800092 0.99337250 0.35196526
v 1.91235249 1.60857790 -0.99999942
v 1.12161887 1.05295215 -0.27452605
v 1.13763881 1.12583396 -0.43700044
v 0.98293545 1.20577517 -0.32895061
v 1.68841861 0.32667896 0.62544473
v 1.76258448 0.46687091 0.73632177
v 1.84443258 0.27975785 0.77294613
v 1.50903022 0.33300741 0.29768837
v 0.18104424 3.36236991 -0.49788950
v 1.50614851 1.35246026 0.87958643
v 1.62216476 1.50729000 0.95833372
v 1.71255144 1.32539956 0.94240609
v 0.15817656 1.54110473 0.30980831
v 0.13998425 1.62762894 0.49941572
v 0.35067180 2.96562494 0.87379990
v 1.53833513 1.69098698 0.97683922
v 1.42076040 1.53036584 0.91127430
v 3.26131237 0.53660887 0.59305255
v 0.29930405 1.81532265 -0.75111736
v 3.15100874 1.50583326 0.12359282
v 3.21136533 1.38990786 -0.03886759
v 3.23265104 1.30381430 0.16862713
v 0.47702131 1.56531889 0.50416063
v 0.65621216 1.47216303 0.45944453
v 2.47167722 1.26242434 -0.96132671
v 2.31944796 1.33376438 -0.98446390
v 2.22956358 1.14800973 -0.99996986
v 2.22921298 2.08935987 0.83165480
v 0.66979555 1.35821102 -0.16900869
v 0.56264191 1.45226328 -0.33405066
v 0.50961330 1.42389125 -0.15661273
v 0.19554323 3.49211774 -0.06940974
v 0.37119633 3.47274099 -0.12205801
v 0.36823020 3.47938475 0.04865265
v 1.75648609 0.14771255 0.67555033
v 1.07403348 1.12242780 0.32273197
v 0.19238681 3.48920230 0.10471599
v 0.72665488 1.36949852 -0.31328184
v 3.32911289 0.89893690 -0.31724217
v 1.58720726 0.33260901 -0.47807864
v 3.28353195 0.84654694 -0.45419344
v 0.77842132 3.30155341 -0.45188101
v 0.60737594 3.26828588 -0.56623479
v 0.79407742 3.18610522 -0.62130477
v 1.83108294 2.93534268 0.28123505
v 3.44833670 0.14402743 0.30813327
v 1.43804193 0.48620722 -0.18894606
v 3.45617040 0.35734614 -0.22397474
v 1.33201338 1.71048759 0.94326343
v 1.98949179 0.36361565 -0.87860322
v 0.99850370 1.13857526 -0.16900869
v 0.19100357 1.54296549 -0.32632598
v 0.45801482 1.80463495 -0.76991193
v 0.34989665 2.98857250 -0.86077514
v 1.38323268 0.89734145 -0.52484781
v 3.17987333 0.40792684 0.70827981
v 1.46118148 0.47932403 0.27231395
v 1.36210907 0.66043390 0.16540797
v 1.40498983 0.66610598 0.32676228
v 1.60105333 1.17883586 0.85911759
v 1.05593903 1.38876884 -0.65528276
v 1.11258599 1.53963844 -0.79967098
v 0.92825279 1.53852193 -0.71105064
v 1.38581930 0.57402515 -0.00000000
v 1.44888874 0.38822857 -0.00000000
v 2.45865169 2.48520592 -0.09061861
v 1.69218564 0.98524672 0.84045083
v 1.51596552 1.01930424 0.73944410
v 1.42699066 0.48398247 0.11668962
v 2.55988677 1.99152515 -0.66892434
v 1.17460385 1.23038339 -0.60138433
v 1.34374882 1.19394057 -0.71172457
v 1.08729085 1.21535527 0.49434272
v 2.11361699 1.64269321 -0.98422802
v 1.98662774 1.80645586 -0.98271231
v 2.34134428 2.32936925 -0.59637755
v 3.48381910 0.31837414 -0.05765785
v 1.00941248 2.74071109 -0.90720598
v 1.19489037 2.75129226 -0.86627815
v 1.05684637 2.91304888 -0.80087247
v 0.56477833 1.55207147 -0.52941287
v 0.16478945 2.08423980 -0.91241967
v 2.63481136 1.39346525 0.87693994
v 2.70537313 1.20117406 0.88789591
v 2.51664661 1.23025594 0.95354304
v 0.48451839 2.34101212 0.99400074
v 0.67655791 2.31204062 0.99585054
v 0.55717899 2.14967608 0.96020698
v 1.60779541 0.51779045 0.58520699
v 1.68938472 0.65668357 0.72620992
v 2.70805387 0.18352024 -0.97677553
v 2.59895900 0.36712533 -0.99218686
v 2.49815360 0.18330484 -0.99998814
v 1.79578122 1.13844229 0.92752398
v 0.45624617 3.24259181 -0.63253428
v 2.72996379 2.07469011 -0.37044543
v 0.75868880 2.12651970 0.97022822
v 2.27551324 0.89718738 0.99854082
v 2.15370887 0.73284017 0.97435326
v 2.07024312 0.92260209 0.97236099
v 2.43773552 1.48495547 -0.93509074
v 0.34029074 3.32935848 0.53206469
v 0.18235523 3.24460668 0.66174719
v 0.16092354 3.34574357 0.52740923
v 2.03738226 1.45303855 -0.99999700
v 1.45419439 1.87663167 0.99204499
v 0.19578929 1.48716729 -0.00000000
v 0.88141087 2.29116235 0.99898042
v 0.23787403 2.00488715 0.87669281
v 0.15846086 1.87731013 0.78773519
v 1.87234465 0.54128804 -0.83451646
v 1.81580690 0.36031122 -0.76096759
v 0.34505169 2.17020854 0.95313924
v 0.85904985 1.32474025 -0.38930972
v 0.84013292 1.26598602 -0.19596608
v 3.34732274 0.93255934 0.22307972
v 2.27161185 2.51393951 0.45939625
v 0.33688348 3.20916430 0.68685116
v 0.34509876 2.65357239 0.98440474
v 1.24313987 2.90442618 -0.75189224
v 2.47901124 0.87807786 0.99152353
v 2.56286401 0.69986043 0.98764560
v 2.35677303 0.71164294 0.99927287
v 3.16950670 1.09828948 0.51961264
v 3.27286095 1.02654951 0.36736667
v 1.05066431 1.92183094 0.95082805
v 1.16849994 2.08341810 0.99379003
v 1.25173686 1.89945183 0.97431496
v 2.29178517 0.18091570 -0.97957378
v 2.08861441 0.18237523 -0.91500684
v 0.65640348 2.33577240 -0.99727690
v 1.69220186 2.20334108 0.96053027
v 1.80586920 2.35625773 0.88336327
v 1.88518824 2.18153309 0.92365251
v 2.62924850 2.05471684 -0.54737704
v 1.39819986 2.26558760 -0.98674119
v 1.47383107 2.44722828 -0.93419430
v 1.26362805 2.41847078 -0.97349897
v 0.99018253 2.20515473 -0.99657156
v 0.86160349 2.36992319 -0.99976485
v 0.78445466 2.17414527 -0.98204181
v 1.37140815 2.06240808 0.99972967
v 2.90577009 0.18555864 -0.91132448
v 2.80055875 0.37002303 -0.94574921
v 0.15081345 2.13879351 0.93452560
v 2.70353860 1.86854024 -0.61769075
v 2.39166891 0.36319593 -0.99672133
v 1.10379566 3.05807595 -0.66009357
v 0.91457245 2.93961934 0.81560838
v 1.01673646 2.78631611 0.88477100
v 0.81152149 2.79205045 0.91316249
v 2.58976205 1.36460851 -0.90411486
v 0.39223494 3.34682063 -0.49353404
v 1.63479795 0.17868226 -0.51785878
v 2.98684175 0.36757526 -0.86054492
v 3.06732896 0.54570387 -0.78814197
v 2.89096954 0.55187329 -0.89643597
v 1.90661174 0.18512070 -0.81144969
v 0.67334777 2.86892421 -0.89459208
v 0.48326744 2.84360989 -0.92317376
v 0.60270657 2.68561831 -0.96761848
v 2.80236613 1.30633337 0.80602124
v 2.42479662 1.41638613 0.95133306
v 0.98417128 1.68829585 -0.83792188
v 0.96534226 2.10495435 0.98288024
v 3.15363510 0.36464365 -0.73814113
v 3.08321282 0.18239565 -0.80842212
v 2.74270489 1.65751856 0.70955254
v 2.22786303 1.43504483 0.98867949
v 2.02606576 1.46152883 0.99999838
v 2.13976640 1.62790910 0.98204976
v 0.59884811 1.59273336 0.60211810
v 0.88543336 1.41492957 -0.55647684
v 0.15162912 1.90541388 -0.80845175
v 3.44603597 0.16963564 -0.31161418
v 3.49099416 0.15199621 -0.10660438
v 2.45590503 0.50136433 0.99997849
v 1.99734499 2.32068266 0.82723585
v 0.91787534 2.01529519 -0.95837196
v 2.65835447 1.23907965 -0.90142030
v 2.76750534 1.06996566 -0.88418403
v 2.84075810 1.22389236 -0.80506312
v 0.40623246 3.09425407 0.78396385
v 0.20862242 3.08939856 0.80266173
v 0.65583670 1.81683112 -0.82273779
v 2.59542702 1.04284067 0.95484695
v 0.23309185 3.41647363 0.38138609
v 1.53814112 0.70607487 0.58981239
v 1.95521548 0.76274021 0.91595696
v 1.33379234 2.59588937 -0.90821669
v 0.85434201 1.39868434 0.50855184
v 0.79028097 1.33773839 0.32338808
v 0.92380306 3.25531952 -0.46774908
v 1.88328716 1.07341174 -0.94317862
v 2.23665762 0.54176633 0.98006769
v 1.02281672 1.34582510 0.58696038
v 0.95334287 1.27030532 0.41074572
v 1.28010430 3.03628074 -0.60648159
v 1.13576632 1.74255717 0.90753196
v 1.82172419 1.48343655 0.98858125
v 0.83559218 1.64263691 0.75384832
v 0.75572919 1.54024452 0.62032769
v 0.65374468 1.68136340 0.71802808
v 2.18993831 1.08791304 0.99850163
v 1.71562461 0.53324869 -0.71078057
v 1.61124761 0.70095033 -0.66941814
v 3.24034972 0.18104047 -0.66661388
v 1.31633163 2.59051612 0.91397496
v 1.40618495 2.41206862 0.95640918
v 1.20266634 2.43203668 0.97701845
v 1.77864807 2.01837350 0.98173656
v 2.87504208 0.90671768 -0.85741138
v 2.94684237 1.08087975 -0.76935755
v 1.21986348 1.56565567 0.85705689
v 1.02840156 1.60513010 0.80470054
v 0.80623558 2.71646172 -0.94272152
v 2.33249204 1.59885788 0.94472181
v 0.74710907 1.54437239 -0.62024597
v 2.97424335 0.72649425 -0.82735091
v 0.93388433 1.48866761 0.66967729
v 1.76143215 0.71101092 -0.79964047
v 1.65814080 0.86908333 -0.77828935
v 1.60596533 0.83817427 0.72527000
v 0.32913952 3.27412075 -0.61230330
v 0.91314214 1.19003001 -0.00000000
v 0.92172024 1.21556580 0.22441337
v 1.02646407 1.10904147 0.14897462
v 0.74028723 1.80189184 0.83386711
v 0.79404947 1.67888680 -0.76603034
v 1.41359533 0.76997811 0.45536473
v 1.49257473 0.58636044 0.44328697
v 1.44885190 3.03145214 -0.51047610
v 1.61596866 3.01665638 -0.38667232
v 1.45543383 3.12382896 -0.32345484
v 1.75174022 0.18062615 -0.67373613
v 1.67604819 0.35286669 -0.61668609
v 0.93867365 1.77362037 0.86985819
v 0.53995427 1.82798781 0.80451424
v 0.79994860 1.28116882 0.14385379
v 1.35173016 3.18555851 0.27833126
v 1.53515837 3.12036249 0.21069070
v 1.48244390 3.07498592 0.40644513
v 2.06348470 1.99499769 -0.92895646
v 2.25179548 2.00993972 -0.85516818
v 2.12128058 2.17100245 -0.84465816
v 1.60873781 3.08742349 -0.19191886
v 1.43676906 3.18277808 -0.12587994
v 2.74936986 1.95531310 -0.48635004
v 1.98778212 1.11070813 0.97482956
v 1.43053900 1.02976615 -0.67548772
v 1.77405980 0.79730820 0.83184409
v 0.71795210 1.44249320 -0.45846158
v 1.65796009 1.85583745 0.99993464
v 1.51529442 2.56316786 0.87859155
v 2.83280748 1.68486170 -0.60530836
v 2.85036826 1.82575666 -0.46565795
v 1.45202574 0.88733685 0.60224542
v 1.25340336 0.96420210 -0.39510020
v 0.60546434 1.67284043 -0.69297634
v 3.13625500 0.71918961 -0.69639474
v 3.26689358 0.70280834 -0.54004474
v 3.18902911 0.86933696 -0.59273491
v 1.85166632 0.60804781 0.83446955
v 2.37989678 1.84869548 -0.85804973
v 2.55464066 1.85619027 -0.75320228
v 0.14966761 3.46325351 0.25671927
v 1.31721219 0.94247598 0.47434917
v 1.17807164 1.70436773 -0.90372595
v 1.04706097 1.85931425 -0.93056233
v 1.11738166 1.43759238 0.73392808
v 0.84941092 1.94655586 0.92654347
v 1.24711927 1.88395774 -0.97060871
v 1.60502640 2.91186786 -0.56525143
v 1.11845640 2.04404217 -0.98544973
v 1.01499611 1.27890642 -0.49784419
v 1.57404547 2.04106019 0.99699176
v 2.72197226 1.94787915 0.53136499
v 2.66484772 1.82963164 0.68078217
v 2.56817746 2.00505825 0.65203512
v 0.71649270 1.98585578 -0.92130414
v 0.85140041 1.83792750 -0.88028343
v 1.81777043 0.89031519 -0.87949534
v 1.32004892 2.07720025 -0.99924530
v 1.74031367 1.66961348 0.99609400
v 1.87631506 0.95097651 0.91805549
v 0.75000000 1.29903811 -0.00000000
v 1.41956709 2.73355464 0.81449026
v 1.61608134 2.70000640 0.76274008
v 1.86287646 2.48468524 -0.79586500
v 1.90149390 2.63599155 -0.66115330
v 1.72313772 2.63453506 -0.76163026
v 1.71253587 2.53193101 0.83070935
v 1.60730444 2.38635779 0.92614236
v 1.31742702 2.89356229 0.73380708
v 1.51343503 2.85787115 0.67929028
v 1.19414466 2.23559424 -0.99940352
v 0.21097703 2.50767524 0.99986329
v 2.70739961 0.16909049 0.97712305
v 2.50000000 0.17407336 0.99998168
v 1.49072678 2.22682124 0.98371440
v 0.16275292 2.29311681 0.97956768
v 1.20805945 3.03985233 0.63671135
v 1.40429862 3.00198464 0.58057503
v 2.97204023 1.78976624 0.24574251
v 1.95717526 1.26121582 -0.98515750
v 1.60952517 2.29093062 -0.95399902
v 0.70992530 2.94806141 0.84653332
v 0.80574769 3.08476386 0.72546477
v 1.90830851 1.29773398 0.98134788
v 2.85801392 1.87628325 0.39455690
v 2.81711635 1.76758286 0.56406257
v 3.04152778 1.13733040 0.66458127
v 3.06006081 1.69076675 0.08831350
v 2.04768015 2.75993789 0.35038812
v 2.20256536 2.65243718 0.31912727
v 1.28471929 1.06840852 -0.55914187
v 2.68537947 0.90765187 -0.94235163
v 1.77363083 2.97860851 -0.25598524
v 1.75306396 3.02754382 -0.05539288
v 1.21954223 2.75969402 0.85589476
v 2.57902050 1.08538017 -0.95453279
v 2.12224155 2.76494529 0.16957423
v 2.25974401 2.66214614 0.12690997
v 1.28523747 3.13061805 0.46716582
v 1.09023906 3.16932738 0.52418377
v 2.39815325 2.04464411 0.75868184
v 1.71260846 3.03988633 0.14713186
v 1.88019136 2.94819401 0.08107394
v 2.18712411 1.83029744 -0.93602659
v 1.16111888 3.23783296 0.34191069
v 2.46450747 2.17661411 0.61557752
v 1.00843881 3.06707505 0.68493281
v 1.11853275 2.92058853 0.77865565
v 2.18114332 2.73681285 -0.02655938
v 2.32316572 2.61423164 -0.07304815
v 2.33894874 1.89403256 0.86037715
v 1.58125211 3.12238015 0.01047397
v 1.77431521 2.89445841 -0.44604872
v 2.22586507 2.58731265 -0.40792904
v 2.35031823 2.45132558 -0.44400149
v 2.36092207 2.53657043 -0.26122960
v 2.07118661 2.62055753 -0.54223033
v 2.21036725 2.47092298 -0.57904521
v 2.21689544 2.67642251 -0.22078733
v 2.51258500 2.28054093 0.44961744
v 2.61870721 2.12160521 0.49254453
v 1.92581086 2.76212327 -0.49795053
v 2.08120669 2.72682120 -0.36679324
v 1.92808402 2.85934736 -0.31624567
v 2.50572064 1.68342121 -0.85495700
v 3.12191081 1.57632361 -0.07340414
v 2.88735374 1.15753817 0.79183085
v 3.05789396 1.62889454 -0.26342172
v 3.15582845 1.44865260 -0.23314846
v 2.78775155 1.01626385 0.88414498
v 2.96468120 0.98446348 0.78153591
v 0.50706668 2.94702944 0.87153444
v 0.61697490 2.78298004 0.93654398
v 2.96051449 1.66485992 -0.44298643
v 3.06701610 1.48885959 -0.41615271
v 2.04176407 2.48612718 -0.69698685
v 0.17023945 2.90837131 -0.91057246
v 1.21720603 3.27030414 0.14466091
v 1.40222201 3.20354600 0.07754039
v 1.53500085 2.61615106 -0.84597137
v 1.39008868 2.75973876 -0.80735540
v 1.85868474 1.83364293 0.99382822
v 2.94665649 1.51388448 -0.58254561
v 2.79020994 0.73103204 -0.92317270
v 1.57734774 2.77668256 -0.72052449
v 3.04493359 0.90029570 -0.73759754
v 2.69637315 0.54876412 -0.96781866
v 0.60071254 3.09412042 0.75830997
v 2.67894614 1.69029478 -0.74449762
v 2.79862768 1.52289738 -0.72746282
v 1.42833601 2.91059454 -0.67020519
v 1.93585518 0.72375058 -0.90126153
v 2.75526719 2.05037933 0.35605391
v 3.30968313 0.83983462 0.40441561
v 3.33955749 0.64011980 0.43516118
v 3.38887185 0.73153627 0.25504511
v 3.10584891 1.04631353 -0.62905959
v 2.64322305 2.21731177 0.31198541
v 1.94127713 1.64782809 0.99892530
v 3.33882629 0.51906351 -0.47694535
v 1.90441066 2.49395216 0.77009796
v 2.62824490 1.52135627 -0.84370513
v 2.73800604 1.37153310 -0.82692235
v 3.40282282 0.81016853 0.06417203
v 3.36189520 0.17626311 -0.49915496
v 0.93562311 3.04535728 -0.72775013
v 1.00003490 3.16396221 -0.57487463
v 0.74005794 3.03192654 -0.78385838
v 0.86943713 2.89402581 -0.85306471
v 1.75647757 2.77809290 -0.61721591
v 0.52711459 2.49801272 -0.99859339
v 0.73214930 2.52875200 -0.99116845
v 3.21892030 0.53764360 -0.64579401
v 1.10516640 3.30068036 -0.19507774
v 0.94158348 3.31593523 -0.32114935
v 1.10029571 3.23377958 -0.40153735
v 2.63744728 2.29005150 0.11881624
v 2.96079790 1.86359221 0.05527599
v 1.93062786 2.15504456 -0.91938387
v 3.04802580 1.35287381 -0.55059020
v 2.90358832 1.36956528 -0.70381921
v 2.06673422 2.80487947 -0.17778508
v 1.99408723 2.33023958 -0.82372773
v 2.17617473 2.33204157 -0.72409997
v 0.56632424 3.32545213 0.48712912
v 0.50124820 3.22340450 0.64740703
v 0.75990928 3.38117903 -0.26032628
v 1.80712496 2.31378230 -0.90001322
v 3.24230333 1.26309709 -0.20072672
v 0.59356999 3.37090829 -0.38535342
v 2.86877327 0.82622299 0.87430230
v 2.94838402 0.63762617 0.85626087
v 2.76068897 0.67162156 0.93998679
v 0.92000717 3.36838370 -0.12807198
v 1.93135595 0.41852283 0.85183050
v 1.25780524 3.26432254 -0.05883831
v 1.07320192 3.33136648 0.00819390
v 0.88349051 3.38365780 0.07612652
v 3.41860551 0.52612014 0.28390207
v 2.00795314 0.91061262 -0.95543185
v 0.64286222 3.39119194 0.30737873
v 0.44156643 3.40934757 0.34711197
v 0.51548780 3.44903247 0.15860714
v 0.40552921 3.42562695 -0.31362503
v 0.57483773 3.43374966 -0.19129062
v 3.02469698 0.45302134 0.82954878
v 3.31704014 1.07219131 -0.16661507
v 0.93667566 2.55820572 -0.97452152
v 2.73142695 2.18768899 -0.03081354
v 2.80603186 2.06478676 -0.17903567
v 2.31366693 1.66625823 -0.93629193
v 2.23078883 1.48684835 -0.98350451
v 3.38044704 0.87554728 -0.12630396
v 1.28836094 2.24857781 0.99580324
v 0.76740561 3.30721533 0.44590074
v 2.75852945 2.13143420 0.16649029
v 3.25192878 1.11532133 -0.34697414
v 2.67842883 0.85389958 0.95032813
v 0.89152506 3.19713920 0.57363114
v 3.35749978 0.43926640 0.46346969
v 0.68883323 3.21700174 0.61320642
v 2.15696245 1.29049163 -0.99990840
v 1.02707415 3.32259195 0.20993864
v 2.39404494 1.06589921 0.99270007
v 0.17110877 3.23857264 -0.66919179
v 0.17614284 3.08703313 -0.80589807
v 1.08518511 2.26989320 0.99987267
v 2.08250468 1.09760809 -0.98929253
v 0.79740113 2.47879120 0.99458857
v 2.03240520 0.57279434 0.92148187
v 1.06583582 2.39731141 -0.99233613
v 2.10683661 1.27510431 0.99930229
v 2.31070228 1.25359767 0.99166410
v 0.59378310 2.49913346 0.99763701
v 1.00177676 2.45709524 0.98815417
v 0.91799000 2.64003329 0.95547204
v 2.52059216 1.57215601 0.88229325
v 1.06066017 1.06066017 -0.00000000
v 0.64806886 1.96943997 0.90440622
v 2.06435980 1.80076148 0.97092054
v 0.40816252 2.50716635 0.99919273
v 2.95457998 1.79477058 -0.29013787
v 3.02415331 1.75149199 -0.10240463
v 0.44511622 1.98940508 0.88718853
v 1.28009307 3.22025098 -0.26095643
v 1.99170419 0.22217949 0.86835577
v 2.86916077 1.96425958 0.21266513
v 0.96500110 3.27711516 0.40062476
v 3.16395837 1.31056056 -0.38082728
v 1.91306565 2.92250143 -0.11837182
v 3.44175651 0.60883455 0.09794285
v 0.57402515 1.38581930 -0.00000000
v 0.66925270 1.35758808 0.16428244
v 3.15362975 1.17290943 -0.50231655
v 3.00685168 1.21247622 -0.67028180
v 0.73431432 3.41990224 -0.06555171
v 1.13580954 2.58555241 -0.94604686
v 1.67607964 2.46814903 -0.87536932
v 2.50439045 1.87333813 0.77860226
v 3.29341902 0.35748170 -0.58259376
v 2.85190695 2.02867277 0.01783617
v 0.31426684 2.37615118 0.99466512
v 3.28823995 0.34478209 0.59155279
v 3.23350588 0.99210460 -0.47072115
v 1.11429358 2.61404691 0.93983259
v 2.66467202 1.55656598 0.81031356
v 1.48716729 0.19578929 -0.00000000
v 1.48162670 0.31024958 0.16532608
v 0.83045169 3.36290040 0.26618828
v 1.12328021 1.00612335 -0.12618212
v 3.22132035 0.93370210 0.52042263
v 3.39721919 0.35980485 -0.40067602
v 2.92009305 1.91432459 -0.12899989
v 1.29042054 3.14207743 -0.44255982
v 1.52033744 0.86700487 -0.66163972
v 0.32201991 3.46244725 0.21144682
v 2.45779925 2.31842016 -0.47731024
v 0.69674435 3.42190739 0.12529038
v 2.03937604 2.84424767 0.01851996
v 0.31970935 2.81867414 -0.94159489
v 2.45258523 0.32362665 0.99965790
v 1.15324198 3.14319768 -0.52986365
v 2.41079331 2.41364708 0.41153245
v 0.54572234 3.45711244 -0.01265704
v 0.14227040 1.50386847 0.14510053
v 1.50386847 0.14227040 -0.14510053
v 1.50386847 0.14227040 0.14510053
v 2.43075882 1.72924541 0.87556588
v 2.24793218 1.76579561 0.93351555
v 1.97727808 2.86101812 0.20956688
v 2.84665667 1.94772305 -0.31463028
v 0.62443187 1.41439865 0.30013850
v 0.70894087 2.64549284 0.97105961
v 2.59716368 1.70446605 0.79506857
v 1.88466491 0.13622354 0.79207916
v 1.91616796 2.84715668 0.36269164
v 1.56505481 1.00071540 -0.76640338
v 0.50603542 2.65776888 0.97865413
v 2.93894210 0.32740917 0.88940340
v 5.00000000 1.51235644 -0.96282323
v 5.00000000 1.24252147 -1.80677498
v 5.00000000 2.01106195 -1.75308656
v 5.00000000 2.01106195 1.75308656
v 5.00000000 1.24297403 1.80586450
v 5.00000000 1.51615796 0.95517523
v 5.00000000 2.24879763 -1.10496825
v 5.00000000 2.29987040 1.11055617
v 5.00000000 4.34346366 1.29096385
v 5.00000000 3.58340320 1.08396212
v 5.00000000 4.32418269 0.47002380
v 5.00000000 3.58214351 0.29767041
v 5.00000000 4.24578676 -0.40755478
v 5.00000000 3.42314095 -0.41273798
v 5.00000000 3.58796573 -1.06380963
v 5.00000000 4.31525329 -1.26441552
v 5.00000000 0.70564337 -1.24646886
v 5.00000000 0.70564337 1.24646886
v 5.00000000 2.88675135 -0.83333333
v 5.00000000 2.89539342 -1.65900604
v 5.00000000 2.89804643 1.65607399
v 5.00000000 2.89315030 0.79954730
v 5.00000000 0.72168784 -0.41666667
v 5.00000000 1.45487247 -0.02158165
v 5.00000000 3.76146863 -1.80581011
v 5.00000000 0.72092989 0.41248120
v 5.00000000 3.77060085 1.82184870
v 5.00000000 2.16506351 -0.41666667
v 5.00000000 2.87468208 -0.00462815
v 5.00000000 2.18093533 0.38889777
v 5.00000000 0.61004234 -1.88995766
v 5.00000000 0.61004234 1.88995766
v 5.00000000 4.38995766 -1.88995766
v 5.00000000 4.39420061 1.89420061
f 1 2 3
f 4 5 6
f 7 8 9
f 10 11 12
f 13 14 15
f 16 17 18
f 19 20 21
f 22 16 18
f 4 19 21
f 23 24 25
f 26 27 28
f 29 30 31
f 32 8 33
f 34 35 36
f 37 35 34
f 38 8 7
f 5 39 6
f 14 40 41
f 12 11 42
f 43 10 31
f 22 44 25
f 45 23 25
f 27 46 28
f 14 47 40
f 48 35 28
f 40 45 25
f 46 49 28
f 50 32 33
f 17 51 52
f 24 22 25
f 35 26 28
f 53 34 36
f 54 11 10
f 13 55 14
f 56 19 4
f 37 26 35
f 38 57 8
f 24 16 22
f 30 48 31
f 47 45 40
f 46 43 49
f 13 15 58
f 20 59 60
f 44 40 25
f 51 34 52
f 59 7 60
f 57 61 33
f 62 56 6
f 51 37 34
f 19 59 20
f 16 51 17
f 59 38 7
f 2 1 53
f 11 39 63
f 55 47 14
f 43 54 10
f 17 64 65
f 49 43 31
f 66 13 58
f 20 67 68
f 1 64 52
f 61 69 33
f 70 62 6
f 35 48 36
f 8 57 33
f 56 4 6
f 49 48 28
f 50 13 71
f 72 13 50
f 11 73 39
f 54 73 11
f 72 55 13
f 32 74 9
f 13 66 71
f 44 75 41
f 69 72 50
f 73 70 39
f 7 76 77
f 5 78 63
f 68 79 21
f 34 1 52
f 8 32 9
f 15 14 80
f 81 82 65
f 44 22 83
f 5 4 84
f 67 20 60
f 64 17 52
f 69 50 33
f 39 70 6
f 85 86 87
f 60 7 77
f 2 53 88
f 89 90 91
f 92 93 81
f 39 5 63
f 94 95 96
f 82 97 65
f 67 60 77
f 20 68 21
f 76 7 9
f 86 98 87
f 80 14 41
f 65 97 18
f 10 12 99
f 1 34 53
f 93 82 81
f 9 74 100
f 40 44 41
f 76 9 100
f 101 102 103
f 91 90 104
f 74 98 105
f 86 106 98
f 107 108 102
f 109 110 111
f 112 113 114
f 96 95 115
f 75 111 116
f 78 114 117
f 99 29 31
f 87 118 66
f 42 11 63
f 48 49 31
f 119 85 120
f 121 122 123
f 124 94 125
f 126 89 127
f 93 128 82
f 129 130 131
f 132 133 2
f 134 135 136
f 106 134 105
f 36 101 88
f 128 109 137
f 130 112 138
f 108 132 103
f 110 126 116
f 113 124 117
f 122 107 139
f 140 141 142
f 143 92 144
f 96 12 42
f 91 15 80
f 98 106 105
f 112 114 138
f 109 111 137
f 144 1 3
f 102 108 103
f 133 143 3
f 111 110 116
f 114 113 117
f 107 102 139
f 135 140 145
f 141 129 146
f 118 98 74
f 90 119 104
f 63 78 147
f 87 98 118
f 95 121 115
f 66 118 71
f 134 136 105
f 131 130 138
f 82 128 137
f 137 111 148
f 138 114 149
f 48 101 36
f 132 2 103
f 126 127 116
f 124 125 117
f 123 122 139
f 10 99 31
f 42 63 147
f 144 64 1
f 120 85 87
f 145 142 77
f 127 89 91
f 30 102 101
f 148 111 75
f 2 133 3
f 149 114 78
f 136 135 145
f 129 131 146
f 119 120 104
f 125 94 96
f 144 92 81
f 4 21 84
f 22 18 83
f 143 144 3
f 32 50 71
f 121 123 115
f 142 141 146
f 140 142 145
f 91 104 15
f 96 115 12
f 139 102 30
f 131 138 79
f 82 137 97
f 64 81 65
f 136 145 76
f 53 36 88
f 142 146 67
f 123 139 29
f 138 149 79
f 137 148 97
f 41 75 150
f 146 131 68
f 105 136 100
f 75 116 150
f 149 78 5
f 148 75 44
f 118 74 32
f 17 65 18
f 115 123 99
f 78 117 147
f 101 103 88
f 125 96 42
f 80 41 150
f 127 91 80
f 118 32 71
f 120 87 66
f 30 101 48
f 144 81 64
f 142 67 77
f 76 145 77
f 21 79 84
f 18 97 83
f 131 79 68
f 136 76 100
f 103 2 88
f 139 30 29
f 116 127 150
f 117 125 147
f 67 146 68
f 123 29 99
f 74 105 100
f 104 120 58
f 12 115 99
f 15 104 58
f 149 5 84
f 148 44 83
f 125 42 147
f 79 149 84
f 97 148 83
f 127 80 150
f 120 66 58
f 151 152 153
f 154 155 156
f 157 158 159
f 160 161 162
f 163 164 165
f 166 167 168
f 169 157 159
f 163 170 171
f 172 173 168
f 174 175 176
f 27 177 178
f 160 179 153
f 160 180 179
f 181 182 173
f 179 151 153
f 155 183 184
f 185 154 186
f 187 164 188
f 169 189 178
f 175 190 176
f 46 27 178
f 161 191 162
f 192 163 165
f 193 194 195
f 196 167 166
f 155 43 183
f 190 166 176
f 183 46 178
f 172 181 173
f 197 193 195
f 173 182 195
f 158 198 199
f 194 174 176
f 177 169 178
f 154 185 200
f 201 202 203
f 154 54 155
f 177 157 169
f 204 180 160
f 193 174 194
f 164 163 171
f 190 196 166
f 43 46 183
f 205 206 207
f 189 183 178
f 198 197 199
f 179 201 203
f 154 156 186
f 208 209 207
f 210 204 162
f 187 62 165
f 201 211 202
f 157 198 158
f 198 193 197
f 180 201 179
f 212 205 207
f 196 213 167
f 54 43 155
f 192 154 200
f 158 214 215
f 216 202 217
f 161 160 153
f 218 210 162
f 62 70 165
f 171 170 219
f 204 160 162
f 164 187 165
f 73 154 192
f 73 54 154
f 213 209 208
f 211 187 188
f 209 191 207
f 209 218 191
f 70 73 192
f 189 220 184
f 161 212 207
f 213 208 221
f 156 155 222
f 223 224 215
f 189 169 225
f 226 227 182
f 167 228 229
f 214 199 230
f 214 158 199
f 227 231 232
f 167 213 221
f 173 166 168
f 199 197 230
f 202 216 203
f 202 211 188
f 191 218 162
f 70 192 165
f 233 234 226
f 206 208 207
f 235 236 223
f 237 238 239
f 240 241 242
f 182 227 232
f 224 243 215
f 244 245 246
f 194 173 195
f 247 239 248
f 234 227 226
f 222 155 184
f 215 243 159
f 194 176 173
f 197 232 230
f 238 249 239
f 236 224 223
f 217 202 171
f 250 251 252
f 170 253 254
f 241 247 242
f 183 189 184
f 203 216 248
f 217 171 219
f 245 255 246
f 256 257 250
f 258 233 259
f 260 261 262
f 263 264 253
f 151 179 248
f 220 262 265
f 176 166 173
f 228 167 221
f 216 247 248
f 266 267 268
f 269 244 270
f 271 272 273
f 274 275 276
f 238 277 249
f 234 278 227
f 279 240 280
f 236 281 224
f 281 260 282
f 264 279 254
f 277 256 252
f 179 203 248
f 242 216 217
f 261 269 265
f 272 263 283
f 257 266 284
f 206 228 221
f 275 258 285
f 182 232 195
f 284 268 205
f 167 229 168
f 241 237 247
f 286 235 287
f 288 274 289
f 289 276 229
f 208 206 221
f 246 156 222
f 260 262 282
f 256 250 252
f 253 264 254
f 262 261 265
f 250 257 284
f 263 253 283
f 245 271 255
f 258 259 285
f 278 286 231
f 267 288 290
f 231 287 230
f 259 233 226
f 259 172 285
f 224 281 282
f 279 280 254
f 249 277 252
f 282 262 291
f 269 270 265
f 273 272 283
f 266 268 284
f 276 275 285
f 259 181 172
f 274 276 289
f 250 212 251
f 292 253 170
f 239 249 151
f 291 262 220
f 271 273 255
f 251 161 153
f 268 267 290
f 227 278 231
f 280 240 242
f 247 237 239
f 287 235 223
f 169 159 225
f 242 247 216
f 270 244 246
f 286 287 231
f 232 231 230
f 288 289 290
f 246 255 156
f 250 284 212
f 283 253 292
f 172 168 293
f 168 229 293
f 224 282 243
f 259 226 181
f 181 226 182
f 214 223 215
f 249 252 152
f 273 283 185
f 191 161 207
f 282 291 243
f 184 220 294
f 212 284 205
f 252 251 152
f 255 273 186
f 152 251 153
f 290 289 228
f 163 192 200
f 232 197 195
f 170 254 219
f 220 265 294
f 291 220 189
f 268 290 206
f 158 215 159
f 280 242 217
f 270 246 222
f 239 151 248
f 228 289 229
f 287 214 230
f 251 212 161
f 292 170 163
f 222 184 294
f 205 268 206
f 287 223 214
f 229 276 293
f 159 243 225
f 283 292 185
f 254 280 219
f 265 270 294
f 273 185 186
f 151 249 152
f 276 285 293
f 290 228 206
f 156 255 186
f 291 189 225
f 280 217 219
f 185 292 200
f 270 222 294
f 243 291 225
f 171 202 188
f 292 163 200
f 164 171 188
f 285 172 293
f 295 296 297
f 298 299 300
f 297 301 295
f 300 302 298
f 303 304 305
f 305 306 303
f 305 304 307
f 307 308 305
f 303 309 310
f 306 309 303
f 311 296 295
f 300 299 312
f 313 301 314
f 315 302 316
f 316 308 315
f 314 309 313
f 314 301 297
f 298 302 315
f 56 311 19
f 19 311 317
f 311 295 317
f 318 319 320
f 38 321 312
f 201 297 211
f 322 303 323
f 324 307 325
f 321 300 312
f 319 305 316
f 59 321 38
f 38 312 57
f 180 314 201
f 201 314 297
f 204 326 180
f 326 314 180
f 295 327 317
f 327 321 317
f 320 300 327
f 327 300 321
f 318 313 319
f 19 317 59
f 317 321 59
f 328 298 329
f 295 318 327
f 298 315 329
f 319 316 320
f 318 320 327
f 329 315 330
f 326 309 314
f 211 296 187
f 323 310 331
f 332 299 328
f 330 333 334
f 315 308 333
f 322 304 303
f 307 304 325
f 319 306 305
f 328 299 298
f 303 310 323
f 297 296 211
f 315 333 330
f 295 301 318
f 320 302 300
f 62 335 56
f 187 335 62
f 61 336 332
f 331 337 210
f 57 336 61
f 210 337 204
f 338 339 324
f 334 339 338
f 313 306 319
f 325 304 322
f 310 309 326
f 305 308 316
f 333 308 307
f 318 301 313
f 316 302 320
f 333 339 334
f 332 336 299
f 310 337 331
f 296 335 187
f 324 339 307
f 56 335 311
f 312 336 57
f 204 337 326
f 313 309 306
f 326 337 310
f 299 336 312
f 311 335 296
f 307 339 333
f 340 341 342
f 343 344 345
f 341 340 346
f 344 343 347
f 348 349 350
f 349 351 350
f 352 351 349
f 351 352 353
f 352 354 355
f 353 352 355
f 356 340 342
f 344 357 345
f 358 359 346
f 360 361 347
f 361 360 350
f 359 358 355
f 359 341 346
f 343 360 347
f 362 363 360
f 26 37 356
f 37 364 356
f 356 364 340
f 365 366 367
f 368 364 369
f 198 157 341
f 362 370 363
f 371 372 352
f 367 361 351
f 51 16 369
f 16 24 357
f 193 198 359
f 198 341 359
f 174 193 373
f 373 193 359
f 340 364 368
f 365 367 358
f 364 51 369
f 16 357 369
f 374 375 343
f 369 357 344
f 340 368 365
f 37 51 364
f 366 368 344
f 343 375 360
f 368 369 344
f 367 366 361
f 365 368 366
f 375 362 360
f 360 363 350
f 373 359 355
f 157 177 342
f 372 376 354
f 377 374 345
f 371 352 349
f 367 351 353
f 374 343 345
f 352 372 354
f 341 157 342
f 378 379 348
f 340 365 346
f 366 344 347
f 27 26 380
f 177 27 380
f 23 377 381
f 376 175 382
f 24 23 381
f 175 174 382
f 348 379 349
f 370 383 384
f 383 378 384
f 358 367 353
f 379 371 349
f 363 348 350
f 354 373 355
f 351 361 350
f 365 358 346
f 361 366 347
f 377 345 381
f 354 376 382
f 342 177 380
f 363 370 384
f 26 356 380
f 357 24 381
f 174 373 382
f 358 353 355
f 373 354 382
f 345 357 381
f 356 342 380
f 348 363 384
f 378 348 384
f 385 386 387
f 388 389 390
f 387 391 385
f 390 392 388
f 393 394 395
f 396 394 393
f 396 393 397
f 397 398 396
f 399 400 397
f 397 400 398
f 387 386 401
f 402 389 388
f 403 391 404
f 405 392 406
f 406 394 405
f 404 400 403
f 385 391 403
f 406 392 390
f 47 401 45
f 407 406 330
f 408 409 410
f 330 406 329
f 408 410 387
f 55 411 47
f 402 412 72
f 329 390 328
f 334 407 330
f 362 413 370
f 405 396 414
f 55 412 411
f 69 402 72
f 329 406 390
f 362 403 413
f 415 397 416
f 411 387 401
f 409 405 414
f 411 408 387
f 409 414 410
f 374 385 375
f 411 401 47
f 72 412 55
f 375 403 362
f 385 403 375
f 411 412 408
f 414 404 410
f 402 388 412
f 412 388 408
f 408 388 409
f 407 394 406
f 403 400 413
f 377 386 374
f 328 389 332
f 417 399 415
f 396 398 414
f 397 393 416
f 374 386 385
f 415 399 397
f 390 389 328
f 418 395 419
f 410 391 387
f 388 392 409
f 23 420 377
f 45 420 23
f 383 421 417
f 332 422 61
f 61 422 69
f 370 421 383
f 418 393 395
f 338 423 334
f 419 423 338
f 416 393 418
f 414 398 404
f 395 394 407
f 413 400 399
f 405 394 396
f 404 391 410
f 409 392 405
f 417 421 399
f 389 422 332
f 377 420 386
f 334 423 407
f 401 420 45
f 69 422 402
f 413 421 370
f 398 400 404
f 402 422 389
f 399 421 413
f 386 420 401
f 407 423 395
f 395 423 419
f 424 425 426
f 427 428 429
f 428 427 430
f 121 95 431
f 256 277 432
f 425 424 433
f 434 435 436
f 437 438 439
f 440 441 442
f 443 444 445
f 446 447 436
f 448 449 450
f 451 452 453
f 454 430 455
f 456 457 458
f 459 126 460
f 447 446 461
f 462 463 456
f 464 465 466
f 430 427 455
f 467 468 469
f 89 126 459
f 470 471 472
f 473 474 475
f 464 466 476
f 437 477 438
f 441 478 442
f 479 480 481
f 266 257 482
f 463 462 464
f 483 451 453
f 480 479 484
f 485 486 487
f 488 489 490
f 471 450 472
f 491 492 493
f 457 456 494
f 495 496 497
f 443 445 498
f 499 500 501
f 438 502 439
f 468 467 503
f 504 505 506
f 507 508 509
f 510 467 469
f 435 446 436
f 511 506 512
f 277 513 432
f 514 256 432
f 500 499 515
f 449 516 450
f 470 517 518
f 462 456 458
f 496 495 519
f 520 521 522
f 523 524 426
f 452 525 453
f 470 518 471
f 526 471 454
f 490 489 527
f 528 529 497
f 524 523 530
f 531 532 533
f 485 534 486
f 257 514 482
f 535 536 537
f 492 434 436
f 538 528 497
f 539 540 541
f 505 504 542
f 543 544 545
f 546 547 517
f 524 424 426
f 548 549 426
f 550 551 552
f 517 547 518
f 553 554 555
f 492 436 493
f 556 557 558
f 559 560 561
f 526 448 450
f 562 563 564
f 560 559 565
f 491 566 492
f 508 507 567
f 568 569 431
f 563 562 570
f 526 454 571
f 572 573 574
f 575 576 577
f 521 520 578
f 126 579 460
f 580 581 582
f 583 584 501
f 474 473 585
f 586 581 587
f 584 487 501
f 440 442 588
f 444 443 589
f 590 591 592
f 593 594 499
f 461 595 596
f 461 596 597
f 557 598 558
f 599 600 601
f 532 531 545
f 602 603 604
f 605 575 577
f 606 477 570
f 607 602 604
f 598 557 529
f 528 598 529
f 600 599 608
f 609 510 469
f 569 568 601
f 506 511 610
f 510 609 611
f 439 502 580
f 612 613 614
f 544 615 545
f 551 550 616
f 506 617 512
f 503 467 618
f 549 523 426
f 619 586 587
f 425 548 426
f 566 491 620
f 621 572 574
f 525 452 505
f 445 622 498
f 457 494 623
f 522 521 575
f 536 535 624
f 592 553 555
f 625 525 542
f 525 505 542
f 626 514 432
f 627 628 629
f 630 580 582
f 631 632 633
f 634 635 617
f 489 488 636
f 637 638 630
f 628 627 639
f 632 631 546
f 266 482 616
f 541 540 640
f 641 642 546
f 581 580 587
f 477 606 643
f 498 622 569
f 644 645 571
f 646 539 541
f 550 552 647
f 632 546 517
f 591 553 592
f 648 649 650
f 523 590 592
f 651 443 498
f 454 518 430
f 494 456 652
f 653 654 655
f 656 657 658
f 487 486 593
f 576 659 660
f 661 662 663
f 664 637 630
f 535 537 665
f 490 527 666
f 658 657 667
f 668 669 670
f 531 543 545
f 595 671 596
f 631 641 546
f 672 673 674
f 675 644 571
f 586 619 676
f 677 568 431
f 657 678 667
f 130 679 680
f 681 682 620
f 683 656 658
f 684 685 574
f 554 686 555
f 452 634 617
f 496 687 497
f 600 651 498
f 673 672 688
f 471 526 450
f 475 474 689
f 649 690 650
f 546 642 547
f 691 692 693
f 668 691 693
f 638 439 630
f 694 530 695
f 696 697 698
f 236 699 700
f 701 462 458
f 702 703 704
f 666 527 705
f 700 699 566
f 706 707 708
f 709 710 711
f 135 473 475
f 697 712 698
f 713 714 661
f 679 130 715
f 716 705 640
f 662 717 663
f 650 690 718
f 491 681 620
f 719 720 721
f 628 563 629
f 671 595 722
f 579 723 460
f 714 662 661
f 511 269 724
f 563 628 564
f 725 726 727
f 260 281 728
f 729 730 731
f 272 520 522
f 122 622 445
f 436 447 493
f 653 433 732
f 669 668 693
f 733 653 655
f 632 734 633
f 678 735 667
f 736 725 737
f 438 477 643
f 425 433 738
f 739 740 741
f 505 452 617
f 594 593 742
f 743 631 633
f 617 635 512
f 647 503 618
f 439 580 630
f 710 701 711
f 494 652 744
f 745 746 618
f 693 692 747
f 619 698 676
f 600 498 569
f 645 526 571
f 703 748 704
f 682 728 620
f 709 711 749
f 750 751 752
f 753 754 688
f 755 457 623
f 654 756 655
f 85 757 674
f 731 730 465
f 547 428 430
f 286 661 663
f 659 758 660
f 669 759 670
f 707 760 708
f 614 613 537
f 140 135 475
f 594 761 762
f 612 614 763
f 764 427 429
f 685 621 574
f 700 566 620
f 725 713 737
f 765 693 747
f 471 518 454
f 761 766 767
f 701 458 711
f 690 768 718
f 769 696 698
f 581 770 582
f 771 772 773
f 774 668 670
f 504 775 776
f 777 736 737
f 778 779 780
f 781 702 704
f 500 583 501
f 622 121 431
f 782 783 751
f 784 785 769
f 786 729 731
f 787 739 741
f 788 743 633
f 728 281 700
f 754 673 688
f 726 789 727
f 790 766 761
f 521 659 575
f 784 769 619
f 791 792 776
f 758 793 660
f 533 532 519
f 281 236 700
f 723 579 794
f 566 699 717
f 795 796 797
f 233 777 737
f 798 771 773
f 734 799 633
f 800 758 801
f 106 673 754
f 802 803 804
f 724 805 806
f 785 807 769
f 486 808 773
f 796 795 809
f 269 261 724
f 810 811 812
f 547 642 428
f 813 814 815
f 816 817 804
f 263 272 522
f 107 122 445
f 261 805 724
f 244 269 511
f 94 124 583
f 272 271 520
f 122 121 622
f 705 716 818
f 803 816 804
f 819 774 670
f 428 642 820
f 793 821 660
f 788 651 822
f 805 260 728
f 823 586 676
f 778 824 779
f 825 826 716
f 605 263 522
f 444 107 445
f 761 767 762
f 827 758 800
f 806 775 504
f 762 767 796
f 743 822 684
f 525 828 453
f 788 822 743
f 637 793 638
f 638 793 827
f 799 829 788
f 822 651 600
f 714 713 725
f 830 831 832
f 795 621 685
f 261 260 805
f 113 112 485
f 833 576 660
f 834 835 540
f 757 85 836
f 437 827 837
f 838 734 632
f 838 839 734
f 840 502 438
f 775 791 776
f 798 807 771
f 638 827 437
f 530 523 592
f 771 785 790
f 771 807 785
f 841 696 807
f 801 521 627
f 842 839 838
f 837 800 563
f 843 803 802
f 842 844 839
f 772 790 761
f 807 696 769
f 637 821 793
f 264 263 605
f 108 107 444
f 743 684 845
f 437 837 477
f 846 823 676
f 790 840 766
f 847 848 849
f 850 851 749
f 791 852 792
f 853 844 842
f 566 717 492
f 854 770 581
f 664 855 637
f 456 463 652
f 856 795 685
f 806 682 775
f 799 788 633
f 788 829 651
f 516 706 853
f 857 858 824
f 859 860 861
f 824 862 863
f 735 697 696
f 771 790 772
f 864 865 857
f 853 866 844
f 143 133 463
f 241 240 479
f 806 805 682
f 470 838 517
f 823 854 586
f 863 703 702
f 867 140 475
f 808 798 773
f 868 869 560
f 504 506 610
f 645 448 526
f 870 702 846
f 236 235 699
f 129 141 871
f 872 873 864
f 874 549 548
f 764 875 427
f 449 876 516
f 790 785 840
f 877 878 719
f 846 781 823
f 712 846 676
f 854 581 586
f 879 819 664
f 796 767 606
f 824 858 862
f 837 827 800
f 864 873 865
f 857 865 858
f 641 845 573
f 880 548 881
f 524 882 424
f 883 590 549
f 884 885 496
f 886 573 828
f 435 887 446
f 863 862 703
f 816 888 889
f 766 840 438
f 883 549 874
f 890 857 778
f 446 891 461
f 892 893 885
f 872 894 873
f 895 894 872
f 528 896 598
f 846 702 781
f 847 881 848
f 463 464 476
f 897 898 615
f 644 899 645
f 900 810 894
f 874 548 880
f 538 901 528
f 534 808 486
f 496 885 687
f 897 889 898
f 902 872 903
f 863 702 870
f 841 807 798
f 734 851 799
f 528 901 896
f 904 905 893
f 598 896 906
f 907 889 897
f 803 908 888
f 446 887 891
f 857 824 778
f 909 910 911
f 821 833 660
f 772 761 594
f 885 893 507
f 912 913 909
f 870 846 712
f 735 696 841
f 914 911 905
f 915 916 901
f 864 857 890
f 917 918 919
f 694 882 524
f 516 876 706
f 920 835 834
f 803 888 816
f 892 885 884
f 921 591 590
f 884 496 532
f 424 882 922
f 880 881 847
f 923 924 921
f 921 590 883
f 925 756 654
f 478 926 882
f 852 764 429
f 927 877 928
f 909 911 914
f 904 893 892
f 915 901 538
f 929 930 923
f 912 931 913
f 932 93 466
f 838 632 517
f 625 828 525
f 914 905 904
f 911 910 489
f 549 590 523
f 775 681 791
f 933 934 810
f 909 913 910
f 935 936 760
f 823 937 854
f 825 938 929
f 853 706 866
f 860 931 912
f 825 929 826
f 435 939 887
f 897 615 544
f 278 713 661
f 492 717 434
f 940 936 935
f 782 941 783
f 860 912 917
f 816 889 907
f 434 942 435
f 943 878 877
f 900 894 895
f 233 258 777
f 450 516 472
f 944 945 825
f 842 838 470
f 461 891 595
f 940 946 936
f 811 544 812
f 827 793 758
f 933 810 900
f 698 712 676
f 881 548 425
f 920 944 835
f 791 947 852
f 895 872 902
f 478 882 694
f 948 847 916
f 949 950 442
f 686 951 949
f 637 855 821
f 645 813 448
f 783 941 952
f 921 924 591
f 953 916 915
f 844 866 709
f 854 954 770
f 923 930 924
f 831 955 510
f 703 956 748
f 945 957 958
f 554 959 686
f 858 865 531
f 106 86 673
f 278 234 713
f 128 93 932
f 135 134 473
f 258 275 960
f 126 110 579
f 288 267 550
f 277 238 513
f 257 256 514
f 119 90 607
f 936 946 690
f 929 938 930
f 93 92 466
f 614 961 962
f 638 437 439
f 963 964 961
f 965 843 940
f 664 819 855
f 701 966 462
f 872 864 903
f 940 843 946
f 710 967 701
f 887 939 782
f 910 913 646
f 830 968 831
f 969 970 971
f 965 917 908
f 825 945 938
f 488 972 508
f 883 874 973
f 435 942 939
f 920 957 944
f 286 278 661
f 480 765 481
f 782 789 941
f 448 974 449
f 975 938 976
f 734 839 851
f 840 784 502
f 944 957 945
f 914 904 977
f 775 682 681
f 645 899 813
f 859 978 931
f 843 908 803
f 510 955 467
f 690 946 768
f 880 847 948
f 963 961 614
f 646 913 979
f 672 980 981
f 927 928 474
f 860 917 965
f 970 982 612
f 449 983 876
f 943 877 927
f 859 931 860
f 591 984 553
f 817 907 934
f 703 862 956
f 858 531 533
f 612 985 613
f 986 987 988
f 831 968 955
f 948 916 953
f 851 839 749
f 823 781 937
f 969 989 970
f 833 990 576
f 686 959 951
f 799 755 829
f 965 908 843
f 949 951 950
f 983 978 859
f 991 992 969
f 989 992 993
f 551 994 552
f 844 709 749
f 941 789 830
f 852 995 764
f 816 907 817
f 996 997 998
f 999 603 459
f 991 934 933
f 441 926 478
f 736 726 725
f 999 1000 603
f 985 982 1000
f 612 982 985
f 987 1001 559
f 786 648 964
f 553 1002 554
f 930 938 975
f 786 1003 648
f 1004 490 1005
f 828 573 572
f 970 989 982
f 986 925 926
f 969 992 989
f 983 974 978
f 782 939 789
f 729 536 730
f 613 985 723
f 644 1006 899
f 852 947 995
f 591 924 984
f 920 671 957
f 985 1000 999
f 1006 1007 671
f 817 934 991
f 729 964 963
f 553 984 1002
f 1006 671 920
f 991 933 992
f 997 672 757
f 1008 1002 609
f 701 967 966
f 840 785 784
f 554 1008 959
f 968 726 736
f 997 980 672
f 1009 712 697
f 717 699 663
f 830 726 968
f 786 964 729
f 916 847 849
f 748 956 495
f 1010 980 996
f 1011 953 972
f 619 769 698
f 644 1007 1006
f 609 1002 1012
f 1005 490 666
f 1013 756 925
f 860 965 861
f 1004 972 488
f 554 1002 1008
f 449 974 983
f 791 681 947
f 675 1007 644
f 830 789 726
f 434 662 942
f 996 980 997
f 1014 902 878
f 948 953 1011
f 770 740 879
f 950 994 1015
f 959 1008 468
f 729 963 536
f 1015 551 482
f 1014 1016 1010
f 462 966 464
f 950 951 994
f 875 1017 675
f 1011 972 1004
f 1004 488 490
f 813 899 814
f 1015 994 551
f 992 933 1018
f 691 1019 756
f 1016 878 943
f 448 813 974
f 258 960 777
f 641 573 886
f 675 1017 1007
f 434 717 662
f 1020 1021 535
f 895 902 1014
f 986 926 441
f 1022 697 735
f 1010 1016 980
f 764 1023 875
f 710 1003 967
f 1024 678 657
f 878 902 719
f 967 1003 786
f 1023 995 447
f 875 1023 1017
f 943 927 753
f 480 1025 765
f 743 845 631
f 1014 878 1016
f 709 1026 710
f 774 1027 1028
f 1013 925 986
f 1001 440 626
f 764 995 1023
f 942 662 714
f 854 937 954
f 691 1013 692
f 986 441 987
f 987 441 440
f 879 1027 819
f 774 1019 668
f 631 845 641
f 870 712 1009
f 1001 626 432
f 882 926 922
f 987 440 1001
f 691 756 1013
f 1029 657 656
f 710 1026 1003
f 711 850 749
f 774 1028 1019
f 1030 1024 1031
f 505 617 506
f 733 787 1032
f 770 954 740
f 885 507 687
f 668 1019 691
f 886 828 625
f 483 1033 562
f 795 1033 621
f 1034 798 808
f 709 866 1026
f 1022 678 1030
f 954 937 1035
f 947 681 491
f 1009 697 1022
f 839 844 749
f 1024 657 1029
f 993 992 1018
f 819 1027 774
f 1022 735 678
f 642 886 820
f 821 759 833
f 1030 678 1024
f 879 740 1027
f 799 851 755
f 728 700 620
f 987 559 988
f 1029 656 1036
f 1013 986 988
f 792 852 429
f 1037 923 1038
f 841 798 1034
f 821 855 759
f 457 850 458
f 990 1025 480
f 833 1025 990
f 1039 808 534
f 801 758 659
f 833 759 1025
f 755 850 457
f 817 991 1040
f 779 1009 780
f 913 931 979
f 938 945 976
f 914 977 918
f 651 829 443
f 990 480 1041
f 694 524 530
f 1034 808 1039
f 973 874 1042
f 599 856 685
f 801 659 521
f 714 725 727
f 641 886 642
f 900 895 1043
f 755 851 850
f 1002 984 1012
f 984 924 1044
f 888 919 1045
f 959 468 1046
f 856 1047 1048
f 451 634 452
f 985 999 723
f 685 684 608
f 810 934 811
f 634 451 628
f 1047 856 599
f 1039 534 679
f 1049 975 1050
f 508 972 509
f 989 993 1051
f 951 959 1046
f 918 977 919
f 659 576 575
f 511 724 610
f 909 914 918
f 784 619 587
f 962 971 763
f 815 814 539
f 664 630 582
f 926 925 922
f 991 969 1040
f 972 953 509
f 275 274 745
f 933 900 1018
f 924 930 1044
f 925 654 922
f 733 739 787
f 923 921 1038
f 682 805 728
f 864 890 903
f 934 907 811
f 241 479 869
f 855 819 670
f 873 812 543
f 733 1032 653
f 902 903 719
f 921 883 1038
f 947 491 493
f 829 755 623
f 447 995 493
f 907 897 811
f 883 973 1038
f 556 781 704
f 953 915 509
f 897 544 811
f 579 110 1020
f 886 625 820
f 814 899 834
f 901 916 849
f 1006 920 834
f 917 912 918
f 692 1013 988
f 1039 679 683
f 128 932 1021
f 931 978 979
f 912 909 918
f 960 275 745
f 965 940 861
f 804 817 1040
f 760 1052 708
f 945 958 976
f 929 923 1037
f 969 971 1040
f 994 951 1046
f 814 834 540
f 513 238 868
f 861 935 1053
f 982 989 1051
f 930 975 1044
f 812 544 543
f 485 487 584
f 862 858 533
f 560 747 561
f 234 233 737
f 958 750 752
f 900 1043 1018
f 134 106 754
f 849 848 1054
f 736 777 1055
f 895 1014 1043
f 874 880 1042
f 740 954 741
f 1003 1026 1052
f 141 140 867
f 235 286 663
f 948 1011 1042
f 896 901 849
f 1022 1030 780
f 824 863 779
f 447 461 597
f 552 994 1046
f 760 936 649
f 908 917 919
f 1000 982 1051
f 881 425 738
f 720 1031 721
f 899 1006 834
f 1025 759 669
f 944 825 716
f 940 935 861
f 950 1015 588
f 110 109 1020
f 1012 984 1044
f 1053 935 707
f 973 1042 1056
f 759 855 670
f 730 536 624
f 943 753 981
f 880 948 1042
f 1014 1010 1043
f 826 929 1037
f 870 1009 779
f 433 424 732
f 941 830 832
f 542 504 776
f 946 843 802
f 1052 1026 708
f 980 1016 981
f 889 888 1045
f 458 850 711
f 887 782 751
f 956 862 533
f 979 815 539
f 974 813 815
f 656 683 1057
f 995 947 493
f 894 810 812
f 514 626 1058
f 777 960 1055
f 967 786 731
f 683 871 1057
f 109 1021 1020
f 919 977 1045
f 109 128 1021
f 859 861 1053
f 906 896 1054
f 954 1035 741
f 593 499 501
f 459 603 602
f 896 849 1054
f 1004 1005 1056
f 1049 952 1059
f 778 780 1060
f 865 873 543
f 1027 740 739
f 1042 1011 1056
f 556 704 557
f 433 653 1061
f 646 979 539
f 756 1019 655
f 942 714 727
f 442 950 588
f 789 939 727
f 876 983 1053
f 888 908 919
f 237 869 868
f 770 879 582
f 486 773 742
f 968 736 1055
f 735 841 667
f 848 881 738
f 1030 1031 1060
f 746 647 618
f 238 237 868
f 713 234 737
f 593 486 742
f 890 778 1060
f 473 134 754
f 935 760 707
f 648 1003 1052
f 937 781 556
f 237 241 869
f 1009 1022 780
f 765 747 481
f 530 555 695
f 279 1041 484
f 626 440 588
f 780 1030 1060
f 580 502 587
f 1039 683 658
f 453 828 572
f 568 677 500
f 1028 733 655
f 635 1062 512
f 1062 635 1063
f 477 837 570
f 1016 943 981
f 502 784 587
f 443 829 623
f 936 690 649
f 952 832 1059
f 978 815 979
f 427 875 455
f 1048 1047 515
f 863 870 779
f 835 944 716
f 871 141 867
f 879 664 582
f 699 235 663
f 768 946 802
f 952 941 832
f 487 593 501
f 866 706 708
f 1010 996 1064
f 898 889 1045
f 573 845 574
f 978 974 815
f 877 719 721
f 518 547 430
f 1028 739 733
f 1011 1004 1056
f 1041 480 484
f 614 962 763
f 483 453 1065
f 89 459 602
f 873 894 812
f 442 478 1066
f 516 853 472
f 891 887 751
f 876 1053 707
f 531 865 543
f 966 967 731
f 842 470 472
f 911 489 636
f 964 648 650
f 1055 960 1067
f 765 1025 669
f 675 571 455
f 952 1049 1050
f 983 859 1053
f 966 731 465
f 1037 1038 1068
f 963 614 537
f 939 942 727
f 955 968 1055
f 464 966 465
f 1040 971 1069
f 463 133 652
f 568 500 515
f 1028 1027 739
f 535 1021 624
f 1060 1031 720
f 1019 1028 655
f 993 1018 1064
f 539 814 540
f 654 653 732
f 766 438 643
f 563 800 629
f 754 753 585
f 706 876 707
f 1036 867 689
f 1018 1043 1064
f 705 541 640
f 568 1047 601
f 890 1060 720
f 1035 937 556
f 550 647 746
f 822 600 608
f 719 903 720
f 867 475 689
f 583 124 584
f 600 569 601
f 625 542 1070
f 143 463 476
f 482 551 616
f 765 669 693
f 599 685 608
f 1034 658 667
f 801 627 629
f 1034 1039 658
f 806 504 610
f 997 757 1071
f 527 489 1072
f 1043 1010 1064
f 113 485 584
f 1056 1005 1068
f 576 990 577
f 647 552 503
f 841 1034 667
f 108 444 744
f 1064 996 1073
f 802 804 1069
f 904 892 1074
f 466 92 476
f 112 130 680
f 562 606 570
f 1047 568 515
f 705 527 541
f 730 624 1075
f 483 562 564
f 747 560 1076
f 550 267 616
f 1033 795 797
f 443 623 589
f 90 89 602
f 971 962 1077
f 772 594 742
f 482 514 1058
f 240 279 484
f 86 85 674
f 977 904 1074
f 903 890 720
f 628 451 564
f 745 274 746
f 130 129 715
f 606 767 643
f 768 802 1069
f 1021 932 624
f 288 550 746
f 804 1040 1069
f 1026 866 708
f 538 687 1078
f 530 592 555
f 956 533 519
f 603 1000 1079
f 960 745 1067
f 588 1015 1058
f 905 911 636
f 973 1056 1068
f 927 474 585
f 955 1055 1067
f 747 692 561
f 795 856 809
f 993 1064 1073
f 488 508 636
f 996 998 1073
f 671 1007 596
f 988 559 561
f 1052 760 649
f 627 1063 639
f 744 444 589
f 507 509 1078
f 85 119 836
f 1038 973 1068
f 621 1033 1065
f 466 465 1075
f 1023 447 597
f 871 683 715
f 95 94 1080
f 245 244 1081
f 271 245 1082
f 634 628 639
f 906 1054 1083
f 507 893 567
f 1008 609 469
f 1084 1035 558
f 875 675 455
f 971 970 763
f 928 877 721
f 605 522 575
f 868 560 565
f 552 1046 503
f 869 479 1076
f 776 792 1070
f 467 955 1067
f 1045 977 1074
f 677 95 1080
f 1062 245 1081
f 245 1062 1082
f 626 588 1058
f 1074 892 1085
f 961 964 650
f 1051 993 1073
f 424 922 732
f 571 454 455
f 741 1035 1084
f 958 957 722
f 1037 1068 1086
f 529 495 497
f 757 672 674
f 532 496 519
f 723 999 460
f 572 621 1065
f 891 751 750
f 536 963 537
f 623 494 589
f 853 842 472
f 1046 468 503
f 1044 975 1049
f 489 910 1072
f 594 762 1087
f 1063 635 639
f 495 956 519
f 837 563 570
f 898 1045 1074
f 835 716 640
f 1031 1024 1088
f 1048 515 1087
f 672 981 688
f 624 932 1075
f 848 738 1089
f 473 754 585
f 1024 1029 1088
f 898 1074 1085
f 1048 762 809
f 845 684 574
f 687 538 497
f 762 1048 1087
f 1068 1005 1086
f 534 485 680
f 1041 279 1090
f 892 884 1085
f 906 1083 1084
f 961 650 718
f 998 997 1071
f 905 636 567
f 915 538 1078
f 762 796 809
f 636 508 567
f 831 510 611
f 542 776 1070
f 133 132 652
f 1005 666 1086
f 479 481 1076
f 1050 976 752
f 884 532 1091
f 1089 738 1061
f 429 428 1092
f 1088 1029 1093
f 1047 599 601
f 648 1052 649
f 826 1037 1086
f 432 513 1094
f 1073 998 1079
f 509 915 1078
f 820 625 1070
f 615 898 1085
f 683 679 715
f 1032 787 1083
f 704 748 557
f 692 988 561
f 721 1031 1088
f 928 1088 1093
f 826 1086 818
f 465 730 1075
f 603 1079 604
f 515 499 1087
f 92 143 476
f 606 562 797
f 679 534 680
f 1071 607 604
f 652 132 744
f 962 961 718
f 264 605 1090
f 569 622 431
f 1035 556 558
f 949 442 1066
f 267 266 616
f 716 826 818
f 832 831 611
f 751 783 752
f 867 1036 1057
f 1051 1073 1079
f 976 958 752
f 1086 666 818
f 451 483 564
f 607 90 602
f 1020 535 794
f 499 594 1087
f 990 1041 577
f 783 952 1050
f 1029 1036 1093
f 1071 757 836
f 673 86 674
f 906 1084 558
f 783 1050 752
f 975 976 1050
f 562 1033 797
f 474 928 1093
f 1012 1044 1049
f 609 1012 1059
f 453 572 1065
f 274 288 746
f 686 949 695
f 1015 482 1058
f 485 112 680
f 694 695 1066
f 1000 1051 1079
f 753 927 585
f 796 606 797
f 687 507 1078
f 94 583 1080
f 748 495 529
f 244 511 1081
f 520 271 1082
f 532 545 1091
f 1070 792 1092
f 494 744 589
f 595 891 750
f 750 958 722
f 928 721 1088
f 479 240 484
f 1067 745 618
f 132 108 744
f 1012 1049 1059
f 666 705 818
f 598 906 558
f 129 871 715
f 800 801 629
f 1001 432 1094
f 537 613 665
f 557 748 529
f 513 868 565
f 653 1032 1061
f 820 1070 1092
f 910 646 1072
f 579 1020 794
f 767 766 643
f 1054 848 1089
f 1063 627 578
f 481 747 1076
f 724 806 610
f 559 1001 1094
f 613 723 665
f 124 113 584
f 1007 1017 596
f 787 741 1084
f 279 264 1090
f 957 671 722
f 932 466 1075
f 478 694 1066
f 792 429 1092
f 428 820 1092
f 773 772 742
f 684 822 608
f 768 1069 1077
f 1036 656 1057
f 596 1017 597
f 871 867 1057
f 1083 787 1084
f 922 654 732
f 635 634 639
f 627 521 578
f 467 1067 618
f 1032 1089 1061
f 856 1048 809
f 555 686 695
f 893 905 567
f 119 607 836
f 583 500 1080
f 511 512 1081
f 1063 520 1082
f 1017 1023 597
f 1033 483 1065
f 999 459 460
f 1069 971 1077
f 540 835 640
f 560 869 1076
f 970 612 763
f 981 753 688
f 468 1008 469
f 738 433 1061
f 607 1071 836
f 500 677 1080
f 512 1062 1081
f 1062 1063 1082
f 1032 1083 1089
f 1079 998 604
f 605 577 1090
f 1083 1054 1089
f 695 949 1066
f 541 527 1072
f 646 541 1072
f 1093 1036 689
f 535 665 794
f 520 1063 578
f 718 768 1077
f 1059 832 611
f 474 1093 689
f 545 615 1091
f 1085 884 1091
f 998 1071 604
f 962 718 1077
f 565 559 1094
f 615 1085 1091
f 609 1059 611
f 595 750 722
f 577 1041 1090
f 665 723 794
f 513 565 1094
f 95 677 431
f 1095 1096 1097
f 1098 1099 1100
f 1097 1101 1095
f 1100 1102 1098
f 1103 1104 1105
f 1105 1104 1106
f 1107 1105 1106
f 1106 1108 1107
f 1107 1109 1110
f 1108 1109 1107
f 1111 1096 1095
f 1100 1099 1112
f 1113 1101 1114
f 1115 1102 1116
f 1116 1104 1115
f 1114 1109 1113
f 1114 1101 1097
f 1098 1102 1115
f 190 1111 196
f 196 1111 1117
f 1111 1095 1117
f 1095 1118 1117
f 379 1114 371
f 1119 1114 379
f 209 1120 1112
f 325 1121 324
f 371 1097 372
f 378 1119 379
f 1122 1123 1124
f 196 1117 213
f 1117 1120 213
f 209 1112 218
f 1098 1115 322
f 325 1115 1121
f 371 1114 1097
f 416 1107 415
f 1118 1120 1117
f 1122 1113 1123
f 213 1120 209
f 323 1098 322
f 1120 1100 1112
f 1123 1116 1124
f 1095 1122 1118
f 1124 1100 1118
f 1123 1106 1116
f 1122 1124 1118
f 1118 1100 1120
f 322 1115 325
f 1115 1104 1121
f 1119 1109 1114
f 372 1096 376
f 415 1110 417
f 331 1099 323
f 416 1105 1107
f 1123 1108 1106
f 1097 1096 372
f 1107 1110 415
f 323 1099 1098
f 419 1103 418
f 1095 1101 1122
f 1124 1102 1100
f 175 1125 190
f 376 1125 175
f 210 1126 331
f 417 1127 383
f 218 1126 210
f 383 1127 378
f 1103 1105 418
f 324 1128 338
f 338 1128 419
f 1113 1108 1123
f 418 1105 416
f 1121 1104 1103
f 1110 1109 1119
f 1106 1104 1116
f 1122 1101 1113
f 1116 1102 1124
f 331 1126 1099
f 1110 1127 417
f 1096 1125 376
f 1121 1128 324
f 190 1125 1111
f 378 1127 1119
f 1112 1126 218
f 1113 1109 1108
f 1119 1127 1110
f 1099 1126 1112
f 1111 1125 1096
f 1103 1128 1121
f 419 1128 1103
