v 3.75596309 -2.58147171 -4.93485174
v 3.66766079 -2.56931919 -4.97245143
v 3.66634899 -2.59690579 -4.85553954
v 3.57943091 -2.58854565 -4.90641029
v 4.80000000 -2.10000000 -4.30000000
v 4.90000000 -2.10000000 -4.30000000
v 4.82982773 -2.19827904 -4.30975391
v 3.76160919 -2.18606518 -5.29253709
v 3.82933631 -2.27721668 -5.26754064
v 3.86037127 -2.18457682 -5.29279485
v 4.55778299 -2.33308968 -4.35765489
v 4.55250157 -2.43401843 -4.42793591
v 4.46273589 -2.39140455 -4.39369545
v 3.73950342 -2.26210440 -5.27299277
v 4.46264678 -2.30026684 -4.34185898
v 4.45710243 -2.19143953 -4.30843229
v 4.53212410 -2.24695373 -4.32208306
v 4.10000000 -2.10000000 -5.30000000
v 4.03725082 -2.17899476 -5.29372039
v 4.15882424 -2.17825378 -5.29383838
v 4.92382198 -2.17700365 -4.30596514
v 4.09915908 -2.24589886 -5.27824003
v 4.80780530 -2.31532429 -5.25125985
v 4.72402118 -2.36555522 -5.22365130
v 4.81475796 -2.40738986 -5.19434943
v 4.91007377 -2.35229622 -5.23167884
v 4.37371072 -2.25963399 -4.32616776
v 3.75578870 -2.52946390 -4.54395164
v 3.68048182 -2.57552787 -4.64549030
v 3.66293654 -2.53291182 -4.54982534
v 3.77292009 -2.57269868 -4.63704002
v 3.75646628 -2.46803088 -4.46154281
v 3.67373011 -2.47824878 -4.47300175
v 4.02260797 -2.25778381 -4.32554845
v 3.94332172 -2.30297710 -4.34305329
v 3.94799664 -2.19513545 -4.30913419
v 4.64410321 -2.39076808 -4.39323972
v 3.68783104 -2.31004272 -4.34625772
v 3.78365067 -2.26850360 -4.32924897
v 3.76169742 -2.34983825 -4.36689395
v 3.66809643 -2.59754366 -4.75049941
v 3.75300828 -2.59886446 -4.83367863
v 3.75674728 -2.59423224 -4.72427359
v 3.86805108 -2.26171014 -4.32687229
v 3.68756243 -2.40147754 -4.40111243
v 5.00000000 -2.57552826 -4.95450850
v 4.90815372 -2.55780193 -5.00104077
v 4.90760189 -2.59059650 -4.89651464
v 3.69979904 -2.23827623 -4.31950059
v 4.75000000 -2.18627717 -5.29250000
v 4.65450836 -2.18605990 -5.29253801
v 4.71312627 -2.27287604 -5.26916295
v 4.81572964 -2.57877974 -4.94411788
v 3.66047943 -2.19535180 -5.29082383
v 3.66440442 -2.30146588 -5.25761501
v 4.37036800 -2.27973565 -5.26657807
v 4.45148446 -2.23511254 -5.28139859
v 4.35978865 -2.18762351 -5.29226225
v 3.58343466 -2.25503579 -5.27535661
v 4.90951714 -2.43456530 -5.17157241
v 3.95185733 -2.18383859 -5.29292098
v 4.00686980 -2.27127571 -5.26974954
v 3.77383078 -2.40968715 -4.40745208
v 4.81575065 -2.48172898 -5.12292876
v 4.91052245 -2.50554005 -5.09246755
v 4.61614897 -2.25417186 -5.27563751
v 3.91516771 -2.25365843 -5.27580362
v 3.75014845 -2.33600313 -5.24079760
v 3.67137429 -2.39029506 -5.20709799
v 3.58832207 -2.50298927 -5.09597238
v 3.58132940 -2.55554146 -5.00611156
v 3.67117033 -2.52480904 -5.06369923
v 4.81792674 -2.53840967 -5.04040999
v 4.73025414 -2.43355063 -4.42751648
v 4.64076251 -2.47002951 -4.46372903
v 3.75843625 -2.41767081 -5.18611560
v 4.20024660 -2.27277224 -5.26920119
v 4.25000000 -2.18627717 -5.29250000
v 5.00000000 -2.59726095 -4.74773577
v 5.00000000 -2.59726095 -4.85226423
v 4.90741116 -2.59997652 -4.79515442
v 4.45030364 -2.15714976 -5.29672317
v 4.73054896 -2.35065357 -4.36736529
v 4.65661456 -2.17502800 -4.30566125
v 4.71418625 -2.25365357 -4.32419481
v 4.61288056 -2.24974281 -4.32294959
v 4.81751371 -2.57470856 -4.64299113
v 4.72931007 -2.55533149 -4.59342500
v 4.81921852 -2.53199151 -4.54823953
v 4.90897455 -2.55638715 -4.59576785
v 4.46290773 -2.46994506 -4.46363613
v 4.37471054 -2.50247009 -4.50332202
v 4.37361016 -2.43346829 -4.42744276
v 4.82059681 -2.30430659 -4.34364617
v 4.29467196 -2.25201884 -5.27633000
v 3.75578497 -2.54301978 -5.03180481
v 3.75969145 -2.48777598 -5.11564187
v 4.28586173 -2.46977113 -4.46344493
v 4.28604819 -2.53050472 -4.54570551
v 4.29370377 -2.21458684 -4.31330723
v 4.30000000 -2.10000000 -4.30000000
v 4.37029470 -2.17661912 -4.30590536
v 4.28417014 -2.32852087 -5.24472262
v 4.19610926 -2.36996738 -5.22085343
v 4.81995287 -2.39384703 -4.39545838
v 4.10658051 -2.32651955 -5.24574532
v 4.10711996 -2.41178827 -5.19088115
v 5.00000000 -2.47157241 -5.13456530
v 5.00000000 -2.57552826 -4.64549150
v 4.90723599 -2.58878071 -4.69467471
v 4.91161198 -2.25757905 -4.32548041
v 4.90965918 -2.35021528 -4.36711166
v 4.19780205 -2.50195450 -4.50262384
v 5.00000000 -2.30336832 -4.34322727
v 4.19555340 -2.44989304 -5.15717623
v 4.54693438 -2.36914832 -5.22137772
v 4.45811109 -2.32551748 -5.24625314
v 4.45931876 -2.41103046 -5.19148442
v 4.10971238 -2.30930428 -4.34591662
v 4.02406178 -2.35067258 -4.36737631
v 3.84282654 -2.37045961 -5.22053728
v 3.92208754 -2.32778491 -5.24510003
v 4.90967950 -2.50405277 -4.50548114
v 5.00000000 -2.53301270 -4.55000000
v 3.58627147 -2.43467019 -5.17147795
v 3.67490230 -2.46499850 -5.14172517
v 4.10767199 -2.54136843 -5.03493385
v 4.19570654 -2.51497505 -5.07891882
v 4.10741153 -2.48448141 -5.11964676
v 3.58978982 -2.35069121 -4.36738710
v 3.50000000 -2.30336832 -5.25677273
v 3.59048286 -2.35000000 -5.23301270
v 3.50000000 -2.47157241 -5.13456530
v 4.89564761 -2.25282528 -5.27607188
v 3.59048286 -2.50450850 -4.50610737
v 3.50000000 -2.47157241 -4.46543470
v 3.58638557 -2.43411351 -4.42802129
v 4.19782960 -2.55393557 -4.59037534
v 4.11003785 -2.39339020 -4.39512695
v 4.02184965 -2.43268944 -4.42674708
v 5.00000000 -2.47157241 -4.46543470
v 5.00000000 -2.39389263 -5.20450850
v 4.90969621 -2.43442118 -4.42829787
v 4.54818389 -2.44872111 -5.15832051
v 5.00000000 -2.20395585 -4.31092620
v 5.00000000 -2.30336832 -5.25677273
v 3.59048286 -2.60000000 -4.80000000
v 3.50000000 -2.59726095 -4.74773577
v 3.58582420 -2.58894369 -4.69543389
v 4.01925854 -2.51524218 -5.07852097
v 5.00000000 -2.39389263 -4.39549150
v 3.50000000 -2.59726095 -4.85226423
v 3.50000000 -2.53301270 -4.55000000
v 3.58642198 -2.55700780 -4.59716049
v 3.50000000 -2.20395585 -5.28907380
v 3.50000000 -2.39389263 -4.39549150
v 3.93391077 -2.39255715 -4.39452459
v 3.84610276 -2.34920809 -4.36653105
v 4.81962963 -2.47092247 -4.46471427
v 3.50000000 -2.30336832 -4.34322727
v 3.50000000 -2.39389263 -5.20450850
v 4.28363986 -2.48427616 -5.11989348
v 4.28338921 -2.41168763 -5.19096141
v 4.63645284 -2.40989184 -5.19238635
v 3.93061393 -2.41198421 -5.19072478
v 4.28633221 -2.30726489 -4.34498213
v 4.01880871 -2.45001979 -5.15705203
v 4.01867606 -2.37057327 -5.22046416
v 5.00000000 -2.20395585 -5.28907380
v 4.73001753 -2.50327743 -4.50442038
v 3.50000000 -2.53301270 -5.05000000
v 4.55221042 -2.50285384 -4.50384331
v 4.10972261 -2.46924182 -4.46286430
v 4.37098651 -2.37008753 -5.22077634
v 4.37159216 -2.44948875 -5.15757183
v 3.93075966 -2.48476191 -5.11930905
v 4.22366728 -2.17209449 -4.30522491
v 4.19848535 -2.35178265 -4.36802142
v 4.10938991 -2.52999979 -4.54485263
v 4.02147027 -2.50146398 -4.50196196
v 3.50000000 -2.57552826 -4.64549150
v 4.63203024 -2.32690041 -5.24555157
v 4.64078565 -2.53122407 -4.54692728
v 4.19774725 -2.43325920 -4.42725571
v 4.10913849 -2.57291676 -4.63767396
v 4.02092607 -2.55367344 -4.58980863
v 4.19613507 -2.56294767 -4.98889007
v 3.50000000 -2.57552826 -4.95450850
v 4.28627328 -2.57323611 -4.63860736
v 4.19753209 -2.58715235 -4.68738300
v 5.00000000 -2.53301270 -5.05000000
v 4.10811284 -2.57990706 -4.94031827
v 4.19657528 -2.59167745 -4.89084762
v 4.55184873 -2.55473590 -4.59211719
v 4.28565426 -2.39390526 -4.39550069
v 4.46349640 -2.53092874 -4.54642473
v 4.37336683 -2.35169570 -4.36797075
v 4.46313374 -2.57348797 -4.63934776
v 4.19711708 -2.59987714 -4.78891628
v 4.28582816 -2.59616846 -4.73821926
v 4.28497298 -2.59835860 -4.84048094
v 4.10849839 -2.59841655 -4.83976103
v 4.63693083 -2.48322714 -5.12114943
v 4.28405407 -2.54112567 -5.03538935
v 4.37493264 -2.55445876 -4.59151202
v 4.02041397 -2.58696131 -4.68655977
v 4.37202438 -2.51467330 -5.07936724
v 3.93349317 -2.46869821 -4.46226989
v 4.37373592 -2.59989271 -4.78964251
v 4.37448250 -2.58733973 -4.68819664
v 3.84577122 -2.44984855 -5.15721980
v 4.46005618 -2.48380584 -5.12045760
v 4.54497327 -2.18759417 -5.29226747
v 4.54220821 -2.28417203 -5.26484477
v 4.54870293 -2.51425031 -5.07999408
v 4.01951836 -2.56317821 -4.98832404
v 3.84596103 -2.43505117 -4.42886564
v 4.46250951 -2.59625565 -4.73892357
v 4.54915995 -2.56255797 -4.98984236
v 4.46054365 -2.54087913 -5.03585078
v 4.46084228 -2.57962628 -4.94127503
v 3.93092740 -2.54163522 -5.03443193
v 3.93113707 -2.58013041 -4.93955210
v 3.84246496 -2.59198903 -4.88914482
v 3.93139679 -2.59849988 -4.83870235
v 4.72531278 -2.44810958 -5.15891464
v 4.10885397 -2.59606805 -4.73741816
v 4.37244319 -2.56275138 -4.98937042
v 4.55132566 -2.58751221 -4.68895116
v 4.54972953 -2.59150171 -4.89179362
v 4.37299054 -2.59153358 -4.89162280
v 4.72824038 -2.58776006 -4.69004490
v 4.46181238 -2.59831372 -4.84102968
v 4.28444914 -2.57970835 -4.94099610
v 4.10000000 -2.10000000 -4.30000000
v 4.20000000 -2.10000000 -4.30000000
v 4.15000000 -2.18627717 -4.30750000
v 4.64019508 -2.57376753 -4.64017408
v 3.93212223 -2.57265801 -4.63692210
v 3.84221488 -2.56338475 -4.98781527
v 4.55062955 -2.59990167 -4.79008445
v 4.63812174 -2.57946128 -4.94183399
v 4.63882446 -2.59829831 -4.84121645
v 4.01984072 -2.59181325 -4.89010954
v 4.72742144 -2.59140354 -4.89231770
v 4.72775616 -2.59991373 -4.79071246
v 4.40000000 -2.10000000 -4.30000000
v 4.50000000 -2.10000000 -4.30000000
v 4.30000000 -2.10000000 -5.30000000
v 4.20000000 -2.10000000 -5.30000000
v 4.64952641 -2.31681860 -4.34945622
v 3.90000000 -2.10000000 -4.30000000
v 4.00000000 -2.10000000 -4.30000000
v 3.84266684 -2.59982010 -4.78658838
v 3.84706307 -2.51586084 -5.07759640
v 4.60000000 -2.10000000 -5.30000000
v 4.50000000 -2.10000000 -5.30000000
v 4.81671848 -2.59823851 -4.84193312
v 3.80000000 -2.10000000 -4.30000000
v 3.84663430 -2.18386280 -4.30708314
v 4.00000000 -2.10000000 -5.30000000
v 3.90000000 -2.10000000 -5.30000000
v 4.60000000 -2.10000000 -4.30000000
v 4.70000000 -2.10000000 -4.30000000
v 3.93287821 -2.52957251 -4.54413390
v 3.84479549 -2.50133521 -4.50178859
v 4.02014734 -2.59985799 -4.78808395
v 3.93166273 -2.59593914 -4.73640463
v 4.70000000 -2.10000000 -5.30000000
v 4.72589303 -2.51392393 -5.08047635
v 4.40000000 -2.10000000 -5.30000000
v 3.70000000 -2.10000000 -4.30000000
v 3.74957723 -2.18061043 -4.30654082
v 4.63754751 -2.54053012 -5.03650204
v 4.72666092 -2.56223932 -4.99061693
v 3.60000000 -2.10000000 -4.30000000
v 3.65432233 -2.17939776 -4.30634425
v 4.80000000 -2.10000000 -5.30000000
v 3.80000000 -2.10000000 -5.30000000
v 3.70000000 -2.10000000 -5.30000000
v 3.60020951 -2.25574209 -4.32487433
v 3.84742011 -2.55309826 -4.58857161
v 4.81679242 -2.59662196 -4.74197733
v 3.84667768 -2.58644933 -4.68438403
v 4.63944213 -2.59632168 -4.73946246
v 3.50000000 -2.20395585 -4.31092620
v 4.19058573 -2.25657067 -4.32514673
v 4.90000000 -2.10000000 -5.30000000
v 4.84315366 -2.17799284 -5.29387966
v 3.60000000 -2.10000000 -5.30000000
v 4.55618757 -2.16962152 -4.30487088
v 4.09811295 -2.23726709 -4.31921133
v 4.05117454 -2.17693354 -4.30595422
v 5.00000000 -2.10000000 -4.30000000
v 4.80089584 -2.23937760 -5.28018110
v 4.73965183 -2.16878001 -4.30475328
v 3.50000000 -2.10000000 -5.30000000
v 3.57440267 -2.17540509 -5.29428137
v 5.00000000 -2.10000000 -5.30000000
v 4.92540198 -2.17277195 -5.29467590
v 3.50000000 -2.10000000 -4.30000000
v 3.57309772 -2.17209683 -4.30522526
v 3.75376236 -1.61748216 -4.66894072
v 3.66713931 -1.62998984 -4.62944079
v 3.66649024 -1.60318725 -4.74363431
v 4.83000859 -2.00192289 -5.29028653
v 3.59048286 -1.69549150 -5.09389263
v 3.66625798 -1.77155870 -5.17699644
v 3.68490331 -1.70203902 -5.10269962
v 3.57429322 -1.76563360 -5.17175141
v 3.59303583 -1.93844333 -5.27318014
v 3.70265987 -1.93754458 -5.27287233
v 3.67516043 -1.85758495 -5.23730418
v 4.55793771 -1.86804244 -5.24293983
v 4.55240087 -1.76708104 -5.17304821
v 4.46277738 -1.81004947 -5.20734345
v 4.92382198 -2.02299635 -5.29403486
v 4.46292309 -1.90126429 -5.25880728
v 4.45738866 -2.00941266 -5.29172547
v 4.53208001 -1.95398060 -5.27820324
v 3.58812612 -1.83781030 -5.22574237
v 3.58633904 -1.76767884 -4.42641915
v 3.67813485 -1.73258119 -4.46087846
v 3.66771260 -1.81503865 -4.38915084
v 3.57921527 -1.61140645 -4.69380987
v 4.03670462 -2.02131745 -4.30622975
v 4.15720758 -2.02080438 -4.30631178
v 4.72287738 -1.75328519 -4.43973782
v 4.81609796 -1.72030148 -4.47468625
v 4.81860766 -1.80446781 -4.39668781
v 4.90996472 -1.76365689 -4.43003606
v 4.37440026 -1.94241473 -5.27451752
v 3.95092949 -2.01700270 -5.29306333
v 4.00900778 -1.93551048 -5.27216861
v 3.90243190 -1.93437634 -5.27177198
v 4.09701121 -1.95172807 -4.32249038
v 3.76323051 -1.78217342 -4.41401261
v 4.64414239 -1.81017923 -5.20743579
v 4.72124098 -1.83167043 -4.37810044
v 4.81100058 -1.88639803 -4.34792235
v 4.71221408 -1.92690009 -4.33091960
v 3.95033523 -1.87552737 -5.24677963
v 4.90800345 -1.64248665 -4.59830336
v 4.81417051 -1.62111022 -4.65624820
v 4.90673900 -1.60938154 -4.70359704
v 3.95062018 -2.01545409 -4.30719985
v 4.00432702 -1.92639774 -4.33110528
v 5.00000000 -1.62447174 -4.64549150
v 4.90686582 -1.69311052 -4.50941275
v 4.19762986 -1.92535608 -4.33149226
v 4.25107458 -2.01596328 -4.30711276
v 4.75000000 -2.01372283 -4.30750000
v 4.65316192 -2.01392086 -4.30746535
v 4.81534769 -1.66096122 -4.56074083
v 4.36640830 -1.91820987 -4.33421856
v 4.44994149 -1.96360547 -4.31896307
v 4.35861453 -2.01199610 -4.30780561
v 3.66881202 -1.60230405 -4.84794519
v 3.75150962 -1.60088275 -4.77030207
v 3.75633913 -1.60620852 -4.87854919
v 3.91522496 -1.94315737 -4.32523649
v 5.00000000 -1.60273905 -4.85226423
v 5.00000000 -1.60273905 -4.74773577
v 4.90708911 -1.60002343 -4.80484077
v 3.75946864 -1.67421995 -5.06212849
v 3.76413556 -1.63023601 -4.97123607
v 3.67183268 -1.65699114 -5.03182568
v 4.61350939 -1.94596992 -4.32431656
v 4.73014986 -1.76706363 -5.17303267
v 4.64046945 -1.73075809 -5.13713560
v 4.29060419 -1.94560028 -4.32443641
v 3.58769391 -1.69688108 -4.50420423
v 3.58345669 -1.64479817 -4.59313943
v 3.67127435 -1.67562366 -4.53560499
v 4.81735847 -1.62528455 -4.95698802
v 4.72860062 -1.64496429 -5.00722572
v 4.81919216 -1.66811861 -5.05194934
v 3.65366262 -2.01729778 -5.29311291
v 4.65690117 -2.02531496 -5.29439068
v 4.71434792 -1.94683828 -5.27596375
v 4.61300215 -1.95097100 -5.27727388
v 4.73079792 -1.85003936 -5.23303542
v 4.90986818 -1.64350063 -5.00398118
v 4.54334832 -2.01200351 -4.30780429
v 4.53954095 -1.91492227 -4.33551509
v 3.67478287 -1.62106048 -4.94358598
v 4.46261406 -1.73128376 -5.13771043
v 4.37424023 -1.69882234 -5.09842334
v 4.37351776 -1.76815637 -5.17400508
v 4.28559755 -1.73192695 -5.13841133
v 4.28538809 -1.67078188 -5.05646014
v 4.28041900 -1.86922651 -4.35644211
v 4.19270522 -1.82771638 -4.38064141
v 4.82092075 -1.89600272 -5.25649218
v 3.58623309 -1.85096234 -4.36643311
v 4.45000000 -2.04199793 -4.30337564
v 4.10281304 -1.87064278 -4.35570813
v 4.10373569 -1.78571644 -4.41112233
v 4.90952371 -1.69601740 -5.09461511
v 5.00000000 -1.66698730 -5.05000000
v 5.00000000 -1.62447174 -4.95450850
v 4.90951714 -1.61092620 -4.90395585
v 5.00000000 -1.89663168 -4.34322727
v 5.00000000 -1.99604415 -4.31092620
v 4.89877227 -1.94530776 -4.32453148
v 4.19735162 -1.69975289 -5.09967023
v 5.00000000 -1.72842759 -5.13456530
v 4.82005726 -1.80652233 -5.20480966
v 4.91018203 -1.84986090 -5.23293236
v 4.90958812 -1.76572665 -5.17183508
v 4.19235214 -1.74807813 -4.44482258
v 4.54341847 -1.82965389 -4.37938975
v 4.45451912 -1.87260600 -4.35470013
v 4.45600701 -1.78750106 -4.40968678
v 5.00000000 -1.80610737 -4.39549150
v 4.90968106 -1.84966016 -4.36718368
v 3.84287457 -1.91040102 -4.33734221
v 3.83924708 -1.82603073 -4.38174070
v 3.92722286 -1.87001738 -4.35603154
v 5.00000000 -1.80610737 -5.20450850
v 4.91169344 -1.94256023 -5.27456582
v 4.10506501 -1.65713073 -4.56790775
v 4.19290995 -1.68342723 -4.52347310
v 4.10432429 -1.71355770 -4.48272669
v 4.72725335 -1.61240721 -4.91069449
v 3.50000000 -1.89663168 -4.34322727
v 3.59644990 -1.94378541 -4.32502947
v 3.50000000 -1.80610737 -4.39549150
v 4.19698486 -1.64727482 -5.01222608
v 3.58618234 -1.61095977 -4.90411366
v 3.58979601 -1.64195591 -5.00048844
v 4.54499245 -1.75018329 -4.44274901
v 5.00000000 -1.89663168 -5.25677273
v 5.00000000 -1.99604415 -5.28907380
v 3.50000000 -1.62447174 -4.95450850
v 4.01645187 -1.68279108 -4.52443382
v 3.50000000 -1.66698730 -5.05000000
v 4.81934268 -1.72942287 -5.13566738
v 3.50000000 -1.60273905 -4.74773577
v 3.59048286 -1.60000000 -4.80000000
v 3.50000000 -1.99604415 -4.31092620
v 4.02186186 -1.76994831 -5.17558738
v 3.93683478 -1.80777686 -5.20571620
v 4.02482664 -1.84833589 -5.23204765
v 3.50000000 -1.80610737 -5.20450850
v 3.50000000 -1.89663168 -5.25677273
v 3.50000000 -1.72842759 -4.46543470
v 4.28064841 -1.71410333 -4.48206328
v 4.28001146 -1.78633073 -4.41062667
v 4.63306236 -1.78916987 -4.40835650
v 3.74993546 -1.86993940 -4.35607194
v 5.00000000 -1.72842759 -4.46543470
v 3.92721414 -1.78500409 -4.41169911
v 4.28690688 -1.89487851 -5.25598813
v 4.29399045 -1.98698150 -5.28705936
v 4.01561439 -1.74746317 -4.44543296
v 4.01509603 -1.82646980 -4.38145343
v 4.64953442 -1.88400423 -5.25093883
v 4.72955974 -1.69724361 -5.09628921
v 3.50000000 -1.66698730 -4.55000000
v 4.10946974 -1.73292196 -5.13949037
v 4.11036613 -1.80912893 -5.20668663
v 4.55171703 -1.69802884 -5.09735364
v 3.75406272 -1.65514674 -4.57173353
v 3.76353137 -1.71144089 -4.48532268
v 4.62864369 -1.87206646 -4.35497607
v 4.36741430 -1.82806079 -4.38041799
v 4.36840592 -1.74893930 -4.44397137
v 3.92774826 -1.71277145 -4.48368678
v 4.10874450 -1.67164494 -5.05789910
v 4.02102994 -1.70065695 -5.10087394
v 3.50000000 -1.60273905 -4.85226423
v 4.19893128 -1.85057406 -5.23334363
v 4.11086442 -1.89317173 -5.25521650
v 3.50000000 -1.72842759 -5.13456530
v 4.64009286 -1.66936774 -5.05407845
v 4.19771865 -1.76886205 -5.17463003
v 4.10810140 -1.62813552 -4.96535996
v 4.02009090 -1.64783000 -5.01340640
v 4.19372470 -1.63597265 -4.61377803
v 4.28522443 -1.62758522 -4.96378119
v 4.19629354 -1.61350249 -4.91541306
v 3.50000000 -1.62447174 -4.64549150
v 5.00000000 -1.66698730 -4.55000000
v 4.10589573 -1.61920017 -4.66277202
v 4.19455533 -1.60780764 -4.71198477
v 4.55096342 -1.64589065 -5.00924793
v 4.46281832 -1.67000366 -5.05515318
v 4.28577198 -1.80813207 -5.20597181
v 4.37366848 -1.85018324 -5.23311844
v 4.46206359 -1.62710862 -4.96239993
v 4.19548704 -1.60019492 -4.81396003
v 4.28438755 -1.60415113 -4.86429543
v 4.28314800 -1.60144222 -4.76205087
v 4.63393022 -1.71600885 -4.47976447
v 4.10667337 -1.60133795 -4.76344648
v 4.28145141 -1.65768408 -4.56685493
v 4.37407060 -1.64645406 -5.01046634
v 4.01917784 -1.61385769 -4.91690019
v 4.36922692 -1.68410000 -4.52246227
v 3.93327551 -1.73393172 -5.14057894
v 4.37209950 -1.60015769 -4.81255643
v 4.45706295 -1.71500084 -4.48097704
v 4.37322778 -1.61315504 -4.91393849
v 3.84279225 -1.74719523 -4.44569957
v 4.54590148 -1.68489648 -4.52127241
v 4.01710203 -1.63549472 -4.61497340
v 4.54674970 -1.63686609 -4.61156704
v 4.45794032 -1.65824492 -4.56579401
v 4.45865087 -1.61985574 -4.66049557
v 4.46105457 -1.60397430 -4.86291668
v 3.92891179 -1.61879592 -4.66419635
v 3.84043021 -1.60727173 -4.71503620
v 3.92956698 -1.60121309 -4.76519169
v 3.92830817 -1.65655368 -4.56901220
v 4.10742290 -1.60434452 -4.86576963
v 4.37003039 -1.63642994 -4.61264259
v 4.55004704 -1.61282627 -4.91252446
v 4.37097134 -1.60806852 -4.71053815
v 4.54771280 -1.60822205 -4.70969801
v 4.45998317 -1.60153746 -4.76081974
v 3.84643451 -1.77089573 -5.17641782
v 3.75998177 -1.80854451 -5.20626801
v 3.84958184 -1.85445760 -5.23555589
v 4.28223636 -1.61958091 -4.66144498
v 3.75997961 -1.73539082 -5.14214053
v 4.15000000 -2.01372283 -5.29250000
v 3.93109306 -1.62862674 -4.96675507
v 4.63916577 -1.62664964 -4.96105726
v 4.54898467 -1.60013051 -4.81142343
v 3.83978441 -1.63504016 -4.61611867
v 4.63590181 -1.62020539 -4.65929772
v 4.63698466 -1.60160653 -4.75995062
v 4.01781657 -1.60755808 -4.71339197
v 4.72538619 -1.60844283 -4.70850384
v 4.72608724 -1.60010149 -4.81007356
v 3.84114870 -1.60030984 -4.81759954
v 3.84470679 -1.68185385 -4.52585808
v 4.81502682 -1.60169501 -4.75886437
v 3.84993321 -2.01365737 -5.29248853
v 4.81730315 -1.60342052 -4.85838513
v 3.93222058 -1.67241634 -5.05917602
v 3.84451750 -1.70149226 -5.10197943
v 4.01851678 -1.60023947 -4.81547298
v 3.93025561 -1.60457281 -4.86746775
v 4.72321948 -1.68586139 -4.51984073
v 3.84642958 -2.00545422 -4.30902027
v 4.63501250 -1.65892169 -4.56452192
v 3.75032991 -2.01424467 -5.29259113
v 4.72452852 -1.63747966 -4.61006598
v 3.74696325 -2.01821400 -4.30673430
v 3.79993636 -1.93426384 -5.27173247
v 3.84800725 -1.64880186 -5.01545356
v 4.37037817 -2.02433343 -5.29424141
v 3.84615671 -1.61450073 -4.91954272
v 4.63797522 -1.60382215 -4.86170529
v 4.22384282 -2.02780196 -5.29475999
v 3.50000000 -1.99604415 -5.28907380
v 4.19082456 -1.94504196 -5.27538196
v 4.84365152 -2.02160497 -4.30618402
v 3.65403272 -2.01797536 -4.30677393
v 4.09539593 -1.96505907 -5.28144672
v 4.55621513 -2.03101740 -5.29521854
v 3.70013644 -1.93992433 -4.32631679
v 4.05000000 -2.02719959 -5.29467171
v 4.73971859 -2.03147662 -5.29528229
v 4.80117170 -1.96004793 -4.31998602
v 3.57347636 -2.02649423 -4.30543261
v 4.92572960 -2.02640806 -4.30544543
v 3.57221343 -2.02768385 -5.29474274
v 3.75024335 -1.87699313 -5.24751306
v 3.77465890 -1.94662070 -4.32410632
v 3.65246749 -1.88695062 -4.34766167
v 3.50000000 -1.66680483 -3.84425987
v 3.50000000 -1.49074890 -4.24030513
v 3.50000000 -1.81900015 -4.22736118
v 3.50000000 -1.57029818 -4.36876504
v 3.50000000 -1.68733238 -4.35642945
v 3.50000000 -2.03388422 -3.94296567
v 3.50000000 -2.30805423 -3.47493719
v 3.50000000 -1.35909087 -5.15403754
v 3.50000000 -1.15415563 -5.08291689
v 3.50000000 -1.21012799 -5.23960505
v 3.50000000 -1.28448174 -4.97049304
v 3.50000000 -1.40758445 -4.55872198
v 3.50000000 -1.48437023 -4.42388815
v 3.50000000 -1.27744957 -4.39606459
v 3.50000000 -2.74740672 -5.18423506
v 3.50000000 -2.82803171 -4.94572104
v 3.50000000 -2.65809983 -5.02858355
v 3.50000000 -1.50824863 -5.15838304
v 3.50000000 -1.47011999 -5.28254734
v 3.50000000 -2.67185506 -4.91120413
v 3.50000000 -2.45058419 -4.32434847
v 3.50000000 -2.50342577 -4.12626005
v 3.50000000 -2.29541199 -4.21198853
v 3.50000000 -1.59262164 -5.26430975
v 3.50000000 -2.28831114 -3.97036540
v 3.50000000 -2.08725075 -4.19790470
v 3.50000000 -1.24896722 -5.40537382
v 3.50000000 -1.41946653 -5.40773643
v 3.50000000 -1.33349223 -5.28317145
v 3.50000000 -1.89815026 -5.50381862
v 3.50000000 -1.91364769 -5.37267650
v 3.50000000 -1.79629166 -5.42893913
v 3.50000000 -2.63431181 -4.57755111
v 3.50000000 -2.77324997 -4.57283527
v 3.50000000 -2.61745356 -4.45384076
v 3.50000000 -1.20257738 -4.76290574
v 3.50000000 -1.40556428 -4.87152164
v 3.50000000 -1.90691692 -5.64822432
v 3.50000000 -1.77403762 -5.70028709
v 3.50000000 -1.90992575 -5.81492031
v 3.50000000 -2.00464407 -5.56618282
v 3.50000000 -2.02351070 -5.71352933
v 3.50000000 -2.14142777 -5.59724566
v 3.50000000 -2.93774425 -6.00000000
v 3.50000000 -2.58303099 -5.79828202
v 3.50000000 -2.52510848 -6.00000000
v 3.50000000 -2.34298659 -5.84583563
v 3.50000000 -2.22226003 -6.00000000
v 3.50000000 -2.15730478 -5.38434964
v 3.50000000 -2.27766693 -5.36456642
v 3.50000000 -1.97673352 -5.44968122
v 3.50000000 -1.80526723 -5.30850805
v 3.50000000 -2.86569527 -4.11673756
v 3.50000000 -3.12004094 -4.45445177
v 3.50000000 -3.50000000 -3.95960525
v 3.50000000 -2.76433427 -5.65394277
v 3.50000000 -2.22413293 -5.71505467
v 3.50000000 -2.11097999 -5.83612042
v 3.50000000 -2.00000000 -6.00000000
v 3.50000000 -1.75006022 -5.83778278
v 3.50000000 -3.50000000 -3.27947366
v 3.50000000 -3.50000000 -2.59934208
v 3.50000000 -2.92023672 -3.05920574
v 3.50000000 -1.47268751 -5.66633603
v 3.50000000 -1.61251494 -5.76689506
v 3.50000000 -1.64971741 -5.62297881
v 3.50000000 -1.00000000 -4.52581147
v 3.50000000 -1.00000000 -4.16515139
v 3.50000000 -1.24339766 -4.57922457
v 3.50000000 -3.03378989 -5.42609477
v 3.50000000 -2.80169989 -5.37619411
v 3.50000000 -1.35882676 -5.54918139
v 3.50000000 -1.53691002 -5.52829932
v 3.50000000 -2.65938708 -4.29600754
v 3.50000000 -1.38049919 -4.71665341
v 3.50000000 -3.50000000 -5.31986842
v 3.50000000 -3.14291860 -5.67528523
v 3.50000000 -3.50000000 -6.00000000
v 3.50000000 -2.41368957 -5.70219679
v 3.50000000 -2.08695869 -5.48175504
v 3.50000000 -2.22798038 -5.48236015
v 3.50000000 -1.07612047 -5.38268343
v 3.50000000 -1.01921472 -5.19509032
v 3.50000000 -3.14054967 -4.86762606
v 3.50000000 -3.00254747 -5.15214297
v 3.50000000 -1.44415044 -5.02172999
v 3.50000000 -1.29289322 -5.70710678
v 3.50000000 -1.16853039 -5.55557023
v 3.50000000 -1.80490968 -5.98078528
v 3.50000000 -1.61731657 -5.92387953
v 3.50000000 -1.68994000 -5.35198266
v 3.50000000 -1.56848295 -5.39784527
v 3.50000000 -2.91955746 -3.67718884
v 3.50000000 -1.70814412 -5.23507472
v 3.50000000 -1.62568073 -5.14461576
v 3.50000000 -2.86797658 -4.44159418
v 3.50000000 -1.52572229 -4.92342545
v 3.50000000 -3.50000000 -4.63973683
v 3.50000000 -2.03855971 -5.38456530
v 3.50000000 -1.78480697 -5.56166405
v 3.50000000 -2.37200606 -5.45408585
v 3.50000000 -2.39176531 -5.32164156
v 3.50000000 -1.56346717 -5.03990168
v 3.50000000 -2.50689079 -5.39824700
v 3.50000000 -2.49484772 -5.25158619
v 3.50000000 -1.44442977 -5.83146961
v 3.50000000 -2.56412397 -3.87287763
v 3.50000000 -1.51886242 -4.67684569
v 3.50000000 -1.50925043 -4.79965318
v 3.50000000 -2.65640795 -5.48969008
v 3.50000000 -1.16030369 -4.95407892
v 3.50000000 -1.67261571 -5.48318317
v 3.50000000 -2.58335392 -5.16423726
v 3.50000000 -2.51432278 -5.58771695
v 3.50000000 -2.31220296 -5.59540019
v 3.50000000 -1.61874122 -4.45443743
v 3.50000000 -2.71207520 -4.80285775
v 3.50000000 -1.55843278 -4.55958189
v 3.50000000 -2.62774085 -5.31053047
v 3.50000000 -2.89267793 -4.69383536
v 3.50000000 -2.70044895 -4.67383402
v 3.50000000 -1.00000000 -5.00000000
v 3.00000000 -3.50000000 -6.00000000
v 2.98128949 -3.50000000 -5.48990131
v 2.98128949 -3.50000000 -3.10944077
v 3.00000000 -3.50000000 -2.59934208
v 2.50000000 -3.50000000 -2.59934208
v 2.50000000 -3.50000000 -6.00000000
v 2.50000000 -3.50000000 -3.27947366
v 2.50000000 -3.50000000 -5.31986842
v 3.00000000 -3.50000000 -4.29967104
v 2.99886355 -3.50000000 -4.96947507
v 2.50000000 -3.50000000 -4.63973683
v 2.99886355 -3.50000000 -3.62986701
v 2.50000000 -3.50000000 -3.95960525
v 2.50000000 -2.23449832 -4.85942692
v 2.50000000 -2.66502941 -5.17478402
v 2.50000000 -2.33099553 -5.35423596
v 2.50000000 -1.83074786 -4.95161371
v 2.50000000 -1.78081287 -4.50435828
v 2.50000000 -1.58769477 -5.72821063
v 2.50000000 -1.46809977 -5.53190023
v 2.50000000 -1.76844621 -5.56833344
v 2.50000000 -1.47448869 -4.81287327
v 2.50000000 -3.06330694 -5.54098703
v 2.50000000 -3.07208302 -4.97804473
v 2.50000000 -2.06795269 -5.16687400
v 2.50000000 -2.63091147 -4.64954188
v 2.50000000 -2.00000000 -6.00000000
v 2.50000000 -1.94061407 -5.76180354
v 2.50000000 -2.26040608 -5.71310962
v 2.50000000 -1.34500321 -4.41734694
v 2.50000000 -1.66680483 -3.84425987
v 2.50000000 -2.33195999 -4.19674034
v 2.50000000 -1.63210301 -5.36095735
v 2.50000000 -2.92023672 -3.05920574
v 2.50000000 -2.30805423 -3.47493719
v 2.50000000 -2.92191977 -3.71486700
v 2.50000000 -2.99141337 -4.35400820
v 2.50000000 -2.65838115 -5.66646761
v 2.50000000 -2.52510848 -6.00000000
v 2.50000000 -1.59009316 -5.12737268
v 2.50000000 -1.33880049 -5.07931768
v 2.50000000 -2.03147430 -5.47404976
v 2.50000000 -2.93774425 -6.00000000
v 2.50000000 -1.00000000 -4.16515139
v 2.50000000 -1.00000000 -4.52581147
v 2.50000000 -1.27359807 -5.41582286
v 2.50000000 -1.43106085 -5.28475515
v 2.50000000 -1.19612721 -4.90568140
v 2.50000000 -1.16473296 -5.08226662
v 2.50000000 -1.19471979 -4.67577789
v 2.50000000 -1.00000000 -4.79663485
v 2.50000000 -1.07612047 -5.38268343
v 2.50000000 -1.16853039 -5.55557023
v 2.50000000 -1.21795285 -5.23936876
v 2.50000000 -1.32193960 -5.56361480
v 2.50000000 -1.44442977 -5.83146961
v 2.50000000 -1.61731657 -5.92387953
v 2.50000000 -1.83335803 -5.27471890
v 2.50000000 -1.44151227 -5.68051927
v 2.50000000 -1.00000000 -5.00000000
v 2.50000000 -1.01921472 -5.19509032
v 2.50000000 -1.74825973 -5.81093036
v 2.50000000 -1.80490968 -5.98078528
v 2.50000000 -1.29289322 -5.70710678
v 1.66666667 -5.00000000 -6.00000000
v 1.92893057 -4.26867922 -6.00000000
v 2.38525287 -4.50491097 -6.00000000
v 1.30272010 -2.45472531 -6.00000000
v 1.26930421 -2.17277472 -6.00000000
v 1.45471239 -2.19243782 -6.00000000
v 3.79605085 -2.42918841 -6.00000000
v 3.76656143 -2.16831141 -6.00000000
v 3.95314371 -2.18228358 -6.00000000
v 1.50947891 -3.83711217 -6.00000000
v 1.36029197 -3.17077619 -6.00000000
v 1.75083843 -3.36319243 -6.00000000
v 2.31250000 -2.00000000 -6.00000000
v 2.28788331 -2.28212216 -6.00000000
v 2.19768907 -2.11279549 -6.00000000
v 1.87006208 -2.18619726 -6.00000000
v 2.06537296 -2.16905978 -6.00000000
v 2.05625580 -2.41497872 -6.00000000
v 4.74563824 -2.37508969 -6.00000000
v 4.54294113 -2.16790639 -6.00000000
v 4.72075851 -2.15438876 -6.00000000
v 2.33333333 -5.00000000 -6.00000000
v 4.04752868 -2.33996232 -6.00000000
v 1.78975333 -2.33963219 -6.00000000
v 1.00000000 -3.58771319 -6.00000000
v 4.44610429 -2.32334778 -6.00000000
v 1.58094109 -2.38396690 -6.00000000
v 5.00000000 -2.98575498 -6.00000000
v 5.00000000 -3.58771319 -6.00000000
v 4.58563485 -3.13374001 -6.00000000
v 2.11556980 -3.19357140 -6.00000000
v 2.12123213 -2.76669996 -6.00000000
v 1.70962596 -2.91846069 -6.00000000
v 1.78525766 -2.54450853 -6.00000000
v 4.85577935 -2.15206032 -6.00000000
v 3.84360280 -3.11514103 -6.00000000
v 5.00000000 -2.23082313 -6.00000000
v 1.45739571 -4.48682601 -6.00000000
v 5.00000000 -2.54851108 -6.00000000
v 4.68545316 -2.73504441 -6.00000000
v 4.42127294 -2.53204923 -6.00000000
v 1.32571152 -2.78899771 -6.00000000
v 1.53670639 -2.61593984 -6.00000000
v 3.49954519 -4.40947753 -6.00000000
v 3.00000000 -5.00000000 -6.00000000
v 2.90536148 -4.29492941 -6.00000000
v 1.00000000 -2.98575498 -6.00000000
v 1.00000000 -2.54851108 -6.00000000
v 3.66666667 -5.00000000 -6.00000000
v 4.33413162 -2.84367960 -6.00000000
v 4.08219885 -2.56117273 -6.00000000
v 3.79251865 -2.73434373 -6.00000000
v 1.17020043 -2.31813390 -6.00000000
v 4.25000000 -2.35865089 -6.00000000
v 1.00000000 -4.29382796 -6.00000000
v 4.01142245 -3.52096108 -6.00000000
v 1.00000000 -2.23082313 -6.00000000
v 4.45628603 -3.54263578 -6.00000000
v 3.66411744 -2.30266089 -6.00000000
v 4.33333333 -5.00000000 -6.00000000
v 4.00991473 -4.47713925 -6.00000000
v 3.76713631 -3.95051833 -6.00000000
v 2.05922553 -3.69604171 -6.00000000
v 3.25409772 -3.94074671 -6.00000000
v 5.00000000 -2.00000000 -6.00000000
v 1.00000000 -2.00000000 -6.00000000
v 1.12540093 -2.14434635 -6.00000000
v 1.00000000 -5.00000000 -6.00000000
v 4.54395824 -4.50508305 -6.00000000
v 4.25039075 -3.97322521 -6.00000000
v 4.67279270 -3.92542395 -6.00000000
v 5.00000000 -4.29382796 -6.00000000
v 3.62363577 -2.13864647 -6.00000000
v 1.18750000 -2.00000000 -6.00000000
v 1.37500000 -2.00000000 -6.00000000
v 3.68750000 -2.00000000 -6.00000000
v 3.87500000 -2.00000000 -6.00000000
v 5.00000000 -5.00000000 -6.00000000
v 2.44434252 -4.03854613 -6.00000000
v 4.06250000 -2.00000000 -6.00000000
v 1.56250000 -2.00000000 -6.00000000
v 4.43750000 -2.00000000 -6.00000000
v 4.62500000 -2.00000000 -6.00000000
v 4.81250000 -2.00000000 -6.00000000
v 4.25000000 -2.00000000 -6.00000000
v 4.34569852 -2.16998639 -6.00000000
v 4.15625000 -2.16851601 -6.00000000
v 1.75000000 -2.00000000 -6.00000000
v 1.65625000 -2.16850954 -6.00000000
v 2.82076034 -3.85484445 -6.00000000
v 4.05365332 -2.88359527 -6.00000000
v 1.93750000 -2.00000000 -6.00000000
v 2.12500000 -2.00000000 -6.00000000
v 4.21581468 -3.16363927 -6.00000000
v 4.51887377 -1.80972748 -5.98173131
v 4.34287481 -1.69721319 -5.95305831
v 4.50732500 -1.60645729 -5.91930633
v 4.16171623 -1.82371838 -5.98433977
v 4.17126473 -1.61591404 -5.92329734
v 4.00252360 -1.69557627 -5.95253672
v 4.16361763 -1.01866910 -5.19232696
v 4.32221606 -1.05283167 -5.32073690
v 4.16896507 -1.07793310 -5.38703053
v 4.83029764 -1.36560672 -5.77301045
v 4.63754314 -1.35884683 -5.76741293
v 4.67990305 -1.22865008 -5.63641127
v 4.86461667 -1.23008371 -5.63814490
v 4.67779225 -1.66880278 -5.94356155
v 4.84782353 -1.71876653 -5.95963938
v 4.84337625 -1.53886509 -5.88733004
v 4.81288268 -1.12851562 -5.49042326
v 4.67011836 -1.49911169 -5.86551193
v 4.64342224 -1.13819236 -5.50723525
v 4.01206554 -1.05090366 -5.31498593
v 4.34219296 -1.86515945 -5.99086731
v 4.35729906 -1.01176446 -5.15293958
v 4.00511497 -1.52533038 -5.88016405
v 4.00548456 -1.36459672 -5.77218046
v 4.17273844 -1.44122798 -5.82932131
v 3.83786714 -1.44130405 -5.82937256
v 3.83763999 -1.29254826 -5.70676165
v 3.66932671 -1.36611447 -5.77342688
v 4.71518965 -1.84231767 -5.98748989
v 3.68718944 -1.04203534 -5.28688623
v 3.84946589 -1.08200103 -5.39658276
v 3.67189037 -1.11783513 -5.47094069
v 4.17287959 -1.29098858 -5.70519700
v 3.96460363 -1.01189188 -5.15376064
v 3.66912136 -1.22691540 -5.63430293
v 3.83772967 -1.16853284 -5.55557390
v 4.00568218 -1.11895119 -5.47302536
v 4.00529589 -1.22607167 -5.63327320
v 4.17216976 -1.16811880 -5.55495375
v 3.66820830 -1.52710773 -5.88112025
v 3.84142829 -1.60255275 -5.91762502
v 4.34047186 -1.36158057 -5.76968866
v 4.33456130 -1.12128255 -5.47734227
v 4.50404004 -1.07650749 -5.38361645
v 4.50075713 -1.17194763 -5.56065076
v 4.34121491 -1.52096873 -5.87779784
v 5.00000000 -1.80490968 -5.98078528
v 5.00000000 -1.61731657 -5.92387953
v 5.00000000 -1.16853039 -5.55557023
v 5.00000000 -1.07612047 -5.38268343
v 4.50377116 -1.43784419 -5.82703135
v 5.00000000 -1.44442977 -5.83146961
v 5.00000000 -1.29289322 -5.70710678
v 4.33921976 -1.22536689 -5.63241090
v 4.50362548 -1.28950454 -5.70370178
v 4.43750000 -1.00000000 -5.00000000
v 4.25000000 -1.00000000 -5.00000000
v 4.06250000 -1.00000000 -5.00000000
v 3.87500000 -1.00000000 -5.00000000
v 4.62500000 -1.00000000 -5.00000000
v 4.53363121 -1.01060474 -5.14524811
v 4.81250000 -1.00000000 -5.00000000
v 4.71581904 -1.01054282 -5.14482574
v 3.78357492 -1.85999797 -5.99015122
v 3.68570760 -1.71367736 -5.95813326
v 3.96533950 -1.86027085 -5.99018976
v 4.81431142 -1.04233228 -5.28787589
v 5.00000000 -1.01921472 -5.19509032
v 4.62529030 -1.03511110 -5.26265835
v 3.78827554 -1.01001654 -5.14118342
v 3.68750000 -1.00000000 -5.00000000
v 3.86009192 -1.74342579 -5.96652453
v 4.68189483 -1.07625226 -5.38300144
v 3.86032001 -1.03439798 -5.26002448
v 3.63770485 -1.00946859 -5.13728628
v 4.86049621 -1.85855809 -5.98994656
v 4.86539498 -1.00913545 -5.13486081
v 5.00000000 -1.00000000 -5.00000000
v 3.63457446 -1.86547425 -5.99091010
v 4.46849533 -1.03285832 -5.25423801
v 4.76875000 -1.00000000 -4.83219158
v 4.58596199 -1.00000000 -4.57192532
v 5.00000000 -1.00000000 -4.52581147
v 3.85642664 -1.00000000 -4.52299053
v 3.73437500 -1.00000000 -4.82894555
v 4.34375000 -1.00000000 -4.83762024
v 4.55000000 -1.00000000 -4.85709641
v 4.18923391 -1.00000000 -4.62045478
v 4.25000000 -1.00000000 -4.16515139
v 3.96875000 -1.00000000 -4.83762024
v 4.16284678 -1.00000000 -4.85913905
v 5.00000000 -1.00000000 -4.16515139
v 1.00000000 -1.69843749 -4.53713342
v 1.00000000 -1.81834807 -5.02969559
v 1.00000000 -2.21177342 -4.78555128
v 1.00000000 -2.24276683 -4.20143110
v 1.00000000 -4.53659748 -1.57264774
v 1.00000000 -5.00000000 -1.71428571
v 1.00000000 -5.00000000 -1.00000000
v 1.00000000 -1.66384817 -3.84581937
v 1.00000000 -3.31417678 -4.49266860
v 1.00000000 -3.65564320 -3.95223990
v 1.00000000 -2.91370387 -4.02080014
v 1.00000000 -1.45033605 -4.94819214
v 1.00000000 -4.32189796 -4.94061181
v 1.00000000 -3.54093941 -5.04287440
v 1.00000000 -3.93057720 -5.49266263
v 1.00000000 -3.86717695 -4.52758718
v 1.00000000 -2.08977541 -5.57834898
v 1.00000000 -1.78289343 -5.62199219
v 1.00000000 -1.92985854 -5.80475305
v 1.00000000 -1.84002178 -5.36510826
v 1.00000000 -2.16998267 -5.21789724
v 1.00000000 -1.35438023 -4.34328670
v 1.00000000 -3.12012439 -3.53962496
v 1.00000000 -1.19350367 -5.08094508
v 1.00000000 -1.31490972 -5.27765866
v 1.00000000 -1.56253866 -5.26901006
v 1.00000000 -1.36830413 -5.49524234
v 1.00000000 -1.59921702 -5.50901325
v 1.00000000 -4.16770011 -2.88076211
v 1.00000000 -4.35919041 -3.54418687
v 1.00000000 -5.00000000 -3.14285714
v 1.00000000 -2.61022634 -5.07144929
v 1.00000000 -1.39213724 -4.64146892
v 1.00000000 -4.54873834 -2.52542814
v 1.00000000 -2.30238716 -3.47848397
v 1.00000000 -3.60805210 -3.31682352
v 1.00000000 -1.20920147 -4.83801791
v 1.00000000 -1.00000000 -4.52581147
v 1.00000000 -4.03229631 -2.10962788
v 1.00000000 -4.61626905 -2.06967672
v 1.00000000 -2.12372731 -5.82761504
v 1.00000000 -2.72780881 -4.56778242
v 1.00000000 -3.29467651 -5.57617707
v 1.00000000 -3.48983317 -2.60802638
v 1.00000000 -4.40707792 -4.22398802
v 1.00000000 -2.76713303 -5.68191739
v 1.00000000 -5.00000000 -2.42857143
v 1.00000000 -5.00000000 -3.85714286
v 1.00000000 -5.00000000 -4.57142857
v 1.00000000 -5.00000000 -5.28571429
v 1.00000000 -2.95894909 -5.30559587
v 1.00000000 -2.47361662 -5.44308664
v 1.00000000 -2.91215182 -3.06513861
v 1.00000000 -2.36817945 -5.75497317
v 1.00000000 -1.61731657 -5.92387953
v 1.00000000 -1.61090251 -5.72795021
v 1.00000000 -1.44442977 -5.83146961
v 1.00000000 -3.06436527 -4.90513286
v 1.00000000 -1.29289322 -5.70710678
v 1.00000000 -1.16853039 -5.55557023
v 1.00000000 -4.48824054 -5.48598609
v 1.00000000 -1.00000000 -4.16515139
v 1.00000000 -1.46314933 -5.65415644
v 1.00000000 -1.80490968 -5.98078528
v 1.00000000 -1.22452535 -5.41449983
v 1.00000000 -1.74964555 -5.81460560
v 1.00000000 -1.01921472 -5.19509032
v 1.00000000 -1.00000000 -5.00000000
v 1.00000000 -1.07612047 -5.38268343
v 1.00000000 -1.16104771 -5.25449339
v 3.39835371 -5.00000000 -2.43847797
v 3.35905301 -5.00000000 -1.69075929
v 2.83554480 -5.00000000 -2.15948592
v 3.35888064 -5.00000000 -5.31085001
v 3.39626568 -5.00000000 -4.56757396
v 2.83475775 -5.00000000 -4.84469992
v 3.91398739 -5.00000000 -2.21553925
v 3.91304942 -5.00000000 -4.78808356
v 4.46588198 -5.00000000 -4.98699312
v 4.38842415 -5.00000000 -4.21063494
v 4.39117692 -5.00000000 -2.79223400
v 4.46610468 -5.00000000 -2.01366367
v 3.83326182 -5.00000000 -4.18489475
v 3.83576544 -5.00000000 -2.82081328
v 2.26494201 -5.00000000 -2.48261835
v 1.66517695 -5.00000000 -2.05024336
v 1.63047533 -5.00000000 -2.79169028
v 2.85413972 -5.00000000 -4.19793242
v 2.23389425 -5.00000000 -3.85798029
v 2.26513928 -5.00000000 -4.52123285
v 1.61747965 -5.00000000 -3.49937483
v 2.23525336 -5.00000000 -3.14647660
v 1.62389028 -5.00000000 -4.21806525
v 1.66327507 -5.00000000 -4.95187381
v 2.84817688 -5.00000000 -3.50292476
v 2.85764213 -5.00000000 -2.80956474
v 3.41852072 -5.00000000 -3.85443629
v 3.42526004 -5.00000000 -3.15407021
v 5.00000000 -5.00000000 -4.57142857
v 5.00000000 -5.00000000 -3.85714286
v 5.00000000 -5.00000000 -3.14285714
v 5.00000000 -5.00000000 -2.42857143
v 2.66666667 -5.00000000 -1.57735027
v 4.05004911 -5.00000000 -3.50374499
v 2.66666667 -5.00000000 -5.42264973
v 3.00000000 -5.00000000 -1.00000000
v 2.33333333 -5.00000000 -1.00000000
v 3.66666667 -5.00000000 -1.00000000
v 4.60411067 -5.00000000 -3.50000000
v 4.01553030 -5.00000000 -5.44441974
v 4.33333333 -5.00000000 -1.00000000
v 4.01537960 -5.00000000 -1.55569428
v 5.00000000 -5.00000000 -1.71428571
v 5.00000000 -5.00000000 -5.28571429
v 2.02098783 -5.00000000 -5.49108889
v 2.02126505 -5.00000000 -1.51029934
v 1.66666667 -5.00000000 -1.00000000
v 2.31880007 -5.00000000 -1.94302051
v 4.52089993 -5.00000000 -5.50680819
v 5.00000000 -5.00000000 -1.00000000
v 4.52089993 -5.00000000 -1.49319181
v 1.47371963 -5.00000000 -1.47270425
v 1.47349727 -5.00000000 -5.52765345
v 2.31903862 -5.00000000 -5.06319173
v 2.01887377 -1.80972748 -5.98173131
v 1.84287481 -1.69721319 -5.95305831
v 2.00732500 -1.60645729 -5.91930633
v 1.66171623 -1.82371838 -5.98433977
v 1.67126473 -1.61591404 -5.92329734
v 1.50252360 -1.69557627 -5.95253672
v 1.66361650 -1.01866931 -5.19232803
v 1.82221606 -1.05283167 -5.32073690
v 1.66896507 -1.07793310 -5.38703053
v 2.33029764 -1.36560672 -5.77301045
v 2.13754314 -1.35884683 -5.76741293
v 2.17990305 -1.22865008 -5.63641127
v 2.36461667 -1.23008371 -5.63814490
v 2.17779225 -1.66880278 -5.94356155
v 2.34782353 -1.71876653 -5.95963938
v 2.34337625 -1.53886509 -5.88733004
v 2.31288268 -1.12851562 -5.49042326
v 2.17011836 -1.49911169 -5.86551193
v 2.14342224 -1.13819236 -5.50723525
v 1.51206544 -1.05090369 -5.31498602
v 1.84219296 -1.86515945 -5.99086731
v 1.85729116 -1.01176563 -5.15294715
v 1.50511497 -1.52533038 -5.88016405
v 1.50548456 -1.36459672 -5.77218046
v 1.67273844 -1.44122798 -5.82932131
v 1.33786714 -1.44130405 -5.82937256
v 1.33763999 -1.29254826 -5.70676165
v 1.16932671 -1.36611447 -5.77342688
v 2.21518965 -1.84231767 -5.98748989
v 1.18718944 -1.04203534 -5.28688623
v 1.34946589 -1.08200103 -5.39658276
v 1.17189037 -1.11783513 -5.47094069
v 1.67287959 -1.29098858 -5.70519700
v 1.46460363 -1.01189188 -5.15376064
v 1.16912136 -1.22691540 -5.63430293
v 1.33772967 -1.16853284 -5.55557390
v 1.50568218 -1.11895119 -5.47302536
v 1.50529589 -1.22607167 -5.63327320
v 1.67216976 -1.16811880 -5.55495375
v 1.16820830 -1.52710773 -5.88112025
v 1.34142829 -1.60255275 -5.91762502
v 1.84047186 -1.36158057 -5.76968866
v 1.83456130 -1.12128255 -5.47734227
v 2.00404004 -1.07650749 -5.38361645
v 2.00075713 -1.17194763 -5.56065076
v 1.84121491 -1.52096873 -5.87779784
v 2.00377116 -1.43784419 -5.82703135
v 1.83921976 -1.22536689 -5.63241090
v 2.00362548 -1.28950454 -5.70370178
v 1.93750000 -1.00000000 -5.00000000
v 1.75000000 -1.00000000 -5.00000000
v 1.56250000 -1.00000000 -5.00000000
v 1.37500000 -1.00000000 -5.00000000
v 2.12500000 -1.00000000 -5.00000000
v 2.03361644 -1.01060625 -5.14525841
v 2.31250000 -1.00000000 -5.00000000
v 2.21581142 -1.01054334 -5.14482925
v 1.28357492 -1.85999797 -5.99015122
v 1.18570760 -1.71367736 -5.95813326
v 1.46533950 -1.86027085 -5.99018976
v 2.31430933 -1.04233238 -5.28787622
v 2.12528327 -1.03511080 -5.26265727
v 1.28827554 -1.01001654 -5.14118342
v 1.18750000 -1.00000000 -5.00000000
v 1.36009192 -1.74342579 -5.96652453
v 2.18189483 -1.07625226 -5.38300144
v 1.36031999 -1.03439798 -5.26002450
v 1.13770485 -1.00946859 -5.13728628
v 2.36049621 -1.85855809 -5.98994656
v 2.36539448 -1.00913547 -5.13486101
v 1.13457446 -1.86547425 -5.99091010
v 1.96848940 -1.03285918 -5.25424129
v 5.00000000 -1.35831430 -4.32287525
v 5.00000000 -1.66384817 -3.84581937
v 5.00000000 -1.68857827 -4.14574169
v 5.00000000 -2.03855971 -4.21543470
v 5.00000000 -2.82590911 -4.90133957
v 5.00000000 -2.96179191 -5.10354093
v 5.00000000 -2.76632695 -5.02756125
v 5.00000000 -3.88214234 -5.52912537
v 5.00000000 -3.37013535 -5.51784413
v 5.00000000 -3.56567181 -5.16876028
v 5.00000000 -1.49322519 -4.42223781
v 5.00000000 -1.58148972 -4.31820304
v 5.00000000 -3.01707287 -4.83846850
v 5.00000000 -3.05890094 -3.76962568
v 5.00000000 -3.50866264 -3.93243992
v 5.00000000 -3.14369057 -4.25069964
v 5.00000000 -3.29714487 -4.94926515
v 5.00000000 -2.77071756 -4.12739511
v 5.00000000 -2.47628136 -4.08030599
v 5.00000000 -2.57775257 -4.27205106
v 5.00000000 -4.53659748 -1.57264774
v 5.00000000 -4.36707912 -2.71521001
v 5.00000000 -4.58719458 -2.10806856
v 5.00000000 -2.80495850 -5.30571312
v 5.00000000 -2.98885833 -5.42661043
v 5.00000000 -2.69681817 -5.46450220
v 5.00000000 -3.14833479 -5.71990940
v 5.00000000 -1.35903508 -5.15402444
v 5.00000000 -1.21012799 -5.23960505
v 5.00000000 -1.15169982 -5.08325433
v 5.00000000 -2.02914187 -5.58796881
v 5.00000000 -2.20736286 -5.68038700
v 5.00000000 -2.00893977 -5.71986254
v 5.00000000 -1.28341014 -4.97024157
v 5.00000000 -2.90511257 -4.34639714
v 5.00000000 -1.50824863 -5.15838304
v 5.00000000 -1.47011999 -5.28254734
v 5.00000000 -1.42028692 -4.56364331
v 5.00000000 -4.39717711 -4.14600185
v 5.00000000 -3.95438441 -3.63542575
v 5.00000000 -4.45971548 -3.46062379
v 5.00000000 -3.56643197 -4.36521800
v 5.00000000 -3.26602052 -4.61966493
v 5.00000000 -2.17651826 -5.56004033
v 5.00000000 -3.45826668 -3.39497173
v 5.00000000 -2.97576625 -4.54957374
v 5.00000000 -4.03229631 -2.10962788
v 5.00000000 -2.91215182 -3.06513861
v 5.00000000 -3.88421084 -4.12158653
v 5.00000000 -1.59262164 -5.26430975
v 5.00000000 -2.80921208 -5.65509242
v 5.00000000 -1.24896722 -5.40537383
v 5.00000000 -1.33349223 -5.28317145
v 5.00000000 -1.41946643 -5.40773654
v 5.00000000 -1.89824244 -5.50384680
v 5.00000000 -1.79629258 -5.42893921
v 5.00000000 -1.91366105 -5.37268026
v 5.00000000 -2.30238716 -3.47848397
v 5.00000000 -2.22920349 -3.92221332
v 5.00000000 -1.20257738 -4.76290574
v 5.00000000 -1.39913470 -4.87001282
v 5.00000000 -2.83446085 -4.72094263
v 5.00000000 -2.60555588 -5.78978532
v 5.00000000 -2.26934577 -4.18754039
v 5.00000000 -1.90727589 -5.64733269
v 5.00000000 -1.91069246 -5.81489000
v 5.00000000 -1.77424311 -5.70010728
v 5.00000000 -2.35527197 -5.83156056
v 5.00000000 -2.11647227 -5.83990380
v 5.00000000 -1.99297426 -5.46667972
v 5.00000000 -2.27806556 -5.36479258
v 5.00000000 -2.15741049 -5.38449732
v 5.00000000 -1.80526723 -5.30850805
v 5.00000000 -1.25693447 -4.56885369
v 5.00000000 -4.47013585 -4.81981828
v 5.00000000 -2.71787213 -4.39174042
v 5.00000000 -1.47268725 -5.66633693
v 5.00000000 -1.64971396 -5.62298318
v 5.00000000 -1.61254886 -5.76686193
v 5.00000000 -2.62479876 -3.72569549
v 5.00000000 -1.75057634 -5.83719979
v 5.00000000 -1.39378606 -4.72577392
v 5.00000000 -2.41206455 -5.68552748
v 5.00000000 -3.99439806 -4.52884713
v 5.00000000 -3.48983317 -2.60802638
v 5.00000000 -1.35882666 -5.54918142
v 5.00000000 -1.53690953 -5.52829991
v 5.00000000 -4.43968924 -5.43893742
v 5.00000000 -3.24652489 -5.22905410
v 5.00000000 -1.44415044 -5.02172999
v 5.00000000 -2.08526624 -5.48433744
v 5.00000000 -1.68994000 -5.35198266
v 5.00000000 -1.56848295 -5.39784527
v 5.00000000 -3.94585577 -3.16285153
v 5.00000000 -2.24376249 -5.48014285
v 5.00000000 -1.70814412 -5.23507472
v 5.00000000 -1.62568073 -5.14461576
v 5.00000000 -2.57658924 -4.43646641
v 5.00000000 -2.52252060 -5.56653147
v 5.00000000 -1.52621635 -4.92348325
v 5.00000000 -2.49330510 -4.36319043
v 5.00000000 -2.51234879 -5.39541897
v 5.00000000 -2.63290421 -5.29491226
v 5.00000000 -2.03855971 -5.38456530
v 5.00000000 -1.78481867 -5.56168335
v 5.00000000 -3.61452013 -4.76865546
v 5.00000000 -1.56346717 -5.03990168
v 5.00000000 -2.37617417 -5.44742885
v 5.00000000 -2.39323044 -5.31910088
v 5.00000000 -1.55697863 -4.55354108
v 5.00000000 -2.69940270 -4.80225627
v 5.00000000 -2.49593644 -5.24415030
v 5.00000000 -2.79960824 -4.54536888
v 5.00000000 -2.65097380 -4.54935253
v 5.00000000 -1.51709196 -4.67530035
v 5.00000000 -3.99442624 -5.04235732
v 5.00000000 -2.31705784 -5.56736554
v 5.00000000 -1.15942184 -4.95410041
v 5.00000000 -1.67261524 -5.48318396
v 5.00000000 -2.41589729 -4.28542931
v 5.00000000 -1.51221475 -4.80000000
v 5.00000000 -2.72510770 -5.16575215
v 5.00000000 -2.69324915 -4.67297368
v 5.00000000 -1.62145155 -4.43998180
v 5.00000000 -2.58092315 -5.14857421
v 5.00000000 -2.68185748 -4.92809980
v 5.00000000 -1.70037851 -4.34763119
v 5.00000000 -2.63696855 -5.03907380
v 5.00000000 -1.80610737 -4.29096304
v 1.38477324 -1.00000000 -4.53001371
v 1.24404564 -1.00000000 -4.80986645
v 1.76038882 -1.00000000 -4.68297424
v 1.68672789 -1.00000000 -4.86744835
v 1.51700062 -1.00000000 -4.80337351
v 2.36956655 -1.00000000 -4.86035782
v 2.32125560 -1.00000000 -4.66891199
v 2.01959177 -1.00000000 -4.83381092
v 1.83084170 -1.00000000 -4.87684670
v 2.21407714 -1.00000000 -4.83624224
v 2.05096872 -1.00000000 -4.60199377
v 2.23484439 -1.00000000 -4.41153328
v 1.75000000 -1.00000000 -4.16515139
v 3.46744749 -4.26014159 -1.87679752
v 3.31690741 -4.64651837 -1.44443612
v 3.96667773 -4.57854232 -1.52423913
v 1.50562750 -3.83049294 -2.30372276
v 1.96399845 -3.58795730 -2.52321864
v 1.43945066 -3.28087459 -2.78142753
v 1.63792982 -1.98650132 -3.66803349
v 4.36207018 -1.98650132 -3.66803349
v 3.96063293 -4.12836095 -2.01330665
v 1.75303329 -2.74722733 -3.18348202
v 4.25278211 -2.70749834 -3.21124002
v 1.91392955 -1.47847833 -3.94109791
v 4.08607106 -1.47847763 -3.94109826
v 4.53501249 -3.27189386 -2.78866788
v 4.42399524 -3.80463005 -2.32782436
v 3.94881354 -3.51115074 -2.58979025
v 4.02213479 -3.16103779 -2.87664988
v 1.96310790 -3.21437356 -2.83463855
v 2.99618185 -4.45169200 -1.66875448
v 4.36207018 -4.28939322 -1.84578312
v 2.91973474 -4.15867455 -1.98236197
v 2.41426048 -3.91337132 -2.22532331
v 2.33465492 -4.33037531 -1.80188193
v 3.76231863 -3.82808939 -2.30596984
v 2.66129635 -4.66951820 -1.41704687
v 1.63792982 -4.28939322 -1.84578312
v 2.01642593 -4.64651837 -1.44443612
v 3.25522419 -3.83085322 -2.30338581
v 2.84161256 -3.84154028 -2.29337553
v 4.50758074 -4.68221082 -1.40184637
v 1.48363938 -4.68729409 -1.39574152
v 1.99764416 -3.98672226 -2.15441906
v 4.56257083 -1.41584267 -3.97219781
v 1.43744127 -1.41585861 -3.97218996
f 1 2 3
f 2 4 3
f 5 6 7
f 8 9 10
f 11 12 13
f 9 8 14
f 15 16 17
f 18 19 20
f 7 6 21
f 19 22 20
f 23 24 25
f 26 23 25
f 27 16 15
f 28 29 30
f 29 28 31
f 32 28 33
f 33 28 30
f 34 35 36
f 12 11 37
f 15 11 13
f 38 39 40
f 41 42 3
f 43 42 41
f 36 35 44
f 45 32 33
f 46 47 48
f 39 38 49
f 50 51 52
f 47 53 48
f 54 55 14
f 42 1 3
f 56 57 58
f 54 59 55
f 60 26 25
f 61 62 19
f 24 23 52
f 32 45 63
f 60 64 65
f 52 51 66
f 64 60 25
f 62 61 67
f 68 55 69
f 70 71 72
f 65 64 73
f 47 65 73
f 74 75 37
f 76 68 69
f 15 17 11
f 77 78 20
f 79 80 81
f 80 46 48
f 58 57 82
f 29 43 41
f 53 47 73
f 83 74 37
f 84 85 86
f 75 12 37
f 87 88 89
f 43 29 31
f 90 87 89
f 13 12 91
f 91 92 93
f 71 2 72
f 68 9 14
f 94 85 7
f 78 77 95
f 96 97 72
f 98 92 99
f 13 91 93
f 100 101 102
f 103 77 104
f 105 83 94
f 80 48 81
f 94 83 85
f 4 2 71
f 106 107 104
f 108 60 65
f 109 110 90
f 111 112 94
f 90 110 87
f 77 106 104
f 98 99 113
f 92 98 93
f 111 114 112
f 104 107 115
f 111 94 7
f 112 105 94
f 116 117 118
f 119 120 34
f 9 121 122
f 123 124 90
f 125 70 126
f 127 128 129
f 45 130 38
f 131 132 59
f 133 70 125
f 26 134 23
f 135 136 137
f 99 138 113
f 119 139 120
f 139 140 120
f 141 124 123
f 124 109 90
f 142 26 60
f 112 143 105
f 144 116 118
f 145 114 111
f 137 130 45
f 26 146 134
f 147 148 149
f 105 74 83
f 150 127 129
f 151 143 112
f 107 129 115
f 152 147 4
f 153 135 154
f 155 131 59
f 156 130 137
f 157 158 35
f 105 159 74
f 156 160 130
f 132 161 125
f 129 128 115
f 162 163 115
f 149 154 29
f 120 35 34
f 144 164 116
f 68 121 9
f 123 90 89
f 163 104 115
f 140 157 120
f 121 165 122
f 142 146 26
f 27 166 100
f 165 167 168
f 157 35 120
f 146 169 134
f 131 161 132
f 62 106 22
f 114 151 112
f 74 170 75
f 133 171 70
f 75 172 12
f 173 140 139
f 105 143 159
f 12 172 91
f 174 175 118
f 176 150 167
f 103 174 56
f 101 100 177
f 178 139 119
f 179 180 173
f 151 141 143
f 163 174 103
f 181 154 149
f 162 175 163
f 173 180 140
f 164 24 182
f 108 142 60
f 74 159 170
f 116 164 182
f 153 136 135
f 163 175 174
f 75 183 172
f 152 148 147
f 117 174 118
f 168 107 106
f 168 106 62
f 184 139 178
f 185 186 179
f 127 187 128
f 188 152 4
f 179 186 180
f 75 170 183
f 189 190 138
f 168 167 107
f 181 153 154
f 46 191 47
f 161 133 125
f 176 167 165
f 192 193 187
f 109 79 110
f 172 183 194
f 195 178 166
f 192 187 127
f 172 194 196
f 196 92 91
f 197 166 27
f 136 156 137
f 22 106 77
f 56 117 57
f 196 194 198
f 167 150 129
f 190 185 138
f 143 141 123
f 128 162 115
f 148 181 149
f 173 139 184
f 199 200 201
f 189 138 99
f 202 199 193
f 185 179 138
f 144 203 164
f 163 103 104
f 128 204 162
f 202 193 192
f 196 205 92
f 185 206 186
f 162 207 175
f 140 208 157
f 184 178 195
f 193 199 201
f 56 174 117
f 92 205 99
f 200 209 201
f 205 198 210
f 189 210 200
f 211 165 121
f 212 144 118
f 196 198 205
f 128 187 204
f 170 159 89
f 213 57 214
f 165 168 122
f 197 27 15
f 195 166 197
f 190 200 199
f 212 215 144
f 173 184 113
f 216 127 150
f 172 196 91
f 157 217 158
f 200 210 209
f 210 198 218
f 219 220 221
f 222 150 176
f 107 167 129
f 223 224 225
f 175 212 118
f 164 226 24
f 184 98 113
f 168 62 122
f 190 227 185
f 116 182 214
f 207 204 228
f 138 179 113
f 227 199 202
f 88 170 89
f 185 227 206
f 220 207 228
f 76 121 68
f 198 194 229
f 205 210 189
f 219 221 230
f 201 209 231
f 88 87 232
f 140 180 208
f 192 127 216
f 175 207 212
f 159 143 123
f 183 170 88
f 231 209 233
f 162 204 207
f 144 215 203
f 189 200 190
f 228 204 234
f 126 76 69
f 235 236 237
f 204 187 234
f 190 199 227
f 179 173 113
f 193 201 234
f 221 220 228
f 176 165 211
f 194 183 238
f 186 206 239
f 198 229 218
f 205 189 99
f 1 240 96
f 233 218 241
f 184 195 98
f 209 210 218
f 242 230 243
f 212 207 220
f 223 225 244
f 215 220 219
f 219 230 242
f 245 243 246
f 247 248 16
f 216 150 222
f 187 193 234
f 212 220 215
f 249 250 78
f 85 251 86
f 252 253 36
f 254 42 43
f 225 224 254
f 202 192 244
f 223 240 224
f 224 1 42
f 183 88 238
f 222 176 255
f 192 216 244
f 256 257 213
f 96 240 255
f 245 258 53
f 157 208 217
f 197 15 13
f 216 222 223
f 223 222 240
f 164 203 226
f 1 96 2
f 216 223 244
f 224 42 254
f 229 194 238
f 242 243 245
f 224 240 1
f 259 252 260
f 159 123 89
f 261 262 61
f 245 246 258
f 195 197 93
f 263 264 84
f 180 186 265
f 230 233 241
f 211 121 76
f 176 211 255
f 186 239 265
f 32 266 28
f 208 180 265
f 240 222 255
f 209 218 233
f 206 267 268
f 269 256 51
f 226 203 270
f 197 13 93
f 271 249 58
f 272 259 273
f 219 242 274
f 244 225 267
f 234 201 231
f 217 266 32
f 226 270 64
f 98 195 93
f 274 242 275
f 215 219 274
f 202 244 267
f 217 208 266
f 206 227 267
f 191 108 65
f 203 215 274
f 276 272 277
f 278 269 50
f 279 280 8
f 249 78 58
f 266 208 265
f 245 53 275
f 270 203 274
f 221 231 233
f 228 234 231
f 260 252 36
f 267 225 268
f 38 130 281
f 227 202 267
f 230 221 233
f 243 230 241
f 221 228 231
f 256 213 51
f 242 245 275
f 265 239 282
f 259 260 273
f 38 281 49
f 225 254 268
f 239 206 268
f 270 274 275
f 218 229 241
f 87 110 283
f 239 268 284
f 53 258 48
f 268 254 284
f 254 43 284
f 229 238 285
f 24 226 25
f 110 79 81
f 22 77 20
f 266 265 282
f 50 269 51
f 277 272 273
f 241 229 285
f 28 266 282
f 226 64 25
f 246 243 285
f 47 191 65
f 61 262 10
f 57 117 214
f 243 241 285
f 282 239 284
f 64 270 73
f 285 238 232
f 275 53 73
f 76 126 97
f 238 88 232
f 279 8 10
f 270 275 73
f 262 279 10
f 160 286 281
f 283 110 81
f 182 24 52
f 246 285 232
f 100 166 287
f 178 119 287
f 273 260 39
f 117 116 214
f 62 22 19
f 281 277 49
f 97 126 72
f 288 278 289
f 280 290 54
f 17 16 291
f 287 119 292
f 34 36 293
f 232 87 283
f 246 232 283
f 37 11 251
f 294 145 21
f 6 294 21
f 83 37 251
f 125 126 69
f 258 246 283
f 130 160 281
f 137 45 33
f 77 103 95
f 29 154 30
f 258 283 81
f 11 17 86
f 149 29 41
f 235 237 293
f 70 171 71
f 36 253 293
f 111 7 21
f 188 4 71
f 23 134 295
f 166 178 287
f 237 287 292
f 5 7 296
f 48 258 81
f 278 50 289
f 85 83 251
f 8 280 54
f 182 52 66
f 18 261 19
f 96 255 97
f 297 155 298
f 211 76 97
f 169 299 300
f 290 297 298
f 291 84 86
f 299 288 300
f 101 247 102
f 57 213 82
f 250 18 20
f 122 62 67
f 85 84 296
f 284 43 31
f 35 158 44
f 134 289 295
f 16 248 291
f 39 158 40
f 28 282 31
f 263 84 291
f 236 101 177
f 271 58 82
f 251 11 86
f 158 217 63
f 286 301 302
f 213 257 82
f 301 276 302
f 16 27 102
f 158 39 44
f 260 36 44
f 273 39 49
f 8 54 14
f 264 5 296
f 253 235 293
f 45 38 40
f 59 132 55
f 55 132 69
f 135 137 33
f 135 33 30
f 132 125 69
f 100 287 177
f 61 10 67
f 154 135 30
f 147 41 3
f 147 149 41
f 4 147 3
f 255 211 97
f 84 264 296
f 40 158 63
f 171 188 71
f 261 61 19
f 17 291 86
f 10 9 67
f 51 213 66
f 7 85 296
f 282 284 31
f 126 70 72
f 27 100 102
f 213 214 66
f 247 16 102
f 2 96 72
f 287 237 177
f 281 286 302
f 58 78 95
f 78 250 20
f 56 58 95
f 103 56 95
f 214 182 66
f 145 111 21
f 134 169 300
f 155 59 298
f 248 263 291
f 9 122 67
f 277 281 302
f 119 34 292
f 52 23 295
f 293 237 292
f 54 290 298
f 50 52 295
f 288 289 300
f 257 271 82
f 276 277 302
f 217 32 63
f 237 236 177
f 39 260 44
f 45 40 63
f 277 273 49
f 289 134 300
f 59 54 298
f 289 50 295
f 55 68 14
f 34 293 292
f 303 304 305
f 278 288 306
f 307 308 309
f 308 307 310
f 311 312 313
f 314 315 316
f 306 288 317
f 318 319 320
f 321 311 313
f 322 323 324
f 304 325 305
f 235 326 327
f 328 329 330
f 329 331 330
f 332 319 318
f 333 334 335
f 326 336 327
f 323 337 324
f 315 314 338
f 339 340 341
f 339 330 340
f 318 314 316
f 335 334 342
f 343 344 345
f 346 347 326
f 339 328 330
f 348 343 345
f 329 349 331
f 350 351 327
f 352 353 341
f 343 349 354
f 321 308 310
f 349 329 354
f 355 356 357
f 358 359 305
f 360 359 358
f 347 346 361
f 362 363 364
f 365 366 367
f 359 303 305
f 344 343 354
f 341 353 368
f 363 348 345
f 308 321 313
f 369 370 338
f 351 350 371
f 318 320 314
f 372 373 374
f 375 376 377
f 378 312 311
f 379 380 381
f 382 369 338
f 370 315 338
f 383 375 377
f 384 356 385
f 363 345 364
f 366 386 367
f 316 315 387
f 387 388 389
f 390 388 391
f 316 387 389
f 392 350 393
f 394 380 306
f 395 322 324
f 357 356 396
f 397 398 393
f 399 400 383
f 401 402 383
f 403 404 405
f 350 397 393
f 388 390 389
f 390 391 406
f 407 400 399
f 408 382 394
f 409 410 408
f 383 402 375
f 393 398 411
f 394 382 380
f 412 413 414
f 373 304 374
f 415 416 331
f 417 418 419
f 420 410 409
f 409 408 394
f 421 394 306
f 422 423 424
f 399 383 377
f 376 375 425
f 426 395 427
f 395 428 322
f 391 429 406
f 331 416 330
f 400 401 383
f 421 409 394
f 386 360 358
f 430 431 386
f 432 412 414
f 421 433 409
f 434 433 421
f 408 369 382
f 347 336 326
f 435 431 430
f 436 422 424
f 330 416 340
f 322 372 323
f 398 424 411
f 437 307 431
f 408 438 369
f 439 440 325
f 441 426 427
f 408 410 438
f 442 443 444
f 445 446 321
f 447 372 322
f 424 423 411
f 448 449 411
f 336 350 327
f 432 450 412
f 410 407 399
f 451 418 417
f 449 393 411
f 452 415 331
f 415 403 416
f 418 453 419
f 332 454 455
f 349 452 331
f 453 456 457
f 380 458 381
f 426 428 395
f 347 397 336
f 369 459 370
f 447 460 372
f 461 442 462
f 370 463 315
f 464 465 374
f 412 466 385
f 416 403 405
f 315 463 387
f 467 468 414
f 469 436 456
f 392 467 355
f 470 471 461
f 420 407 410
f 440 472 430
f 473 462 474
f 449 467 392
f 450 339 466
f 448 468 449
f 369 438 459
f 461 471 442
f 412 450 466
f 437 475 307
f 449 468 467
f 370 476 463
f 413 467 414
f 457 398 397
f 439 472 440
f 457 397 347
f 477 462 473
f 478 479 470
f 422 480 423
f 370 459 476
f 470 479 471
f 481 482 429
f 433 420 409
f 483 439 325
f 457 456 398
f 435 437 431
f 348 484 343
f 428 447 322
f 469 456 453
f 485 486 480
f 401 362 402
f 463 476 487
f 463 487 488
f 489 473 454
f 485 480 422
f 488 388 387
f 490 454 332
f 336 397 350
f 355 413 356
f 474 444 334
f 488 487 491
f 456 436 424
f 482 478 429
f 423 448 411
f 472 435 430
f 461 462 477
f 492 493 494
f 343 484 349
f 481 429 391
f 478 470 429
f 462 442 444
f 432 495 450
f 496 492 486
f 423 497 448
f 449 392 393
f 488 498 388
f 478 499 479
f 496 486 485
f 448 500 468
f 484 452 349
f 442 501 443
f 486 492 494
f 477 473 489
f 340 416 405
f 355 467 413
f 388 498 391
f 493 502 494
f 503 432 414
f 474 462 444
f 498 491 504
f 481 504 493
f 505 453 418
f 423 480 497
f 488 491 498
f 453 457 419
f 490 332 318
f 489 454 490
f 503 506 432
f 482 493 492
f 461 477 406
f 507 422 436
f 463 488 387
f 508 509 510
f 493 504 502
f 504 491 511
f 398 456 424
f 512 513 514
f 450 328 339
f 515 436 469
f 459 438 377
f 468 503 414
f 477 390 406
f 457 347 419
f 482 516 478
f 500 497 517
f 429 470 406
f 516 492 496
f 478 516 499
f 509 500 517
f 438 410 399
f 491 487 518
f 498 504 481
f 494 502 519
f 508 510 520
f 337 418 451
f 442 471 501
f 519 502 521
f 468 500 503
f 485 422 507
f 476 459 376
f 448 497 500
f 376 459 377
f 522 523 524
f 517 497 525
f 432 506 495
f 481 493 482
f 522 526 523
f 18 250 527
f 497 480 525
f 486 494 525
f 470 461 406
f 510 509 517
f 482 492 516
f 479 499 528
f 487 476 529
f 469 453 505
f 491 518 511
f 247 101 357
f 521 511 530
f 498 481 391
f 303 531 464
f 477 489 390
f 532 520 533
f 503 500 509
f 502 504 511
f 512 514 534
f 506 509 508
f 508 520 532
f 535 533 536
f 480 486 525
f 271 257 319
f 402 362 364
f 503 509 506
f 507 436 515
f 101 236 351
f 514 513 537
f 537 359 360
f 262 261 333
f 512 531 513
f 496 485 534
f 513 303 359
f 476 376 529
f 515 469 538
f 263 248 384
f 485 507 534
f 535 539 344
f 443 501 522
f 490 318 316
f 507 515 512
f 464 531 538
f 450 495 328
f 512 515 531
f 507 512 534
f 513 359 537
f 532 533 535
f 513 531 303
f 518 487 529
f 303 464 304
f 279 262 540
f 253 252 346
f 523 526 308
f 535 536 539
f 375 402 541
f 489 490 389
f 256 269 379
f 471 479 542
f 438 399 377
f 520 521 530
f 469 505 538
f 505 418 337
f 344 539 345
f 479 528 542
f 501 471 542
f 526 543 365
f 499 544 545
f 264 263 353
f 531 515 538
f 502 511 521
f 101 351 357
f 328 495 546
f 252 259 547
f 490 316 389
f 508 532 548
f 280 279 549
f 525 494 519
f 534 514 544
f 522 543 526
f 360 386 366
f 328 546 329
f 390 489 389
f 548 532 550
f 506 508 548
f 496 534 544
f 522 501 543
f 499 516 544
f 495 506 548
f 290 280 378
f 5 264 352
f 259 272 551
f 535 344 550
f 543 501 542
f 546 495 548
f 510 519 521
f 540 335 552
f 517 525 519
f 544 514 545
f 540 262 333
f 516 496 544
f 520 510 521
f 540 333 335
f 533 520 530
f 510 517 519
f 263 384 353
f 532 535 550
f 542 528 553
f 279 540 549
f 346 252 547
f 514 537 545
f 455 249 554
f 528 499 545
f 511 518 530
f 466 339 341
f 546 548 550
f 356 413 385
f 528 545 555
f 518 529 556
f 537 360 555
f 545 537 555
f 352 264 353
f 543 542 553
f 541 402 364
f 530 518 556
f 259 551 547
f 378 280 549
f 413 412 385
f 365 543 553
f 540 552 549
f 536 533 556
f 329 546 354
f 533 530 556
f 553 528 555
f 556 529 425
f 546 550 354
f 529 376 425
f 249 455 557
f 550 344 354
f 446 558 311
f 536 556 425
f 325 304 373
f 455 454 559
f 473 474 559
f 6 5 560
f 443 522 524
f 272 276 561
f 559 474 562
f 378 549 312
f 549 552 312
f 425 375 541
f 356 384 396
f 320 319 563
f 552 335 524
f 561 427 564
f 536 425 541
f 299 434 317
f 288 299 317
f 338 314 458
f 445 321 310
f 334 333 565
f 382 338 458
f 321 446 311
f 307 475 310
f 350 392 371
f 539 536 541
f 465 323 374
f 539 541 364
f 430 386 358
f 345 539 364
f 527 559 562
f 372 460 373
f 421 306 317
f 483 325 373
f 5 352 560
f 466 341 368
f 18 527 565
f 337 323 465
f 333 261 565
f 551 272 561
f 380 382 458
f 278 306 566
f 235 253 326
f 431 307 367
f 308 526 309
f 314 320 381
f 340 405 567
f 454 473 559
f 236 235 327
f 301 441 568
f 563 379 381
f 404 294 569
f 464 538 465
f 276 301 568
f 505 337 465
f 294 6 569
f 419 347 361
f 380 379 566
f 555 360 366
f 334 444 342
f 249 271 554
f 365 553 366
f 319 257 563
f 250 249 557
f 256 379 563
f 247 357 396
f 384 248 396
f 558 297 570
f 405 560 567
f 297 290 570
f 458 314 381
f 523 308 313
f 524 523 571
f 417 547 572
f 524 335 342
f 443 524 342
f 269 278 566
f 547 551 572
f 319 332 554
f 564 427 573
f 475 445 310
f 547 417 361
f 307 309 367
f 261 18 565
f 346 547 361
f 552 524 571
f 526 365 309
f 379 269 566
f 440 358 305
f 337 451 324
f 320 563 381
f 440 430 358
f 455 559 557
f 325 440 305
f 304 464 374
f 460 483 373
f 538 505 465
f 253 346 326
f 355 357 371
f 553 555 366
f 357 351 371
f 353 384 368
f 306 380 566
f 551 561 564
f 323 372 374
f 351 236 327
f 384 385 368
f 271 319 554
f 332 455 554
f 341 340 567
f 311 558 570
f 405 404 569
f 386 431 367
f 559 527 557
f 417 419 361
f 385 466 368
f 392 355 371
f 427 395 573
f 434 421 317
f 441 427 568
f 352 341 567
f 257 256 563
f 378 311 570
f 451 417 572
f 444 443 342
f 451 564 573
f 565 527 562
f 248 247 396
f 561 276 568
f 6 560 569
f 324 451 573
f 290 378 570
f 474 334 562
f 527 250 557
f 309 365 367
f 560 405 569
f 312 552 571
f 427 561 568
f 560 352 567
f 564 451 572
f 334 565 562
f 313 312 571
f 551 564 572
f 523 313 571
f 395 324 573
f 574 575 576
f 575 577 578
f 574 579 580
f 581 582 583
f 584 582 581
f 585 586 587
f 588 589 590
f 591 581 592
f 590 589 593
f 594 595 596
f 591 592 597
f 596 598 599
f 600 601 602
f 603 604 605
f 606 607 608
f 609 584 610
f 611 612 613
f 614 615 616
f 617 618 619
f 619 620 621
f 155 622 623
f 603 624 604
f 605 604 625
f 626 627 628
f 629 618 617
f 615 630 616
f 621 631 632
f 613 612 633
f 634 635 636
f 637 638 639
f 640 587 641
f 640 642 587
f 629 643 644
f 645 601 600
f 602 601 592
f 646 637 639
f 576 579 574
f 626 595 647
f 610 648 609
f 649 650 651
f 620 618 652
f 622 653 654
f 653 624 614
f 614 624 603
f 638 612 639
f 655 583 656
f 649 657 658
f 584 581 659
f 660 645 661
f 587 642 585
f 662 633 663
f 664 597 665
f 651 650 617
f 662 613 633
f 636 666 634
f 297 622 155
f 631 613 632
f 634 666 628
f 667 597 664
f 591 597 668
f 585 642 648
f 633 612 638
f 669 647 608
f 670 610 659
f 645 637 646
f 671 657 649
f 653 616 654
f 622 654 623
f 581 602 592
f 625 604 446
f 632 613 662
f 558 604 672
f 673 603 605
f 619 618 620
f 445 667 625
f 674 675 623
f 437 676 668
f 667 664 625
f 676 670 659
f 668 667 475
f 580 666 636
f 646 601 645
f 668 597 667
f 676 591 668
f 675 677 678
f 610 584 659
f 597 592 665
f 655 600 583
f 611 614 603
f 645 600 661
f 628 627 671
f 613 615 611
f 666 626 628
f 679 638 637
f 680 595 626
f 681 648 682
f 648 642 609
f 445 625 446
f 660 637 645
f 558 672 297
f 437 668 475
f 580 579 598
f 446 604 558
f 664 605 625
f 631 630 615
f 435 670 676
f 644 658 588
f 435 676 437
f 644 683 629
f 475 667 445
f 608 607 669
f 673 611 603
f 155 623 131
f 609 684 584
f 664 665 685
f 583 602 581
f 609 642 640
f 133 686 171
f 623 675 131
f 685 673 605
f 658 643 649
f 583 582 656
f 682 670 472
f 652 618 687
f 672 622 297
f 661 600 655
f 439 682 472
f 633 638 663
f 153 608 136
f 674 688 687
f 687 618 629
f 679 637 660
f 472 670 435
f 664 685 605
f 685 639 673
f 588 658 589
f 663 638 679
f 621 620 631
f 674 677 675
f 131 675 161
f 439 681 682
f 617 650 629
f 647 595 594
f 161 678 133
f 483 681 439
f 161 675 678
f 659 581 591
f 654 674 623
f 428 578 447
f 650 643 629
f 447 689 460
f 682 648 610
f 649 643 650
f 676 659 591
f 629 683 687
f 152 690 148
f 665 646 685
f 588 590 686
f 460 691 483
f 672 624 653
f 614 616 653
f 682 610 670
f 672 653 622
f 688 630 652
f 604 624 672
f 654 688 674
f 678 677 692
f 586 575 587
f 600 602 583
f 483 691 681
f 685 646 639
f 611 615 614
f 693 694 690
f 598 579 599
f 689 691 460
f 631 615 613
f 686 590 171
f 585 648 681
f 639 612 673
f 586 577 575
f 136 594 156
f 665 601 646
f 652 630 620
f 580 680 666
f 691 585 681
f 689 586 691
f 592 601 665
f 188 593 152
f 674 687 677
f 678 686 133
f 616 688 654
f 656 582 695
f 171 590 188
f 595 598 596
f 580 598 680
f 669 627 626
f 693 657 627
f 181 606 153
f 691 586 585
f 136 608 594
f 677 683 692
f 669 626 647
f 666 680 626
f 678 692 686
f 584 684 582
f 687 688 652
f 616 630 688
f 160 596 286
f 447 578 689
f 644 643 658
f 576 578 428
f 673 612 611
f 426 576 428
f 606 608 153
f 148 694 181
f 669 607 693
f 627 657 671
f 692 588 686
f 620 630 631
f 692 644 588
f 301 599 441
f 693 607 694
f 188 590 593
f 593 690 152
f 687 683 677
f 692 683 644
f 589 693 690
f 690 694 148
f 693 627 669
f 608 647 594
f 181 694 606
f 582 684 695
f 593 589 690
f 694 607 606
f 689 577 586
f 658 657 589
f 589 657 693
f 578 577 689
f 680 598 595
f 695 684 609
f 286 599 301
f 641 575 574
f 587 575 641
f 695 609 640
f 286 596 599
f 156 594 160
f 594 596 160
f 441 576 426
f 599 576 441
f 599 579 576
f 575 578 576
f 696 697 651
f 635 698 699
f 699 698 700
f 701 697 696
f 651 697 649
f 634 698 635
f 700 698 702
f 703 697 701
f 704 705 706
f 671 705 704
f 706 705 703
f 671 704 628
f 628 707 634
f 702 707 708
f 708 704 706
f 704 707 628
f 708 707 704
f 649 705 671
f 649 697 705
f 707 698 634
f 705 697 703
f 702 698 707
f 709 710 711
f 709 712 713
f 714 715 716
f 712 717 713
f 718 710 719
f 711 720 709
f 709 721 710
f 722 723 724
f 713 717 725
f 713 725 726
f 727 709 713
f 727 713 726
f 716 715 728
f 700 702 729
f 730 731 727
f 703 718 719
f 727 731 732
f 703 719 706
f 702 731 729
f 724 733 734
f 724 711 733
f 708 731 702
f 717 735 736
f 710 721 719
f 730 727 726
f 709 720 712
f 719 732 706
f 729 731 730
f 723 737 724
f 712 735 717
f 738 718 701
f 733 710 718
f 701 718 703
f 739 725 740
f 706 732 708
f 732 731 708
f 734 733 738
f 741 742 715
f 717 736 743
f 736 744 743
f 740 745 746
f 747 741 748
f 749 742 741
f 715 750 741
f 751 714 752
f 736 742 749
f 723 716 737
f 725 745 740
f 728 753 716
f 714 754 715
f 746 743 755
f 736 749 744
f 719 721 732
f 733 718 738
f 737 711 724
f 727 721 709
f 755 744 756
f 716 757 714
f 746 745 743
f 711 710 733
f 737 720 711
f 715 742 728
f 756 749 747
f 745 717 743
f 732 721 727
f 758 723 722
f 752 757 758
f 759 754 751
f 748 750 759
f 741 750 748
f 716 753 737
f 747 749 741
f 723 757 716
f 743 744 755
f 751 754 714
f 728 735 753
f 758 757 723
f 714 757 752
f 737 753 720
f 744 749 756
f 720 753 712
f 753 735 712
f 750 754 759
f 715 754 750
f 736 735 742
f 742 735 728
f 726 725 739
f 722 724 734
f 725 717 745
f 760 761 762
f 763 764 765
f 766 767 768
f 769 770 771
f 772 773 774
f 775 776 777
f 778 779 780
f 781 760 762
f 766 768 782
f 775 777 783
f 784 770 769
f 779 778 785
f 763 765 786
f 734 777 773
f 787 788 789
f 738 701 790
f 791 792 793
f 778 780 794
f 738 790 791
f 651 617 795
f 796 778 794
f 761 760 797
f 798 799 778
f 778 799 800
f 791 790 792
f 792 801 802
f 803 804 805
f 805 804 762
f 798 787 799
f 806 807 801
f 808 804 803
f 734 791 777
f 796 798 778
f 800 809 810
f 617 619 811
f 801 792 770
f 778 800 785
f 784 806 770
f 804 781 762
f 764 763 812
f 800 810 813
f 814 784 769
f 791 793 777
f 815 651 795
f 807 816 812
f 801 807 763
f 789 788 817
f 793 792 802
f 734 738 791
f 619 621 818
f 819 808 820
f 811 619 766
f 821 651 815
f 777 776 773
f 810 766 782
f 767 766 818
f 822 769 771
f 820 808 803
f 773 776 774
f 823 803 805
f 824 796 794
f 816 825 826
f 827 814 797
f 777 793 783
f 760 827 797
f 828 829 830
f 696 651 823
f 822 761 769
f 821 815 829
f 788 831 830
f 823 651 821
f 800 799 809
f 790 701 822
f 799 787 789
f 621 632 832
f 617 811 795
f 811 766 810
f 833 834 764
f 835 836 767
f 831 837 828
f 820 829 828
f 822 838 761
f 821 829 820
f 836 839 768
f 834 840 765
f 823 821 803
f 814 769 797
f 841 842 779
f 842 843 780
f 844 841 845
f 839 844 846
f 837 819 828
f 840 847 848
f 769 761 797
f 823 805 849
f 822 701 838
f 821 820 803
f 806 801 770
f 701 696 849
f 763 807 812
f 805 838 849
f 810 809 850
f 770 792 771
f 763 786 802
f 790 822 771
f 847 851 775
f 792 790 771
f 766 619 818
f 838 805 762
f 851 852 776
f 831 828 830
f 838 701 849
f 809 799 789
f 795 811 850
f 764 834 765
f 767 836 768
f 819 820 828
f 839 846 768
f 779 842 780
f 841 779 845
f 840 848 765
f 846 844 845
f 764 812 826
f 789 817 853
f 835 767 832
f 853 795 850
f 829 815 817
f 793 786 783
f 833 764 826
f 786 793 802
f 761 838 762
f 780 843 794
f 809 789 853
f 765 848 786
f 767 818 832
f 846 845 813
f 848 847 775
f 632 835 832
f 817 815 853
f 843 824 794
f 825 833 826
f 852 772 774
f 809 853 850
f 815 795 853
f 696 823 849
f 801 763 802
f 851 776 775
f 817 788 830
f 812 816 826
f 811 810 850
f 813 810 782
f 818 621 832
f 776 852 774
f 768 846 782
f 846 813 782
f 845 779 785
f 813 845 785
f 786 848 783
f 848 775 783
f 800 813 785
f 829 817 830
f 722 734 773
f 772 722 773
f 854 855 856
f 857 858 855
f 857 859 858
f 860 861 862
f 863 864 865
f 865 866 863
f 856 867 854
f 868 867 869
f 870 866 865
f 869 867 871
f 865 872 870
f 862 873 860
f 863 869 871
f 871 864 863
f 854 874 855
f 855 874 857
f 875 861 860
f 859 876 858
f 877 878 876
f 876 879 877
f 877 879 880
f 880 879 881
f 876 878 858
f 854 867 882
f 883 884 885
f 886 878 877
f 860 873 887
f 880 881 888
f 883 885 655
f 885 884 889
f 884 890 889
f 891 890 892
f 890 862 892
f 881 879 893
f 888 881 660
f 859 894 876
f 895 878 886
f 889 890 891
f 885 889 888
f 896 897 898
f 856 855 899
f 656 883 655
f 900 868 901
f 661 885 888
f 679 881 893
f 902 870 903
f 889 880 888
f 904 856 899
f 679 893 663
f 904 899 895
f 661 888 660
f 655 885 661
f 905 863 906
f 891 877 880
f 855 858 899
f 889 891 880
f 862 896 892
f 907 896 898
f 660 881 679
f 891 892 886
f 899 878 895
f 891 886 877
f 907 895 886
f 893 879 894
f 892 907 886
f 908 904 895
f 892 896 907
f 907 908 895
f 904 871 856
f 858 878 899
f 898 865 908
f 907 898 908
f 909 875 910
f 894 879 876
f 910 860 911
f 911 887 912
f 841 854 842
f 913 914 909
f 839 857 844
f 915 916 913
f 835 917 836
f 875 860 910
f 909 914 875
f 911 860 887
f 894 918 893
f 916 914 913
f 857 919 859
f 903 920 921
f 663 918 662
f 920 922 916
f 912 923 924
f 842 882 843
f 894 925 918
f 868 869 901
f 902 866 870
f 905 869 863
f 863 866 906
f 884 873 890
f 926 922 920
f 870 920 903
f 893 918 663
f 904 864 871
f 918 925 917
f 865 864 908
f 883 927 884
f 896 861 897
f 887 923 912
f 854 882 842
f 841 874 854
f 857 874 844
f 695 928 656
f 824 929 900
f 839 919 857
f 917 919 836
f 924 928 695
f 843 929 824
f 897 872 898
f 923 927 883
f 921 930 931
f 662 932 632
f 931 930 915
f 632 932 835
f 901 869 905
f 906 866 902
f 908 864 904
f 926 872 897
f 870 926 920
f 844 874 841
f 871 867 856
f 890 873 862
f 836 919 839
f 882 867 868
f 862 861 896
f 920 930 921
f 918 932 662
f 870 872 926
f 884 927 873
f 656 928 883
f 900 929 868
f 916 930 920
f 917 932 918
f 917 925 919
f 861 933 897
f 898 872 865
f 923 928 924
f 882 929 843
f 897 933 922
f 915 930 916
f 835 932 917
f 897 922 926
f 859 925 894
f 914 933 875
f 916 922 914
f 883 928 923
f 868 929 882
f 887 927 923
f 922 933 914
f 919 925 859
f 873 927 887
f 875 933 861
f 934 935 936
f 640 937 938
f 939 935 940
f 941 935 939
f 942 935 941
f 942 941 937
f 913 934 915
f 924 938 912
f 909 940 913
f 912 943 911
f 911 944 910
f 910 939 909
f 941 944 943
f 937 941 943
f 912 938 943
f 940 934 913
f 943 944 911
f 909 939 940
f 910 944 939
f 938 937 943
f 940 935 934
f 939 944 941
f 641 937 640
f 942 937 641
f 640 938 695
f 695 938 924
f 915 934 931
f 931 934 936
f 945 935 942
f 936 935 945
f 946 947 948
f 946 948 949
f 950 951 952
f 953 946 949
f 954 955 956
f 946 957 947
f 958 959 960
f 958 961 959
f 962 963 964
f 947 965 966
f 953 967 946
f 955 968 956
f 969 970 957
f 957 970 971
f 947 966 948
f 971 970 972
f 972 973 971
f 974 975 976
f 948 966 977
f 946 978 957
f 976 979 974
f 947 971 965
f 953 949 980
f 981 955 975
f 949 956 980
f 982 978 983
f 981 975 974
f 814 960 784
f 984 985 950
f 964 986 962
f 956 968 980
f 948 977 987
f 965 963 962
f 784 988 806
f 989 974 984
f 975 955 990
f 784 960 988
f 806 991 807
f 951 985 992
f 993 990 994
f 990 958 994
f 988 991 806
f 994 958 995
f 991 996 997
f 981 974 989
f 998 981 989
f 965 962 966
f 960 959 988
f 807 999 816
f 980 968 998
f 976 975 993
f 947 957 971
f 993 975 990
f 959 996 988
f 948 987 949
f 992 979 976
f 1000 1001 1002
f 1003 996 959
f 983 978 967
f 971 973 965
f 807 991 999
f 987 954 956
f 1004 972 1005
f 962 986 999
f 995 1006 827
f 997 996 977
f 827 1006 814
f 983 967 1007
f 966 997 977
f 973 1008 1001
f 991 997 999
f 974 979 984
f 999 986 816
f 972 1008 973
f 990 961 958
f 825 964 1009
f 987 956 949
f 990 955 961
f 981 968 955
f 1001 963 973
f 960 1006 958
f 816 986 825
f 987 1003 954
f 958 1006 995
f 959 961 954
f 961 955 954
f 950 985 951
f 970 1010 972
f 1002 1008 1004
f 954 1003 959
f 999 997 962
f 964 963 1011
f 998 968 981
f 1012 969 1013
f 1009 1011 1000
f 1001 1008 1002
f 977 1003 987
f 814 1006 960
f 969 957 982
f 967 978 946
f 988 996 991
f 1000 1011 1001
f 1004 1008 972
f 984 979 985
f 825 986 964
f 969 982 1013
f 973 963 965
f 1014 1015 1012
f 962 997 966
f 1011 963 1001
f 957 978 982
f 1005 1010 1014
f 972 1010 1005
f 969 1015 970
f 964 1011 1009
f 1012 1015 969
f 977 996 1003
f 1014 1010 1015
f 985 979 992
f 1015 1010 970
f 1007 967 953
f 1013 982 983
f 1016 1017 1018
f 1019 1020 1021
f 1017 1016 1022
f 1020 1019 1023
f 1024 1025 1023
f 1026 1027 1022
f 1023 1025 1028
f 1026 1022 1029
f 1030 1031 1032
f 1033 1034 1035
f 1036 1037 1032
f 1037 1030 1032
f 1038 1039 1035
f 994 1039 1038
f 1037 1040 1041
f 1034 1038 1035
f 1042 1033 1020
f 994 995 1039
f 951 992 1031
f 976 1036 1032
f 1040 1034 1033
f 1031 992 1032
f 1040 1033 1042
f 1037 1041 1030
f 1041 1043 1016
f 1037 1034 1040
f 1036 1034 1037
f 993 994 1038
f 1036 993 1038
f 1036 1038 1034
f 992 976 1032
f 1044 1045 1025
f 1046 1047 1026
f 976 993 1036
f 1041 1040 1043
f 1017 1048 1018
f 1043 1040 1042
f 1043 1042 1049
f 1050 1019 1021
f 1033 1035 1021
f 1051 1052 1048
f 781 804 1050
f 1053 1051 1017
f 804 808 1019
f 1026 1049 1054
f 808 819 1055
f 1056 1053 1057
f 1047 1058 1027
f 1059 1044 1024
f 1050 804 1019
f 1051 1048 1017
f 1049 1025 1054
f 1049 1026 1029
f 1057 1053 1017
f 808 1055 1019
f 1025 1049 1028
f 1030 1041 1018
f 781 1050 1060
f 1048 1052 1061
f 1019 1055 1023
f 1057 1017 1022
f 760 781 1060
f 1052 1062 1061
f 1044 1025 1024
f 1026 1047 1027
f 1031 1030 1063
f 1025 1045 1054
f 1046 1026 1054
f 1041 1016 1018
f 1049 1042 1028
f 837 1059 1064
f 1058 1065 1066
f 952 951 1067
f 995 827 1068
f 1020 1033 1021
f 1043 1049 1029
f 1035 1039 1069
f 1065 1056 1066
f 819 837 1064
f 1062 952 1067
f 827 760 1068
f 1061 1031 1063
f 1039 1060 1069
f 1021 1035 1069
f 1059 1024 1064
f 1027 1058 1066
f 1030 1018 1063
f 1039 995 1068
f 951 1031 1067
f 1024 1055 1064
f 1057 1027 1066
f 1022 1016 1029
f 1020 1023 1028
f 1042 1020 1028
f 1045 1046 1054
f 1016 1043 1029
f 1056 1057 1066
f 1055 819 1064
f 1018 1048 1063
f 1027 1057 1022
f 1055 1024 1023
f 1050 1021 1069
f 1060 1039 1068
f 1031 1061 1067
f 1048 1061 1063
f 1060 1050 1069
f 760 1060 1068
f 1061 1062 1067
f 1070 1071 1072
f 1073 1074 1071
f 1073 1075 1074
f 1076 1077 1078
f 1079 1080 1081
f 1081 1082 1079
f 1072 1083 1070
f 1084 1083 1085
f 1086 1082 1081
f 1085 1083 1087
f 1081 1088 1086
f 1078 1089 1076
f 1079 1085 1087
f 1087 1080 1079
f 1070 1090 1071
f 1071 1090 1073
f 1091 1077 1076
f 1075 1092 1074
f 1093 1094 1092
f 1092 1095 1093
f 1093 1095 1096
f 1096 1095 1097
f 1092 1094 1074
f 1070 1083 1098
f 1099 1100 1101
f 1102 1094 1093
f 1076 1089 1103
f 1096 1097 1104
f 1099 1101 1014
f 1101 1100 1105
f 1100 1106 1105
f 1107 1106 1108
f 1106 1078 1108
f 1097 1095 1109
f 1104 1097 1004
f 1075 1110 1092
f 1111 1094 1102
f 1105 1106 1107
f 1101 1105 1104
f 1112 1113 1114
f 1072 1071 1115
f 1012 1099 1014
f 758 1084 752
f 1005 1101 1104
f 1002 1097 1109
f 748 1086 747
f 1105 1096 1104
f 1116 1072 1115
f 1002 1109 1000
f 1116 1115 1111
f 1005 1104 1004
f 1014 1101 1005
f 751 1079 759
f 1107 1093 1096
f 1071 1074 1115
f 1105 1107 1096
f 1078 1112 1108
f 1117 1112 1114
f 1004 1097 1002
f 1107 1108 1102
f 1115 1094 1111
f 1107 1102 1093
f 1117 1111 1102
f 1109 1095 1110
f 1108 1117 1102
f 1118 1116 1111
f 1108 1112 1117
f 1117 1118 1111
f 1116 1087 1072
f 1074 1094 1115
f 1114 1081 1118
f 1117 1114 1118
f 1119 1091 1120
f 1110 1095 1092
f 1120 1076 1121
f 1121 1103 1122
f 851 1070 852
f 1123 1124 1119
f 840 1073 847
f 1125 1126 1123
f 833 1127 834
f 1091 1076 1120
f 1119 1124 1091
f 1121 1076 1103
f 1110 1128 1109
f 1126 1124 1123
f 1073 1129 1075
f 747 1130 756
f 1000 1128 1009
f 1130 1131 1126
f 1122 1132 1133
f 852 1098 772
f 1110 1134 1128
f 1084 1085 752
f 748 1082 1086
f 751 1085 1079
f 1079 1082 759
f 1100 1089 1106
f 1135 1131 1130
f 1086 1130 747
f 1109 1128 1000
f 1116 1080 1087
f 1128 1134 1127
f 1081 1080 1118
f 1099 1136 1100
f 1112 1077 1113
f 1103 1132 1122
f 1070 1098 852
f 851 1090 1070
f 1073 1090 847
f 1013 1137 1012
f 722 1138 758
f 840 1129 1073
f 1127 1129 834
f 1133 1137 1013
f 772 1138 722
f 1113 1088 1114
f 1132 1136 1099
f 756 1139 755
f 1009 1140 825
f 755 1139 1125
f 825 1140 833
f 752 1085 751
f 759 1082 748
f 1118 1080 1116
f 1135 1088 1113
f 1086 1135 1130
f 847 1090 851
f 1087 1083 1072
f 1106 1089 1078
f 834 1129 840
f 1098 1083 1084
f 1078 1077 1112
f 1130 1139 756
f 1128 1140 1009
f 1086 1088 1135
f 1100 1136 1089
f 1012 1137 1099
f 758 1138 1084
f 1126 1139 1130
f 1127 1140 1128
f 1127 1134 1129
f 1077 1141 1113
f 1114 1088 1081
f 1132 1137 1133
f 1098 1138 772
f 1113 1141 1131
f 1125 1139 1126
f 833 1140 1127
f 1113 1131 1135
f 1075 1134 1110
f 1124 1141 1091
f 1126 1131 1124
f 1099 1137 1132
f 1084 1138 1098
f 1103 1136 1132
f 1131 1141 1124
f 1129 1134 1075
f 1089 1136 1103
f 1091 1141 1077
f 1142 1143 1144
f 1143 1145 1144
f 1146 1147 1148
f 1149 1150 1151
f 1152 1142 1153
f 1154 1147 1146
f 1155 1156 1157
f 1147 1154 1158
f 1155 1157 1159
f 1160 1159 1161
f 1065 1058 1162
f 1047 1163 1164
f 1165 1166 1167
f 788 1150 1149
f 1047 1046 1163
f 788 787 1168
f 1169 1170 1171
f 1172 1173 1174
f 1175 1169 1171
f 1150 788 1168
f 1159 1157 1176
f 1177 1178 1169
f 1179 1142 1152
f 1180 1181 1182
f 1157 1183 1184
f 1173 1172 1185
f 1155 1186 1156
f 1157 1184 1187
f 1163 1188 1164
f 1155 1189 1186
f 1181 1180 1190
f 1177 1191 1178
f 1166 1192 1167
f 1193 1194 1195
f 1196 1197 1198
f 1143 1199 1200
f 1201 1202 1175
f 1157 1156 1183
f 1187 1154 1203
f 787 798 1204
f 1160 1205 1200
f 1206 1207 1208
f 798 796 1209
f 1163 1046 1182
f 796 824 1210
f 1196 1198 1211
f 169 1212 1213
f 1197 1214 1198
f 1192 787 1204
f 1045 1044 1180
f 831 788 1149
f 936 1142 1215
f 1180 1044 1216
f 1159 1217 1161
f 1218 1219 1220
f 936 945 1142
f 1199 1189 1221
f 1207 1222 1208
f 1187 1184 1154
f 1179 1223 1215
f 1045 1180 1182
f 1173 1210 1174
f 1209 1224 1204
f 1180 1216 1225
f 1202 1201 1223
f 1189 1226 1186
f 1227 1193 1195
f 1194 1178 1195
f 1228 1219 1218
f 837 831 1229
f 1147 1158 1230
f 1188 1162 1164
f 1220 1219 1208
f 900 1222 1207
f 903 921 1170
f 1175 1231 1169
f 906 902 1227
f 1232 1172 1211
f 900 901 1222
f 1210 824 1207
f 1172 1196 1211
f 1233 1234 1191
f 1186 1226 1235
f 1213 1236 1232
f 1159 1160 1221
f 1217 1159 1176
f 299 169 1213
f 1237 1233 1191
f 1177 1238 1191
f 1217 1239 1161
f 1044 1059 1216
f 1059 837 1229
f 1222 1220 1208
f 1058 1047 1164
f 1167 1192 1240
f 1223 1201 1215
f 1241 1231 1202
f 1142 1179 1215
f 1227 1228 1218
f 1161 1239 1242
f 1243 1244 1167
f 1226 1188 1163
f 824 900 1207
f 1169 1178 1194
f 1182 1181 1235
f 798 1209 1204
f 1203 1154 1146
f 1163 1182 1235
f 1214 433 1198
f 434 1245 1198
f 1213 1212 1236
f 1246 1197 1196
f 1158 1247 1151
f 420 1214 1237
f 400 1238 1248
f 1237 1214 1233
f 1248 1231 1241
f 1238 407 1237
f 1228 1227 1195
f 1238 1237 1191
f 1248 1238 1177
f 1240 1192 1204
f 1249 1212 1250
f 484 348 1251
f 1202 1231 1175
f 1156 1186 1181
f 1191 1234 1178
f 903 1170 1193
f 1224 1240 1204
f 1227 902 1193
f 1206 1196 1172
f 80 79 1252
f 1250 1253 1243
f 905 1218 1220
f 1217 1176 1254
f 109 124 1255
f 420 433 1214
f 906 1227 1218
f 434 299 1245
f 348 1256 1251
f 400 407 1238
f 1233 1214 1197
f 433 434 1198
f 401 1248 1241
f 401 400 1248
f 407 420 1237
f 1192 1166 1168
f 1151 1247 1257
f 1224 1173 1258
f 1207 1206 1174
f 1184 1183 1247
f 1246 1196 1206
f 1201 1175 1259
f 1233 1260 1234
f 1232 1236 1185
f 1170 1169 1194
f 169 146 1212
f 1261 1161 1242
f 831 1149 1229
f 1157 1187 1176
f 1260 1197 1246
f 1183 1156 1190
f 1170 921 1171
f 1262 362 1241
f 1209 1210 1173
f 1212 146 1250
f 902 903 1193
f 1253 1244 1243
f 363 362 1262
f 1222 901 1220
f 1216 1059 1229
f 1147 1263 1148
f 1245 299 1213
f 905 906 1218
f 796 1210 1209
f 1264 1255 1254
f 1201 936 1215
f 1224 1209 1173
f 79 1264 1252
f 1225 1183 1190
f 362 401 1241
f 1233 1197 1260
f 1251 1179 1152
f 1260 1246 1219
f 901 905 1220
f 1229 1149 1257
f 1249 1250 1243
f 1226 1163 1235
f 363 1262 1256
f 146 142 1250
f 1046 1045 1182
f 1154 1184 1158
f 1225 1216 1257
f 1256 1262 1223
f 124 1239 1255
f 348 363 1256
f 1244 1165 1167
f 787 1192 1168
f 1231 1177 1169
f 1252 1203 1146
f 452 484 1265
f 1162 1058 1164
f 1216 1229 1257
f 1184 1247 1158
f 1236 1212 1249
f 1248 1177 1231
f 108 191 1266
f 142 108 1253
f 1234 1260 1228
f 79 109 1264
f 1180 1225 1190
f 1176 1187 1254
f 1247 1225 1257
f 142 1253 1250
f 1247 1183 1225
f 1155 1159 1221
f 46 80 1267
f 1262 1241 1202
f 1245 1232 1211
f 415 452 1268
f 1251 1256 1179
f 1221 1160 1200
f 1198 1245 1211
f 1203 1264 1254
f 1263 1266 1269
f 1156 1181 1190
f 1187 1203 1254
f 1245 1213 1232
f 1193 1170 1194
f 191 46 1269
f 1270 1268 1144
f 1260 1219 1228
f 114 145 1205
f 151 114 1261
f 1262 1202 1223
f 124 141 1239
f 108 1266 1253
f 1236 1258 1185
f 1158 1151 1230
f 1210 1207 1174
f 1265 484 1251
f 1219 1246 1208
f 1266 191 1269
f 1206 1172 1174
f 1252 1264 1203
f 1234 1228 1195
f 1253 1266 1244
f 141 151 1242
f 1267 80 1252
f 1243 1167 1240
f 46 1267 1269
f 1264 109 1255
f 1178 1234 1195
f 1261 1160 1161
f 1244 1266 1263
f 1255 1239 1217
f 452 1265 1268
f 921 931 1171
f 1165 1263 1147
f 1149 1151 1257
f 1179 1256 1223
f 1165 1147 1166
f 1151 1150 1230
f 1172 1232 1185
f 1265 1251 1152
f 1258 1173 1185
f 151 1261 1242
f 1239 141 1242
f 1267 1252 1146
f 1258 1249 1240
f 1147 1230 1166
f 1244 1263 1165
f 1255 1217 1254
f 1175 1171 1259
f 1181 1186 1235
f 1268 1153 1144
f 1236 1249 1258
f 403 415 1270
f 1246 1206 1208
f 1249 1243 1240
f 1265 1152 1153
f 1263 1269 1148
f 294 404 1145
f 1269 1267 1148
f 1261 114 1205
f 1270 415 1268
f 1267 1146 1148
f 1265 1153 1268
f 1224 1258 1240
f 1171 931 1259
f 1230 1150 1166
f 1261 1205 1160
f 1166 1150 1168
f 1199 1221 1200
f 931 1201 1259
f 945 1143 1142
f 145 294 1145
f 931 936 1201
f 145 1145 1205
f 404 403 1145
f 1145 403 1270
f 1145 1143 1200
f 1189 1155 1221
f 1145 1270 1144
f 1205 1145 1200
f 1153 1142 1144
f 1271 1272 983
f 1007 1271 983
f 1273 1274 1275
f 1275 1272 1271
f 746 1276 1277
f 746 1277 740
f 1278 1279 1273
f 1275 1271 1273
f 1277 1276 1280
f 1281 1280 1278
f 1277 1280 1281
f 1282 1281 1283
f 740 1282 739
f 1281 1273 1283
f 1123 1280 1125
f 755 1276 746
f 1119 1278 1123
f 1278 1273 1281
f 1133 1272 1122
f 1122 1275 1121
f 1280 1276 1125
f 1273 1271 1283
f 1125 1276 755
f 1121 1274 1120
f 1120 1279 1119
f 1278 1280 1123
f 1277 1282 740
f 1275 1274 1121
f 1122 1272 1275
f 1119 1279 1278
f 1277 1281 1282
f 1274 1279 1120
f 1273 1279 1274
f 739 1282 1283
f 1283 1271 1007
f 983 1272 1013
f 1013 1272 1133
f 1284 1285 1286
f 1287 1288 1289
f 730 726 1290
f 574 580 1291
f 1284 1286 1292
f 980 998 1293
f 1189 1199 1294
f 989 1287 1289
f 1291 580 1294
f 730 1290 1293
f 1290 726 1295
f 574 1291 1296
f 1199 1291 1294
f 1290 980 1293
f 1293 998 1289
f 1189 1294 1297
f 1298 1297 1299
f 636 635 1300
f 700 729 1301
f 1285 1284 1302
f 1303 1188 1298
f 1301 1293 1289
f 1294 1300 1297
f 1162 1188 1303
f 1297 1300 1299
f 729 730 1293
f 580 636 1294
f 1304 1305 1306
f 700 1288 1305
f 1298 1307 1292
f 1308 1051 1285
f 1286 1303 1292
f 1052 1051 1308
f 1303 1298 1292
f 984 950 1309
f 1288 1301 1289
f 1301 729 1293
f 636 1300 1294
f 1304 1306 1302
f 1051 1053 1285
f 700 1301 1288
f 1285 1053 1286
f 1053 1056 1286
f 1052 1308 1310
f 953 980 1290
f 1199 1143 1291
f 726 739 1295
f 641 574 1296
f 739 1283 1295
f 942 641 1296
f 1062 1052 1310
f 1188 1226 1298
f 635 699 1311
f 1309 1310 1306
f 989 984 1287
f 700 1305 1312
f 1065 1162 1313
f 1306 1308 1302
f 1056 1065 1313
f 1284 1311 1304
f 1307 1298 1299
f 1298 1226 1297
f 950 952 1314
f 635 1311 1307
f 1284 1304 1302
f 952 1062 1314
f 1310 1308 1306
f 1307 1311 1284
f 1305 1304 1312
f 699 700 1312
f 1309 1306 1315
f 1300 635 1299
f 1162 1303 1313
f 1291 1143 1316
f 953 1290 1317
f 1304 1311 1312
f 1309 950 1314
f 1308 1285 1302
f 1303 1286 1313
f 984 1309 1287
f 1286 1056 1313
f 1310 1309 1314
f 1305 1288 1315
f 1283 1007 1317
f 945 942 1316
f 1311 699 1312
f 998 989 1289
f 1226 1189 1297
f 1007 953 1317
f 1143 945 1316
f 1062 1310 1314
f 1296 1291 1316
f 1290 1295 1317
f 1306 1305 1315
f 1288 1287 1315
f 1307 1284 1292
f 635 1307 1299
f 1287 1309 1315
f 942 1296 1316
f 1295 1283 1317
