v 3.75596309 -2.58147171 -4.93485174
v 3.66766079 -2.56931919 -4.97245143
v 3.66634899 -2.59690579 -4.85553954
v 3.57943091 -2.58854565 -4.90641029
v 4.80000000 -2.10000000 -4.30000000
v 4.90000000 -2.10000000 -4.30000000
v 4.82982773 -2.19827904 -4.30975391
v 3.76160919 -2.18606518 -5.29253709
v 3.82933631 -2.27721668 -5.26754064
v 3.86037127 -2.18457682 -5.29279485
v 4.55778299 -2.33308968 -4.35765489
v 4.55250157 -2.43401843 -4.42793591
v 4.46273589 -2.39140455 -4.39369545
v 3.73950342 -2.26210440 -5.27299277
v 4.46264678 -2.30026684 -4.34185898
v 4.45710243 -2.19143953 -4.30843229
v 4.53212410 -2.24695373 -4.32208306
v 4.10000000 -2.10000000 -5.30000000
v 4.03725082 -2.17899476 -5.29372039
v 4.15882424 -2.17825378 -5.29383838
v 4.92382198 -2.17700365 -4.30596514
v 4.09915908 -2.24589886 -5.27824003
v 4.80780530 -2.31532429 -5.25125985
v 4.72402118 -2.36555522 -5.22365130
v 4.81475796 -2.40738986 -5.19434943
v 4.91007377 -2.35229622 -5.23167884
v 4.37371072 -2.25963399 -4.32616776
v 3.75578870 -2.52946390 -4.54395164
v 3.68048182 -2.57552787 -4.64549030
v 3.66293654 -2.53291182 -4.54982534
v 3.77292009 -2.57269868 -4.63704002
v 3.75646628 -2.46803088 -4.46154281
v 3.67373011 -2.47824878 -4.47300175
v 4.02260797 -2.25778381 -4.32554845
v 3.94332172 -2.30297710 -4.34305329
v 3.94799664 -2.19513545 -4.30913419
v 4.64410321 -2.39076808 -4.39323972
v 3.68783104 -2.31004272 -4.34625772
v 3.78365067 -2.26850360 -4.32924897
v 3.76169742 -2.34983825 -4.36689395
v 3.66809643 -2.59754366 -4.75049941
v 3.75300828 -2.59886446 -4.83367863
v 3.75674728 -2.59423224 -4.72427359
v 3.86805108 -2.26171014 -4.32687229
v 3.68756243 -2.40147754 -4.40111243
v 5.00000000 -2.57552826 -4.95450850
v 4.90815372 -2.55780193 -5.00104077
v 4.90760189 -2.59059650 -4.89651464
v 3.69979904 -2.23827623 -4.31950059
v 4.75000000 -2.18627717 -5.29250000
v 4.65450836 -2.18605990 -5.29253801
v 4.71312627 -2.27287604 -5.26916295
v 4.81572964 -2.57877974 -4.94411788
v 3.66047943 -2.19535180 -5.29082383
v 3.66440442 -2.30146588 -5.25761501
v 4.37036800 -2.27973565 -5.26657807
v 4.45148446 -2.23511254 -5.28139859
v 4.35978865 -2.18762351 -5.29226225
v 3.58343466 -2.25503579 -5.27535661
v 4.90951714 -2.43456530 -5.17157241
v 3.95185733 -2.18383859 -5.29292098
v 4.00686980 -2.27127571 -5.26974954
v 3.77383078 -2.40968715 -4.40745208
v 4.81575065 -2.48172898 -5.12292876
v 4.91052245 -2.50554005 -5.09246755
v 4.61614897 -2.25417186 -5.27563751
v 3.91516771 -2.25365843 -5.27580362
v 3.75014845 -2.33600313 -5.24079760
v 3.67137429 -2.39029506 -5.20709799
v 3.58832207 -2.50298927 -5.09597238
v 3.58132940 -2.55554146 -5.00611156
v 3.67117033 -2.52480904 -5.06369923
v 4.81792674 -2.53840967 -5.04040999
v 4.73025414 -2.43355063 -4.42751648
v 4.64076251 -2.47002951 -4.46372903
v 3.75843625 -2.41767081 -5.18611560
v 4.20024660 -2.27277224 -5.26920119
v 4.25000000 -2.18627717 -5.29250000
v 5.00000000 -2.59726095 -4.74773577
v 5.00000000 -2.59726095 -4.85226423
v 4.90741116 -2.59997652 -4.79515442
v 4.45030364 -2.15714976 -5.29672317
v 4.73054896 -2.35065357 -4.36736529
v 4.65661456 -2.17502800 -4.30566125
v 4.71418625 -2.25365357 -4.32419481
v 4.61288056 -2.24974281 -4.32294959
v 4.81751371 -2.57470856 -4.64299113
v 4.72931007 -2.55533149 -4.59342500
v 4.81921852 -2.53199151 -4.54823953
v 4.90897455 -2.55638715 -4.59576785
v 4.46290773 -2.46994506 -4.46363613
v 4.37471054 -2.50247009 -4.50332202
v 4.37361016 -2.43346829 -4.42744276
v 4.82059681 -2.30430659 -4.34364617
v 4.29467196 -2.25201884 -5.27633000
v 3.75578497 -2.54301978 -5.03180481
v 3.75969145 -2.48777598 -5.11564187
v 4.28586173 -2.46977113 -4.46344493
v 4.28604819 -2.53050472 -4.54570551
v 4.29370377 -2.21458684 -4.31330723
v 4.30000000 -2.10000000 -4.30000000
v 4.37029470 -2.17661912 -4.30590536
v 4.28417014 -2.32852087 -5.24472262
v 4.19610926 -2.36996738 -5.22085343
v 4.81995287 -2.39384703 -4.39545838
v 4.10658051 -2.32651955 -5.24574532
v 4.10711996 -2.41178827 -5.19088115
v 5.00000000 -2.47157241 -5.13456530
v 5.00000000 -2.57552826 -4.64549150
v 4.90723599 -2.58878071 -4.69467471
v 4.91161198 -2.25757905 -4.32548041
v 4.90965918 -2.35021528 -4.36711166
v 4.19780205 -2.50195450 -4.50262384
v 5.00000000 -2.30336832 -4.34322727
v 4.19555340 -2.44989304 -5.15717623
v 4.54693438 -2.36914832 -5.22137772
v 4.45811109 -2.32551748 -5.24625314
v 4.45931876 -2.41103046 -5.19148442
v 4.10971238 -2.30930428 -4.34591662
v 4.02406178 -2.35067258 -4.36737631
v 3.84282654 -2.37045961 -5.22053728
v 3.92208754 -2.32778491 -5.24510003
v 4.90967950 -2.50405277 -4.50548114
v 5.00000000 -2.53301270 -4.55000000
v 3.58627147 -2.43467019 -5.17147795
v 3.67490230 -2.46499850 -5.14172517
v 4.10767199 -2.54136843 -5.03493385
v 4.19570654 -2.51497505 -5.07891882
v 4.10741153 -2.48448141 -5.11964676
v 3.58978982 -2.35069121 -4.36738710
v 3.50000000 -2.30336832 -5.25677273
v 3.59048286 -2.35000000 -5.23301270
v 3.50000000 -2.47157241 -5.13456530
v 4.89564761 -2.25282528 -5.27607188
v 3.59048286 -2.50450850 -4.50610737
v 3.50000000 -2.47157241 -4.46543470
v 3.58638557 -2.43411351 -4.42802129
v 4.19782960 -2.55393557 -4.59037534
v 4.11003785 -2.39339020 -4.39512695
v 4.02184965 -2.43268944 -4.42674708
v 5.00000000 -2.47157241 -4.46543470
v 5.00000000 -2.39389263 -5.20450850
v 4.90969621 -2.43442118 -4.42829787
v 4.54818389 -2.44872111 -5.15832051
v 5.00000000 -2.20395585 -4.31092620
v 5.00000000 -2.30336832 -5.25677273
v 3.59048286 -2.60000000 -4.80000000
v 3.50000000 -2.59726095 -4.74773577
v 3.58582420 -2.58894369 -4.69543389
v 4.01925854 -2.51524218 -5.07852097
v 5.00000000 -2.39389263 -4.39549150
v 3.50000000 -2.59726095 -4.85226423
v 3.50000000 -2.53301270 -4.55000000
v 3.58642198 -2.55700780 -4.59716049
v 3.50000000 -2.20395585 -5.28907380
v 3.50000000 -2.39389263 -4.39549150
v 3.93391077 -2.39255715 -4.39452459
v 3.84610276 -2.34920809 -4.36653105
v 4.81962963 -2.47092247 -4.46471427
v 3.50000000 -2.30336832 -4.34322727
v 3.50000000 -2.39389263 -5.20450850
v 4.28363986 -2.48427616 -5.11989348
v 4.28338921 -2.41168763 -5.19096141
v 4.63645284 -2.40989184 -5.19238635
v 3.93061393 -2.41198421 -5.19072478
v 4.28633221 -2.30726489 -4.34498213
v 4.01880871 -2.45001979 -5.15705203
v 4.01867606 -2.37057327 -5.22046416
v 5.00000000 -2.20395585 -5.28907380
v 4.73001753 -2.50327743 -4.50442038
v 3.50000000 -2.53301270 -5.05000000
v 4.55221042 -2.50285384 -4.50384331
v 4.10972261 -2.46924182 -4.46286430
v 4.37098651 -2.37008753 -5.22077634
v 4.37159216 -2.44948875 -5.15757183
v 3.93075966 -2.48476191 -5.11930905
v 4.22366728 -2.17209449 -4.30522491
v 4.19848535 -2.35178265 -4.36802142
v 4.10938991 -2.52999979 -4.54485263
v 4.02147027 -2.50146398 -4.50196196
v 3.50000000 -2.57552826 -4.64549150
v 4.63203024 -2.32690041 -5.24555157
v 4.64078565 -2.53122407 -4.54692728
v 4.19774725 -2.43325920 -4.42725571
v 4.10913849 -2.57291676 -4.63767396
v 4.02092607 -2.55367344 -4.58980863
v 4.19613507 -2.56294767 -4.98889007
v 3.50000000 -2.57552826 -4.95450850
v 4.28627328 -2.57323611 -4.63860736
v 4.19753209 -2.58715235 -4.68738300
v 5.00000000 -2.53301270 -5.05000000
v 4.10811284 -2.57990706 -4.94031827
v 4.19657528 -2.59167745 -4.89084762
v 4.55184873 -2.55473590 -4.59211719
v 4.28565426 -2.39390526 -4.39550069
v 4.46349640 -2.53092874 -4.54642473
v 4.37336683 -2.35169570 -4.36797075
v 4.46313374 -2.57348797 -4.63934776
v 4.19711708 -2.59987714 -4.78891628
v 4.28582816 -2.59616846 -4.73821926
v 4.28497298 -2.59835860 -4.84048094
v 4.10849839 -2.59841655 -4.83976103
v 4.63693083 -2.48322714 -5.12114943
v 4.28405407 -2.54112567 -5.03538935
v 4.37493264 -2.55445876 -4.59151202
v 4.02041397 -2.58696131 -4.68655977
v 4.37202438 -2.51467330 -5.07936724
v 3.93349317 -2.46869821 -4.46226989
v 4.37373592 -2.59989271 -4.78964251
v 4.37448250 -2.58733973 -4.68819664
v 3.84577122 -2.44984855 -5.15721980
v 4.46005618 -2.48380584 -5.12045760
v 4.54497327 -2.18759417 -5.29226747
v 4.54220821 -2.28417203 -5.26484477
v 4.54870293 -2.51425031 -5.07999408
v 4.01951836 -2.56317821 -4.98832404
v 3.84596103 -2.43505117 -4.42886564
v 4.46250951 -2.59625565 -4.73892357
v 4.54915995 -2.56255797 -4.98984236
v 4.46054365 -2.54087913 -5.03585078
v 4.46084228 -2.57962628 -4.94127503
v 3.93092740 -2.54163522 -5.03443193
v 3.93113707 -2.58013041 -4.93955210
v 3.84246496 -2.59198903 -4.88914482
v 3.93139679 -2.59849988 -4.83870235
v 4.72531278 -2.44810958 -5.15891464
v 4.10885397 -2.59606805 -4.73741816
v 4.37244319 -2.56275138 -4.98937042
v 4.55132566 -2.58751221 -4.68895116
v 4.54972953 -2.59150171 -4.89179362
v 4.37299054 -2.59153358 -4.89162280
v 4.72824038 -2.58776006 -4.69004490
v 4.46181238 -2.59831372 -4.84102968
v 4.28444914 -2.57970835 -4.94099610
v 4.10000000 -2.10000000 -4.30000000
v 4.20000000 -2.10000000 -4.30000000
v 4.15000000 -2.18627717 -4.30750000
v 4.64019508 -2.57376753 -4.64017408
v 3.93212223 -2.57265801 -4.63692210
v 3.84221488 -2.56338475 -4.98781527
v 4.55062955 -2.59990167 -4.79008445
v 4.63812174 -2.57946128 -4.94183399
v 4.63882446 -2.59829831 -4.84121645
v 4.01984072 -2.59181325 -4.89010954
v 4.72742144 -2.59140354 -4.89231770
v 4.72775616 -2.59991373 -4.79071246
v 4.40000000 -2.10000000 -4.30000000
v 4.50000000 -2.10000000 -4.30000000
v 4.30000000 -2.10000000 -5.30000000
v 4.20000000 -2.10000000 -5.30000000
v 4.64952641 -2.31681860 -4.34945622
v 3.90000000 -2.10000000 -4.30000000
v 4.00000000 -2.10000000 -4.30000000
v 3.84266684 -2.59982010 -4.78658838
v 3.84706307 -2.51586084 -5.07759640
v 4.60000000 -2.10000000 -5.30000000
v 4.50000000 -2.10000000 -5.30000000
v 4.81671848 -2.59823851 -4.84193312
v 3.80000000 -2.10000000 -4.30000000
v 3.84663430 -2.18386280 -4.30708314
v 4.00000000 -2.10000000 -5.30000000
v 3.90000000 -2.10000000 -5.30000000
v 4.60000000 -2.10000000 -4.30000000
v 4.70000000 -2.10000000 -4.30000000
v 3.93287821 -2.52957251 -4.54413390
v 3.84479549 -2.50133521 -4.50178859
v 4.02014734 -2.59985799 -4.78808395
v 3.93166273 -2.59593914 -4.73640463
v 4.70000000 -2.10000000 -5.30000000
v 4.72589303 -2.51392393 -5.08047635
v 4.40000000 -2.10000000 -5.30000000
v 3.70000000 -2.10000000 -4.30000000
v 3.74957723 -2.18061043 -4.30654082
v 4.63754751 -2.54053012 -5.03650204
v 4.72666092 -2.56223932 -4.99061693
v 3.60000000 -2.10000000 -4.30000000
v 3.65432233 -2.17939776 -4.30634425
v 4.80000000 -2.10000000 -5.30000000
v 3.80000000 -2.10000000 -5.30000000
v 3.70000000 -2.10000000 -5.30000000
v 3.60020951 -2.25574209 -4.32487433
v 3.84742011 -2.55309826 -4.58857161
v 4.81679242 -2.59662196 -4.74197733
v 3.84667768 -2.58644933 -4.68438403
v 4.63944213 -2.59632168 -4.73946246
v 3.50000000 -2.20395585 -4.31092620
v 4.19058573 -2.25657067 -4.32514673
v 4.90000000 -2.10000000 -5.30000000
v 4.84315366 -2.17799284 -5.29387966
v 3.60000000 -2.10000000 -5.30000000
v 4.55618757 -2.16962152 -4.30487088
v 4.09811295 -2.23726709 -4.31921133
v 4.05117454 -2.17693354 -4.30595422
v 5.00000000 -2.10000000 -4.30000000
v 4.80089584 -2.23937760 -5.28018110
v 4.73965183 -2.16878001 -4.30475328
v 3.50000000 -2.10000000 -5.30000000
v 3.57440267 -2.17540509 -5.29428137
v 5.00000000 -2.10000000 -5.30000000
v 4.92540198 -2.17277195 -5.29467590
v 3.50000000 -2.10000000 -4.30000000
v 3.57309772 -2.17209683 -4.30522526
v 5.00000000 -5.00000000 -1.80000000
v 4.66666667 -4.74739208 -1.71014389
v 4.33333333 -5.00000000 -1.80000000
v 1.00000000 -4.49478416 -1.62028779
v 1.33333333 -4.74739208 -1.71014389
v 1.66666667 -4.49478416 -1.62028779
v 3.66666667 -4.49478416 -1.62028779
v 4.00000000 -4.74739208 -1.71014389
v 4.33333333 -4.49478416 -1.62028779
v 2.33333333 -5.00000000 -1.80000000
v 2.00000000 -4.74739208 -1.71014389
v 1.66666667 -5.00000000 -1.80000000
v 2.33333333 -4.49478416 -1.62028779
v 1.00000000 -5.00000000 -1.80000000
v 3.66666667 -5.00000000 -1.80000000
v 5.00000000 -4.49478416 -1.62028779
v 2.66666667 -4.74739208 -1.71014389
v 3.00000000 -4.49478416 -1.62028779
v 3.33333333 -4.74739208 -1.71014389
v 3.00000000 -5.00000000 -1.80000000
v 3.33855494 -5.00000000 -5.33528581
v 3.36348916 -5.00000000 -4.59020998
v 2.78985580 -5.00000000 -4.87855179
v 3.83089205 -5.00000000 -4.90040274
v 3.30500505 -5.00000000 -2.33241681
v 2.90114132 -5.00000000 -2.91999414
v 3.66355856 -5.00000000 -2.80478467
v 3.42548013 -5.00000000 -3.35361151
v 3.99052911 -5.00000000 -4.23937795
v 4.41130149 -5.00000000 -4.88768861
v 4.56070109 -5.00000000 -4.25089474
v 4.40167485 -5.00000000 -3.62740714
v 1.00000000 -5.00000000 -3.90000000
v 1.60057798 -5.00000000 -4.24052386
v 1.61252450 -5.00000000 -3.54537030
v 2.65647189 -5.00000000 -2.35686954
v 2.20534557 -5.00000000 -3.89497704
v 2.80977845 -5.00000000 -3.56117334
v 2.24712615 -5.00000000 -3.25328650
v 2.22407050 -5.00000000 -4.54569808
v 1.66640897 -5.00000000 -2.83536508
v 1.00000000 -5.00000000 -3.20000000
v 2.80704953 -5.00000000 -4.23013421
v 1.00000000 -5.00000000 -2.50000000
v 5.00000000 -5.00000000 -5.30000000
v 5.00000000 -5.00000000 -4.60000000
v 1.00000000 -5.00000000 -4.60000000
v 5.00000000 -5.00000000 -3.90000000
v 5.00000000 -5.00000000 -3.20000000
v 3.38304636 -5.00000000 -3.92010318
v 1.66539489 -5.00000000 -4.96550482
v 2.26711441 -5.00000000 -5.07251963
v 3.00000000 -5.00000000 -6.00000000
v 3.66666667 -5.00000000 -6.00000000
v 1.66666667 -5.00000000 -6.00000000
v 2.33333333 -5.00000000 -6.00000000
v 2.01185735 -5.00000000 -5.49810064
v 3.98913776 -5.00000000 -2.32105574
v 3.85886082 -5.00000000 -3.69833362
v 2.64439350 -5.00000000 -5.47474280
v 1.00000000 -5.00000000 -5.30000000
v 5.00000000 -5.00000000 -2.50000000
v 4.38853406 -5.00000000 -2.86672831
v 2.02597764 -5.00000000 -2.30507018
v 4.33333333 -5.00000000 -6.00000000
v 3.97525666 -5.00000000 -5.43693531
v 2.31812898 -5.00000000 -2.73399267
v 1.48923944 -5.00000000 -2.28968460
v 5.00000000 -5.00000000 -6.00000000
v 4.50462712 -5.00000000 -5.49567662
v 3.95415034 -5.00000000 -3.24905412
v 1.00000000 -5.00000000 -6.00000000
v 1.47715460 -5.00000000 -5.52458768
v 4.54220103 -5.00000000 -2.25755681
v 1.00000000 -1.16853039 -5.55557023
v 1.00000000 -1.29091875 -5.30528716
v 1.00000000 -1.07612047 -5.38268343
v 1.00000000 -4.38086415 -3.39923529
v 1.00000000 -4.36121568 -4.24670126
v 1.00000000 -1.38189283 -5.52028652
v 1.00000000 -1.00000000 -4.16515139
v 1.00000000 -1.28195677 -4.33534874
v 1.00000000 -1.56242358 -3.89855556
v 1.00000000 -1.18863116 -5.10485324
v 1.00000000 -1.44783464 -5.10080265
v 1.00000000 -1.22168131 -4.84501663
v 1.00000000 -3.78125314 -3.78393567
v 1.00000000 -2.94353952 -5.28260167
v 1.00000000 -3.48101375 -5.09547156
v 1.00000000 -2.98338596 -4.81706557
v 1.00000000 -1.69250075 -4.92089798
v 1.00000000 -1.66656162 -5.27503056
v 1.00000000 -1.97261795 -5.16426845
v 1.00000000 -2.03421892 -4.73259510
v 1.00000000 -2.43896921 -5.06496247
v 1.00000000 -1.60822286 -4.49069895
v 1.00000000 -2.05634877 -4.19260471
v 1.00000000 -2.68653448 -3.91300165
v 1.00000000 -3.33266662 -4.02621206
v 1.00000000 -3.19591723 -3.49635936
v 1.00000000 -2.35332802 -5.72179014
v 1.00000000 -2.03480887 -5.64521932
v 1.00000000 -2.11798129 -5.83893438
v 1.00000000 -2.19688944 -5.45071836
v 1.00000000 -2.97090338 -4.37049532
v 1.00000000 -2.63213680 -3.26311292
v 1.00000000 -1.44578589 -4.74882019
v 1.00000000 -3.45449414 -4.62487806
v 1.00000000 -1.87440901 -5.46705074
v 1.00000000 -3.63613183 -6.00000000
v 1.00000000 -3.32138647 -5.58416483
v 1.00000000 -3.01530455 -6.00000000
v 1.00000000 -3.69910574 -3.12783884
v 1.00000000 -4.16001738 -2.68617123
v 1.00000000 -2.78390280 -5.67131166
v 1.00000000 -2.10717262 -3.59748730
v 1.00000000 -2.56271069 -6.00000000
v 1.00000000 -1.60363312 -5.52717807
v 1.00000000 -2.49943051 -4.50257107
v 1.00000000 -4.31806591 -6.00000000
v 1.00000000 -3.96188611 -5.41636867
v 1.00000000 -3.61466039 -2.49975119
v 1.00000000 -1.14372127 -5.24697854
v 1.00000000 -3.84258455 -4.30170994
v 1.00000000 -3.13528244 -2.89672776
v 1.00000000 -2.23596259 -6.00000000
v 1.00000000 -2.53756818 -5.43694113
v 1.00000000 -4.46245628 -4.97505648
v 1.00000000 -4.57908539 -2.19913567
v 1.00000000 -4.06841356 -2.07372106
v 1.00000000 -1.61731657 -5.92387953
v 1.00000000 -1.61090251 -5.72795021
v 1.00000000 -1.44442977 -5.83146961
v 1.00000000 -4.66445711 -2.85000000
v 1.00000000 -1.29289322 -5.70710678
v 1.00000000 -4.50627147 -5.50118105
v 1.00000000 -3.94065564 -4.78364354
v 1.00000000 -1.46639326 -5.66335189
v 1.00000000 -2.00000000 -6.00000000
v 1.00000000 -1.91909527 -5.82143947
v 1.00000000 -1.80490968 -5.98078528
v 1.00000000 -1.79780082 -5.66810629
v 1.00000000 -1.00000000 -4.52581147
v 1.00000000 -1.26551930 -4.59383422
v 1.00000000 -1.47816819 -5.34571699
v 1.00000000 -1.01921472 -5.19509032
v 1.00000000 -1.00000000 -5.00000000
v 1.00000000 -1.74395615 -5.81979994
v 3.75376236 -1.61748216 -4.66894072
v 3.66713931 -1.62998984 -4.62944079
v 3.66649024 -1.60318725 -4.74363431
v 4.83000859 -2.00192289 -5.29028653
v 3.59048286 -1.69549150 -5.09389263
v 3.66625798 -1.77155870 -5.17699644
v 3.68490331 -1.70203902 -5.10269962
v 3.57429322 -1.76563360 -5.17175141
v 3.59303583 -1.93844333 -5.27318014
v 3.70265987 -1.93754458 -5.27287233
v 3.67516043 -1.85758495 -5.23730418
v 4.55793771 -1.86804244 -5.24293983
v 4.55240087 -1.76708104 -5.17304821
v 4.46277738 -1.81004947 -5.20734345
v 4.92382198 -2.02299635 -5.29403486
v 4.46292309 -1.90126429 -5.25880728
v 4.45738866 -2.00941266 -5.29172547
v 4.53208001 -1.95398060 -5.27820324
v 3.58812612 -1.83781030 -5.22574237
v 3.58633904 -1.76767884 -4.42641915
v 3.67813485 -1.73258119 -4.46087846
v 3.66771260 -1.81503865 -4.38915084
v 3.57921527 -1.61140645 -4.69380987
v 4.03670462 -2.02131745 -4.30622975
v 4.15720758 -2.02080438 -4.30631178
v 4.72287738 -1.75328519 -4.43973782
v 4.81609796 -1.72030148 -4.47468625
v 4.81860766 -1.80446781 -4.39668781
v 4.90996472 -1.76365689 -4.43003606
v 4.37440026 -1.94241473 -5.27451752
v 3.95092949 -2.01700270 -5.29306333
v 4.00900778 -1.93551048 -5.27216861
v 3.90243190 -1.93437634 -5.27177198
v 4.09701121 -1.95172807 -4.32249038
v 3.76323051 -1.78217342 -4.41401261
v 4.64414239 -1.81017923 -5.20743579
v 4.72124098 -1.83167043 -4.37810044
v 4.81100058 -1.88639803 -4.34792235
v 4.71221408 -1.92690009 -4.33091960
v 3.95033523 -1.87552737 -5.24677963
v 4.90800345 -1.64248665 -4.59830336
v 4.81417051 -1.62111022 -4.65624820
v 4.90673900 -1.60938154 -4.70359704
v 3.95062018 -2.01545409 -4.30719985
v 4.00432702 -1.92639774 -4.33110528
v 5.00000000 -1.62447174 -4.64549150
v 4.90686582 -1.69311052 -4.50941275
v 4.19762986 -1.92535608 -4.33149226
v 4.25107458 -2.01596328 -4.30711276
v 4.75000000 -2.01372283 -4.30750000
v 4.65316192 -2.01392086 -4.30746535
v 4.81534769 -1.66096122 -4.56074083
v 4.36640830 -1.91820987 -4.33421856
v 4.44994149 -1.96360547 -4.31896307
v 4.35861453 -2.01199610 -4.30780561
v 3.66881202 -1.60230405 -4.84794519
v 3.75150962 -1.60088275 -4.77030207
v 3.75633913 -1.60620852 -4.87854919
v 3.91522496 -1.94315737 -4.32523649
v 5.00000000 -1.60273905 -4.85226423
v 5.00000000 -1.60273905 -4.74773577
v 4.90708911 -1.60002343 -4.80484077
v 3.75946864 -1.67421995 -5.06212849
v 3.76413556 -1.63023601 -4.97123607
v 3.67183268 -1.65699114 -5.03182568
v 4.61350939 -1.94596992 -4.32431656
v 4.73014986 -1.76706363 -5.17303267
v 4.64046945 -1.73075809 -5.13713560
v 4.29060419 -1.94560028 -4.32443641
v 3.58769391 -1.69688108 -4.50420423
v 3.58345669 -1.64479817 -4.59313943
v 3.67127435 -1.67562366 -4.53560499
v 4.81735847 -1.62528455 -4.95698802
v 4.72860062 -1.64496429 -5.00722572
v 4.81919216 -1.66811861 -5.05194934
v 3.65366262 -2.01729778 -5.29311291
v 4.65690117 -2.02531496 -5.29439068
v 4.71434792 -1.94683828 -5.27596375
v 4.61300215 -1.95097100 -5.27727388
v 4.73079792 -1.85003936 -5.23303542
v 4.90986818 -1.64350063 -5.00398118
v 4.54334832 -2.01200351 -4.30780429
v 4.53954095 -1.91492227 -4.33551509
v 3.67478287 -1.62106048 -4.94358598
v 4.46261406 -1.73128376 -5.13771043
v 4.37424023 -1.69882234 -5.09842334
v 4.37351776 -1.76815637 -5.17400508
v 4.28559755 -1.73192695 -5.13841133
v 4.28538809 -1.67078188 -5.05646014
v 4.28041900 -1.86922651 -4.35644211
v 4.19270522 -1.82771638 -4.38064141
v 4.82092075 -1.89600272 -5.25649218
v 3.58623309 -1.85096234 -4.36643311
v 4.45000000 -2.04199793 -4.30337564
v 4.10281304 -1.87064278 -4.35570813
v 4.10373569 -1.78571644 -4.41112233
v 4.90952371 -1.69601740 -5.09461511
v 5.00000000 -1.66698730 -5.05000000
v 5.00000000 -1.62447174 -4.95450850
v 4.90951714 -1.61092620 -4.90395585
v 5.00000000 -1.89663168 -4.34322727
v 5.00000000 -1.99604415 -4.31092620
v 4.89877227 -1.94530776 -4.32453148
v 4.19735162 -1.69975289 -5.09967023
v 5.00000000 -1.72842759 -5.13456530
v 4.82005726 -1.80652233 -5.20480966
v 4.91018203 -1.84986090 -5.23293236
v 4.90958812 -1.76572665 -5.17183508
v 4.19235214 -1.74807813 -4.44482258
v 4.54341847 -1.82965389 -4.37938975
v 4.45451912 -1.87260600 -4.35470013
v 4.45600701 -1.78750106 -4.40968678
v 5.00000000 -1.80610737 -4.39549150
v 4.90968106 -1.84966016 -4.36718368
v 3.84287457 -1.91040102 -4.33734221
v 3.83924708 -1.82603073 -4.38174070
v 3.92722286 -1.87001738 -4.35603154
v 5.00000000 -1.80610737 -5.20450850
v 4.91169344 -1.94256023 -5.27456582
v 4.10506501 -1.65713073 -4.56790775
v 4.19290995 -1.68342723 -4.52347310
v 4.10432429 -1.71355770 -4.48272669
v 4.72725335 -1.61240721 -4.91069449
v 3.50000000 -1.89663168 -4.34322727
v 3.59644990 -1.94378541 -4.32502947
v 3.50000000 -1.80610737 -4.39549150
v 4.19698486 -1.64727482 -5.01222608
v 3.58618234 -1.61095977 -4.90411366
v 3.58979601 -1.64195591 -5.00048844
v 4.54499245 -1.75018329 -4.44274901
v 5.00000000 -1.89663168 -5.25677273
v 5.00000000 -1.99604415 -5.28907380
v 3.50000000 -1.62447174 -4.95450850
v 4.01645187 -1.68279108 -4.52443382
v 3.50000000 -1.66698730 -5.05000000
v 4.81934268 -1.72942287 -5.13566738
v 3.50000000 -1.60273905 -4.74773577
v 3.59048286 -1.60000000 -4.80000000
v 3.50000000 -1.99604415 -4.31092620
v 4.02186186 -1.76994831 -5.17558738
v 3.93683478 -1.80777686 -5.20571620
v 4.02482664 -1.84833589 -5.23204765
v 3.50000000 -1.80610737 -5.20450850
v 3.50000000 -1.89663168 -5.25677273
v 3.50000000 -1.72842759 -4.46543470
v 4.28064841 -1.71410333 -4.48206328
v 4.28001146 -1.78633073 -4.41062667
v 4.63306236 -1.78916987 -4.40835650
v 3.74993546 -1.86993940 -4.35607194
v 5.00000000 -1.72842759 -4.46543470
v 3.92721414 -1.78500409 -4.41169911
v 4.28690688 -1.89487851 -5.25598813
v 4.29399045 -1.98698150 -5.28705936
v 4.01561439 -1.74746317 -4.44543296
v 4.01509603 -1.82646980 -4.38145343
v 4.64953442 -1.88400423 -5.25093883
v 4.72955974 -1.69724361 -5.09628921
v 3.50000000 -1.66698730 -4.55000000
v 4.10946974 -1.73292196 -5.13949037
v 4.11036613 -1.80912893 -5.20668663
v 4.55171703 -1.69802884 -5.09735364
v 3.75406272 -1.65514674 -4.57173353
v 3.76353137 -1.71144089 -4.48532268
v 4.62864369 -1.87206646 -4.35497607
v 4.36741430 -1.82806079 -4.38041799
v 4.36840592 -1.74893930 -4.44397137
v 3.92774826 -1.71277145 -4.48368678
v 4.10874450 -1.67164494 -5.05789910
v 4.02102994 -1.70065695 -5.10087394
v 3.50000000 -1.60273905 -4.85226423
v 4.19893128 -1.85057406 -5.23334363
v 4.11086442 -1.89317173 -5.25521650
v 3.50000000 -1.72842759 -5.13456530
v 4.64009286 -1.66936774 -5.05407845
v 4.19771865 -1.76886205 -5.17463003
v 4.10810140 -1.62813552 -4.96535996
v 4.02009090 -1.64783000 -5.01340640
v 4.19372470 -1.63597265 -4.61377803
v 4.28522443 -1.62758522 -4.96378119
v 4.19629354 -1.61350249 -4.91541306
v 3.50000000 -1.62447174 -4.64549150
v 5.00000000 -1.66698730 -4.55000000
v 4.10589573 -1.61920017 -4.66277202
v 4.19455533 -1.60780764 -4.71198477
v 4.55096342 -1.64589065 -5.00924793
v 4.46281832 -1.67000366 -5.05515318
v 4.28577198 -1.80813207 -5.20597181
v 4.37366848 -1.85018324 -5.23311844
v 4.46206359 -1.62710862 -4.96239993
v 4.19548704 -1.60019492 -4.81396003
v 4.28438755 -1.60415113 -4.86429543
v 4.28314800 -1.60144222 -4.76205087
v 4.63393022 -1.71600885 -4.47976447
v 4.10667337 -1.60133795 -4.76344648
v 4.28145141 -1.65768408 -4.56685493
v 4.37407060 -1.64645406 -5.01046634
v 4.01917784 -1.61385769 -4.91690019
v 4.36922692 -1.68410000 -4.52246227
v 3.93327551 -1.73393172 -5.14057894
v 4.37209950 -1.60015769 -4.81255643
v 4.45706295 -1.71500084 -4.48097704
v 4.37322778 -1.61315504 -4.91393849
v 3.84279225 -1.74719523 -4.44569957
v 4.54590148 -1.68489648 -4.52127241
v 4.01710203 -1.63549472 -4.61497340
v 4.54674970 -1.63686609 -4.61156704
v 4.45794032 -1.65824492 -4.56579401
v 4.45865087 -1.61985574 -4.66049557
v 4.46105457 -1.60397430 -4.86291668
v 3.92891179 -1.61879592 -4.66419635
v 3.84043021 -1.60727173 -4.71503620
v 3.92956698 -1.60121309 -4.76519169
v 3.92830817 -1.65655368 -4.56901220
v 4.10742290 -1.60434452 -4.86576963
v 4.37003039 -1.63642994 -4.61264259
v 4.55004704 -1.61282627 -4.91252446
v 4.37097134 -1.60806852 -4.71053815
v 4.54771280 -1.60822205 -4.70969801
v 4.45998317 -1.60153746 -4.76081974
v 3.84643451 -1.77089573 -5.17641782
v 3.75998177 -1.80854451 -5.20626801
v 3.84958184 -1.85445760 -5.23555589
v 4.28223636 -1.61958091 -4.66144498
v 3.75997961 -1.73539082 -5.14214053
v 4.15000000 -2.01372283 -5.29250000
v 3.93109306 -1.62862674 -4.96675507
v 4.63916577 -1.62664964 -4.96105726
v 4.54898467 -1.60013051 -4.81142343
v 3.83978441 -1.63504016 -4.61611867
v 4.63590181 -1.62020539 -4.65929772
v 4.63698466 -1.60160653 -4.75995062
v 4.01781657 -1.60755808 -4.71339197
v 4.72538619 -1.60844283 -4.70850384
v 4.72608724 -1.60010149 -4.81007356
v 3.84114870 -1.60030984 -4.81759954
v 3.84470679 -1.68185385 -4.52585808
v 4.81502682 -1.60169501 -4.75886437
v 3.84993321 -2.01365737 -5.29248853
v 4.81730315 -1.60342052 -4.85838513
v 3.93222058 -1.67241634 -5.05917602
v 3.84451750 -1.70149226 -5.10197943
v 4.01851678 -1.60023947 -4.81547298
v 3.93025561 -1.60457281 -4.86746775
v 4.72321948 -1.68586139 -4.51984073
v 3.84642958 -2.00545422 -4.30902027
v 4.63501250 -1.65892169 -4.56452192
v 3.75032991 -2.01424467 -5.29259113
v 4.72452852 -1.63747966 -4.61006598
v 3.74696325 -2.01821400 -4.30673430
v 3.79993636 -1.93426384 -5.27173247
v 3.84800725 -1.64880186 -5.01545356
v 4.37037817 -2.02433343 -5.29424141
v 3.84615671 -1.61450073 -4.91954272
v 4.63797522 -1.60382215 -4.86170529
v 4.22384282 -2.02780196 -5.29475999
v 3.50000000 -1.99604415 -5.28907380
v 4.19082456 -1.94504196 -5.27538196
v 4.84365152 -2.02160497 -4.30618402
v 3.65403272 -2.01797536 -4.30677393
v 4.09539593 -1.96505907 -5.28144672
v 4.55621513 -2.03101740 -5.29521854
v 3.70013644 -1.93992433 -4.32631679
v 4.05000000 -2.02719959 -5.29467171
v 4.73971859 -2.03147662 -5.29528229
v 4.80117170 -1.96004793 -4.31998602
v 3.57347636 -2.02649423 -4.30543261
v 4.92572960 -2.02640806 -4.30544543
v 3.57221343 -2.02768385 -5.29474274
v 3.75024335 -1.87699313 -5.24751306
v 3.77465890 -1.94662070 -4.32410632
v 3.65246749 -1.88695062 -4.34766167
v 3.50000000 -2.91119387 -4.07847947
v 3.50000000 -3.18527930 -4.15751232
v 3.50000000 -2.97774412 -3.68445129
v 3.50000000 -2.57552826 -4.45450850
v 3.50000000 -2.57641309 -4.25719081
v 3.50000000 -2.48139329 -4.36156694
v 3.50000000 -2.11742251 -4.17114665
v 3.50000000 -1.91934786 -4.00480779
v 3.50000000 -1.90083317 -4.22048089
v 3.50000000 -1.35909086 -5.15403754
v 3.50000000 -1.15415563 -5.08291689
v 3.50000000 -1.21012799 -5.23960505
v 3.50000000 -3.03888718 -2.97068640
v 3.50000000 -3.50000000 -3.27947366
v 3.50000000 -1.28448168 -4.97049303
v 3.50000000 -3.50000000 -3.95960525
v 3.50000000 -2.39333249 -4.08629284
v 3.50000000 -2.30046921 -4.23872720
v 3.50000000 -2.74734253 -5.18418841
v 3.50000000 -2.81684154 -4.91486180
v 3.50000000 -2.65794219 -5.02853000
v 3.50000000 -1.50824863 -5.15838304
v 3.50000000 -1.47011999 -5.28254734
v 3.50000000 -2.67170801 -4.91115837
v 3.50000000 -2.72628298 -4.41159951
v 3.50000000 -2.47048514 -3.75174545
v 3.50000000 -2.64273119 -4.00204325
v 3.50000000 -1.59262164 -5.26430975
v 3.50000000 -1.24896722 -5.40537382
v 3.50000000 -1.41946653 -5.40773643
v 3.50000000 -1.33349223 -5.28317145
v 3.50000000 -1.89815036 -5.50381865
v 3.50000000 -1.91364771 -5.37267650
v 3.50000000 -1.79629166 -5.42893913
v 3.50000000 -1.41196817 -4.55083073
v 3.50000000 -1.49007226 -4.43844713
v 3.50000000 -1.30220665 -4.34863849
v 3.50000000 -1.20257738 -4.76290574
v 3.50000000 -1.40556392 -4.87152161
v 3.50000000 -1.90691731 -5.64822335
v 3.50000000 -1.77403783 -5.70028677
v 3.50000000 -1.90992645 -5.81491920
v 3.50000000 -2.00464387 -5.56618200
v 3.50000000 -2.02351082 -5.71352699
v 3.50000000 -2.14142888 -5.59724501
v 3.50000000 -2.93779618 -6.00000000
v 3.50000000 -2.58303878 -5.79827167
v 3.50000000 -2.52513371 -6.00000000
v 3.50000000 -2.34300291 -5.84583003
v 3.50000000 -2.22226926 -6.00000000
v 3.50000000 -2.15730489 -5.38434979
v 3.50000000 -2.27766735 -5.36456665
v 3.50000000 -3.50000000 -2.59934208
v 3.50000000 -1.97673351 -5.44968112
v 3.50000000 -2.70156770 -4.79382206
v 3.50000000 -2.80631042 -4.64520813
v 3.50000000 -1.80526723 -5.30850805
v 3.50000000 -1.00000000 -4.52581147
v 3.50000000 -1.00000000 -4.16515139
v 3.50000000 -3.50000000 -4.63973683
v 3.50000000 -3.07012179 -4.74475916
v 3.50000000 -3.50000000 -5.31986842
v 3.50000000 -2.76426766 -5.65391216
v 3.50000000 -2.55660675 -3.31409174
v 3.50000000 -2.22414087 -5.71504935
v 3.50000000 -2.11098504 -5.83611699
v 3.50000000 -2.00000000 -6.00000000
v 3.50000000 -1.75006078 -5.83778214
v 3.50000000 -1.23908905 -4.56359612
v 3.50000000 -1.47268751 -5.66633603
v 3.50000000 -1.61251497 -5.76689503
v 3.50000000 -1.64971740 -5.62297882
v 3.50000000 -3.02749503 -5.41577444
v 3.50000000 -2.80151156 -5.37609451
v 3.50000000 -1.55646033 -4.28200771
v 3.50000000 -1.72615258 -4.17758995
v 3.50000000 -1.53537334 -3.91237279
v 3.50000000 -1.35882676 -5.54918139
v 3.50000000 -1.53691002 -5.52829933
v 3.50000000 -1.37910794 -4.70810374
v 3.50000000 -3.14265216 -5.67522908
v 3.50000000 -3.50000000 -6.00000000
v 3.50000000 -2.41371085 -5.70217975
v 3.50000000 -2.08695869 -5.48175485
v 3.50000000 -2.22798090 -5.48236050
v 3.50000000 -1.07612047 -5.38268343
v 3.50000000 -1.01921472 -5.19509032
v 3.50000000 -1.44415044 -5.02172999
v 3.50000000 -1.29289322 -5.70710678
v 3.50000000 -1.16853039 -5.55557023
v 3.50000000 -1.80490968 -5.98078528
v 3.50000000 -1.61731657 -5.92387953
v 3.50000000 -1.68994000 -5.35198266
v 3.50000000 -1.56848295 -5.39784527
v 3.50000000 -1.70814412 -5.23507472
v 3.50000000 -1.62568073 -5.14461576
v 3.50000000 -2.05484922 -3.62835439
v 3.50000000 -1.80638507 -4.29565233
v 3.50000000 -1.52572215 -4.92342544
v 3.50000000 -2.97184709 -4.41121599
v 3.50000000 -2.18145634 -3.91890205
v 3.50000000 -2.03855971 -5.38456530
v 3.50000000 -1.78480698 -5.56166407
v 3.50000000 -2.37200748 -5.45408500
v 3.50000000 -2.39176636 -5.32164121
v 3.50000000 -1.56346717 -5.03990168
v 3.50000000 -2.50689161 -5.39824387
v 3.50000000 -2.49484857 -5.25158611
v 3.50000000 -1.44442977 -5.83146961
v 3.50000000 -1.51890759 -4.67686066
v 3.50000000 -1.50924958 -4.79965309
v 3.50000000 -3.00727454 -5.11813428
v 3.50000000 -2.65640978 -5.48968776
v 3.50000000 -2.76569364 -4.23210581
v 3.50000000 -1.16030367 -4.95407891
v 3.50000000 -1.67261571 -5.48318317
v 3.50000000 -2.58335454 -5.16423712
v 3.50000000 -2.51432137 -5.58770810
v 3.50000000 -2.66657308 -4.67868035
v 3.50000000 -2.31220672 -5.59539730
v 3.50000000 -2.40962076 -4.27266920
v 3.50000000 -1.62078701 -4.45157244
v 3.50000000 -1.55893913 -4.55918628
v 3.50000000 -2.62774241 -5.31053056
v 3.50000000 -1.00000000 -5.00000000
v 3.50000000 -2.65219805 -4.56114431
v 3.50000000 -1.70275591 -4.35085064
v 2.50000000 -3.50000000 -6.00000000
v 3.01871051 -3.50000000 -5.48990131
v 3.00000000 -3.50000000 -6.00000000
v 2.98128949 -3.50000000 -3.10944077
v 3.00000000 -3.50000000 -2.59934208
v 2.50000000 -3.50000000 -2.59934208
v 2.50000000 -3.50000000 -5.31986842
v 2.50000000 -3.50000000 -3.27947366
v 2.50000000 -3.50000000 -3.95960525
v 2.99886355 -3.50000000 -3.62986701
v 3.00000000 -3.50000000 -4.29967104
v 2.50000000 -3.50000000 -4.63973683
v 3.00113645 -3.50000000 -4.96947507
v 2.50000000 -1.53537334 -3.91237279
v 2.50000000 -1.23240499 -4.39897997
v 2.50000000 -1.00000000 -4.16515139
v 2.50000000 -1.93629847 -4.67198160
v 2.50000000 -1.63632700 -4.87990381
v 2.50000000 -1.55480276 -4.50129223
v 2.50000000 -1.98358399 -4.19053504
v 2.50000000 -1.39340291 -4.79840816
v 2.50000000 -1.19597946 -4.66122316
v 2.50000000 -1.93170833 -5.05208916
v 2.50000000 -1.62261705 -5.20521359
v 2.50000000 -1.91042520 -5.39384901
v 2.50000000 -1.62881871 -5.47110891
v 2.50000000 -2.18367535 -5.54668354
v 2.50000000 -1.96226006 -5.63895694
v 2.50000000 -1.52038391 -5.64615083
v 2.50000000 -1.36971002 -5.52433894
v 2.50000000 -2.23129442 -5.24469395
v 2.50000000 -3.03888718 -2.97068640
v 2.50000000 -2.52513371 -6.00000000
v 2.50000000 -2.37967410 -5.75881826
v 2.50000000 -2.71212211 -5.70716766
v 2.50000000 -2.91098877 -4.29967104
v 2.50000000 -2.36474123 -4.45538765
v 2.50000000 -2.47420812 -3.92965061
v 2.50000000 -2.61659961 -4.75364794
v 2.50000000 -1.39272378 -5.05080565
v 2.50000000 -1.16184961 -5.07686340
v 2.50000000 -1.18718154 -4.89881598
v 2.50000000 -1.47423507 -5.35915897
v 2.50000000 -1.21012799 -5.23960505
v 2.50000000 -2.49139393 -5.44778244
v 2.50000000 -2.05484922 -3.62835439
v 2.50000000 -1.75874864 -5.61213852
v 2.50000000 -1.62025477 -5.76070210
v 2.50000000 -1.29289322 -5.70710678
v 2.50000000 -1.44442977 -5.83146961
v 2.50000000 -3.00134325 -4.92410169
v 2.50000000 -1.92773986 -5.84569670
v 2.50000000 -1.76039495 -5.78987201
v 2.50000000 -2.93779618 -6.00000000
v 2.50000000 -3.00917187 -3.62381826
v 2.50000000 -2.55660675 -3.31409174
v 2.50000000 -2.26676843 -4.88683970
v 2.50000000 -1.38486420 -5.23120583
v 2.50000000 -3.13284748 -5.64648781
v 2.50000000 -1.00000000 -4.52581147
v 2.50000000 -1.00000000 -4.79663485
v 2.50000000 -2.84483507 -5.34862648
v 2.50000000 -2.22226926 -6.00000000
v 2.50000000 -2.00000000 -6.00000000
v 2.50000000 -2.11113463 -5.81886925
v 2.50000000 -1.26923434 -5.38736210
v 2.50000000 -1.16853039 -5.55557023
v 2.50000000 -1.01921472 -5.19509032
v 2.50000000 -1.07612047 -5.38268343
v 2.50000000 -1.61731657 -5.92387953
v 2.50000000 -1.80490968 -5.98078528
v 2.50000000 -1.00000000 -5.00000000
v 2.50000000 -2.58281654 -5.09538378
v 2.23343566 -2.16831631 -6.00000000
v 2.20396330 -2.42912208 -6.00000000
v 2.04685816 -2.18228366 -6.00000000
v 3.79589572 -2.42891039 -6.00000000
v 3.76656434 -2.16831631 -6.00000000
v 3.95311834 -2.18224837 -6.00000000
v 1.56060507 -2.54950962 -6.00000000
v 1.24431148 -2.39043043 -6.00000000
v 1.47803207 -2.31505339 -6.00000000
v 1.97116128 -3.55313224 -6.00000000
v 1.60729464 -3.99211203 -6.00000000
v 1.53564535 -3.55239479 -6.00000000
v 2.23545841 -3.96052438 -6.00000000
v 4.73393230 -2.37752222 -6.00000000
v 4.53694811 -2.16574343 -6.00000000
v 4.71875000 -2.16237976 -6.00000000
v 1.94231720 -2.34441432 -6.00000000
v 4.05058602 -2.34382381 -6.00000000
v 1.29596170 -2.16699554 -6.00000000
v 1.14555463 -2.15867771 -6.00000000
v 4.85303646 -2.15517291 -6.00000000
v 5.00000000 -3.01530455 -6.00000000
v 5.00000000 -3.63613183 -6.00000000
v 4.59452603 -3.18098034 -6.00000000
v 5.00000000 -2.23596259 -6.00000000
v 4.44425049 -2.32577014 -6.00000000
v 1.31290036 -2.76211640 -6.00000000
v 5.00000000 -2.56271069 -6.00000000
v 4.67594189 -2.75469580 -6.00000000
v 4.41453660 -2.53967269 -6.00000000
v 3.82087048 -3.12116830 -6.00000000
v 2.15843580 -3.11490607 -6.00000000
v 4.36681253 -3.99402527 -6.00000000
v 3.73206074 -3.97929356 -6.00000000
v 3.97289053 -3.55618556 -6.00000000
v 3.78885156 -2.72871403 -6.00000000
v 2.20844060 -2.73278019 -6.00000000
v 1.79985635 -3.17428268 -6.00000000
v 2.50074840 -4.42407817 -6.00000000
v 2.98151581 -4.34740964 -6.00000000
v 1.65625000 -2.16237976 -6.00000000
v 1.72305480 -2.35952500 -6.00000000
v 4.42368111 -3.54156492 -6.00000000
v 1.38469792 -3.19203443 -6.00000000
v 1.65461346 -2.86425422 -6.00000000
v 1.89395973 -2.58259084 -6.00000000
v 4.31447425 -2.86431448 -6.00000000
v 4.09766606 -2.58058305 -6.00000000
v 5.00000000 -4.31806591 -6.00000000
v 1.46425279 -2.13823315 -6.00000000
v 3.97594374 -4.43653862 -6.00000000
v 3.42950725 -4.43957603 -6.00000000
v 2.33587629 -2.30267796 -6.00000000
v 3.66412371 -2.30267796 -6.00000000
v 1.94317553 -4.46115941 -6.00000000
v 1.94306119 -2.89376280 -6.00000000
v 3.22732339 -3.94038132 -6.00000000
v 5.00000000 -2.00000000 -6.00000000
v 4.25000000 -2.35882719 -6.00000000
v 4.49877050 -4.49999493 -6.00000000
v 2.75000000 -3.93301270 -6.00000000
v 2.37636239 -2.13865271 -6.00000000
v 3.62363761 -2.13865271 -6.00000000
v 4.18618947 -3.17933042 -6.00000000
v 4.04161036 -2.89482205 -6.00000000
v 2.12500000 -2.00000000 -6.00000000
v 2.31250000 -2.00000000 -6.00000000
v 3.68750000 -2.00000000 -6.00000000
v 3.87500000 -2.00000000 -6.00000000
v 4.06250000 -2.00000000 -6.00000000
v 1.93750000 -2.00000000 -6.00000000
v 4.25000000 -2.00000000 -6.00000000
v 4.15625000 -2.16855004 -6.00000000
v 1.75000000 -2.00000000 -6.00000000
v 1.84375000 -2.16855004 -6.00000000
v 4.43750000 -2.00000000 -6.00000000
v 4.34469968 -2.17013903 -6.00000000
v 1.56250000 -2.00000000 -6.00000000
v 4.62500000 -2.00000000 -6.00000000
v 1.37500000 -2.00000000 -6.00000000
v 4.81250000 -2.00000000 -6.00000000
v 1.18750000 -2.00000000 -6.00000000
v 1.44342737 -4.55426747 -6.00000000
v 4.51887377 -1.80972748 -5.98173131
v 4.34287481 -1.69721319 -5.95305831
v 4.50732500 -1.60645729 -5.91930633
v 4.16171623 -1.82371838 -5.98433977
v 4.17126473 -1.61591404 -5.92329734
v 4.00252360 -1.69557627 -5.95253672
v 4.16361763 -1.01866910 -5.19232696
v 4.32221606 -1.05283167 -5.32073690
v 4.16896507 -1.07793310 -5.38703053
v 4.83029764 -1.36560672 -5.77301045
v 4.63754314 -1.35884683 -5.76741293
v 4.67990305 -1.22865008 -5.63641127
v 4.86461667 -1.23008371 -5.63814490
v 4.67779225 -1.66880278 -5.94356155
v 4.84782353 -1.71876653 -5.95963938
v 4.84337625 -1.53886509 -5.88733004
v 4.81288268 -1.12851562 -5.49042326
v 4.67011836 -1.49911169 -5.86551193
v 4.64342224 -1.13819236 -5.50723525
v 4.01206554 -1.05090366 -5.31498593
v 4.34219296 -1.86515945 -5.99086731
v 4.35729906 -1.01176446 -5.15293958
v 4.00511497 -1.52533038 -5.88016405
v 4.00548456 -1.36459672 -5.77218046
v 4.17273844 -1.44122798 -5.82932131
v 3.83786714 -1.44130405 -5.82937256
v 3.83763999 -1.29254826 -5.70676165
v 3.66932671 -1.36611447 -5.77342688
v 4.71518965 -1.84231767 -5.98748989
v 3.68718944 -1.04203534 -5.28688623
v 3.84946589 -1.08200103 -5.39658276
v 3.67189037 -1.11783513 -5.47094069
v 4.17287959 -1.29098858 -5.70519700
v 3.96460363 -1.01189188 -5.15376064
v 3.66912136 -1.22691540 -5.63430293
v 3.83772967 -1.16853284 -5.55557390
v 4.00568218 -1.11895119 -5.47302536
v 4.00529589 -1.22607167 -5.63327320
v 4.17216976 -1.16811880 -5.55495375
v 3.66820830 -1.52710773 -5.88112025
v 3.84142829 -1.60255275 -5.91762502
v 4.34047186 -1.36158057 -5.76968866
v 4.33456130 -1.12128255 -5.47734227
v 4.50404004 -1.07650749 -5.38361645
v 4.50075713 -1.17194763 -5.56065076
v 4.34121491 -1.52096873 -5.87779784
v 5.00000000 -1.80490968 -5.98078528
v 5.00000000 -1.61731657 -5.92387953
v 5.00000000 -1.16853039 -5.55557023
v 5.00000000 -1.07612047 -5.38268343
v 4.50377116 -1.43784419 -5.82703135
v 5.00000000 -1.44442977 -5.83146961
v 5.00000000 -1.29289322 -5.70710678
v 4.33921976 -1.22536689 -5.63241090
v 4.50362548 -1.28950454 -5.70370178
v 4.43750000 -1.00000000 -5.00000000
v 4.25000000 -1.00000000 -5.00000000
v 4.06250000 -1.00000000 -5.00000000
v 3.87500000 -1.00000000 -5.00000000
v 4.62500000 -1.00000000 -5.00000000
v 4.53363121 -1.01060474 -5.14524811
v 4.81250000 -1.00000000 -5.00000000
v 4.71581904 -1.01054282 -5.14482574
v 3.78357492 -1.85999797 -5.99015122
v 3.68570760 -1.71367736 -5.95813326
v 3.96533950 -1.86027085 -5.99018976
v 4.81431142 -1.04233228 -5.28787589
v 5.00000000 -1.01921472 -5.19509032
v 4.62529030 -1.03511110 -5.26265835
v 3.78827554 -1.01001654 -5.14118342
v 3.68750000 -1.00000000 -5.00000000
v 3.86009192 -1.74342579 -5.96652453
v 4.68189483 -1.07625226 -5.38300144
v 3.86032001 -1.03439798 -5.26002448
v 3.63770485 -1.00946859 -5.13728628
v 4.86049621 -1.85855809 -5.98994656
v 4.86539498 -1.00913545 -5.13486081
v 5.00000000 -1.00000000 -5.00000000
v 3.63457446 -1.86547425 -5.99091010
v 4.46849533 -1.03285832 -5.25423801
v 5.00000000 -1.00000000 -4.52581147
v 4.76055480 -1.00000000 -4.80797535
v 4.59980854 -1.00000000 -4.51907993
v 4.15625000 -1.00000000 -4.83762024
v 4.35782240 -1.00000000 -4.67417749
v 4.36145406 -1.00000000 -4.85706863
v 3.89889438 -1.00000000 -4.50407579
v 3.73835740 -1.00000000 -4.81125125
v 4.06250000 -1.00000000 -4.64389848
v 4.00000000 -1.00000000 -4.16515139
v 3.72472360 -1.00000000 -4.34004751
v 5.00000000 -1.00000000 -4.16515139
v 4.77495214 -1.00000000 -4.34379855
v 4.50000000 -1.00000000 -4.16515139
v 4.52602028 -1.00000000 -4.80296066
v 3.96875000 -1.00000000 -4.83762024
v 4.24967531 -1.00000000 -4.45503356
v 2.01887377 -1.80972748 -5.98173131
v 1.84287481 -1.69721319 -5.95305831
v 2.00732500 -1.60645729 -5.91930633
v 1.66171623 -1.82371838 -5.98433977
v 1.67126473 -1.61591404 -5.92329734
v 1.50252360 -1.69557627 -5.95253672
v 1.66361650 -1.01866931 -5.19232803
v 1.82221606 -1.05283167 -5.32073690
v 1.66896507 -1.07793310 -5.38703053
v 2.33029764 -1.36560672 -5.77301045
v 2.13754314 -1.35884683 -5.76741293
v 2.17990305 -1.22865008 -5.63641127
v 2.36461667 -1.23008371 -5.63814490
v 2.17779225 -1.66880278 -5.94356155
v 2.34782353 -1.71876653 -5.95963938
v 2.34337625 -1.53886509 -5.88733004
v 2.31288268 -1.12851562 -5.49042326
v 2.17011836 -1.49911169 -5.86551193
v 2.14342224 -1.13819236 -5.50723525
v 1.51206544 -1.05090369 -5.31498602
v 1.84219296 -1.86515945 -5.99086731
v 1.85729116 -1.01176563 -5.15294715
v 1.50511497 -1.52533038 -5.88016405
v 1.50548456 -1.36459672 -5.77218046
v 1.67273844 -1.44122798 -5.82932131
v 1.33786714 -1.44130405 -5.82937256
v 1.33763999 -1.29254826 -5.70676165
v 1.16932671 -1.36611447 -5.77342688
v 2.21518965 -1.84231767 -5.98748989
v 1.18718944 -1.04203534 -5.28688623
v 1.34946589 -1.08200103 -5.39658276
v 1.17189037 -1.11783513 -5.47094069
v 1.67287959 -1.29098858 -5.70519700
v 1.46460363 -1.01189188 -5.15376064
v 1.16912136 -1.22691540 -5.63430293
v 1.33772967 -1.16853284 -5.55557390
v 1.50568218 -1.11895119 -5.47302536
v 1.50529589 -1.22607167 -5.63327320
v 1.67216976 -1.16811880 -5.55495375
v 1.16820830 -1.52710773 -5.88112025
v 1.34142829 -1.60255275 -5.91762502
v 1.84047186 -1.36158057 -5.76968866
v 1.83456130 -1.12128255 -5.47734227
v 2.00404004 -1.07650749 -5.38361645
v 2.00075713 -1.17194763 -5.56065076
v 1.84121491 -1.52096873 -5.87779784
v 2.00377116 -1.43784419 -5.82703135
v 1.83921976 -1.22536689 -5.63241090
v 2.00362548 -1.28950454 -5.70370178
v 1.93750000 -1.00000000 -5.00000000
v 1.75000000 -1.00000000 -5.00000000
v 1.56250000 -1.00000000 -5.00000000
v 1.37500000 -1.00000000 -5.00000000
v 2.12500000 -1.00000000 -5.00000000
v 2.03361644 -1.01060625 -5.14525841
v 2.31250000 -1.00000000 -5.00000000
v 2.21581142 -1.01054334 -5.14482925
v 1.28357492 -1.85999797 -5.99015122
v 1.18570760 -1.71367736 -5.95813326
v 1.46533950 -1.86027085 -5.99018976
v 2.31430933 -1.04233238 -5.28787622
v 2.12528327 -1.03511080 -5.26265727
v 1.28827554 -1.01001654 -5.14118342
v 1.18750000 -1.00000000 -5.00000000
v 1.36009192 -1.74342579 -5.96652453
v 2.18189483 -1.07625226 -5.38300144
v 1.36031999 -1.03439798 -5.26002450
v 1.13770485 -1.00946859 -5.13728628
v 2.36049621 -1.85855809 -5.98994656
v 2.36539448 -1.00913547 -5.13486101
v 1.13457446 -1.86547425 -5.99091010
v 1.96848940 -1.03285918 -5.25424129
v 5.00000000 -3.63097579 -5.09840352
v 5.00000000 -3.34700284 -5.53212609
v 5.00000000 -3.21568604 -5.14596836
v 5.00000000 -3.25941389 -3.87210891
v 5.00000000 -3.65329135 -3.65876609
v 5.00000000 -3.55177895 -4.16033386
v 5.00000000 -3.21137977 -3.44893736
v 5.00000000 -2.61566616 -5.52385706
v 5.00000000 -2.44560014 -5.67686065
v 5.00000000 -2.45759394 -5.52156207
v 5.00000000 -1.85815456 -4.20557927
v 5.00000000 -2.80579799 -5.34690686
v 5.00000000 -2.83138803 -5.63134979
v 5.00000000 -1.35903458 -5.15402439
v 5.00000000 -1.21012799 -5.23960505
v 5.00000000 -1.15169939 -5.08325428
v 5.00000000 -3.03890704 -5.38381138
v 5.00000000 -2.82129484 -4.24666139
v 5.00000000 -2.72634330 -4.43870209
v 5.00000000 -2.63298152 -4.29983414
v 5.00000000 -1.28340065 -4.97024057
v 5.00000000 -1.40898851 -4.54970050
v 5.00000000 -1.27989133 -4.37767699
v 5.00000000 -1.49918892 -4.39907696
v 5.00000000 -1.50824863 -5.15838304
v 5.00000000 -1.47011999 -5.28254734
v 5.00000000 -2.61985781 -4.07690544
v 5.00000000 -1.59262164 -5.26430975
v 5.00000000 -3.24116809 -4.46064756
v 5.00000000 -3.29034735 -4.80028254
v 5.00000000 -3.01062746 -4.67119338
v 5.00000000 -2.98778293 -4.95402557
v 5.00000000 -2.85585810 -4.75748377
v 5.00000000 -1.24896722 -5.40537383
v 5.00000000 -1.33349223 -5.28317145
v 5.00000000 -1.41946637 -5.40773660
v 5.00000000 -1.89829768 -5.50386372
v 5.00000000 -1.79629313 -5.42893925
v 5.00000000 -1.91366906 -5.37268253
v 5.00000000 -2.71071136 -3.78224247
v 5.00000000 -2.63213680 -3.26311292
v 5.00000000 -2.99473718 -3.72115347
v 5.00000000 -1.70669490 -4.36319043
v 5.00000000 -2.95285859 -4.43713423
v 5.00000000 -2.23470337 -5.67596901
v 5.00000000 -2.05246688 -5.68682388
v 5.00000000 -2.13050418 -5.58250851
v 5.00000000 -1.20257738 -4.76290574
v 5.00000000 -1.39907772 -4.87000683
v 5.00000000 -3.12252557 -4.19518966
v 5.00000000 -3.66933995 -3.09554667
v 5.00000000 -4.21048989 -2.67969791
v 5.00000000 -4.12673944 -3.36679941
v 5.00000000 -3.61466039 -2.49975119
v 5.00000000 -2.63977428 -5.77681753
v 5.00000000 -2.70691414 -4.81010014
v 5.00000000 -2.69818574 -4.68653474
v 5.00000000 -3.77907426 -5.58087699
v 5.00000000 -1.90749109 -5.64680530
v 5.00000000 -1.91110390 -5.81434880
v 5.00000000 -1.77436022 -5.69993850
v 5.00000000 -2.36797610 -5.82883768
v 5.00000000 -1.62447174 -4.45450850
v 5.00000000 -1.63817831 -4.25154892
v 5.00000000 -2.11941522 -5.83847412
v 5.00000000 -4.04650193 -4.78034848
v 5.00000000 -4.43578017 -4.34001652
v 5.00000000 -4.52814741 -4.98122458
v 5.00000000 -3.13528244 -2.89672776
v 5.00000000 -1.97589804 -5.44954792
v 5.00000000 -1.80526723 -5.30850805
v 5.00000000 -2.27830349 -5.36492429
v 5.00000000 -2.15747267 -5.38458183
v 5.00000000 -1.24317203 -4.57342906
v 5.00000000 -4.14326817 -5.32969523
v 5.00000000 -1.47268710 -5.66633747
v 5.00000000 -1.64971192 -5.62298577
v 5.00000000 -1.61256901 -5.76684225
v 5.00000000 -4.55473752 -2.13474135
v 5.00000000 -1.75088279 -5.83685369
v 5.00000000 -1.38675843 -4.71626714
v 5.00000000 -4.54956669 -3.06776640
v 5.00000000 -2.10717262 -3.59748730
v 5.00000000 -2.35904733 -3.86273538
v 5.00000000 -1.56242358 -3.89855556
v 5.00000000 -1.35882660 -5.54918144
v 5.00000000 -1.53690923 -5.52830026
v 5.00000000 -1.94461426 -3.98433525
v 5.00000000 -2.00013400 -5.56282787
v 5.00000000 -1.44415044 -5.02172999
v 5.00000000 -3.61302316 -4.59134888
v 5.00000000 -1.68994000 -5.35198266
v 5.00000000 -1.56848295 -5.39784527
v 5.00000000 -2.08310920 -5.48376699
v 5.00000000 -2.79188349 -4.59965859
v 5.00000000 -2.40051310 -4.11408363
v 5.00000000 -2.22714977 -5.50310847
v 5.00000000 -1.70814412 -5.23507472
v 5.00000000 -1.62568073 -5.14461576
v 5.00000000 -4.51996333 -3.63486046
v 5.00000000 -1.52621635 -4.92348325
v 5.00000000 -4.57117200 -5.52958148
v 5.00000000 -3.05815062 -5.63682182
v 5.00000000 -4.03047684 -3.94343996
v 5.00000000 -2.50731353 -5.38901496
v 5.00000000 -2.63364991 -5.29485698
v 5.00000000 -2.34836732 -5.56775078
v 5.00000000 -2.03855971 -5.38456530
v 5.00000000 -1.78482572 -5.56169497
v 5.00000000 -1.56346717 -5.03990168
v 5.00000000 -1.55769979 -4.55598898
v 5.00000000 -2.29413930 -4.22271367
v 5.00000000 -2.18169275 -4.01950701
v 5.00000000 -4.06841356 -2.07372106
v 5.00000000 -2.65014304 -4.56290677
v 5.00000000 -2.37102256 -5.45032692
v 5.00000000 -2.39281144 -5.31944588
v 5.00000000 -2.58274577 -4.44905998
v 5.00000000 -2.92820344 -5.16454273
v 5.00000000 -1.51716956 -4.67521639
v 5.00000000 -2.51121684 -4.22564057
v 5.00000000 -2.49630385 -5.24402320
v 5.00000000 -2.03771689 -4.16912446
v 5.00000000 -2.16350096 -4.20445427
v 5.00000000 -1.15941935 -4.95410015
v 5.00000000 -1.67261497 -5.48318443
v 5.00000000 -1.51221475 -4.80000000
v 5.00000000 -2.90863903 -3.99425199
v 5.00000000 -3.93551221 -4.36309754
v 5.00000000 -2.80471020 -4.89413088
v 5.00000000 -2.49920495 -4.35459723
v 5.00000000 -2.58100431 -5.14856233
v 5.00000000 -2.72269595 -5.16204889
v 5.00000000 -2.64458886 -5.04367721
v 5.00000000 -2.68149778 -4.92801457
v 5.00000000 -2.79149806 -5.02103035
v 5.00000000 -2.40352682 -4.28278239
v 5.00000000 -1.44680640 -4.21124609
v 1.37528368 -1.00000000 -4.51117213
v 1.27327681 -1.00000000 -4.80011068
v 1.85573565 -1.00000000 -4.78887607
v 1.64858642 -1.00000000 -4.82584140
v 1.70398661 -1.00000000 -4.53453505
v 1.50000000 -1.00000000 -4.16515139
v 1.21882092 -1.00000000 -4.34182159
v 1.50012833 -1.00000000 -4.69061925
v 2.26911056 -1.00000000 -4.40541640
v 2.00000000 -1.00000000 -4.16515139
v 2.05333296 -1.00000000 -4.60340719
v 2.21875000 -1.00000000 -4.83762024
v 2.03125000 -1.00000000 -4.83762024
v 2.29467034 -1.00000000 -4.66122316
v 2.36576732 -1.00000000 -4.86099292
v 1.47502567 -1.00000000 -4.87317194
v 1.50653734 -2.97824482 -3.01627026
v 2.04624046 -2.80514121 -3.14250180
v 1.44747543 -2.37225681 -3.43438538
v 3.96059898 -2.79438397 -3.15016039
v 4.49503947 -2.97572506 -3.01814879
v 4.55252457 -2.37225681 -3.43438538
v 1.99385137 -2.28441401 -3.48969779
v 4.00614863 -2.28441401 -3.48969779
v 4.53217412 -1.80337848 -3.77083549
v 1.46782588 -1.80337848 -3.77083549
v 3.99151258 -1.82942093 -3.75652291
v 2.00848742 -1.82942093 -3.75652291
v 2.03148063 -3.25999751 -2.79823257
v 1.50629282 -3.41631035 -2.67013438
v 3.97722283 -3.22054825 -2.82973687
v 4.49321808 -3.40518773 -2.67942511
v 4.46099930 -3.84485234 -2.29026724
v 3.78471936 -3.87441769 -2.26239502
v 4.05079449 -4.19389145 -1.94607269
v 4.08832813 -3.57530937 -2.53427546
v 2.64664037 -4.08794789 -2.05414734
v 1.52302138 -3.81748453 -2.31586664
v 2.03935005 -4.11621552 -2.02562998
v 2.02231146 -3.67855843 -2.44290651
v 3.48981553 -4.19104845 -1.94901592
v 1.24995307 -1.28328644 -4.03623026
v 4.75004693 -1.28328644 -4.03623026
v 3.08679881 -4.10073962 -2.04127097
v 1.74042953 -1.39533742 -3.98226079
v 4.25957136 -1.39533913 -3.98225996
v 3.25000000 -3.82289028 -2.31082541
v 4.54162127 -4.18869983 -1.95144551
v 1.46046136 -4.19120786 -1.94885095
v 2.35884539 -3.85996874 -2.27604486
v 3.86208440 -1.36897189 -3.99511449
v 2.13792063 -1.36896415 -3.99511825
v 2.75503248 -3.80278572 -2.32953658
f 1 2 3
f 2 4 3
f 5 6 7
f 8 9 10
f 11 12 13
f 9 8 14
f 15 16 17
f 18 19 20
f 7 6 21
f 19 22 20
f 23 24 25
f 26 23 25
f 27 16 15
f 28 29 30
f 29 28 31
f 32 28 33
f 33 28 30
f 34 35 36
f 12 11 37
f 15 11 13
f 38 39 40
f 41 42 3
f 43 42 41
f 36 35 44
f 45 32 33
f 46 47 48
f 39 38 49
f 50 51 52
f 47 53 48
f 54 55 14
f 42 1 3
f 56 57 58
f 54 59 55
f 60 26 25
f 61 62 19
f 24 23 52
f 32 45 63
f 60 64 65
f 52 51 66
f 64 60 25
f 62 61 67
f 68 55 69
f 70 71 72
f 65 64 73
f 47 65 73
f 74 75 37
f 76 68 69
f 15 17 11
f 77 78 20
f 79 80 81
f 80 46 48
f 58 57 82
f 29 43 41
f 53 47 73
f 83 74 37
f 84 85 86
f 75 12 37
f 87 88 89
f 43 29 31
f 90 87 89
f 13 12 91
f 91 92 93
f 71 2 72
f 68 9 14
f 94 85 7
f 78 77 95
f 96 97 72
f 98 92 99
f 13 91 93
f 100 101 102
f 103 77 104
f 105 83 94
f 80 48 81
f 94 83 85
f 4 2 71
f 106 107 104
f 108 60 65
f 109 110 90
f 111 112 94
f 90 110 87
f 77 106 104
f 98 99 113
f 92 98 93
f 111 114 112
f 104 107 115
f 111 94 7
f 112 105 94
f 116 117 118
f 119 120 34
f 9 121 122
f 123 124 90
f 125 70 126
f 127 128 129
f 45 130 38
f 131 132 59
f 133 70 125
f 26 134 23
f 135 136 137
f 99 138 113
f 119 139 120
f 139 140 120
f 141 124 123
f 124 109 90
f 142 26 60
f 112 143 105
f 144 116 118
f 145 114 111
f 137 130 45
f 26 146 134
f 147 148 149
f 105 74 83
f 150 127 129
f 151 143 112
f 107 129 115
f 152 147 4
f 153 135 154
f 155 131 59
f 156 130 137
f 157 158 35
f 105 159 74
f 156 160 130
f 132 161 125
f 129 128 115
f 162 163 115
f 149 154 29
f 120 35 34
f 144 164 116
f 68 121 9
f 123 90 89
f 163 104 115
f 140 157 120
f 121 165 122
f 142 146 26
f 27 166 100
f 165 167 168
f 157 35 120
f 146 169 134
f 131 161 132
f 62 106 22
f 114 151 112
f 74 170 75
f 133 171 70
f 75 172 12
f 173 140 139
f 105 143 159
f 12 172 91
f 174 175 118
f 176 150 167
f 103 174 56
f 101 100 177
f 178 139 119
f 179 180 173
f 151 141 143
f 163 174 103
f 181 154 149
f 162 175 163
f 173 180 140
f 164 24 182
f 108 142 60
f 74 159 170
f 116 164 182
f 153 136 135
f 163 175 174
f 75 183 172
f 152 148 147
f 117 174 118
f 168 107 106
f 168 106 62
f 184 139 178
f 185 186 179
f 127 187 128
f 188 152 4
f 179 186 180
f 75 170 183
f 189 190 138
f 168 167 107
f 181 153 154
f 46 191 47
f 161 133 125
f 176 167 165
f 192 193 187
f 109 79 110
f 172 183 194
f 195 178 166
f 192 187 127
f 172 194 196
f 196 92 91
f 197 166 27
f 136 156 137
f 22 106 77
f 56 117 57
f 196 194 198
f 167 150 129
f 190 185 138
f 143 141 123
f 128 162 115
f 148 181 149
f 173 139 184
f 199 200 201
f 189 138 99
f 202 199 193
f 185 179 138
f 144 203 164
f 163 103 104
f 128 204 162
f 202 193 192
f 196 205 92
f 185 206 186
f 162 207 175
f 140 208 157
f 184 178 195
f 193 199 201
f 56 174 117
f 92 205 99
f 200 209 201
f 205 198 210
f 189 210 200
f 211 165 121
f 212 144 118
f 196 198 205
f 128 187 204
f 170 159 89
f 213 57 214
f 165 168 122
f 197 27 15
f 195 166 197
f 190 200 199
f 212 215 144
f 173 184 113
f 216 127 150
f 172 196 91
f 157 217 158
f 200 210 209
f 210 198 218
f 219 220 221
f 222 150 176
f 107 167 129
f 223 224 225
f 175 212 118
f 164 226 24
f 184 98 113
f 168 62 122
f 190 227 185
f 116 182 214
f 207 204 228
f 138 179 113
f 227 199 202
f 88 170 89
f 185 227 206
f 220 207 228
f 76 121 68
f 198 194 229
f 205 210 189
f 219 221 230
f 201 209 231
f 88 87 232
f 140 180 208
f 192 127 216
f 175 207 212
f 159 143 123
f 183 170 88
f 231 209 233
f 162 204 207
f 144 215 203
f 189 200 190
f 228 204 234
f 126 76 69
f 235 236 237
f 204 187 234
f 190 199 227
f 179 173 113
f 193 201 234
f 221 220 228
f 176 165 211
f 194 183 238
f 186 206 239
f 198 229 218
f 205 189 99
f 1 240 96
f 233 218 241
f 184 195 98
f 209 210 218
f 242 230 243
f 212 207 220
f 223 225 244
f 215 220 219
f 219 230 242
f 245 243 246
f 247 248 16
f 216 150 222
f 187 193 234
f 212 220 215
f 249 250 78
f 85 251 86
f 252 253 36
f 254 42 43
f 225 224 254
f 202 192 244
f 223 240 224
f 224 1 42
f 183 88 238
f 222 176 255
f 192 216 244
f 256 257 213
f 96 240 255
f 245 258 53
f 157 208 217
f 197 15 13
f 216 222 223
f 223 222 240
f 164 203 226
f 1 96 2
f 216 223 244
f 224 42 254
f 229 194 238
f 242 243 245
f 224 240 1
f 259 252 260
f 159 123 89
f 261 262 61
f 245 246 258
f 195 197 93
f 263 264 84
f 180 186 265
f 230 233 241
f 211 121 76
f 176 211 255
f 186 239 265
f 32 266 28
f 208 180 265
f 240 222 255
f 209 218 233
f 206 267 268
f 269 256 51
f 226 203 270
f 197 13 93
f 271 249 58
f 272 259 273
f 219 242 274
f 244 225 267
f 234 201 231
f 217 266 32
f 226 270 64
f 98 195 93
f 274 242 275
f 215 219 274
f 202 244 267
f 217 208 266
f 206 227 267
f 191 108 65
f 203 215 274
f 276 272 277
f 278 269 50
f 279 280 8
f 249 78 58
f 266 208 265
f 245 53 275
f 270 203 274
f 221 231 233
f 228 234 231
f 260 252 36
f 267 225 268
f 38 130 281
f 227 202 267
f 230 221 233
f 243 230 241
f 221 228 231
f 256 213 51
f 242 245 275
f 265 239 282
f 259 260 273
f 38 281 49
f 225 254 268
f 239 206 268
f 270 274 275
f 218 229 241
f 87 110 283
f 239 268 284
f 53 258 48
f 268 254 284
f 254 43 284
f 229 238 285
f 24 226 25
f 110 79 81
f 22 77 20
f 266 265 282
f 50 269 51
f 277 272 273
f 241 229 285
f 28 266 282
f 226 64 25
f 246 243 285
f 47 191 65
f 61 262 10
f 57 117 214
f 243 241 285
f 282 239 284
f 64 270 73
f 285 238 232
f 275 53 73
f 76 126 97
f 238 88 232
f 279 8 10
f 270 275 73
f 262 279 10
f 160 286 281
f 283 110 81
f 182 24 52
f 246 285 232
f 100 166 287
f 178 119 287
f 273 260 39
f 117 116 214
f 62 22 19
f 281 277 49
f 97 126 72
f 288 278 289
f 280 290 54
f 17 16 291
f 287 119 292
f 34 36 293
f 232 87 283
f 246 232 283
f 37 11 251
f 294 145 21
f 6 294 21
f 83 37 251
f 125 126 69
f 258 246 283
f 130 160 281
f 137 45 33
f 77 103 95
f 29 154 30
f 258 283 81
f 11 17 86
f 149 29 41
f 235 237 293
f 70 171 71
f 36 253 293
f 111 7 21
f 188 4 71
f 23 134 295
f 166 178 287
f 237 287 292
f 5 7 296
f 48 258 81
f 278 50 289
f 85 83 251
f 8 280 54
f 182 52 66
f 18 261 19
f 96 255 97
f 297 155 298
f 211 76 97
f 169 299 300
f 290 297 298
f 291 84 86
f 299 288 300
f 101 247 102
f 57 213 82
f 250 18 20
f 122 62 67
f 85 84 296
f 284 43 31
f 35 158 44
f 134 289 295
f 16 248 291
f 39 158 40
f 28 282 31
f 263 84 291
f 236 101 177
f 271 58 82
f 251 11 86
f 158 217 63
f 286 301 302
f 213 257 82
f 301 276 302
f 16 27 102
f 158 39 44
f 260 36 44
f 273 39 49
f 8 54 14
f 264 5 296
f 253 235 293
f 45 38 40
f 59 132 55
f 55 132 69
f 135 137 33
f 135 33 30
f 132 125 69
f 100 287 177
f 61 10 67
f 154 135 30
f 147 41 3
f 147 149 41
f 4 147 3
f 255 211 97
f 84 264 296
f 40 158 63
f 171 188 71
f 261 61 19
f 17 291 86
f 10 9 67
f 51 213 66
f 7 85 296
f 282 284 31
f 126 70 72
f 27 100 102
f 213 214 66
f 247 16 102
f 2 96 72
f 287 237 177
f 281 286 302
f 58 78 95
f 78 250 20
f 56 58 95
f 103 56 95
f 214 182 66
f 145 111 21
f 134 169 300
f 155 59 298
f 248 263 291
f 9 122 67
f 277 281 302
f 119 34 292
f 52 23 295
f 293 237 292
f 54 290 298
f 50 52 295
f 288 289 300
f 257 271 82
f 276 277 302
f 217 32 63
f 237 236 177
f 39 260 44
f 45 40 63
f 277 273 49
f 289 134 300
f 59 54 298
f 289 50 295
f 55 68 14
f 34 293 292
f 303 304 305
f 306 307 308
f 309 310 311
f 312 313 314
f 308 313 315
f 314 307 316
f 305 310 317
f 311 304 318
f 315 319 320
f 317 321 322
f 322 319 312
f 320 321 309
f 308 307 314
f 305 304 311
f 315 313 312
f 317 310 309
f 314 313 308
f 318 304 303
f 316 307 306
f 309 321 317
f 312 319 315
f 311 310 305
f 320 319 322
f 322 321 320
f 323 324 325
f 324 323 326
f 327 328 329
f 328 330 329
f 331 332 333
f 332 331 326
f 334 331 333
f 335 336 337
f 327 338 328
f 339 340 341
f 337 336 339
f 337 339 341
f 339 336 342
f 343 337 341
f 343 344 337
f 345 342 325
f 324 345 325
f 346 344 343
f 347 348 332
f 339 342 345
f 339 345 340
f 335 349 336
f 350 351 334
f 340 352 330
f 344 335 337
f 340 345 352
f 352 345 324
f 352 324 331
f 342 353 354
f 342 336 353
f 322 312 338
f 355 356 323
f 317 322 327
f 357 358 359
f 305 317 360
f 331 334 361
f 322 338 327
f 360 317 327
f 323 325 362
f 353 359 354
f 349 363 353
f 351 364 365
f 365 360 329
f 312 314 366
f 356 367 368
f 341 340 328
f 336 349 353
f 334 351 365
f 338 312 366
f 323 356 368
f 355 323 362
f 343 341 369
f 359 358 362
f 323 368 326
f 332 348 333
f 316 346 370
f 371 347 372
f 373 365 329
f 350 334 333
f 314 316 370
f 367 371 372
f 330 352 361
f 366 343 369
f 363 374 375
f 364 303 376
f 331 324 326
f 374 357 375
f 303 305 376
f 358 355 362
f 340 330 328
f 373 330 361
f 353 363 375
f 365 364 376
f 348 350 333
f 346 343 370
f 347 332 372
f 341 328 369
f 359 353 375
f 360 365 376
f 366 314 370
f 368 367 372
f 325 342 354
f 359 362 354
f 357 359 375
f 305 360 376
f 352 331 361
f 334 365 373
f 360 327 329
f 368 332 326
f 343 366 370
f 332 368 372
f 338 366 369
f 328 338 369
f 362 325 354
f 330 373 329
f 334 373 361
f 377 378 379
f 335 380 381
f 382 378 377
f 383 384 385
f 386 387 388
f 381 380 389
f 390 391 392
f 393 394 395
f 396 395 397
f 398 393 396
f 396 393 395
f 398 396 399
f 344 380 335
f 385 398 399
f 400 401 402
f 403 404 405
f 395 406 397
f 407 401 400
f 408 400 402
f 398 409 393
f 387 409 388
f 392 391 410
f 394 411 395
f 412 413 414
f 413 391 390
f 415 380 416
f 385 384 398
f 413 417 414
f 385 399 418
f 406 404 403
f 414 417 419
f 394 420 411
f 396 397 421
f 422 423 412
f 424 415 416
f 412 423 413
f 378 425 379
f 335 381 349
f 389 426 381
f 427 415 424
f 419 403 428
f 406 429 397
f 349 430 363
f 418 400 408
f 381 430 349
f 419 417 403
f 429 390 397
f 421 400 399
f 408 402 427
f 426 401 410
f 316 431 346
f 399 400 418
f 407 400 421
f 402 415 427
f 424 416 432
f 433 434 435
f 402 389 415
f 410 401 407
f 389 380 415
f 416 436 431
f 393 387 394
f 396 421 399
f 437 382 377
f 380 436 416
f 416 431 432
f 392 410 407
f 413 390 417
f 397 392 421
f 397 390 392
f 411 406 395
f 363 438 374
f 432 431 306
f 374 438 422
f 381 439 430
f 403 405 428
f 393 409 387
f 440 420 382
f 306 431 316
f 344 436 380
f 392 407 421
f 441 442 443
f 430 439 423
f 404 444 442
f 423 391 413
f 431 436 346
f 426 439 381
f 403 429 406
f 428 405 441
f 420 444 411
f 386 378 387
f 445 384 383
f 430 438 363
f 423 438 430
f 388 446 445
f 435 440 437
f 420 447 382
f 411 404 406
f 448 386 449
f 417 429 403
f 423 439 391
f 378 447 387
f 443 450 433
f 434 440 435
f 382 447 378
f 346 436 344
f 422 438 423
f 437 440 382
f 433 450 434
f 402 401 389
f 442 444 450
f 389 401 426
f 434 420 440
f 386 388 449
f 387 447 394
f 386 425 378
f 441 405 442
f 417 390 429
f 379 425 448
f 411 444 404
f 442 450 443
f 434 444 420
f 448 425 386
f 384 446 398
f 394 447 420
f 410 439 426
f 398 446 409
f 391 439 410
f 405 404 442
f 450 444 434
f 445 446 384
f 409 446 388
f 449 388 445
f 451 452 453
f 278 288 454
f 455 456 457
f 456 455 458
f 459 460 461
f 462 463 464
f 454 288 465
f 466 467 468
f 469 459 461
f 470 471 472
f 452 473 453
f 235 474 475
f 476 477 478
f 477 479 478
f 480 467 466
f 481 482 483
f 474 484 475
f 471 485 472
f 463 462 486
f 487 488 489
f 487 478 488
f 466 462 464
f 483 482 490
f 491 492 493
f 494 495 474
f 487 476 478
f 496 491 493
f 477 497 479
f 498 499 475
f 500 501 489
f 491 497 502
f 469 456 458
f 497 477 502
f 503 504 505
f 506 507 453
f 508 507 506
f 495 494 509
f 510 511 512
f 513 514 515
f 507 451 453
f 492 491 502
f 489 501 516
f 511 496 493
f 456 469 461
f 517 518 486
f 499 498 519
f 466 468 462
f 520 521 522
f 523 524 525
f 526 460 459
f 527 528 529
f 530 517 486
f 518 463 486
f 531 523 525
f 532 504 533
f 511 493 512
f 514 534 515
f 464 463 535
f 535 536 537
f 538 536 539
f 464 535 537
f 540 498 541
f 542 528 454
f 543 470 472
f 505 504 544
f 545 546 541
f 547 548 531
f 549 550 531
f 551 552 553
f 498 545 541
f 536 538 537
f 538 539 554
f 555 548 547
f 556 530 542
f 557 558 556
f 531 550 523
f 541 546 559
f 542 530 528
f 560 561 562
f 521 452 522
f 563 564 479
f 565 566 567
f 568 558 557
f 557 556 542
f 569 542 454
f 570 571 572
f 547 531 525
f 524 523 573
f 574 543 575
f 543 576 470
f 539 577 554
f 479 564 478
f 548 549 531
f 569 557 542
f 534 508 506
f 578 579 534
f 580 560 562
f 569 581 557
f 582 581 569
f 556 517 530
f 495 484 474
f 583 579 578
f 584 570 572
f 478 564 488
f 470 520 471
f 546 572 559
f 585 455 579
f 556 586 517
f 587 588 473
f 589 574 575
f 556 558 586
f 590 591 592
f 593 594 469
f 595 520 470
f 572 571 559
f 596 597 559
f 484 498 475
f 580 598 560
f 558 555 547
f 599 566 565
f 597 541 559
f 600 563 479
f 563 551 564
f 566 601 567
f 480 602 603
f 497 600 479
f 601 604 605
f 528 606 529
f 574 576 543
f 495 545 484
f 517 607 518
f 595 608 520
f 609 590 610
f 518 611 463
f 612 613 522
f 560 614 533
f 564 551 553
f 463 611 535
f 615 616 562
f 617 584 604
f 540 615 503
f 618 619 609
f 568 555 558
f 588 620 578
f 621 610 622
f 597 615 540
f 598 487 614
f 596 616 597
f 517 586 607
f 609 619 590
f 560 598 614
f 585 623 455
f 597 616 615
f 518 624 611
f 561 615 562
f 605 546 545
f 587 620 588
f 605 545 495
f 625 610 621
f 626 627 618
f 570 628 571
f 518 607 624
f 618 627 619
f 629 630 577
f 581 568 557
f 631 587 473
f 605 604 546
f 583 585 579
f 496 632 491
f 576 595 470
f 617 604 601
f 633 634 628
f 549 510 550
f 611 624 635
f 611 635 636
f 637 621 602
f 633 628 570
f 636 536 535
f 638 602 480
f 484 545 498
f 503 561 504
f 622 592 482
f 636 635 639
f 604 584 572
f 630 626 577
f 571 596 559
f 620 583 578
f 609 610 625
f 640 641 642
f 491 632 497
f 629 577 539
f 626 618 577
f 610 590 592
f 580 643 598
f 644 640 634
f 571 645 596
f 597 540 541
f 636 646 536
f 626 647 627
f 644 634 633
f 596 648 616
f 632 600 497
f 590 649 591
f 634 640 642
f 625 621 637
f 488 564 553
f 503 615 561
f 536 646 539
f 641 650 642
f 651 580 562
f 622 610 592
f 646 639 652
f 629 652 641
f 653 601 566
f 571 628 645
f 636 639 646
f 601 605 567
f 638 480 466
f 637 602 638
f 651 654 580
f 630 641 640
f 609 625 554
f 655 570 584
f 611 636 535
f 656 657 658
f 641 652 650
f 652 639 659
f 546 604 572
f 660 661 662
f 598 476 487
f 663 584 617
f 607 586 525
f 616 651 562
f 625 538 554
f 605 495 567
f 630 664 626
f 648 645 665
f 577 618 554
f 664 640 644
f 626 664 647
f 657 648 665
f 586 558 547
f 639 635 666
f 646 652 629
f 642 650 667
f 656 658 668
f 485 566 599
f 590 619 649
f 667 650 669
f 616 648 651
f 633 570 655
f 624 607 524
f 596 645 648
f 524 607 525
f 670 671 672
f 665 645 673
f 580 654 643
f 629 641 630
f 670 674 671
f 18 250 675
f 645 628 673
f 634 642 673
f 618 609 554
f 658 657 665
f 630 640 664
f 627 647 676
f 635 624 677
f 617 601 653
f 639 666 659
f 247 101 505
f 669 659 678
f 646 629 539
f 451 679 612
f 625 637 538
f 680 668 681
f 651 648 657
f 650 652 659
f 660 662 682
f 654 657 656
f 656 668 680
f 683 681 684
f 628 634 673
f 271 257 467
f 550 510 512
f 651 657 654
f 655 584 663
f 101 236 499
f 662 661 685
f 685 507 508
f 262 261 481
f 660 679 661
f 644 633 682
f 661 451 507
f 624 524 677
f 663 617 686
f 263 248 532
f 633 655 682
f 683 687 492
f 591 649 670
f 638 466 464
f 655 663 660
f 612 679 686
f 598 643 476
f 660 663 679
f 655 660 682
f 661 507 685
f 680 681 683
f 661 679 451
f 666 635 677
f 451 612 452
f 279 262 688
f 253 252 494
f 671 674 456
f 683 684 687
f 523 550 689
f 637 638 537
f 256 269 527
f 619 627 690
f 586 547 525
f 668 669 678
f 617 653 686
f 653 566 485
f 492 687 493
f 627 676 690
f 649 619 690
f 674 691 513
f 647 692 693
f 264 263 501
f 679 663 686
f 650 659 669
f 101 499 505
f 476 643 694
f 252 259 695
f 638 464 537
f 656 680 696
f 280 279 697
f 673 642 667
f 682 662 692
f 670 691 674
f 508 534 514
f 476 694 477
f 538 637 537
f 696 680 698
f 654 656 696
f 644 682 692
f 670 649 691
f 647 664 692
f 643 654 696
f 290 280 526
f 5 264 500
f 259 272 699
f 683 492 698
f 691 649 690
f 694 643 696
f 658 667 669
f 688 483 700
f 665 673 667
f 692 662 693
f 688 262 481
f 664 644 692
f 668 658 669
f 688 481 483
f 681 668 678
f 658 665 667
f 263 532 501
f 680 683 698
f 690 676 701
f 279 688 697
f 494 252 695
f 662 685 693
f 603 249 702
f 676 647 693
f 659 666 678
f 614 487 489
f 694 696 698
f 504 561 533
f 676 693 703
f 666 677 704
f 685 508 703
f 693 685 703
f 500 264 501
f 691 690 701
f 689 550 512
f 678 666 704
f 259 699 695
f 526 280 697
f 561 560 533
f 513 691 701
f 688 700 697
f 684 681 704
f 477 694 502
f 681 678 704
f 701 676 703
f 704 677 573
f 694 698 502
f 677 524 573
f 249 603 705
f 698 492 502
f 594 706 459
f 684 704 573
f 473 452 521
f 603 602 707
f 621 622 707
f 6 5 708
f 591 670 672
f 272 276 709
f 707 622 710
f 526 697 460
f 697 700 460
f 573 523 689
f 504 532 544
f 468 467 711
f 700 483 672
f 709 575 712
f 684 573 689
f 299 582 465
f 288 299 465
f 486 462 606
f 593 469 458
f 482 481 713
f 530 486 606
f 469 594 459
f 455 623 458
f 498 540 519
f 687 684 689
f 613 471 522
f 687 689 512
f 578 534 506
f 493 687 512
f 675 707 710
f 520 608 521
f 569 454 465
f 631 473 521
f 5 500 708
f 614 489 516
f 18 675 713
f 485 471 613
f 481 261 713
f 699 272 709
f 528 530 606
f 278 454 714
f 235 253 474
f 579 455 515
f 456 674 457
f 462 468 529
f 488 553 715
f 602 621 707
f 236 235 475
f 301 589 716
f 711 527 529
f 552 294 717
f 612 686 613
f 276 301 716
f 653 485 613
f 294 6 717
f 567 495 509
f 528 527 714
f 703 508 514
f 482 592 490
f 249 271 702
f 513 701 514
f 467 257 711
f 250 249 705
f 256 527 711
f 247 505 544
f 532 248 544
f 706 297 718
f 553 708 715
f 297 290 718
f 606 462 529
f 671 456 461
f 672 671 719
f 565 695 720
f 672 483 490
f 591 672 490
f 269 278 714
f 695 699 720
f 467 480 702
f 712 575 721
f 623 593 458
f 695 565 509
f 455 457 515
f 261 18 713
f 494 695 509
f 700 672 719
f 674 513 457
f 527 269 714
f 588 506 453
f 485 599 472
f 468 711 529
f 588 578 506
f 603 707 705
f 473 588 453
f 452 612 522
f 608 631 521
f 686 653 613
f 253 494 474
f 503 505 519
f 701 703 514
f 505 499 519
f 501 532 516
f 454 528 714
f 699 709 712
f 471 520 522
f 499 236 475
f 532 533 516
f 271 467 702
f 480 603 702
f 489 488 715
f 459 706 718
f 553 552 717
f 534 579 515
f 707 675 705
f 565 567 509
f 533 614 516
f 540 503 519
f 575 543 721
f 582 569 465
f 589 575 716
f 500 489 715
f 257 256 711
f 526 459 718
f 599 565 720
f 592 591 490
f 599 712 721
f 713 675 710
f 248 247 544
f 709 276 716
f 6 708 717
f 472 599 721
f 290 526 718
f 622 482 710
f 675 250 705
f 457 513 515
f 708 553 717
f 460 700 719
f 575 709 716
f 708 500 715
f 712 599 720
f 482 713 710
f 461 460 719
f 699 712 720
f 671 461 719
f 543 472 721
f 722 723 724
f 725 726 727
f 728 729 730
f 731 732 733
f 734 724 735
f 736 732 731
f 735 724 737
f 738 728 739
f 740 741 742
f 743 731 744
f 742 741 745
f 746 726 725
f 747 748 724
f 743 744 749
f 724 748 722
f 750 751 752
f 753 754 755
f 756 757 758
f 759 736 760
f 761 762 763
f 764 765 766
f 767 768 769
f 769 770 771
f 155 772 773
f 735 774 734
f 753 775 754
f 776 741 777
f 755 754 778
f 779 758 780
f 781 782 783
f 784 768 767
f 785 724 734
f 765 786 766
f 771 787 788
f 763 762 789
f 779 790 758
f 791 792 793
f 784 794 795
f 796 797 798
f 799 751 750
f 752 751 744
f 800 791 793
f 758 790 756
f 760 801 759
f 783 802 803
f 770 768 804
f 758 757 796
f 805 775 764
f 772 805 806
f 764 775 753
f 792 762 793
f 807 733 808
f 736 731 809
f 810 799 811
f 812 789 813
f 814 749 815
f 803 802 767
f 724 723 737
f 812 763 789
f 756 790 801
f 297 772 155
f 787 763 788
f 816 749 814
f 743 749 817
f 818 747 785
f 747 724 785
f 797 819 730
f 798 729 818
f 789 762 792
f 820 760 809
f 799 791 800
f 805 766 806
f 821 782 781
f 772 806 773
f 731 752 744
f 822 729 728
f 778 754 594
f 788 763 812
f 706 754 823
f 824 753 755
f 769 768 770
f 593 816 778
f 825 826 773
f 585 827 817
f 816 814 778
f 827 820 809
f 817 816 623
f 800 751 799
f 817 749 816
f 738 822 728
f 827 743 817
f 826 828 829
f 760 736 809
f 749 744 815
f 807 750 733
f 761 764 753
f 799 750 811
f 763 765 761
f 830 792 791
f 801 790 759
f 781 723 821
f 831 801 832
f 593 778 594
f 810 791 799
f 706 823 297
f 795 833 740
f 585 817 623
f 594 754 706
f 814 755 778
f 787 786 765
f 583 820 827
f 583 827 585
f 795 834 784
f 623 816 593
f 722 835 821
f 824 761 753
f 746 835 726
f 155 773 131
f 759 836 736
f 814 815 837
f 733 752 731
f 759 790 779
f 818 822 747
f 133 838 171
f 773 826 131
f 833 794 783
f 837 824 755
f 733 732 808
f 832 820 620
f 804 768 839
f 823 772 297
f 811 750 807
f 587 832 620
f 737 723 781
f 789 792 813
f 777 840 776
f 825 841 839
f 839 768 784
f 830 791 810
f 620 820 583
f 740 833 741
f 814 837 755
f 837 793 824
f 813 792 830
f 771 770 787
f 825 828 826
f 131 826 161
f 587 831 832
f 767 802 784
f 156 842 160
f 161 829 133
f 631 831 587
f 161 826 829
f 595 843 608
f 809 731 743
f 806 825 773
f 842 738 739
f 802 794 784
f 833 782 741
f 832 801 760
f 783 794 802
f 152 776 148
f 827 809 743
f 784 834 839
f 608 844 631
f 815 800 837
f 740 742 838
f 823 775 805
f 741 782 777
f 764 766 805
f 832 760 820
f 823 805 772
f 841 786 804
f 754 775 823
f 806 841 825
f 829 828 845
f 750 752 733
f 631 844 831
f 843 844 608
f 837 800 793
f 761 765 764
f 787 765 763
f 747 822 738
f 756 801 831
f 838 742 171
f 793 762 824
f 136 727 156
f 844 756 831
f 815 751 800
f 804 786 770
f 286 728 301
f 744 751 815
f 188 745 152
f 825 839 828
f 829 838 133
f 766 841 806
f 808 732 846
f 171 742 188
f 777 782 821
f 153 725 136
f 821 723 722
f 181 847 153
f 576 848 595
f 828 834 845
f 595 848 843
f 829 845 838
f 730 729 797
f 736 836 732
f 843 757 844
f 839 841 804
f 766 786 841
f 726 835 748
f 726 738 842
f 795 794 833
f 148 840 181
f 824 762 761
f 847 840 777
f 160 739 286
f 818 729 822
f 727 842 156
f 821 835 746
f 845 740 838
f 589 730 574
f 847 777 746
f 770 786 787
f 726 748 738
f 845 795 740
f 844 757 756
f 574 819 576
f 188 742 745
f 745 776 152
f 136 725 727
f 160 842 739
f 848 796 843
f 727 726 842
f 839 834 828
f 738 748 747
f 776 840 148
f 847 746 725
f 845 834 795
f 847 725 153
f 796 757 843
f 777 821 746
f 848 797 796
f 848 819 797
f 181 840 847
f 732 836 846
f 576 819 848
f 745 741 776
f 739 728 286
f 797 729 798
f 748 835 722
f 730 819 574
f 846 836 759
f 301 728 589
f 780 758 798
f 846 759 779
f 589 728 730
f 783 782 833
f 758 796 798
f 849 850 851
f 774 852 853
f 851 850 803
f 853 852 854
f 855 850 849
f 735 852 774
f 803 850 783
f 854 852 856
f 857 858 859
f 781 859 737
f 857 859 860
f 737 858 735
f 856 858 857
f 781 861 859
f 859 861 860
f 859 858 737
f 783 861 781
f 860 861 855
f 861 850 855
f 858 852 735
f 783 850 861
f 856 852 858
f 862 863 864
f 865 866 867
f 868 865 867
f 867 863 862
f 868 867 862
f 867 869 870
f 871 872 866
f 873 874 872
f 871 873 872
f 875 876 873
f 866 869 867
f 865 871 866
f 874 877 878
f 879 875 873
f 880 854 856
f 879 873 871
f 881 882 883
f 884 885 886
f 887 885 884
f 888 889 890
f 870 863 867
f 878 891 874
f 892 889 888
f 875 893 882
f 882 893 883
f 894 868 862
f 895 896 877
f 897 877 898
f 872 888 866
f 860 899 884
f 886 885 868
f 876 900 901
f 860 884 857
f 884 899 887
f 878 877 897
f 881 883 902
f 856 903 880
f 886 903 884
f 880 903 904
f 884 903 857
f 905 879 871
f 888 906 892
f 902 907 849
f 864 863 908
f 908 870 909
f 849 907 855
f 907 910 855
f 894 886 868
f 911 882 881
f 855 910 899
f 904 903 886
f 912 913 911
f 874 895 877
f 890 869 888
f 904 886 894
f 857 903 856
f 901 895 876
f 878 914 891
f 915 878 897
f 916 892 917
f 913 900 876
f 918 901 919
f 909 870 890
f 909 890 920
f 855 899 860
f 865 905 871
f 914 906 891
f 874 891 872
f 873 895 874
f 901 896 895
f 913 876 875
f 879 893 875
f 905 921 879
f 912 900 913
f 892 906 914
f 872 906 888
f 868 885 865
f 917 914 915
f 913 875 882
f 920 889 916
f 887 899 921
f 890 889 920
f 905 887 921
f 870 869 890
f 919 900 912
f 913 882 911
f 898 896 918
f 915 914 878
f 892 914 917
f 888 869 866
f 916 889 892
f 883 907 902
f 908 863 870
f 876 895 873
f 921 893 879
f 877 896 898
f 901 900 919
f 865 885 905
f 891 906 872
f 899 910 921
f 918 896 901
f 905 885 887
f 883 910 907
f 893 910 883
f 921 910 893
f 922 923 924
f 925 926 927
f 928 929 930
f 931 932 933
f 934 932 931
f 935 936 937
f 924 923 938
f 925 927 939
f 940 929 941
f 935 937 942
f 943 944 945
f 946 935 942
f 929 428 941
f 936 935 947
f 948 419 929
f 949 950 935
f 935 950 951
f 948 929 928
f 803 767 952
f 902 849 953
f 949 943 950
f 414 419 948
f 954 955 956
f 419 428 929
f 946 949 935
f 767 769 957
f 881 902 958
f 959 931 933
f 355 960 961
f 355 358 960
f 935 951 947
f 962 963 930
f 964 954 956
f 412 414 965
f 966 928 967
f 951 968 969
f 944 970 954
f 422 412 932
f 971 962 930
f 954 972 955
f 945 944 964
f 356 355 973
f 911 881 974
f 769 771 975
f 356 973 972
f 972 973 955
f 358 357 976
f 959 966 977
f 932 934 976
f 957 769 925
f 881 958 923
f 367 356 972
f 960 358 976
f 973 978 955
f 923 967 938
f 969 925 939
f 923 922 974
f 926 925 975
f 428 441 941
f 979 946 942
f 973 355 961
f 967 928 963
f 951 969 980
f 965 966 959
f 953 959 977
f 970 371 981
f 948 966 965
f 371 367 981
f 944 954 964
f 803 952 956
f 849 851 982
f 851 803 978
f 932 412 933
f 948 928 966
f 951 950 968
f 950 943 945
f 912 911 983
f 771 788 984
f 978 803 955
f 934 960 976
f 849 982 934
f 968 985 986
f 923 958 967
f 957 925 969
f 987 988 922
f 989 990 926
f 982 851 978
f 934 982 960
f 990 991 927
f 992 987 924
f 991 993 994
f 995 992 996
f 993 997 998
f 999 995 962
f 997 1000 936
f 1001 999 971
f 1000 1002 937
f 1003 1001 940
f 940 971 930
f 958 902 953
f 414 948 965
f 412 965 933
f 969 968 986
f 966 967 977
f 972 954 981
f 985 964 956
f 374 422 1004
f 953 849 931
f 968 945 985
f 357 374 1004
f 422 932 1004
f 881 923 974
f 925 769 975
f 985 952 986
f 367 972 981
f 954 970 981
f 929 940 930
f 963 928 930
f 767 957 952
f 968 950 945
f 932 976 1004
f 987 922 924
f 926 990 927
f 952 985 956
f 996 992 924
f 991 994 927
f 849 934 931
f 994 993 998
f 995 996 962
f 971 999 962
f 997 936 998
f 936 1000 937
f 1001 971 940
f 989 926 984
f 922 988 983
f 958 953 977
f 982 978 961
f 955 803 956
f 926 975 984
f 974 922 983
f 1003 940 941
f 937 1002 942
f 962 996 963
f 994 998 980
f 1002 979 942
f 441 1003 941
f 988 912 983
f 788 989 984
f 976 357 1004
f 985 945 964
f 952 957 986
f 978 973 961
f 960 982 961
f 965 959 933
f 975 771 984
f 911 974 983
f 967 963 938
f 980 969 939
f 957 969 986
f 967 958 977
f 927 994 939
f 996 924 938
f 998 936 947
f 994 980 939
f 963 996 938
f 980 998 947
f 959 953 931
f 951 980 947
f 1005 1006 1007
f 1008 1009 1006
f 1008 1010 1009
f 1011 1012 1013
f 1014 1015 1016
f 1016 1017 1014
f 1007 1018 1005
f 1019 1018 1020
f 1021 1017 1016
f 1020 1018 1022
f 1016 1023 1021
f 1013 1024 1011
f 1014 1020 1022
f 1022 1015 1014
f 1005 1025 1006
f 1006 1025 1008
f 1026 1012 1011
f 1010 1027 1009
f 1028 1029 1027
f 1027 1030 1028
f 1028 1030 1031
f 1031 1030 1032
f 1027 1029 1009
f 1005 1018 1033
f 1034 1035 1036
f 1037 1029 1028
f 1011 1024 1038
f 1031 1032 1039
f 1034 1036 807
f 1036 1035 1040
f 1035 1041 1040
f 1042 1041 1043
f 1041 1013 1043
f 1032 1030 1044
f 1039 1032 810
f 1010 1045 1027
f 1046 1029 1037
f 1040 1041 1042
f 1036 1040 1039
f 1047 1048 1049
f 1007 1006 1050
f 808 1034 807
f 1051 1019 1052
f 811 1036 1039
f 830 1032 1044
f 1053 1021 1054
f 1040 1031 1039
f 1055 1007 1050
f 830 1044 813
f 1055 1050 1046
f 811 1039 810
f 807 1036 811
f 1056 1014 1057
f 1042 1028 1031
f 1006 1009 1050
f 1040 1042 1031
f 1013 1047 1043
f 1058 1047 1049
f 810 1032 830
f 1042 1043 1037
f 1050 1029 1046
f 1042 1037 1028
f 1058 1046 1037
f 1044 1030 1045
f 1043 1058 1037
f 1059 1055 1046
f 1043 1047 1058
f 1058 1059 1046
f 1055 1022 1007
f 1009 1029 1050
f 1049 1016 1059
f 1058 1049 1059
f 1060 1026 1061
f 1045 1030 1027
f 1061 1011 1062
f 1062 1038 1063
f 997 1005 1000
f 1064 1065 1060
f 991 1008 993
f 1066 1067 1064
f 989 1068 990
f 1026 1011 1061
f 1060 1065 1026
f 1062 1011 1038
f 1045 1069 1044
f 1067 1065 1064
f 1008 1070 1010
f 1054 1071 1072
f 813 1069 812
f 1071 1073 1067
f 1063 1074 1075
f 1000 1033 1002
f 1045 1076 1069
f 1019 1020 1052
f 1053 1017 1021
f 1056 1020 1014
f 1014 1017 1057
f 1035 1024 1041
f 1077 1073 1071
f 1021 1071 1054
f 1044 1069 813
f 1055 1015 1022
f 1069 1076 1068
f 1016 1015 1059
f 1034 1078 1035
f 1047 1012 1048
f 1038 1074 1063
f 1005 1033 1000
f 997 1025 1005
f 1008 1025 993
f 846 1079 808
f 979 1080 1051
f 991 1070 1008
f 1068 1070 990
f 1075 1079 846
f 1002 1080 979
f 1048 1023 1049
f 1074 1078 1034
f 1072 1081 1082
f 812 1083 788
f 1082 1081 1066
f 788 1083 989
f 1052 1020 1056
f 1057 1017 1053
f 1059 1015 1055
f 1077 1023 1048
f 1021 1077 1071
f 993 1025 997
f 1022 1018 1007
f 1041 1024 1013
f 990 1070 991
f 1033 1018 1019
f 1013 1012 1047
f 1071 1081 1072
f 1069 1083 812
f 1021 1023 1077
f 1035 1078 1024
f 808 1079 1034
f 1051 1080 1019
f 1067 1081 1071
f 1068 1083 1069
f 1068 1076 1070
f 1012 1084 1048
f 1049 1023 1016
f 1074 1079 1075
f 1033 1080 1002
f 1048 1084 1073
f 1066 1081 1067
f 989 1083 1068
f 1048 1073 1077
f 1010 1076 1045
f 1065 1084 1026
f 1067 1073 1065
f 1034 1079 1074
f 1019 1080 1033
f 1038 1078 1074
f 1073 1084 1065
f 1070 1076 1010
f 1024 1078 1038
f 1026 1084 1012
f 1085 1086 1087
f 1088 1089 1090
f 779 1091 1092
f 1093 1089 1088
f 1094 1095 780
f 1096 1097 1098
f 1087 1086 1099
f 1091 1100 1092
f 1099 1089 1087
f 1087 1097 1085
f 1091 1093 1100
f 779 1095 1091
f 1098 1101 1094
f 1101 1089 1093
f 1075 1092 1063
f 1064 1086 1066
f 1063 1100 1062
f 1062 1088 1061
f 1061 1090 1060
f 1060 1099 1064
f 1101 1091 1094
f 780 1095 779
f 1085 1097 1096
f 1098 1087 1101
f 1101 1093 1091
f 1087 1089 1101
f 1092 1100 1063
f 1099 1086 1064
f 1062 1100 1088
f 1060 1090 1099
f 1088 1090 1061
f 1091 1095 1094
f 1098 1097 1087
f 1100 1093 1088
f 1090 1089 1099
f 779 1092 846
f 846 1092 1075
f 1066 1086 1082
f 1082 1086 1085
f 1102 1103 1104
f 1105 1106 1103
f 1105 1107 1106
f 1108 1109 1110
f 1111 1112 1113
f 1113 1114 1111
f 1104 1115 1102
f 1116 1115 1117
f 1118 1114 1113
f 1117 1115 1119
f 1113 1120 1118
f 1110 1121 1108
f 1111 1117 1119
f 1119 1112 1111
f 1102 1122 1103
f 1103 1122 1105
f 1123 1109 1108
f 1107 1124 1106
f 1125 1126 1124
f 1124 1127 1125
f 1125 1127 1128
f 1128 1127 1129
f 1124 1126 1106
f 1102 1115 1130
f 1131 1132 1133
f 1134 1126 1125
f 1108 1121 1135
f 1128 1129 1136
f 1131 1133 379
f 1133 1132 1137
f 1132 1138 1137
f 1139 1138 1140
f 1138 1110 1140
f 1129 1127 1141
f 1136 1129 437
f 1107 1142 1124
f 1143 1126 1134
f 1137 1138 1139
f 1133 1137 1136
f 1144 1145 1146
f 1104 1103 1147
f 448 1131 379
f 919 1116 918
f 377 1133 1136
f 435 1129 1141
f 915 1118 917
f 1137 1128 1136
f 1148 1104 1147
f 435 1141 433
f 1148 1147 1143
f 377 1136 437
f 379 1133 377
f 898 1111 897
f 1139 1125 1128
f 1103 1106 1147
f 1137 1139 1128
f 1110 1144 1140
f 1149 1144 1146
f 437 1129 435
f 1139 1140 1134
f 1147 1126 1143
f 1139 1134 1125
f 1149 1143 1134
f 1141 1127 1142
f 1140 1149 1134
f 1150 1148 1143
f 1140 1144 1149
f 1149 1150 1143
f 1148 1119 1104
f 1106 1126 1147
f 1146 1113 1150
f 1149 1146 1150
f 1151 1123 1152
f 1142 1127 1124
f 1152 1108 1153
f 1153 1135 1154
f 992 1102 987
f 1155 1156 1151
f 999 1105 995
f 1157 1158 1155
f 1003 1159 1001
f 1123 1108 1152
f 1151 1156 1123
f 1153 1108 1135
f 1142 1160 1141
f 1158 1156 1155
f 1105 1161 1107
f 917 1162 916
f 433 1160 443
f 1162 1163 1158
f 1154 1164 1165
f 987 1130 988
f 1142 1166 1160
f 1116 1117 918
f 915 1114 1118
f 898 1117 1111
f 1111 1114 897
f 1132 1121 1138
f 1167 1163 1162
f 1118 1162 917
f 1141 1160 433
f 1148 1112 1119
f 1160 1166 1159
f 1113 1112 1150
f 1131 1168 1132
f 1144 1109 1145
f 1135 1164 1154
f 1102 1130 987
f 992 1122 1102
f 1105 1122 995
f 449 1169 448
f 912 1170 919
f 999 1161 1105
f 1159 1161 1001
f 1165 1169 449
f 988 1170 912
f 1145 1120 1146
f 1164 1168 1131
f 916 1171 920
f 443 1172 441
f 920 1171 1157
f 441 1172 1003
f 918 1117 898
f 897 1114 915
f 1150 1112 1148
f 1167 1120 1145
f 1118 1167 1162
f 995 1122 992
f 1119 1115 1104
f 1138 1121 1110
f 1001 1161 999
f 1130 1115 1116
f 1110 1109 1144
f 1162 1171 916
f 1160 1172 443
f 1118 1120 1167
f 1132 1168 1121
f 448 1169 1131
f 919 1170 1116
f 1158 1171 1162
f 1159 1172 1160
f 1159 1166 1161
f 1109 1173 1145
f 1146 1120 1113
f 1164 1169 1165
f 1130 1170 988
f 1145 1173 1163
f 1157 1171 1158
f 1003 1172 1159
f 1145 1163 1167
f 1107 1166 1142
f 1156 1173 1123
f 1158 1163 1156
f 1131 1169 1164
f 1116 1170 1130
f 1135 1168 1164
f 1163 1173 1156
f 1161 1166 1107
f 1121 1168 1135
f 1123 1173 1109
f 1174 1175 1176
f 1177 1178 1179
f 1177 1180 1178
f 1181 1182 1183
f 551 563 1184
f 1185 1186 1181
f 1187 1188 1189
f 1186 1185 1190
f 1191 1192 1193
f 1194 1187 1189
f 944 943 1175
f 1195 1196 1197
f 1198 1199 1187
f 1191 1193 1200
f 1198 1201 1199
f 1202 1203 1204
f 1204 1205 1206
f 1207 1208 1209
f 1210 1211 1212
f 1213 1214 1215
f 563 1216 1184
f 1202 1204 1217
f 1218 1219 1220
f 1221 1222 1194
f 1179 1202 1223
f 1224 1225 1226
f 1177 1179 1223
f 1227 1225 1224
f 943 949 1228
f 1229 1230 1206
f 1175 1174 1231
f 1232 1233 1234
f 949 946 1235
f 1236 1197 1237
f 946 979 1238
f 1217 1191 1223
f 1216 1236 1237
f 1239 1240 1241
f 1214 1242 1180
f 1210 1212 1243
f 1186 943 1228
f 1211 1244 1212
f 1085 1096 1196
f 169 1245 1246
f 1182 1181 1228
f 1214 1180 1215
f 1085 1196 1247
f 1248 970 1231
f 1249 1250 1251
f 1235 1182 1228
f 364 1225 1252
f 1180 1242 1224
f 1233 1253 1234
f 1195 1254 1247
f 1218 1238 1219
f 1204 1203 1205
f 1225 364 1255
f 1256 1214 1257
f 1258 1184 1237
f 1222 1221 1254
f 1259 1207 1209
f 1208 1199 1209
f 1260 1250 1249
f 1240 348 1241
f 1258 1256 1261
f 1219 1262 1220
f 1202 1217 1223
f 1180 1224 1178
f 1051 1253 1233
f 1238 979 1233
f 1251 1250 1234
f 1054 1072 1188
f 1194 1263 1187
f 1057 1053 1259
f 1051 1052 1253
f 350 348 1240
f 1202 1264 1203
f 1265 1266 1201
f 1267 1262 1243
f 1262 1210 1243
f 1230 1268 1206
f 1242 1227 1224
f 1269 1257 1200
f 1246 1270 1267
f 299 169 1246
f 1271 1265 1201
f 1198 1272 1201
f 351 1273 1255
f 1196 1195 1247
f 1192 1191 1217
f 351 350 1273
f 1253 1251 1234
f 552 551 1184
f 1274 1263 1222
f 1254 1221 1247
f 970 944 1231
f 1259 1260 1249
f 979 1051 1233
f 970 1248 1275
f 1186 1190 1276
f 1178 1226 1277
f 949 1235 1228
f 1187 1199 1208
f 1278 1279 1181
f 1182 1218 1280
f 1244 581 1212
f 582 1281 1212
f 1202 1179 1264
f 1282 1211 1210
f 568 1244 1271
f 548 1272 1283
f 1271 1244 1265
f 1283 1263 1274
f 1272 555 1271
f 1260 1259 1209
f 303 364 1252
f 1272 1271 1201
f 1246 1245 1270
f 1283 1272 1198
f 632 496 1284
f 1269 1285 1286
f 1227 1287 1225
f 1257 1213 1200
f 1222 1263 1194
f 80 79 1229
f 1201 1266 1199
f 109 124 1288
f 1054 1188 1207
f 1259 1053 1207
f 1289 1245 1290
f 124 1291 1288
f 1232 1210 1262
f 1056 1249 1251
f 1205 1176 1292
f 496 1293 1284
f 1200 1193 1294
f 1290 1295 1278
f 568 581 1244
f 1057 1259 1249
f 582 299 1281
f 364 351 1255
f 1225 1287 1252
f 548 555 1272
f 79 1230 1229
f 1265 1244 1211
f 1180 1177 1215
f 549 1283 1274
f 581 582 1212
f 549 548 1283
f 1267 1270 1220
f 1178 1224 1226
f 555 568 1271
f 1296 1286 1297
f 1287 318 1252
f 1273 1226 1255
f 1221 1194 1298
f 1258 1261 1184
f 1282 1210 1232
f 1265 1299 1266
f 1188 1187 1208
f 1270 1218 1220
f 169 146 1245
f 1277 1226 1273
f 1299 1211 1282
f 1182 1235 1218
f 1188 1072 1189
f 1233 1232 1219
f 1300 510 1274
f 946 1238 1235
f 943 1186 1276
f 1296 552 1184
f 1203 1174 1176
f 1053 1054 1207
f 511 510 1300
f 318 303 1252
f 1253 1052 1251
f 1281 299 1246
f 1245 146 1290
f 1056 1057 1249
f 1226 1225 1255
f 1181 1186 1228
f 1221 1085 1247
f 350 1240 1273
f 1284 1195 1197
f 1235 1238 1218
f 1174 1248 1231
f 510 549 1274
f 1278 1181 1183
f 1265 1211 1299
f 1286 1285 1297
f 1299 1282 1250
f 1052 1056 1251
f 1295 1279 1278
f 347 371 1275
f 1203 1264 1174
f 1205 1203 1176
f 79 109 1230
f 1191 1200 1301
f 371 970 1275
f 511 1300 1293
f 1289 1290 1278
f 1293 1300 1254
f 1288 1192 1268
f 146 142 1290
f 1240 1239 1302
f 348 347 1241
f 145 294 1297
f 1206 1205 1303
f 124 141 1291
f 496 511 1293
f 1176 1175 1190
f 1193 1291 1304
f 600 632 1236
f 1263 1198 1187
f 1204 1268 1217
f 1174 1239 1248
f 1279 1185 1181
f 944 1175 1231
f 1292 1176 1190
f 1288 1291 1192
f 1283 1198 1263
f 108 191 1305
f 1218 1270 1280
f 1270 1245 1289
f 1266 1299 1260
f 142 108 1295
f 141 151 1304
f 1268 1192 1217
f 1284 1293 1195
f 1300 1274 1222
f 1179 1178 1277
f 1268 1204 1206
f 142 1295 1290
f 1248 1239 1241
f 1306 1305 1307
f 1281 1267 1243
f 46 80 1308
f 114 145 1285
f 1256 1286 1261
f 1212 1281 1243
f 1174 1264 1239
f 1207 1188 1208
f 191 46 1307
f 1299 1250 1260
f 1281 1246 1267
f 1291 141 1304
f 1300 1222 1254
f 1269 1200 1294
f 1205 1309 1303
f 1230 109 1288
f 1192 1291 1193
f 108 1305 1295
f 151 114 1310
f 1236 632 1284
f 1238 1233 1219
f 1250 1282 1234
f 1305 191 1307
f 1191 1301 1223
f 1184 1216 1237
f 1308 80 1229
f 1266 1260 1209
f 1295 1305 1279
f 1232 1262 1219
f 46 1308 1307
f 1199 1266 1209
f 1197 1311 1237
f 151 1310 1304
f 1279 1305 1306
f 1072 1082 1189
f 1185 1292 1190
f 1248 1241 1275
f 1195 1293 1254
f 1257 1269 1286
f 1229 1206 1303
f 1309 1205 1292
f 1236 1284 1197
f 1286 1296 1261
f 1197 1196 1311
f 563 600 1216
f 1307 1308 1309
f 1230 1288 1268
f 1261 1296 1184
f 600 1236 1216
f 1256 1257 1286
f 1311 1258 1237
f 1185 1306 1292
f 294 552 1296
f 1279 1306 1185
f 1194 1189 1298
f 1282 1232 1234
f 1306 1307 1309
f 1239 1264 1302
f 1241 347 1275
f 1264 1179 1302
f 1240 1277 1273
f 1270 1289 1280
f 1306 1309 1292
f 1285 145 1297
f 1310 114 1285
f 294 1296 1297
f 1179 1277 1302
f 1200 1213 1301
f 1190 1175 1276
f 1301 1177 1223
f 1193 1304 1294
f 1304 1310 1294
f 1301 1213 1215
f 1308 1229 1303
f 1177 1301 1215
f 1277 1240 1302
f 1310 1285 1269
f 1262 1267 1220
f 1289 1278 1183
f 1189 1082 1298
f 1309 1308 1303
f 1280 1289 1183
f 1310 1269 1294
f 1182 1280 1183
f 1082 1221 1298
f 1082 1085 1221
f 1096 1258 1311
f 1196 1096 1311
f 1175 943 1276
f 1214 1213 1257
f 1312 1313 445
f 1314 1315 1316
f 1317 1318 383
f 1315 1319 1316
f 864 1320 1321
f 1316 1322 1314
f 1322 1323 1324
f 1325 1323 1322
f 909 1325 908
f 1312 1319 1313
f 908 1320 864
f 445 1318 1312
f 1321 1320 1322
f 1321 1322 1316
f 1321 1316 1317
f 909 1326 1325
f 1322 1324 1314
f 1322 1320 1325
f 920 1326 909
f 1155 1323 1157
f 1157 1326 920
f 1151 1324 1155
f 1165 1313 1154
f 1154 1327 1153
f 1153 1315 1152
f 1152 1314 1151
f 1316 1319 1312
f 1313 1319 1327
f 383 1318 445
f 1325 1320 908
f 1316 1312 1317
f 1324 1323 1155
f 1314 1324 1151
f 1154 1313 1327
f 1152 1315 1314
f 1327 1315 1153
f 1325 1326 1323
f 1323 1326 1157
f 1312 1318 1317
f 1327 1319 1315
f 445 1313 449
f 449 1313 1165
f 1328 1329 1330
f 1331 1332 1333
f 1329 1334 1330
f 1335 1331 1333
f 1336 1335 1333
f 1334 1337 1330
f 1338 1335 1336
f 1334 1339 1337
f 1340 1328 1341
f 1332 1342 1343
f 1242 1332 1343
f 1328 427 1341
f 1344 1345 1346
f 1342 1332 1331
f 1328 1340 1329
f 1345 1344 1347
f 315 320 1348
f 734 774 1342
f 854 880 1340
f 1349 1350 1351
f 315 1348 1350
f 424 432 1349
f 1287 1227 1344
f 1342 774 1347
f 1351 1340 1341
f 408 427 1328
f 1242 1214 1332
f 854 1340 1351
f 308 315 1350
f 1349 1351 1341
f 774 1345 1347
f 320 309 1352
f 904 894 1334
f 818 785 1335
f 427 424 1341
f 1227 1242 1343
f 1332 1214 1333
f 408 1328 1330
f 798 818 1338
f 894 862 1339
f 383 385 1353
f 1258 1096 1354
f 1256 1336 1333
f 1337 418 1330
f 320 1352 1355
f 424 1349 1341
f 1344 1227 1343
f 1337 1356 1353
f 1357 1336 1354
f 774 853 1358
f 1340 880 1329
f 734 1342 1331
f 1335 785 1331
f 904 1334 1329
f 311 318 1359
f 306 308 1360
f 818 1335 1338
f 1334 894 1339
f 854 1351 1361
f 774 1358 1345
f 1350 1349 1360
f 432 306 1360
f 318 1287 1359
f 1321 1317 1356
f 1098 1094 1357
f 309 311 1346
f 1256 1258 1336
f 385 418 1337
f 780 798 1362
f 862 864 1363
f 1348 320 1355
f 308 1350 1360
f 880 904 1329
f 785 734 1331
f 1214 1256 1333
f 418 408 1330
f 1339 862 1363
f 798 1338 1362
f 1339 1356 1337
f 1357 1338 1336
f 1094 780 1362
f 864 1321 1363
f 1350 1348 1361
f 1345 1352 1346
f 385 1337 1353
f 1336 1258 1354
f 1351 1350 1361
f 1358 853 1364
f 1345 1358 1352
f 853 854 1364
f 1364 854 1361
f 1356 1339 1363
f 1338 1357 1362
f 1352 309 1346
f 1349 432 1360
f 1287 1344 1359
f 1344 1346 1359
f 1358 1364 1355
f 1356 1317 1353
f 1098 1357 1354
f 1344 1343 1347
f 1343 1342 1347
f 1317 383 1353
f 1096 1098 1354
f 1364 1348 1355
f 1357 1094 1362
f 1321 1356 1363
f 1346 311 1359
f 1352 1358 1355
f 1348 1364 1361
