v -0.47863935 -2.96157127 -0.83790712
v -0.19001088 -2.99397660 -1.44539007
v 0.00000000 -3.00000000 -1.00000000
v -3.00000000 -0.00000000 -2.00000000
v -2.96282027 -0.47084609 -1.37692372
v -3.00000000 -0.00000000 -1.42857143
v 2.93444280 -0.62373507 2.00000000
v 2.96771404 -0.43894575 1.42228918
v 3.00000000 0.00000000 2.00000000
v -2.93444280 -0.62373507 -2.00000000
v -2.83627480 -0.97751997 1.43360651
v -2.95899276 -0.49432968 1.11348670
v -2.81318388 -1.04211153 0.73134264
v -0.70458028 -2.91608756 -1.43352542
v 0.31358539 -2.98356569 -2.00000000
v 0.85406304 -2.87586097 -1.46083585
v 0.32988787 -2.98180717 -1.39784396
v -0.98215482 -2.83467316 -0.91598156
v 0.92705098 -2.85316955 2.00000000
v 0.44226256 -2.96722157 1.41669124
v 0.91027392 -2.85856632 1.39521801
v 0.31358539 -2.98356569 2.00000000
v 0.92705098 -2.85316955 -2.00000000
v -2.95827467 -0.49860905 0.56854022
v -0.40093348 -2.97308802 1.28847632
v 0.03371542 -2.99981054 1.52186376
v -0.31358539 -2.98356569 2.00000000
v -0.81752958 -2.88645897 1.53754131
v -0.43992464 -2.96756909 -0.23226905
v -0.46347164 -2.96398280 0.25126201
v -0.95541615 -2.84379675 0.05661495
v -2.65410900 -1.39846538 1.04031231
v -0.31358539 -2.98356569 -2.00000000
v -0.83644814 -2.88103358 -0.48628523
v -0.92705098 -2.85316955 -2.00000000
v 1.36638246 -2.67076749 -1.47857130
v 1.36638246 -2.67076749 1.47857130
v 1.50000000 -2.59807621 2.00000000
v 1.50000000 -2.59807621 -2.00000000
v -3.00000000 -0.00000000 -0.85714286
v -2.92306174 -0.67506301 -0.90196579
v -2.41100027 -1.78523884 -0.91676745
v -2.59032155 -1.51335200 -0.39185041
v -2.74473584 -1.21096044 -0.91640329
v -2.39483818 -1.80686194 0.13211771
v -2.21441464 -2.02394857 -0.40209342
v -1.24102473 -2.73127399 -1.44564680
v -1.51817973 -2.58749499 -0.92543141
v -1.76607211 -2.42507512 -1.45609707
v -2.68204259 -1.34411590 0.17683996
v -2.84347168 -0.95638318 -0.34155075
v 2.00739182 -2.22943448 -2.00000000
v 1.85555291 -2.35731275 -1.48589954
v 1.85555291 -2.35731275 1.48589954
v 2.00739182 -2.22943448 2.00000000
v -2.74063637 -1.22020993 -2.00000000
v -2.58701399 -1.51899922 -1.44577385
v -2.83290898 -0.98723183 -1.43125063
v 3.00000000 0.00000000 1.50000000
v 3.00000000 0.00000000 1.00000000
v 3.00000000 0.00000000 -1.00000000
v 2.96771404 -0.43894575 -1.42228918
v 3.00000000 0.00000000 -1.50000000
v -1.99748337 -2.23831637 -0.92221930
v -2.42705098 -1.76335576 -2.00000000
v -1.50042670 -2.59782981 0.09595173
v -1.22532191 -2.73835465 0.60110020
v -2.00739182 -2.22943448 -2.00000000
v -2.21959784 -2.01826297 -1.45493095
v -2.87237538 -0.86571338 0.27431204
v -2.21179238 -2.02681387 1.48001457
v -1.75151076 -2.43561287 1.48873606
v -2.00739182 -2.22943448 2.00000000
v -1.26814802 -2.71878660 -0.42569541
v -1.75660054 -2.43194460 -0.41090003
v 2.28828111 -1.94004370 1.48675013
v 2.42705098 -1.76335576 2.00000000
v 2.42705098 -1.76335576 -2.00000000
v 2.28828111 -1.94004370 -1.48675013
v 2.94235584 -0.58527097 -1.00000000
v 2.94235584 -0.58527097 1.00000000
v -1.50000000 -2.59807621 2.00000000
v -1.23389863 -2.73450072 1.46851500
v -0.92705098 -2.85316955 2.00000000
v -1.50000000 -2.59807621 -2.00000000
v -1.98205844 -2.25198675 0.11159967
v -2.42705098 -1.76335576 2.00000000
v -2.56875443 -1.54967760 1.47657626
v -1.73550413 -2.44704422 0.61295383
v -2.93444280 -0.62373507 2.00000000
v -2.74063637 -1.22020993 2.00000000
v -2.54666015 -1.58572446 0.66421005
v 0.58527097 -2.94235584 -1.00000000
v 2.62675650 -1.44918954 1.48631340
v 2.74063637 -1.22020993 2.00000000
v 2.74063637 -1.22020993 -2.00000000
v 2.62675650 -1.44918954 -1.48631340
v -2.96764793 -0.43939249 -0.00531695
v -2.18382761 -2.05691443 0.62871271
v 3.00000000 0.00000000 -2.00000000
v 2.98774573 -0.27087899 -1.74989392
v 2.93444280 -0.62373507 -2.00000000
v -1.47970643 -2.60968751 1.02858490
v -0.91206932 -2.85799398 1.00596320
v 0.58527097 -2.94235584 1.00000000
v 0.00000000 -3.00000000 1.00000000
v -2.96677766 -0.44523067 -0.46523861
v -3.00000000 -0.00000000 0.28571429
v -3.00000000 -0.00000000 0.85714286
v -3.00000000 -0.00000000 -0.28571429
v 2.85627118 -0.91745024 -1.47841908
v 2.85627118 -0.91745024 1.47841908
v 0.00000000 -3.00000000 0.00000000
v 0.00000000 -3.00000000 -0.50000000
v 0.00000000 -3.00000000 0.50000000
v -0.43012800 -2.96900487 0.75650778
v -3.00000000 -0.00000000 1.42857143
v 2.77163860 -1.14805030 1.00000000
v 2.77163860 -1.14805030 -1.00000000
v 2.49440884 -1.66671070 -1.00000000
v 2.49440884 -1.66671070 1.00000000
v 2.12132034 -2.12132034 1.00000000
v 2.12132034 -2.12132034 -1.00000000
v -1.97254476 -2.26032457 1.03695488
v 1.66671070 -2.49440884 1.00000000
v 1.66671070 -2.49440884 -1.00000000
v -3.00000000 -0.00000000 2.00000000
v -2.96650900 -0.44701715 1.56742232
v -2.37461584 -1.83335746 1.03431275
v 1.14805030 -2.77163860 -1.00000000
v 1.14805030 -2.77163860 1.00000000
v -0.80556052 -2.88982218 0.49979490
v -1.39462585 -0.55228501 -1.42677113
v -1.31373665 -0.72394476 -1.72424761
v -1.43036698 -0.45171926 -1.74435338
v -1.26367501 -0.80816179 -1.48587206
v -1.31288826 -0.72548219 1.72403543
v -1.39364925 -0.55474478 1.42614242
v -1.43014499 -0.45242160 1.74417810
v -1.26478913 -0.80641704 1.48348144
v -0.46548524 -1.42594653 1.23495739
v -0.18068949 -1.48907733 1.44328798
v -0.20117953 -1.48644771 1.08945291
v -0.71877184 -1.31657398 1.08864607
v -0.72475220 -1.31329138 1.43489379
v 1.50000000 0.00000000 0.46153846
v 1.48091255 -0.23853305 0.27442094
v 1.48069004 -0.23991041 0.63941998
v 1.42377776 -0.47207721 0.46360931
v 1.21241934 -0.88319836 -1.42954979
v 1.29752400 -0.75261642 -1.72888123
v 1.11141776 -1.00734828 -1.72882268
v 1.29751126 -0.75263838 1.72936040
v 1.21337747 -0.88188158 1.43078254
v 1.11225539 -1.00642335 1.72896258
v -0.18392437 -1.48868124 -1.43695954
v -0.00825239 -1.49997730 -1.72602734
v -0.29182633 -1.47133864 -1.74592578
v 0.85093404 -1.23527781 -1.71416789
v 0.59533689 -1.37679846 -1.54561498
v 0.82229984 -1.25452101 -1.39776041
v 0.59539735 -1.37677231 1.54646085
v 0.85073349 -1.23541593 1.71463411
v 0.82230820 -1.25451553 1.39894901
v -0.88021517 -1.21458687 -1.73042695
v -0.73784686 -1.30597933 -1.43287674
v -0.62357740 -1.36424016 -1.74567707
v -0.46352549 -1.42658477 -2.00000000
v 0.06671811 -1.49851550 1.24160706
v -0.93840581 -1.17021132 1.23481228
v 0.10290545 -1.49646599 -1.49684308
v -0.46207410 -1.42705554 1.51308165
v -0.46147408 -1.42724969 -1.51790132
v 0.60721786 -1.37159997 -1.79934402
v 0.60813633 -1.37119298 1.80142251
v 1.36988736 -0.61107170 -1.50699797
v -0.97127043 -1.14308081 -1.49170211
v 1.36986894 -0.61111300 1.50844640
v -1.47633136 -0.26541611 1.53846154
v 0.15679269 -1.49178284 -2.00000000
v 0.32395409 -1.46460020 -1.70801778
v -1.13397852 -0.98188224 -1.37711380
v -1.12746110 -0.98935912 -1.68981032
v -0.00698738 -1.49998373 1.73246508
v 0.15679269 -1.49178284 2.00000000
v 0.32647174 -1.46404105 1.71168715
v -1.12453773 -0.99268066 1.69132004
v -1.13031050 -0.98610252 1.36845088
v -1.47633136 -0.26541611 -1.53846154
v 1.01761724 -1.10202321 -1.49986165
v 1.01775417 -1.10189675 1.49991381
v 0.46352549 -1.42658477 -2.00000000
v 0.46352549 -1.42658477 2.00000000
v 1.43058702 -0.45102191 -0.16623973
v 1.33796722 -0.67811778 -0.00806154
v 1.42566637 -0.46634258 0.15511585
v 1.46953488 -0.30077772 -1.52547303
v 1.42291165 -0.47468141 -1.75360237
v 1.42291160 -0.47468154 1.75393676
v 1.46955977 -0.30065609 1.52594879
v 1.50000000 0.00000000 -0.46153846
v 1.48189634 -0.23234295 -0.62434991
v 1.48318154 -0.22399226 -0.31284615
v 1.42768066 -0.46013903 -1.31390783
v 1.42711025 -0.46190511 1.31554450
v 1.21038333 -0.88598657 0.46540506
v 1.03325783 -1.08737218 0.62121155
v 1.21068850 -0.88556951 0.77765407
v 1.48397537 -0.21867124 -0.01193666
v -0.46948507 -1.42463461 -0.00155662
v -0.20693150 -1.48565789 -0.15635197
v -0.47105363 -1.42411674 -0.31154487
v 1.03364986 -1.08699953 0.93197785
v -0.20972860 -1.48526560 -0.46560704
v -0.21112605 -1.48506760 -0.77494807
v -0.47368709 -1.42324297 -0.62100816
v 1.34268311 -0.66873168 0.61870007
v 1.21352549 -0.88167788 2.00000000
v 1.42894963 -0.45618303 -0.47650086
v -1.00369591 -1.11471724 -2.00000000
v -1.00369591 -1.11471724 2.00000000
v -0.87497938 -1.21836410 1.73478361
v 1.00369591 -1.11471724 -2.00000000
v 1.34298007 -0.66813512 0.93019526
v 1.21070248 -0.88555039 1.08667736
v 1.34535473 -0.66334053 1.23471033
v 1.34255571 -0.66898742 -0.61853737
v 1.34736066 -0.65925658 -0.31705585
v -0.71635671 -1.31788962 -0.15629142
v 1.21028613 -0.88611934 -0.46467122
v 1.21011454 -0.88635365 -0.15473007
v 1.03275932 -1.08784567 0.31008494
v 0.82205137 -1.25468385 0.46534475
v 0.58513871 -1.38116353 -0.31099346
v 0.58479787 -1.38130788 -0.00112842
v 0.82219137 -1.25459210 -0.15527202
v -1.21352549 -0.88167788 -2.00000000
v -1.21352549 -0.88167788 2.00000000
v 1.21352549 -0.88167788 -2.00000000
v -1.37031819 -0.61010496 -2.00000000
v -1.37031819 -0.61010496 2.00000000
v 1.37031819 -0.61010496 2.00000000
v 1.37031819 -0.61010496 -2.00000000
v 0.58479113 -1.38131073 0.30980297
v 0.82212327 -1.25463673 0.15480691
v -1.13809557 -0.97710720 -0.77357972
v -1.29363696 -0.75927823 -0.92675958
v -1.29233804 -0.76148696 -0.61758380
v 1.00369591 -1.11471724 2.00000000
v -0.94446306 -1.16532807 -0.61868571
v -0.94556202 -1.16443654 -0.92898223
v -0.60810581 -1.37120652 1.73631731
v 1.34627944 -0.66146176 -0.92925563
v 1.21049825 -0.88582955 -0.77483939
v -0.72159774 -1.31502726 -0.77468097
v -0.72186042 -1.31488309 -1.08531895
v -0.15679269 -1.49178284 2.00000000
v -0.31345735 -1.46688258 1.73811044
v 1.34270770 -0.66868231 0.31132383
v -1.13876507 -0.97632685 -1.08386939
v 1.21006906 -0.88641574 0.15504087
v -0.94643112 -1.16373027 -1.23960517
v 0.32858374 -1.46356849 0.15430990
v 1.03280646 -1.08780091 0.00002892
v 1.21063526 -0.88564229 -1.08527654
v -0.47435658 -1.42301997 -0.93037498
v -0.75000000 -1.29903811 2.00000000
v 1.03074567 -1.08975381 1.23638945
v -0.75000000 -1.29903811 -2.00000000
v 0.75000000 -1.29903811 2.00000000
v 0.75000000 -1.29903811 -2.00000000
v 0.82215176 -1.25461806 0.77616657
v 0.58466649 -1.38136349 0.62057258
v 0.32751311 -1.46380844 -0.77501493
v 0.05900894 -1.49883887 -0.93010037
v 0.05985695 -1.49880524 -0.61883426
v 1.34548641 -0.66307338 -1.23254155
v -0.46352549 -1.42658477 2.00000000
v 0.82216005 -1.25461263 1.08732257
v 0.32847830 -1.46359216 0.46504060
v -0.47429126 -1.42304174 -1.24182228
v -0.93869843 -1.16997660 0.92402751
v -0.71560300 -1.31829904 0.77098886
v 0.58402123 -1.38163642 -0.93066092
v 0.32663230 -1.46400524 -1.08616635
v -0.15679269 -1.49178284 -2.00000000
v 0.06196487 -1.49871957 -0.00084332
v 0.32875683 -1.46352962 -0.15603700
v 0.82218627 -1.25459545 -0.46528212
v -1.29127156 -0.76329401 -1.22758802
v -0.20713649 -1.48562932 0.15388867
v 1.03301062 -1.08760704 -0.30979005
v 0.06179539 -1.49872657 0.30950218
v -0.71653108 -1.31779483 0.15348732
v -0.46944463 -1.42464793 0.30818819
v -0.94025754 -1.16872399 -0.00075380
v -0.94039551 -1.16861298 0.30820448
v -0.21109462 -1.48507207 -1.08596518
v -1.13412942 -0.98170793 -0.15538309
v -0.94208720 -1.16724964 -0.31013539
v -1.13627736 -0.97922100 -0.46486701
v -0.46859842 -1.42492650 0.92650413
v -1.29013395 -0.76521526 0.92407525
v -1.13233103 -0.98378170 1.07776682
v -1.13296481 -0.98305175 0.76896837
v -1.13355973 -0.98236568 0.15360725
v 0.06164887 -1.49873260 -0.31008806
v 1.03295339 -1.08766139 -0.61978421
v -0.71554423 -1.31833094 0.46208536
v -0.46814586 -1.42507525 0.61682518
v 0.05853240 -1.49885755 -1.24201650
v 0.58387896 -1.38169655 -1.24213753
v 0.33067143 -1.46309822 1.38912450
v 0.32712005 -1.46389633 1.08711329
v 0.58437326 -1.38148756 0.93163329
v -1.50000000 -0.00000000 -0.46153846
v -1.50000000 -0.00000000 -0.15384615
v -1.47638848 -0.26509819 -0.30775698
v 0.58413852 -1.38158684 1.24319195
v 0.32830296 -1.46363150 0.77579677
v 0.06164453 -1.49873278 0.61978785
v 0.06210385 -1.49871382 0.92949969
v 1.50000000 0.00000000 0.15384615
v 1.50000000 0.00000000 -0.15384615
v -1.50000000 -0.00000000 0.15384615
v -1.47629284 -0.26563029 -0.00016034
v 0.82182934 -1.25482929 -1.08600171
v -0.20653507 -1.48571305 0.46337152
v 1.03290688 -1.08770555 -0.93020139
v 0.33043999 -1.46315051 -1.38828346
v 0.82205334 -1.25468255 -0.77527190
v 0.32826122 -1.46364086 -0.46519914
v -1.50000000 -0.00000000 0.46153846
v -1.50000000 -0.00000000 0.76923077
v -1.47630660 -0.26555383 0.61537054
v -1.47632060 -0.26547595 0.30761872
v -1.50000000 -0.00000000 -0.76923077
v -1.47655880 -0.26414789 -0.61539190
v 1.50000000 0.00000000 -0.76923077
v 1.50000000 0.00000000 -1.07692308
v 1.47771836 -0.25758194 -0.92475694
v 1.50000000 0.00000000 1.07692308
v 1.50000000 0.00000000 0.76923077
v 1.47633136 -0.26541611 0.92307692
v -1.50000000 -0.00000000 1.07692308
v -1.47633136 -0.26541611 0.92307692
v -1.50000000 -0.00000000 -1.07692308
v -1.47643878 -0.26481789 -0.92307295
v -1.28787066 -0.76901832 1.22513325
v -1.29041675 -0.76473827 -0.00050916
v -1.40579287 -0.52320780 0.15372117
v -1.29043873 -0.76470117 0.30851844
v -1.40592493 -0.52285285 -0.15430978
v -1.50000000 -0.00000000 -1.38461538
v -1.47643303 -0.26484999 -1.23076386
v 1.50000000 0.00000000 1.38461538
v 1.47882664 -0.25114094 1.22524525
v 1.50000000 0.00000000 -1.38461538
v 1.47986179 -0.24496751 -1.22283822
v -1.50000000 -0.00000000 1.38461538
v -1.47633915 -0.26537276 1.23069324
v -1.50000000 -0.00000000 1.69230769
v -1.50000000 -0.00000000 -1.69230769
v 1.50000000 0.00000000 1.69230769
v 1.50000000 0.00000000 -1.69230769
v 1.03295403 -1.08766078 -1.24082386
v 0.58459753 -1.38139268 -0.62051240
v -1.40581657 -0.52314411 1.07769327
v -1.40578909 -0.52321796 0.76966588
v -0.71966186 -1.31608769 -0.46550286
v -1.29158971 -0.76275554 -0.30910608
v -1.40574566 -0.52333464 0.46179988
v -1.29025110 -0.76501771 0.61580013
v -1.40671250 -0.52073020 -0.46175379
v -1.13394128 -0.98192524 0.46144066
v -0.94021355 -1.16875938 0.61618818
v -0.96436135 -1.14891565 1.49019598
v -0.20561025 -1.48584132 0.77190287
v -1.40649414 -0.52131971 -1.07719483
v -1.40684567 -0.52037031 -0.77007415
v -1.46722140 -0.31186754 -2.00000000
v -1.46722140 -0.31186754 2.00000000
v 1.46722140 -0.31186754 -2.00000000
v 1.46722140 -0.31186754 2.00000000
v 0.10556324 -1.49628086 1.50020192
v 1.42635782 -0.46422341 -0.76997108
v 1.42617691 -0.46477889 0.76991297
v -1.50000000 -0.00000000 -2.00000000
v -1.48547326 -0.20825272 -1.79128178
v -1.50000000 -0.00000000 2.00000000
v -1.48544885 -0.20842676 1.79123980
v 1.50000000 0.00000000 2.00000000
v 1.48299602 -0.22521721 1.77577717
v 1.50000000 0.00000000 -2.00000000
v 1.48299602 -0.22521721 -1.77577717
v 1.42692270 -0.46248417 1.07564490
v 1.42700997 -0.46221484 -1.07495638
v 1.31368000 0.72404756 1.72420054
v 1.39463150 0.55227075 1.42674091
v 1.43036065 0.45173932 1.74434008
v 1.26368322 0.80814894 1.48580321
v 1.39362379 0.55480874 -1.42616284
v 1.31279357 0.72565353 -1.72401126
v 1.43013003 0.45246889 -1.74417465
v 1.26472462 0.80651821 -1.48345953
v 0.18048677 1.48910192 -1.44321769
v 0.46548521 1.42594654 -1.23495741
v 0.20111380 1.48645661 -1.08938479
v 0.71876896 1.31657555 -1.08863419
v 0.72463736 1.31335475 -1.43487687
v -1.48092066 0.23848271 -0.27431691
v -1.48077875 0.23936225 -0.63944242
v -1.42378180 0.47206501 -0.46344596
v -1.29744378 0.75275470 1.72889880
v -1.21228697 0.88338004 1.42967106
v -1.11121966 1.00756680 1.72879654
v 0.00828705 1.49997711 1.72608230
v 0.18397875 1.48867452 1.43706263
v 0.29183829 1.47133627 1.74593574
v -1.21351397 0.88169374 -1.43067505
v -1.29759338 0.75249679 -1.72934367
v -1.11253305 1.00611640 -1.72901990
v -0.59523577 1.37684218 1.54573237
v -0.85075304 1.23540247 1.71419890
v -0.82219309 1.25459098 1.39786246
v -0.85091787 1.23528894 -1.71460982
v -0.59552361 1.37671770 -1.54632007
v -0.82243571 1.25443194 -1.39884518
v 0.73795743 1.30591685 1.43287782
v 0.88058961 1.21431542 1.72989411
v 0.62365612 1.36420418 1.74564774
v 0.46352549 1.42658477 2.00000000
v -0.06683564 1.49851026 -1.24148161
v 0.93840581 1.17021132 -1.23481230
v -0.10284041 1.49647046 1.49696419
v 0.46196271 1.42709161 -1.51305070
v 0.46153564 1.42722978 1.51798864
v -0.60718993 1.37161233 1.79941838
v -0.60816505 1.37118025 -1.80134157
v -1.36988581 0.61107517 1.50711961
v 0.97140023 1.14297051 1.49157823
v -1.36987046 0.61110957 -1.50832635
v 1.47633136 0.26541611 -1.53846154
v 1.12756036 0.98924599 1.68967100
v 1.13397664 0.98188440 1.37708184
v -0.15679269 1.49178284 2.00000000
v -0.32393112 1.46460528 1.70810219
v -0.15679269 1.49178284 -2.00000000
v 0.00678526 1.49998465 -1.73240120
v -0.32659773 1.46401295 -1.71154006
v 1.13026772 0.98615155 -1.36838029
v 1.12450390 0.99271898 -1.69125353
v 1.47633136 0.26541611 1.53846154
v -1.01748689 1.10214357 1.49995054
v -1.01791482 1.10174834 -1.49986097
v -0.46352549 1.42658477 2.00000000
v -0.46352549 1.42658477 -2.00000000
v -1.33798590 0.67808092 0.00828092
v -1.43060116 0.45097706 0.16639128
v -1.42569090 0.46626759 -0.15486542
v -1.42289984 0.47471680 1.75361071
v -1.46953429 0.30078063 1.52538861
v -1.46956082 0.30065097 -1.52603263
v -1.42292377 0.47464506 -1.75392864
v -1.48172583 0.23342788 0.62420851
v -1.48316910 0.22407461 0.31287559
v -1.42756249 0.46050554 1.31411443
v -1.42712989 0.46184442 -1.31526624
v -1.03329950 1.08733258 -0.62102783
v -1.21040466 0.88595742 -0.46520147
v -1.21072503 0.88551956 -0.77743765
v -1.48398073 0.21863482 0.01200947
v 0.20692948 1.48565817 0.15646176
v 0.46947219 1.42463885 0.00164733
v 0.47106200 1.42411397 0.31163618
v -1.03369539 1.08695623 -0.93177464
v 0.21116096 1.48506264 0.77505747
v 0.20973656 1.48526448 0.46571518
v 0.47371422 1.42323394 0.62109921
v -1.34268903 0.66871979 -0.61849855
v -1.42896050 0.45614897 0.47663349
v 1.21352549 0.88167788 -2.00000000
v 1.21352549 0.88167788 2.00000000
v -1.21352549 0.88167788 2.00000000
v -1.00369591 1.11471724 -2.00000000
v -1.34301401 0.66806688 -0.92995978
v -1.34537683 0.66329570 -1.23458077
v -1.21075867 0.88547357 -1.08646126
v -1.34735899 0.65925999 0.31727693
v -1.34255906 0.66898070 0.61873958
v 0.71635487 1.31789063 0.15636460
v -1.21027469 0.88613497 0.46488965
v -0.82208942 1.25465891 -0.46516778
v -1.03277975 1.08782627 -0.30990077
v -1.21011504 0.88635298 0.15494905
v 0.60792505 1.37128667 -1.73627554
v 0.87482385 1.21847578 -1.73471939
v -1.21352549 0.88167788 -2.00000000
v 1.37031819 0.61010496 -2.00000000
v -1.37031819 0.61010496 -2.00000000
v 1.37031819 0.61010496 2.00000000
v -1.37031819 0.61010496 2.00000000
v 0.75000000 1.29903811 -2.00000000
v 1.29365828 0.75924190 0.92677469
v 1.13812325 0.97707496 0.77361399
v 1.29234016 0.76148337 0.61757976
v 1.00369591 1.11471724 -2.00000000
v 1.00369591 1.11471724 2.00000000
v -1.00369591 1.11471724 2.00000000
v 0.94560865 1.16439868 0.92902584
v 0.94448753 1.16530825 0.61873910
v -0.58490502 1.38126251 0.00100863
v -0.58522447 1.38112719 0.31104295
v -0.82224866 1.25455456 0.15541228
v -1.21047473 0.88586168 0.77505980
v -1.34625500 0.66151150 0.92949747
v 0.72192062 1.31485004 1.08539215
v 0.72163535 1.31500662 0.77475380
v -1.34272748 0.66864259 -0.31108920
v 0.94652443 1.16365437 1.23958267
v -0.58487323 1.38127597 -0.30961492
v -0.82215134 1.25461834 -0.15465428
v 1.13881109 0.97627316 1.08389128
v 0.46352549 1.42658477 -2.00000000
v 0.31329894 1.46691642 -1.73809097
v -1.21008224 0.88639775 -0.15482399
v -1.03281372 1.08779402 0.00017723
v -1.21059485 0.88569753 1.08550966
v 0.47440872 1.42300259 0.93046756
v -1.03085159 1.08965362 -1.23621927
v 0.75000000 1.29903811 2.00000000
v -0.75000000 1.29903811 2.00000000
v -0.75000000 1.29903811 -2.00000000
v -0.58473219 1.38133568 -0.62039079
v -0.82220560 1.25458278 -0.77599495
v -0.05895053 1.49884116 0.93023885
v -0.32749394 1.46381273 0.77514356
v -0.05986465 1.49880493 0.61895837
v -1.34547443 0.66309770 1.23271038
v -0.32864350 1.46355507 -0.15419798
v -0.82223315 1.25456473 -1.08704140
v 0.15679269 1.49178284 -2.00000000
v -0.32853634 1.46357913 -0.46488266
v -0.32881451 1.46351666 0.15614316
v 0.47436837 1.42301604 1.24192866
v 0.93869020 1.16998321 -0.92401268
v 0.71556942 1.31831726 -0.77096689
v -0.32656027 1.46402131 1.08632229
v -0.58396099 1.38166188 0.93080855
v 0.15679269 1.49178284 2.00000000
v -0.06197957 1.49871896 0.00097310
v 1.29130602 0.76323573 1.22757638
v 0.20710097 1.48563427 -0.15376783
v -1.03300428 1.08761305 0.30999028
v -0.06183706 1.49872485 -0.30933581
v 0.71650788 1.31780744 -0.15342043
v 0.46938458 1.42466772 -0.30809825
v 0.94036928 1.16863408 -0.30815854
v 0.94024769 1.16873191 0.00080787
v 0.21117273 1.48506097 1.08608882
v 0.94209405 1.16724411 0.31018973
v 1.13412855 0.98170894 0.15541740
v 1.13628807 0.97920857 0.46489905
v 0.46856872 1.42493626 -0.92647513
v 1.13230385 0.98381298 -1.07770446
v 1.29011969 0.76523931 -0.92408699
v 1.13295698 0.98306077 -0.76896037
v -0.82217992 1.25459961 0.46543913
v 1.13354423 0.98238358 -0.15357544
v -0.05840629 1.49886247 1.24223642
v 0.71549976 1.31835507 -0.46203838
v 0.46809512 1.42509191 -0.61676009
v -0.06165471 1.49873236 0.31020752
v -1.03293532 1.08767855 0.61999678
v -0.32825597 1.46364204 0.46531372
v -0.58380167 1.38172921 1.24228716
v -0.06171311 1.49872996 -0.61962855
v -0.32841045 1.46360739 -0.77557120
v -0.06218062 1.49871064 -0.92937164
v -0.32722332 1.46387325 -1.08699662
v -0.33081601 1.46306554 -1.38894631
v -0.58445849 1.38145151 -0.93145697
v -0.58424834 1.38154040 -1.24289348
v 1.47632111 0.26547315 0.00003637
v -1.03286601 1.08774437 0.93041446
v -0.33035691 1.46316927 1.38843648
v -0.82176016 1.25487459 1.08618498
v -0.82201800 1.25470570 0.77545023
v 1.47638923 0.26509402 0.30769063
v 1.47630168 0.26558113 -0.30767346
v 1.47656091 0.26413610 0.61534877
v 0.20647965 1.48572075 -0.46324286
v 1.47629258 0.26563171 -0.61541127
v -1.47772598 0.25753822 -0.92473737
v -1.47633136 0.26541611 0.92307692
v 1.47630818 0.26554500 -0.92317728
v 1.47643911 0.26481610 0.92306903
v 1.29041510 0.76474105 0.00051524
v 1.40578708 0.52322337 -0.15375782
v 1.29041814 0.76473591 -0.30850778
v 1.40593628 0.52282231 0.15425782
v -1.47897657 0.25025646 -1.22544246
v -1.47965803 0.24619528 1.22255742
v 1.47643375 0.26484594 1.23076367
v 1.47634527 0.26533875 -1.23086057
v 1.28781470 0.76911202 -1.22508780
v -1.03286846 1.08774204 1.24110170
v -0.58465700 1.38136751 0.62064259
v 1.40579818 0.52319354 -1.07773880
v 1.40576355 0.52328658 -0.76970544
v 0.71967945 1.31607807 0.46557567
v 1.29159403 0.76274823 0.30908746
v 1.40573237 0.52337034 -0.46184102
v 1.29022768 0.76505721 -0.61580561
v 1.40670511 0.52075016 0.46162979
v 1.13391488 0.98195573 -0.46142117
v 0.94019274 1.16877612 -0.61616193
v 0.96428123 1.14898290 -1.49016494
v 0.20562230 1.48583965 -0.77176958
v 1.40650323 0.52129519 1.07719109
v 1.40684925 0.52036063 0.77005068
v 1.46722140 0.31186754 2.00000000
v 1.46722140 0.31186754 -2.00000000
v -1.46722140 0.31186754 2.00000000
v -1.46722140 0.31186754 -2.00000000
v -0.10570220 1.49627105 -1.50007459
v -1.42615805 0.46483675 -0.76991479
v -1.42638022 0.46415458 0.76996976
v 1.48547261 0.20825735 1.79127863
v 1.48544716 0.20843883 -1.79123894
v -1.48299602 0.22521721 -1.77577717
v -1.48299602 0.22521721 1.77577717
v -1.42659529 0.46349312 -1.07327739
v -1.42691858 0.46249687 1.07692308
v 0.00000000 3.00000000 -1.00000000
v -0.18826728 2.99408674 -1.44427065
v -0.48835269 2.95998508 -0.83320806
v 2.93444280 0.62373507 -2.00000000
v 2.96771404 0.43894575 -1.42228918
v -2.82023599 1.02287289 0.68669643
v -2.96109454 0.48157980 1.11033280
v -2.83798249 0.97255098 1.43362439
v -0.70499791 2.91598662 -1.43356535
v -0.96813193 2.83949301 0.07400986
v -0.47651805 2.96191332 0.25837036
v -0.45167720 2.96580305 -0.22716993
v 0.33052258 2.98173688 -1.39747746
v 0.85412665 2.87584208 -1.46081301
v 0.31358539 2.98356569 -2.00000000
v -0.99482689 2.83025078 -0.90915828
v -0.86004570 2.87407748 -0.46684155
v 0.91042178 2.85851923 1.39516818
v 0.44261116 2.96716959 1.41653917
v 0.92705098 2.85316955 2.00000000
v -2.66621226 1.37524986 1.04205700
v 0.31358539 2.98356569 2.00000000
v 0.92705098 2.85316955 -2.00000000
v -0.31358539 2.98356569 2.00000000
v 0.02882759 2.99986149 1.52409286
v -0.40408591 2.97266119 1.28781758
v -0.79197362 2.89357526 1.55642111
v -0.31358539 2.98356569 -2.00000000
v -2.96011972 0.48753587 0.57142857
v 1.36638246 2.67076749 1.47857130
v 1.36638246 2.67076749 -1.47857130
v -1.77100472 2.42147523 -1.45716617
v -1.52352797 2.58434953 -0.92551844
v -1.24199890 2.73083114 -1.44681847
v 1.50000000 2.59807621 2.00000000
v 1.50000000 2.59807621 -2.00000000
v -2.92182058 0.68041494 -0.89640410
v -2.96267715 0.47174582 -1.34711570
v -0.92705098 2.85316955 -2.00000000
v 2.00739182 2.22943448 2.00000000
v 1.85555291 2.35731275 1.48589954
v 1.85555291 2.35731275 -1.48589954
v 2.00739182 2.22943448 -2.00000000
v -1.30321232 2.70215426 -0.42220310
v -2.82844463 0.99995049 -1.42981493
v -2.72968175 1.24452303 -0.91113901
v -1.51953666 2.58669835 0.10875694
v 2.96771404 0.43894575 1.42228918
v -2.00803945 2.22885117 -0.92211106
v -2.84749623 0.94433323 -0.34958970
v -2.68740863 1.33335473 0.17092166
v -2.58358293 1.52482762 -0.38122740
v -1.50000000 2.59807621 -2.00000000
v -2.58352003 1.52493418 -1.45210572
v -2.21878866 2.01915251 -0.40191953
v -2.40604223 1.79191540 0.12788010
v -2.42199608 1.77029234 -0.92122740
v -1.25408472 2.72530210 0.61575699
v -2.00739182 2.22943448 2.00000000
v -1.75384857 2.43392999 1.47329604
v -2.21685053 2.02128022 1.48189221
v -2.23013451 2.00661408 -1.46202298
v -1.77188678 2.42082986 -0.40304374
v 2.28828111 1.94004370 -1.48675013
v 2.42705098 1.76335576 -2.00000000
v 2.42705098 1.76335576 2.00000000
v 2.28828111 1.94004370 1.48675013
v 2.94235584 0.58527097 1.00000000
v 2.94235584 0.58527097 -1.00000000
v -0.92705098 2.85316955 2.00000000
v -1.22020993 2.74063637 1.45710286
v -1.50000000 2.59807621 2.00000000
v -2.96659019 0.44647805 -0.45929600
v -2.87443564 0.85884794 0.26222716
v -2.42705098 1.76335576 -2.00000000
v -1.99935063 2.23664862 0.11366507
v -2.74063637 1.22020993 2.00000000
v -2.57578975 1.53795551 1.47820988
v -2.00739182 2.22943448 -2.00000000
v -1.76162582 2.42830692 0.61163462
v -0.91973988 2.85553472 1.00765733
v -1.49815145 2.59914260 1.04590705
v -2.96784588 0.43805348 -0.00848537
v -2.93444280 0.62373507 2.00000000
v -2.93444280 0.62373507 -2.00000000
v -2.74063637 1.22020993 -2.00000000
v -2.42705098 1.76335576 2.00000000
v 0.58527097 2.94235584 -1.00000000
v 2.74063637 1.22020993 2.00000000
v 2.62675650 1.44918954 1.48631340
v 2.62675650 1.44918954 -1.48631340
v 2.74063637 1.22020993 -2.00000000
v -2.56153329 1.56158483 0.65517103
v 2.98774573 0.27087899 1.74989392
v 2.93444280 0.62373507 2.00000000
v -2.98774609 0.27087511 -1.71546339
v 0.00000000 3.00000000 1.00000000
v 0.58527097 2.94235584 1.00000000
v -2.20449954 2.03474367 0.62535894
v 2.85627118 0.91745024 -1.47841908
v 2.85627118 0.91745024 1.47841908
v 0.00000000 3.00000000 -0.50000000
v 0.00000000 3.00000000 0.00000000
v 0.00000000 3.00000000 0.50000000
v -0.43883533 2.96773037 0.75458196
v -0.82976338 2.88296596 0.53853981
v 2.77163860 1.14805030 -1.00000000
v 2.77163860 1.14805030 1.00000000
v 2.49440884 1.66671070 -1.00000000
v 2.49440884 1.66671070 1.00000000
v 2.12132034 2.12132034 -1.00000000
v 2.12132034 2.12132034 1.00000000
v 1.66671070 2.49440884 -1.00000000
v 1.66671070 2.49440884 1.00000000
v -2.96706430 0.44331644 1.56734466
v 1.14805030 2.77163860 1.00000000
v 1.14805030 2.77163860 -1.00000000
v -1.98774004 2.24697342 1.04614463
v -2.39665303 1.80445401 1.04626059
v 1.02507569 -2.29383551 -2.00000000
v 0.64879580 -1.98933393 -2.00000000
v 1.05769635 -1.83007472 -2.00000000
v 2.38811661 0.77900943 -2.00000000
v 2.04220660 0.43521610 -2.00000000
v 1.93060875 0.86060729 -2.00000000
v -2.37529298 0.76771452 -2.00000000
v 1.00556148 2.31269193 -2.00000000
v 1.88585827 -1.67665098 -2.00000000
v 2.37535407 -0.76765952 -2.00000000
v 2.48044088 0.26061470 -2.00000000
v 0.52270929 -2.44099059 -2.00000000
v -1.04569638 2.29474873 -2.00000000
v 1.86459198 1.70026959 -2.00000000
v -2.48038004 -0.26069845 -2.00000000
v -0.50283332 -2.47113564 -2.00000000
v -1.46446251 -2.05297400 -2.00000000
v -2.17667691 -1.27487058 -2.00000000
v -1.88864958 1.67103425 -2.00000000
v -0.02193278 2.52168032 -2.00000000
v 2.48350689 -0.26047379 -2.00000000
v 2.03927868 -0.43274018 -2.00000000
v 2.08470596 0.00028011 -2.00000000
v -2.48348657 0.26046900 -2.00000000
v -2.03926163 0.43274676 -2.00000000
v -2.08461268 -0.00023931 -2.00000000
v 2.17624685 1.25891788 -2.00000000
v 1.47961907 -2.03277071 -2.00000000
v -1.52615882 -0.89820706 -2.00000000
v -1.68150855 -0.55412730 -2.00000000
v -0.01777806 1.76896206 -2.00000000
v 0.34767310 1.74591399 -2.00000000
v -0.73574276 1.60879627 -2.00000000
v -0.39251201 1.73638318 -2.00000000
v -0.35162238 -1.73311565 -2.00000000
v -0.70307154 -1.63547628 -2.00000000
v 0.70328383 1.62329226 -2.00000000
v 1.02784606 1.45371432 -2.00000000
v -1.02538706 -1.44157005 -2.00000000
v -1.30749594 -1.20811697 -2.00000000
v -1.32511099 1.17107174 -2.00000000
v -1.06482823 1.42661595 -2.00000000
v 1.47073412 2.03568161 -2.00000000
v 2.17384697 -1.25079790 -2.00000000
v -1.01354839 -2.29682652 -2.00000000
v 0.00527953 -2.50715875 -2.00000000
v -0.53006289 2.45392049 -2.00000000
v -1.48233592 2.02617192 -2.00000000
v -1.86158534 -1.68521086 -2.00000000
v -2.17389935 1.24899030 -2.00000000
v 0.51385247 2.45738598 -2.00000000
v 1.30679010 1.19642342 -2.00000000
v 1.52999219 0.89189873 -2.00000000
v 1.32508471 -1.17518699 -2.00000000
v 1.04694055 -1.42838193 -2.00000000
v -1.70097598 -1.25154873 -2.00000000
v -1.91890317 -0.85988904 -2.00000000
v 1.70208872 1.24777063 -2.00000000
v 1.41848922 -1.56245567 -2.00000000
v 1.40430246 1.57850689 -2.00000000
v 1.71573636 -1.23166871 -2.00000000
v -2.04119079 -0.43464770 -2.00000000
v -2.38103069 -0.77645787 -2.00000000
v -1.04041777 -1.83301735 -2.00000000
v -0.23570491 2.09448441 -2.00000000
v -1.06723071 1.81753690 -2.00000000
v 0.63657592 2.00930749 -2.00000000
v -0.20542019 -2.09697141 -2.00000000
v -1.71332041 1.22638481 -2.00000000
v 1.04138398 1.83553242 -2.00000000
v 0.20378096 2.09962237 -2.00000000
v -0.66782494 2.00097833 -2.00000000
v -0.63615226 -2.01109047 -2.00000000
v -1.40005410 -1.57873966 -2.00000000
v -1.42357931 1.55646926 -2.00000000
v 0.22594861 -2.08895036 -2.00000000
v -1.92072920 0.84877050 -2.00000000
v 1.92116629 -0.84995810 -2.00000000
v 0.71722140 -1.61090564 -2.00000000
v 1.67705098 0.54490690 -2.00000000
v 1.75369591 -0.18432087 -2.00000000
v -1.75369591 0.18432087 -2.00000000
v 0.36875126 -1.72452030 -2.00000000
v 1.75369591 0.18432087 -2.00000000
v -1.75369591 -0.18432087 -2.00000000
v 1.67787984 -0.54292586 -2.00000000
v -1.67785401 0.54291219 -2.00000000
v 0.01557598 -1.77472721 -2.00000000
v 1.54490181 -0.87395641 -2.00000000
v -1.54474684 0.87387441 -2.00000000
v -2.50466126 -0.22178519 2.00000000
v -2.50323556 0.29369409 2.00000000
v -2.10297386 0.04903861 2.00000000
v 1.52787311 -0.90761135 2.00000000
v 1.68566368 -0.56152416 2.00000000
v -1.77231222 -0.15893111 2.00000000
v -1.70575042 -0.52418910 2.00000000
v 1.92561837 -0.87987231 2.00000000
v 1.69697104 -1.26768179 2.00000000
v 2.17511421 -1.27731090 2.00000000
v -2.06867734 -0.41148107 2.00000000
v 1.02507569 2.29383551 2.00000000
v 0.64879580 1.98933393 2.00000000
v 1.05769635 1.83007472 2.00000000
v 1.00198199 -2.28870593 2.00000000
v 1.88585827 1.67665098 2.00000000
v 2.37535407 0.76765952 2.00000000
v -1.04032291 -2.29763288 2.00000000
v 1.85604256 -1.71678751 2.00000000
v 0.52270929 2.44099059 2.00000000
v -2.19324308 -1.24792015 2.00000000
v -0.50283332 2.47113564 2.00000000
v 2.48215117 -0.25826069 2.00000000
v -0.02193278 -2.52168032 2.00000000
v -1.46446251 2.05297400 2.00000000
v -2.17287217 1.27982629 2.00000000
v 2.48379194 0.26086613 2.00000000
v 2.03934399 0.43275293 2.00000000
v 2.08518892 -0.00052259 2.00000000
v 2.38177648 -0.78190863 2.00000000
v -1.43095032 -1.56926410 2.00000000
v -1.87560879 -1.68088305 2.00000000
v -1.49783423 -2.03247626 2.00000000
v 1.47961907 2.03277071 2.00000000
v -0.73498354 -1.60975941 2.00000000
v -0.39251201 -1.73638318 2.00000000
v -0.01777806 -1.76896206 2.00000000
v 0.34767310 -1.74591399 2.00000000
v -1.52307438 0.89987632 2.00000000
v -1.68583033 0.57185885 2.00000000
v 0.70322101 -1.62320014 2.00000000
v 1.02756254 -1.45329340 2.00000000
v -0.35162238 1.73311565 2.00000000
v -0.70307154 1.63547628 2.00000000
v -1.02538706 1.44157005 2.00000000
v -1.30749594 1.20811697 2.00000000
v -2.38990062 -0.76612919 2.00000000
v 2.17384697 1.25079790 2.00000000
v -1.01354839 2.29682652 2.00000000
v -0.52916731 -2.45440118 2.00000000
v 0.00527953 2.50715875 2.00000000
v 0.51315212 -2.45271582 2.00000000
v -1.86012573 1.68600651 2.00000000
v 1.32508471 1.17518699 2.00000000
v 1.04694055 1.42838193 2.00000000
v -1.54316580 -0.87245016 2.00000000
v -1.32435056 -1.17962988 2.00000000
v 2.04589090 -0.44081399 2.00000000
v 1.46705908 -2.03797392 2.00000000
v 1.41848922 1.56245567 2.00000000
v -1.71729737 -1.23283963 2.00000000
v 1.71573636 1.23166871 2.00000000
v -1.93646565 -0.84689045 2.00000000
v 1.39447456 -1.59986059 2.00000000
v -1.04041777 1.83301735 2.00000000
v -0.23570491 -2.09448441 2.00000000
v 0.63595330 -2.00527250 2.00000000
v -0.20542019 2.09697141 2.00000000
v -1.69602304 1.25136689 2.00000000
v -1.92585589 0.88568407 2.00000000
v -1.06613961 -1.81873131 2.00000000
v -0.66647171 -2.00189873 2.00000000
v 0.20356046 -2.09817152 2.00000000
v -0.63615226 2.01109047 2.00000000
v -1.39898534 1.57884196 2.00000000
v 1.03954345 -1.82336375 2.00000000
v 1.30270341 -1.22464805 2.00000000
v -1.78009696 0.22563402 2.00000000
v -2.06759572 0.49165896 2.00000000
v -2.40973971 0.81951707 2.00000000
v 0.22594861 2.08895036 2.00000000
v 1.92117717 0.84996022 2.00000000
v 0.71722140 1.61090564 2.00000000
v 1.75369591 0.18432087 2.00000000
v -1.05633979 -1.42738097 2.00000000
v 1.67787984 0.54292586 2.00000000
v 0.36875126 1.72452030 2.00000000
v 1.75369591 -0.18432087 2.00000000
v 0.01557598 1.77472721 2.00000000
v 1.54490181 0.87395641 2.00000000
v 3.46218193 2.10809056 1.00000000
v 4.09101154 2.21080384 1.00000000
v 3.46290682 3.00000000 1.00000000
v 4.07516390 0.73351111 1.00000000
v 3.78628538 1.49502608 1.00000000
v 3.35449126 0.99647738 1.00000000
v 3.46290682 -3.00000000 1.00000000
v 3.39072239 -2.15475941 1.00000000
v 2.73492547 -2.32477853 1.00000000
v 4.39677727 3.00000000 1.00000000
v 2.52903636 -3.00000000 1.00000000
v 2.12943176 -2.58810154 1.00000000
v 1.59516591 -3.00000000 1.00000000
v 1.59516591 3.00000000 1.00000000
v 2.13624565 2.58764946 1.00000000
v 2.52903636 3.00000000 1.00000000
v 4.51598573 1.47707862 1.00000000
v 5.99817186 -0.55176832 1.00000000
v 5.21589893 -0.77151074 1.00000000
v 5.91757742 -1.36781871 1.00000000
v 6.70220227 -1.06368132 1.00000000
v 6.71786771 -2.06675501 1.00000000
v 5.12423656 -1.53004910 1.00000000
v 9.19153812 0.45076627 1.00000000
v 8.32315167 -0.12906505 1.00000000
v 9.14061760 -0.51065141 1.00000000
v 7.50230293 -1.44708895 1.00000000
v 8.34464108 0.66058324 1.00000000
v 9.11847425 1.45560708 1.00000000
v 3.47687840 0.32675420 1.00000000
v 5.74708719 -2.22314775 1.00000000
v 4.86291897 -2.23515819 1.00000000
v 2.76899493 2.32251812 1.00000000
v 5.33064773 -3.00000000 1.00000000
v 5.36380960 1.39330773 1.00000000
v 4.92193211 2.18462778 1.00000000
v 8.25171973 1.50428499 1.00000000
v 4.04009845 -0.04057343 1.00000000
v 3.95411372 -0.78652212 1.00000000
v 4.60852635 -0.38674634 1.00000000
v 4.38929581 -1.53543800 1.00000000
v 4.01998155 -2.24402755 1.00000000
v 5.80005270 2.21352154 1.00000000
v 5.33064773 3.00000000 1.00000000
v 4.52651841 -0.95856658 1.00000000
v 4.39677727 -3.00000000 1.00000000
v 7.58730081 1.12469889 1.00000000
v 7.63798180 2.07255180 1.00000000
v 3.46255925 -0.34260705 1.00000000
v 3.67811077 -1.57104962 1.00000000
v 3.33163965 -1.01072405 1.00000000
v 6.26451818 -3.00000000 1.00000000
v 6.97453881 1.53514578 1.00000000
v 6.23996792 1.51557718 1.00000000
v 6.26451818 3.00000000 1.00000000
v 6.69397970 2.22000309 1.00000000
v 8.27703572 -1.00087960 1.00000000
v 9.07297030 -1.53264848 1.00000000
v 10.00000000 -1.00000000 1.00000000
v 10.00000000 0.00000000 1.00000000
v 7.19838864 -3.00000000 1.00000000
v 10.00000000 2.00000000 1.00000000
v 10.00000000 1.00000000 1.00000000
v 7.69613539 -2.25803885 1.00000000
v 10.00000000 -2.00000000 1.00000000
v 7.19838864 3.00000000 1.00000000
v 8.13225909 3.00000000 1.00000000
v 3.05768737 -1.63394134 1.00000000
v 8.13225909 -3.00000000 1.00000000
v 7.47168575 -0.60789400 1.00000000
v 3.11122658 1.63210764 1.00000000
v 8.57020069 2.20798394 1.00000000
v 9.06612955 3.00000000 1.00000000
v 8.57461898 -2.29792951 1.00000000
v 7.51339175 0.23368522 1.00000000
v 6.73248669 -0.18132050 1.00000000
v 6.71346381 0.74289794 1.00000000
v 6.00824935 0.23092868 1.00000000
v 9.06612955 -3.00000000 1.00000000
v 5.30201766 -0.07448109 1.00000000
v 4.79390079 0.89041349 1.00000000
v 4.66134537 0.30749905 1.00000000
v 5.93170674 0.89798737 1.00000000
v 5.34022217 0.62472093 1.00000000
v 8.22461266 -1.70731708 1.00000000
v 10.00000000 3.00000000 1.00000000
v 9.31278084 2.29428334 1.00000000
v 9.33715278 -2.33941641 1.00000000
v 10.00000000 -3.00000000 1.00000000
v 0.69120231 -3.00000000 1.00000000
v 0.69120231 3.00000000 1.00000000
v 3.87463814 2.15003492 -1.00000000
v 3.21254814 1.59210463 -1.00000000
v 2.83686152 2.30942904 -1.00000000
v 6.98966740 1.35048755 -1.00000000
v 7.61775905 2.21069093 -1.00000000
v 8.10222352 1.49673125 -1.00000000
v 4.69013792 0.25848366 -1.00000000
v 4.04534856 -0.05612584 -1.00000000
v 4.10932217 0.78295220 -1.00000000
v 3.46290682 3.00000000 -1.00000000
v 7.72657581 0.73290895 -1.00000000
v 4.39677727 -3.00000000 -1.00000000
v 3.63357695 -2.24094888 -1.00000000
v 4.27479132 -2.04071685 -1.00000000
v 4.89988811 2.22441284 -1.00000000
v 5.80511029 2.23038946 -1.00000000
v 5.39907295 1.43558966 -1.00000000
v 3.46290682 -3.00000000 -1.00000000
v 2.78303823 -2.31681145 -1.00000000
v 4.50008544 1.55461570 -1.00000000
v 1.59516591 3.00000000 -1.00000000
v 2.52903636 3.00000000 -1.00000000
v 2.14981897 2.58503165 -1.00000000
v 2.52903636 -3.00000000 -1.00000000
v 1.59516591 -3.00000000 -1.00000000
v 2.13905431 -2.58650813 -1.00000000
v 3.84610488 1.43723205 -1.00000000
v 3.47599539 0.31078914 -1.00000000
v 8.28344778 -0.61249434 -1.00000000
v 9.13397460 -1.50000000 -1.00000000
v 8.10849320 -1.53001571 -1.00000000
v 9.21085812 -0.50000000 -1.00000000
v 3.38104172 0.96990197 -1.00000000
v 4.79766110 0.93428706 -1.00000000
v 4.93834855 -2.15431471 -1.00000000
v 4.59366461 -1.32323120 -1.00000000
v 5.35469003 -1.49303058 -1.00000000
v 6.70003383 2.20938457 -1.00000000
v 8.31485499 0.28367223 -1.00000000
v 9.20686328 0.53611366 -1.00000000
v 5.33064773 3.00000000 -1.00000000
v 3.81158920 -1.48508948 -1.00000000
v 3.11436382 -1.62534997 -1.00000000
v 3.34810038 -1.00471419 -1.00000000
v 5.33064773 -3.00000000 -1.00000000
v 5.75920745 -2.21930204 -1.00000000
v 4.39677727 3.00000000 -1.00000000
v 5.89761565 -0.81357516 -1.00000000
v 5.15979762 -0.86294197 -1.00000000
v 6.26451818 3.00000000 -1.00000000
v 3.48181073 -0.36758227 -1.00000000
v 3.98828257 -0.76054079 -1.00000000
v 10.00000000 1.00000000 -1.00000000
v 9.12560595 1.50039434 -1.00000000
v 6.67948220 -2.12121136 -1.00000000
v 6.26451818 -3.00000000 -1.00000000
v 6.05430523 -1.56822391 -1.00000000
v 7.19838864 3.00000000 -1.00000000
v 10.00000000 0.00000000 -1.00000000
v 10.00000000 2.00000000 -1.00000000
v 10.00000000 -1.00000000 -1.00000000
v 10.00000000 -2.00000000 -1.00000000
v 7.19838864 -3.00000000 -1.00000000
v 6.84154715 0.43294326 -1.00000000
v 6.13351981 0.88270807 -1.00000000
v 8.13225909 3.00000000 -1.00000000
v 8.13225909 -3.00000000 -1.00000000
v 7.64619276 -2.24848782 -1.00000000
v 8.57024396 -2.26549833 -1.00000000
v 7.43416887 -0.92512862 -1.00000000
v 5.40627173 0.55269981 -1.00000000
v 6.73769412 -0.43248778 -1.00000000
v 6.06322885 0.08272159 -1.00000000
v 8.57224096 2.25289601 -1.00000000
v 7.54488234 -0.07958637 -1.00000000
v 6.66594066 -1.24412636 -1.00000000
v 5.32204342 -0.19859244 -1.00000000
v 9.06612955 3.00000000 -1.00000000
v 4.63097438 -0.48628046 -1.00000000
v 9.06612955 -3.00000000 -1.00000000
v 10.00000000 3.00000000 -1.00000000
v 9.35279529 2.35065807 -1.00000000
v 10.00000000 -3.00000000 -1.00000000
v 9.35406962 -2.35309967 -1.00000000
v 6.20548085 1.62171186 -1.00000000
v 7.23508278 -1.62919431 -1.00000000
v 8.58149197 0.93300974 -1.00000000
v 0.69120231 -3.00000000 -1.00000000
v 0.69120231 3.00000000 -1.00000000
v 0.42682032 -3.00000000 0.34674516
v 0.27950566 -3.00000000 0.71168629
v 4.73030243 -3.00000000 -0.16900369
v 3.75196196 -3.00000000 0.27329197
v 8.59919432 -3.00000000 -0.19124446
v 7.79873393 -3.00000000 0.16900369
v 6.73145341 -3.00000000 0.19124446
v 5.79758295 -3.00000000 -0.19124446
v 5.32370218 -3.00000000 0.36885338
v 7.20533418 -3.00000000 -0.36885338
v 2.05662521 -3.00000000 0.23056482
v 1.05961314 -3.00000000 0.29653863
v 1.14318411 -3.00000000 -0.42496274
v 0.44964357 -3.00000000 -0.23387929
v 2.06210113 -3.00000000 -0.48843152
v 0.42503319 -3.00000000 -0.66554886
v 2.99597159 -3.00000000 -0.19124446
v 2.99597159 -3.00000000 0.49589068
v 3.89807774 -3.00000000 -0.45583994
v 8.59919432 -3.00000000 0.49589068
v 10.00000000 -3.00000000 0.00000000
v 9.32875608 -3.00000000 -0.30920214
v 9.37538788 -3.00000000 0.37420016
v 0.43478938 3.00000000 -0.34634201
v 0.28149792 3.00000000 -0.71158550
v 0.43301270 3.00000000 0.25000000
v 1.14318411 3.00000000 -0.30927290
v 2.06321328 3.00000000 0.22288252
v 1.04522991 3.00000000 0.48560160
v 0.40866389 3.00000000 0.67651451
v 2.06210113 3.00000000 -0.48843152
v 8.44309449 3.00000000 0.39823898
v 7.67986053 3.00000000 -0.22602133
v 7.66532386 3.00000000 0.49589068
v 8.70095097 3.00000000 -0.26928449
v 3.92984204 3.00000000 -0.49917814
v 3.92984204 3.00000000 0.19124446
v 4.73400827 3.00000000 -0.36097413
v 5.01935757 3.00000000 0.33333333
v 2.99597159 3.00000000 -0.19124446
v 2.99597159 3.00000000 0.49589068
v 6.73145341 3.00000000 0.19124446
v 5.79758295 3.00000000 -0.19124446
v 5.79758295 3.00000000 0.49589068
v 6.73145341 3.00000000 -0.49589068
v 10.00000000 3.00000000 0.00000000
v 9.36792102 3.00000000 -0.33357713
v 9.35900395 3.00000000 0.35618886
v 10.00000000 -1.50000000 -0.13397460
v 10.00000000 1.50000000 -0.13397460
v 10.00000000 -0.49826565 0.03527447
v 10.00000000 0.50728309 0.04486809
v 10.00000000 2.34254833 0.26631772
v 10.00000000 -2.34254833 0.26631772
v 10.00000000 -2.42018787 -0.42201794
v 10.00000000 2.42018787 -0.42201794
f 1 2 3
f 4 5 6
f 7 8 9
f 10 5 4
f 11 12 13
f 14 2 1
f 15 16 17
f 14 1 18
f 19 20 21
f 22 20 19
f 23 16 15
f 13 12 24
f 25 26 27
f 27 28 25
f 29 30 31
f 13 32 11
f 17 2 15
f 15 2 33
f 31 34 29
f 33 14 35
f 36 16 23
f 19 21 37
f 19 37 38
f 39 36 23
f 40 5 41
f 6 5 40
f 42 43 44
f 45 43 46
f 47 48 49
f 50 51 43
f 44 51 41
f 52 53 39
f 38 54 55
f 56 57 58
f 53 36 39
f 38 37 54
f 42 44 57
f 45 50 43
f 46 43 42
f 47 18 48
f 59 8 60
f 61 62 63
f 35 14 47
f 57 44 58
f 49 48 64
f 65 57 56
f 66 31 67
f 68 49 69
f 49 64 69
f 50 70 51
f 71 72 73
f 74 31 66
f 75 74 66
f 55 76 77
f 78 79 52
f 80 62 61
f 60 8 81
f 44 41 58
f 82 83 84
f 43 51 44
f 47 49 85
f 82 72 83
f 35 47 85
f 75 66 86
f 79 53 52
f 55 54 76
f 69 57 65
f 87 88 71
f 66 67 89
f 64 75 46
f 64 48 75
f 33 2 14
f 75 86 46
f 68 69 65
f 90 11 91
f 56 58 10
f 11 88 91
f 47 14 18
f 45 92 50
f 64 42 69
f 85 49 68
f 48 18 74
f 74 34 31
f 3 17 93
f 73 72 82
f 75 48 74
f 87 71 73
f 91 88 87
f 77 94 95
f 96 97 78
f 64 46 42
f 86 45 46
f 42 57 69
f 66 89 86
f 51 70 98
f 86 99 45
f 100 101 102
f 92 13 50
f 83 103 104
f 105 20 106
f 45 99 92
f 41 107 40
f 77 76 94
f 97 79 78
f 108 24 109
f 110 98 108
f 104 103 67
f 89 99 86
f 102 111 96
f 95 112 7
f 113 29 114
f 98 24 108
f 114 1 3
f 115 30 113
f 106 116 115
f 109 12 117
f 24 12 109
f 51 107 41
f 58 5 10
f 111 97 96
f 95 94 112
f 106 20 26
f 84 28 27
f 81 112 118
f 119 111 80
f 29 1 114
f 113 30 29
f 27 26 22
f 120 97 119
f 118 94 121
f 116 30 115
f 112 94 118
f 119 97 111
f 40 107 110
f 121 76 122
f 123 79 120
f 106 26 25
f 71 124 72
f 106 25 116
f 122 54 125
f 126 53 123
f 120 79 97
f 94 76 121
f 127 128 90
f 17 16 93
f 88 129 71
f 130 36 126
f 125 37 131
f 11 32 88
f 1 34 18
f 30 132 31
f 131 21 105
f 93 16 130
f 76 54 122
f 123 53 79
f 72 103 83
f 25 104 116
f 54 37 125
f 126 36 53
f 117 128 127
f 98 107 51
f 130 16 36
f 37 21 131
f 31 132 67
f 102 62 111
f 112 8 7
f 67 103 89
f 102 101 62
f 104 28 83
f 88 32 129
f 18 34 74
f 3 2 17
f 104 132 116
f 72 124 103
f 25 28 104
f 26 20 22
f 71 129 124
f 90 128 11
f 83 28 84
f 103 124 89
f 89 124 99
f 41 5 58
f 110 107 98
f 67 132 104
f 24 70 13
f 13 70 50
f 29 34 1
f 124 129 99
f 116 132 30
f 98 70 24
f 99 129 92
f 92 32 13
f 11 128 12
f 129 32 92
f 81 8 112
f 111 62 80
f 12 128 117
f 63 101 100
f 21 20 105
f 62 101 63
f 9 8 59
f 133 134 135
f 134 133 136
f 137 138 139
f 138 137 140
f 141 142 143
f 141 144 145
f 146 147 148
f 147 149 148
f 150 151 152
f 153 154 155
f 156 157 158
f 159 160 161
f 162 163 164
f 165 166 167
f 158 168 167
f 142 169 143
f 144 170 145
f 157 156 171
f 142 141 172
f 173 158 167
f 141 145 172
f 160 159 174
f 163 162 175
f 151 150 176
f 166 165 177
f 154 153 178
f 138 179 139
f 180 157 181
f 182 183 136
f 184 185 186
f 187 188 140
f 189 133 135
f 150 152 190
f 166 173 167
f 155 154 191
f 192 180 181
f 185 193 186
f 194 195 196
f 197 198 176
f 199 200 178
f 201 202 203
f 173 156 158
f 183 134 136
f 137 187 140
f 197 176 204
f 178 200 205
f 206 207 208
f 209 194 196
f 210 211 212
f 207 213 208
f 214 215 216
f 217 206 208
f 218 153 155
f 202 219 203
f 165 220 183
f 221 222 187
f 223 159 152
f 224 217 208
f 225 226 224
f 227 228 219
f 229 210 212
f 230 228 227
f 228 231 195
f 232 233 207
f 206 232 207
f 234 235 236
f 237 134 183
f 137 238 187
f 151 239 152
f 237 240 134
f 241 238 137
f 218 242 153
f 243 239 151
f 244 245 235
f 246 247 248
f 163 249 155
f 250 251 246
f 225 154 226
f 222 252 145
f 253 254 227
f 255 256 251
f 257 184 258
f 259 217 149
f 254 230 227
f 255 251 250
f 244 233 245
f 246 260 247
f 245 233 232
f 261 206 259
f 256 166 262
f 263 244 235
f 264 232 261
f 265 254 253
f 266 256 255
f 222 267 252
f 249 218 155
f 231 261 195
f 213 268 225
f 269 220 165
f 221 267 222
f 270 249 163
f 223 271 159
f 230 231 228
f 272 213 207
f 245 232 264
f 233 272 207
f 264 261 231
f 261 259 195
f 261 232 206
f 259 206 217
f 244 273 233
f 220 237 183
f 238 221 187
f 239 223 152
f 274 275 276
f 265 253 277
f 252 278 258
f 272 279 213
f 278 257 258
f 267 278 252
f 235 245 236
f 276 275 215
f 246 251 260
f 263 280 244
f 266 281 256
f 282 144 283
f 284 285 274
f 180 286 157
f 257 185 184
f 287 263 288
f 288 263 235
f 234 236 289
f 247 260 290
f 274 285 275
f 211 291 287
f 292 231 230
f 287 293 263
f 233 273 272
f 229 294 210
f 210 295 291
f 296 297 294
f 213 225 208
f 215 298 266
f 299 300 301
f 283 144 302
f 296 294 229
f 288 235 234
f 210 291 211
f 287 291 293
f 210 294 295
f 213 279 268
f 225 268 154
f 303 304 305
f 244 280 273
f 264 231 292
f 296 306 297
f 256 281 166
f 263 293 280
f 266 298 281
f 211 307 214
f 308 230 254
f 215 275 298
f 295 309 310
f 212 214 216
f 275 285 311
f 245 264 236
f 305 304 282
f 299 306 296
f 284 312 285
f 282 170 144
f 281 156 173
f 313 314 169
f 272 315 279
f 316 317 318
f 251 256 262
f 302 144 141
f 319 315 314
f 320 321 322
f 170 304 188
f 323 324 209
f 317 325 326
f 312 327 161
f 291 295 328
f 329 254 265
f 330 312 160
f 331 327 284
f 264 292 236
f 274 276 332
f 292 230 308
f 298 275 311
f 281 298 156
f 281 173 166
f 319 313 162
f 333 334 335
f 325 333 336
f 337 316 338
f 280 293 321
f 268 279 164
f 339 340 341
f 342 343 344
f 334 345 346
f 347 337 348
f 272 273 315
f 285 312 330
f 279 319 164
f 304 349 188
f 330 160 181
f 282 304 170
f 284 327 312
f 319 314 313
f 308 329 331
f 350 306 299
f 162 313 186
f 285 330 311
f 350 351 352
f 314 320 322
f 279 315 319
f 160 312 161
f 290 260 182
f 308 254 329
f 331 329 327
f 326 351 353
f 319 162 164
f 354 347 355
f 356 342 357
f 340 358 359
f 265 277 150
f 350 352 306
f 353 351 350
f 273 280 320
f 345 360 361
f 293 291 328
f 314 315 320
f 303 349 304
f 156 298 311
f 360 362 179
f 363 354 189
f 364 356 200
f 358 365 197
f 316 318 338
f 317 326 318
f 280 321 320
f 315 273 320
f 329 265 366
f 336 333 335
f 234 289 367
f 326 325 336
f 303 368 349
f 284 274 367
f 334 346 335
f 369 368 303
f 236 292 289
f 225 224 208
f 260 251 262
f 369 346 368
f 308 331 289
f 326 336 351
f 348 337 338
f 255 250 370
f 332 276 307
f 321 293 328
f 161 327 366
f 246 248 301
f 327 329 366
f 292 308 289
f 326 353 318
f 265 150 366
f 341 340 359
f 342 344 357
f 347 348 355
f 169 314 322
f 335 346 369
f 346 345 361
f 350 299 371
f 182 260 262
f 211 287 307
f 212 211 214
f 296 229 300
f 289 331 367
f 300 250 301
f 352 351 372
f 360 179 361
f 189 354 355
f 200 356 357
f 358 197 359
f 367 274 332
f 303 305 373
f 309 283 310
f 353 350 371
f 353 371 374
f 215 266 216
f 368 346 361
f 297 375 376
f 352 372 373
f 336 335 372
f 307 276 214
f 351 336 372
f 335 369 372
f 282 283 376
f 248 371 301
f 370 229 212
f 297 306 375
f 295 294 309
f 331 284 367
f 250 300 370
f 234 367 332
f 372 369 373
f 288 234 332
f 373 305 375
f 287 288 307
f 300 229 370
f 299 296 300
f 371 299 301
f 371 248 374
f 150 277 176
f 349 368 138
f 288 332 307
f 276 215 214
f 369 303 373
f 376 283 309
f 188 187 377
f 169 322 143
f 250 246 301
f 226 154 178
f 322 321 378
f 375 305 376
f 318 353 374
f 338 318 374
f 352 373 375
f 370 212 216
f 283 302 310
f 247 290 379
f 306 352 375
f 248 247 380
f 266 255 216
f 361 179 138
f 305 282 376
f 294 297 309
f 338 374 380
f 258 184 142
f 368 361 138
f 328 295 310
f 348 338 380
f 255 370 216
f 321 328 378
f 297 376 309
f 328 310 378
f 380 247 379
f 302 141 143
f 310 302 378
f 379 290 133
f 348 380 379
f 374 248 380
f 355 348 379
f 240 381 135
f 382 241 139
f 383 243 198
f 242 384 199
f 322 378 143
f 355 379 133
f 189 355 133
f 378 302 143
f 183 182 177
f 181 157 171
f 184 186 385
f 286 168 158
f 134 240 135
f 241 137 139
f 243 151 198
f 153 242 199
f 168 269 167
f 145 252 172
f 228 195 194
f 159 161 190
f 146 323 147
f 343 146 148
f 201 339 202
f 164 163 191
f 259 149 196
f 258 142 172
f 154 268 191
f 366 150 190
f 187 222 377
f 262 166 177
f 209 324 203
f 349 138 140
f 159 271 174
f 270 163 175
f 330 181 171
f 192 181 174
f 186 313 385
f 227 219 386
f 149 217 387
f 156 311 171
f 186 193 175
f 381 388 389
f 390 382 391
f 384 392 393
f 394 383 395
f 365 394 395
f 392 364 393
f 362 390 391
f 388 363 389
f 165 183 177
f 181 160 174
f 162 186 175
f 133 290 136
f 157 286 158
f 152 159 190
f 163 155 191
f 269 165 167
f 252 258 172
f 149 147 196
f 194 209 203
f 219 228 194
f 145 170 377
f 323 209 147
f 219 202 386
f 148 149 387
f 344 343 148
f 339 341 202
f 161 366 190
f 217 224 387
f 268 164 191
f 224 226 396
f 277 253 397
f 253 227 386
f 222 145 377
f 195 259 196
f 359 197 204
f 324 201 203
f 198 151 176
f 200 357 205
f 170 188 377
f 153 199 178
f 182 262 177
f 387 224 396
f 253 386 397
f 135 381 389
f 382 139 391
f 199 384 393
f 383 198 395
f 341 359 397
f 344 387 396
f 357 344 396
f 386 341 397
f 311 330 171
f 313 169 385
f 188 349 140
f 271 192 174
f 193 270 175
f 290 182 136
f 169 142 385
f 142 184 385
f 197 365 395
f 364 200 393
f 179 362 391
f 363 189 389
f 200 199 393
f 198 197 395
f 139 179 391
f 189 135 389
f 147 209 196
f 219 194 203
f 344 148 387
f 202 341 386
f 396 226 205
f 277 397 204
f 397 359 204
f 357 396 205
f 176 277 204
f 226 178 205
f 398 399 400
f 399 398 401
f 402 403 404
f 403 402 405
f 406 407 408
f 409 407 410
f 411 316 412
f 413 411 412
f 414 415 416
f 417 418 419
f 420 421 422
f 423 424 425
f 426 427 428
f 429 430 431
f 432 419 431
f 433 406 408
f 434 409 410
f 418 417 435
f 407 406 436
f 419 437 431
f 410 407 436
f 424 423 438
f 427 426 439
f 415 414 440
f 430 429 441
f 421 420 442
f 443 402 404
f 444 445 401
f 417 446 447
f 448 449 450
f 451 452 405
f 399 453 400
f 416 415 454
f 420 422 455
f 437 429 431
f 446 456 447
f 457 448 450
f 458 459 460
f 461 462 440
f 463 464 442
f 465 333 466
f 418 437 419
f 398 444 401
f 452 403 405
f 440 462 467
f 463 442 468
f 469 470 471
f 459 472 460
f 473 474 475
f 476 469 471
f 477 478 479
f 470 480 471
f 481 465 466
f 482 403 452
f 398 483 444
f 484 414 416
f 485 426 422
f 480 486 471
f 487 488 486
f 489 490 481
f 474 491 475
f 489 492 490
f 493 494 469
f 495 489 458
f 494 470 469
f 496 497 410
f 421 498 422
f 482 499 403
f 500 498 421
f 501 483 398
f 484 502 414
f 503 497 496
f 504 505 506
f 497 507 452
f 508 430 444
f 424 509 416
f 510 511 505
f 420 488 487
f 512 513 514
f 515 516 490
f 517 518 510
f 480 519 413
f 429 517 520
f 492 515 490
f 510 518 511
f 493 521 522
f 523 505 504
f 524 496 525
f 493 522 494
f 470 526 519
f 494 527 526
f 515 528 516
f 517 529 518
f 483 508 444
f 507 482 452
f 509 484 416
f 526 495 458
f 530 476 488
f 503 507 497
f 508 531 430
f 532 509 424
f 485 533 426
f 522 521 512
f 495 492 489
f 494 522 527
f 526 527 495
f 519 526 458
f 524 503 496
f 494 526 470
f 470 519 480
f 534 521 493
f 535 493 469
f 498 485 422
f 536 537 538
f 476 535 469
f 516 528 539
f 521 540 512
f 541 535 476
f 542 524 525
f 449 542 525
f 536 538 477
f 510 505 523
f 543 540 521
f 540 544 512
f 545 529 517
f 409 546 547
f 548 549 537
f 522 512 514
f 512 544 513
f 448 542 449
f 550 446 417
f 540 551 544
f 523 504 552
f 548 537 536
f 553 473 551
f 495 554 492
f 555 551 540
f 534 493 535
f 556 491 474
f 557 474 553
f 558 559 556
f 488 476 471
f 560 477 529
f 561 562 563
f 409 547 564
f 556 559 491
f 553 474 473
f 553 551 555
f 545 517 429
f 556 474 557
f 541 476 530
f 530 488 420
f 565 566 567
f 543 521 534
f 495 527 554
f 514 513 568
f 569 559 558
f 555 540 543
f 548 536 570
f 571 557 572
f 527 522 514
f 560 529 545
f 573 473 478
f 492 574 515
f 536 477 560
f 478 475 479
f 538 537 575
f 565 567 546
f 569 562 559
f 576 549 548
f 577 578 579
f 434 546 409
f 418 545 437
f 554 527 514
f 580 581 433
f 536 560 570
f 582 535 541
f 409 564 407
f 582 583 580
f 437 545 429
f 325 317 472
f 324 323 584
f 583 541 428
f 515 585 528
f 576 586 423
f 587 588 549
f 323 146 589
f 517 510 520
f 201 324 590
f 492 554 574
f 146 343 591
f 541 530 428
f 560 545 418
f 581 583 427
f 557 553 592
f 339 201 593
f 555 543 577
f 578 580 579
f 337 347 594
f 345 334 595
f 340 339 596
f 343 342 597
f 534 535 582
f 576 548 586
f 587 576 425
f 586 548 570
f 423 586 447
f 565 546 434
f 587 549 576
f 580 583 581
f 585 574 588
f 569 598 562
f 581 427 450
f 599 598 600
f 582 541 583
f 427 583 428
f 523 552 445
f 515 574 585
f 599 584 601
f 585 588 587
f 576 423 425
f 347 354 602
f 360 345 603
f 342 356 604
f 539 528 415
f 600 598 569
f 599 601 598
f 358 340 605
f 582 580 578
f 538 575 573
f 606 565 451
f 543 534 578
f 565 434 451
f 606 566 565
f 528 585 607
f 356 364 453
f 365 358 443
f 362 360 462
f 354 363 463
f 553 555 592
f 589 146 591
f 568 513 608
f 560 418 570
f 324 584 590
f 577 543 578
f 534 582 578
f 584 323 589
f 537 549 608
f 201 590 593
f 343 597 591
f 609 566 606
f 590 584 599
f 596 339 593
f 609 610 566
f 554 514 568
f 486 488 471
f 596 610 609
f 511 518 611
f 585 587 607
f 510 523 520
f 415 528 607
f 555 577 592
f 588 574 568
f 506 505 563
f 340 596 605
f 587 425 607
f 594 347 602
f 345 595 603
f 597 342 604
f 574 554 568
f 601 584 589
f 580 433 579
f 596 593 610
f 562 598 612
f 599 600 613
f 551 473 573
f 588 568 608
f 473 475 478
f 491 559 561
f 511 561 563
f 523 445 520
f 547 571 572
f 354 463 602
f 462 360 603
f 356 453 604
f 567 566 614
f 443 358 605
f 598 601 612
f 596 609 605
f 537 608 575
f 529 477 479
f 590 599 613
f 593 590 613
f 612 601 615
f 616 558 617
f 538 573 478
f 547 546 617
f 610 593 613
f 612 506 563
f 491 611 475
f 613 600 614
f 569 558 616
f 549 588 608
f 556 557 571
f 561 511 611
f 513 544 575
f 567 614 616
f 608 513 575
f 610 613 614
f 544 551 573
f 491 561 611
f 559 562 561
f 562 612 563
f 575 544 573
f 539 415 440
f 506 612 615
f 609 606 402
f 477 538 478
f 566 610 614
f 547 617 571
f 452 451 618
f 579 433 408
f 505 511 563
f 420 487 442
f 577 579 619
f 567 616 617
f 589 591 615
f 614 600 616
f 601 589 615
f 564 547 572
f 475 611 479
f 552 504 620
f 600 569 616
f 504 506 621
f 518 529 479
f 546 567 617
f 443 605 402
f 558 556 571
f 615 591 621
f 605 609 402
f 557 592 572
f 591 597 621
f 592 577 619
f 611 518 479
f 449 525 406
f 617 558 571
f 572 592 619
f 407 564 408
f 504 621 620
f 564 572 619
f 552 620 399
f 506 615 621
f 621 597 620
f 597 604 620
f 622 501 400
f 499 623 404
f 502 624 461
f 625 500 464
f 619 579 408
f 620 604 399
f 564 619 408
f 604 453 399
f 445 444 441
f 417 447 435
f 450 449 626
f 432 550 419
f 403 499 404
f 501 398 400
f 414 502 461
f 500 421 464
f 496 410 436
f 531 432 431
f 458 489 459
f 425 424 454
f 317 316 411
f 316 337 412
f 334 333 465
f 426 428 455
f 413 519 460
f 530 420 455
f 406 525 436
f 415 607 454
f 429 520 441
f 325 472 466
f 402 606 405
f 497 452 618
f 532 424 438
f 426 533 439
f 447 586 435
f 447 456 438
f 480 413 627
f 581 450 626
f 481 490 628
f 570 418 435
f 457 450 439
f 392 622 629
f 623 394 630
f 388 625 631
f 624 390 632
f 390 362 632
f 363 388 631
f 364 392 629
f 394 365 630
f 444 430 441
f 423 447 438
f 450 427 439
f 552 399 401
f 550 417 419
f 422 426 455
f 424 416 454
f 430 531 431
f 525 496 436
f 411 413 460
f 472 459 466
f 489 481 459
f 434 410 618
f 472 317 411
f 413 412 627
f 337 594 412
f 465 481 628
f 595 334 465
f 428 530 455
f 486 480 627
f 607 425 454
f 487 486 633
f 516 539 634
f 490 516 628
f 410 497 618
f 462 603 467
f 519 458 460
f 333 325 466
f 414 461 440
f 602 463 468
f 464 421 442
f 451 434 618
f 628 516 634
f 520 445 441
f 486 627 633
f 404 623 630
f 622 400 629
f 625 464 631
f 461 624 632
f 603 595 634
f 595 628 634
f 594 602 633
f 627 594 633
f 586 570 435
f 433 581 626
f 606 451 405
f 456 532 438
f 533 457 439
f 445 552 401
f 406 433 626
f 449 406 626
f 362 462 632
f 463 363 631
f 453 364 629
f 365 443 630
f 464 463 631
f 462 461 632
f 443 404 630
f 400 453 629
f 472 411 460
f 459 481 466
f 412 594 627
f 595 465 628
f 487 633 468
f 634 539 467
f 633 602 468
f 603 634 467
f 539 440 467
f 442 487 468
f 635 636 637
f 638 639 100
f 640 641 642
f 637 636 643
f 644 645 646
f 647 648 649
f 650 637 643
f 646 651 644
f 652 653 654
f 642 655 640
f 654 653 656
f 649 648 657
f 658 659 660
f 660 661 658
f 649 636 647
f 662 636 649
f 663 641 640
f 664 652 654
f 657 648 665
f 666 667 668
f 669 664 654
f 657 665 670
f 671 672 40
f 667 650 668
f 673 643 662
f 674 675 669
f 670 676 677
f 678 650 667
f 675 664 669
f 670 665 676
f 679 671 680
f 40 672 6
f 681 644 678
f 63 639 61
f 60 682 59
f 683 667 666
f 684 685 686
f 687 666 668
f 679 680 688
f 689 686 690
f 691 686 689
f 668 643 673
f 692 644 681
f 693 694 695
f 696 688 691
f 681 678 697
f 688 680 691
f 677 698 699
f 700 701 674
f 702 682 60
f 61 639 703
f 704 705 706
f 686 685 690
f 671 684 680
f 40 707 671
f 684 708 685
f 644 651 678
f 709 688 696
f 705 694 706
f 687 668 673
f 680 686 691
f 710 681 697
f 711 712 642
f 677 676 698
f 701 675 674
f 696 666 713
f 697 667 683
f 714 692 681
f 689 697 683
f 650 643 668
f 715 716 705
f 696 683 666
f 717 708 684
f 692 716 715
f 713 666 687
f 709 696 713
f 711 642 718
f 719 679 720
f 689 710 697
f 679 688 720
f 695 712 721
f 722 647 635
f 706 694 693
f 721 712 711
f 678 667 697
f 693 695 721
f 696 691 683
f 723 724 700
f 699 725 726
f 720 688 709
f 685 727 690
f 684 686 680
f 689 690 710
f 691 689 683
f 710 714 681
f 9 728 729
f 685 640 727
f 719 730 672
f 731 653 732
f 719 672 679
f 690 733 710
f 643 636 662
f 724 701 700
f 699 698 725
f 108 717 110
f 727 733 690
f 109 663 108
f 710 733 714
f 726 734 638
f 729 735 723
f 736 646 737
f 635 637 736
f 108 663 717
f 737 645 738
f 738 739 731
f 117 641 109
f 726 725 734
f 735 724 723
f 659 653 731
f 109 641 663
f 644 740 645
f 658 661 704
f 703 734 741
f 742 735 702
f 736 637 646
f 646 645 737
f 656 659 658
f 741 725 743
f 744 724 742
f 738 645 739
f 734 725 741
f 742 724 735
f 743 698 745
f 746 701 744
f 110 707 40
f 660 659 731
f 684 707 717
f 739 660 731
f 745 676 747
f 748 675 746
f 739 715 660
f 678 651 650
f 725 698 743
f 744 701 724
f 718 749 127
f 722 648 647
f 750 664 748
f 747 665 751
f 650 651 637
f 732 652 750
f 751 648 722
f 698 676 745
f 746 675 701
f 694 752 695
f 712 655 642
f 676 665 747
f 748 664 675
f 127 749 117
f 714 716 692
f 750 652 664
f 665 648 751
f 705 716 694
f 671 707 684
f 714 752 716
f 734 639 638
f 729 682 735
f 695 753 712
f 729 728 682
f 705 661 715
f 716 752 694
f 4 730 719
f 692 740 644
f 715 661 660
f 637 651 646
f 679 672 671
f 647 636 635
f 733 752 714
f 645 740 739
f 656 653 659
f 642 749 718
f 753 655 712
f 704 661 705
f 739 740 715
f 717 707 110
f 733 753 752
f 752 753 695
f 727 753 733
f 685 708 640
f 663 708 717
f 640 655 727
f 715 740 692
f 727 655 753
f 641 749 642
f 640 708 663
f 703 639 734
f 735 682 702
f 6 730 4
f 117 749 641
f 59 728 9
f 732 653 652
f 682 728 59
f 672 730 6
f 100 639 63
f 754 755 756
f 757 758 759
f 720 760 719
f 670 761 657
f 52 762 78
f 96 763 102
f 100 764 638
f 15 765 23
f 673 766 687
f 699 767 677
f 4 768 10
f 35 769 33
f 68 770 85
f 56 771 65
f 713 772 709
f 649 773 662
f 774 775 776
f 777 778 779
f 759 780 757
f 756 781 754
f 240 782 783
f 542 784 785
f 457 786 787
f 168 788 789
f 503 790 791
f 220 792 793
f 485 794 795
f 767 796 677
f 762 797 78
f 770 798 85
f 769 799 33
f 773 800 662
f 766 801 687
f 771 802 65
f 772 803 709
f 761 804 657
f 482 805 806
f 223 807 808
f 809 810 782
f 759 811 780
f 756 812 781
f 813 811 805
f 814 812 807
f 815 810 816
f 817 798 770
f 818 800 773
f 819 801 766
f 820 804 761
f 821 799 769
f 822 803 772
f 809 802 771
f 813 796 767
f 814 797 762
f 820 823 790
f 818 824 784
f 819 825 786
f 821 826 788
f 817 827 792
f 822 828 794
f 765 754 23
f 764 757 638
f 52 781 762
f 699 780 767
f 448 784 542
f 533 786 457
f 286 788 168
f 237 782 240
f 524 790 503
f 269 792 220
f 498 794 485
f 760 777 719
f 100 774 764
f 768 816 10
f 763 774 102
f 56 816 771
f 4 777 768
f 239 807 223
f 507 805 482
f 765 755 754
f 764 758 757
f 774 776 764
f 777 779 768
f 768 815 816
f 760 778 777
f 763 775 774
f 821 829 799
f 822 830 803
f 814 831 797
f 820 824 804
f 818 825 800
f 809 827 802
f 817 826 798
f 819 828 801
f 813 823 796
f 773 824 818
f 766 825 819
f 770 827 817
f 769 826 821
f 772 828 822
f 761 823 820
f 771 810 809
f 782 810 783
f 720 803 760
f 15 799 765
f 68 802 770
f 673 800 766
f 649 804 773
f 713 801 772
f 35 798 769
f 670 796 761
f 96 797 763
f 767 811 813
f 762 812 814
f 805 811 806
f 807 812 808
f 804 824 773
f 800 825 766
f 802 827 770
f 798 826 769
f 801 828 772
f 796 823 761
f 799 829 765
f 803 830 760
f 797 831 763
f 816 810 771
f 780 811 767
f 781 812 762
f 790 823 791
f 788 826 789
f 786 825 787
f 794 828 795
f 792 827 793
f 784 824 785
f 638 757 726
f 39 781 52
f 23 754 39
f 726 780 699
f 783 810 815
f 756 755 832
f 759 758 833
f 776 775 834
f 779 778 835
f 102 774 100
f 10 816 56
f 719 777 4
f 499 806 833
f 271 808 832
f 806 811 759
f 808 812 756
f 832 836 192
f 833 837 623
f 394 837 834
f 783 838 381
f 834 839 383
f 835 840 625
f 180 836 841
f 388 838 835
f 243 839 842
f 500 840 843
f 85 798 35
f 33 799 15
f 662 800 673
f 709 803 720
f 657 804 649
f 687 801 713
f 65 802 68
f 677 796 670
f 78 797 96
f 815 779 838
f 758 776 837
f 271 832 192
f 168 789 269
f 240 783 381
f 503 791 507
f 542 785 524
f 499 833 623
f 388 835 625
f 220 793 237
f 394 834 383
f 485 795 533
f 457 787 448
f 243 842 239
f 500 843 498
f 180 841 286
f 755 829 836
f 778 830 840
f 775 831 839
f 757 780 726
f 754 781 39
f 806 759 833
f 808 756 832
f 482 806 499
f 223 808 271
f 837 776 834
f 783 815 838
f 838 779 835
f 832 755 836
f 833 758 837
f 834 775 839
f 835 778 840
f 623 837 394
f 383 839 243
f 192 836 180
f 381 838 388
f 625 840 500
f 836 829 841
f 840 830 843
f 839 831 842
f 768 779 815
f 764 776 758
f 765 829 755
f 760 830 778
f 763 831 775
f 793 782 237
f 787 784 448
f 785 790 524
f 795 786 533
f 841 788 286
f 789 792 269
f 843 794 498
f 842 807 239
f 791 805 507
f 793 809 782
f 787 818 784
f 795 819 786
f 789 817 792
f 841 821 788
f 785 820 790
f 843 822 794
f 791 813 805
f 842 814 807
f 842 831 814
f 843 830 822
f 841 829 821
f 791 823 813
f 789 826 817
f 795 828 819
f 793 827 809
f 787 825 818
f 785 824 820
f 844 845 127
f 846 845 844
f 242 847 848
f 382 849 850
f 851 852 853
f 847 852 851
f 846 854 849
f 390 849 382
f 218 847 242
f 855 856 857
f 38 858 19
f 674 859 700
f 723 860 729
f 84 861 82
f 77 862 55
f 656 863 654
f 87 864 91
f 704 865 658
f 9 866 7
f 90 844 127
f 22 867 27
f 693 868 706
f 711 869 721
f 870 871 872
f 853 873 851
f 874 875 876
f 857 877 855
f 278 878 879
f 185 880 881
f 502 882 883
f 270 884 885
f 456 886 887
f 509 888 889
f 864 890 91
f 859 891 700
f 868 892 706
f 867 893 27
f 865 894 658
f 858 895 19
f 869 896 721
f 508 897 898
f 238 899 900
f 873 901 851
f 862 902 55
f 857 903 877
f 874 904 875
f 905 903 897
f 906 904 899
f 847 851 848
f 127 845 718
f 907 902 862
f 908 892 868
f 909 893 867
f 910 895 858
f 911 894 865
f 912 896 869
f 906 890 864
f 905 891 859
f 912 913 882
f 914 915 878
f 909 916 880
f 911 917 886
f 908 918 888
f 910 919 884
f 249 920 218
f 844 854 846
f 863 855 654
f 861 876 82
f 87 875 864
f 674 877 859
f 624 921 390
f 267 878 278
f 257 880 185
f 446 886 456
f 484 882 502
f 193 884 270
f 532 888 509
f 860 870 729
f 9 870 866
f 483 897 508
f 241 899 238
f 863 856 855
f 922 913 923
f 870 872 866
f 860 871 870
f 77 853 862
f 911 924 894
f 905 925 891
f 907 919 902
f 910 916 895
f 909 915 893
f 912 918 896
f 908 917 892
f 866 873 7
f 869 913 912
f 906 854 890
f 858 919 910
f 867 916 909
f 868 918 908
f 865 917 911
f 861 915 914
f 866 901 873
f 876 914 874
f 849 854 850
f 711 923 869
f 38 902 858
f 693 896 868
f 656 894 863
f 84 893 861
f 22 895 867
f 704 892 865
f 90 890 844
f 723 891 860
f 859 903 905
f 864 904 906
f 920 847 218
f 897 903 898
f 899 904 900
f 921 849 390
f 923 913 869
f 902 919 858
f 895 916 867
f 893 915 861
f 896 918 868
f 892 917 865
f 894 924 863
f 890 854 844
f 891 925 860
f 875 904 864
f 877 903 859
f 861 914 876
f 853 852 862
f 95 873 853
f 882 913 883
f 878 915 879
f 886 917 887
f 888 918 889
f 880 916 881
f 884 919 885
f 851 901 848
f 669 877 674
f 73 875 87
f 654 855 669
f 82 876 73
f 857 856 926
f 872 871 927
f 729 870 9
f 95 853 77
f 7 873 95
f 221 900 928
f 531 898 926
f 898 903 857
f 900 904 874
f 718 923 711
f 927 929 622
f 926 930 432
f 848 931 384
f 392 931 927
f 550 930 932
f 501 929 933
f 55 902 38
f 706 892 704
f 27 893 84
f 658 894 656
f 19 895 22
f 721 896 693
f 91 890 90
f 700 891 723
f 901 872 931
f 531 926 432
f 456 887 532
f 392 927 622
f 270 885 249
f 185 881 193
f 242 848 384
f 502 883 624
f 221 928 267
f 382 850 241
f 278 879 257
f 509 889 484
f 501 933 483
f 550 932 446
f 856 924 930
f 871 925 929
f 876 875 73
f 855 877 669
f 898 857 926
f 900 874 928
f 238 900 221
f 508 898 531
f 931 872 927
f 926 856 930
f 848 901 931
f 927 871 929
f 384 931 392
f 622 929 501
f 432 930 550
f 930 924 932
f 929 925 933
f 866 872 901
f 863 924 856
f 860 925 871
f 885 920 249
f 883 921 624
f 879 880 257
f 881 884 193
f 889 882 484
f 932 886 446
f 887 888 532
f 928 878 267
f 933 897 483
f 850 899 241
f 923 845 922
f 922 846 921
f 921 846 849
f 928 914 878
f 922 845 846
f 718 845 923
f 883 922 921
f 907 852 920
f 885 907 920
f 889 912 882
f 879 909 880
f 887 908 888
f 932 911 886
f 881 910 884
f 933 905 897
f 850 906 899
f 874 914 928
f 933 925 905
f 932 924 911
f 862 852 907
f 883 913 922
f 850 854 906
f 887 917 908
f 889 918 912
f 879 915 909
f 881 916 910
f 885 919 907
f 920 852 847
f 934 935 936
f 937 938 939
f 940 941 942
f 936 935 943
f 944 945 946
f 947 948 949
f 937 950 938
f 951 952 953
f 954 953 955
f 953 952 956
f 957 958 959
f 940 942 944
f 955 960 954
f 961 958 957
f 961 957 962
f 937 939 963
f 964 956 965
f 949 966 936
f 964 965 967
f 950 968 969
f 131 946 125
f 750 748 947
f 962 970 961
f 966 934 936
f 971 972 973
f 965 956 974
f 965 974 975
f 969 976 977
f 956 978 974
f 979 965 975
f 979 975 940
f 980 970 981
f 982 972 971
f 969 935 950
f 972 983 974
f 984 983 972
f 943 969 977
f 952 978 956
f 985 955 964
f 981 986 980
f 955 953 964
f 946 945 125
f 748 948 947
f 985 964 967
f 967 965 979
f 976 968 987
f 988 976 989
f 977 976 988
f 959 990 991
f 959 991 992
f 993 959 992
f 994 955 985
f 995 962 996
f 984 982 81
f 976 987 989
f 984 972 982
f 943 935 969
f 60 982 963
f 969 968 976
f 997 955 994
f 992 991 998
f 982 971 963
f 950 935 938
f 988 989 999
f 999 981 1000
f 989 981 999
f 963 939 702
f 118 1001 984
f 1002 997 994
f 1003 960 990
f 1001 983 984
f 993 957 959
f 962 957 996
f 939 938 1004
f 997 960 955
f 966 948 746
f 1000 1005 1006
f 951 953 954
f 744 966 746
f 1002 1007 997
f 1008 961 980
f 951 954 1009
f 1008 980 1010
f 1009 1010 1011
f 742 939 1004
f 1012 1007 1002
f 118 984 81
f 1013 951 1011
f 1001 941 983
f 60 963 702
f 981 1005 1000
f 975 941 940
f 1009 1008 1010
f 950 1014 968
f 81 982 60
f 951 1009 1011
f 954 1003 1009
f 971 973 1015
f 971 937 963
f 968 1016 987
f 981 970 1005
f 702 939 742
f 1013 1017 1015
f 1009 1003 1008
f 1013 1011 1017
f 959 958 990
f 121 1001 118
f 974 983 975
f 973 1013 1015
f 990 1018 991
f 1019 1020 995
f 1006 1020 1019
f 989 986 981
f 974 978 972
f 971 1015 937
f 960 1018 990
f 996 957 993
f 742 1004 744
f 998 1021 1022
f 121 942 1001
f 1022 1021 1012
f 937 1014 950
f 964 953 956
f 968 1014 1017
f 1013 952 951
f 991 1018 1007
f 1017 1016 968
f 1003 958 1008
f 990 958 1003
f 938 934 1004
f 987 1016 1010
f 1010 1016 1011
f 1010 986 987
f 122 942 121
f 949 948 966
f 983 941 975
f 1008 958 961
f 1015 1014 937
f 980 986 1010
f 954 960 1003
f 961 970 980
f 991 1021 998
f 973 952 1013
f 746 948 748
f 125 945 122
f 1004 966 744
f 995 1020 962
f 972 978 973
f 122 945 942
f 1004 934 966
f 1005 970 962
f 938 935 934
f 942 941 1001
f 942 945 944
f 1005 1020 1006
f 987 986 989
f 973 978 952
f 1007 1021 991
f 962 1020 1005
f 1007 1018 997
f 1012 1021 1007
f 1017 1014 1015
f 1011 1016 1017
f 997 1018 960
f 106 1023 105
f 1024 731 732
f 105 1023 131
f 1023 946 131
f 1024 732 750
f 1024 750 947
f 1025 1026 1027
f 1028 1029 1030
f 1031 1032 1033
f 1034 1025 1027
f 1035 1028 1030
f 1036 1037 1038
f 1039 1040 1041
f 1042 1043 1037
f 1039 1041 1044
f 1045 1046 1047
f 1048 1049 1050
f 1033 1051 1044
f 1032 1052 1033
f 1036 1042 1037
f 1026 1025 1051
f 1053 1054 1055
f 1054 1053 1056
f 703 1057 1052
f 1058 1031 1033
f 1059 1060 1061
f 1058 1033 1044
f 1042 1048 1043
f 1029 1028 1062
f 1060 1059 1038
f 1056 1053 1063
f 1027 745 1047
f 1064 1056 1063
f 1052 1057 1033
f 1046 1034 1027
f 1065 1040 1039
f 1045 747 751
f 1049 130 126
f 1041 1058 1044
f 743 745 1027
f 1066 1067 1068
f 1043 1067 1037
f 1069 1059 1070
f 1025 1071 1039
f 1034 1071 1025
f 61 703 1052
f 1072 1061 1073
f 1069 1036 1059
f 1059 1036 1038
f 741 743 1026
f 747 1045 1047
f 1049 126 1050
f 1065 1074 1040
f 1075 1076 1068
f 1070 1059 1061
f 1071 1065 1039
f 1077 1064 1078
f 1079 1080 1070
f 1080 1069 1070
f 1061 1072 1081
f 1082 1029 1062
f 1076 1066 1068
f 1067 1066 1037
f 1077 1083 1064
f 1084 1077 1078
f 1085 1086 1054
f 1040 1074 1062
f 1087 1080 1079
f 80 1075 1068
f 1064 1083 1056
f 1028 1088 1089
f 1082 1090 1029
f 1085 1054 1056
f 1074 1082 1062
f 1091 1092 1093
f 1035 1088 1028
f 1046 1027 1047
f 1066 1060 1038
f 1076 1060 1066
f 1094 1053 1055
f 1095 1031 1058
f 1025 1039 1044
f 1091 1087 1092
f 1079 1070 1081
f 1096 1097 1088
f 1029 1090 1098
f 1096 1099 1094
f 1099 1088 1035
f 1100 1079 1081
f 1101 1097 1072
f 1094 1099 1053
f 1026 743 1027
f 1067 119 1068
f 1096 1088 1099
f 703 741 1057
f 1072 1096 1100
f 1057 1026 1051
f 1072 1097 1096
f 1092 1055 1093
f 80 61 1075
f 1095 1058 1041
f 1033 1057 1051
f 1090 1102 1098
f 1055 1054 1093
f 1096 1094 1100
f 1083 1085 1056
f 1101 1095 1097
f 119 80 1068
f 1087 1079 1092
f 1088 1097 1089
f 1103 1032 1031
f 1075 61 1052
f 1101 1031 1095
f 1051 1025 1044
f 1075 1032 1076
f 1076 1103 1060
f 1098 1078 1030
f 1103 1031 1101
f 1097 1095 1089
f 1057 741 1026
f 1095 1041 1089
f 1053 1099 1063
f 1076 1032 1103
f 1104 1091 1093
f 120 119 1067
f 1105 1084 1106
f 1086 1107 1108
f 1075 1052 1032
f 1041 1040 1109
f 1102 1105 1106
f 1107 1104 1108
f 1094 1055 1110
f 1061 1060 1073
f 1029 1098 1030
f 1099 1035 1063
f 1101 1072 1073
f 120 1067 1043
f 1055 1092 1110
f 123 120 1043
f 1028 1089 1109
f 1072 1100 1081
f 1060 1103 1073
f 1040 1062 1109
f 1035 1030 1111
f 1089 1041 1109
f 1054 1086 1108
f 1063 1035 1111
f 1084 1078 1106
f 1062 1028 1109
f 1078 1064 1111
f 745 747 1047
f 126 123 1050
f 1079 1100 1110
f 1030 1078 1111
f 1093 1054 1108
f 123 1043 1050
f 1103 1101 1073
f 1043 1048 1050
f 1037 1066 1038
f 1070 1061 1081
f 1078 1098 1106
f 1092 1079 1110
f 1098 1102 1106
f 1100 1094 1110
f 1104 1093 1108
f 1064 1063 1111
f 1112 3 93
f 635 1113 722
f 1112 93 130
f 1049 1112 130
f 1113 751 722
f 1113 1045 751
f 1114 1023 1115
f 1116 979 1117
f 1091 1118 1119
f 1120 985 1121
f 1080 1120 1121
f 979 1116 1122
f 1121 985 1122
f 1091 1119 1123
f 1120 1080 1123
f 1124 1125 1126
f 1127 1125 1114
f 1124 1126 1128
f 1126 1127 1129
f 1125 1023 1114
f 1125 1127 1126
f 1112 1126 1129
f 1087 1091 1123
f 967 979 1122
f 1080 1087 1123
f 985 967 1122
f 946 1023 1125
f 1023 106 1115
f 3 1112 1129
f 946 1125 1124
f 944 946 1124
f 1130 1124 1128
f 1112 1049 1126
f 1124 1130 1131
f 1091 1104 1118
f 994 1120 1119
f 1002 994 1119
f 979 940 1117
f 1036 1069 1116
f 1048 1042 1130
f 1116 1069 1121
f 994 985 1120
f 1069 1080 1121
f 1116 1117 1132
f 1117 1130 1132
f 1130 1117 1131
f 1119 1118 1133
f 944 1124 1131
f 1048 1130 1128
f 1117 940 1131
f 1036 1116 1132
f 1130 1042 1132
f 1002 1119 1133
f 1107 1134 1135
f 1104 1107 1135
f 1126 1049 1128
f 115 113 1114
f 113 114 1127
f 1133 1118 1136
f 1134 1022 1136
f 1118 1135 1136
f 1022 1012 1136
f 1049 1048 1128
f 1118 1104 1135
f 113 1127 1114
f 1012 1002 1133
f 1119 1120 1123
f 1042 1036 1132
f 940 944 1131
f 1116 1121 1122
f 106 115 1115
f 114 3 1129
f 115 1114 1115
f 1127 114 1129
f 1012 1133 1136
f 1135 1134 1136
f 1137 1113 1138
f 1139 1140 1137
f 1141 1140 1142
f 1142 1139 1143
f 1140 1113 1137
f 1140 1139 1142
f 1024 1142 1143
f 1140 1141 1144
f 1145 1146 1147
f 1148 1146 1145
f 1149 1150 1151
f 1150 1152 1151
f 1045 1113 1140
f 731 1024 1143
f 1113 635 1138
f 947 1141 1142
f 947 949 1141
f 1141 1153 1144
f 1024 947 1142
f 1153 1141 1154
f 1034 1046 1153
f 936 943 1150
f 943 977 1152
f 1150 943 1152
f 1090 1082 1146
f 988 999 1155
f 1074 1065 1156
f 1148 1090 1146
f 1102 1090 1148
f 1150 1153 1154
f 1153 1150 1149
f 1155 1156 1157
f 1156 1155 1158
f 1146 1155 1147
f 1155 1146 1158
f 1156 1152 1157
f 1152 1156 1151
f 1153 1046 1144
f 1141 949 1154
f 1045 1140 1144
f 1034 1153 1149
f 936 1150 1154
f 1074 1156 1158
f 1156 1065 1151
f 988 1155 1157
f 1152 977 1157
f 1146 1082 1158
f 1155 999 1147
f 1159 1105 1160
f 1105 1102 1160
f 736 737 1137
f 737 738 1139
f 1148 1145 1161
f 1019 1159 1161
f 1160 1148 1161
f 1006 1019 1161
f 1046 1045 1144
f 1102 1148 1160
f 949 936 1154
f 737 1139 1137
f 1000 1006 1145
f 1071 1149 1151
f 1071 1034 1149
f 999 1000 1147
f 1000 1145 1147
f 977 988 1157
f 1065 1071 1151
f 1082 1074 1158
f 635 736 1138
f 738 731 1143
f 736 1137 1138
f 1139 738 1143
f 1145 1006 1161
f 1159 1160 1161
f 992 998 1162
f 995 996 1163
f 1085 1083 1164
f 1164 1083 1165
f 1083 1077 1165
f 1164 992 1162
f 1085 1164 1162
f 1163 996 1165
f 1077 1163 1165
f 995 1163 1166
f 1162 998 1167
f 993 1164 1165
f 996 993 1165
f 993 992 1164
f 1077 1084 1163
f 1086 1085 1162
f 998 1022 1167
f 1022 1134 1167
f 1019 995 1166
f 1159 1019 1166
f 1086 1162 1168
f 1163 1084 1169
f 1162 1167 1168
f 1166 1163 1169
f 1084 1105 1169
f 1105 1159 1169
f 1107 1086 1168
f 1134 1107 1168
f 1159 1166 1169
f 1167 1134 1168
