v -1.35594753 -2.67608040 0.96577476
v -0.85403421 -2.87586953 0.52907602
v -0.82220880 -2.88512958 1.04812239
v -1.31713942 -2.69539306 0.35742189
v -1.28147123 -2.71253230 -0.22947304
v -1.28388116 -2.71139248 -0.93942799
v -0.87565206 -2.86936116 -0.50607586
v -1.68375320 -2.48293680 -0.49748303
v 0.91033631 -2.85854645 -0.89520650
v 0.44243022 -2.96719657 -0.91665637
v 0.92705098 -2.85316955 -1.50000000
v -2.74562719 -1.20893811 -0.48028244
v -2.93906018 -0.60160224 -0.55430426
v -2.84497364 -0.95190596 -0.98165701
v -0.41059944 -2.97176851 -0.78619395
v -0.82669963 -2.88384599 -1.02712315
v -0.31358539 -2.98356569 -1.50000000
v 0.31358539 -2.98356569 -1.50000000
v 0.02779255 -2.99987126 -1.02304550
v -2.85423241 -0.92377344 -0.12942176
v -2.84008064 -0.96640671 0.31984131
v -2.67012713 -1.36763340 0.54218715
v -2.84624578 -0.94809543 0.94518152
v 1.36638246 -2.67076749 -0.97857130
v 1.50000000 -2.59807621 -1.50000000
v -2.96065313 -0.48428610 0.57669296
v -2.24265173 -1.99261467 0.07971398
v -2.06408125 -2.17705503 -0.45187561
v -1.78451010 -2.41153970 0.08630647
v 2.00739182 -2.22943448 -1.50000000
v 1.85555291 -2.35731275 -0.98589954
v -2.06875428 -2.17261495 0.57350521
v 3.00000000 0.00000000 -0.50000000
v 2.96771404 -0.43894575 -0.92228918
v 3.00000000 0.00000000 -1.00000000
v -2.63606951 -1.43217930 0.99247547
v 2.42705098 -1.76335576 -1.50000000
v 2.28828111 -1.94004370 -0.98675013
v 2.94235584 -0.58527097 -0.50000000
v -1.78841849 -2.40864263 -0.97649172
v -2.23451825 -2.00173130 -0.96298837
v -2.42793366 -1.76214021 -0.42382584
v -2.00739182 -2.22943448 -1.50000000
v -2.74063637 -1.22020993 -1.50000000
v -2.93444280 -0.62373507 -1.50000000
v -2.59610388 -1.50341101 -0.95728083
v -2.61882749 -1.46346936 0.07358741
v -1.66671070 -2.49440884 1.50000000
v -1.14805030 -2.77163860 1.50000000
v -1.50000000 -2.59807621 -1.50000000
v -2.42705098 -1.76335576 -1.50000000
v -0.92705098 -2.85316955 -1.50000000
v 2.74063637 -1.22020993 -1.50000000
v 2.62675650 -1.44918954 -0.98631340
v 3.00000000 0.00000000 -1.50000000
v 2.98774573 -0.27087899 -1.24989392
v 2.93444280 -0.62373507 -1.50000000
v -0.58527097 -2.94235584 1.50000000
v -3.00000000 -0.00000000 -0.30000000
v -2.95518379 -0.51661281 0.02148474
v -3.00000000 -0.00000000 0.30000000
v 0.00000000 -3.00000000 -0.50000000
v 0.58527097 -2.94235584 -0.50000000
v -2.94235584 -0.58527097 1.50000000
v -2.77163860 -1.14805030 1.50000000
v -2.49440884 -1.66671070 1.50000000
v -2.30068907 -1.92531290 1.02573933
v -2.12132034 -2.12132034 1.50000000
v -2.43762598 -1.74870797 0.54447833
v -0.44672929 -2.96655237 -0.24817606
v -0.88151873 -2.86756425 0.03377456
v 2.85627118 -0.91745024 -0.97841908
v -3.00000000 -0.00000000 0.90000000
v -3.00000000 -0.00000000 -0.90000000
v 0.00000000 -3.00000000 0.00000000
v 0.00000000 -3.00000000 1.00000000
v -0.44384531 -2.96698523 0.74659249
v 0.00000000 -3.00000000 0.50000000
v -0.44505094 -2.96680462 0.25452155
v 2.77163860 -1.14805030 -0.50000000
v -1.88153281 -2.33662883 1.02689332
v 2.49440884 -1.66671070 -0.50000000
v -2.96475987 -0.45847457 -1.05514666
v -3.00000000 -0.00000000 -1.50000000
v -1.67131224 -2.49132804 0.61506115
v 2.12132034 -2.12132034 -0.50000000
v -0.37595611 -2.97634961 1.15285510
v 0.00000000 -3.00000000 1.50000000
v -2.96728357 -0.44184637 1.05286057
v -3.00000000 -0.00000000 1.50000000
v 1.66671070 -2.49440884 -0.50000000
v 1.14805030 -2.77163860 -0.50000000
v 1.39040379 -0.56282974 -0.92508760
v 1.47304001 -0.28311327 -0.76033822
v 1.47784108 -0.25687693 -1.04019746
v -1.37031819 -0.61010496 0.95946339
v -1.22114991 -0.87108719 0.66267504
v -1.37164953 -0.60710589 0.65456755
v -1.21829899 -0.87507003 0.96866662
v 1.35989678 -0.63299348 0.14014380
v 1.46491005 -0.32255007 0.14500976
v 1.40518056 -0.52485008 -0.11104756
v 0.57421325 -1.38574137 0.93419643
v 0.28949007 -1.47180009 0.93987905
v 0.32877268 -1.46352606 1.23166672
v 0.61010496 -1.37031819 1.22855143
v 1.40561917 -0.52367428 0.38973610
v -0.89791597 -1.20156020 0.92507018
v -1.09561424 -1.02451425 1.18058662
v -0.84769716 -1.23750132 1.22199761
v -1.08772171 -1.03288987 0.87753919
v 1.11471724 -1.00369591 1.22855143
v 1.08678852 -1.03387171 0.93325653
v 0.88994416 -1.20747646 1.23624920
v 0.86038858 -1.22871131 0.93888524
v -1.42565285 -0.46638392 -0.16139234
v -1.47202005 -0.28836952 0.13485316
v -1.37318346 -0.60362836 0.11826421
v -0.50170017 -1.41361131 0.66568370
v -0.77358419 -1.28513326 0.66134090
v -0.68221312 -1.33588370 0.95999959
v -0.42222627 -1.43934880 0.95537998
v -0.17599599 -1.48963936 0.70024512
v -0.16219723 -1.49120490 0.96885539
v 1.41390711 -0.50086593 -0.59372912
v -1.37493234 -0.59963410 -0.43052272
v -1.47371339 -0.27958691 -0.44216567
v 1.30404649 -0.74125754 1.23713168
v 1.43170259 -0.44746811 1.25125878
v 1.41076617 -0.50964576 0.93377915
v -1.50000000 -0.00000000 -1.20000000
v -1.50000000 -0.00000000 -0.90000000
v -1.47229841 -0.28694492 -0.99903449
v 0.02831140 -1.49973280 1.18460567
v 1.27550166 -0.78936400 0.93975081
v 0.04490978 -1.49932755 0.89025184
v 1.42815366 -0.45866887 -1.23798156
v -1.42642523 -0.46401623 -0.70615618
v -1.41963531 -0.48439198 0.39001773
v -1.48210457 -0.23101094 -1.27146593
v 1.47865986 -0.25212101 -0.17001002
v -1.42576801 -0.46603174 1.24712610
v -1.47114774 -0.29278716 1.01775477
v -1.48480056 -0.21299601 -0.15000000
v -1.43531240 -0.43575030 0.79885100
v 1.46722140 -0.31186754 -1.50000000
v 1.37031819 -0.61010496 -1.50000000
v 1.47901902 -0.25000546 0.46295818
v 1.29895007 -0.75015246 -1.22585041
v 0.99854992 -1.11932929 -0.95020890
v 1.10336024 -1.01616740 -0.67457506
v 1.20779723 -0.88950876 -0.94486617
v 1.11394181 -1.00455644 -1.22574777
v 1.28663579 -0.77108258 -0.66812966
v 0.87879717 -1.21561323 -1.22452851
v -1.21679305 -0.87716285 -0.42354754
v -1.11951519 -0.99834149 -0.69181764
v -1.30424541 -0.74090748 -0.69873614
v -1.30033462 -0.74774987 0.38697395
v -1.21616247 -0.87803692 -0.96043142
v -1.29866735 -0.75064180 -1.23152037
v -1.37148084 -0.60748688 -0.96496644
v 0.74288386 -1.30312070 -0.94900450
v 0.60638623 -1.37196783 -1.22380907
v 0.45531878 -1.42922525 -0.95109752
v 0.30807502 -1.46802240 -1.22778459
v 1.47980810 -0.24529161 -0.46643541
v 1.43319037 -0.44267974 -0.33712676
v -0.01255948 -1.49994742 -0.68581846
v -0.16517454 -1.49087805 -0.95687130
v -0.32256708 -1.46490630 -0.68646698
v -0.47097279 -1.42414347 -0.95702353
v -0.61183424 -1.36954696 -1.22794650
v -0.75505554 -1.29610614 -0.95756623
v -0.61917376 -1.36624443 -0.68661835
v 1.00369591 -1.11471724 -1.50000000
v 0.75000000 -1.29903811 -1.50000000
v 1.28087169 -0.78062009 -0.12844262
v 1.19720476 -0.90371498 0.13638176
v -1.21809898 -0.87534843 0.11603582
v -1.30088805 -0.74678664 -0.15631936
v 1.09821492 -1.02172599 -0.13507393
v -0.32755879 -1.46379822 -0.14718432
v -0.01731841 -1.49990002 -0.14568096
v -0.17223618 -1.49007876 -0.41646130
v -1.00946588 -1.10949477 -0.42042892
v -1.12023409 -0.99753475 -0.15192294
v 0.30064865 -1.46956129 -0.68191069
v 0.14947115 -1.49253421 -0.95727876
v 0.98553278 -1.13080730 0.13274573
v 1.48126639 -0.23632580 0.75878229
v 1.43403602 -0.43993259 0.62628968
v -1.11584998 -1.00243644 -1.22857675
v -0.75000000 -1.29903811 -1.50000000
v -0.88386683 -1.21193211 -1.22801126
v -1.00369591 -1.11471724 -1.50000000
v -1.21352549 -0.88167788 -1.50000000
v -0.89097118 -1.20671884 -0.14987888
v -1.29911676 -0.74986375 1.22954006
v -1.37031819 -0.61010496 1.50000000
v 0.46352549 -1.42658477 -1.50000000
v 1.19882085 -0.90157006 -0.40212859
v 1.34344059 -0.66720865 -0.37935689
v 0.14130624 -1.49332935 -0.41468336
v 0.15679269 -1.49178284 -1.50000000
v -0.31301778 -1.46697644 -1.22932699
v -0.46352549 -1.42658477 -1.50000000
v -1.37031819 -0.61010496 -1.50000000
v -1.46722140 -0.31186754 -1.50000000
v -1.42223300 -0.47671090 -1.23948351
v 0.86472230 -1.22566527 -0.13776403
v 1.37031819 -0.61010496 1.50000000
v 1.46722140 -0.31186754 1.50000000
v -1.12231366 -0.99519448 0.38475788
v -1.01236868 -1.10684672 0.11791253
v 1.09613484 -1.02395723 0.40231784
v 1.19507050 -0.90653544 0.66939621
v 1.27981858 -0.78234545 0.40078841
v -0.00313183 -1.49999673 -1.22905714
v -1.46722140 -0.31186754 1.50000000
v 0.73105537 -1.30979313 0.13055036
v -0.47687104 -1.42217932 -0.41768424
v 1.34385870 -0.66636610 0.65425991
v 0.86171217 -1.22778342 0.40042552
v -0.89392647 -1.20453122 0.38720963
v 0.59291175 -1.37784457 -0.14026308
v -1.21352549 -0.88167788 1.50000000
v 0.98861920 -1.12810996 -0.40472092
v 1.21352549 -0.88167788 -1.50000000
v -1.00732950 -1.11143479 -0.95801886
v -0.76270614 -1.29161889 0.11974291
v 1.00369591 -1.11471724 1.50000000
v 1.21352549 -0.88167788 1.50000000
v 0.29424175 -1.47085750 -0.14286515
v 0.44856071 -1.43136064 -0.41073584
v 1.47989803 -0.24474846 1.05000000
v 0.14810767 -1.49267013 0.65638388
v 0.29081538 -1.47153879 0.39800832
v -0.01839320 -1.49988723 0.39338386
v -0.88839536 -1.20861644 -0.68840675
v -1.00620659 -1.11245148 0.64637442
v 0.98347126 -1.13260067 0.66867223
v -0.60087063 -1.37439241 1.23636154
v -0.30484113 -1.46869734 1.22123787
v 0.44391752 -1.43280747 0.12852129
v -1.00369591 -1.11471724 1.50000000
v 0.13729075 -1.49370387 0.12656922
v -0.75000000 -1.29903811 1.50000000
v -0.46352549 -1.42658477 1.50000000
v -0.15679269 -1.49178284 1.50000000
v 0.15679269 -1.49178284 1.50000000
v 0.46352549 -1.42658477 1.50000000
v 0.75000000 -1.29903811 1.50000000
v -0.15679269 -1.49178284 -1.50000000
v -0.17511904 -1.48974270 0.12445586
v 0.58919267 -1.37943902 0.39892767
v 0.44185900 -1.43344362 0.66714915
v 0.73554817 -1.30727537 -0.40797027
v -0.75969006 -1.29339515 -0.41827684
v 0.72859122 -1.31116545 0.66755191
v -0.33115741 -1.46298830 0.39257235
v -0.47951134 -1.42129127 0.12210741
v -0.62298263 -1.36451187 -0.14829269
v 0.86900626 -1.22263164 -0.67497339
v 0.59775770 -1.37574915 -0.67647290
v -0.62758973 -1.36239904 0.38967184
v -1.50000000 -0.00000000 0.00000000
v -1.50000000 -0.00000000 0.30000000
v -1.50000000 -0.00000000 -0.60000000
v -1.50000000 -0.00000000 -0.30000000
v 1.50000000 0.00000000 0.00000000
v 1.50000000 0.00000000 -0.30000000
v 1.50000000 0.00000000 0.90000000
v 1.50000000 0.00000000 0.60000000
v 1.50000000 0.00000000 0.30000000
v 1.50000000 0.00000000 -0.60000000
v -1.50000000 -0.00000000 0.60000000
v -1.50000000 -0.00000000 0.90000000
v -1.48298956 -0.22525976 0.73526929
v 1.50000000 0.00000000 -0.90000000
v -1.48247832 -0.22860016 0.45452685
v -1.50000000 -0.00000000 1.20000000
v 1.50000000 0.00000000 -1.20000000
v 1.50000000 0.00000000 -1.50000000
v 1.48459704 -0.21440998 -1.28549591
v -1.50000000 -0.00000000 -1.50000000
v 1.50000000 0.00000000 1.20000000
v -1.50000000 0.00000000 1.50000000
v -1.48284411 -0.22621526 1.27679199
v -1.48488972 -0.21237356 -0.73459055
v 1.50000000 0.00000000 1.50000000
v 1.48607499 -0.20391451 1.29726428
v -1.44545747 -0.40081504 0.60859965
v 1.32051608 0.71150354 0.88852883
v 1.30838019 0.73358113 1.20075868
v 1.15599681 0.95586159 0.93279699
v 1.10177666 1.01788418 1.22724021
v 1.37031819 0.61010496 1.50000000
v 1.43331101 0.44228897 1.27535292
v 1.41316607 0.50295294 1.05513821
v -1.48104973 0.23767982 -1.16026358
v -1.46722140 0.31186754 -1.50000000
v 0.02708291 1.49975549 0.38901237
v 0.32401710 1.46458626 0.39093922
v 0.28958720 1.47178098 0.68847332
v -0.00339455 1.49999616 0.68558443
v -0.46730385 1.42535158 0.93748496
v -0.75000000 1.29903811 0.95854056
v -0.71229928 1.32008702 0.66485709
v -0.45417734 1.42958838 0.64697215
v -1.11022080 1.00866733 1.18803558
v -1.30472921 0.74005520 1.22400064
v -1.24783199 0.83241536 0.93956519
v -0.96621818 1.14735454 0.70599451
v -0.95314705 1.15823603 1.00445115
v 1.47159680 0.29052171 -0.99467492
v -1.47328126 0.28185518 -0.43782542
v -1.36369410 0.62477067 -0.41281535
v -1.42339847 0.47321959 -0.21486502
v 0.63816640 1.35747694 0.39422089
v 0.89735791 1.20197703 0.39129847
v 0.81625419 1.25846299 0.69150191
v 1.47121658 0.29244107 -0.43549378
v 1.42387771 0.47177564 -0.14750771
v 1.37065400 0.60935015 -0.42605025
v -1.31208677 0.72693074 -0.12459400
v -1.42634261 0.46427015 0.04314242
v 1.47335484 0.28147027 0.14050247
v 1.37277490 0.60455693 0.12278844
v -1.33376667 0.68634283 0.15385040
v -0.26908893 1.47566634 0.43681938
v 0.56543881 1.38934479 0.68358540
v -1.10108592 1.01863133 0.92670858
v -0.25833057 1.47758767 0.73311553
v -1.41798904 0.48919024 -0.67605721
v 1.48210457 0.23101094 -1.27146593
v 1.42084174 0.48084172 0.38657320
v 1.42389183 0.47173305 -0.70408777
v 1.48454303 0.21478359 -0.14880897
v -1.45903123 0.34817792 -0.93210430
v -1.41783010 0.48965071 -1.21093191
v -1.36189011 0.62869335 -0.94542463
v -1.29263467 0.76098331 -1.22166350
v -1.41571790 0.49572456 0.37514942
v -1.48284525 0.22620780 0.17042049
v -1.11231504 1.00635741 -1.22680340
v -1.20484195 0.89350763 -0.94951389
v 1.29899989 0.75006619 -0.15067497
v 1.21381560 0.88127843 -0.42152137
v -1.48108838 0.23743886 0.46060295
v 1.30001539 0.74830475 0.38432269
v 1.36152188 0.62949041 0.62928837
v -0.99396925 1.12339892 -0.94972800
v -0.87731426 1.21668389 -1.22695998
v -1.48270164 0.22714716 -0.70899669
v 1.46722140 0.31186754 1.50000000
v -0.45725747 1.42860618 -0.95876731
v -0.30241651 1.46919851 -0.68668971
v -0.59994708 1.37479580 -0.68546742
v -0.60702663 1.37168461 -1.23009694
v -0.74182998 1.30372094 -0.95594582
v 0.87194368 1.22053850 1.23405929
v 0.60673507 1.37181360 1.22799155
v 0.74061130 1.30441362 0.95626366
v 0.75000000 1.29903811 1.50000000
v 0.46352549 1.42658477 1.50000000
v 1.11669425 1.00149585 -0.15210193
v 1.36773433 0.61587564 -0.96063159
v 1.42091159 0.48063525 -1.23776548
v -1.20010108 0.89986520 0.12412499
v 0.61102822 1.36990676 -1.22859768
v 0.75191057 1.29793316 -0.95850720
v 0.46772939 1.42521199 -0.95789872
v -1.37031819 0.61010496 -1.50000000
v 1.29699854 0.75352159 -1.23128209
v 1.03892076 1.08196287 0.67854589
v 0.96013069 1.15245349 0.96965743
v 1.21444704 0.88040808 0.11742100
v 1.00774300 1.11105988 0.11737786
v 0.61566963 1.36782708 -0.68813499
v 0.31102853 1.46739949 1.22673359
v -1.10185478 1.01779960 -0.14401618
v 1.37031819 0.61010496 -1.50000000
v 1.21306688 0.88230875 -0.95957684
v 1.29766537 0.75237264 -0.69372074
v -1.21352549 0.88167788 -1.50000000
v 0.15679269 1.49178284 1.50000000
v -1.28578018 0.77250847 0.39158251
v -1.35349633 0.64656608 0.68213381
v 0.88669460 1.20986474 -0.15121487
v -0.30907425 1.46781235 -1.23010213
v 0.00089957 1.49999973 -1.23019979
v -0.15129581 1.49235035 -0.95840193
v 1.46722140 0.31186754 -1.50000000
v 1.11499265 1.00338995 -1.22924078
v -1.37031819 0.61010496 1.50000000
v -1.42836508 0.45801004 1.20513280
v -1.28811560 0.76860796 -0.67806525
v -1.20145357 0.89805864 -0.41162019
v 1.11923808 0.99865215 0.38613732
v -0.98990517 1.12698170 0.12387373
v -0.86840134 1.22306137 -0.14517128
v -0.75000000 1.29903811 1.50000000
v -0.87112550 1.22112258 1.23871815
v -0.60796126 1.37127062 1.23104454
v 1.21352549 0.88167788 -1.50000000
v 0.16157328 1.49127264 -0.95747091
v 0.31914199 1.46565630 -0.68735718
v 0.00819725 1.49997760 -0.68749234
v 1.11563596 1.00267462 -0.68991465
v -0.73610713 1.30696071 0.12331730
v -1.10058597 1.01917149 0.39136311
v 1.00655543 1.11213586 -0.42077873
v -0.00089904 1.49999973 1.22790657
v -1.46722140 0.31186754 1.50000000
v -0.14627430 1.49285091 0.96109603
v 0.15647796 1.49181589 0.95726445
v -0.31235158 1.46711843 1.22636009
v -1.21352549 0.88167788 1.50000000
v 1.21352549 0.88167788 1.50000000
v -1.00369591 1.11471724 1.50000000
v 1.00369591 1.11471724 1.50000000
v 0.75724692 1.29482705 0.11760323
v 0.88288056 1.21265078 -1.22919629
v 1.00529018 1.11327968 -0.95894958
v -0.59691662 1.37611429 -0.14665864
v -0.99126729 1.12578380 -0.41275595
v 1.00369591 1.11471724 -1.50000000
v -1.00369591 1.11471724 -1.50000000
v 0.75000000 1.29903811 -1.50000000
v 0.46110972 1.42736745 0.95547270
v -0.75000000 1.29903811 -1.50000000
v 1.21580253 0.87853526 0.65162460
v -0.46352549 1.42658477 1.50000000
v -1.19416654 0.90772588 0.65253990
v -0.15679269 1.49178284 1.50000000
v -1.10329523 1.01623798 -0.68008242
v 0.31186754 1.46722140 -1.22855143
v -0.44975831 1.43098479 0.12263248
v -0.29901330 1.46989491 -0.14801933
v -0.14354454 1.49311586 0.12053841
v 0.88531776 1.21087260 -0.68924135
v -0.59583818 1.37658159 0.39200143
v -0.46352549 1.42658477 -1.50000000
v 0.46352549 1.42658477 -1.50000000
v 0.15679269 1.49178284 -1.50000000
v -0.15679269 1.49178284 -1.50000000
v 0.01192366 1.49995261 -0.14886501
v -0.14506320 1.49296908 -0.41784881
v 0.16868990 1.49048439 0.11963601
v -0.45152040 1.43042977 -0.41691461
v -1.36577342 0.62021203 0.97468453
v -0.73771795 1.30605215 -0.41462139
v 0.16751927 1.49061641 -0.41870271
v 0.47357441 1.42328046 0.11862201
v 0.75578100 1.29568325 -0.41965940
v 0.32221205 1.46498443 -0.14942422
v 0.61800478 1.36677361 -0.14997769
v -0.87046886 1.22159075 -0.68214016
v -0.86315793 1.22676745 0.39605288
v 0.47194878 1.42382034 -0.41852755
v 1.48322932 0.22367562 0.74156711
v -1.47941542 0.24764898 0.74966175
v -1.48221373 0.23030951 -0.13230333
v -1.48371618 0.22042296 1.03998564
v 1.48068714 0.23992828 1.04922094
v 1.48324082 0.22359936 0.45349726
v -1.44143849 0.41503622 0.89813304
v 1.48332189 0.22306092 -0.72154619
v -1.44026944 0.41907510 0.62585641
v 1.42821517 0.45847730 0.82842692
v -1.48391461 0.21908319 1.27903627
v 1.49026994 0.17057406 1.33977371
v 1.44291077 0.40988841 0.60795532
v -2.94353430 0.57931498 -0.55214351
v -2.83372504 0.98488700 0.02628875
v -2.73709156 1.22814078 -0.47225178
v 2.93444280 0.62373507 -1.50000000
v 2.96771404 0.43894575 -0.92228918
v -0.82215709 2.88514432 1.04815881
v -0.85403421 2.87586953 0.52907602
v -1.35549441 2.67630994 0.96597976
v -1.31713942 2.69539306 0.35742189
v -0.87565220 2.86936112 -0.50607634
v -1.28226302 2.71215810 -0.94027679
v -1.27893775 2.71372774 -0.22952640
v -2.96154787 0.47878410 0.00750080
v -1.66872005 2.49306506 -0.50505628
v 0.92705098 2.85316955 -1.50000000
v 0.44208017 2.96724875 -0.91680918
v 0.91018794 2.85859370 -0.89525658
v -2.74959463 1.19988723 0.52974849
v -2.95177339 0.53575541 0.56178313
v -2.84393976 0.95499040 -0.97812706
v -0.31358539 2.98356569 -1.50000000
v -0.82628828 2.88396388 -1.02737887
v -0.41060004 2.97176843 -0.78619499
v 0.31358539 2.98356569 -1.50000000
v 0.02775864 2.99987157 -1.02306161
v -2.63407314 1.43584773 0.99961554
v -2.44936090 1.73223301 0.53489777
v 1.36638246 2.67076749 -0.97857130
v 1.50000000 2.59807621 -1.50000000
v -1.78155288 2.41372520 0.08541914
v -2.05824095 2.18257742 -0.45551017
v -2.22690359 2.01019910 0.07565097
v 1.85555291 2.35731275 -0.98589954
v 2.00739182 2.22943448 -1.50000000
v -2.06352893 2.17757855 0.57364411
v -2.58670774 1.51952067 0.06424950
v -2.87082101 0.87085403 0.99089291
v -2.42389797 1.76768736 -0.42478710
v 2.28828111 1.94004370 -0.98675013
v 2.42705098 1.76335576 -1.50000000
v 2.94235584 0.58527097 -0.50000000
v -2.93444280 0.62373507 -1.50000000
v -2.74063637 1.22020993 -1.50000000
v -2.59455536 1.50608183 -0.95601090
v -2.23015333 2.00659317 -0.96230000
v -2.42705098 1.76335576 -1.50000000
v -2.00739182 2.22943448 -1.50000000
v -1.78490668 2.41124618 -0.97799154
v -1.14805030 2.77163860 1.50000000
v -1.66671070 2.49440884 1.50000000
v -1.50000000 2.59807621 -1.50000000
v -0.92705098 2.85316955 -1.50000000
v 2.62675650 1.44918954 -0.98631340
v 2.74063637 1.22020993 -1.50000000
v -0.58527097 2.94235584 1.50000000
v 0.58527097 2.94235584 -0.50000000
v 0.00000000 3.00000000 -0.50000000
v -2.77163860 1.14805030 1.50000000
v -2.94235584 0.58527097 1.50000000
v -2.49440884 1.66671070 1.50000000
v -2.12132034 2.12132034 1.50000000
v -2.29997846 1.92616175 1.02610388
v -0.88151770 2.86756457 0.03376284
v -0.44673451 2.96655158 -0.24818518
v 2.85627118 0.91745024 -0.97841908
v 0.00000000 3.00000000 0.00000000
v -0.44504012 2.96680624 0.25448536
v 0.00000000 3.00000000 0.50000000
v -0.44387305 2.96698108 0.74657304
v 0.00000000 3.00000000 1.00000000
v 2.77163860 1.14805030 -0.50000000
v -1.88040457 2.33753688 1.02732211
v -2.96574624 0.45205001 -1.05398515
v 2.49440884 1.66671070 -0.50000000
v -1.66986961 2.49229523 0.61453000
v 2.12132034 2.12132034 -0.50000000
v 0.00000000 3.00000000 1.50000000
v -0.37615712 2.97632421 1.15278383
v -2.96859947 0.43291710 1.06294864
v 1.66671070 2.49440884 -0.50000000
v 1.14805030 2.77163860 -0.50000000
v -1.02655666 -1.45401889 -1.50000000
v -1.31114148 -1.21919511 -1.50000000
v -1.39801389 -1.60203054 -1.50000000
v -1.03504924 -1.85302055 -1.50000000
v -1.47326252 -2.06143176 -1.50000000
v 2.38811661 0.77900943 -1.50000000
v 2.04220660 0.43521610 -1.50000000
v 1.93060875 0.86060729 -1.50000000
v -0.99729886 -2.32328396 -1.50000000
v 1.00556148 2.31269193 -1.50000000
v 1.88864958 -1.67103425 -1.50000000
v 2.37529298 -0.76771452 -1.50000000
v 0.01554447 -2.49837970 -1.50000000
v 2.48044088 0.26061470 -1.50000000
v -1.04032291 2.29763288 -1.50000000
v 1.86459198 1.70026959 -1.50000000
v -2.48104977 -0.26082490 -1.50000000
v -2.19035483 1.25345703 -1.50000000
v 1.04569638 -2.29474873 -1.50000000
v -2.18277822 -1.26696077 -1.50000000
v -0.02193278 2.52168032 -1.50000000
v -2.07480816 0.42820499 -1.50000000
v -2.10348477 -0.00103234 -1.50000000
v -2.51088740 0.26415225 -1.50000000
v 2.48349671 -0.26048296 -1.50000000
v 2.03927035 -0.43274454 -1.50000000
v 2.08470509 0.00027933 -1.50000000
v -1.87557415 -1.69982771 -1.50000000
v -2.40068577 0.76457788 -1.50000000
v 2.17624685 1.25891788 -1.50000000
v -1.43095032 1.56926410 -1.50000000
v -1.87512742 1.68180586 -1.50000000
v -1.49783423 2.03247626 -1.50000000
v -1.52670741 -0.89996971 -1.50000000
v -1.68171860 -0.55417194 -1.50000000
v 0.73574276 -1.60879627 -1.50000000
v 0.39251201 -1.73638318 -1.50000000
v -0.01777806 1.76896206 -1.50000000
v 0.34767310 1.74591399 -1.50000000
v -0.73498354 1.60975941 -1.50000000
v -0.39251201 1.73638318 -1.50000000
v 0.70328383 1.62329226 -1.50000000
v 1.02784606 1.45371432 -1.50000000
v 1.32511099 -1.17107174 -1.50000000
v 1.06482823 -1.42661595 -1.50000000
v 0.01779062 -1.76889287 -1.50000000
v -0.34761741 -1.74559692 -1.50000000
v 1.47073412 2.03568161 -1.50000000
v 1.48233592 -2.02617192 -1.50000000
v 2.17389935 -1.24899030 -1.50000000
v -0.52916731 2.45440118 -1.50000000
v 0.52882161 -2.44938517 -1.50000000
v 0.51385247 2.45738598 -1.50000000
v 1.30679010 1.19642342 -1.50000000
v 1.52999219 0.89189873 -1.50000000
v -1.54199199 0.87430714 -1.50000000
v -1.32435056 1.17962988 -1.50000000
v -0.51130649 -2.45848850 -1.50000000
v 1.70208872 1.24777063 -1.50000000
v -1.71929337 1.22602867 -1.50000000
v 1.40430246 1.57850689 -1.50000000
v -1.93678741 0.84674170 -1.50000000
v -1.70129843 -1.25964829 -1.50000000
v -1.91357543 -0.86990587 -1.50000000
v -2.04569048 -0.43562942 -1.50000000
v -2.38236924 -0.77520529 -1.50000000
v -0.62319398 -2.02872928 -1.50000000
v 1.06723071 -1.81753690 -1.50000000
v -0.23570491 2.09448441 -1.50000000
v 0.23464556 -2.09057310 -1.50000000
v 0.63657592 2.00930749 -1.50000000
v 1.71332041 -1.22638481 -1.50000000
v -1.06613961 1.81873131 -1.50000000
v -0.66647171 2.00189873 -1.50000000
v 1.04138398 1.83553242 -1.50000000
v 0.20378096 2.09962237 -1.50000000
v 0.66744150 -1.99957056 -1.50000000
v 1.42357931 -1.55646926 -1.50000000
v -0.20804135 -2.08854609 -1.50000000
v -0.69196955 -1.64862888 -1.50000000
v 1.92073066 -0.84877013 -1.50000000
v 1.67705098 0.54490690 -1.50000000
v 1.75369591 -0.18432087 -1.50000000
v -1.75477688 0.18222390 -1.50000000
v -1.69359033 0.53387452 -1.50000000
v -1.05633979 1.42738097 -1.50000000
v 1.75369591 0.18432087 -1.50000000
v 1.67785401 -0.54291219 -1.50000000
v 1.54474684 -0.87387441 -1.50000000
v -1.75369591 -0.18432087 -1.50000000
v 5.36992437 1.20032324 1.50000000
v 5.77121412 2.13914235 1.50000000
v 4.74114340 2.05780760 1.50000000
v -1.07724878 1.79370547 1.50000000
v -0.68335184 1.97864255 1.50000000
v -1.12945738 2.23793738 1.50000000
v 2.06210113 -2.20419451 1.50000000
v 2.90870897 -1.81168262 1.50000000
v 2.38507475 -1.45809699 1.50000000
v 1.52816813 -1.89289650 1.50000000
v 1.23652581 -2.25468077 1.50000000
v 3.75361512 2.26290910 1.50000000
v 3.93418986 1.50704090 1.50000000
v 1.59516591 3.00000000 1.50000000
v 1.51898913 2.14739828 1.50000000
v 2.15703253 2.27797479 1.50000000
v 4.60520985 1.24699855 1.50000000
v 0.90895602 -2.56238088 1.50000000
v 1.59516591 -3.00000000 1.50000000
v -0.67638051 2.42484731 1.50000000
v 0.69120231 -3.00000000 1.50000000
v -1.71710863 1.22488477 1.50000000
v -1.42440165 1.54062787 1.50000000
v -1.93354986 1.63137873 1.50000000
v 2.54125660 1.64323341 1.50000000
v 2.91601525 2.29043118 1.50000000
v -0.23748282 2.10231043 1.50000000
v 0.97028781 2.44110005 1.50000000
v 1.75356777 1.21786494 1.50000000
v 2.29032148 1.14893224 1.50000000
v 1.95445139 1.66772355 1.50000000
v 6.17512987 1.46485791 1.50000000
v -0.30035022 2.55951412 1.50000000
v 0.02107953 2.44097114 1.50000000
v -2.21482071 -1.19334983 1.50000000
v -1.70983539 -1.20848771 1.50000000
v -1.92289126 -0.83553633 1.50000000
v 2.52903636 3.00000000 1.50000000
v 0.32810135 -1.77895920 1.50000000
v 0.71098257 -1.63127888 1.50000000
v 0.36115137 -2.51803617 1.50000000
v 4.39677727 3.00000000 1.50000000
v 0.42625613 2.47865591 1.50000000
v -1.16729248 -2.18385063 1.50000000
v -0.73702645 -2.03539587 1.50000000
v -1.10020695 -1.78076362 1.50000000
v -2.47979021 0.24543294 1.50000000
v -2.38709594 0.74634278 1.50000000
v 2.66097449 -2.38662380 1.50000000
v -1.56835754 1.97331755 1.50000000
v 1.86362710 -1.63242033 1.50000000
v 7.72491624 -1.04807233 1.50000000
v 6.95791412 -1.42772873 1.50000000
v 7.68128879 -2.05230498 1.50000000
v 0.69120231 3.00000000 1.50000000
v -2.19066903 1.22148000 1.50000000
v -1.91204975 0.84716751 1.50000000
v 2.52903636 -3.00000000 1.50000000
v -1.92592464 -1.61139235 1.50000000
v 8.36804169 -1.46918864 1.50000000
v 0.13587021 -2.13197074 1.50000000
v 0.66073469 -2.03918747 1.50000000
v 2.42349782 0.67844554 1.50000000
v 1.96697108 0.81146646 1.50000000
v 2.06005640 0.39973616 1.50000000
v -0.90246908 -2.46925887 1.50000000
v -2.06102904 -0.42536008 1.50000000
v -2.40862493 -0.73516649 1.50000000
v 3.46290682 3.00000000 1.50000000
v -0.73555483 -1.60931632 1.50000000
v -0.39334940 -1.73438276 1.50000000
v -1.52286442 0.89544351 1.50000000
v -1.67833795 0.55405992 1.50000000
v -1.68448837 -0.53257211 1.50000000
v -1.53476432 -0.87653612 1.50000000
v 4.94210320 -2.24924178 1.50000000
v 5.80353484 -2.25748767 1.50000000
v 5.43378340 -1.47789925 1.50000000
v 4.39677727 -3.00000000 1.50000000
v 4.01581671 -2.15437969 1.50000000
v -0.12578225 -2.49934405 1.50000000
v -0.53892269 -2.40019571 1.50000000
v 8.57572376 -0.52290724 1.50000000
v 9.37888494 -0.50000151 1.50000000
v 9.14508452 0.45206671 1.50000000
v -1.43227365 -1.53276585 1.50000000
v -2.49985644 -0.25845226 1.50000000
v -2.08996588 0.00085022 1.50000000
v 3.21909650 1.62395405 1.50000000
v 3.28640440 -2.35892592 1.50000000
v 2.48338333 -0.28010237 1.50000000
v 2.05159525 -0.46143139 1.50000000
v 2.40246134 -0.86726332 1.50000000
v 8.35454471 0.33914704 1.50000000
v 1.69180077 0.53519974 1.50000000
v -1.57077103 -1.95619629 1.50000000
v 4.67801111 -1.61201795 1.50000000
v 4.09863558 -1.30183563 1.50000000
v 3.49617694 -1.54132137 1.50000000
v 3.46290682 -3.00000000 1.50000000
v 9.17361642 -1.42916701 1.50000000
v 1.54856496 0.88279430 1.50000000
v 5.33064773 -3.00000000 1.50000000
v 1.90239318 -0.87077899 1.50000000
v -0.03996405 -1.79078268 1.50000000
v 1.07356007 -1.81274685 1.50000000
v -2.02607220 0.43065494 1.50000000
v 0.62588322 2.03422765 1.50000000
v 1.05080709 1.87470053 1.50000000
v 3.37899883 0.97783118 1.50000000
v 2.91224321 0.53078889 1.50000000
v 3.46593306 0.37305570 1.50000000
v 10.00000000 -1.00000000 1.50000000
v 10.00000000 -2.00000000 1.50000000
v 10.00000000 1.00000000 1.50000000
v 10.00000000 0.00000000 1.50000000
v 2.79050332 1.06227852 1.50000000
v 6.26451818 3.00000000 1.50000000
v 6.77322213 2.08892052 1.50000000
v 5.33064773 3.00000000 1.50000000
v 7.19838864 3.00000000 1.50000000
v 7.19838864 -3.00000000 1.50000000
v 6.71996667 -2.21666159 1.50000000
v 6.26451818 -3.00000000 1.50000000
v 8.13225909 -3.00000000 1.50000000
v 7.71567899 2.22410386 1.50000000
v 8.13225909 3.00000000 1.50000000
v 0.72435145 1.62171193 1.50000000
v 0.36662228 1.72482220 1.50000000
v 1.53737045 -0.89015538 1.50000000
v 1.67705098 -0.54490690 1.50000000
v 8.59919432 2.19124446 1.50000000
v 9.06612955 3.00000000 1.50000000
v 8.18670261 1.54027077 1.50000000
v 9.14232467 1.47084769 1.50000000
v 2.95903435 -0.58095639 1.50000000
v 10.00000000 2.00000000 1.50000000
v 7.71698387 -0.09980925 1.50000000
v 7.71693347 0.83723495 1.50000000
v 6.93251875 0.31096507 1.50000000
v 6.86359209 1.16060388 1.50000000
v 5.45869851 -0.60089013 1.50000000
v 6.21937112 -0.99109891 1.50000000
v 6.18177993 -0.16321192 1.50000000
v 4.02241997 0.81797010 1.50000000
v 6.15229856 0.68940987 1.50000000
v 5.43021700 0.21535762 1.50000000
v 2.92863536 -1.18016180 1.50000000
v 6.96817573 -0.58105605 1.50000000
v 9.06612955 -3.00000000 1.50000000
v 8.57020069 -2.20798394 1.50000000
v 1.32864973 1.19173933 1.50000000
v 1.41928289 1.58929465 1.50000000
v 0.21697458 2.06437526 1.50000000
v 4.70983105 0.54283025 1.50000000
v 7.45875070 1.54929011 1.50000000
v -0.71722140 1.61090564 1.50000000
v -1.31042871 -1.17991531 1.50000000
v 1.04550202 1.43990411 1.50000000
v 4.75712706 -0.23699134 1.50000000
v 4.77324675 -0.96619094 1.50000000
v -1.03647451 1.42658477 1.50000000
v -1.75369591 0.18432087 1.50000000
v -0.36637312 1.72359559 1.50000000
v 1.76848991 0.16719545 1.50000000
v 1.75565024 -0.18959120 1.50000000
v 2.08863242 -0.01594554 1.50000000
v 0.00002977 1.76196865 1.50000000
v -1.05585804 -1.42612545 1.50000000
v -1.30616886 1.19743265 1.50000000
v -1.76394821 -0.16945457 1.50000000
v 4.10424571 -0.62101403 1.50000000
v 3.50236935 -0.27236069 1.50000000
v 4.08571702 0.09411793 1.50000000
v 9.31278084 -2.29428334 1.50000000
v 10.00000000 -3.00000000 1.50000000
v 3.52431628 -0.91608982 1.50000000
v 10.00000000 3.00000000 1.50000000
v 9.32875608 2.30920214 1.50000000
v 8.54022654 0.95683817 1.50000000
v 2.95643354 -0.00882266 1.50000000
v -0.27508140 -2.08447752 1.50000000
v 1.03770665 -1.43288311 1.50000000
v 2.04910275 -1.21410735 1.50000000
v 1.31042871 -1.17991531 1.50000000
v 1.69195739 -1.24197710 1.50000000
v 2.48032922 0.20769879 1.50000000
v 6.23166707 -1.70911369 1.50000000
v 1.40502652 -1.56044004 1.50000000
v 3.46290682 -3.00000000 -0.50000000
v 3.44337373 -2.12023601 -0.50000000
v 4.06611715 -2.23135167 -0.50000000
v 4.50396640 1.37738540 -0.50000000
v 4.04338663 2.20111611 -0.50000000
v 4.88764020 2.21903974 -0.50000000
v 1.59516591 3.00000000 -0.50000000
v 2.52903636 3.00000000 -0.50000000
v 2.13176513 2.58538000 -0.50000000
v 2.52903636 -3.00000000 -0.50000000
v 1.59516591 -3.00000000 -0.50000000
v 2.13551954 -2.58810881 -0.50000000
v 4.39677727 -3.00000000 -0.50000000
v 3.71562594 1.52802584 -0.50000000
v 2.76536438 -2.32481485 -0.50000000
v 2.74659235 2.31117084 -0.50000000
v 3.46290682 3.00000000 -0.50000000
v 3.38345304 2.13403270 -0.50000000
v 5.39133505 1.48968953 -0.50000000
v 3.47457350 0.35817883 -0.50000000
v 4.10737673 0.15253350 -0.50000000
v 3.60146280 -0.35105648 -0.50000000
v 4.04486071 -0.95658135 -0.50000000
v 3.34437842 -1.01450610 -0.50000000
v 5.33064773 3.00000000 -0.50000000
v 5.76007689 2.22287394 -0.50000000
v 8.02574019 -1.32934234 -0.50000000
v 9.08331914 -1.42603997 -0.50000000
v 8.54475922 -2.21535133 -0.50000000
v 4.29669444 -0.41174926 -0.50000000
v 7.64832652 -2.24244230 -0.50000000
v 4.85834020 -0.87193649 -0.50000000
v 4.39677727 3.00000000 -0.50000000
v 5.33064773 -3.00000000 -0.50000000
v 4.87766875 -2.22009733 -0.50000000
v 5.79043087 -2.09668243 -0.50000000
v 4.46451758 -1.49330360 -0.50000000
v 6.62536322 2.21738150 -0.50000000
v 6.14256009 1.40527801 -0.50000000
v 5.70500515 -1.19718960 -0.50000000
v 6.47363977 -1.45521050 -0.50000000
v 7.57987279 2.14315102 -0.50000000
v 6.92281472 1.56700253 -0.50000000
v 3.96062899 0.82710525 -0.50000000
v 3.33047152 1.00821614 -0.50000000
v 9.07602450 1.53761155 -0.50000000
v 9.16043940 0.53643508 -0.50000000
v 8.31009672 0.97339058 -0.50000000
v 6.26451818 3.00000000 -0.50000000
v 10.00000000 0.00000000 -0.50000000
v 9.18750888 -0.39469937 -0.50000000
v 10.00000000 1.00000000 -0.50000000
v 6.76498188 -2.25014646 -0.50000000
v 6.26451818 -3.00000000 -0.50000000
v 7.19838864 3.00000000 -0.50000000
v 7.53414217 1.27041116 -0.50000000
v 10.00000000 -1.00000000 -0.50000000
v 10.00000000 2.00000000 -0.50000000
v 10.00000000 -2.00000000 -0.50000000
v 8.48925799 -0.69795991 -0.50000000
v 5.87325221 0.81432478 -0.50000000
v 5.12918536 0.93712454 -0.50000000
v 7.19838864 -3.00000000 -0.50000000
v 8.13225909 -3.00000000 -0.50000000
v 8.13225909 3.00000000 -0.50000000
v 5.13919251 -1.57584189 -0.50000000
v 5.55483818 -0.39027736 -0.50000000
v 4.81795991 -0.09631940 -0.50000000
v 8.42687494 0.12814055 -0.50000000
v 7.00724243 -0.09945577 -0.50000000
v 6.17383779 0.12412557 -0.50000000
v 6.73213532 0.79879095 -0.50000000
v 6.35333770 -0.66937297 -0.50000000
v 3.08515721 -1.64399101 -0.50000000
v 3.75145877 -1.55447311 -0.50000000
v 7.16525204 -0.91891835 -0.50000000
v 7.86044651 -0.36417223 -0.50000000
v 9.06612955 -3.00000000 -0.50000000
v 3.08779409 1.61906221 -0.50000000
v 8.55641816 2.28004369 -0.50000000
v 7.21558808 -1.63921199 -0.50000000
v 9.06612955 3.00000000 -0.50000000
v 5.37480376 0.34918199 -0.50000000
v 10.00000000 -3.00000000 -0.50000000
v 9.31278084 -2.29428334 -0.50000000
v 7.62355327 0.48668505 -0.50000000
v 8.15243216 1.68746333 -0.50000000
v 4.63497998 0.60035264 -0.50000000
v 10.00000000 3.00000000 -0.50000000
v 9.33583350 2.33830909 -0.50000000
v 0.69120231 -3.00000000 -0.50000000
v 0.69120231 3.00000000 -0.50000000
v 0.43478938 -3.00000000 0.84634201
v 0.28149792 -3.00000000 1.21158550
v 0.43301270 -3.00000000 0.25000000
v 1.14318411 -3.00000000 0.80927290
v 2.06321328 -3.00000000 0.27711748
v 1.04522991 -3.00000000 0.01439840
v 0.40866389 -3.00000000 -0.17651451
v 2.06210113 -3.00000000 0.98843152
v 3.92984204 -3.00000000 0.30875554
v 5.01935757 -3.00000000 0.16666667
v 4.73400827 -3.00000000 0.86097413
v 3.92984204 -3.00000000 0.99917814
v 2.99597159 -3.00000000 0.69124446
v 2.99597159 -3.00000000 0.00410932
v 8.56620140 -3.00000000 0.26891906
v 7.66532386 -3.00000000 0.69124446
v 5.79758295 -3.00000000 0.69124446
v 6.73145341 -3.00000000 0.30875554
v 6.73145341 -3.00000000 0.99589068
v 5.79758295 -3.00000000 0.00410932
v 7.66532386 -3.00000000 0.00410932
v 8.58368261 -3.00000000 0.98258039
v 10.00000000 -3.00000000 0.50000000
v 9.36983704 -3.00000000 0.16057120
v 9.35947496 -3.00000000 0.86327664
v 0.42682032 3.00000000 0.15325484
v 0.27950566 3.00000000 -0.21168629
v 2.05662521 3.00000000 0.26943518
v 1.05961314 3.00000000 0.20346137
v 1.14318411 3.00000000 0.92496274
v 0.44964357 3.00000000 0.73387929
v 2.06210113 3.00000000 0.98843152
v 0.42503319 3.00000000 1.16554886
v 2.99597159 3.00000000 0.69124446
v 2.99597159 3.00000000 0.00410932
v 8.56620140 3.00000000 0.73108094
v 7.66532386 3.00000000 0.30875554
v 3.92984204 3.00000000 0.30875554
v 4.86371250 3.00000000 0.69124446
v 6.73145341 3.00000000 0.69124446
v 5.79758295 3.00000000 0.30875554
v 4.86371250 3.00000000 0.00410932
v 5.79758295 3.00000000 0.99589068
v 6.73145341 3.00000000 0.00410932
v 3.92984204 3.00000000 0.99589068
v 7.66532386 3.00000000 0.99589068
v 8.58368261 3.00000000 0.01741961
v 10.00000000 3.00000000 0.50000000
v 9.36983704 3.00000000 0.83942880
v 9.35947496 3.00000000 0.13672336
v 10.00000000 -1.50000000 0.36602540
v 10.00000000 1.50000000 0.36602540
v 10.00000000 -0.49826565 0.53527447
v 10.00000000 0.50728309 0.54486809
v 10.00000000 2.34254833 0.76631772
v 10.00000000 -2.34254833 0.76631772
v 10.00000000 -2.42018787 0.07798206
v 10.00000000 2.42018787 0.07798206
f 1 2 3
f 4 2 1
f 5 6 7
f 5 8 6
f 9 10 11
f 12 13 14
f 15 16 17
f 11 10 18
f 17 19 15
f 12 20 13
f 21 22 23
f 24 9 11
f 25 24 11
f 26 21 23
f 27 28 29
f 30 31 25
f 31 24 25
f 29 32 27
f 33 34 35
f 23 22 36
f 37 38 30
f 39 34 33
f 40 28 41
f 38 31 30
f 42 28 27
f 40 41 43
f 44 14 45
f 41 28 42
f 41 42 46
f 42 27 47
f 42 47 12
f 42 12 46
f 48 1 49
f 50 40 43
f 51 41 46
f 52 6 50
f 51 46 44
f 43 41 51
f 53 54 37
f 46 14 44
f 55 56 57
f 12 14 46
f 49 3 58
f 59 60 61
f 62 10 63
f 64 23 65
f 65 36 66
f 66 67 68
f 50 6 40
f 23 36 65
f 67 69 32
f 66 36 67
f 54 38 37
f 32 69 27
f 70 71 7
f 17 16 52
f 47 20 12
f 57 72 53
f 61 26 73
f 74 13 59
f 21 20 47
f 1 3 49
f 71 4 5
f 4 29 5
f 75 70 62
f 76 77 78
f 78 79 75
f 6 8 40
f 36 69 67
f 71 5 7
f 72 54 53
f 19 10 62
f 80 72 39
f 59 13 60
f 48 81 1
f 60 21 26
f 60 26 61
f 18 19 17
f 32 81 67
f 28 8 29
f 82 54 80
f 45 83 84
f 75 79 70
f 77 79 78
f 84 83 74
f 70 7 15
f 1 85 4
f 67 81 68
f 70 79 71
f 80 54 72
f 86 38 82
f 15 19 62
f 58 87 88
f 73 89 90
f 29 8 5
f 70 15 62
f 90 89 64
f 91 31 86
f 82 38 54
f 77 87 3
f 92 24 91
f 3 87 58
f 63 9 92
f 6 16 7
f 86 31 38
f 81 85 1
f 71 2 4
f 91 24 31
f 92 9 24
f 3 2 77
f 77 2 79
f 88 87 76
f 57 34 72
f 57 56 34
f 13 20 60
f 29 85 32
f 79 2 71
f 27 69 47
f 7 16 15
f 36 22 69
f 68 81 48
f 4 85 29
f 18 10 19
f 52 16 6
f 14 83 45
f 40 8 28
f 26 89 73
f 32 85 81
f 64 89 23
f 74 83 13
f 23 89 26
f 72 34 39
f 13 83 14
f 47 22 21
f 76 87 77
f 35 56 55
f 60 20 21
f 63 10 9
f 69 22 47
f 34 56 35
f 93 94 95
f 96 97 98
f 97 96 99
f 100 101 102
f 103 104 105
f 106 103 105
f 101 100 107
f 108 109 110
f 109 108 111
f 112 113 114
f 113 115 114
f 116 117 118
f 119 120 121
f 119 122 123
f 122 124 123
f 94 93 125
f 126 127 116
f 128 129 130
f 131 132 133
f 104 134 105
f 115 106 114
f 135 128 130
f 122 119 121
f 106 115 103
f 135 112 128
f 134 104 136
f 112 135 113
f 137 93 95
f 127 126 138
f 118 117 139
f 131 133 140
f 101 141 102
f 142 96 143
f 117 116 144
f 143 96 145
f 146 147 137
f 148 101 107
f 149 93 137
f 150 151 152
f 116 127 144
f 153 150 152
f 147 149 137
f 151 154 152
f 149 152 93
f 150 153 155
f 156 157 158
f 118 139 159
f 138 126 158
f 160 161 162
f 163 164 165
f 126 156 158
f 164 163 155
f 165 164 166
f 152 154 93
f 167 125 168
f 157 160 158
f 169 170 171
f 172 173 174
f 175 172 174
f 163 150 155
f 176 177 155
f 178 179 100
f 167 94 125
f 180 181 118
f 158 160 162
f 181 116 118
f 178 182 179
f 180 118 159
f 183 184 185
f 153 176 155
f 186 156 187
f 180 187 181
f 99 109 111
f 188 189 169
f 187 156 181
f 159 139 98
f 182 190 179
f 165 189 188
f 130 191 192
f 193 161 160
f 194 195 173
f 177 164 155
f 194 196 195
f 193 197 161
f 198 186 187
f 142 199 96
f 97 159 98
f 200 199 142
f 164 201 166
f 202 178 203
f 184 204 185
f 201 205 166
f 181 156 126
f 206 207 173
f 181 126 116
f 96 199 99
f 208 209 210
f 211 190 182
f 208 210 161
f 212 213 129
f 206 173 172
f 214 215 180
f 154 202 203
f 216 217 218
f 202 182 178
f 97 214 159
f 219 206 170
f 207 194 173
f 165 166 189
f 179 218 100
f 149 153 152
f 173 195 174
f 220 200 142
f 214 180 159
f 185 169 171
f 211 221 190
f 222 183 185
f 161 210 162
f 190 216 179
f 218 217 223
f 186 157 156
f 216 218 179
f 196 193 195
f 190 224 216
f 225 215 214
f 226 221 211
f 200 227 199
f 228 182 202
f 147 229 149
f 215 198 187
f 230 160 157
f 149 229 153
f 199 227 109
f 193 160 230
f 196 197 193
f 231 198 215
f 232 233 112
f 204 234 235
f 197 208 161
f 211 182 228
f 191 130 236
f 180 215 187
f 151 202 154
f 204 169 185
f 237 238 239
f 231 215 225
f 240 157 186
f 241 214 97
f 216 242 217
f 243 244 122
f 226 245 221
f 190 221 224
f 122 244 124
f 229 176 153
f 227 246 109
f 234 245 226
f 244 134 124
f 234 247 245
f 230 157 240
f 248 249 243
f 243 249 244
f 250 134 244
f 249 250 244
f 177 201 164
f 250 251 134
f 252 253 106
f 254 207 206
f 247 255 239
f 245 247 238
f 256 238 257
f 238 247 239
f 216 224 242
f 184 234 204
f 184 247 234
f 189 219 170
f 226 211 258
f 257 237 104
f 225 214 241
f 259 186 198
f 257 238 237
f 170 172 171
f 224 221 256
f 260 224 256
f 260 256 257
f 184 255 247
f 255 261 239
f 255 262 261
f 183 255 184
f 223 217 135
f 245 238 256
f 228 202 151
f 263 198 231
f 183 262 255
f 263 262 183
f 240 186 259
f 204 188 169
f 263 231 262
f 193 230 195
f 264 163 265
f 211 228 258
f 109 246 110
f 265 163 165
f 259 198 263
f 231 225 266
f 221 245 256
f 242 260 115
f 138 162 133
f 199 109 99
f 225 120 266
f 120 241 108
f 261 262 266
f 228 264 258
f 267 268 117
f 240 259 175
f 242 224 260
f 259 263 222
f 188 204 235
f 264 150 163
f 264 151 150
f 175 259 222
f 269 270 127
f 225 241 120
f 271 272 141
f 166 205 219
f 228 151 264
f 262 231 266
f 226 258 235
f 234 226 235
f 263 183 222
f 273 274 191
f 275 271 101
f 265 165 188
f 272 276 167
f 254 206 219
f 274 275 148
f 240 175 174
f 189 166 219
f 248 243 110
f 264 265 258
f 138 158 162
f 277 278 279
f 230 240 174
f 276 280 94
f 212 129 128
f 120 108 121
f 258 265 235
f 195 230 174
f 271 141 101
f 172 175 171
f 162 210 133
f 141 272 167
f 112 233 128
f 274 148 191
f 148 275 101
f 237 239 123
f 265 188 235
f 205 254 219
f 276 94 167
f 206 172 170
f 232 112 114
f 169 189 170
f 246 248 110
f 106 253 114
f 223 130 192
f 135 217 113
f 266 120 119
f 134 251 105
f 252 106 105
f 257 104 103
f 222 185 171
f 175 222 171
f 242 115 113
f 203 178 102
f 115 260 103
f 139 117 281
f 261 266 119
f 278 282 143
f 218 223 107
f 261 119 123
f 233 212 128
f 223 135 130
f 217 242 113
f 239 261 123
f 124 134 136
f 273 191 236
f 253 232 114
f 260 257 103
f 283 284 285
f 251 252 105
f 209 286 140
f 284 146 285
f 286 131 140
f 125 203 168
f 280 283 95
f 237 123 136
f 287 273 236
f 93 154 125
f 279 278 143
f 110 243 121
f 117 268 281
f 288 220 289
f 267 117 144
f 127 270 144
f 282 288 289
f 277 279 281
f 123 124 136
f 127 138 290
f 108 110 121
f 130 129 236
f 154 203 125
f 178 100 102
f 97 99 111
f 241 97 111
f 133 210 140
f 100 218 107
f 146 137 285
f 213 291 292
f 291 287 292
f 94 280 95
f 133 132 290
f 269 127 290
f 279 143 145
f 268 277 281
f 270 267 144
f 132 269 290
f 138 133 290
f 203 102 168
f 129 213 292
f 243 122 121
f 210 209 140
f 220 142 289
f 107 223 192
f 95 283 285
f 141 167 168
f 281 279 293
f 143 282 289
f 108 241 111
f 104 237 136
f 191 148 192
f 98 139 293
f 96 98 145
f 236 129 292
f 142 143 289
f 287 236 292
f 102 141 168
f 137 95 285
f 148 107 192
f 139 281 293
f 279 145 293
f 145 98 293
f 294 295 296
f 296 295 297
f 298 295 299
f 295 300 299
f 131 286 301
f 286 302 301
f 303 304 305
f 306 303 305
f 307 308 309
f 307 309 310
f 311 312 313
f 308 314 309
f 314 308 315
f 283 280 316
f 317 318 319
f 320 321 322
f 323 324 325
f 319 326 327
f 328 329 324
f 326 330 327
f 306 331 303
f 332 304 320
f 304 332 305
f 333 311 313
f 331 306 334
f 318 317 335
f 332 320 322
f 283 316 336
f 319 318 326
f 329 328 337
f 338 323 325
f 324 323 339
f 328 324 339
f 340 132 301
f 341 342 340
f 342 341 343
f 344 345 327
f 132 131 301
f 343 346 347
f 324 348 325
f 348 349 325
f 345 344 350
f 342 343 347
f 351 329 337
f 352 351 337
f 353 346 354
f 346 353 347
f 132 340 355
f 356 298 299
f 357 358 359
f 354 360 361
f 353 354 361
f 362 363 364
f 365 366 363
f 349 348 367
f 368 369 316
f 370 330 326
f 362 365 363
f 371 372 373
f 341 374 343
f 375 369 368
f 376 377 322
f 378 379 367
f 372 380 373
f 366 381 363
f 382 370 326
f 383 369 375
f 384 368 385
f 368 338 385
f 361 357 359
f 348 378 367
f 368 316 338
f 349 385 325
f 374 386 343
f 386 346 343
f 366 387 381
f 385 338 325
f 388 389 344
f 379 390 367
f 391 392 393
f 351 378 329
f 384 375 368
f 302 374 341
f 383 394 369
f 395 375 384
f 312 396 397
f 370 388 330
f 398 399 318
f 400 379 378
f 382 401 370
f 402 401 382
f 400 378 351
f 376 296 377
f 330 388 344
f 403 404 405
f 295 294 300
f 395 406 375
f 407 408 409
f 407 373 408
f 399 382 326
f 398 318 335
f 405 404 308
f 349 410 385
f 402 411 401
f 318 399 326
f 410 384 385
f 302 341 301
f 370 412 388
f 329 348 324
f 413 410 349
f 321 379 400
f 387 414 381
f 396 415 397
f 414 416 417
f 414 418 416
f 419 396 312
f 298 420 295
f 406 383 375
f 403 421 404
f 422 365 362
f 423 390 379
f 371 424 372
f 413 349 367
f 395 425 424
f 426 411 402
f 295 420 297
f 427 382 399
f 428 406 395
f 386 429 346
f 342 335 340
f 371 430 424
f 363 431 364
f 432 360 354
f 422 362 297
f 409 358 393
f 428 395 424
f 346 429 354
f 425 384 410
f 433 351 352
f 434 403 405
f 388 435 389
f 418 307 416
f 417 416 306
f 329 378 348
f 381 417 431
f 414 436 418
f 405 307 418
f 364 431 332
f 370 401 412
f 381 431 363
f 423 379 321
f 434 405 418
f 395 384 425
f 437 399 398
f 407 438 373
f 402 382 427
f 333 314 315
f 426 439 411
f 440 439 426
f 430 428 424
f 438 371 373
f 440 441 439
f 442 410 413
f 390 413 367
f 414 417 381
f 429 432 354
f 392 438 407
f 411 439 443
f 405 308 307
f 361 360 357
f 436 434 418
f 439 441 331
f 425 410 442
f 432 444 360
f 445 371 438
f 446 445 438
f 392 446 438
f 447 446 392
f 445 430 371
f 387 436 414
f 448 441 440
f 448 440 449
f 443 439 331
f 448 450 441
f 440 426 451
f 312 452 313
f 402 427 453
f 454 448 449
f 450 455 304
f 449 451 358
f 427 399 437
f 400 351 433
f 456 413 390
f 457 448 454
f 458 390 423
f 440 451 449
f 457 450 448
f 357 391 393
f 388 412 435
f 457 455 450
f 427 459 453
f 412 401 460
f 458 423 455
f 442 413 456
f 458 455 457
f 358 451 359
f 456 390 458
f 424 425 372
f 426 402 453
f 437 398 347
f 419 312 311
f 314 412 460
f 451 426 453
f 433 352 294
f 398 335 342
f 404 421 311
f 411 443 460
f 442 456 380
f 457 454 461
f 459 437 353
f 456 458 461
f 425 442 372
f 435 314 333
f 442 380 372
f 330 344 327
f 400 433 376
f 398 342 347
f 459 353 361
f 433 296 376
f 380 456 461
f 420 422 297
f 427 437 459
f 268 267 345
f 271 275 328
f 458 457 461
f 321 400 376
f 401 411 460
f 358 357 393
f 433 294 296
f 435 412 314
f 459 361 359
f 353 437 347
f 453 459 359
f 270 269 317
f 276 272 323
f 274 273 462
f 278 277 463
f 312 397 452
f 373 380 408
f 407 409 393
f 451 453 359
f 449 358 409
f 357 360 391
f 360 444 391
f 447 392 391
f 332 431 305
f 380 461 408
f 408 454 409
f 331 441 303
f 423 321 320
f 454 449 409
f 417 306 305
f 392 407 393
f 461 454 408
f 450 304 303
f 304 455 320
f 421 419 311
f 314 460 309
f 444 447 391
f 309 443 310
f 321 376 322
f 317 319 464
f 460 443 309
f 282 278 465
f 443 331 310
f 431 417 305
f 441 450 303
f 455 423 320
f 310 331 334
f 394 284 336
f 284 283 336
f 345 464 327
f 316 369 336
f 268 345 350
f 462 273 466
f 337 328 467
f 463 277 350
f 389 452 468
f 297 362 377
f 296 297 377
f 316 280 469
f 278 463 465
f 470 389 468
f 404 311 315
f 462 466 471
f 452 397 468
f 271 328 339
f 415 288 472
f 323 272 339
f 311 333 315
f 328 275 467
f 288 282 472
f 274 462 467
f 269 132 355
f 389 435 313
f 323 338 469
f 452 389 313
f 335 317 355
f 416 307 334
f 397 465 468
f 273 287 466
f 345 267 464
f 270 317 464
f 277 268 350
f 307 310 334
f 300 294 471
f 294 352 471
f 464 319 327
f 466 300 471
f 280 276 469
f 272 271 339
f 276 323 469
f 275 274 467
f 340 335 355
f 466 287 473
f 338 316 469
f 317 269 355
f 362 364 377
f 341 340 301
f 377 364 322
f 435 333 313
f 369 394 336
f 397 415 472
f 267 270 464
f 364 332 322
f 352 337 474
f 291 356 473
f 463 350 470
f 299 466 473
f 467 462 474
f 344 389 470
f 308 404 315
f 282 465 472
f 306 416 334
f 287 291 473
f 465 397 472
f 350 344 470
f 300 466 299
f 463 470 468
f 465 463 468
f 337 467 474
f 462 471 474
f 471 352 474
f 356 299 473
f 475 476 477
f 478 479 55
f 480 481 482
f 482 481 483
f 484 485 486
f 487 476 475
f 485 488 486
f 489 490 491
f 492 476 493
f 494 475 477
f 495 496 497
f 498 490 489
f 497 499 495
f 493 476 487
f 500 501 492
f 489 491 502
f 489 502 503
f 504 505 506
f 503 507 508
f 503 502 507
f 35 479 33
f 506 509 504
f 492 501 510
f 492 493 511
f 506 505 512
f 508 513 514
f 33 479 515
f 508 507 513
f 516 494 517
f 518 512 519
f 512 505 519
f 518 519 520
f 510 506 512
f 477 510 512
f 518 477 512
f 521 519 522
f 519 505 522
f 523 482 524
f 521 522 525
f 525 485 526
f 517 494 518
f 517 518 520
f 520 519 521
f 514 527 528
f 518 494 477
f 529 480 523
f 61 487 59
f 530 490 531
f 532 511 533
f 534 500 532
f 535 536 534
f 522 485 525
f 532 500 511
f 536 500 534
f 514 513 527
f 484 537 538
f 509 501 536
f 526 496 495
f 528 539 478
f 506 501 509
f 73 493 61
f 59 475 74
f 523 480 482
f 486 483 537
f 486 504 483
f 531 538 540
f 540 541 542
f 542 543 544
f 536 501 500
f 484 486 537
f 528 527 539
f 531 490 499
f 515 539 545
f 487 475 59
f 522 488 485
f 482 546 524
f 504 488 505
f 61 493 487
f 495 499 498
f 536 546 509
f 500 492 511
f 84 547 516
f 545 527 548
f 74 547 84
f 538 541 540
f 542 541 543
f 497 484 538
f 483 549 482
f 535 546 536
f 537 541 538
f 486 488 504
f 539 527 545
f 548 513 550
f 551 552 529
f 531 499 497
f 90 553 73
f 531 497 538
f 533 553 90
f 550 507 554
f 527 513 548
f 480 552 543
f 554 502 555
f 529 552 480
f 482 549 546
f 555 491 530
f 484 496 485
f 513 507 550
f 483 481 537
f 507 502 554
f 502 491 555
f 543 481 480
f 477 476 510
f 541 481 543
f 544 552 551
f 539 479 478
f 509 549 504
f 537 481 541
f 497 496 484
f 510 501 506
f 524 546 535
f 504 549 483
f 516 547 494
f 510 476 492
f 499 490 498
f 485 496 526
f 73 553 493
f 505 488 522
f 546 549 509
f 475 547 74
f 511 553 533
f 493 553 511
f 515 479 539
f 494 547 475
f 543 552 544
f 491 490 530
f 55 479 35
f 196 556 557
f 558 559 560
f 556 559 558
f 194 556 196
f 561 562 563
f 50 564 52
f 503 565 489
f 30 566 37
f 53 567 57
f 17 568 18
f 55 569 478
f 526 570 525
f 514 571 508
f 84 572 45
f 520 573 517
f 11 574 25
f 44 575 51
f 498 576 495
f 577 578 579
f 580 581 582
f 560 583 558
f 579 584 577
f 563 585 561
f 586 587 588
f 208 589 590
f 201 591 592
f 446 593 594
f 444 595 596
f 430 597 598
f 176 599 600
f 254 601 602
f 571 603 508
f 574 604 25
f 566 605 37
f 576 606 495
f 568 607 18
f 565 608 489
f 406 609 610
f 386 611 612
f 564 613 52
f 563 614 585
f 586 615 587
f 616 614 609
f 611 617 615
f 589 618 619
f 556 558 557
f 620 619 621
f 622 613 564
f 623 604 574
f 624 606 576
f 625 607 568
f 626 608 565
f 627 605 566
f 616 603 571
f 628 629 595
f 626 630 597
f 624 631 593
f 623 632 591
f 627 633 599
f 625 634 601
f 207 635 194
f 569 561 478
f 570 588 525
f 84 579 572
f 573 584 517
f 520 587 573
f 514 585 571
f 205 601 254
f 447 593 446
f 177 591 201
f 432 595 444
f 197 589 208
f 445 597 430
f 229 599 176
f 55 580 569
f 572 621 45
f 567 580 57
f 44 621 575
f 428 609 406
f 374 611 386
f 569 562 561
f 580 582 569
f 567 581 580
f 572 620 621
f 50 560 564
f 579 578 572
f 627 636 605
f 622 634 613
f 626 631 608
f 625 632 607
f 623 633 604
f 624 629 606
f 575 583 51
f 616 630 603
f 568 634 625
f 574 632 623
f 576 631 624
f 566 633 627
f 565 630 626
f 570 629 628
f 588 628 586
f 584 617 577
f 17 613 568
f 589 619 590
f 53 605 567
f 526 606 570
f 498 608 576
f 30 604 566
f 11 607 574
f 503 603 565
f 619 618 575
f 571 614 616
f 635 556 194
f 609 614 610
f 611 615 612
f 615 617 573
f 613 634 568
f 608 631 576
f 607 632 574
f 606 629 570
f 604 633 566
f 603 630 565
f 605 636 567
f 621 619 575
f 585 614 571
f 587 615 573
f 570 628 588
f 573 617 584
f 560 559 564
f 43 583 560
f 583 618 558
f 575 618 583
f 597 630 598
f 591 632 592
f 595 629 596
f 593 631 594
f 599 633 600
f 601 634 602
f 478 561 528
f 525 588 521
f 521 587 520
f 517 584 516
f 516 579 84
f 528 585 514
f 590 619 620
f 563 562 637
f 582 581 638
f 57 580 55
f 45 621 44
f 43 560 50
f 51 583 43
f 383 610 637
f 302 639 640
f 429 612 641
f 610 614 563
f 612 615 586
f 637 642 394
f 284 642 638
f 638 643 146
f 147 643 644
f 52 613 17
f 25 604 30
f 495 606 526
f 37 605 53
f 489 608 498
f 18 607 11
f 639 578 577
f 508 603 503
f 562 582 642
f 590 645 209
f 620 578 645
f 201 592 205
f 208 590 209
f 430 598 428
f 446 594 445
f 383 637 394
f 196 557 197
f 284 638 146
f 254 602 207
f 429 641 432
f 302 640 374
f 444 596 447
f 176 600 177
f 147 644 229
f 581 636 643
f 561 585 528
f 588 587 521
f 516 584 579
f 286 645 639
f 610 563 637
f 639 577 640
f 612 586 641
f 286 639 302
f 406 610 383
f 386 612 429
f 642 582 638
f 637 562 642
f 638 581 643
f 590 620 645
f 394 642 284
f 146 643 147
f 209 645 286
f 645 578 639
f 643 636 644
f 569 582 562
f 567 636 581
f 602 635 207
f 572 578 620
f 592 601 205
f 557 589 197
f 596 593 447
f 594 597 445
f 641 595 432
f 600 591 177
f 644 599 229
f 598 609 428
f 640 611 374
f 641 628 595
f 558 618 557
f 640 617 611
f 622 559 635
f 602 622 635
f 592 625 601
f 596 624 593
f 600 623 591
f 594 626 597
f 644 627 599
f 598 616 609
f 586 628 641
f 557 618 589
f 577 617 640
f 644 636 627
f 564 559 622
f 598 630 616
f 596 629 624
f 592 632 625
f 600 633 623
f 594 631 626
f 602 634 622
f 635 559 556
f 646 647 648
f 649 650 651
f 652 653 654
f 652 655 656
f 648 657 658
f 659 660 661
f 648 662 646
f 656 663 664
f 651 650 665
f 664 663 666
f 652 656 664
f 667 668 669
f 661 670 671
f 665 650 672
f 673 660 659
f 674 675 676
f 646 677 647
f 678 679 551
f 672 678 665
f 658 662 648
f 680 681 682
f 683 661 671
f 252 684 685
f 666 686 88
f 687 657 648
f 551 679 688
f 689 690 691
f 692 693 533
f 652 694 653
f 669 668 695
f 654 696 652
f 697 698 699
f 551 688 700
f 701 702 667
f 533 693 532
f 700 673 659
f 703 652 664
f 704 681 680
f 699 705 697
f 684 706 707
f 708 709 710
f 251 684 252
f 667 669 701
f 659 661 683
f 689 711 690
f 695 668 649
f 682 712 713
f 683 671 714
f 249 715 716
f 396 717 718
f 200 719 720
f 721 722 723
f 667 702 717
f 719 712 682
f 724 721 725
f 649 651 695
f 58 726 727
f 532 693 701
f 691 690 715
f 686 726 88
f 728 729 730
f 523 665 529
f 49 689 48
f 535 695 524
f 68 704 66
f 731 681 704
f 532 701 534
f 65 713 64
f 732 733 692
f 90 692 533
f 657 734 658
f 707 706 686
f 90 732 692
f 735 694 703
f 736 737 738
f 730 739 728
f 710 709 740
f 741 691 731
f 709 675 674
f 725 742 743
f 704 680 66
f 88 726 58
f 725 743 744
f 704 741 731
f 676 675 670
f 724 725 745
f 661 676 670
f 746 729 728
f 689 741 48
f 523 651 665
f 298 740 747
f 688 673 700
f 728 705 746
f 689 691 741
f 748 721 724
f 684 707 685
f 690 711 727
f 248 715 249
f 419 717 396
f 220 719 200
f 712 733 732
f 738 737 749
f 250 750 251
f 656 751 707
f 692 733 752
f 701 669 534
f 748 722 721
f 717 702 718
f 671 734 657
f 721 742 725
f 719 682 720
f 673 753 754
f 653 735 744
f 688 753 673
f 755 756 757
f 356 740 298
f 665 678 529
f 758 746 759
f 752 693 692
f 68 741 704
f 760 730 761
f 695 651 524
f 762 756 755
f 713 732 64
f 763 647 764
f 687 648 765
f 763 764 766
f 648 647 765
f 765 647 763
f 767 768 769
f 65 680 713
f 723 742 721
f 770 699 767
f 767 699 768
f 660 676 661
f 764 771 766
f 766 771 772
f 715 690 716
f 535 669 695
f 754 660 673
f 773 753 774
f 745 735 703
f 768 722 769
f 775 749 776
f 772 777 778
f 699 698 768
f 64 732 90
f 744 735 725
f 777 779 780
f 703 694 652
f 772 771 777
f 736 738 781
f 782 780 760
f 708 675 709
f 783 784 785
f 750 684 251
f 764 677 786
f 787 788 789
f 790 755 757
f 66 680 65
f 749 737 776
f 658 734 755
f 791 646 792
f 723 788 787
f 738 654 793
f 794 697 783
f 697 728 783
f 784 786 785
f 789 794 785
f 795 796 770
f 713 680 682
f 718 702 752
f 48 741 68
f 682 681 720
f 785 786 791
f 789 785 791
f 797 674 798
f 753 799 774
f 646 800 792
f 786 801 764
f 794 783 785
f 760 780 730
f 789 791 792
f 714 657 687
f 769 722 748
f 740 709 747
f 802 650 649
f 727 711 58
f 49 711 689
f 524 651 523
f 671 657 714
f 770 796 699
f 803 681 731
f 762 734 670
f 804 797 798
f 787 792 805
f 758 729 746
f 806 723 787
f 787 789 792
f 730 729 761
f 649 668 807
f 752 733 808
f 790 658 755
f 806 787 805
f 789 788 794
f 672 650 809
f 712 732 713
f 747 674 797
f 798 676 660
f 810 811 812
f 813 809 436
f 434 809 802
f 802 807 403
f 246 803 814
f 421 807 815
f 720 803 227
f 718 808 415
f 288 808 816
f 688 799 753
f 817 806 805
f 818 817 819
f 738 793 781
f 817 805 819
f 759 820 821
f 666 663 686
f 707 663 656
f 813 799 672
f 796 705 699
f 291 811 810
f 821 820 795
f 809 650 802
f 720 681 803
f 702 693 752
f 822 743 817
f 718 752 808
f 803 731 814
f 529 678 551
f 802 649 807
f 647 677 764
f 387 774 813
f 819 790 757
f 807 668 815
f 387 813 436
f 249 716 250
f 434 802 403
f 246 814 248
f 534 669 535
f 421 815 419
f 200 720 227
f 396 718 415
f 288 816 220
f 823 824 782
f 808 733 816
f 779 825 780
f 791 677 646
f 805 800 819
f 776 811 213
f 813 672 809
f 675 762 670
f 788 698 794
f 291 810 356
f 818 819 757
f 697 705 728
f 654 653 793
f 778 824 823
f 744 743 822
f 436 809 434
f 403 807 421
f 227 803 246
f 792 800 805
f 415 808 288
f 764 801 771
f 58 711 49
f 812 737 736
f 213 811 291
f 728 739 783
f 725 735 745
f 819 800 790
f 818 757 826
f 726 706 827
f 212 776 213
f 773 774 366
f 686 663 707
f 653 744 793
f 670 734 671
f 774 799 813
f 810 812 710
f 365 773 366
f 252 685 253
f 366 774 387
f 794 698 697
f 818 822 817
f 814 715 248
f 815 717 419
f 816 719 220
f 811 737 812
f 716 750 250
f 646 662 800
f 212 775 776
f 776 737 811
f 814 691 715
f 298 747 420
f 420 797 422
f 709 674 747
f 827 706 750
f 674 676 798
f 781 818 826
f 685 828 253
f 233 775 212
f 738 829 654
f 232 830 233
f 707 751 685
f 747 797 420
f 672 679 678
f 727 726 827
f 701 693 702
f 771 779 777
f 831 749 775
f 832 708 710
f 253 828 232
f 810 740 356
f 806 742 723
f 790 662 658
f 736 781 826
f 788 833 698
f 782 824 780
f 731 691 814
f 365 804 773
f 793 822 781
f 786 677 791
f 800 662 790
f 830 775 233
f 422 804 365
f 810 710 740
f 754 753 773
f 781 822 818
f 232 828 830
f 816 712 719
f 716 827 750
f 716 690 827
f 816 733 712
f 815 668 667
f 815 667 717
f 750 706 684
f 812 832 710
f 422 797 804
f 722 833 723
f 817 743 806
f 812 736 832
f 744 822 793
f 830 831 775
f 804 798 754
f 780 824 777
f 832 756 708
f 746 820 759
f 685 751 828
f 784 825 779
f 761 729 758
f 690 727 827
f 834 696 831
f 783 739 784
f 768 833 722
f 723 833 788
f 749 829 738
f 708 762 675
f 804 754 773
f 736 826 832
f 830 834 831
f 828 834 830
f 686 706 726
f 739 825 784
f 751 655 834
f 798 660 754
f 755 734 762
f 826 756 832
f 757 756 826
f 828 751 834
f 698 833 768
f 795 820 796
f 777 824 778
f 784 801 786
f 796 820 746
f 746 705 796
f 780 825 730
f 708 756 762
f 799 679 672
f 654 829 696
f 696 829 831
f 656 655 751
f 696 655 652
f 653 694 735
f 779 801 784
f 834 655 696
f 771 801 779
f 831 829 749
f 743 742 806
f 730 825 739
f 688 679 799
f 835 836 837
f 838 839 840
f 841 842 843
f 844 845 846
f 847 835 837
f 839 838 848
f 835 849 836
f 835 844 849
f 850 851 852
f 842 851 850
f 838 840 853
f 854 855 856
f 857 858 856
f 859 860 840
f 554 555 841
f 845 92 91
f 861 862 863
f 856 855 864
f 865 861 863
f 857 856 864
f 866 857 864
f 840 860 853
f 839 867 840
f 851 867 839
f 868 869 870
f 857 866 871
f 860 872 873
f 870 874 875
f 872 876 877
f 868 847 869
f 838 878 848
f 878 879 848
f 880 881 882
f 554 841 843
f 845 91 846
f 859 883 860
f 881 884 885
f 886 881 880
f 867 859 840
f 860 883 872
f 887 888 870
f 888 868 870
f 889 876 872
f 876 890 877
f 869 847 837
f 891 862 885
f 886 884 881
f 892 886 880
f 891 893 862
f 854 879 878
f 884 891 885
f 862 861 894
f 887 870 875
f 853 895 896
f 883 889 872
f 897 888 887
f 33 854 856
f 898 897 865
f 897 887 865
f 889 899 876
f 853 873 895
f 870 869 900
f 854 515 879
f 901 874 866
f 874 870 900
f 858 39 856
f 850 550 843
f 902 901 866
f 881 885 903
f 904 905 906
f 901 907 874
f 908 858 909
f 548 550 850
f 853 860 873
f 910 911 861
f 912 898 863
f 545 913 879
f 851 839 852
f 876 899 914
f 910 904 911
f 861 865 915
f 849 908 836
f 907 904 910
f 80 858 908
f 879 913 848
f 907 905 904
f 33 515 854
f 899 916 914
f 898 865 863
f 901 905 907
f 854 878 855
f 909 858 857
f 80 39 858
f 901 917 905
f 39 33 856
f 902 917 901
f 902 866 864
f 515 545 879
f 885 862 894
f 893 918 919
f 545 548 913
f 873 906 895
f 911 904 920
f 880 882 921
f 903 885 894
f 918 912 919
f 902 922 917
f 922 878 838
f 923 892 924
f 910 861 915
f 82 80 908
f 855 922 902
f 906 905 895
f 873 872 877
f 907 910 875
f 909 857 871
f 855 878 922
f 916 923 924
f 904 906 920
f 920 906 890
f 908 909 836
f 882 920 890
f 914 880 921
f 842 850 843
f 82 908 849
f 838 853 896
f 86 82 849
f 874 907 875
f 882 881 903
f 906 873 877
f 913 548 850
f 892 880 924
f 550 554 843
f 91 86 846
f 911 920 903
f 862 893 919
f 871 869 837
f 848 913 852
f 86 849 846
f 922 838 896
f 866 874 900
f 909 871 837
f 869 871 900
f 849 844 846
f 865 887 915
f 912 863 919
f 920 882 903
f 911 903 894
f 875 910 915
f 905 917 895
f 880 914 924
f 876 914 921
f 863 862 919
f 836 909 837
f 855 902 864
f 882 890 921
f 890 906 877
f 895 917 896
f 861 911 894
f 914 916 924
f 871 866 900
f 917 922 896
f 890 876 921
f 839 848 852
f 887 875 915
f 913 850 852
f 925 62 63
f 530 531 926
f 925 63 92
f 845 925 92
f 555 530 926
f 555 926 841
f 927 666 928
f 929 930 927
f 931 930 932
f 932 929 933
f 930 666 927
f 930 929 932
f 925 932 933
f 930 931 934
f 935 936 937
f 938 935 937
f 664 666 930
f 666 88 928
f 62 925 933
f 845 931 932
f 845 844 931
f 931 939 934
f 925 845 932
f 939 931 940
f 745 703 939
f 898 912 941
f 770 767 942
f 835 847 935
f 847 868 936
f 935 847 936
f 769 748 943
f 888 897 944
f 935 939 940
f 939 935 938
f 943 944 945
f 944 943 946
f 944 942 945
f 942 944 947
f 936 943 937
f 943 936 946
f 941 942 947
f 942 941 948
f 939 703 934
f 931 844 940
f 664 930 934
f 745 939 938
f 835 935 940
f 769 943 945
f 942 767 945
f 888 944 946
f 943 748 937
f 770 942 948
f 898 941 947
f 944 897 947
f 936 868 946
f 918 949 950
f 912 918 950
f 76 78 927
f 78 75 929
f 948 941 951
f 949 821 951
f 941 950 951
f 821 795 951
f 703 664 934
f 941 912 950
f 844 835 940
f 78 929 927
f 795 770 948
f 724 938 937
f 724 745 938
f 897 898 947
f 868 888 946
f 748 724 937
f 767 769 945
f 88 76 928
f 75 62 933
f 76 927 928
f 929 75 933
f 795 948 951
f 950 949 951
f 952 926 953
f 954 955 956
f 957 955 952
f 954 956 958
f 956 957 959
f 955 926 952
f 955 957 956
f 700 956 959
f 841 926 955
f 551 700 959
f 926 531 953
f 841 955 954
f 842 841 954
f 960 954 958
f 700 659 956
f 954 960 961
f 772 778 962
f 899 889 963
f 683 714 960
f 867 851 964
f 687 765 965
f 763 766 966
f 883 859 967
f 964 965 968
f 966 967 969
f 967 966 970
f 965 964 971
f 966 963 970
f 963 966 972
f 965 967 968
f 967 965 969
f 964 960 971
f 960 964 961
f 962 963 972
f 963 962 973
f 842 954 961
f 683 960 958
f 867 964 968
f 883 967 970
f 687 965 971
f 964 851 961
f 963 889 970
f 763 966 969
f 967 859 968
f 772 962 972
f 960 714 971
f 965 765 969
f 899 963 973
f 966 766 972
f 823 974 975
f 778 823 975
f 956 659 958
f 540 542 952
f 542 544 957
f 973 962 976
f 974 923 976
f 962 975 976
f 923 916 976
f 659 683 958
f 962 778 975
f 542 957 952
f 916 899 973
f 714 687 971
f 766 772 972
f 851 842 961
f 765 763 969
f 859 867 968
f 889 883 970
f 531 540 953
f 544 551 959
f 540 952 953
f 957 544 959
f 916 973 976
f 975 974 976
f 758 759 977
f 782 760 978
f 891 884 979
f 979 884 980
f 884 886 980
f 979 758 977
f 891 979 977
f 978 760 980
f 886 978 980
f 782 978 981
f 977 759 982
f 761 979 980
f 760 761 980
f 761 758 979
f 886 892 978
f 893 891 977
f 823 782 981
f 974 823 981
f 759 821 982
f 821 949 982
f 893 977 983
f 978 892 984
f 981 978 984
f 977 982 983
f 892 923 984
f 923 974 984
f 918 893 983
f 949 918 983
f 974 981 984
f 982 949 983
