v 1.50000000 0.00000000 1.50000000
v 1.50000000 0.00000000 1.21428571
v 1.48139055 -0.23554622 1.18437373
v 1.46722140 -0.31186754 1.50000000
v -1.48092773 -0.23843879 -0.05879991
v -1.41676836 -0.49271433 0.10873710
v -1.42619232 -0.46473160 -0.22467280
v 1.42486419 -0.46878783 0.17125088
v 1.47372453 -0.27952820 -0.05549707
v 1.37401193 -0.60174016 -0.04238313
v -1.35612889 -0.64102608 -0.06183147
v -1.29399704 -0.75866439 1.21789725
v -1.35417458 -0.64514434 0.93714598
v -1.42601478 -0.46527611 1.21898380
v -1.20472627 -0.89366359 0.93474776
v 1.42592643 -0.46554680 -0.26682654
v 1.50000000 0.00000000 0.92857143
v 1.46128443 -0.33859682 0.95482795
v 0.88627916 -1.21016910 0.12028408
v 0.88453637 -1.21144352 -0.21792158
v 0.70001062 -1.32664431 -0.07964881
v 1.03193343 -1.08862914 -0.03346735
v -1.10975164 -1.00918348 1.21910612
v 0.47242905 -1.42366105 -0.12563032
v 0.46352549 -1.42658477 -0.50000000
v 0.25074278 -1.47889420 -0.27222738
v -1.21352549 -0.88167788 1.50000000
v -1.00369591 -1.11471724 1.50000000
v -1.44048047 -0.41834917 0.92851933
v 0.66769671 -1.34319809 -0.28380978
v -0.87903387 -1.21544209 1.22132366
v -0.73958111 -1.30499800 0.94168944
v -0.99421404 -1.12318228 0.94477958
v 0.16333559 -1.49108064 0.95439402
v 0.01384773 -1.49993608 0.67967874
v -0.14913503 -1.49256783 0.95443363
v 0.00657806 -1.49998558 0.11008399
v 0.00000000 -1.50000000 -0.22855143
v -0.21381517 -1.48468282 -0.09476676
v -0.29947785 -1.46980033 0.67760319
v -0.59693194 -1.37610765 0.67290181
v -0.45594723 -1.42902489 0.95373468
v -0.60629494 -1.37200818 1.22424157
v 0.00210068 -1.49999853 1.22731952
v -0.43866014 -1.43442577 -0.14140991
v -0.46352549 -1.42658477 -0.50000000
v -0.66204558 -1.34599244 -0.27580619
v 1.30143952 -0.74582516 0.69021130
v 1.21519794 -0.87937135 0.96193310
v 1.36856209 -0.61403403 0.96096604
v -0.86835193 -1.22309645 0.66853906
v -1.10246466 -1.01713896 0.66307791
v -0.75000000 -1.29903811 1.50000000
v -0.46352549 -1.42658477 1.50000000
v -0.26369615 -1.47663954 -0.30577976
v 1.36216272 -0.62810249 0.41840529
v 1.42821064 -0.45849139 0.66756009
v -1.48078872 -0.23930056 0.21586014
v 1.12064103 -0.99707757 0.69101349
v 1.42090280 -0.48066126 1.22164632
v -1.28684910 -0.77072654 0.65855891
v -1.35052245 -0.65275503 0.38375328
v -1.41630476 -0.49404537 0.65578952
v 1.11679836 -1.00137975 1.22864043
v 1.29763151 -0.75243104 1.22884031
v 0.61313555 -1.36896486 1.22700210
v 0.75000000 -1.29903811 1.50000000
v 0.88500411 -1.21110186 1.22756257
v 1.21352549 -0.88167788 1.50000000
v 0.75704319 -1.29494618 0.95631221
v 0.31558095 -1.46642718 1.22711607
v 1.00369591 -1.11471724 1.50000000
v 1.30469019 -0.74012398 0.16223080
v 0.47194126 -1.42382283 0.95431599
v 0.20232321 -1.48629247 -0.05379690
v -1.19951739 -0.90064312 0.39226713
v 1.21923438 -0.87376628 0.42556263
v -1.28793250 -0.76891473 0.14119382
v -0.31053180 -1.46750469 1.22677925
v 1.37031819 -0.61010496 1.50000000
v 1.48225949 -0.23001479 0.22924152
v -1.21352549 -0.88167788 -0.50000000
v -1.37031819 -0.61010496 -0.50000000
v -1.29832509 -0.75123363 -0.23922421
v 1.37031819 -0.61010496 -0.50000000
v 1.21352549 -0.88167788 -0.50000000
v 1.29951516 -0.74917310 -0.24345128
v -1.37031819 -0.61010496 1.50000000
v 1.12604060 -0.99097556 0.15764373
v 1.01427062 -1.10510411 0.42181848
v 1.00369591 -1.11471724 -0.50000000
v 1.11987753 -0.99793503 -0.24816388
v -0.88807538 -1.20885157 -0.25802156
v -1.00369591 -1.11471724 -0.50000000
v -1.11599103 -1.00227942 -0.24198786
v -0.98850122 -1.12821334 0.39493311
v -0.73343472 -1.30846227 0.39801762
v -0.59169481 -1.37836761 0.14164118
v -0.86876502 -1.22280307 0.15542407
v 1.00909522 -1.10983190 0.95802451
v -1.10497829 -1.01440770 0.14570473
v -0.15679269 -1.49178284 1.50000000
v 0.15679269 -1.49178284 1.50000000
v -0.44553460 -1.43230546 0.40156889
v -0.30158736 -1.46936893 0.14224584
v -0.13787712 -1.49364986 0.40517166
v 0.17563465 -1.48968200 0.40889194
v 0.48080791 -1.42085318 0.41281993
v 0.76453017 -1.29054005 0.41714681
v 0.61912291 -1.36626748 0.15404491
v 0.33183818 -1.46283404 0.15217283
v -0.75000000 -1.29903811 -0.50000000
v 0.46352549 -1.42658477 1.50000000
v 0.15679269 -1.49178284 -0.50000000
v -0.15679269 -1.49178284 -0.50000000
v 0.75000000 -1.29903811 -0.50000000
v 0.32686080 -1.46395424 0.68138759
v 0.62311624 -1.36445086 0.68441770
v 1.48596445 -0.20471850 0.73826019
v 0.89145776 -1.20635943 0.68781495
v 1.46722140 -0.31186754 -0.50000000
v -1.46722140 -0.31186754 -0.50000000
v -1.46722140 -0.31186754 1.50000000
v -1.50000000 -0.00000000 0.92857143
v -1.50000000 -0.00000000 1.21428571
v -1.48216971 -0.23059259 1.06919568
v -1.50000000 -0.00000000 -0.21428571
v -1.50000000 -0.00000000 0.07142857
v 1.50000000 0.00000000 0.07142857
v 1.50000000 0.00000000 -0.21428571
v -1.50000000 -0.00000000 0.64285714
v -1.48225879 -0.23001930 0.78606444
v 1.50000000 0.00000000 0.64285714
v 1.50000000 0.00000000 0.35714286
v 1.48427330 -0.21663971 0.50572844
v -1.50000000 -0.00000000 0.35714286
v -1.48183440 -0.23273763 0.50343332
v 1.44289553 -0.40994206 0.38679519
v -1.43934336 -0.42224483 0.35362495
v -0.73869383 -1.30550045 -0.05310822
v -1.50000000 -0.00000000 -0.50000000
v -1.48586646 -0.20542850 -0.29666368
v -1.50000000 0.00000000 1.50000000
v -1.48607904 -0.20388501 1.29720387
v 1.50000000 0.00000000 -0.50000000
v 1.48497422 -0.21178191 -0.29628520
v -1.00213189 -1.11612351 -0.05868970
v 1.22008355 -0.87258016 -0.03889237
v -1.21375474 -0.88136225 -0.06268508
v -1.47480094 0.27379222 0.51797468
v -1.36505686 0.62178755 0.59913421
v -1.44353655 0.40767908 0.79896219
v -1.41392084 0.50082718 0.29897472
v 1.48138509 0.23558060 -0.18323467
v 1.46722140 0.31186754 -0.50000000
v 1.42418484 0.47084768 0.83525925
v 1.47321625 0.28219474 1.05628604
v 1.37228493 0.60566828 1.04408062
v -1.34743554 0.65910353 0.89121828
v -1.31799419 0.71616431 1.19764954
v -1.41567751 0.49583990 1.03554749
v 1.42508847 0.46810559 1.26647515
v -1.43632940 0.43238623 1.25445128
v 1.46107929 0.33948096 0.04546078
v 0.75791374 1.29443685 1.06939160
v 0.88048123 1.21439401 0.83229814
v 1.00650770 1.11217905 1.04910731
v 0.46429115 1.42633577 1.12148658
v 0.46352549 1.42658477 1.50000000
v 0.24440680 1.47995450 1.27117560
v 0.87836051 1.21592878 1.26727424
v 0.65108732 1.35132724 1.29865957
v -0.00083675 1.49999977 0.88259383
v -0.00963547 1.49996905 1.22750087
v -0.22436826 1.48312470 1.07714011
v 0.19357904 1.48745661 1.05134852
v -1.29436965 0.75802850 -0.22729984
v -1.35530509 0.64276599 0.05219468
v -1.42464080 0.46946628 -0.22593518
v -0.46352549 1.42658477 1.50000000
v -0.60886811 1.37086820 1.28117839
v -0.32080766 1.46529261 1.29926691
v -1.20609257 0.89181877 0.04908783
v -0.48002795 1.42111687 1.07386963
v -1.11075572 1.00807823 -0.22662399
v 1.29914058 0.74982247 0.31144137
v 1.21398242 0.88104862 0.03922066
v 1.36772821 0.61588923 0.03968919
v 1.35992467 0.63293356 0.58310004
v 1.42748226 0.46075418 0.33321941
v -1.28856160 0.76786001 0.31951319
v 1.42046996 0.48193889 -0.22105492
v 1.37031819 0.61010496 -0.50000000
v 1.29705675 0.75342139 -0.22875760
v -0.99715804 1.12056943 0.04621072
v 1.11754172 1.00055010 0.30835227
v 1.48194708 0.23201907 0.77196768
v -1.21352549 0.88167788 -0.50000000
v 1.30046643 0.74752061 0.83963695
v -0.88092597 1.21407143 -0.22827288
v -1.19689430 0.90412611 0.57730680
v 1.21538478 0.87911310 0.57504353
v -1.44130397 0.41550316 0.07641212
v -1.00369591 1.11471724 -0.50000000
v -0.74342270 1.30281338 0.04481900
v -0.60725938 1.37158159 -0.22794742
v -0.45382776 1.42969940 0.04570696
v -1.21352549 0.88167788 1.50000000
v -1.12447420 0.99275263 1.24466185
v 1.29838888 0.75112337 1.23962821
v 1.21352549 0.88167788 1.50000000
v 1.11672182 1.00146512 1.25795870
v -1.10548638 1.01385396 0.31901354
v -0.31186754 1.46722140 -0.22855143
v 1.11524059 1.00311436 -0.22992705
v 1.21352549 0.88167788 -0.50000000
v 0.16356422 1.49105558 0.04205101
v 0.31568340 1.46640513 -0.22922297
v 0.46971539 1.42455869 0.04114204
v 0.61317625 1.36894664 -0.22971022
v 1.37031819 0.61010496 1.50000000
v -1.37031819 0.61010496 -0.50000000
v -1.37031819 0.61010496 1.50000000
v 1.12032100 0.99743714 0.84193525
v 1.00934764 1.10960233 0.57647567
v -0.14990141 1.49249106 0.04297795
v 0.00280506 1.49999738 -0.22935330
v -0.99353867 1.12377974 0.58734427
v 1.00369591 1.11471724 -0.50000000
v 0.88407184 1.21178256 -0.22992759
v 0.75515409 1.29604873 0.04060650
v 0.75000000 1.29903811 -0.50000000
v 1.00669515 1.11200939 0.03950792
v -0.87194705 1.22053609 0.31677855
v -1.00369591 1.11471724 1.50000000
v -0.88915428 1.20805822 1.25604253
v 1.00369591 1.11471724 1.50000000
v -0.73893772 1.30536242 0.58684632
v -0.59941843 1.37502638 0.84529220
v -0.87132749 1.22097846 0.82618992
v -1.10093721 1.01879206 0.81899116
v -0.59958216 1.37495499 0.31538926
v 1.44214031 0.41259101 0.61520702
v -0.45148880 1.43043975 0.58546783
v -0.30886638 1.46785611 0.84666530
v -0.14439507 1.49303385 0.58400240
v 0.16883432 1.49046804 0.58244528
v -0.15679269 1.49178284 -0.50000000
v 0.15679269 1.49178284 -0.50000000
v 0.47437841 1.42301269 0.58081366
v 0.75876462 1.29393827 0.57877802
v 0.61199575 1.36947479 0.84150738
v 0.32342540 1.46471704 0.84123310
v 0.15679269 1.49178284 1.50000000
v -0.15679269 1.49178284 1.50000000
v 0.46352549 1.42658477 -0.50000000
v -0.46352549 1.42658477 -0.50000000
v -0.75000000 1.29903811 -0.50000000
v -0.75000000 1.29903811 1.50000000
v 0.75000000 1.29903811 1.50000000
v 1.48405051 0.21816065 0.49436064
v 1.48582630 0.20571873 0.26196506
v -0.30079069 1.46953223 0.31404739
v 0.32222117 1.46498243 0.31138276
v 0.01101458 1.49995956 0.31258837
v 0.61890951 1.36636416 0.31039288
v 0.88772491 1.20910896 0.30903891
v -1.21477720 0.87995248 1.00292259
v 1.46722140 0.31186754 1.50000000
v -1.46722140 0.31186754 1.50000000
v -1.46722140 0.31186754 -0.50000000
v -1.48238658 0.22919427 -0.06876807
v -1.47894453 0.25044574 1.04147686
v -1.48089372 0.23864991 0.21428571
v -1.00147039 1.11671709 1.03639113
v -1.48946179 0.17749243 0.78589598
v -0.74350217 1.30276802 1.04268877
v 1.48497422 0.21178191 1.29628520
v -1.48563413 0.20710198 -0.29796222
v -1.48650796 0.20073388 1.30048167
v -1.25126507 0.82724586 0.79076739
v 1.21727935 0.87648787 1.03588432
v -2.02497189 -2.21347890 0.00325432
v -2.43664405 -1.75007593 0.00938853
v -2.22943448 -2.00739182 -0.50000000
v -0.90459482 -2.86036855 -0.00151933
v -0.35657949 -2.97873313 -0.21889606
v -0.43188359 -2.96875000 0.25000000
v -0.90945203 2.85882791 1.00470854
v -0.35765382 2.97860433 1.21863738
v -0.43188359 2.96875000 0.75000000
v -2.22938875 -2.00744260 0.47737640
v -0.62373507 -2.93444280 -0.50000000
v -0.62373507 2.93444280 1.50000000
v -1.50538818 2.59495788 0.02974443
v -1.77741062 2.41677709 0.52663387
v -1.26217127 2.72156640 0.51245549
v -2.85560225 0.91953020 0.52405066
v -2.60377062 1.49009348 0.51709434
v -2.74526960 1.20974990 0.03182109
v -2.98356569 0.31358539 1.50000000
v -2.93637673 0.61456627 1.01182493
v -2.99999654 0.00455435 1.00373612
v -2.22943448 2.00739182 1.50000000
v -2.01656903 2.22113695 1.01443186
v -2.43000391 1.75928423 1.01697529
v -1.22020993 -2.74063637 1.50000000
v -1.49820713 -2.59911050 0.97284178
v -0.91662609 -2.85653577 0.97722710
v -1.22020993 2.74063637 -0.50000000
v -0.91662609 2.85653577 0.02277290
v -0.62373507 -2.93444280 1.50000000
v -0.62373507 2.93444280 -0.50000000
v -1.76335576 -2.42705098 1.50000000
v -2.00631325 -2.23040515 0.96427763
v -1.76335576 2.42705098 -0.50000000
v -2.42782090 1.76229557 0.03565724
v -2.01519430 2.22238429 0.03108062
v -2.22943448 2.00739182 -0.50000000
v -2.24552679 1.98937413 0.53546582
v -2.22943448 -2.00739182 1.50000000
v -2.42771653 -1.76243935 0.96631107
v -2.59807621 -1.50000000 1.50000000
v -2.85316955 0.92705098 -0.50000000
v -2.59807621 1.50000000 -0.50000000
v -2.85316955 -0.92705098 1.50000000
v -2.74063637 -1.22020993 0.95710286
v -2.98356569 -0.31358539 -0.50000000
v -2.99999755 -0.00383589 0.03404159
v -2.98356569 0.31358539 -0.50000000
v -2.93613421 0.61572390 0.03696690
v -2.93444280 -0.62373507 0.04289714
v -2.59807621 1.50000000 1.50000000
v -2.74967287 1.19970793 1.00583079
v -2.85316955 0.92705098 1.50000000
v -2.85316955 -0.92705098 -0.50000000
v -2.59807621 -1.50000000 -0.50000000
v -2.74063637 -1.22020993 0.04289714
v -2.98598217 0.28967309 0.53589961
v -2.93444280 -0.62373507 0.95710286
v -2.98356569 -0.31358539 1.50000000
v -1.22020993 -2.74063637 -0.50000000
v -1.49030350 -2.60365041 0.01214509
v -1.76335576 -2.42705098 -0.50000000
v -1.22020993 2.74063637 1.50000000
v -1.50999765 2.59227836 1.00036140
v -1.76335576 2.42705098 1.50000000
v 0.00000000 -3.00000000 -0.50000000
v 0.00000000 3.00000000 1.50000000
v -1.77357750 -2.41959146 0.48761853
v -2.59882662 -1.49869951 0.49776222
v -2.98356569 -0.31358539 0.49917256
v -0.40484883 -2.97255739 1.13783238
v 0.00000000 -3.00000000 1.50000000
v -0.40484883 2.97255739 -0.13783238
v 0.00000000 3.00000000 -0.50000000
v 0.00000000 3.00000000 0.00000000
v -0.43390923 2.96845461 0.25491335
v 0.00000000 3.00000000 0.50000000
v 0.00000000 -3.00000000 1.00000000
v -0.43390923 -2.96845461 0.74508665
v 0.00000000 -3.00000000 0.50000000
v 0.00000000 3.00000000 1.00000000
v 0.00000000 -3.00000000 0.00000000
v -1.26032858 -2.72242022 0.49703053
v -2.85316955 -0.92705098 0.50000000
v -0.79758893 -2.89203249 0.50000000
v -0.79758893 2.89203249 0.50000000
v 5.36992437 1.20032324 1.50000000
v 5.77121412 2.13914235 1.50000000
v 4.74114340 2.05780760 1.50000000
v 2.06210113 -2.20419451 1.50000000
v 2.90870897 -1.81168262 1.50000000
v 2.38507475 -1.45809699 1.50000000
v 1.41139729 -2.27850079 1.50000000
v 0.84693296 -2.42020296 1.50000000
v 1.59516591 -3.00000000 1.50000000
v 1.56663889 -1.91476588 1.50000000
v 0.69120231 -3.00000000 1.50000000
v 3.75361512 2.26290910 1.50000000
v 3.93418986 1.50704090 1.50000000
v 1.59516591 3.00000000 1.50000000
v 1.51970331 2.14694520 1.50000000
v 2.15703253 2.27797479 1.50000000
v 4.60520985 1.24699855 1.50000000
v -0.99519946 -1.86052802 1.50000000
v -1.32922148 -2.15064520 1.50000000
v -0.75413121 -2.32097721 1.50000000
v 2.54125660 1.64323341 1.50000000
v 2.91601525 2.29043118 1.50000000
v 0.97387530 2.43882409 1.50000000
v 1.75358714 1.21785265 1.50000000
v 2.29033494 1.14892370 1.50000000
v 1.95459026 1.66763545 1.50000000
v 6.17512987 1.46485791 1.50000000
v -1.95632727 -0.87262486 1.50000000
v -2.36466084 -1.06681295 1.50000000
v -1.99751473 -1.45645900 1.50000000
v -1.68344696 0.57186530 1.50000000
v -1.77720439 0.21573873 1.50000000
v -1.31744289 -1.19109752 1.50000000
v -1.65825807 -1.20651852 1.50000000
v -1.45632412 -1.60761040 1.50000000
v 2.52903636 3.00000000 1.50000000
v 4.39677727 3.00000000 1.50000000
v -2.03592555 -0.41935343 1.50000000
v -2.41821646 -0.57792993 1.50000000
v 2.66097449 -2.38662380 1.50000000
v -1.38135670 1.65611921 1.50000000
v -1.00894209 1.77442625 1.50000000
v -1.21841827 2.14220624 1.50000000
v -0.26606747 -2.10677540 1.50000000
v -0.62171511 -1.92527751 1.50000000
v 1.86628601 -1.64595999 1.50000000
v -0.69611143 2.02864654 1.50000000
v 7.72491624 -1.04807233 1.50000000
v 6.95791412 -1.42772873 1.50000000
v 7.68128879 -2.05230498 1.50000000
v 0.69120231 3.00000000 1.50000000
v 2.52903636 -3.00000000 1.50000000
v 0.41900542 2.49519521 1.50000000
v 0.39273180 -2.46918468 1.50000000
v -2.39208562 0.26720388 1.50000000
v -2.43361475 0.65825871 1.50000000
v -0.44519974 2.45011586 1.50000000
v -0.01054675 2.41935412 1.50000000
v 8.36804169 -1.46918864 1.50000000
v -1.96423042 0.91021487 1.50000000
v -2.05074992 0.45300494 1.50000000
v 2.42349782 0.67844554 1.50000000
v 1.96697108 0.81146646 1.50000000
v 2.06005640 0.39973616 1.50000000
v -1.04494108 -1.45293447 1.50000000
v 0.62480880 -1.99513442 1.50000000
v 1.07961566 -1.89158751 1.50000000
v 3.46290682 3.00000000 1.50000000
v 4.94210320 -2.24924178 1.50000000
v 5.80353484 -2.25748767 1.50000000
v 5.43378340 -1.47789925 1.50000000
v -0.32911224 -2.54239193 1.50000000
v -2.35788733 1.07849221 1.50000000
v 4.39677727 -3.00000000 1.50000000
v 4.01581671 -2.15437969 1.50000000
v -2.48403716 -0.11525538 1.50000000
v -0.00020052 -2.43737875 1.50000000
v -1.63188998 2.03691279 1.50000000
v 8.57572376 -0.52290724 1.50000000
v 9.37888494 -0.50000151 1.50000000
v 9.14508452 0.45206671 1.50000000
v 3.21909676 1.62395388 1.50000000
v -0.72655513 -1.61328471 1.50000000
v -1.75917888 -0.16768050 1.50000000
v -1.68179382 -0.53865129 1.50000000
v 3.28640440 -2.35892592 1.50000000
v 2.48338333 -0.28010237 1.50000000
v 2.05159525 -0.46143139 1.50000000
v 2.40246134 -0.86726332 1.50000000
v 8.35454471 0.33914704 1.50000000
v 1.69180077 0.53519974 1.50000000
v 4.67801111 -1.61201795 1.50000000
v 4.09863558 -1.30183563 1.50000000
v -1.76400963 -1.93475626 1.50000000
v 3.49617694 -1.54132137 1.50000000
v 3.46290682 -3.00000000 1.50000000
v 9.17361642 -1.42916701 1.50000000
v -2.09086395 0.03854721 1.50000000
v -0.87098704 2.41129252 1.50000000
v -0.71234953 1.61857449 1.50000000
v 1.54856496 0.88279430 1.50000000
v -2.08805466 1.41650464 1.50000000
v 5.33064773 -3.00000000 1.50000000
v 1.90239318 -0.87077899 1.50000000
v -1.52765483 0.92482956 1.50000000
v 3.37899883 0.97783118 1.50000000
v 2.91224340 0.53078877 1.50000000
v 3.46593306 0.37305570 1.50000000
v 10.00000000 -1.00000000 1.50000000
v 10.00000000 -2.00000000 1.50000000
v -0.36185721 1.73436403 1.50000000
v 10.00000000 1.00000000 1.50000000
v 10.00000000 0.00000000 1.50000000
v 0.62545206 2.03730012 1.50000000
v 1.05140501 1.87432120 1.50000000
v -1.79149015 1.69528838 1.50000000
v 2.79050492 1.06227751 1.50000000
v 6.26451818 3.00000000 1.50000000
v 6.77322213 2.08892052 1.50000000
v 5.33064773 3.00000000 1.50000000
v 7.19838864 3.00000000 1.50000000
v 7.19838864 -3.00000000 1.50000000
v 6.71996667 -2.21666159 1.50000000
v 6.26451818 -3.00000000 1.50000000
v 8.13225909 -3.00000000 1.50000000
v 7.71567899 2.22410386 1.50000000
v 8.13225909 3.00000000 1.50000000
v 1.53737045 -0.89015538 1.50000000
v 1.67705098 -0.54490690 1.50000000
v 8.59919432 2.19124446 1.50000000
v 9.06612955 3.00000000 1.50000000
v 8.18670261 1.54027077 1.50000000
v 9.14232467 1.47084769 1.50000000
v 2.95903435 -0.58095639 1.50000000
v 10.00000000 2.00000000 1.50000000
v 0.72435145 1.62171193 1.50000000
v 0.36662228 1.72482220 1.50000000
v 7.71698387 -0.09980925 1.50000000
v 7.71693347 0.83723495 1.50000000
v 6.93251875 0.31096507 1.50000000
v 6.86359209 1.16060388 1.50000000
v 5.45869851 -0.60089013 1.50000000
v 6.21937112 -0.99109891 1.50000000
v 6.18177993 -0.16321192 1.50000000
v 4.02241997 0.81797010 1.50000000
v 6.15229856 0.68940987 1.50000000
v 5.43021700 0.21535762 1.50000000
v 2.92863536 -1.18016180 1.50000000
v 6.96817573 -0.58105605 1.50000000
v 9.06612955 -3.00000000 1.50000000
v 8.57020069 -2.20798394 1.50000000
v 1.32866634 1.19172880 1.50000000
v 1.41938255 1.58923143 1.50000000
v 4.70983105 0.54283025 1.50000000
v 7.45875070 1.54929011 1.50000000
v 0.19062192 2.08530726 1.50000000
v 1.04550202 1.43990411 1.50000000
v 4.75712706 -0.23699134 1.50000000
v 4.77324675 -0.96619094 1.50000000
v 0.20144529 -2.06854174 1.50000000
v 1.76848991 0.16719545 1.50000000
v 1.75565024 -0.18959120 1.50000000
v 2.08863242 -0.01594554 1.50000000
v 4.10424571 -0.62101403 1.50000000
v 3.50236935 -0.27236069 1.50000000
v 4.08571702 0.09411793 1.50000000
v 9.31278084 -2.29428334 1.50000000
v 10.00000000 -3.00000000 1.50000000
v 3.52431628 -0.91608982 1.50000000
v 10.00000000 3.00000000 1.50000000
v 9.32875608 2.30920214 1.50000000
v 0.00000000 1.76335576 1.50000000
v -1.03647451 1.42658477 1.50000000
v -0.36662228 -1.72482220 1.50000000
v -1.52711088 -0.88167788 1.50000000
v -0.00000000 -1.76335576 1.50000000
v -1.30811154 1.19881071 1.50000000
v 8.54022654 0.95683817 1.50000000
v 0.36662228 -1.72482220 1.50000000
v 2.95643354 -0.00882266 1.50000000
v -0.21716136 2.06615228 1.50000000
v 0.71722140 -1.61090564 1.50000000
v -1.66276012 1.28029483 1.50000000
v 1.03647451 -1.42658477 1.50000000
v 2.04963453 -1.21681528 1.50000000
v 1.31042871 -1.17991531 1.50000000
v 1.69195739 -1.24197710 1.50000000
v 2.48032922 0.20769879 1.50000000
v 6.23166707 -1.70911369 1.50000000
v 1.41379437 -1.55358660 1.50000000
v 5.05289152 1.27250867 -0.50000000
v 4.92338353 2.16184061 -0.50000000
v 5.82017161 1.60903141 -0.50000000
v 7.66729443 -1.11700903 -0.50000000
v 7.61751990 -2.09648164 -0.50000000
v 6.83005645 -1.27795995 -0.50000000
v 2.88697547 2.12925675 -0.50000000
v 2.65876227 1.27635247 -0.50000000
v 2.09658024 1.65355587 -0.50000000
v 1.48845803 1.54446539 -0.50000000
v 1.75492108 1.19627110 -0.50000000
v 5.80660154 2.37725484 -0.50000000
v -1.23022266 -2.15124716 -0.50000000
v -1.42245038 -1.60917604 -0.50000000
v -1.02683040 -1.78501042 -0.50000000
v -2.34008351 -0.79805394 -0.50000000
v -2.10316285 -1.17781977 -0.50000000
v -0.70132720 2.38572570 -0.50000000
v -0.18535676 2.11483232 -0.50000000
v -0.64542514 1.97063272 -0.50000000
v 0.29698333 2.44311535 -0.50000000
v -0.24268714 2.57562323 -0.50000000
v 9.13397460 0.50000000 -0.50000000
v 8.22118411 0.73130079 -0.50000000
v 9.11458113 1.45578621 -0.50000000
v 1.59516591 3.00000000 -0.50000000
v 1.23652581 2.25468077 -0.50000000
v 0.89831333 2.54966158 -0.50000000
v 3.87758439 -1.22789483 -0.50000000
v 3.87475991 -2.16333681 -0.50000000
v 3.23851906 -1.52820876 -0.50000000
v 6.66634206 -2.18207820 -0.50000000
v 6.69428663 2.11540217 -0.50000000
v 7.41643124 1.35250612 -0.50000000
v 6.53625261 1.02442586 -0.50000000
v 0.69120231 3.00000000 -0.50000000
v 8.20625858 1.59304366 -0.50000000
v 1.39347527 -1.61666459 -0.50000000
v 1.92900237 -1.69155285 -0.50000000
v 1.50442097 -2.16167832 -0.50000000
v 3.29177815 1.55897769 -0.50000000
v 3.87483504 2.12051983 -0.50000000
v 3.83675054 1.19401944 -0.50000000
v -2.28061938 0.76174955 -0.50000000
v -2.23945665 1.14133185 -0.50000000
v 2.95947488 -2.26156945 -0.50000000
v 2.15306253 -2.28974348 -0.50000000
v 2.54803442 -1.68087313 -0.50000000
v 1.59516591 -3.00000000 -0.50000000
v 2.18716095 2.26794276 -0.50000000
v 1.71176127 0.53321738 -0.50000000
v 2.17366761 0.43472624 -0.50000000
v 1.78858560 0.17354235 -0.50000000
v 3.46290682 3.00000000 -0.50000000
v -1.69359024 -0.53641408 -0.50000000
v -1.76776703 -0.16377950 -0.50000000
v 1.63099961 1.99590106 -0.50000000
v 2.52903636 -3.00000000 -0.50000000
v 2.52903636 3.00000000 -0.50000000
v 1.70839170 2.47318765 -0.50000000
v -1.72193039 -1.94916805 -0.50000000
v 2.36358448 -0.76407616 -0.50000000
v 2.85125705 -1.07910004 -0.50000000
v 2.15689063 -1.23506418 -0.50000000
v 0.22938003 2.03476846 -0.50000000
v -0.72070809 -1.61825558 -0.50000000
v -0.68481861 -2.06210421 -0.50000000
v 8.23574538 -1.58885777 -0.50000000
v 4.42316020 1.56933388 -0.50000000
v -1.44219403 1.98500979 -0.50000000
v -1.76900580 1.79556991 -0.50000000
v -1.13765300 2.21633259 -0.50000000
v 0.69120231 -3.00000000 -0.50000000
v 0.93733264 -2.46094670 -0.50000000
v 0.39921989 -2.49072974 -0.50000000
v -2.10812469 -0.38508866 -0.50000000
v -2.47525745 -0.03091221 -0.50000000
v -2.10405921 0.09395057 -0.50000000
v 2.12234992 -0.05005789 -0.50000000
v 1.31158153 -1.20119239 -0.50000000
v 1.70463670 -1.24607194 -0.50000000
v 4.24219434 0.18666535 -0.50000000
v 3.63843156 0.54737540 -0.50000000
v 4.36212264 0.87395329 -0.50000000
v 3.32721200 -0.74358898 -0.50000000
v -0.36699965 -1.75409704 -0.50000000
v -1.96418867 -1.55097424 -0.50000000
v 2.14465469 1.14151786 -0.50000000
v 3.46290682 -3.00000000 -0.50000000
v 4.42512953 -1.66211600 -0.50000000
v -2.07471760 1.52697481 -0.50000000
v 1.03210137 -1.47759940 -0.50000000
v 1.10512768 1.81022962 -0.50000000
v 4.84877353 -2.24886176 -0.50000000
v 4.39677727 -3.00000000 -0.50000000
v 2.26790633 0.77029758 -0.50000000
v -0.02306697 -1.78372982 -0.50000000
v -1.68931529 0.57314606 -0.50000000
v -1.52564064 0.89807889 -0.50000000
v -0.71149191 1.61626961 -0.50000000
v -0.35179313 1.73040299 -0.50000000
v -1.04829763 -1.42069507 -0.50000000
v -2.45707351 0.42542973 -0.50000000
v -1.90410816 0.86216951 -0.50000000
v -1.72604897 1.27004628 -0.50000000
v 4.39677727 3.00000000 -0.50000000
v 0.02189737 1.78020490 -0.50000000
v 0.38469199 1.72830078 -0.50000000
v 0.59974211 -2.05315923 -0.50000000
v 7.68302440 2.21796651 -0.50000000
v -0.83164792 -2.47809625 -0.50000000
v 0.70505768 -1.63895472 -0.50000000
v 0.35078165 -1.73531003 -0.50000000
v 6.19373495 -0.62338784 -0.50000000
v 6.02197782 -1.41739855 -0.50000000
v 5.36731170 -0.78689724 -0.50000000
v -0.00506093 -2.43383571 -0.50000000
v 0.67168931 2.05051181 -0.50000000
v 1.93193548 0.82433854 -0.50000000
v -1.77303859 0.22525840 -0.50000000
v 10.00000000 0.00000000 -0.50000000
v 9.16054987 -0.50712972 -0.50000000
v 4.59535889 -0.99712289 -0.50000000
v 5.16993075 -1.54416542 -0.50000000
v 2.65745275 0.66208400 -0.50000000
v 1.75651339 -0.18849917 -0.50000000
v 5.79758295 -2.19124446 -0.50000000
v -2.55204018 -0.49093824 -0.50000000
v 10.00000000 -1.00000000 -0.50000000
v 9.09240293 -1.51948236 -0.50000000
v 10.00000000 -2.00000000 -0.50000000
v 10.00000000 1.00000000 -0.50000000
v 1.34131063 1.17974225 -0.50000000
v 1.53870188 0.87000109 -0.50000000
v 0.74289946 1.62072894 -0.50000000
v 1.05604526 1.42524258 -0.50000000
v 7.85701122 -0.20263944 -0.50000000
v 8.45891386 -0.91358540 -0.50000000
v 8.59845013 -0.02518739 -0.50000000
v 5.33064773 -3.00000000 -0.50000000
v 7.19838864 -3.00000000 -0.50000000
v 6.26451818 -3.00000000 -0.50000000
v 6.26451818 3.00000000 -0.50000000
v 7.19838864 3.00000000 -0.50000000
v 5.33064773 3.00000000 -0.50000000
v 8.13225909 -3.00000000 -0.50000000
v 7.21887639 0.46825440 -0.50000000
v 8.13225909 3.00000000 -0.50000000
v 9.06612955 3.00000000 -0.50000000
v 8.59607202 2.20765868 -0.50000000
v 2.56018445 0.14533001 -0.50000000
v 0.18757367 -2.08185187 -0.50000000
v 10.00000000 2.00000000 -0.50000000
v 1.01848712 -1.91116232 -0.50000000
v 5.73480962 0.75385528 -0.50000000
v 4.97930768 0.47381702 -0.50000000
v 7.02616170 -0.40415690 -0.50000000
v 6.36973702 0.18580317 -0.50000000
v 5.55894469 -0.04206715 -0.50000000
v -0.39925334 -2.50205071 -0.50000000
v -0.21284489 -2.09454624 -0.50000000
v 9.06612955 -3.00000000 -0.50000000
v 8.56559276 -2.22543706 -0.50000000
v -1.71550195 -1.19504271 -0.50000000
v 3.08057914 0.34860202 -0.50000000
v 4.77562190 -0.29796910 -0.50000000
v 3.17789346 0.94070398 -0.50000000
v -1.05340593 1.78893998 -0.50000000
v 10.00000000 -3.00000000 -0.50000000
v 9.33566956 -2.33335516 -0.50000000
v 2.04321949 -0.45559458 -0.50000000
v 1.91218243 -0.85471912 -0.50000000
v -1.89796391 -0.84502798 -0.50000000
v 4.05327454 -0.52041486 -0.50000000
v 3.55231322 -0.04762370 -0.50000000
v 1.67765236 -0.54582999 -0.50000000
v 10.00000000 3.00000000 -0.50000000
v 9.32875608 2.30920214 -0.50000000
v -1.03347703 1.42843945 -0.50000000
v -1.30676670 1.19750712 -0.50000000
v -1.53006593 -0.87776338 -0.50000000
v -1.32845447 -1.17527540 -0.50000000
v -1.37828395 1.55694576 -0.50000000
v 2.95956072 -0.19945981 -0.50000000
v 1.52711088 -0.88167788 -0.50000000
v 2.44961931 -0.32602688 -0.50000000
v 2.77076086 -0.63839157 -0.50000000
v -2.04309399 0.49279569 -0.50000000
v 0.43478938 -3.00000000 0.84634201
v 0.28149792 -3.00000000 1.21158550
v 4.73030243 -3.00000000 0.33099631
v 3.72602111 -3.00000000 0.69485779
v 8.59919432 -3.00000000 0.30875554
v 7.79873393 -3.00000000 0.66900369
v 6.73145341 -3.00000000 0.69124446
v 5.79758295 -3.00000000 0.30875554
v 5.32370218 -3.00000000 0.86885338
v 7.20533418 -3.00000000 0.13114662
v 0.43301270 -3.00000000 0.25000000
v 1.14318411 -3.00000000 0.80927290
v 2.04413853 -3.00000000 0.24382611
v 1.04205079 -3.00000000 0.00884984
v 0.40820973 -3.00000000 -0.17730717
v 2.84032651 -3.00000000 0.82993180
v 3.04328807 -3.00000000 0.06772064
v 3.92984204 -3.00000000 0.00410932
v 2.06210113 -3.00000000 0.98843152
v 8.59919432 -3.00000000 0.99589068
v 10.00000000 -3.00000000 0.50000000
v 9.32875608 -3.00000000 0.19079786
v 9.37538788 -3.00000000 0.87420016
v 0.42682032 3.00000000 0.15325484
v 0.27950566 3.00000000 -0.21168629
v 2.05662521 3.00000000 0.26943518
v 1.05961314 3.00000000 0.20346137
v 1.14318411 3.00000000 0.92496274
v 0.44964357 3.00000000 0.73387929
v 2.06210113 3.00000000 0.98843152
v 0.42503319 3.00000000 1.16554886
v 8.44309449 3.00000000 0.89823898
v 7.67986053 3.00000000 0.27397867
v 7.66532386 3.00000000 0.99589068
v 8.70095097 3.00000000 0.23071551
v 2.99597159 3.00000000 0.69124446
v 2.99597159 3.00000000 0.00410932
v 3.92984204 3.00000000 0.30875554
v 4.86371250 3.00000000 0.69124446
v 6.73145341 3.00000000 0.69124446
v 5.79758295 3.00000000 0.30875554
v 4.86371250 3.00000000 0.00410932
v 5.79758295 3.00000000 0.99589068
v 6.73145341 3.00000000 0.00410932
v 3.92984204 3.00000000 0.99589068
v 10.00000000 3.00000000 0.50000000
v 9.36792102 3.00000000 0.16642287
v 9.35900395 3.00000000 0.85618886
v 10.00000000 -1.50000000 0.36602540
v 10.00000000 1.50000000 0.63397460
v 10.00000000 -0.50000000 0.54552735
v 10.00000000 0.50000000 0.46514910
v 10.00000000 -2.34254833 0.76631772
v 10.00000000 2.34254833 0.23368228
v 10.00000000 2.42018787 0.92201794
v 10.00000000 -2.42018787 0.07798206
f 1 2 3
f 4 1 3
f 5 6 7
f 8 9 10
f 7 6 11
f 12 13 14
f 12 15 13
f 9 16 10
f 17 18 3
f 19 20 21
f 20 19 22
f 15 12 23
f 2 17 3
f 24 25 26
f 27 28 23
f 14 13 29
f 25 24 30
f 12 27 23
f 31 32 33
f 34 35 36
f 37 38 39
f 40 41 42
f 32 31 43
f 44 34 36
f 45 46 47
f 48 49 50
f 28 31 23
f 51 52 33
f 35 40 36
f 53 54 43
f 46 45 55
f 56 48 57
f 6 5 58
f 50 18 57
f 48 50 57
f 59 49 48
f 50 60 18
f 61 62 63
f 64 65 49
f 66 67 68
f 64 69 65
f 32 51 33
f 66 68 70
f 36 40 42
f 71 34 44
f 67 72 68
f 52 15 33
f 73 56 8
f 34 71 74
f 38 37 75
f 61 76 62
f 73 77 56
f 31 53 43
f 49 65 50
f 71 66 74
f 62 78 6
f 74 66 70
f 54 79 43
f 65 60 50
f 80 4 60
f 80 60 65
f 52 76 61
f 9 8 81
f 15 61 13
f 23 31 33
f 15 23 33
f 13 61 63
f 77 59 48
f 82 83 84
f 85 86 87
f 88 27 12
f 89 77 73
f 90 59 77
f 91 20 92
f 93 94 95
f 72 64 68
f 52 96 76
f 82 84 95
f 87 86 92
f 41 32 42
f 72 69 64
f 56 77 48
f 51 96 52
f 69 80 65
f 62 76 78
f 97 98 99
f 51 97 96
f 64 49 100
f 52 61 15
f 76 96 101
f 76 101 78
f 41 97 51
f 90 77 89
f 79 102 44
f 79 44 36
f 86 91 92
f 94 82 95
f 102 103 44
f 100 49 59
f 41 104 97
f 105 106 37
f 106 107 37
f 103 71 44
f 97 104 98
f 108 109 110
f 111 108 110
f 41 51 32
f 54 102 79
f 112 94 93
f 113 67 66
f 114 115 38
f 28 53 31
f 91 116 20
f 104 106 105
f 98 105 45
f 40 104 41
f 40 106 104
f 107 111 37
f 103 113 71
f 98 104 105
f 111 110 24
f 117 35 34
f 35 106 40
f 96 97 99
f 107 108 111
f 35 107 106
f 117 107 35
f 113 66 71
f 117 108 107
f 110 109 19
f 109 90 19
f 118 108 117
f 90 89 19
f 118 109 108
f 18 17 119
f 117 34 74
f 101 96 99
f 120 59 90
f 120 109 118
f 120 90 109
f 64 100 68
f 100 59 120
f 118 117 74
f 68 100 70
f 118 74 70
f 121 85 16
f 83 122 7
f 123 88 14
f 100 120 70
f 120 118 70
f 124 125 126
f 127 128 5
f 129 130 9
f 131 124 132
f 133 134 135
f 136 131 137
f 57 135 138
f 43 79 42
f 79 36 42
f 63 137 132
f 32 43 42
f 56 57 138
f 124 126 132
f 137 131 132
f 128 136 58
f 5 128 58
f 136 137 58
f 85 87 16
f 88 12 14
f 84 83 7
f 60 4 3
f 137 63 139
f 63 62 139
f 126 14 29
f 25 114 26
f 46 112 47
f 129 9 81
f 135 134 81
f 98 45 140
f 110 19 21
f 105 37 39
f 17 133 119
f 38 115 55
f 111 24 75
f 122 141 142
f 143 123 144
f 145 121 146
f 99 140 147
f 130 145 146
f 125 143 144
f 141 127 142
f 140 93 147
f 134 129 81
f 135 57 119
f 7 122 142
f 123 14 144
f 121 16 146
f 57 18 119
f 45 47 140
f 39 38 55
f 13 63 29
f 20 116 30
f 24 26 75
f 5 7 142
f 14 126 144
f 16 9 146
f 114 38 26
f 63 132 29
f 112 93 47
f 92 20 22
f 87 92 148
f 18 60 3
f 10 87 148
f 73 8 10
f 11 78 149
f 62 6 139
f 6 78 11
f 133 135 119
f 73 10 148
f 148 92 22
f 78 101 149
f 116 25 30
f 149 101 147
f 16 87 10
f 89 73 148
f 24 110 21
f 101 99 147
f 135 81 138
f 8 56 138
f 45 105 39
f 19 89 22
f 84 11 149
f 93 95 147
f 89 148 22
f 99 98 140
f 95 84 149
f 95 149 147
f 37 111 75
f 115 46 55
f 58 137 139
f 9 130 146
f 126 125 144
f 127 5 142
f 6 58 139
f 132 126 29
f 21 20 30
f 84 7 11
f 81 8 138
f 26 38 75
f 47 93 140
f 45 39 55
f 24 21 30
f 150 151 152
f 151 150 153
f 145 130 154
f 155 145 154
f 156 157 158
f 159 160 161
f 157 162 158
f 160 163 161
f 129 164 154
f 165 166 167
f 168 169 170
f 171 165 167
f 169 168 172
f 130 129 154
f 173 174 175
f 174 173 176
f 177 178 179
f 180 181 182
f 177 183 178
f 181 184 182
f 152 151 159
f 183 177 185
f 186 187 188
f 189 186 190
f 186 188 190
f 191 151 153
f 188 192 164
f 193 192 194
f 194 192 188
f 183 185 195
f 196 187 186
f 157 156 197
f 177 198 185
f 187 194 188
f 178 191 153
f 188 164 190
f 199 189 156
f 185 200 195
f 191 201 151
f 199 202 189
f 179 178 203
f 198 204 185
f 205 206 207
f 208 160 209
f 210 211 212
f 193 155 192
f 213 201 191
f 200 205 195
f 206 214 207
f 215 194 187
f 215 216 194
f 183 191 178
f 217 218 219
f 202 196 186
f 218 220 219
f 221 211 210
f 222 198 177
f 208 223 160
f 205 200 206
f 224 202 199
f 204 200 185
f 225 196 202
f 207 214 226
f 216 193 194
f 214 227 226
f 213 228 201
f 229 216 215
f 189 202 186
f 220 230 231
f 220 232 230
f 215 233 230
f 234 228 213
f 229 215 230
f 235 208 209
f 236 235 209
f 211 237 212
f 237 171 212
f 238 239 240
f 234 238 228
f 213 191 183
f 201 228 241
f 242 238 234
f 220 231 219
f 225 202 224
f 234 213 195
f 189 190 243
f 232 229 230
f 242 244 238
f 215 187 233
f 245 246 173
f 246 247 173
f 238 244 239
f 214 248 227
f 248 249 227
f 205 234 195
f 250 251 252
f 253 250 252
f 254 255 174
f 256 232 220
f 257 248 214
f 204 258 200
f 259 235 236
f 237 260 171
f 242 234 205
f 190 261 243
f 244 246 245
f 164 129 262
f 233 187 196
f 239 245 184
f 263 244 242
f 217 227 218
f 263 246 244
f 247 253 173
f 227 217 226
f 253 252 168
f 239 244 245
f 264 265 217
f 265 246 263
f 228 238 240
f 247 250 253
f 265 247 246
f 213 183 195
f 264 247 265
f 252 251 166
f 264 250 247
f 251 225 166
f 266 250 264
f 225 224 166
f 266 251 250
f 200 258 206
f 257 214 206
f 241 228 240
f 267 251 266
f 267 196 225
f 230 233 231
f 267 225 251
f 242 205 207
f 227 249 218
f 217 265 226
f 256 220 218
f 233 196 267
f 258 257 206
f 160 159 268
f 264 217 219
f 231 266 219
f 267 266 231
f 263 242 207
f 269 221 162
f 223 270 163
f 271 222 179
f 263 207 226
f 233 267 231
f 265 263 226
f 249 256 218
f 17 2 157
f 128 127 272
f 125 124 273
f 266 264 219
f 131 136 150
f 134 133 261
f 153 150 274
f 209 268 275
f 152 273 276
f 150 152 276
f 192 155 154
f 221 210 162
f 160 223 163
f 222 177 179
f 128 272 274
f 136 128 274
f 150 136 274
f 268 241 275
f 272 179 203
f 17 157 197
f 261 133 197
f 169 254 170
f 180 259 181
f 239 184 277
f 252 166 165
f 245 173 175
f 129 134 262
f 174 255 182
f 253 168 176
f 1 269 278
f 141 271 279
f 270 143 280
f 273 152 161
f 133 17 197
f 273 124 276
f 131 150 276
f 127 141 279
f 143 125 280
f 2 1 278
f 209 160 268
f 171 260 172
f 261 190 262
f 159 151 281
f 151 201 281
f 269 162 278
f 271 179 279
f 163 270 280
f 190 164 262
f 184 181 277
f 175 174 182
f 275 240 277
f 179 272 279
f 273 163 280
f 162 157 278
f 236 275 277
f 168 170 176
f 254 174 170
f 259 236 181
f 164 192 154
f 178 153 203
f 210 212 282
f 199 156 158
f 134 261 262
f 212 171 167
f 199 158 282
f 158 210 282
f 152 159 161
f 168 252 165
f 224 199 282
f 184 245 175
f 260 169 172
f 282 212 167
f 241 240 275
f 166 224 167
f 156 189 243
f 240 239 277
f 261 197 243
f 224 282 167
f 162 210 158
f 236 209 275
f 165 171 172
f 163 273 161
f 124 131 276
f 201 241 281
f 173 253 176
f 255 180 182
f 153 274 203
f 125 273 280
f 272 127 279
f 157 2 278
f 274 272 203
f 197 156 243
f 170 174 176
f 181 236 277
f 184 175 182
f 168 165 172
f 241 268 281
f 268 159 281
f 283 284 285
f 286 287 288
f 289 290 291
f 292 284 283
f 293 287 286
f 294 290 289
f 295 296 297
f 298 299 300
f 301 302 303
f 304 305 306
f 307 308 309
f 310 295 311
f 307 309 312
f 310 311 313
f 314 308 307
f 315 308 314
f 316 295 310
f 317 318 319
f 317 320 318
f 316 318 295
f 319 318 316
f 321 322 315
f 322 292 315
f 323 322 321
f 324 300 325
f 326 327 323
f 328 329 330
f 325 300 317
f 330 329 331
f 332 329 328
f 333 334 335
f 336 332 328
f 337 338 336
f 338 332 336
f 321 315 314
f 329 339 331
f 327 322 323
f 325 317 319
f 331 300 324
f 340 327 326
f 330 331 324
f 341 340 326
f 342 343 344
f 345 346 347
f 293 286 342
f 294 289 345
f 297 296 346
f 348 287 293
f 349 290 294
f 334 299 298
f 303 302 339
f 306 305 320
f 342 286 343
f 345 289 346
f 318 296 295
f 304 306 333
f 331 298 300
f 301 303 341
f 344 283 285
f 285 284 337
f 346 305 347
f 292 350 315
f 317 299 320
f 322 351 292
f 329 352 339
f 334 302 335
f 312 353 354
f 313 355 356
f 357 358 359
f 360 361 362
f 359 291 363
f 362 288 364
f 308 365 309
f 365 350 343
f 295 297 311
f 308 350 365
f 283 350 292
f 320 299 306
f 296 305 346
f 292 351 284
f 298 302 334
f 339 352 303
f 320 296 318
f 333 306 334
f 343 283 344
f 341 303 340
f 339 298 331
f 337 284 338
f 311 355 313
f 309 353 312
f 315 350 308
f 340 352 366
f 338 351 366
f 347 305 304
f 338 366 332
f 340 366 327
f 366 352 332
f 366 351 327
f 300 299 317
f 327 351 322
f 332 352 329
f 335 302 301
f 286 365 343
f 289 297 346
f 359 358 291
f 362 361 288
f 354 353 360
f 356 355 357
f 358 355 311
f 361 353 309
f 288 367 286
f 291 368 289
f 343 350 283
f 306 299 334
f 303 352 340
f 339 302 298
f 284 351 338
f 320 305 296
f 288 287 364
f 291 290 363
f 363 290 349
f 364 287 348
f 286 367 365
f 289 368 297
f 309 367 361
f 311 368 358
f 357 355 358
f 360 353 361
f 365 367 309
f 297 368 311
f 361 367 288
f 358 368 291
f 369 370 371
f 372 373 374
f 375 376 377
f 372 378 375
f 377 376 379
f 371 380 381
f 382 383 384
f 371 385 369
f 386 387 388
f 372 375 377
f 384 389 390
f 388 387 307
f 391 383 382
f 392 393 394
f 369 395 370
f 396 397 398
f 270 399 400
f 381 385 371
f 401 402 403
f 404 384 390
f 405 380 371
f 396 406 407
f 398 402 396
f 372 408 373
f 409 410 411
f 412 413 388
f 374 414 372
f 411 410 415
f 416 417 418
f 419 391 382
f 403 402 398
f 420 372 377
f 349 421 419
f 379 422 354
f 423 424 301
f 425 426 349
f 418 427 416
f 399 428 429
f 430 431 432
f 428 424 429
f 223 399 270
f 401 403 433
f 434 376 435
f 382 384 404
f 407 397 396
f 388 413 386
f 404 390 436
f 437 438 439
f 388 440 412
f 335 441 333
f 312 388 307
f 321 398 323
f 347 411 345
f 326 407 341
f 301 424 335
f 442 437 443
f 294 425 349
f 341 444 301
f 422 445 354
f 301 444 423
f 411 446 409
f 447 448 449
f 380 450 381
f 398 397 323
f 53 433 451
f 123 452 453
f 454 408 420
f 455 456 457
f 449 458 447
f 432 431 459
f 431 393 392
f 443 460 461
f 398 462 403
f 443 461 463
f 394 393 389
f 442 443 464
f 399 429 400
f 384 394 389
f 421 391 419
f 465 448 447
f 466 444 406
f 441 424 428
f 415 467 411
f 466 406 452
f 415 410 468
f 221 459 469
f 349 426 421
f 333 470 304
f 447 427 465
f 471 437 442
f 457 456 472
f 208 473 223
f 471 438 437
f 390 450 380
f 437 460 443
f 28 433 53
f 143 452 123
f 373 454 463
f 474 475 476
f 269 459 221
f 477 465 478
f 479 415 468
f 480 449 481
f 421 482 391
f 391 482 483
f 304 470 484
f 354 445 440
f 485 475 474
f 486 370 487
f 405 371 488
f 486 487 489
f 371 370 488
f 488 370 486
f 490 491 492
f 439 460 437
f 493 418 490
f 490 418 491
f 383 394 384
f 487 494 489
f 489 494 495
f 464 454 420
f 491 438 492
f 407 444 341
f 496 472 497
f 495 498 499
f 418 417 491
f 463 454 443
f 498 500 501
f 307 387 314
f 420 408 372
f 495 494 498
f 455 457 502
f 503 501 480
f 483 383 391
f 504 482 505
f 430 393 431
f 473 399 223
f 433 386 451
f 506 507 508
f 441 470 333
f 487 395 509
f 347 446 411
f 335 424 441
f 510 511 512
f 326 397 407
f 513 474 476
f 472 456 497
f 381 450 474
f 514 369 515
f 312 440 388
f 439 511 510
f 457 374 516
f 517 416 506
f 416 447 506
f 507 509 508
f 512 517 508
f 518 519 493
f 508 509 514
f 512 508 514
f 520 392 521
f 321 462 398
f 369 522 515
f 509 523 487
f 517 506 508
f 480 501 449
f 512 514 515
f 436 380 405
f 492 438 471
f 459 431 469
f 435 376 375
f 390 380 436
f 482 524 505
f 493 519 418
f 379 376 422
f 485 450 389
f 411 467 345
f 525 520 521
f 510 515 526
f 477 448 465
f 527 439 510
f 452 406 453
f 510 512 515
f 449 448 481
f 513 381 474
f 527 510 526
f 512 511 517
f 434 528 422
f 469 392 520
f 345 467 294
f 521 394 383
f 529 530 531
f 532 527 526
f 533 532 534
f 457 516 502
f 532 526 534
f 478 535 536
f 409 446 484
f 519 427 418
f 1 530 529
f 536 535 518
f 537 461 532
f 370 395 487
f 534 513 476
f 484 446 304
f 538 539 503
f 180 479 468
f 540 479 255
f 468 541 259
f 451 542 54
f 453 543 88
f 27 543 401
f 102 542 544
f 235 541 545
f 500 546 501
f 386 413 451
f 514 395 369
f 526 522 534
f 497 530 4
f 393 485 389
f 511 417 517
f 1 529 269
f 533 534 476
f 323 397 326
f 416 427 447
f 374 373 516
f 499 539 538
f 354 440 312
f 463 461 537
f 180 468 259
f 53 451 54
f 123 453 88
f 270 400 143
f 27 401 28
f 254 540 255
f 102 544 103
f 235 545 208
f 515 522 526
f 487 523 494
f 304 446 347
f 544 547 103
f 254 505 540
f 396 402 543
f 453 406 396
f 531 456 455
f 4 530 1
f 406 444 407
f 447 458 506
f 412 528 544
f 443 454 464
f 534 522 513
f 541 410 409
f 542 413 412
f 533 476 548
f 80 497 4
f 373 463 516
f 540 524 549
f 255 479 180
f 259 541 235
f 54 542 102
f 88 543 27
f 294 467 425
f 389 450 390
f 453 396 543
f 529 531 432
f 504 505 169
f 113 547 550
f 260 504 169
f 113 550 67
f 421 524 482
f 517 417 416
f 470 428 551
f 541 409 545
f 542 412 544
f 468 410 541
f 543 402 401
f 451 413 542
f 169 505 254
f 103 547 113
f 533 537 532
f 540 549 479
f 544 528 547
f 505 524 540
f 530 456 531
f 369 385 522
f 80 496 497
f 497 456 530
f 221 469 211
f 545 473 208
f 211 520 237
f 431 392 469
f 392 394 521
f 433 403 386
f 401 433 28
f 400 452 143
f 502 533 548
f 547 528 434
f 550 552 67
f 69 496 80
f 457 553 374
f 72 554 69
f 469 520 211
f 494 500 498
f 555 472 496
f 556 430 432
f 67 552 72
f 529 459 269
f 527 460 439
f 513 385 381
f 455 502 548
f 511 557 417
f 547 434 550
f 549 415 479
f 503 539 501
f 422 376 434
f 260 525 504
f 516 537 502
f 509 395 514
f 522 385 513
f 554 496 69
f 237 525 260
f 529 432 459
f 502 537 533
f 72 552 554
f 483 482 504
f 531 556 432
f 237 520 525
f 438 557 439
f 532 461 527
f 434 435 550
f 531 455 556
f 463 537 516
f 314 462 321
f 554 555 496
f 403 387 386
f 525 521 483
f 501 539 498
f 556 475 430
f 549 425 415
f 429 466 400
f 465 535 478
f 551 428 473
f 550 435 552
f 545 551 473
f 507 546 500
f 481 448 477
f 558 414 555
f 506 458 507
f 491 557 438
f 524 426 549
f 439 557 511
f 472 553 457
f 430 485 393
f 525 483 504
f 400 466 452
f 455 548 556
f 554 558 555
f 552 558 554
f 545 409 551
f 458 546 507
f 435 378 558
f 521 383 483
f 474 450 485
f 548 475 556
f 476 475 548
f 409 484 551
f 552 435 558
f 417 557 491
f 518 535 519
f 498 539 499
f 429 423 466
f 507 523 509
f 425 467 415
f 441 428 470
f 519 535 465
f 403 462 387
f 440 445 412
f 473 428 399
f 484 470 551
f 465 427 519
f 501 546 449
f 430 475 485
f 374 553 414
f 414 553 555
f 375 378 435
f 414 378 372
f 373 408 454
f 412 445 528
f 387 462 314
f 549 426 425
f 423 444 466
f 500 523 507
f 421 426 524
f 429 424 423
f 558 378 414
f 494 523 500
f 555 553 472
f 461 460 527
f 449 546 458
f 528 445 422
f 559 560 561
f 562 563 564
f 565 566 567
f 568 567 569
f 561 560 570
f 571 572 573
f 337 574 575
f 576 577 578
f 579 577 580
f 581 582 583
f 584 585 586
f 587 588 589
f 563 590 564
f 591 592 593
f 594 584 586
f 583 582 595
f 561 591 593
f 596 597 598
f 599 600 601
f 602 324 603
f 604 605 606
f 605 607 598
f 565 600 599
f 608 565 567
f 609 610 611
f 612 600 565
f 122 613 614
f 356 579 580
f 567 568 615
f 604 616 605
f 597 605 598
f 617 608 618
f 337 336 574
f 572 571 619
f 620 621 622
f 577 579 623
f 624 625 573
f 563 562 626
f 601 600 627
f 588 604 589
f 577 576 580
f 566 565 599
f 324 325 603
f 316 628 629
f 628 316 630
f 607 631 632
f 631 348 633
f 356 594 579
f 634 635 636
f 610 637 611
f 596 638 639
f 640 641 642
f 643 589 621
f 625 571 573
f 319 316 629
f 316 310 630
f 141 122 614
f 616 607 605
f 624 644 625
f 645 572 619
f 614 634 636
f 567 646 569
f 608 617 565
f 647 616 604
f 588 587 648
f 328 330 635
f 641 601 642
f 342 344 571
f 310 313 576
f 285 337 645
f 325 319 649
f 607 632 598
f 596 650 638
f 568 651 615
f 652 653 588
f 285 645 619
f 647 604 588
f 646 566 654
f 115 655 644
f 222 656 657
f 257 658 659
f 112 624 660
f 606 605 597
f 330 324 661
f 643 587 589
f 657 662 663
f 612 664 600
f 249 665 666
f 632 633 667
f 592 591 668
f 621 606 622
f 571 625 669
f 584 617 618
f 25 670 671
f 663 662 603
f 324 602 661
f 572 660 573
f 614 613 634
f 672 673 674
f 633 348 675
f 604 606 589
f 591 561 570
f 579 676 623
f 600 664 560
f 577 659 578
f 610 609 677
f 271 141 678
f 617 612 565
f 581 679 680
f 46 115 644
f 198 222 657
f 248 257 659
f 94 112 660
f 681 682 648
f 566 683 654
f 653 647 588
f 637 684 611
f 685 652 682
f 256 249 666
f 673 682 674
f 590 685 673
f 635 634 686
f 336 328 686
f 687 688 680
f 114 25 671
f 687 689 688
f 645 337 575
f 690 679 581
f 682 652 648
f 216 691 692
f 679 687 680
f 232 693 694
f 631 633 632
f 562 695 696
f 596 639 597
f 696 695 697
f 698 653 652
f 698 652 685
f 699 700 590
f 700 698 685
f 590 700 685
f 701 702 591
f 664 703 560
f 704 699 563
f 699 590 563
f 193 216 692
f 310 576 630
f 649 319 629
f 229 232 694
f 560 703 570
f 592 705 593
f 325 649 603
f 706 707 708
f 657 656 662
f 585 584 618
f 582 705 592
f 683 709 610
f 635 330 661
f 633 710 667
f 564 590 673
f 711 690 583
f 574 336 686
f 678 141 614
f 676 666 623
f 712 632 667
f 713 714 559
f 652 588 648
f 591 702 668
f 715 716 705
f 715 695 562
f 709 637 610
f 710 671 667
f 116 91 650
f 695 705 582
f 717 716 672
f 672 715 564
f 348 293 718
f 644 655 719
f 582 581 697
f 720 704 721
f 706 708 668
f 715 562 564
f 348 718 675
f 715 705 695
f 672 716 715
f 571 344 619
f 342 571 669
f 328 635 686
f 713 559 561
f 650 91 638
f 576 313 580
f 690 581 583
f 568 694 651
f 572 645 722
f 702 706 668
f 717 713 716
f 705 716 593
f 566 646 567
f 692 569 677
f 704 563 721
f 717 714 713
f 560 559 627
f 723 709 683
f 708 583 595
f 659 658 578
f 660 624 573
f 701 591 570
f 651 585 615
f 724 714 717
f 716 713 593
f 713 561 593
f 724 640 714
f 725 683 566
f 578 726 630
f 689 727 728
f 579 594 586
f 589 606 621
f 729 620 730
f 727 720 728
f 613 731 634
f 732 733 640
f 714 640 642
f 684 145 611
f 734 729 730
f 732 640 724
f 735 711 736
f 649 663 603
f 643 732 587
f 658 258 737
f 204 738 737
f 613 83 739
f 82 740 739
f 734 684 729
f 121 145 684
f 688 721 626
f 155 609 611
f 707 735 736
f 676 585 651
f 731 739 722
f 257 258 658
f 112 46 624
f 82 94 740
f 122 83 613
f 222 271 656
f 204 198 738
f 115 114 655
f 249 248 665
f 344 285 619
f 606 597 622
f 121 684 734
f 313 356 580
f 666 665 623
f 723 683 725
f 731 722 575
f 725 599 601
f 145 155 611
f 732 724 681
f 658 726 578
f 676 579 586
f 155 193 609
f 613 739 731
f 737 741 726
f 258 204 737
f 643 733 732
f 83 82 739
f 587 732 681
f 742 733 643
f 717 672 674
f 726 741 628
f 25 116 670
f 232 256 693
f 737 738 741
f 600 560 627
f 725 566 599
f 739 740 722
f 729 684 637
f 658 737 726
f 685 682 673
f 634 731 574
f 597 639 622
f 730 620 622
f 85 121 734
f 639 743 730
f 671 670 667
f 729 744 620
f 86 85 743
f 743 734 730
f 656 271 678
f 639 730 622
f 743 85 734
f 696 688 626
f 632 712 598
f 624 46 644
f 738 198 657
f 740 94 660
f 665 248 659
f 695 582 697
f 216 229 691
f 742 643 745
f 644 719 625
f 668 708 595
f 643 621 745
f 569 646 677
f 742 709 723
f 655 114 671
f 711 583 736
f 744 637 709
f 693 256 666
f 703 701 570
f 742 723 733
f 680 688 696
f 640 733 641
f 91 86 638
f 638 743 639
f 680 696 697
f 609 193 692
f 592 668 595
f 692 691 569
f 744 709 742
f 86 743 638
f 608 567 615
f 661 746 636
f 559 714 642
f 729 637 744
f 583 708 736
f 725 601 641
f 625 719 718
f 293 342 669
f 576 578 630
f 688 689 728
f 585 676 586
f 581 680 697
f 672 564 673
f 582 592 595
f 691 229 694
f 621 620 745
f 746 678 636
f 670 116 650
f 656 678 746
f 682 681 674
f 681 724 674
f 723 725 641
f 740 660 572
f 712 650 596
f 662 656 746
f 665 659 577
f 740 572 722
f 694 693 651
f 712 596 598
f 741 738 663
f 733 723 641
f 738 657 663
f 655 671 710
f 741 663 629
f 691 694 568
f 720 721 728
f 719 655 710
f 708 707 736
f 662 746 602
f 724 717 674
f 587 681 648
f 722 645 575
f 693 666 676
f 721 688 728
f 627 559 642
f 670 650 712
f 601 627 642
f 678 614 636
f 721 563 626
f 665 577 623
f 625 718 669
f 683 610 654
f 744 742 745
f 634 574 686
f 620 744 745
f 635 661 636
f 691 568 569
f 609 692 677
f 602 746 661
f 663 649 629
f 670 712 667
f 628 741 629
f 726 628 630
f 718 293 669
f 574 731 575
f 693 676 651
f 718 719 675
f 562 696 626
f 610 677 654
f 662 602 603
f 719 710 675
f 710 633 675
f 615 585 618
f 608 615 618
f 677 646 654
f 747 379 748
f 749 442 750
f 704 751 752
f 753 492 754
f 700 753 754
f 442 749 755
f 754 492 755
f 704 752 756
f 753 700 756
f 757 758 747
f 759 758 760
f 760 757 761
f 758 379 747
f 758 757 760
f 631 760 761
f 699 704 756
f 471 442 755
f 700 699 756
f 750 762 763
f 764 750 763
f 492 471 755
f 758 759 765
f 377 379 758
f 379 354 748
f 348 631 761
f 607 759 760
f 607 616 759
f 631 607 760
f 759 762 765
f 762 759 763
f 704 720 751
f 490 753 752
f 493 490 752
f 464 420 762
f 464 762 750
f 442 464 750
f 653 698 749
f 749 698 754
f 490 492 753
f 698 700 754
f 749 750 764
f 752 751 766
f 377 758 765
f 762 420 765
f 759 616 763
f 653 749 764
f 493 752 766
f 727 767 768
f 720 727 768
f 360 362 747
f 362 364 757
f 766 751 769
f 767 536 769
f 751 768 769
f 536 518 769
f 420 377 765
f 751 720 768
f 362 757 747
f 518 493 766
f 752 753 756
f 647 653 764
f 616 647 763
f 647 764 763
f 749 754 755
f 354 360 748
f 364 348 761
f 360 747 748
f 757 364 761
f 518 766 769
f 768 767 769
f 770 594 771
f 772 773 774
f 775 773 770
f 772 774 776
f 774 775 777
f 773 594 770
f 773 775 774
f 419 774 777
f 778 779 780
f 781 779 778
f 584 594 773
f 349 419 777
f 594 356 771
f 584 773 772
f 617 584 772
f 782 772 776
f 419 382 774
f 772 782 783
f 404 436 782
f 664 612 784
f 405 488 785
f 706 702 779
f 486 489 786
f 701 703 787
f 781 706 779
f 707 706 781
f 784 785 788
f 786 787 789
f 787 786 790
f 785 784 791
f 779 786 780
f 786 779 790
f 785 787 788
f 787 785 789
f 784 782 791
f 782 784 783
f 617 772 783
f 404 782 776
f 664 784 788
f 701 787 790
f 405 785 791
f 784 612 783
f 486 786 789
f 787 703 788
f 782 436 791
f 785 488 789
f 779 702 790
f 786 489 780
f 792 735 793
f 735 707 793
f 774 382 776
f 357 359 770
f 359 363 775
f 781 778 794
f 538 792 794
f 793 781 794
f 499 538 794
f 382 404 776
f 707 781 793
f 359 775 770
f 495 499 778
f 436 405 791
f 489 495 780
f 495 778 780
f 612 617 783
f 488 486 789
f 703 664 788
f 702 701 790
f 356 357 771
f 363 349 777
f 357 770 771
f 775 363 777
f 778 499 794
f 792 793 794
f 477 478 795
f 690 711 796
f 687 679 797
f 480 481 798
f 690 796 798
f 797 679 798
f 797 477 795
f 687 797 795
f 481 797 798
f 796 480 798
f 795 478 799
f 796 711 800
f 679 690 798
f 481 477 797
f 503 480 796
f 689 687 795
f 711 735 800
f 478 536 799
f 536 767 799
f 735 792 800
f 503 796 801
f 689 795 802
f 796 800 801
f 795 799 802
f 538 503 801
f 792 538 801
f 727 689 802
f 767 727 802
f 799 767 802
f 800 792 801
