v -2.36387591 -0.81368953 -0.26738417
v -2.44951830 -0.49986010 0.22624225
v -2.27194717 -1.04319512 0.18075910
v -2.26907902 -1.04941907 -0.72237644
v -2.44576377 -0.51791850 -0.74265144
v 2.50000000 0.00000000 1.50000000
v 2.50000000 0.00000000 1.00000000
v 2.45051037 -0.49497365 1.14997353
v 2.45283805 -0.48330684 0.23236369
v 2.37492978 -0.78083835 -0.24834078
v 2.28894199 -1.00535793 0.21085335
v 2.45314681 -0.48173721 -0.73405501
v 2.29063625 -1.00149166 -0.69718706
v -2.32987044 -0.90647876 -1.17435575
v -2.47181227 -0.37435826 -0.25000000
v -2.34819749 -0.85788610 0.63515377
v 2.47003988 -0.38587953 1.62553283
v -1.45946600 -2.02976822 -1.65790076
v -1.44922124 -2.03709543 -1.17747205
v -1.07499253 -2.25707578 -1.60350512
v -0.99449512 -2.29368251 -1.17974790
v 0.26408645 -2.48601254 -1.09132888
v 0.79226052 -2.37114387 -0.71631751
v 0.75709824 -2.38260409 -1.18339648
v 0.29038110 -2.48307850 -0.63733188
v 2.35555529 -0.83747196 -1.16238938
v 2.16596344 -1.24843998 -1.54128760
v 2.17313913 -1.23590709 -1.08186954
v 2.38532997 -0.74846572 -1.60387143
v 2.37002079 -0.79561390 0.67010526
v -1.85786206 -1.67282652 -1.54758572
v -1.83026711 -1.70297455 -1.08283071
v 1.84865703 -1.68299352 -1.59200937
v 1.46946313 -2.02254249 -1.54758572
v 1.58368857 -1.93440702 -1.09047269
v 1.92343510 -1.59699637 -1.12326582
v -2.17412514 -1.23417174 -1.60951351
v -2.37983748 -0.76575032 -1.60343101
v -2.11481683 -1.33324782 -1.15031964
v 1.18835230 -2.19950422 -1.10691770
v 1.29115610 -2.14077461 -0.65767730
v 2.47512229 -0.35180909 -0.25000000
v -2.46316606 -0.42756631 -1.23676349
v -0.22895706 -2.48949366 -0.74903367
v -0.22096329 -2.49021590 -1.18508742
v -2.37866557 -0.76938295 1.51144861
v -2.25276130 -1.08400485 1.04962101
v -2.40466643 -0.68379777 0.97127762
v -0.56280122 -2.43582733 -1.52636361
v -2.15830445 -1.26163461 1.54025241
v -2.01279597 -1.48278534 1.06846248
v 2.16707355 -1.24651203 0.65203819
v -1.85245343 -1.67881395 1.53893439
v -2.47561325 -0.34833755 1.24725211
v -0.58259250 -2.43116967 -1.09213326
v -2.02254249 -1.46946313 2.00000000
v -1.67282652 -1.85786206 2.00000000
v -1.23943749 -2.17112752 1.09004646
v -1.00066167 -2.29099896 0.63215957
v -1.45534081 -2.03272800 0.62706711
v -1.46745147 -2.02400252 1.54462129
v -1.66418121 -1.86561006 1.07780390
v -2.14917408 -1.27712599 -0.28048107
v 2.27963901 -1.02627773 1.10395808
v -0.51703512 -2.44595067 1.54756582
v -0.75822125 -2.38224695 1.08586228
v -1.01559652 -2.28441758 1.55207992
v 2.02443798 -1.46685066 1.09792039
v 2.16023228 -1.25833083 1.55345080
v 2.02886002 -1.46072825 0.20350071
v -0.24753381 -2.48771522 1.08733853
v 0.00414129 -2.49999657 1.54516890
v 0.27326558 -2.48502031 1.08685433
v 0.26132116 -2.48630474 2.00000000
v 0.77254249 -2.37764129 2.00000000
v 0.52408200 -2.44445046 1.54382378
v 2.36487760 -0.81077366 1.56692015
v -2.00829768 -1.48887220 0.16882964
v 2.16976841 -1.24181522 -0.24561348
v 1.86736606 -1.66221057 -0.24804246
v 1.85951752 -1.67098611 1.54889820
v 1.01997608 -2.28246551 1.54393576
v 1.25717053 -2.16090774 1.09351701
v 0.78110796 -2.37484112 1.08870916
v 2.02254249 -1.46946313 2.00000000
v 1.68273632 -1.84889115 0.19837368
v -0.99557034 -2.29321602 -0.27285666
v -0.49725978 -2.45004749 -0.26726653
v -0.76557556 -2.37989371 -0.71925368
v 1.47193479 -2.02074441 1.54749215
v -2.15239059 -1.27169758 0.61566898
v -1.84063357 -1.69176478 -0.27832934
v 1.70236460 -1.83083445 -0.67077669
v 2.03550255 -1.45145768 -0.68283620
v -1.65674488 -1.87221698 0.17293230
v 2.28386364 -1.01684161 2.00000000
v 2.44536900 -0.51977923 2.00000000
v 1.86309832 -1.66699270 0.64920084
v -2.28386364 -1.01684161 -2.00000000
v -2.44536900 -0.51977923 -2.00000000
v -1.65396262 -1.87467535 -0.71773071
v -1.22848762 -2.17734200 -0.72704317
v -1.84459558 -1.68744396 0.61923713
v -1.45045972 -2.03621379 -0.27622045
v -2.28386364 -1.01684161 2.00000000
v -2.00422078 -1.49435573 -0.71976140
v 1.67784843 -1.85332799 1.09618903
v 2.28386364 -1.01684161 -2.00000000
v 2.02254249 -1.46946313 -2.00000000
v 1.67282652 -1.85786206 2.00000000
v 1.48295629 -2.01267003 -0.24713437
v 1.25000000 -2.16506351 2.00000000
v -1.23220052 -2.17524295 0.17710674
v -0.50281076 -2.44891432 0.63449827
v -0.26132116 -2.48630474 2.00000000
v 1.01602681 -2.28422624 -1.55640636
v -0.75333321 -2.38379720 0.18135378
v 0.52104583 -2.44509943 -1.55457612
v 0.00000000 -2.50000000 -1.54758572
v 1.25000000 -2.16506351 -2.00000000
v 0.77254249 -2.37764129 -2.00000000
v 0.26132116 -2.48630474 -2.00000000
v -0.77254249 -2.37764129 2.00000000
v -1.67282652 -1.85786206 -2.00000000
v -2.02254249 -1.46946313 -2.00000000
v -1.25000000 -2.16506351 2.00000000
v -0.26132116 -2.48630474 -2.00000000
v -0.77254249 -2.37764129 -2.00000000
v 1.67282652 -1.85786206 -2.00000000
v 0.02313192 -2.49989298 -0.25599895
v 0.28011531 -2.48425752 0.18841909
v -0.24153968 -2.48830436 0.18541875
v 0.01691384 -2.49994278 0.63622532
v 0.53941668 -2.44111238 -0.25250967
v 1.03571573 -2.27536655 -0.24956332
v 1.02894619 -2.27843581 0.64178796
v 0.78945993 -2.37207779 0.19134244
v 1.26359306 -2.15715845 0.19435397
v 1.47852895 -2.01592464 0.64560034
v 2.50000000 0.00000000 0.50000000
v 2.50000000 0.00000000 0.00000000
v 0.53504618 -2.44207403 0.63710438
v -2.50000000 -0.00000000 0.00000000
v -2.50000000 -0.00000000 0.50000000
v -2.50000000 -0.00000000 -1.00000000
v -2.50000000 -0.00000000 -0.50000000
v -2.50000000 -0.00000000 1.00000000
v -2.50000000 -0.00000000 1.50000000
v 2.50000000 0.00000000 -0.50000000
v 2.50000000 0.00000000 -1.00000000
v -2.44536900 -0.51977923 2.00000000
v -2.47072796 -0.38144903 0.75000000
v -2.50000000 -0.00000000 -1.50000000
v 2.46791918 -0.39921786 -1.25862194
v 2.50000000 0.00000000 2.00000000
v -2.50000000 -0.00000000 -2.00000000
v -2.47140685 -0.37702544 -1.62798665
v 2.47331984 -0.36426500 -1.64155644
v 2.47143760 -0.37682384 0.70985094
v -2.50000000 -0.00000000 2.00000000
v -2.47388091 -0.36043477 1.63610269
v 2.50000000 0.00000000 -2.00000000
v 2.44536900 -0.51977923 -2.00000000
v 2.50000000 0.00000000 -1.50000000
v -1.25000000 -2.16506351 -2.00000000
v 2.36529305 0.80956086 -0.26630134
v 2.45000988 0.49744505 0.22680985
v 2.27386179 1.03901519 0.18220376
v 2.27138471 1.04441923 -0.72096576
v 2.44635873 0.51510094 -0.74199391
v 2.33047629 0.90492003 -1.17376468
v 1.46017239 2.02926011 -1.65803975
v 1.45506138 2.03292803 -1.17719420
v 1.07642154 2.25639462 -1.60301326
v 0.99528563 2.29333960 -1.17357978
v -2.28129585 1.02258948 0.21372785
v -2.43892811 0.54920822 0.23418802
v -2.35078567 0.85076831 -0.19830875
v 2.47231132 0.37104814 -0.25000000
v 2.34912066 0.85535497 0.63701101
v -1.46946313 2.02254249 -1.54758572
v -1.83255407 1.70051333 -1.17258846
v -1.83918929 1.69333480 -1.62511613
v -1.48240254 2.01307792 -1.07563751
v 1.85786206 1.67282652 -1.54758572
v 1.83406656 1.69888194 -1.08213862
v -0.31308330 2.48031830 -0.69016604
v -0.79757849 2.36936037 -0.70521364
v -0.64673570 2.41489812 -1.14681091
v 2.17445361 1.23359292 -1.60886053
v 2.38006347 0.76504764 -1.60324888
v -0.14780241 2.49562706 -1.13907237
v -2.13776097 1.29613966 -1.52134523
v -2.34933835 0.85475688 0.63258412
v 2.11759522 1.32883049 -1.14923602
v -2.10146915 1.35418883 -1.07364094
v -2.46250000 0.43138585 -0.25000000
v -1.09956585 2.24520710 -1.14981813
v -0.99286704 2.29438773 -1.59856932
v 0.23274264 2.48914260 -0.75034025
v 0.25253962 2.48721204 -1.19938542
v 0.56442271 2.43545212 -1.52649057
v 2.46330149 0.42678540 -1.23665454
v 2.15893400 1.26055701 1.54030479
v 2.01483583 1.48001236 1.06942466
v 2.25343715 1.08259918 1.05168531
v 2.37862833 0.76949806 1.51233214
v 2.40350773 0.68785943 0.97696043
v 0.60760433 2.42503958 -1.09674325
v 1.85624425 1.67462153 1.52907848
v 2.02254249 1.46946313 2.00000000
v 1.67282652 1.85786206 2.00000000
v 2.47547118 0.34934570 1.24757298
v 1.24195418 2.16968888 1.08880514
v 1.00477389 2.28919842 0.63168697
v 1.45891154 2.03016677 0.62714735
v 1.46790708 2.02367211 1.54405296
v 1.66656328 1.86348245 1.07764568
v 2.15221982 1.27198658 -0.27888739
v 0.51764340 2.44582201 1.54534352
v 0.76170966 2.38113385 1.08633297
v 1.01319890 2.28548200 1.54492559
v -1.86149316 1.66878495 0.64541025
v -2.15568419 1.26610650 0.63770135
v -2.02179394 1.47049287 0.19724300
v -2.15299243 1.27067840 -0.23864123
v -0.49726701 2.45004602 -1.57840006
v 0.26132116 2.48630474 2.00000000
v -0.26132116 2.48630474 2.00000000
v -0.00116565 2.49999973 1.54062528
v 2.01152683 1.48450659 0.17009816
v 0.25348465 2.48711591 1.08766221
v -2.02395511 1.46751685 1.09769682
v -2.25141372 1.08680094 1.06867909
v -0.77948766 2.37537344 1.09007118
v -0.51977923 2.44536900 1.54758572
v -1.01884899 2.28296884 1.54681705
v -1.67997119 1.85140400 0.19260577
v 1.00098022 2.29085979 -0.27328812
v 0.50290883 2.44889418 -0.26846893
v 0.76990317 2.37849724 -0.71940926
v -0.26817355 2.48557497 1.08848322
v -1.25549733 2.16188030 1.09167338
v -1.47030009 2.02193414 1.54757771
v 2.15485681 1.26751415 0.61724683
v 1.84467554 1.68735656 -0.27738797
v -1.85889141 1.67168260 1.54815285
v -2.16624201 1.24795656 1.54893344
v -2.01804767 1.47562990 -0.68834034
v -2.28512895 1.01399491 -0.69826372
v -1.86467738 1.66522619 -0.25549680
v 1.66079850 1.86862204 0.17355152
v 1.65885735 1.87034550 -0.71715995
v 1.23419222 2.17411351 -0.72713443
v -2.28386364 1.01684161 2.00000000
v -2.44536900 0.51977923 2.00000000
v -2.37527905 0.77977526 1.51980499
v 2.28386364 1.01684161 -2.00000000
v 2.44536900 0.51977923 -2.00000000
v 1.84787954 1.68384714 0.62017378
v 1.45531235 2.03274838 -0.27595263
v -2.02254249 1.46946313 2.00000000
v -2.46460983 0.41916393 0.75180925
v -1.67586561 1.85512115 1.09546889
v 2.28386364 1.01684161 2.00000000
v -2.28386364 1.01684161 -2.00000000
v -2.02254249 1.46946313 -2.00000000
v 2.00813329 1.48909392 -0.71850702
v -1.48026838 2.01464774 -0.25782161
v -1.68282678 1.84880881 -0.69952583
v -0.01163017 2.49997295 0.63584729
v -0.52990936 2.44319383 0.63798539
v 0.50767968 2.44790959 0.63372942
v 1.23687305 2.17258948 0.17707459
v -1.03049185 2.27773716 -0.26128638
v -1.26720671 2.15503762 -0.69972107
v -1.25000000 2.16506351 2.00000000
v -1.67282652 1.85786206 2.00000000
v -0.77254249 2.37764129 2.00000000
v 0.75837100 2.38219928 0.18066573
v -0.00000000 2.50000000 -1.54758572
v 0.26132116 2.48630474 -2.00000000
v 0.77254249 2.37764129 2.00000000
v -0.77254249 2.37764129 -2.00000000
v -0.26132116 2.48630474 -2.00000000
v 0.77254249 2.37764129 -2.00000000
v 1.67282652 1.85786206 -2.00000000
v 2.02254249 1.46946313 -2.00000000
v -1.67282652 1.85786206 -2.00000000
v -1.25000000 2.16506351 -2.00000000
v 1.25000000 2.16506351 2.00000000
v -0.01757548 2.49993822 -0.25820861
v 0.24669838 2.48779821 0.18403829
v -0.27506972 2.48482125 0.18632281
v -1.47575693 2.01795478 0.64288182
v -0.53409673 2.44228186 -0.25713687
v -0.78484414 2.37360900 0.18812382
v -1.25992679 2.15930185 0.19073662
v -1.02570881 2.27989505 0.63986404
v -2.46965964 0.38830561 -0.75143895
v -2.47373766 0.36141665 -1.24936154
v 2.44536900 0.51977923 2.00000000
v -2.44536900 0.51977923 -2.00000000
v -2.37728148 0.77364899 -1.52272551
v -2.39930636 0.70237384 -0.99990351
v -2.47398153 0.35974348 1.23667152
v 2.47117765 0.37852482 0.75000000
v -2.28333120 1.01803665 -1.16304485
v -2.40276008 0.69046651 0.99674251
v 2.47140685 0.37702544 -1.62798665
v -2.47258531 0.36921794 1.62806983
v 2.47386495 0.36054434 1.63616190
v -2.47363629 0.36210979 -1.63678323
v 1.25000000 2.16506351 -2.00000000
v -2.40237727 0.69179727 -0.57000757
v 3.00701730 -5.00000000 -0.32889486
v 4.08120456 -5.00000000 -0.40861742
v 3.44720513 -5.00000000 0.32437062
v -4.10521669 -5.00000000 -0.42749687
v -3.00543569 -5.00000000 -0.37701706
v -3.37456473 -5.00000000 0.40016178
v 3.49727775 -5.00000000 -1.15037110
v -3.49576263 -5.00000000 -1.15322795
v 4.21492643 -5.00000000 0.57527076
v 2.50000000 -5.00000000 0.59807621
v 3.43287737 -5.00000000 1.18601841
v 2.50000000 -5.00000000 1.38820130
v -0.50000000 -5.00000000 -0.59807621
v 0.50000000 -5.00000000 -1.13397460
v 0.45848377 -5.00000000 -0.30876215
v -0.50000000 -5.00000000 -1.38820130
v 1.57879494 -5.00000000 1.12288338
v -1.42120506 -5.00000000 -1.12288338
v -4.20929376 -5.00000000 0.56323931
v 2.00000000 -5.00000000 -2.00000000
v 2.50000000 -5.00000000 -1.13397460
v 1.54536507 -5.00000000 -1.16016613
v -2.00000000 -5.00000000 2.00000000
v -2.50388748 -5.00000000 1.09953938
v -1.45528284 -5.00000000 1.15442693
v 3.00000000 -5.00000000 -2.00000000
v 4.00000000 -5.00000000 -2.00000000
v -2.00000000 -5.00000000 -2.00000000
v -2.50000000 -5.00000000 -1.13397460
v 0.50000000 -5.00000000 1.13397460
v -0.00000000 -5.00000000 0.31032031
v 0.93719597 -5.00000000 0.37319289
v -5.00000000 -5.00000000 1.00000000
v -5.00000000 -5.00000000 0.00000000
v 1.00000000 -5.00000000 -2.00000000
v -3.00000000 -5.00000000 -2.00000000
v 5.00000000 -5.00000000 0.00000000
v 5.00000000 -5.00000000 1.00000000
v -0.50000000 -5.00000000 1.13397460
v -1.00000000 -5.00000000 2.00000000
v 1.00000000 -5.00000000 2.00000000
v -2.06370998 -5.00000000 -0.38430902
v 0.00000000 -5.00000000 -2.00000000
v -1.00000000 -5.00000000 -2.00000000
v -4.00000000 -5.00000000 -2.00000000
v -3.00000000 -5.00000000 2.00000000
v 0.00000000 -5.00000000 2.00000000
v -1.00000000 -5.00000000 0.26794919
v 2.02558595 -5.00000000 -0.28272125
v 2.00000000 -5.00000000 2.00000000
v -3.55928253 -5.00000000 1.22181494
v -1.26962273 -5.00000000 -0.38317087
v 1.73230816 -5.00000000 0.38128397
v -2.53508149 -5.00000000 0.23269470
v -5.00000000 -5.00000000 -1.00000000
v -4.00000000 -5.00000000 2.00000000
v 5.00000000 -5.00000000 -1.00000000
v 4.00000000 -5.00000000 2.00000000
v 3.00000000 -5.00000000 2.00000000
v -5.00000000 -5.00000000 -2.00000000
v -4.26794919 -5.00000000 -1.26794919
v 5.00000000 -5.00000000 -2.00000000
v 4.26794919 -5.00000000 -1.26794919
v -5.00000000 -5.00000000 2.00000000
v -4.26794919 -5.00000000 1.26794919
v -1.76698704 -5.00000000 0.37718514
v 1.23526836 -5.00000000 -0.38943148
v 5.00000000 -5.00000000 2.00000000
v 4.28775336 -5.00000000 1.29366160
v -5.00000000 -3.00701730 -0.32889486
v -5.00000000 -4.08120456 -0.40861742
v -5.00000000 -3.44720513 0.32437062
v -5.00000000 -3.49727775 -1.15037110
v -5.00000000 4.04072119 -0.40986882
v -5.00000000 2.99305627 -0.39171170
v -5.00000000 3.33582763 0.38112038
v -5.00000000 3.46238514 -1.18964197
v -5.00000000 -4.21492643 0.57527076
v -5.00000000 2.50959621 1.09587084
v -5.00000000 3.55728044 1.19882057
v -5.00000000 -2.50000000 0.59807621
v -5.00000000 -3.43287737 1.18601841
v -5.00000000 -2.50000000 1.38820130
v -5.00000000 2.53942331 0.22825360
v -5.00000000 0.50000000 -0.59807621
v -5.00000000 -0.50000000 -1.13397460
v -5.00000000 -0.45848377 -0.30876215
v -5.00000000 0.50000000 -1.38820130
v -5.00000000 -1.57879494 1.12288338
v -5.00000000 1.42120506 -1.12288338
v -5.00000000 -2.00000000 -2.00000000
v -5.00000000 -2.50000000 -1.13397460
v -5.00000000 -1.54536507 -1.16016613
v -5.00000000 2.00000000 2.00000000
v -5.00000000 1.45623429 1.15381551
v -5.00000000 -3.00000000 -2.00000000
v -5.00000000 -4.00000000 -2.00000000
v -5.00000000 2.00000000 -2.00000000
v -5.00000000 2.50000000 -1.13397460
v -5.00000000 -0.50000000 1.13397460
v -5.00000000 0.00000000 0.31032031
v -5.00000000 -0.93719597 0.37319289
v -5.00000000 2.06280403 -0.36613104
v -5.00000000 5.00000000 0.00000000
v -5.00000000 5.00000000 -1.00000000
v -5.00000000 -1.00000000 -2.00000000
v -5.00000000 3.00000000 2.00000000
v -5.00000000 0.50000000 1.13397460
v -5.00000000 1.00000000 2.00000000
v -5.00000000 -1.00000000 2.00000000
v -5.00000000 0.00000000 -2.00000000
v -5.00000000 1.00000000 -2.00000000
v -5.00000000 3.00000000 -2.00000000
v -5.00000000 0.00000000 2.00000000
v -5.00000000 1.00000000 0.26794919
v -5.00000000 -2.02558595 -0.28272125
v -5.00000000 4.00000000 2.00000000
v -5.00000000 -2.00000000 2.00000000
v -5.00000000 4.21163355 0.57250707
v -5.00000000 1.25762895 -0.39872624
v -5.00000000 -1.73230816 0.38128397
v -5.00000000 4.00000000 -2.00000000
v -5.00000000 5.00000000 1.00000000
v -5.00000000 -4.00000000 2.00000000
v -5.00000000 -3.00000000 2.00000000
v -5.00000000 5.00000000 2.00000000
v -5.00000000 4.26794919 1.26794919
v -5.00000000 -4.26794919 -1.26794919
v -5.00000000 5.00000000 -2.00000000
v -5.00000000 4.26794919 -1.26794919
v -5.00000000 1.76682567 0.37666656
v -5.00000000 -1.23526836 -0.38943148
v -5.00000000 -4.28775336 1.29366160
v 5.00000000 3.00701730 -0.32889486
v 5.00000000 4.08120456 -0.40861742
v 5.00000000 3.44720513 0.32437062
v 5.00000000 3.49727775 -1.15037110
v 5.00000000 -4.04072119 -0.40986882
v 5.00000000 -2.99305627 -0.39171170
v 5.00000000 -3.33582763 0.38112038
v 5.00000000 -3.46238514 -1.18964197
v 5.00000000 4.21492643 0.57527076
v 5.00000000 -2.50959621 1.09587084
v 5.00000000 -3.55728044 1.19882057
v 5.00000000 2.50000000 0.59807621
v 5.00000000 3.43287737 1.18601841
v 5.00000000 2.50000000 1.38820130
v 5.00000000 -2.53942331 0.22825360
v 5.00000000 -0.50000000 -0.59807621
v 5.00000000 0.50000000 -1.13397460
v 5.00000000 0.45848377 -0.30876215
v 5.00000000 -0.50000000 -1.38820130
v 5.00000000 1.57879494 1.12288338
v 5.00000000 -1.42120506 -1.12288338
v 5.00000000 2.00000000 -2.00000000
v 5.00000000 2.50000000 -1.13397460
v 5.00000000 1.54536507 -1.16016613
v 5.00000000 -2.00000000 2.00000000
v 5.00000000 -1.45623429 1.15381551
v 5.00000000 3.00000000 -2.00000000
v 5.00000000 4.00000000 -2.00000000
v 5.00000000 -2.00000000 -2.00000000
v 5.00000000 -2.50000000 -1.13397460
v 5.00000000 0.50000000 1.13397460
v 5.00000000 -0.00000000 0.31032031
v 5.00000000 0.93719597 0.37319289
v 5.00000000 -2.06280403 -0.36613104
v 5.00000000 1.00000000 -2.00000000
v 5.00000000 5.00000000 0.00000000
v 5.00000000 5.00000000 1.00000000
v 5.00000000 -3.00000000 2.00000000
v 5.00000000 -0.50000000 1.13397460
v 5.00000000 -1.00000000 2.00000000
v 5.00000000 1.00000000 2.00000000
v 5.00000000 0.00000000 -2.00000000
v 5.00000000 -1.00000000 -2.00000000
v 5.00000000 -3.00000000 -2.00000000
v 5.00000000 0.00000000 2.00000000
v 5.00000000 -1.00000000 0.26794919
v 5.00000000 2.02558595 -0.28272125
v 5.00000000 -4.00000000 2.00000000
v 5.00000000 2.00000000 2.00000000
v 5.00000000 -4.21163355 0.57250707
v 5.00000000 -1.25762895 -0.39872624
v 5.00000000 1.73230816 0.38128397
v 5.00000000 -4.00000000 -2.00000000
v 5.00000000 5.00000000 -1.00000000
v 5.00000000 4.00000000 2.00000000
v 5.00000000 3.00000000 2.00000000
v 5.00000000 -4.26794919 1.26794919
v 5.00000000 5.00000000 -2.00000000
v 5.00000000 4.26794919 -1.26794919
v 5.00000000 -4.26794919 -1.26794919
v 5.00000000 -1.76682567 0.37666656
v 5.00000000 1.23526836 -0.38943148
v 5.00000000 5.00000000 2.00000000
v 5.00000000 4.28775336 1.29366160
v -1.78160089 2.44132959 2.00000000
v -2.55721549 2.43319776 2.00000000
v -2.20894930 1.96917491 2.00000000
v -4.07824910 -1.43640202 2.00000000
v -3.20761408 -1.43122013 2.00000000
v -3.45477132 -0.74154025 2.00000000
v -0.62139622 3.91995103 2.00000000
v -1.02971700 3.32106092 2.00000000
v -0.30399850 3.39985896 2.00000000
v -1.53150266 -4.21751315 2.00000000
v -0.69286300 -4.16387319 2.00000000
v -1.15843040 -3.41191795 2.00000000
v -4.17753511 -0.45514213 2.00000000
v 2.51647250 -4.14410353 2.00000000
v 2.39743454 -3.29888838 2.00000000
v 1.73177929 -3.77808376 2.00000000
v -2.08822921 2.90952968 2.00000000
v -0.56565062 2.89247560 2.00000000
v 1.00111033 -3.49619669 2.00000000
v 0.26614768 -3.48336258 2.00000000
v 0.53399035 -4.15630747 2.00000000
v -0.39342617 -3.47574771 2.00000000
v 1.70123322 -3.06743417 2.00000000
v 1.23565382 -4.31681726 2.00000000
v -3.36620459 2.46803971 2.00000000
v -2.93312750 1.93124831 2.00000000
v -4.19487655 2.53136649 2.00000000
v -3.72830330 3.01294090 2.00000000
v -4.26957937 3.42267065 2.00000000
v -4.11103786 4.39433056 2.00000000
v -3.50024354 3.58057117 2.00000000
v -3.25211918 4.32069795 2.00000000
v -1.15255160 2.72416092 2.00000000
v 2.36292699 6.33716669 2.00000000
v 3.14424122 6.33443441 2.00000000
v 2.67907198 7.24823013 2.00000000
v 3.64205233 7.00512834 2.00000000
v 4.31246660 2.49034427 2.00000000
v 3.49774243 2.13174178 2.00000000
v 4.26109120 1.54341153 2.00000000
v -2.58363386 1.47520613 2.00000000
v -1.17715774 3.92803516 2.00000000
v 1.73938701 2.35154039 2.00000000
v 2.32077127 2.47164227 2.00000000
v 1.82714121 2.99158682 2.00000000
v 3.80918474 2.92755092 2.00000000
v 3.20592848 2.95557082 2.00000000
v -4.19432745 -2.49051616 2.00000000
v 0.74463611 3.82042681 2.00000000
v 0.71544646 3.35049398 2.00000000
v 1.20244985 3.29164883 2.00000000
v 2.09332747 3.65664044 2.00000000
v 2.52432020 3.03168671 2.00000000
v 1.42114596 3.87843336 2.00000000
v -4.11206172 0.26221377 2.00000000
v -4.32579234 0.88060438 2.00000000
v 4.09206776 -0.23946244 2.00000000
v 4.31267733 -0.89331548 2.00000000
v -3.14458259 3.02842690 2.00000000
v -2.09922946 3.61352196 2.00000000
v -1.62023844 3.10747629 2.00000000
v 0.61103713 2.87470367 2.00000000
v 1.23236449 2.68061486 2.00000000
v 2.29580569 -2.59772041 2.00000000
v 1.71260003 -2.39961106 2.00000000
v 4.10470254 0.56052965 2.00000000
v -3.52589074 -2.07173959 2.00000000
v -2.82904492 -1.99945415 2.00000000
v -2.55925376 -1.46242335 2.00000000
v -3.21052036 -3.45471633 2.00000000
v -3.50883932 -4.23605018 2.00000000
v -2.50000000 -4.13397460 2.00000000
v -2.45945216 -3.22864468 2.00000000
v -2.36408258 -2.52670902 2.00000000
v -1.80979400 -2.95880652 2.00000000
v -1.75057392 -2.36395923 2.00000000
v 3.64256900 3.59350041 2.00000000
v 4.38721717 3.46659732 2.00000000
v 4.14105940 4.38292328 2.00000000
v -0.63497213 -2.89188879 2.00000000
v -4.12934810 -3.47355960 2.00000000
v 2.53558235 -1.49434701 2.00000000
v 2.76157491 -2.08841987 2.00000000
v 3.17678418 -1.41506916 2.00000000
v -0.05723023 -4.05585819 2.00000000
v -1.23061259 -2.68767272 2.00000000
v 2.86284857 2.51265175 2.00000000
v -2.54047042 3.10643879 2.00000000
v 3.51405775 -4.18978101 2.00000000
v 3.26626782 4.26446814 2.00000000
v 2.80383678 -0.94218629 2.00000000
v -2.80383678 0.94218629 2.00000000
v 3.51229390 -2.10712804 2.00000000
v 0.58821054 -2.89181396 2.00000000
v -3.52540935 0.77723609 2.00000000
v -3.48799671 0.00578684 2.00000000
v -2.94163508 0.32207644 2.00000000
v 3.52312748 -0.77713287 2.00000000
v 3.46314137 0.00247903 2.00000000
v 2.94119982 -0.32202463 2.00000000
v 1.18013313 -2.71398217 2.00000000
v -3.10436617 6.33714137 2.00000000
v -2.68178119 7.08163201 2.00000000
v -3.66997521 7.02044139 2.00000000
v -3.21282697 7.76926499 2.00000000
v 1.36085715 8.38075841 2.00000000
v 2.06834664 8.73958413 2.00000000
v 1.15419195 9.15824131 2.00000000
v 0.02010996 2.93900135 2.00000000
v 0.30366275 3.41519661 2.00000000
v 3.17645461 -3.46646066 2.00000000
v -1.69846264 4.30055870 2.00000000
v -0.92637453 4.50009725 2.00000000
v -1.36977135 5.06570600 2.00000000
v -1.90118998 -3.60826076 2.00000000
v 4.22658783 -2.53788804 2.00000000
v -2.58805032 5.70244513 2.00000000
v -2.23570574 6.38072760 2.00000000
v 3.37491206 0.71735970 2.00000000
v 1.63926933 3.45611539 2.00000000
v -2.99535502 -2.69618496 2.00000000
v -2.80059296 -0.90270318 2.00000000
v 1.91341716 9.61939766 2.00000000
v 2.96286192 -2.73952777 2.00000000
v -3.19275723 1.41579172 2.00000000
v -2.50041888 4.32248597 2.00000000
v 4.11335512 -3.47816299 2.00000000
v 3.60575740 -2.90309835 2.00000000
v 1.88407066 -4.34572029 2.00000000
v 2.89340009 3.60601486 2.00000000
v -2.84458095 3.65607121 2.00000000
v 4.15734806 7.77785117 2.00000000
v 4.61939766 6.91341716 2.00000000
v 4.14233024 5.37130177 2.00000000
v 3.44105250 5.00501318 2.00000000
v -3.64700019 -2.95603175 2.00000000
v -2.15251687 5.01993500 2.00000000
v 3.98782841 6.21394297 2.00000000
v 4.90392640 5.97545161 2.00000000
v 1.82877053 4.37437616 2.00000000
v 2.53562124 4.27737101 2.00000000
v -4.15734806 7.77785117 2.00000000
v -3.53553391 8.53553391 2.00000000
v 3.80110229 -1.40403695 2.00000000
v -3.86621967 1.36374343 2.00000000
v -4.90392640 5.97545161 2.00000000
v -4.00125058 6.23802576 2.00000000
v -4.61939766 6.91341716 2.00000000
v 0.00000000 10.00000000 2.00000000
v 0.34343969 9.22041249 2.00000000
v 0.97545161 9.90392640 2.00000000
v 2.77785117 9.15734806 2.00000000
v 2.72293058 8.20154570 2.00000000
v 3.53553391 8.53553391 2.00000000
v -3.41320948 5.62940234 2.00000000
v -2.77785117 9.15734806 2.00000000
v -1.95379447 8.65804411 2.00000000
v -1.91341716 9.61939766 2.00000000
v 3.34598407 7.74045794 2.00000000
v -4.34648306 1.63423221 2.00000000
v 4.32371018 -1.72356646 2.00000000
v 0.04060273 3.94052156 2.00000000
v 0.14340787 6.37752867 2.00000000
v 0.44723872 5.68552905 2.00000000
v 0.90063641 6.35135302 2.00000000
v -2.33148589 7.80337623 2.00000000
v -1.49486324 7.82696923 2.00000000
v 4.32548257 -4.33358880 2.00000000
v 0.57954227 7.06133001 2.00000000
v -4.30947877 -4.30462885 2.00000000
v 0.40057033 4.48433903 2.00000000
v 1.09697524 4.42315014 2.00000000
v 0.78184720 5.05525902 2.00000000
v 2.17560162 -1.99560403 2.00000000
v -1.87276188 7.07546620 2.00000000
v -1.05174782 7.08367971 2.00000000
v 3.66851571 1.26634334 2.00000000
v -2.21186445 -1.95485793 2.00000000
v 2.04682021 6.95357561 2.00000000
v -1.54921169 3.63823840 2.00000000
v -1.40551884 6.37772834 2.00000000
v 1.91738776 7.79330237 2.00000000
v 1.49684168 5.01210790 2.00000000
v -1.00139275 8.56293466 2.00000000
v -4.21102531 5.36779366 2.00000000
v 2.54201720 1.46498292 2.00000000
v 3.10413031 1.37867402 2.00000000
v 2.76548049 1.97261718 2.00000000
v 1.34754107 7.03598728 2.00000000
v -1.00883672 5.72007327 2.00000000
v -0.62711061 5.09471312 2.00000000
v -1.78148875 5.70388943 2.00000000
v -0.26539572 5.72213943 2.00000000
v -0.63481271 6.38926626 2.00000000
v 2.20055884 1.94525115 2.00000000
v -0.23579191 7.07647461 2.00000000
v 2.75435123 5.53923456 2.00000000
v 2.81255442 4.83554159 2.00000000
v 1.00632232 7.76353125 2.00000000
v 2.21784308 4.96623004 2.00000000
v -0.63970525 7.80428491 2.00000000
v 1.91903693 5.65196125 2.00000000
v 2.79299405 0.90748909 2.00000000
v 3.49396072 5.69278538 2.00000000
v 1.19927404 5.67514304 2.00000000
v 0.07799319 5.08677314 2.00000000
v -0.27754378 4.49983189 2.00000000
v -2.91829892 4.99433446 2.00000000
v -2.92112629 -0.30674296 2.00000000
v 2.92079662 0.30695059 2.00000000
v -0.02634010 -2.95704882 2.00000000
v -0.19290457 8.52150728 2.00000000
v -0.47285742 9.27512052 2.00000000
v 0.18221646 7.77064314 2.00000000
v 0.63774061 8.47493417 2.00000000
v -2.78157008 8.39621994 2.00000000
v -3.64843468 1.92709530 2.00000000
v -3.58113815 4.94131179 2.00000000
v -1.28364172 9.24176992 2.00000000
v 1.63282545 6.33441804 2.00000000
v -0.97545161 9.90392640 2.00000000
v 4.61939766 6.91341716 -2.00000000
v 4.76016298 6.52998314 -1.06825739
v 4.90392640 5.97545161 -2.00000000
v -4.90392640 5.97545161 -2.00000000
v -4.76012475 6.53010207 -1.06835774
v -4.61939766 6.91341716 -2.00000000
v -2.42036248 9.37513948 -0.55781018
v -3.11740757 8.90919046 -1.32612835
v -3.19160797 8.84884899 -0.48495632
v -2.35698368 9.40960632 -1.35605129
v 4.94668352 5.72823223 -1.26459378
v -4.94668352 5.72823223 -1.26459378
v -4.93134973 5.82570567 0.49110599
v -4.74242325 6.58411543 1.12466076
v -4.75107857 6.55796421 -0.00157280
v 4.75111194 6.55786243 -0.00194366
v 4.74127466 6.58754987 1.12335436
v 4.93140931 5.82534974 0.48835522
v -3.85606964 8.18288029 -1.17493605
v -3.89024409 8.14101909 -0.32753221
v 3.17196642 8.86505227 -0.54597834
v 3.89036639 8.14086761 -0.32746665
v 3.85626659 8.18264167 -1.17484190
v -4.47818334 7.22393209 0.46133746
v 4.50284030 7.17357522 0.47390210
v -1.45142339 9.78470168 -0.34097235
v -1.45142339 9.78470168 -1.15148818
v 1.45142339 9.78470168 -0.54553547
v 1.45142339 9.78470168 -1.35605129
v 0.49008570 9.97592363 -1.15148818
v 0.49008570 9.97592363 -0.34097235
v 2.35698368 9.40960632 -0.34097235
v 2.35698368 9.40960632 -1.15148818
v -0.49008570 9.97592363 -0.54553547
v -0.49008570 9.97592363 -1.35605129
v 3.17196642 8.86505227 -1.35629813
v -4.92778799 5.84670272 -0.47605548
v 4.92786750 5.84623987 -0.47641942
v -4.34226987 7.47884901 -0.44740228
v 4.34210321 7.47914093 -0.44723933
v -2.35723386 9.40947259 1.15206432
v -3.17196680 8.86505196 1.15137110
v -1.45142339 9.78470168 1.15148818
v -0.97957067 9.90310527 0.31771450
v -1.91699013 9.61791607 0.31159642
v -0.49008570 9.97592363 1.15148818
v 0.00265818 9.99999929 0.31979746
v 0.49015961 9.97591635 1.15258133
v 0.97437980 9.90413948 0.32056889
v 1.45142339 9.78470168 1.15148818
v 1.91720582 9.61782653 0.32076764
v 2.35716435 9.40950975 1.15268641
v 2.77747592 9.15759877 0.32087442
v 3.17196642 8.86505227 1.15148818
v -4.38947497 7.39426596 1.18212686
v -3.85367676 8.18577706 1.16538029
v -1.91341716 9.61939766 -2.00000000
v -0.97545161 9.90392640 -2.00000000
v -2.77785117 9.15734806 0.30297635
v -3.53031544 8.54074468 0.33391442
v -0.00000000 10.00000000 -2.00000000
v 0.97545161 9.90392640 -2.00000000
v 1.91341716 9.61939766 -2.00000000
v 2.77785117 9.15734806 -2.00000000
v 4.38982672 7.39362097 1.18166248
v 3.53553391 8.53553391 -2.00000000
v 4.15734806 7.77785117 -2.00000000
v -4.15734806 7.77785117 -2.00000000
v -3.53553391 8.53553391 -2.00000000
v 3.53240972 8.53865534 0.33986484
v 3.85910303 8.17920175 1.15956788
v 4.39349660 7.38687822 -1.31299751
v -4.39361299 7.38666397 -1.31343536
v -4.10594901 7.85327579 0.38054959
v 4.10683366 7.85200233 0.38117329
v 4.94483723 5.74066508 1.26214936
v -4.94668352 5.72823223 1.26459378
v -2.77785117 9.15734806 -2.00000000
v 4.07824910 -1.43640202 -2.00000000
v 3.20761143 -1.43122026 -2.00000000
v 3.45475539 -0.74154102 -2.00000000
v 2.18404784 1.96652551 -2.00000000
v 2.23566552 2.54672750 -2.00000000
v 2.85220377 2.07777676 -2.00000000
v -2.38976737 2.64750488 -2.00000000
v -1.64426387 3.04570992 -2.00000000
v -1.70204241 2.38511736 -2.00000000
v 2.74523946 2.89297061 -2.00000000
v 1.53150266 -4.21751315 -2.00000000
v 0.69286300 -4.16387319 -2.00000000
v 1.15843040 -3.41191795 -2.00000000
v 4.17753511 -0.45514213 -2.00000000
v -2.51647250 -4.14410353 -2.00000000
v -2.39743454 -3.29888838 -2.00000000
v -1.73177929 -3.77808376 -2.00000000
v -2.22130918 3.38093691 -2.00000000
v -2.94429831 3.18973343 -2.00000000
v -3.25223004 2.53859800 -2.00000000
v -1.00111033 -3.49619669 -2.00000000
v -0.26614768 -3.48336258 -2.00000000
v -0.53399035 -4.15630747 -2.00000000
v 1.87709348 8.67876474 -2.00000000
v 0.39342617 -3.47574771 -2.00000000
v -1.70123322 -3.06743417 -2.00000000
v -1.23565382 -4.31681726 -2.00000000
v -1.55293976 7.67352458 -2.00000000
v -2.38745369 7.56387259 -2.00000000
v -1.99408499 8.53321083 -2.00000000
v -2.82491470 1.97768723 -2.00000000
v 3.39087926 2.47299484 -2.00000000
v -4.25662904 1.53419459 -2.00000000
v -3.68852118 1.20589455 -2.00000000
v -4.11802968 0.56706685 -2.00000000
v 1.12081144 3.28158712 -2.00000000
v 0.69177724 3.58889156 -2.00000000
v 1.10854155 3.99477751 -2.00000000
v 1.60671148 3.57868571 -2.00000000
v 2.57948362 1.47476456 -2.00000000
v 0.19694839 3.45668737 -2.00000000
v 0.59195455 2.96585174 -2.00000000
v -0.02466891 2.92991484 -2.00000000
v 4.19432745 -2.49051616 -2.00000000
v -1.47802616 3.66388672 -2.00000000
v -4.09291873 -0.23865081 -2.00000000
v -4.31277863 -0.89321885 -2.00000000
v 4.11190501 0.26220618 -2.00000000
v 4.33680622 0.90927282 -2.00000000
v 2.59927777 8.17785175 -2.00000000
v -2.02602715 4.07418527 -2.00000000
v -2.29580569 -2.59772041 -2.00000000
v -1.71260003 -2.39961106 -2.00000000
v -2.75448694 8.28598455 -2.00000000
v 4.13397460 2.50000000 -2.00000000
v 4.21418074 3.44121194 -2.00000000
v -4.23204225 3.45328152 -2.00000000
v -4.11587327 2.51830840 -2.00000000
v 3.52589063 -2.07173960 -2.00000000
v 2.82904492 -1.99945415 -2.00000000
v 2.55925332 -1.46242338 -2.00000000
v 3.21052036 -3.45471633 -2.00000000
v 3.50883932 -4.23605018 -2.00000000
v 2.50000000 -4.13397460 -2.00000000
v 3.51692112 3.09980726 -2.00000000
v 2.45945216 -3.22864468 -2.00000000
v 2.36408258 -2.52670902 -2.00000000
v 1.80979400 -2.95880652 -2.00000000
v 1.75057392 -2.36395923 -2.00000000
v 0.63497213 -2.89188879 -2.00000000
v 4.12934810 -3.47355960 -2.00000000
v -2.53558235 -1.49434701 -2.00000000
v -2.76157491 -2.08841987 -2.00000000
v -3.17678418 -1.41506916 -2.00000000
v 0.05723023 -4.05585819 -2.00000000
v 0.15564751 7.86032715 -2.00000000
v 1.05275563 7.60490782 -2.00000000
v 0.55841153 7.13079617 -2.00000000
v 1.23061259 -2.68767272 -2.00000000
v -3.14372469 1.37013946 -2.00000000
v -2.55857079 1.44984099 -2.00000000
v 0.97531477 8.33080560 -2.00000000
v -2.19466329 1.95721606 -2.00000000
v -1.17351439 2.68912001 -2.00000000
v -3.51405775 -4.18978101 -2.00000000
v 1.01952567 5.33851558 -2.00000000
v 1.28914676 6.10644154 -2.00000000
v 1.71953509 5.43136825 -2.00000000
v -2.57055659 6.78183144 -2.00000000
v -3.29482270 6.55218941 -2.00000000
v -3.20459536 7.50444655 -2.00000000
v 2.80383678 0.94218629 -2.00000000
v -2.80383678 -0.94218629 -2.00000000
v -3.51229390 -2.10712804 -2.00000000
v -0.60731095 2.85334317 -2.00000000
v -1.01587901 3.25011854 -2.00000000
v -0.40570408 3.37802111 -2.00000000
v -0.58821054 -2.89181396 -2.00000000
v -3.52312748 -0.77713287 -2.00000000
v -3.45406907 0.00000000 -2.00000000
v -2.94129647 -0.32224607 -2.00000000
v 3.52472137 0.77720277 -2.00000000
v 3.48790116 0.00578221 -2.00000000
v 2.94152042 0.32207089 -2.00000000
v -1.18013313 -2.71398217 -2.00000000
v -0.82767635 3.82605932 -2.00000000
v -3.55418370 1.84750673 -2.00000000
v -4.12295367 4.44084517 -2.00000000
v -3.46908368 3.70968825 -2.00000000
v 1.21224853 9.08463849 -2.00000000
v 1.71303303 2.96706024 -2.00000000
v 1.19028907 2.67311223 -2.00000000
v -3.33454195 4.46518150 -2.00000000
v -3.64269116 3.06670170 -2.00000000
v 2.24450995 3.51047403 -2.00000000
v 3.28732071 5.59052958 -2.00000000
v 3.37367153 6.34335546 -2.00000000
v 4.02148227 6.17452105 -2.00000000
v -3.17645461 -3.46646066 -2.00000000
v 0.60521794 5.90259705 -2.00000000
v 4.12059940 4.42107361 -2.00000000
v 4.16321518 5.36503750 -2.00000000
v 1.90118998 -3.60826076 -2.00000000
v -4.22658783 -2.53788804 -2.00000000
v 2.99535502 -2.69618496 -2.00000000
v -3.37003878 0.71056511 -2.00000000
v 2.80059296 -0.90270318 -2.00000000
v -0.59766708 4.43045507 -2.00000000
v -1.29313258 4.28922223 -2.00000000
v -1.05765355 4.94952641 -2.00000000
v -2.96286192 -2.73952777 -2.00000000
v 3.18794142 1.41555846 -2.00000000
v -1.79300940 4.79136747 -2.00000000
v -2.77727284 3.89449816 -2.00000000
v -4.11335512 -3.47816299 -2.00000000
v 2.22621730 2.98996599 -2.00000000
v -3.60575740 -2.90309835 -2.00000000
v -1.88407066 -4.34572029 -2.00000000
v -2.55444411 4.63418771 -2.00000000
v 1.71423843 2.35942118 -2.00000000
v 3.70565844 6.97423280 -2.00000000
v 3.64700019 -2.95603175 -2.00000000
v 3.86621967 1.36374343 -2.00000000
v -3.80110229 -1.40403695 -2.00000000
v -4.03457984 6.26943491 -2.00000000
v 0.40452363 9.10719733 -2.00000000
v 2.57638990 4.21308550 -2.00000000
v 1.84666144 4.13952962 -2.00000000
v 2.98194623 3.61014086 -2.00000000
v -0.17564919 3.94465222 -2.00000000
v 1.40110030 6.89005172 -2.00000000
v 0.81237189 6.50363506 -2.00000000
v -3.85285058 7.00264613 -2.00000000
v 2.55855635 7.48920213 -2.00000000
v 1.78445151 7.70254686 -2.00000000
v -4.32371018 -1.72356646 -2.00000000
v 4.33043869 1.62673294 -2.00000000
v -1.20180845 8.33236209 -2.00000000
v 2.95968495 6.94355145 -2.00000000
v 2.74280388 6.26373813 -2.00000000
v 0.33136864 5.19704486 -2.00000000
v -0.07001974 5.76447742 -2.00000000
v -4.32548257 -4.33358880 -2.00000000
v 4.30947877 -4.30462885 -2.00000000
v 0.34679171 8.45898130 -2.00000000
v -2.17560162 -1.99560403 -2.00000000
v 3.58881297 3.74104862 -2.00000000
v 0.20798292 6.48828884 -2.00000000
v 2.00362773 6.18661991 -2.00000000
v 2.22084423 6.92896592 -2.00000000
v 2.21186445 -1.95485793 -2.00000000
v 0.73154396 4.63414727 -2.00000000
v 0.44237563 4.04209349 -2.00000000
v -4.21102531 5.36779366 -2.00000000
v -0.39972033 8.57258453 -2.00000000
v -0.42979849 9.34704155 -2.00000000
v -1.54037497 5.52054003 -2.00000000
v -2.30466984 5.38151826 -2.00000000
v -0.54102773 6.36675166 -2.00000000
v -1.06274023 6.98559028 -2.00000000
v -0.26714355 7.11963312 -2.00000000
v 1.41752151 4.70777115 -2.00000000
v 2.46569031 5.52341022 -2.00000000
v -0.77905424 7.76057354 -2.00000000
v -0.80317736 5.64711451 -2.00000000
v -0.35159808 5.08463751 -2.00000000
v -3.06614310 5.22531266 -2.00000000
v -2.04080760 6.13069725 -2.00000000
v 2.14356744 4.81263751 -2.00000000
v 0.06764847 4.55018203 -2.00000000
v 2.92112629 -0.30674296 -2.00000000
v 0.02634010 -2.95704882 -2.00000000
v -2.92137651 0.30562199 -2.00000000
v -2.81590958 0.88726695 -2.00000000
v 3.28318412 4.30589695 -2.00000000
v -2.77834868 5.97601120 -2.00000000
v 2.87118225 4.89500591 -2.00000000
v -1.30108851 6.25134201 -2.00000000
v 3.22852332 7.69309465 -2.00000000
v -1.82341545 6.89496769 -2.00000000
v -1.18486805 9.07145334 -2.00000000
v 3.61307047 1.91346618 -2.00000000
v 3.55248334 4.93486472 -2.00000000
v -3.51195973 5.73178106 -2.00000000
v -3.64932475 5.04618281 -2.00000000
f 1 2 3
f 4 5 1
f 6 7 8
f 9 10 11
f 12 13 10
f 5 4 14
f 2 1 15
f 2 16 3
f 6 8 17
f 18 19 20
f 19 21 20
f 22 23 24
f 23 22 25
f 26 27 28
f 27 26 29
f 9 11 30
f 13 12 26
f 19 31 32
f 31 19 18
f 33 34 35
f 36 33 35
f 27 36 28
f 36 27 33
f 37 38 14
f 39 37 14
f 40 23 41
f 23 40 24
f 12 10 42
f 43 5 14
f 1 5 15
f 10 9 42
f 22 44 25
f 44 22 45
f 46 47 48
f 39 31 37
f 21 49 20
f 31 39 32
f 50 51 47
f 50 47 46
f 11 52 30
f 51 50 53
f 54 46 48
f 49 21 55
f 56 57 53
f 58 59 60
f 61 62 53
f 50 56 53
f 62 61 58
f 63 1 3
f 30 52 64
f 62 58 60
f 65 66 67
f 68 69 64
f 52 11 70
f 71 72 73
f 74 75 76
f 57 61 53
f 59 58 66
f 66 58 67
f 69 77 64
f 78 63 3
f 62 51 53
f 52 68 64
f 72 76 73
f 79 80 70
f 66 65 71
f 74 76 72
f 65 72 71
f 81 69 68
f 30 64 8
f 82 83 84
f 81 85 69
f 75 82 76
f 80 86 70
f 87 88 89
f 11 79 70
f 13 79 10
f 64 77 8
f 83 82 90
f 47 91 16
f 63 4 1
f 78 92 63
f 41 93 35
f 94 79 13
f 95 92 78
f 96 97 77
f 96 77 69
f 94 80 79
f 98 52 70
f 99 100 38
f 101 102 19
f 86 98 70
f 103 78 91
f 104 102 101
f 88 44 89
f 98 68 52
f 91 78 3
f 102 87 89
f 95 104 92
f 105 56 50
f 63 106 4
f 81 107 90
f 16 91 3
f 10 79 11
f 108 109 27
f 51 91 47
f 110 85 81
f 107 83 90
f 93 80 94
f 111 86 80
f 95 78 103
f 81 68 107
f 85 96 69
f 82 112 90
f 82 84 76
f 113 104 95
f 59 66 114
f 111 80 93
f 115 74 72
f 63 92 106
f 113 87 104
f 34 116 40
f 107 68 98
f 92 104 101
f 110 81 90
f 117 87 113
f 117 113 59
f 104 87 102
f 118 119 22
f 103 91 51
f 120 121 116
f 121 118 116
f 34 120 116
f 121 122 118
f 123 115 65
f 75 112 82
f 118 122 119
f 124 125 31
f 57 126 61
f 127 128 49
f 127 49 119
f 122 127 119
f 129 120 34
f 21 102 89
f 117 59 114
f 88 130 44
f 117 88 87
f 19 102 21
f 131 132 133
f 133 132 114
f 95 103 60
f 132 88 117
f 132 117 114
f 132 130 88
f 65 115 72
f 103 62 60
f 131 130 132
f 134 135 23
f 84 83 136
f 131 134 130
f 137 134 131
f 93 94 36
f 138 135 137
f 112 110 90
f 4 106 39
f 137 135 134
f 59 113 60
f 138 86 111
f 138 111 135
f 58 61 67
f 139 98 86
f 114 66 71
f 133 114 71
f 139 86 138
f 139 138 136
f 107 98 139
f 113 95 60
f 83 139 136
f 140 141 9
f 107 139 83
f 138 137 136
f 131 133 142
f 143 144 2
f 106 92 101
f 133 71 73
f 103 51 62
f 84 136 142
f 61 126 67
f 123 65 67
f 145 146 5
f 136 137 142
f 147 148 54
f 149 150 12
f 137 131 142
f 126 123 67
f 142 133 73
f 76 84 73
f 13 26 28
f 84 142 73
f 151 105 46
f 16 2 152
f 153 145 43
f 40 41 35
f 29 26 154
f 26 12 154
f 97 155 17
f 155 6 17
f 27 109 33
f 108 27 29
f 105 50 46
f 36 94 28
f 99 38 37
f 129 34 33
f 2 144 152
f 147 54 152
f 40 116 24
f 23 135 41
f 118 22 24
f 31 125 37
f 111 93 41
f 143 2 15
f 44 130 25
f 101 19 32
f 145 5 43
f 5 146 15
f 22 119 45
f 134 23 25
f 124 31 18
f 49 128 20
f 8 77 17
f 100 156 157
f 156 153 157
f 89 44 55
f 39 106 32
f 29 154 158
f 9 141 42
f 149 12 42
f 12 150 154
f 8 7 159
f 9 30 159
f 160 151 161
f 148 160 161
f 162 163 158
f 144 147 152
f 164 162 158
f 94 13 28
f 146 143 15
f 109 129 33
f 44 45 55
f 140 9 159
f 163 108 29
f 135 111 41
f 116 118 24
f 7 140 159
f 130 134 25
f 125 99 37
f 38 43 14
f 119 49 45
f 165 124 18
f 106 101 32
f 165 18 20
f 128 165 20
f 34 40 35
f 150 164 154
f 141 149 42
f 4 39 14
f 30 8 159
f 151 46 161
f 77 97 17
f 38 100 157
f 46 54 161
f 93 36 35
f 47 16 48
f 153 43 157
f 54 148 161
f 21 89 55
f 152 54 48
f 43 38 157
f 45 49 55
f 163 29 158
f 16 152 48
f 154 164 158
f 166 167 168
f 169 170 166
f 170 169 171
f 172 173 174
f 173 175 174
f 176 177 178
f 167 166 179
f 167 180 168
f 181 182 183
f 182 181 184
f 173 185 186
f 185 173 172
f 187 188 189
f 190 191 171
f 192 187 189
f 182 193 183
f 177 176 194
f 195 190 171
f 193 182 196
f 177 197 178
f 181 198 184
f 198 181 199
f 195 185 190
f 192 200 187
f 200 192 201
f 166 170 179
f 175 202 174
f 185 195 186
f 203 170 171
f 204 205 206
f 207 206 208
f 204 206 207
f 202 175 209
f 205 204 210
f 211 212 210
f 213 207 208
f 214 215 216
f 204 211 210
f 217 218 210
f 218 217 214
f 219 166 168
f 218 214 216
f 212 217 210
f 220 221 222
f 223 224 225
f 215 214 221
f 221 214 222
f 225 224 176
f 226 225 176
f 199 227 189
f 228 229 230
f 231 219 168
f 221 220 232
f 224 233 234
f 235 236 237
f 220 230 232
f 238 223 225
f 218 205 210
f 239 240 241
f 236 235 242
f 243 235 237
f 244 243 237
f 206 245 180
f 220 228 230
f 219 169 166
f 231 246 219
f 247 248 233
f 229 236 230
f 249 226 250
f 249 251 226
f 233 248 234
f 252 246 231
f 253 254 173
f 255 256 257
f 258 259 191
f 248 257 234
f 223 233 224
f 260 231 245
f 261 254 253
f 240 200 241
f 247 262 248
f 263 177 194
f 245 231 168
f 255 257 248
f 264 243 244
f 252 261 246
f 254 239 241
f 265 211 204
f 266 267 193
f 251 238 225
f 219 268 169
f 247 264 244
f 180 245 168
f 269 238 251
f 270 251 249
f 205 245 206
f 226 251 225
f 271 242 272
f 247 233 264
f 252 231 260
f 215 221 273
f 264 233 223
f 269 251 270
f 274 261 252
f 242 235 272
f 219 246 268
f 188 275 276
f 274 239 261
f 262 255 248
f 277 278 244
f 275 269 276
f 278 247 244
f 214 217 222
f 236 279 237
f 277 244 237
f 246 261 253
f 280 239 274
f 280 274 215
f 261 239 254
f 227 281 192
f 269 270 276
f 280 215 273
f 260 245 205
f 279 277 237
f 282 202 281
f 283 228 220
f 284 285 227
f 285 282 281
f 227 285 281
f 282 286 202
f 287 288 185
f 278 262 247
f 229 279 236
f 289 290 181
f 212 291 217
f 175 254 241
f 240 292 200
f 280 240 239
f 293 240 280
f 236 242 230
f 173 254 175
f 293 280 273
f 294 293 271
f 252 260 216
f 293 292 240
f 188 276 198
f 294 292 293
f 264 223 295
f 296 275 188
f 271 293 273
f 260 218 216
f 294 296 292
f 295 223 238
f 270 249 182
f 297 296 294
f 298 275 297
f 297 275 296
f 169 268 195
f 298 269 275
f 298 238 269
f 215 274 216
f 295 238 298
f 264 295 243
f 243 295 299
f 295 298 299
f 243 299 235
f 294 271 272
f 235 299 272
f 298 297 299
f 274 252 216
f 217 291 222
f 283 220 222
f 299 297 272
f 297 294 272
f 242 271 232
f 230 242 232
f 143 146 197
f 141 140 167
f 268 246 253
f 144 143 177
f 260 205 218
f 146 145 300
f 147 144 263
f 150 149 170
f 271 273 232
f 273 221 232
f 7 6 213
f 145 153 301
f 291 283 222
f 143 197 177
f 197 146 300
f 263 144 177
f 145 301 300
f 198 199 189
f 302 265 207
f 303 266 304
f 301 304 305
f 148 147 306
f 164 150 203
f 180 167 307
f 250 226 178
f 224 234 194
f 193 267 183
f 265 204 207
f 266 193 304
f 304 308 305
f 258 191 190
f 289 181 183
f 198 276 184
f 167 140 307
f 185 288 190
f 284 227 199
f 181 290 199
f 7 213 307
f 234 257 309
f 253 173 186
f 147 263 306
f 150 170 203
f 200 292 187
f 192 281 201
f 296 188 187
f 141 167 179
f 270 182 184
f 287 185 172
f 170 149 179
f 202 286 174
f 259 162 310
f 256 160 311
f 162 164 310
f 160 148 311
f 241 200 209
f 195 268 186
f 249 250 196
f 257 306 309
f 155 302 312
f 156 303 313
f 153 156 313
f 6 155 312
f 140 7 307
f 149 141 179
f 267 289 183
f 250 308 196
f 200 201 209
f 176 224 194
f 276 270 184
f 226 176 178
f 290 284 199
f 288 258 190
f 292 296 187
f 304 193 308
f 281 202 201
f 268 253 186
f 314 287 172
f 314 172 174
f 286 314 174
f 191 203 171
f 169 195 171
f 188 198 189
f 302 207 312
f 303 304 313
f 250 178 315
f 194 234 309
f 257 256 311
f 191 259 310
f 304 301 313
f 207 213 312
f 308 193 196
f 227 192 189
f 206 180 208
f 164 203 310
f 148 306 311
f 182 249 196
f 301 153 313
f 213 6 312
f 175 241 209
f 307 213 208
f 197 300 315
f 300 301 305
f 203 191 310
f 306 257 311
f 305 250 315
f 308 250 305
f 201 202 209
f 306 263 309
f 300 305 315
f 180 307 208
f 263 194 309
f 178 197 315
f 316 317 318
f 319 320 321
f 316 322 317
f 323 320 319
f 317 324 318
f 325 326 327
f 328 329 330
f 329 328 331
f 332 325 327
f 328 333 331
f 326 325 318
f 334 319 321
f 335 336 337
f 338 339 340
f 341 342 322
f 343 333 344
f 345 346 347
f 348 349 334
f 329 350 337
f 323 351 344
f 352 353 324
f 354 355 340
f 332 356 345
f 354 346 345
f 332 345 347
f 320 344 357
f 335 341 336
f 336 341 322
f 358 350 329
f 343 359 333
f 351 343 344
f 360 351 323
f 338 361 339
f 362 355 354
f 356 362 345
f 362 354 345
f 316 336 322
f 344 333 357
f 354 363 346
f 323 344 320
f 364 316 325
f 350 335 337
f 355 338 340
f 365 356 332
f 337 336 364
f 354 340 363
f 346 363 328
f 364 336 316
f 339 366 321
f 333 328 367
f 325 332 368
f 369 339 321
f 349 370 319
f 361 371 366
f 372 352 317
f 352 324 317
f 334 349 319
f 339 361 366
f 373 374 326
f 358 329 331
f 333 359 331
f 346 328 330
f 365 332 327
f 370 375 376
f 375 360 376
f 342 377 378
f 379 348 380
f 371 379 380
f 377 372 378
f 340 339 381
f 329 337 382
f 383 373 384
f 353 383 384
f 326 374 327
f 330 329 382
f 339 369 381
f 325 316 318
f 366 371 380
f 372 317 378
f 319 370 376
f 359 358 331
f 374 365 327
f 347 346 330
f 320 357 369
f 324 353 384
f 360 323 376
f 322 342 378
f 348 334 380
f 357 333 367
f 357 367 381
f 332 347 368
f 368 347 382
f 363 340 381
f 328 363 367
f 367 363 381
f 337 364 382
f 364 325 368
f 364 368 382
f 334 366 380
f 317 322 378
f 323 319 376
f 324 326 318
f 326 324 384
f 373 326 384
f 366 334 321
f 320 369 321
f 347 330 382
f 369 357 381
f 385 386 387
f 385 388 386
f 389 390 391
f 390 389 392
f 386 393 387
f 394 395 391
f 396 397 398
f 399 394 391
f 400 401 402
f 401 400 403
f 404 396 398
f 400 405 403
f 397 396 387
f 406 407 408
f 409 394 410
f 411 412 388
f 413 405 414
f 415 416 417
f 414 418 390
f 349 348 393
f 419 420 389
f 401 421 408
f 394 422 395
f 423 424 410
f 404 425 415
f 423 416 415
f 404 415 417
f 406 411 407
f 407 411 388
f 426 421 401
f 413 427 405
f 428 413 414
f 409 422 394
f 429 424 423
f 425 429 415
f 429 423 415
f 385 407 388
f 414 405 418
f 423 430 416
f 431 385 396
f 421 406 408
f 422 432 395
f 424 409 410
f 433 425 404
f 408 407 431
f 423 410 430
f 416 430 400
f 431 407 385
f 434 389 391
f 405 400 435
f 396 404 436
f 437 428 392
f 414 390 392
f 370 349 386
f 438 419 434
f 349 393 386
f 419 389 434
f 428 414 392
f 439 440 397
f 426 401 403
f 405 427 403
f 416 400 402
f 433 404 398
f 441 438 442
f 432 441 442
f 412 375 443
f 375 370 443
f 420 444 445
f 444 437 445
f 410 394 446
f 401 408 447
f 379 439 448
f 348 379 448
f 397 440 398
f 402 401 447
f 394 399 446
f 396 385 387
f 437 392 445
f 370 386 443
f 438 434 442
f 427 426 403
f 440 433 398
f 417 416 402
f 390 418 399
f 393 348 448
f 389 420 445
f 388 412 443
f 395 432 442
f 418 405 435
f 418 435 446
f 404 417 436
f 436 417 447
f 430 410 446
f 400 430 435
f 435 430 446
f 408 431 447
f 431 396 436
f 431 436 447
f 392 389 445
f 386 388 443
f 434 395 442
f 393 397 387
f 397 393 448
f 439 397 448
f 395 434 391
f 390 399 391
f 417 402 447
f 399 418 446
f 449 450 451
f 449 452 450
f 453 454 455
f 454 453 456
f 450 457 451
f 458 459 455
f 460 461 462
f 463 458 455
f 464 465 466
f 465 464 467
f 468 460 462
f 464 469 467
f 461 460 451
f 470 471 472
f 473 458 474
f 475 476 452
f 477 469 478
f 479 480 481
f 478 482 454
f 352 372 453
f 465 483 472
f 484 485 457
f 458 486 459
f 487 488 474
f 468 489 479
f 487 480 479
f 468 479 481
f 470 475 471
f 471 475 452
f 490 483 465
f 477 491 469
f 492 477 478
f 473 486 458
f 493 488 487
f 489 493 479
f 493 487 479
f 449 471 452
f 478 469 482
f 487 494 480
f 495 449 460
f 483 470 472
f 486 496 459
f 488 473 474
f 497 489 468
f 472 471 495
f 487 474 494
f 480 494 464
f 495 471 449
f 498 453 455
f 469 464 499
f 460 468 500
f 501 492 456
f 478 454 456
f 353 352 498
f 502 484 450
f 484 457 450
f 352 453 498
f 492 478 456
f 503 504 461
f 490 465 467
f 469 491 467
f 480 464 466
f 497 468 462
f 383 353 505
f 496 383 505
f 476 506 507
f 372 377 508
f 377 501 508
f 506 502 507
f 474 458 509
f 465 472 510
f 511 503 512
f 485 511 512
f 461 504 462
f 466 465 510
f 458 463 509
f 460 449 451
f 501 456 508
f 502 450 507
f 353 498 505
f 491 490 467
f 504 497 462
f 481 480 466
f 454 482 463
f 457 485 512
f 453 372 508
f 452 476 507
f 459 496 505
f 482 469 499
f 482 499 509
f 468 481 500
f 500 481 510
f 494 474 509
f 464 494 499
f 499 494 509
f 472 495 510
f 495 460 500
f 495 500 510
f 456 453 508
f 450 452 507
f 498 459 505
f 457 461 451
f 461 457 512
f 503 461 512
f 459 498 455
f 454 463 455
f 481 466 510
f 463 482 509
f 513 514 515
f 516 517 518
f 519 520 521
f 522 523 524
f 516 518 525
f 526 527 528
f 513 529 514
f 521 520 530
f 531 532 533
f 523 534 524
f 528 527 535
f 533 536 531
f 514 537 538
f 539 540 541
f 542 543 544
f 279 530 545
f 546 547 548
f 548 547 549
f 550 551 552
f 515 538 553
f 519 554 520
f 531 536 528
f 555 556 557
f 551 558 559
f 541 543 542
f 560 516 433
f 550 552 497
f 561 562 563
f 564 557 565
f 563 566 561
f 567 568 429
f 569 570 493
f 571 537 514
f 572 529 573
f 563 574 575
f 291 555 575
f 530 520 545
f 278 513 515
f 576 577 535
f 539 541 422
f 578 569 493
f 525 567 429
f 560 579 516
f 580 581 517
f 582 583 584
f 585 582 584
f 586 587 588
f 589 590 591
f 524 534 592
f 593 583 582
f 594 595 596
f 515 514 538
f 362 597 523
f 557 556 565
f 126 588 598
f 559 599 551
f 533 597 362
f 586 585 587
f 600 529 572
f 374 601 526
f 591 602 589
f 96 594 603
f 255 553 604
f 595 605 596
f 555 557 575
f 563 562 574
f 606 532 531
f 535 527 576
f 607 608 609
f 610 611 612
f 355 523 522
f 75 606 613
f 516 579 517
f 614 615 616
f 425 516 525
f 611 569 578
f 608 567 525
f 489 552 578
f 362 523 355
f 550 558 551
f 356 533 362
f 338 522 584
f 616 615 617
f 618 619 620
f 425 525 429
f 489 578 493
f 621 574 622
f 517 579 580
f 601 623 526
f 526 623 527
f 429 568 424
f 493 570 488
f 624 625 626
f 432 541 542
f 338 584 361
f 374 526 365
f 535 577 613
f 571 514 600
f 588 587 598
f 229 530 279
f 584 583 361
f 524 627 522
f 440 560 433
f 504 550 497
f 409 539 422
f 473 628 486
f 629 630 614
f 525 518 608
f 578 631 611
f 564 632 557
f 633 585 586
f 524 592 598
f 511 591 503
f 432 542 441
f 440 593 560
f 517 581 634
f 620 619 635
f 212 555 291
f 636 605 595
f 553 637 604
f 594 596 603
f 277 513 278
f 638 572 624
f 628 639 486
f 633 582 585
f 373 601 374
f 636 640 605
f 355 522 338
f 554 625 624
f 433 516 425
f 57 588 126
f 365 641 536
f 497 552 489
f 607 609 604
f 610 612 603
f 564 565 642
f 85 594 96
f 262 553 255
f 228 574 621
f 422 541 432
f 590 558 550
f 643 600 572
f 644 549 645
f 74 606 75
f 646 647 591
f 606 531 613
f 607 567 608
f 610 569 611
f 579 648 633
f 649 624 626
f 645 650 651
f 504 590 550
f 652 564 653
f 654 617 655
f 656 570 610
f 657 568 607
f 658 659 660
f 661 662 663
f 639 623 601
f 664 665 666
f 511 646 591
f 629 614 667
f 668 669 670
f 575 574 283
f 591 590 503
f 439 593 440
f 652 566 564
f 549 671 548
f 424 568 672
f 488 570 673
f 622 561 674
f 675 676 677
f 610 570 569
f 607 568 567
f 528 641 526
f 486 639 496
f 649 638 624
f 669 678 679
f 584 627 585
f 383 680 373
f 549 650 645
f 675 677 681
f 371 682 379
f 596 605 656
f 647 602 591
f 365 536 356
f 557 563 575
f 424 672 409
f 488 673 473
f 683 684 685
f 686 577 576
f 638 643 572
f 679 687 688
f 630 615 614
f 564 642 653
f 545 573 513
f 552 689 578
f 551 689 552
f 690 581 580
f 605 673 656
f 548 691 546
f 572 692 624
f 687 693 688
f 694 619 618
f 520 573 545
f 684 652 695
f 565 559 642
f 679 696 669
f 580 579 633
f 542 697 441
f 698 699 700
f 496 680 383
f 699 551 700
f 643 571 600
f 677 701 681
f 702 626 703
f 658 697 659
f 228 621 229
f 379 682 439
f 684 695 685
f 561 566 684
f 674 561 683
f 110 577 686
f 582 648 593
f 56 581 690
f 551 599 700
f 699 689 551
f 704 649 626
f 665 619 694
f 522 627 584
f 639 640 623
f 705 675 706
f 651 646 511
f 613 577 112
f 211 698 707
f 708 688 706
f 709 710 647
f 694 548 665
f 675 681 708
f 283 574 228
f 701 711 681
f 519 625 554
f 652 653 712
f 698 700 707
f 713 679 688
f 709 546 714
f 598 592 123
f 587 627 524
f 675 708 706
f 715 631 699
f 702 704 626
f 683 561 684
f 560 648 579
f 647 716 709
f 713 696 679
f 634 581 105
f 708 713 688
f 712 714 695
f 704 629 649
f 694 618 711
f 621 622 521
f 279 545 277
f 291 575 283
f 701 694 711
f 705 706 702
f 676 717 677
f 718 703 719
f 649 720 638
f 705 702 703
f 621 530 229
f 651 650 646
f 652 712 695
f 593 682 583
f 715 698 265
f 573 692 572
f 679 678 687
f 712 709 714
f 608 518 721
f 611 631 722
f 578 689 631
f 115 592 723
f 441 697 658
f 302 722 715
f 151 721 634
f 683 685 718
f 605 640 628
f 626 625 703
f 719 625 519
f 603 612 97
f 604 609 256
f 553 538 637
f 621 521 530
f 724 725 696
f 718 705 703
f 622 674 521
f 624 692 554
f 160 609 721
f 155 612 722
f 211 707 212
f 56 690 57
f 110 686 85
f 278 515 262
f 526 641 365
f 531 535 613
f 674 519 521
f 674 683 719
f 705 676 675
f 649 629 720
f 587 524 598
f 361 583 371
f 709 547 546
f 356 536 533
f 711 726 681
f 681 726 708
f 688 693 706
f 628 673 605
f 683 718 719
f 559 589 642
f 126 598 123
f 75 613 112
f 674 719 519
f 685 676 718
f 112 577 110
f 715 699 698
f 703 625 719
f 708 726 713
f 592 534 723
f 105 581 56
f 713 724 696
f 706 693 702
f 722 631 715
f 721 518 634
f 718 676 705
f 702 693 704
f 637 607 604
f 596 610 603
f 545 513 277
f 665 671 666
f 255 604 256
f 302 715 265
f 96 603 97
f 151 634 105
f 265 698 211
f 123 592 115
f 115 723 74
f 566 632 564
f 654 616 617
f 707 555 212
f 714 717 695
f 609 608 721
f 612 611 722
f 618 620 727
f 695 717 685
f 638 544 643
f 160 721 151
f 155 722 302
f 667 614 659
f 659 616 660
f 687 630 693
f 97 612 155
f 256 609 160
f 409 672 539
f 473 673 628
f 686 576 595
f 720 544 638
f 690 588 57
f 576 527 636
f 726 724 713
f 685 717 676
f 690 580 586
f 686 594 85
f 515 553 262
f 661 725 662
f 628 640 639
f 644 671 549
f 548 671 665
f 618 727 711
f 697 667 659
f 593 648 560
f 622 562 561
f 684 566 652
f 518 517 634
f 554 692 520
f 617 728 655
f 660 616 654
f 642 602 653
f 723 606 74
f 539 672 729
f 669 728 678
f 614 616 659
f 373 680 601
f 544 730 542
f 629 667 720
f 725 731 696
f 693 630 704
f 668 728 669
f 714 732 717
f 700 556 707
f 687 615 630
f 527 623 636
f 723 532 606
f 589 602 642
f 677 732 701
f 531 528 535
f 666 671 644
f 704 630 629
f 669 731 670
f 539 729 537
f 686 595 594
f 690 586 588
f 580 633 586
f 694 691 548
f 576 636 595
f 520 692 573
f 596 656 610
f 637 657 607
f 574 562 622
f 717 732 677
f 663 620 635
f 635 619 664
f 646 716 647
f 534 532 723
f 733 725 661
f 439 682 593
f 727 620 662
f 585 627 587
f 712 710 709
f 639 680 496
f 701 691 694
f 547 650 549
f 601 680 639
f 662 725 724
f 678 728 617
f 696 731 669
f 709 716 547
f 678 615 687
f 503 590 504
f 662 620 663
f 514 529 600
f 602 710 653
f 664 619 665
f 546 732 714
f 726 727 724
f 565 599 559
f 544 543 643
f 655 728 668
f 573 529 513
f 647 710 602
f 673 570 656
f 672 568 657
f 697 730 667
f 617 615 678
f 707 556 555
f 670 731 733
f 732 691 701
f 720 730 544
f 633 648 582
f 724 727 662
f 711 727 726
f 583 682 371
f 631 689 699
f 643 543 571
f 623 640 636
f 542 730 697
f 667 730 720
f 589 558 590
f 729 672 657
f 546 691 732
f 650 716 646
f 733 731 725
f 538 729 637
f 547 716 650
f 653 710 712
f 557 632 563
f 700 599 556
f 637 729 657
f 523 597 534
f 563 632 566
f 559 558 589
f 536 641 528
f 556 599 565
f 532 597 533
f 537 729 538
f 571 540 537
f 534 597 532
f 543 540 571
f 537 540 539
f 541 540 543
f 734 735 736
f 737 738 739
f 740 741 742
f 743 741 740
f 735 744 736
f 737 745 738
f 746 747 748
f 749 750 751
f 752 753 742
f 754 755 756
f 747 757 748
f 749 758 750
f 740 759 760
f 760 743 740
f 742 741 752
f 761 762 763
f 763 764 761
f 761 765 766
f 766 762 761
f 767 764 763
f 763 768 767
f 760 759 767
f 767 768 760
f 766 765 754
f 754 769 766
f 756 769 754
f 746 748 770
f 419 746 770
f 771 749 751
f 748 738 770
f 771 735 749
f 748 772 738
f 735 773 749
f 771 751 484
f 419 770 420
f 502 771 484
f 438 746 419
f 484 751 485
f 670 774 668
f 668 774 775
f 776 774 670
f 776 777 778
f 779 780 777
f 779 777 776
f 781 782 780
f 779 781 780
f 783 784 782
f 780 767 777
f 783 782 781
f 783 785 784
f 785 786 784
f 784 761 782
f 787 786 785
f 635 785 783
f 654 788 660
f 654 789 788
f 790 760 791
f 792 742 793
f 794 763 795
f 661 781 779
f 796 766 797
f 775 792 793
f 775 789 655
f 645 798 644
f 661 779 733
f 799 756 800
f 775 793 789
f 635 783 663
f 668 775 655
f 655 789 654
f 666 787 664
f 801 752 802
f 664 785 635
f 787 785 664
f 663 781 661
f 783 781 663
f 779 776 733
f 733 776 670
f 792 778 740
f 792 740 742
f 803 754 786
f 778 774 776
f 775 774 792
f 666 804 787
f 644 804 666
f 798 804 644
f 792 774 778
f 787 803 786
f 787 804 803
f 773 805 756
f 752 806 772
f 651 750 645
f 660 747 658
f 793 807 789
f 804 808 803
f 742 753 793
f 803 755 754
f 485 809 511
f 645 750 798
f 788 747 660
f 511 809 651
f 789 807 788
f 798 808 804
f 420 745 444
f 506 744 502
f 441 810 438
f 736 744 506
f 444 745 737
f 658 810 441
f 756 755 773
f 772 753 752
f 738 745 770
f 771 744 735
f 754 765 786
f 778 759 740
f 790 743 760
f 780 764 767
f 767 759 777
f 784 765 761
f 761 764 782
f 752 741 802
f 796 762 766
f 763 762 795
f 794 768 763
f 760 768 791
f 799 769 756
f 766 769 797
f 748 757 772
f 801 806 752
f 756 805 800
f 773 758 749
f 734 805 735
f 738 806 739
f 772 757 807
f 808 758 773
f 750 758 798
f 788 757 747
f 800 805 734
f 739 806 801
f 735 805 773
f 772 806 738
f 793 753 807
f 808 755 803
f 811 743 790
f 811 741 743
f 777 759 778
f 782 764 780
f 786 765 784
f 802 741 811
f 795 762 796
f 791 768 794
f 797 769 799
f 751 809 485
f 770 745 420
f 502 744 771
f 438 810 746
f 747 810 658
f 807 753 772
f 773 755 808
f 651 809 750
f 746 810 747
f 750 809 751
f 807 757 788
f 798 758 808
f 812 813 814
f 815 816 817
f 818 819 820
f 817 816 821
f 822 823 824
f 812 814 825
f 826 827 828
f 829 818 830
f 829 819 818
f 818 831 830
f 832 833 834
f 797 835 796
f 823 836 824
f 828 827 837
f 834 838 832
f 839 840 841
f 842 831 818
f 821 843 817
f 844 845 846
f 847 848 849
f 849 850 847
f 427 844 846
f 815 817 851
f 852 853 854
f 832 838 828
f 855 812 477
f 829 856 819
f 857 858 426
f 859 860 490
f 861 835 797
f 862 856 829
f 863 864 837
f 841 840 865
f 866 867 475
f 428 868 869
f 846 857 426
f 825 859 490
f 855 870 812
f 852 848 853
f 871 872 813
f 873 874 875
f 866 876 867
f 877 873 875
f 878 879 880
f 824 836 881
f 882 874 873
f 883 884 885
f 358 886 823
f 887 888 889
f 120 880 890
f 891 842 892
f 893 888 887
f 267 892 894
f 820 819 895
f 834 886 358
f 878 877 879
f 351 896 826
f 897 898 899
f 900 901 902
f 258 851 903
f 99 883 904
f 884 905 885
f 906 907 908
f 909 833 832
f 837 827 863
f 910 911 912
f 913 914 915
f 350 823 822
f 128 909 916
f 812 870 813
f 907 917 908
f 891 918 842
f 491 812 825
f 919 920 868
f 911 857 846
f 914 859 825
f 358 823 350
f 869 844 413
f 796 835 921
f 359 834 358
f 847 922 923
f 335 822 875
f 924 920 919
f 868 925 869
f 427 846 426
f 491 825 490
f 922 850 926
f 927 928 929
f 813 870 871
f 896 930 826
f 931 898 897
f 826 930 827
f 426 858 421
f 490 860 483
f 476 867 932
f 919 868 437
f 335 875 341
f 351 826 343
f 927 929 933
f 837 864 916
f 880 879 890
f 875 874 341
f 824 934 822
f 428 869 413
f 492 855 477
f 406 935 411
f 470 866 475
f 825 814 914
f 936 877 878
f 824 881 890
f 846 937 911
f 476 932 506
f 444 919 437
f 492 882 855
f 813 872 938
f 892 842 894
f 853 848 847
f 939 940 941
f 942 905 884
f 851 943 903
f 883 885 904
f 944 940 862
f 862 829 945
f 847 850 922
f 906 908 854
f 935 946 411
f 936 873 877
f 413 844 427
f 926 947 922
f 360 896 351
f 942 948 905
f 350 822 335
f 477 812 491
f 129 880 120
f 266 892 267
f 343 949 838
f 913 915 903
f 910 912 904
f 941 940 944
f 288 851 258
f 125 883 99
f 475 867 476
f 437 868 428
f 944 862 950
f 854 853 282
f 922 816 951
f 285 906 854
f 734 952 800
f 127 909 128
f 909 832 916
f 842 818 894
f 910 857 911
f 913 859 914
f 870 953 936
f 802 902 801
f 954 860 913
f 955 858 910
f 739 956 737
f 795 957 794
f 946 930 896
f 876 843 821
f 853 847 923
f 895 907 906
f 799 861 797
f 932 933 506
f 958 926 959
f 869 918 844
f 960 821 926
f 790 841 811
f 908 917 961
f 501 882 492
f 962 963 889
f 891 845 918
f 286 853 923
f 895 906 284
f 902 901 964
f 861 965 966
f 966 888 893
f 893 835 966
f 421 858 967
f 483 860 968
f 889 888 962
f 902 840 900
f 913 860 859
f 910 858 857
f 828 949 826
f 966 835 861
f 411 946 412
f 841 969 839
f 970 928 971
f 869 831 918
f 923 922 951
f 862 945 950
f 875 934 877
f 931 972 973
f 829 830 945
f 375 974 360
f 939 917 940
f 290 820 895
f 923 951 314
f 342 975 377
f 885 905 955
f 343 838 359
f 961 917 939
f 483 968 470
f 421 967 406
f 887 976 893
f 957 921 893
f 977 864 863
f 867 978 932
f 979 931 973
f 980 962 981
f 907 856 917
f 982 872 871
f 905 967 955
f 894 818 820
f 894 820 289
f 287 951 815
f 983 849 984
f 871 870 936
f 444 985 919
f 986 987 957
f 412 974 375
f 941 944 988
f 956 985 737
f 285 854 282
f 377 975 501
f 908 852 854
f 926 850 959
f 944 950 989
f 958 960 926
f 124 864 977
f 957 976 986
f 873 953 882
f 962 966 981
f 109 872 982
f 990 991 992
f 993 959 849
f 822 934 875
f 946 948 930
f 893 976 957
f 916 864 165
f 506 933 736
f 971 927 994
f 983 993 849
f 991 839 995
f 996 973 997
f 952 928 970
f 282 853 286
f 992 889 979
f 869 925 831
f 284 906 285
f 980 981 971
f 960 876 821
f 991 995 992
f 890 881 121
f 944 989 988
f 879 934 824
f 990 992 979
f 855 953 870
f 938 872 108
f 980 971 994
f 950 998 989
f 990 979 973
f 290 895 284
f 286 923 314
f 899 980 994
f 989 999 988
f 1000 958 959
f 961 939 1001
f 882 975 874
f 941 996 997
f 945 924 950
f 914 814 1002
f 895 819 907
f 959 850 849
f 122 881 1003
f 941 988 996
f 737 985 444
f 911 937 1004
f 163 1002 938
f 303 1004 1005
f 939 941 997
f 905 948 935
f 996 990 973
f 851 817 943
f 993 1000 959
f 993 899 1000
f 932 978 1006
f 903 915 259
f 904 912 100
f 1001 983 984
f 899 994 1000
f 950 924 998
f 951 816 815
f 940 856 862
f 992 887 889
f 939 997 1001
f 289 820 290
f 314 951 287
f 156 912 1004
f 162 915 1002
f 995 986 887
f 109 982 129
f 267 894 289
f 287 815 288
f 124 977 125
f 826 949 343
f 832 837 916
f 961 1001 984
f 908 961 852
f 879 824 890
f 995 887 992
f 341 874 342
f 359 838 834
f 1007 900 999
f 958 1006 960
f 935 967 905
f 927 1008 994
f 128 916 165
f 120 890 121
f 165 864 124
f 918 845 844
f 973 972 997
f 881 836 1003
f 108 872 109
f 1002 814 938
f 990 1009 991
f 899 898 980
f 734 929 952
f 961 984 852
f 943 913 903
f 885 910 904
f 1004 937 1005
f 922 947 816
f 997 972 1001
f 952 1010 800
f 1001 972 983
f 99 904 100
f 163 938 108
f 303 1005 266
f 258 903 259
f 849 848 984
f 931 897 972
f 121 881 122
f 122 1003 127
f 912 911 1004
f 915 914 1002
f 902 964 801
f 156 1004 303
f 162 1002 163
f 1009 1011 991
f 739 964 956
f 999 1009 988
f 259 915 162
f 100 912 156
f 802 865 902
f 1011 840 839
f 470 968 866
f 406 967 935
f 988 1009 996
f 977 863 884
f 795 921 957
f 989 1007 999
f 999 1011 1009
f 917 856 940
f 996 1009 990
f 799 1010 861
f 998 1007 989
f 958 1008 1006
f 982 880 129
f 863 827 942
f 1000 1008 958
f 982 871 878
f 994 1008 1000
f 900 840 1011
f 977 883 125
f 815 851 288
f 876 978 867
f 841 865 811
f 935 948 946
f 790 1012 841
f 882 953 855
f 821 947 926
f 1005 892 266
f 814 813 938
f 993 897 899
f 957 987 794
f 866 968 1013
f 736 929 734
f 1003 909 127
f 991 1011 839
f 983 897 993
f 1013 843 866
f 800 1010 799
f 801 964 739
f 360 974 896
f 981 970 971
f 962 888 966
f 796 921 795
f 811 865 802
f 972 897 983
f 921 835 893
f 827 930 942
f 791 1012 790
f 1003 833 909
f 832 828 837
f 932 1014 933
f 977 884 883
f 982 878 880
f 871 936 878
f 819 856 907
f 933 929 736
f 933 1014 927
f 863 942 884
f 945 920 924
f 900 1011 999
f 918 831 842
f 885 955 910
f 943 954 913
f 846 845 937
f 836 833 1003
f 1012 987 986
f 501 975 882
f 839 969 995
f 877 934 879
f 946 974 412
f 1005 891 892
f 896 974 946
f 1005 937 891
f 830 920 945
f 979 963 931
f 986 969 1012
f 980 898 962
f 866 843 876
f 995 969 986
f 956 1015 985
f 794 987 791
f 986 976 887
f 1015 1016 985
f 1010 965 861
f 865 840 902
f 889 963 979
f 968 860 954
f 967 858 955
f 970 965 1010
f 960 978 876
f 1006 1014 932
f 936 953 873
f 1007 901 900
f 874 975 342
f 927 1014 1008
f 930 948 942
f 984 848 852
f 791 987 1012
f 1008 1014 1006
f 830 925 920
f 964 901 956
f 831 925 830
f 1013 968 954
f 985 1016 919
f 931 963 898
f 966 965 981
f 971 928 927
f 817 1013 943
f 1012 969 841
f 929 928 952
f 998 1016 1015
f 924 1016 998
f 1006 978 960
f 943 1013 954
f 919 1016 924
f 823 886 836
f 952 970 1010
f 901 1015 956
f 920 925 868
f 998 1015 1007
f 1007 1015 901
f 838 949 828
f 937 845 891
f 833 886 834
f 836 886 833
f 816 947 821
f 981 965 970
f 898 963 962
f 817 843 1013
