v -2.36387591 4.18631047 -0.26738417
v -2.44951830 4.50013990 0.22624225
v -2.27194717 3.95680488 0.18075910
v -2.26907902 3.95058093 -0.72237644
v -2.44576377 4.48208150 -0.74265144
v 2.50000000 5.00000000 1.50000000
v 2.50000000 5.00000000 1.00000000
v 2.45051037 4.50502635 1.14997353
v 2.45283805 4.51669316 0.23236369
v 2.37492978 4.21916165 -0.24834078
v 2.28894199 3.99464207 0.21085335
v 2.45314681 4.51826279 -0.73405501
v 2.29063625 3.99850834 -0.69718706
v -2.32987044 4.09352124 -1.17435575
v -2.47181227 4.62564174 -0.25000000
v -2.34819749 4.14211390 0.63515377
v 2.47003988 4.61412047 1.62553283
v -1.45946600 2.97023178 -1.65790076
v -1.44922124 2.96290457 -1.17747205
v -1.07499253 2.74292422 -1.60350512
v -0.99449512 2.70631749 -1.17974790
v 0.26408645 2.51398746 -1.09132888
v 0.79226052 2.62885613 -0.71631751
v 0.75709824 2.61739591 -1.18339648
v 0.29038110 2.51692150 -0.63733188
v 2.35555529 4.16252804 -1.16238938
v 2.16596344 3.75156002 -1.54128760
v 2.17313913 3.76409291 -1.08186954
v 2.38532997 4.25153428 -1.60387143
v 2.37002079 4.20438610 0.67010526
v -1.85786206 3.32717348 -1.54758572
v -1.83026711 3.29702545 -1.08283071
v 1.84865703 3.31700648 -1.59200937
v 1.46946313 2.97745751 -1.54758572
v 1.58368857 3.06559298 -1.09047269
v 1.92343510 3.40300363 -1.12326582
v -2.17412514 3.76582826 -1.60951351
v -2.37983748 4.23424968 -1.60343101
v -2.11481683 3.66675218 -1.15031964
v 1.18835230 2.80049578 -1.10691770
v 1.29115610 2.85922539 -0.65767730
v 2.47512229 4.64819091 -0.25000000
v -2.46316606 4.57243369 -1.23676349
v -0.22895706 2.51050634 -0.74903367
v -0.22096329 2.50978410 -1.18508742
v -2.37866557 4.23061705 1.51144861
v -2.25276130 3.91599515 1.04962101
v -2.40466643 4.31620223 0.97127762
v -0.56280122 2.56417267 -1.52636361
v -2.15830445 3.73836539 1.54025241
v -2.01279597 3.51721466 1.06846248
v 2.16707355 3.75348797 0.65203819
v -1.85245343 3.32118605 1.53893439
v -2.47561325 4.65166245 1.24725211
v -0.58259250 2.56883033 -1.09213326
v -2.02254249 3.53053687 2.00000000
v -1.67282652 3.14213794 2.00000000
v -1.23943749 2.82887248 1.09004646
v -1.00066167 2.70900104 0.63215957
v -1.45534081 2.96727200 0.62706711
v -1.46745147 2.97599748 1.54462129
v -1.66418121 3.13438994 1.07780390
v -2.14917408 3.72287401 -0.28048107
v 2.27963901 3.97372227 1.10395808
v -0.51703512 2.55404933 1.54756582
v -0.75822125 2.61775305 1.08586228
v -1.01559652 2.71558242 1.55207992
v 2.02443798 3.53314934 1.09792039
v 2.16023228 3.74166917 1.55345080
v 2.02886002 3.53927175 0.20350071
v -0.24753381 2.51228478 1.08733853
v 0.00414129 2.50000343 1.54516890
v 0.27326558 2.51497969 1.08685433
v 0.26132116 2.51369526 2.00000000
v 0.77254249 2.62235871 2.00000000
v 0.52408200 2.55554954 1.54382378
v 2.36487760 4.18922634 1.56692015
v -2.00829768 3.51112780 0.16882964
v 2.16976841 3.75818478 -0.24561348
v 1.86736606 3.33778943 -0.24804246
v 1.85951752 3.32901389 1.54889820
v 1.01997608 2.71753449 1.54393576
v 1.25717053 2.83909226 1.09351701
v 0.78110796 2.62515888 1.08870916
v 2.02254249 3.53053687 2.00000000
v 1.68273632 3.15110885 0.19837368
v -0.99557034 2.70678398 -0.27285666
v -0.49725978 2.54995251 -0.26726653
v -0.76557556 2.62010629 -0.71925368
v 1.47193479 2.97925559 1.54749215
v -2.15239059 3.72830242 0.61566898
v -1.84063357 3.30823522 -0.27832934
v 1.70236460 3.16916555 -0.67077669
v 2.03550255 3.54854232 -0.68283620
v -1.65674488 3.12778302 0.17293230
v 2.28386364 3.98315839 2.00000000
v 2.44536900 4.48022077 2.00000000
v 1.86309832 3.33300730 0.64920084
v -2.28386364 3.98315839 -2.00000000
v -2.44536900 4.48022077 -2.00000000
v -1.65396262 3.12532465 -0.71773071
v -1.22848762 2.82265800 -0.72704317
v -1.84459558 3.31255604 0.61923713
v -1.45045972 2.96378621 -0.27622045
v -2.28386364 3.98315839 2.00000000
v -2.00422078 3.50564427 -0.71976140
v 1.67784843 3.14667201 1.09618903
v 2.28386364 3.98315839 -2.00000000
v 2.02254249 3.53053687 -2.00000000
v 1.67282652 3.14213794 2.00000000
v 1.48295629 2.98732997 -0.24713437
v 1.25000000 2.83493649 2.00000000
v -1.23220052 2.82475705 0.17710674
v -0.50281076 2.55108568 0.63449827
v -0.26132116 2.51369526 2.00000000
v 1.01602681 2.71577376 -1.55640636
v -0.75333321 2.61620280 0.18135378
v 0.52104583 2.55490057 -1.55457612
v 0.00000000 2.50000000 -1.54758572
v 1.25000000 2.83493649 -2.00000000
v 0.77254249 2.62235871 -2.00000000
v 0.26132116 2.51369526 -2.00000000
v -0.77254249 2.62235871 2.00000000
v -1.25000000 2.83493649 2.00000000
v -1.67282652 3.14213794 -2.00000000
v -2.02254249 3.53053687 -2.00000000
v -0.26132116 2.51369526 -2.00000000
v -0.77254249 2.62235871 -2.00000000
v 1.67282652 3.14213794 -2.00000000
v 0.02313192 2.50010702 -0.25599895
v 0.28011531 2.51574248 0.18841909
v -0.24153968 2.51169564 0.18541875
v 0.01691384 2.50005722 0.63622532
v 0.53941668 2.55888762 -0.25250967
v 1.03571573 2.72463345 -0.24956332
v 1.02894619 2.72156419 0.64178796
v 0.78945993 2.62792221 0.19134244
v 1.26359306 2.84284155 0.19435397
v 1.47852895 2.98407536 0.64560034
v 2.50000000 5.00000000 0.50000000
v 2.50000000 5.00000000 0.00000000
v 0.53504618 2.55792597 0.63710438
v -2.50000000 5.00000000 0.00000000
v -2.50000000 5.00000000 0.50000000
v -2.50000000 5.00000000 -1.00000000
v -2.50000000 5.00000000 -0.50000000
v -2.50000000 5.00000000 1.00000000
v -2.50000000 5.00000000 1.50000000
v 2.50000000 5.00000000 -0.50000000
v 2.50000000 5.00000000 -1.00000000
v -2.44536900 4.48022077 2.00000000
v -2.47072796 4.61855097 0.75000000
v -2.50000000 5.00000000 -1.50000000
v 2.46791918 4.60078214 -1.25862194
v 2.50000000 5.00000000 2.00000000
v -2.50000000 5.00000000 -2.00000000
v -2.47140685 4.62297456 -1.62798665
v 2.47331984 4.63573500 -1.64155644
v 2.47143760 4.62317616 0.70985094
v -2.50000000 5.00000000 2.00000000
v -2.47388091 4.63956523 1.63610269
v 2.50000000 5.00000000 -2.00000000
v 2.44536900 4.48022077 -2.00000000
v 2.50000000 5.00000000 -1.50000000
v -1.25000000 2.83493649 -2.00000000
v 2.36529305 5.80956086 -0.26630134
v 2.45000988 5.49744505 0.22680985
v 2.27386179 6.03901519 0.18220376
v 2.27138471 6.04441923 -0.72096576
v 2.44635873 5.51510094 -0.74199391
v 2.33047629 5.90492003 -1.17376468
v 1.46017239 7.02926011 -1.65803975
v 1.45506138 7.03292803 -1.17719420
v 1.07642154 7.25639462 -1.60301326
v 0.99528563 7.29333960 -1.17357978
v -2.28129585 6.02258948 0.21372785
v -2.43892811 5.54920822 0.23418802
v -2.35078567 5.85076831 -0.19830875
v 2.47231132 5.37104814 -0.25000000
v 2.34912066 5.85535497 0.63701101
v -1.46946313 7.02254249 -1.54758572
v -1.83255407 6.70051333 -1.17258846
v -1.83918929 6.69333480 -1.62511613
v -1.48240254 7.01307792 -1.07563751
v 1.85786206 6.67282652 -1.54758572
v 1.83406656 6.69888194 -1.08213862
v -0.31308330 7.48031830 -0.69016604
v -0.79757849 7.36936037 -0.70521364
v -0.64673570 7.41489812 -1.14681091
v 2.17445361 6.23359292 -1.60886053
v 2.38006347 5.76504764 -1.60324888
v -0.14780241 7.49562706 -1.13907237
v -2.13776097 6.29613966 -1.52134523
v -2.34933835 5.85475688 0.63258412
v 2.11759522 6.32883049 -1.14923602
v -2.10146915 6.35418883 -1.07364094
v -2.46250000 5.43138585 -0.25000000
v -1.09956585 7.24520710 -1.14981813
v -0.99286704 7.29438773 -1.59856932
v 0.23274264 7.48914260 -0.75034025
v 0.25253962 7.48721204 -1.19938542
v 0.56442271 7.43545212 -1.52649057
v 2.46330149 5.42678540 -1.23665454
v 2.15893400 6.26055701 1.54030479
v 2.01483583 6.48001236 1.06942466
v 2.25343715 6.08259918 1.05168531
v 2.37862833 5.76949806 1.51233214
v 2.40350773 5.68785943 0.97696043
v 0.60760433 7.42503958 -1.09674325
v 1.85624425 6.67462153 1.52907848
v 2.02254249 6.46946313 2.00000000
v 1.67282652 6.85786206 2.00000000
v 2.47547118 5.34934570 1.24757298
v 1.24195418 7.16968888 1.08880514
v 1.00477389 7.28919842 0.63168697
v 1.45891154 7.03016677 0.62714735
v 1.46790708 7.02367211 1.54405296
v 1.66656328 6.86348245 1.07764568
v 2.15221982 6.27198658 -0.27888739
v 0.51764340 7.44582201 1.54534352
v 0.76170966 7.38113385 1.08633297
v 1.01319890 7.28548200 1.54492559
v -1.86149316 6.66878495 0.64541025
v -2.15568419 6.26610650 0.63770135
v -2.02179394 6.47049287 0.19724300
v -2.15299243 6.27067840 -0.23864123
v -0.49726701 7.45004602 -1.57840006
v 0.26132116 7.48630474 2.00000000
v -0.26132116 7.48630474 2.00000000
v -0.00116565 7.49999973 1.54062528
v 2.01152683 6.48450659 0.17009816
v 0.25348465 7.48711591 1.08766221
v -2.02395511 6.46751685 1.09769682
v -2.25141372 6.08680094 1.06867909
v -0.77948766 7.37537344 1.09007118
v -0.51977923 7.44536900 1.54758572
v -1.01884899 7.28296884 1.54681705
v -1.67997119 6.85140400 0.19260577
v 1.00098022 7.29085979 -0.27328812
v 0.50290883 7.44889418 -0.26846893
v 0.76990317 7.37849724 -0.71940926
v -0.26817355 7.48557497 1.08848322
v -1.25549733 7.16188030 1.09167338
v -1.47030009 7.02193414 1.54757771
v 2.15485681 6.26751415 0.61724683
v 1.84467554 6.68735656 -0.27738797
v -1.85889141 6.67168260 1.54815285
v -2.16624201 6.24795656 1.54893344
v -2.01804767 6.47562990 -0.68834034
v -2.28512895 6.01399491 -0.69826372
v -1.86467738 6.66522619 -0.25549680
v 1.66079850 6.86862204 0.17355152
v 1.65885735 6.87034550 -0.71715995
v 1.23419222 7.17411351 -0.72713443
v -2.28386364 6.01684161 2.00000000
v -2.44536900 5.51977923 2.00000000
v -2.37527905 5.77977526 1.51980499
v 2.28386364 6.01684161 -2.00000000
v 2.44536900 5.51977923 -2.00000000
v 1.84787954 6.68384714 0.62017378
v 1.45531235 7.03274838 -0.27595263
v -2.02254249 6.46946313 2.00000000
v -2.46460983 5.41916393 0.75180925
v -1.67586561 6.85512115 1.09546889
v 2.28386364 6.01684161 2.00000000
v -2.28386364 6.01684161 -2.00000000
v -2.02254249 6.46946313 -2.00000000
v 2.00813329 6.48909392 -0.71850702
v -1.48026838 7.01464774 -0.25782161
v -1.68282678 6.84880881 -0.69952583
v -0.01163017 7.49997295 0.63584729
v -0.52990936 7.44319383 0.63798539
v 0.50767968 7.44790959 0.63372942
v 1.23687305 7.17258948 0.17707459
v -1.03049185 7.27773716 -0.26128638
v -1.26720671 7.15503762 -0.69972107
v -1.25000000 7.16506351 2.00000000
v -1.67282652 6.85786206 2.00000000
v -0.77254249 7.37764129 2.00000000
v 0.75837100 7.38219928 0.18066573
v -0.00000000 7.50000000 -1.54758572
v -0.77254249 7.37764129 -2.00000000
v -0.26132116 7.48630474 -2.00000000
v 0.77254249 7.37764129 2.00000000
v 0.26132116 7.48630474 -2.00000000
v -1.67282652 6.85786206 -2.00000000
v -1.25000000 7.16506351 -2.00000000
v 1.25000000 7.16506351 2.00000000
v 0.77254249 7.37764129 -2.00000000
v 1.67282652 6.85786206 -2.00000000
v 2.02254249 6.46946313 -2.00000000
v -0.01757548 7.49993822 -0.25820861
v 0.24669838 7.48779821 0.18403829
v -0.27506972 7.48482125 0.18632281
v -1.47575693 7.01795478 0.64288182
v -0.53409673 7.44228186 -0.25713687
v -0.78484414 7.37360900 0.18812382
v -1.25992679 7.15930185 0.19073662
v -1.02570881 7.27989505 0.63986404
v -2.46965964 5.38830561 -0.75143895
v -2.47373766 5.36141665 -1.24936154
v 2.44536900 5.51977923 2.00000000
v -2.44536900 5.51977923 -2.00000000
v -2.37728148 5.77364899 -1.52272551
v -2.39930636 5.70237384 -0.99990351
v -2.47398153 5.35974348 1.23667152
v 2.47117765 5.37852482 0.75000000
v -2.28333120 6.01803665 -1.16304485
v -2.40276008 5.69046651 0.99674251
v 2.47140685 5.37702544 -1.62798665
v -2.47258531 5.36921794 1.62806983
v 2.47386495 5.36054434 1.63616190
v -2.47363629 5.36210979 -1.63678323
v 1.25000000 7.16506351 -2.00000000
v -2.40237727 5.69179727 -0.57000757
v 3.00701730 -5.00000000 -0.32889486
v 4.08120456 -5.00000000 -0.40861742
v 3.44720513 -5.00000000 0.32437062
v -4.10521669 -5.00000000 -0.42749687
v -3.00543569 -5.00000000 -0.37701706
v -3.37456473 -5.00000000 0.40016178
v 3.49727775 -5.00000000 -1.15037110
v -3.49576263 -5.00000000 -1.15322795
v 4.21492643 -5.00000000 0.57527076
v 2.50000000 -5.00000000 0.59807621
v 3.43287737 -5.00000000 1.18601841
v 2.50000000 -5.00000000 1.38820130
v -0.50000000 -5.00000000 -0.59807621
v 0.50000000 -5.00000000 -1.13397460
v 0.45848377 -5.00000000 -0.30876215
v -0.50000000 -5.00000000 -1.38820130
v 1.57879494 -5.00000000 1.12288338
v -1.42120506 -5.00000000 -1.12288338
v -4.20929376 -5.00000000 0.56323931
v 2.00000000 -5.00000000 -2.00000000
v 2.50000000 -5.00000000 -1.13397460
v 1.54536507 -5.00000000 -1.16016613
v -2.00000000 -5.00000000 2.00000000
v -2.50388748 -5.00000000 1.09953938
v -1.45528284 -5.00000000 1.15442693
v 3.00000000 -5.00000000 -2.00000000
v 4.00000000 -5.00000000 -2.00000000
v -2.00000000 -5.00000000 -2.00000000
v -2.50000000 -5.00000000 -1.13397460
v 0.50000000 -5.00000000 1.13397460
v -0.00000000 -5.00000000 0.31032031
v 0.93719597 -5.00000000 0.37319289
v -5.00000000 -5.00000000 1.00000000
v -5.00000000 -5.00000000 0.00000000
v 1.00000000 -5.00000000 -2.00000000
v -3.00000000 -5.00000000 -2.00000000
v 5.00000000 -5.00000000 0.00000000
v 5.00000000 -5.00000000 1.00000000
v -0.50000000 -5.00000000 1.13397460
v -1.00000000 -5.00000000 2.00000000
v 1.00000000 -5.00000000 2.00000000
v -2.06370998 -5.00000000 -0.38430902
v 0.00000000 -5.00000000 -2.00000000
v -1.00000000 -5.00000000 -2.00000000
v -4.00000000 -5.00000000 -2.00000000
v -3.00000000 -5.00000000 2.00000000
v 0.00000000 -5.00000000 2.00000000
v -1.00000000 -5.00000000 0.26794919
v 2.02558595 -5.00000000 -0.28272125
v 2.00000000 -5.00000000 2.00000000
v -3.55928253 -5.00000000 1.22181494
v -1.26962273 -5.00000000 -0.38317087
v 1.73230816 -5.00000000 0.38128397
v -2.53508149 -5.00000000 0.23269470
v -5.00000000 -5.00000000 -1.00000000
v -4.00000000 -5.00000000 2.00000000
v 5.00000000 -5.00000000 -1.00000000
v 4.00000000 -5.00000000 2.00000000
v 3.00000000 -5.00000000 2.00000000
v -5.00000000 -5.00000000 -2.00000000
v -4.26794919 -5.00000000 -1.26794919
v 5.00000000 -5.00000000 -2.00000000
v 4.26794919 -5.00000000 -1.26794919
v -5.00000000 -5.00000000 2.00000000
v -4.26794919 -5.00000000 1.26794919
v -1.76698704 -5.00000000 0.37718514
v 1.23526836 -5.00000000 -0.38943148
v 5.00000000 -5.00000000 2.00000000
v 4.28775336 -5.00000000 1.29366160
v -5.00000000 -3.00701730 -0.32889486
v -5.00000000 -4.08120456 -0.40861742
v -5.00000000 -3.44720513 0.32437062
v -5.00000000 -3.49727775 -1.15037110
v -5.00000000 4.04072119 -0.40986882
v -5.00000000 2.99305627 -0.39171170
v -5.00000000 3.33582763 0.38112038
v -5.00000000 3.46238514 -1.18964197
v -5.00000000 -4.21492643 0.57527076
v -5.00000000 2.50959621 1.09587084
v -5.00000000 3.55728044 1.19882057
v -5.00000000 -2.50000000 0.59807621
v -5.00000000 -3.43287737 1.18601841
v -5.00000000 -2.50000000 1.38820130
v -5.00000000 2.53942331 0.22825360
v -5.00000000 0.50000000 -0.59807621
v -5.00000000 -0.50000000 -1.13397460
v -5.00000000 -0.45848377 -0.30876215
v -5.00000000 0.50000000 -1.38820130
v -5.00000000 -1.57879494 1.12288338
v -5.00000000 1.42120506 -1.12288338
v -5.00000000 -2.00000000 -2.00000000
v -5.00000000 -2.50000000 -1.13397460
v -5.00000000 -1.54536507 -1.16016613
v -5.00000000 2.00000000 2.00000000
v -5.00000000 1.45623429 1.15381551
v -5.00000000 -3.00000000 -2.00000000
v -5.00000000 -4.00000000 -2.00000000
v -5.00000000 2.00000000 -2.00000000
v -5.00000000 2.50000000 -1.13397460
v -5.00000000 -0.50000000 1.13397460
v -5.00000000 0.00000000 0.31032031
v -5.00000000 -0.93719597 0.37319289
v -5.00000000 2.06280403 -0.36613104
v -5.00000000 5.00000000 0.00000000
v -5.00000000 5.00000000 -1.00000000
v -5.00000000 -1.00000000 -2.00000000
v -5.00000000 3.00000000 2.00000000
v -5.00000000 0.50000000 1.13397460
v -5.00000000 1.00000000 2.00000000
v -5.00000000 -1.00000000 2.00000000
v -5.00000000 0.00000000 -2.00000000
v -5.00000000 1.00000000 -2.00000000
v -5.00000000 3.00000000 -2.00000000
v -5.00000000 0.00000000 2.00000000
v -5.00000000 1.00000000 0.26794919
v -5.00000000 -2.02558595 -0.28272125
v -5.00000000 4.00000000 2.00000000
v -5.00000000 -2.00000000 2.00000000
v -5.00000000 4.21163355 0.57250707
v -5.00000000 1.25762895 -0.39872624
v -5.00000000 -1.73230816 0.38128397
v -5.00000000 4.00000000 -2.00000000
v -5.00000000 5.00000000 1.00000000
v -5.00000000 -4.00000000 2.00000000
v -5.00000000 -3.00000000 2.00000000
v -5.00000000 5.00000000 2.00000000
v -5.00000000 4.26794919 1.26794919
v -5.00000000 -4.26794919 -1.26794919
v -5.00000000 5.00000000 -2.00000000
v -5.00000000 4.26794919 -1.26794919
v -5.00000000 1.76682567 0.37666656
v -5.00000000 -1.23526836 -0.38943148
v -5.00000000 -4.28775336 1.29366160
v 5.00000000 3.00701730 -0.32889486
v 5.00000000 4.08120456 -0.40861742
v 5.00000000 3.44720513 0.32437062
v 5.00000000 3.49727775 -1.15037110
v 5.00000000 -4.04072119 -0.40986882
v 5.00000000 -2.99305627 -0.39171170
v 5.00000000 -3.33582763 0.38112038
v 5.00000000 -3.46238514 -1.18964197
v 5.00000000 4.21492643 0.57527076
v 5.00000000 -2.50959621 1.09587084
v 5.00000000 -3.55728044 1.19882057
v 5.00000000 2.50000000 0.59807621
v 5.00000000 3.43287737 1.18601841
v 5.00000000 2.50000000 1.38820130
v 5.00000000 -2.53942331 0.22825360
v 5.00000000 -0.50000000 -0.59807621
v 5.00000000 0.50000000 -1.13397460
v 5.00000000 0.45848377 -0.30876215
v 5.00000000 -0.50000000 -1.38820130
v 5.00000000 1.57879494 1.12288338
v 5.00000000 -1.42120506 -1.12288338
v 5.00000000 2.00000000 -2.00000000
v 5.00000000 2.50000000 -1.13397460
v 5.00000000 1.54536507 -1.16016613
v 5.00000000 -2.00000000 2.00000000
v 5.00000000 -1.45623429 1.15381551
v 5.00000000 3.00000000 -2.00000000
v 5.00000000 4.00000000 -2.00000000
v 5.00000000 -2.00000000 -2.00000000
v 5.00000000 -2.50000000 -1.13397460
v 5.00000000 0.50000000 1.13397460
v 5.00000000 -0.00000000 0.31032031
v 5.00000000 0.93719597 0.37319289
v 5.00000000 -2.06280403 -0.36613104
v 5.00000000 1.00000000 -2.00000000
v 5.00000000 5.00000000 0.00000000
v 5.00000000 5.00000000 1.00000000
v 5.00000000 -3.00000000 2.00000000
v 5.00000000 -0.50000000 1.13397460
v 5.00000000 -1.00000000 2.00000000
v 5.00000000 1.00000000 2.00000000
v 5.00000000 0.00000000 -2.00000000
v 5.00000000 -1.00000000 -2.00000000
v 5.00000000 -3.00000000 -2.00000000
v 5.00000000 0.00000000 2.00000000
v 5.00000000 -1.00000000 0.26794919
v 5.00000000 2.02558595 -0.28272125
v 5.00000000 -4.00000000 2.00000000
v 5.00000000 2.00000000 2.00000000
v 5.00000000 -4.21163355 0.57250707
v 5.00000000 -1.25762895 -0.39872624
v 5.00000000 1.73230816 0.38128397
v 5.00000000 -4.00000000 -2.00000000
v 5.00000000 5.00000000 -1.00000000
v 5.00000000 4.00000000 2.00000000
v 5.00000000 3.00000000 2.00000000
v 5.00000000 -4.26794919 1.26794919
v 5.00000000 5.00000000 -2.00000000
v 5.00000000 4.26794919 -1.26794919
v 5.00000000 -4.26794919 -1.26794919
v 5.00000000 -1.76682567 0.37666656
v 5.00000000 1.23526836 -0.38943148
v 5.00000000 5.00000000 2.00000000
v 5.00000000 4.28775336 1.29366160
v 2.29921258 2.32090354 2.00000000
v 2.93688464 2.83536084 2.00000000
v 2.19112106 3.02538775 2.00000000
v 1.63819887 2.01931820 2.00000000
v 2.00233187 1.59923147 2.00000000
v 4.13471997 3.56043277 2.00000000
v 3.48570040 4.20891762 2.00000000
v 3.27474233 3.56103762 2.00000000
v 2.02708468 1.02644837 2.00000000
v 1.46720831 1.46391612 2.00000000
v 1.11823922 0.88113293 2.00000000
v -0.40079380 9.12356198 2.00000000
v -0.40022553 8.43301934 2.00000000
v 0.28398526 8.57575878 2.00000000
v 3.53440749 2.27718992 2.00000000
v 3.64828853 2.98706809 2.00000000
v -2.58693264 3.55337724 2.00000000
v -3.35838181 3.64752623 2.00000000
v -2.86575164 3.01037810 2.00000000
v -2.36757929 7.55460103 2.00000000
v -1.78933171 7.99352849 2.00000000
v -2.58624481 8.27609147 2.00000000
v 2.71093471 -1.84663636 2.00000000
v 3.35553878 -1.05688705 2.00000000
v 2.35894226 -1.05265328 2.00000000
v 2.95253258 2.15311587 2.00000000
v -3.51549124 0.69015509 2.00000000
v -3.42729125 1.43993509 2.00000000
v -4.16468464 1.44453400 2.00000000
v 1.56423893 0.33123294 2.00000000
v 0.09982762 -2.98769839 2.00000000
v -0.41948693 -3.51459431 2.00000000
v 0.37812355 -4.01543383 2.00000000
v 2.57006820 1.64216540 2.00000000
v -1.33707304 0.75709746 2.00000000
v -1.11171679 0.05247702 2.00000000
v -0.58581339 0.55415592 2.00000000
v 0.96609162 -3.23309207 2.00000000
v -4.03003660 4.01619586 2.00000000
v -4.16088675 4.65718477 2.00000000
v -4.29957131 0.48567887 2.00000000
v 0.23651692 9.35479061 2.00000000
v 4.21949207 4.50699397 2.00000000
v -3.57803060 2.83015962 2.00000000
v 2.58188084 3.52131310 2.00000000
v 2.49138439 -3.41755206 2.00000000
v 1.73200280 -3.15772780 2.00000000
v 1.60953138 -4.07068820 2.00000000
v 1.70539658 2.59008044 2.00000000
v 4.26964926 2.57054231 2.00000000
v -0.82867229 1.19048889 2.00000000
v 2.78143263 -0.38890128 2.00000000
v -2.56543895 -2.63968172 2.00000000
v -3.41952239 -1.95375448 2.00000000
v -3.42712952 -3.04710002 2.00000000
v 0.84116742 1.45639845 2.00000000
v 0.63465776 2.05186571 2.00000000
v 0.22535753 1.55055083 2.00000000
v -1.90664862 8.73518453 2.00000000
v -4.26566051 2.47425927 2.00000000
v 2.57884040 -4.24412216 2.00000000
v 3.06562893 -2.62885890 2.00000000
v 3.31302315 -3.44001283 2.00000000
v 4.02669070 -2.56813026 2.00000000
v -2.67846529 -1.78483771 2.00000000
v -0.02437488 2.06959150 2.00000000
v -4.14687748 5.43563475 2.00000000
v -4.90392640 5.97545161 2.00000000
v -1.10489555 8.34279200 2.00000000
v 4.11703373 1.52869465 2.00000000
v 4.11055298 0.46296207 2.00000000
v -1.21371348 9.09231105 2.00000000
v 1.17379037 8.40870428 2.00000000
v 1.85483979 7.98529935 2.00000000
v 1.94548747 8.63975106 2.00000000
v 0.56297552 -2.34505659 2.00000000
v -3.18600009 6.38909328 2.00000000
v -2.83850640 7.01640355 2.00000000
v -3.65417571 7.00392660 2.00000000
v 4.17923821 -3.54318159 2.00000000
v 1.37539116 -2.48572481 2.00000000
v 3.53794875 4.92229309 2.00000000
v -3.60275398 2.05800119 2.00000000
v -1.18021584 2.31179595 2.00000000
v -1.72745751 2.62235871 2.00000000
v -1.55576442 1.97382554 2.00000000
v -2.95326780 -1.07788230 2.00000000
v -3.67511497 -1.00322100 2.00000000
v -2.43787267 2.43833565 2.00000000
v -2.99073160 1.84113130 2.00000000
v -2.41398458 1.72291689 2.00000000
v -2.21636679 3.04358662 2.00000000
v -3.96564767 6.22965752 2.00000000
v 0.78694056 0.35405972 2.00000000
v 1.12713303 -0.27833163 2.00000000
v 2.81112167 4.04240193 2.00000000
v -3.09993063 2.42042778 2.00000000
v 2.63219491 8.26272182 2.00000000
v 2.44946168 7.55432775 2.00000000
v 3.48789637 -1.96650165 2.00000000
v 2.91013045 7.00271730 2.00000000
v 3.23715044 7.70565229 2.00000000
v -4.15609471 -3.49581077 2.00000000
v -3.45190569 -4.07707859 2.00000000
v 2.93617761 4.66034637 2.00000000
v -0.60850601 2.14616517 2.00000000
v -1.01499945 1.75965307 2.00000000
v -0.40587762 1.61810671 2.00000000
v 3.50809217 0.97300573 2.00000000
v 4.03130171 6.21159238 2.00000000
v 4.19097041 5.37328091 2.00000000
v 4.90392640 5.97545161 2.00000000
v -2.49032128 -4.20682289 2.00000000
v -1.53726947 -4.27258278 2.00000000
v -2.01445707 -3.48253886 2.00000000
v 1.22432022 7.68344292 2.00000000
v 0.62597309 7.87829394 2.00000000
v 3.46696095 5.67047615 2.00000000
v 2.21592396 6.95425678 2.00000000
v 1.77865383 7.37939709 2.00000000
v 2.81920542 5.88407359 2.00000000
v 2.59268757 6.45031275 2.00000000
v 2.95851486 5.27049501 2.00000000
v -0.36756021 -0.09703860 2.00000000
v -0.85459610 -0.66328826 2.00000000
v 3.26382457 6.36112190 2.00000000
v -4.18013033 3.38507380 2.00000000
v -3.20394272 7.68451202 2.00000000
v -1.18073459 -3.49487583 2.00000000
v -0.97545161 9.90392640 2.00000000
v 0.00000000 10.00000000 2.00000000
v -2.77785117 9.15734806 2.00000000
v -1.91341716 9.61939766 2.00000000
v 1.91341716 9.61939766 2.00000000
v 2.77785117 9.15734806 2.00000000
v -4.15734806 7.77785117 2.00000000
v -3.53553391 8.53553391 2.00000000
v 3.53553391 8.53553391 2.00000000
v 4.15734806 7.77785117 2.00000000
v -4.61939766 6.91341716 2.00000000
v 4.61939766 6.91341716 2.00000000
v 1.44560023 9.11828895 2.00000000
v 3.53635627 -4.23823201 2.00000000
v -1.90493208 0.26787902 2.00000000
v -2.10393617 1.06033825 2.00000000
v 3.70173449 6.99063229 2.00000000
v -0.62755061 -4.25140174 2.00000000
v -4.25243004 -1.49175887 2.00000000
v -4.17097549 -0.44599684 2.00000000
v -2.82184514 -3.52186726 2.00000000
v -2.68500055 0.42900146 2.00000000
v -2.94112424 4.71062682 2.00000000
v -3.45078411 4.39119449 2.00000000
v -2.85128062 4.12526595 2.00000000
v 4.20673037 -0.55284704 2.00000000
v 4.17048286 -1.49344300 2.00000000
v 2.39706879 0.30389761 2.00000000
v 3.19980862 0.32486047 2.00000000
v 3.52215641 -0.29069092 2.00000000
v 2.83100930 0.96015371 2.00000000
v -3.38117057 5.71710280 2.00000000
v -1.62032590 -0.50394343 2.00000000
v -2.43117327 -0.34245565 2.00000000
v 1.94146598 -0.34400317 2.00000000
v -4.17349919 -2.50079265 2.00000000
v 0.82857673 9.07156326 2.00000000
v -0.16811957 1.04713818 2.00000000
v 1.17553193 1.83451141 2.00000000
v 3.28205621 1.58835777 2.00000000
v -2.86279479 1.16585389 2.00000000
v -2.00905076 2.13645342 2.00000000
v 1.19105867 2.31595380 2.00000000
v -1.46528670 1.37723116 2.00000000
v -1.34790344 -1.27228946 2.00000000
v -2.16395502 -1.13121703 2.00000000
v 0.47198395 0.96137655 2.00000000
v 2.21761544 -2.58158188 2.00000000
v -3.82939960 0.07552470 2.00000000
v 1.81813919 -1.77219152 2.00000000
v 0.66938031 -0.89278303 2.00000000
v 0.35984655 -0.20709993 2.00000000
v -0.76710063 -2.82356174 2.00000000
v -0.25047086 -2.17998244 2.00000000
v 1.45952765 -0.99610281 2.00000000
v -3.27350114 -0.20799823 2.00000000
v -2.92282652 5.30720145 2.00000000
v -3.46963346 5.03441180 2.00000000
v -1.07220965 -2.05409453 2.00000000
v -1.62845586 -2.71451058 2.00000000
v -0.56454410 -1.40792367 2.00000000
v -2.54518480 6.46946313 2.00000000
v -1.72745751 7.37764129 2.00000000
v -0.61103713 7.87470367 2.00000000
v 0.97718211 -1.65677834 2.00000000
v 0.08020172 0.43604744 2.00000000
v 0.00000000 7.93892626 2.00000000
v -2.79508497 5.90817816 2.00000000
v -2.18404784 6.96652551 2.00000000
v 0.97545161 9.90392640 2.00000000
v -1.19536900 7.68484274 2.00000000
v -0.08503064 -0.79415490 2.00000000
v -1.94042772 1.55638850 2.00000000
v -1.89272914 -1.92637487 2.00000000
v -4.26794919 -4.26794919 2.00000000
v 0.20983145 -1.52706351 2.00000000
v 4.26794919 -4.26794919 2.00000000
v -0.79565280 8.74325878 2.00000000
v 4.61939766 6.91341716 -2.00000000
v 4.76016298 6.52998314 -1.06825739
v 4.90392640 5.97545161 -2.00000000
v -4.90392640 5.97545161 -2.00000000
v -4.76012475 6.53010207 -1.06835774
v -4.61939766 6.91341716 -2.00000000
v -2.42036248 9.37513948 -0.55781018
v -3.11740757 8.90919046 -1.32612835
v -3.19160797 8.84884899 -0.48495632
v -2.35698368 9.40960632 -1.35605129
v 4.94668352 5.72823223 -1.26459378
v -4.94668352 5.72823223 -1.26459378
v -4.93134973 5.82570567 0.49110599
v -4.74242325 6.58411543 1.12466076
v -4.75107857 6.55796421 -0.00157280
v 4.75111194 6.55786243 -0.00194366
v 4.74127466 6.58754987 1.12335436
v 4.93140931 5.82534974 0.48835522
v -3.85606964 8.18288029 -1.17493605
v -3.89024409 8.14101909 -0.32753221
v 3.17196642 8.86505227 -0.54597834
v 3.89036639 8.14086761 -0.32746665
v 3.85626659 8.18264167 -1.17484190
v -4.47818334 7.22393209 0.46133746
v 4.50284030 7.17357522 0.47390210
v -1.45142339 9.78470168 -0.34097235
v -1.45142339 9.78470168 -1.15148818
v 1.45142339 9.78470168 -0.54553547
v 1.45142339 9.78470168 -1.35605129
v 0.49008570 9.97592363 -1.15148818
v 0.49008570 9.97592363 -0.34097235
v 2.35698368 9.40960632 -0.34097235
v 2.35698368 9.40960632 -1.15148818
v -0.49008570 9.97592363 -0.54553547
v -0.49008570 9.97592363 -1.35605129
v 3.17196642 8.86505227 -1.35629813
v -4.92778799 5.84670272 -0.47605548
v 4.92786750 5.84623987 -0.47641942
v -4.34226987 7.47884901 -0.44740228
v 4.34210321 7.47914093 -0.44723933
v -2.35723386 9.40947259 1.15206432
v -3.17196680 8.86505196 1.15137110
v -1.45142339 9.78470168 1.15148818
v -0.97957067 9.90310527 0.31771450
v -1.91699013 9.61791607 0.31159642
v -0.49008570 9.97592363 1.15148818
v 0.00265818 9.99999929 0.31979746
v 0.49015961 9.97591635 1.15258133
v 0.97437980 9.90413948 0.32056889
v 1.45142339 9.78470168 1.15148818
v 1.91720582 9.61782653 0.32076764
v 2.35716435 9.40950975 1.15268641
v 2.77747592 9.15759877 0.32087442
v 3.17196642 8.86505227 1.15148818
v -4.38947497 7.39426596 1.18212686
v -3.85367676 8.18577706 1.16538029
v -1.91341716 9.61939766 -2.00000000
v -0.97545161 9.90392640 -2.00000000
v -2.77785117 9.15734806 0.30297635
v -3.53031544 8.54074468 0.33391442
v -0.00000000 10.00000000 -2.00000000
v 0.97545161 9.90392640 -2.00000000
v 1.91341716 9.61939766 -2.00000000
v 2.77785117 9.15734806 -2.00000000
v 4.38982672 7.39362097 1.18166248
v 3.53553391 8.53553391 -2.00000000
v 4.15734806 7.77785117 -2.00000000
v -4.15734806 7.77785117 -2.00000000
v -3.53553391 8.53553391 -2.00000000
v 3.53240972 8.53865534 0.33986484
v 3.85910303 8.17920175 1.15956788
v 4.39349660 7.38687822 -1.31299751
v -4.39361299 7.38666397 -1.31343536
v -4.10594901 7.85327579 0.38054959
v 4.10683366 7.85200233 0.38117329
v 4.94483723 5.74066508 1.26214936
v -4.94668352 5.72823223 1.26459378
v -2.77785117 9.15734806 -2.00000000
v -0.62967151 1.07090378 -2.00000000
v -0.95816883 1.68418692 -2.00000000
v -0.30462636 1.59649631 -2.00000000
v 4.04088658 -0.52233134 -2.00000000
v 3.33526433 -1.29842490 -2.00000000
v 2.91503894 -0.58991856 -2.00000000
v -4.09140032 -0.50901381 -2.00000000
v -3.46820083 0.21671210 -2.00000000
v -3.02840393 -0.57500557 -2.00000000
v 3.44282912 0.02892314 -2.00000000
v -1.32046420 1.15522859 -2.00000000
v -1.66349748 1.87284050 -2.00000000
v -3.43310501 -1.35734481 -2.00000000
v 0.40079380 9.12356198 -2.00000000
v 0.40022553 8.43301934 -2.00000000
v -0.28398526 8.57575878 -2.00000000
v -2.28406249 2.44843906 -2.00000000
v -1.69805097 2.59423797 -2.00000000
v 3.49184352 2.95987231 -2.00000000
v 3.57799476 1.95734829 -2.00000000
v 2.92016366 2.25195803 -2.00000000
v 4.13052068 -1.51070502 -2.00000000
v 4.19724246 -2.41168090 -2.00000000
v 3.20685458 -2.07968759 -2.00000000
v -2.80875004 4.00168577 -2.00000000
v -3.18607109 3.33213240 -2.00000000
v -3.34799068 4.19638363 -2.00000000
v 2.36757929 7.55460103 -2.00000000
v 1.78933171 7.99352849 -2.00000000
v 2.58624481 8.27609147 -2.00000000
v -0.56597528 2.10687827 -2.00000000
v -4.12202375 4.42257515 -2.00000000
v -4.32617086 3.62200024 -2.00000000
v -1.98224188 1.24867915 -2.00000000
v -2.54850429 3.44156688 -2.00000000
v -4.15035516 5.39238579 -2.00000000
v 3.17157930 0.73804430 -2.00000000
v 2.49601105 0.15940585 -2.00000000
v 2.76315859 2.92441679 -2.00000000
v 2.53172804 3.52737021 -2.00000000
v 3.10351841 3.59844359 -2.00000000
v -1.15326333 2.27548226 -2.00000000
v 4.15990666 2.50117769 -2.00000000
v 4.24004602 3.44744187 -2.00000000
v -0.23651692 9.35479061 -2.00000000
v -4.21645587 0.64286176 -2.00000000
v -2.41143738 1.83950069 -2.00000000
v 1.90664862 8.73518453 -2.00000000
v -1.14464531 -0.70980621 -2.00000000
v -0.33967121 -0.75388631 -2.00000000
v -0.79162600 -1.42559164 -2.00000000
v -3.70410741 3.68503449 -2.00000000
v 4.16672254 5.33817385 -2.00000000
v 3.40027124 5.70218605 -2.00000000
v 3.99367197 6.20781893 -2.00000000
v 1.10489555 8.34279200 -2.00000000
v -2.16465600 2.99159156 -2.00000000
v 1.21371348 9.09231105 -2.00000000
v -1.17379037 8.40870428 -2.00000000
v -1.85466526 7.98507886 -2.00000000
v -1.94548747 8.63975106 -2.00000000
v -0.67538725 -0.09202262 -2.00000000
v 1.22773521 1.78250369 -2.00000000
v 0.61103713 2.12529633 -2.00000000
v 1.20424470 2.32007036 -2.00000000
v 3.18933632 6.38649345 -2.00000000
v 2.84152376 7.01372448 -2.00000000
v 3.67618530 6.98402223 -2.00000000
v -3.48143296 1.16869336 -2.00000000
v 3.46903816 4.97550869 -2.00000000
v 2.46221128 1.02650391 -2.00000000
v 4.08617509 0.57584510 -2.00000000
v 4.23984704 1.53999667 -2.00000000
v 3.54443288 -2.91329549 -2.00000000
v -2.64966775 0.08531564 -2.00000000
v -4.28672522 -1.50000000 -2.00000000
v -2.63033305 8.26040504 -2.00000000
v -2.44845004 7.55301438 -2.00000000
v -2.06795184 -0.59448039 -2.00000000
v -2.89557650 7.00431434 -2.00000000
v -3.22699090 7.69306499 -2.00000000
v -2.94332287 4.64585803 -2.00000000
v -3.48576569 5.00678863 -2.00000000
v -2.21389856 6.95569232 -2.00000000
v -1.22432022 7.68344292 -2.00000000
v -0.62597309 7.87829394 -2.00000000
v -1.77865383 7.37939709 -2.00000000
v -2.93110065 5.29427997 -2.00000000
v 3.20394272 7.68451202 -2.00000000
v 4.12236505 4.42000232 -2.00000000
v 0.81521229 -0.08016680 -2.00000000
v 1.60575895 -0.01537886 -2.00000000
v 1.24448731 -0.71427362 -2.00000000
v 2.18404784 3.03347449 -2.00000000
v 3.37738306 4.28211507 -2.00000000
v 1.10757249 0.54856562 -2.00000000
v -2.94665643 0.69348115 -2.00000000
v 0.76055246 1.65712876 -2.00000000
v -3.97522794 6.23612799 -2.00000000
v 1.81251480 1.38581702 -2.00000000
v 1.76522977 2.03785946 -2.00000000
v 2.37146944 1.76118416 -2.00000000
v -1.44560023 9.11828895 -2.00000000
v -3.68516623 6.99519310 -2.00000000
v 2.27874644 2.41688841 -2.00000000
v -0.99924066 0.53479161 -2.00000000
v -1.69088263 0.59809785 -2.00000000
v -4.22342947 1.52542129 -2.00000000
v 4.13407711 -3.47914315 -2.00000000
v 0.02041942 2.06044118 -2.00000000
v 0.29326112 1.60004787 -2.00000000
v 1.21907407 1.20055320 -2.00000000
v 1.78495517 0.70655882 -2.00000000
v 0.48663555 -3.66953970 -2.00000000
v 0.50000000 -4.42865517 -2.00000000
v -0.40193113 -4.18813077 -2.00000000
v 1.42754690 -4.17066397 -2.00000000
v -3.43362739 -2.99960717 -2.00000000
v -2.86587697 -3.55670003 -2.00000000
v -3.47808366 -4.07512369 -2.00000000
v -4.20643134 -3.49001506 -2.00000000
v -3.96806494 3.03516814 -2.00000000
v 3.61707765 1.23349645 -2.00000000
v -2.01780225 0.07714553 -2.00000000
v -3.22453324 6.37326687 -2.00000000
v -3.41518719 5.71337134 -2.00000000
v -1.43001267 -0.04180328 -2.00000000
v 1.72234149 2.63156787 -2.00000000
v -2.48474926 -4.21256880 -2.00000000
v -1.47771877 -4.26656182 -2.00000000
v 2.07108003 -0.65480750 -2.00000000
v -4.21124974 2.32455855 -2.00000000
v 0.04828527 -1.43677886 -2.00000000
v -1.65934365 -1.40741017 -2.00000000
v -3.38377853 2.52809256 -2.00000000
v -2.80363124 2.34508477 -2.00000000
v -3.07266210 1.88860582 -2.00000000
v 3.51671430 -4.23685040 -2.00000000
v 3.06453193 -3.54349111 -2.00000000
v -2.54043863 -1.38721781 -2.00000000
v -0.82857673 9.07156326 -2.00000000
v 3.66616089 3.80359892 -2.00000000
v 1.30820747 -3.42428511 -2.00000000
v -0.32246291 -3.44728063 -2.00000000
v 2.50600807 -4.25292134 -2.00000000
v -4.25401733 -2.49981618 -2.00000000
v -0.38761331 -2.15337013 -2.00000000
v 0.63394436 1.08833454 -2.00000000
v 2.03732268 -3.57280991 -2.00000000
v 2.61854971 -2.86187425 -2.00000000
v -1.23595311 -2.15110600 -2.00000000
v -3.67451056 1.88707432 -2.00000000
v 0.39591530 0.49992671 -2.00000000
v -2.10925074 -2.15559031 -2.00000000
v 0.85226153 -1.42634000 -2.00000000
v 0.45097991 -0.74832198 -2.00000000
v 2.51448465 -1.36836291 -2.00000000
v 0.45592806 -2.15278076 -2.00000000
v 1.67294086 -1.40634213 -2.00000000
v 2.79083638 4.09328826 -2.00000000
v 2.11401057 -2.15317976 -2.00000000
v 0.88905009 -2.86475310 -2.00000000
v 0.05481519 -2.87097740 -2.00000000
v 2.54518480 6.46946313 -2.00000000
v -1.61914171 -2.88789889 -2.00000000
v 2.92282652 5.30720145 -2.00000000
v 1.72745751 7.37764129 -2.00000000
v 0.61103713 7.87470367 -2.00000000
v -2.95014962 -2.13243327 -2.00000000
v -2.51713159 -2.89133645 -2.00000000
v 3.01973736 1.49010794 -2.00000000
v -0.00000000 7.93892626 -2.00000000
v 2.79508497 5.90817816 -2.00000000
v -2.79508497 5.90817816 -2.00000000
v 2.18404784 6.96652551 -2.00000000
v 1.19536900 7.68484274 -2.00000000
v 2.91990949 4.69316506 -2.00000000
v -0.99625851 -3.59938199 -2.00000000
v -1.98337371 -3.59928934 -2.00000000
v -2.68757727 1.25232261 -2.00000000
v -0.75144649 -2.85603103 -2.00000000
v 0.03353240 1.05548811 -2.00000000
v 1.27042264 -2.12128840 -2.00000000
v 1.70048214 -2.84365888 -2.00000000
v 0.07436613 -0.11079651 -2.00000000
v -0.27793041 0.48802214 -2.00000000
v -2.57442005 6.45565439 -2.00000000
v -3.67152491 -2.09784029 -2.00000000
v -4.26581334 -4.26581334 -2.00000000
v 4.27475777 -4.27475777 -2.00000000
v -2.75170746 2.87228275 -2.00000000
v 0.79565280 8.74325878 -2.00000000
v -2.32649905 0.64841608 -2.00000000
f 1 2 3
f 4 5 1
f 6 7 8
f 9 10 11
f 12 13 10
f 5 4 14
f 2 1 15
f 2 16 3
f 6 8 17
f 18 19 20
f 19 21 20
f 22 23 24
f 23 22 25
f 26 27 28
f 27 26 29
f 9 11 30
f 13 12 26
f 19 31 32
f 31 19 18
f 33 34 35
f 36 33 35
f 27 36 28
f 36 27 33
f 37 38 14
f 39 37 14
f 40 23 41
f 23 40 24
f 12 10 42
f 43 5 14
f 1 5 15
f 10 9 42
f 22 44 25
f 44 22 45
f 46 47 48
f 39 31 37
f 21 49 20
f 31 39 32
f 50 51 47
f 50 47 46
f 11 52 30
f 51 50 53
f 54 46 48
f 49 21 55
f 56 57 53
f 58 59 60
f 61 62 53
f 50 56 53
f 62 61 58
f 63 1 3
f 30 52 64
f 62 58 60
f 65 66 67
f 68 69 64
f 52 11 70
f 71 72 73
f 74 75 76
f 57 61 53
f 59 58 66
f 66 58 67
f 69 77 64
f 78 63 3
f 62 51 53
f 52 68 64
f 72 76 73
f 79 80 70
f 66 65 71
f 74 76 72
f 65 72 71
f 81 69 68
f 30 64 8
f 82 83 84
f 81 85 69
f 75 82 76
f 80 86 70
f 87 88 89
f 11 79 70
f 13 79 10
f 64 77 8
f 83 82 90
f 47 91 16
f 63 4 1
f 78 92 63
f 41 93 35
f 94 79 13
f 95 92 78
f 96 97 77
f 96 77 69
f 94 80 79
f 98 52 70
f 99 100 38
f 101 102 19
f 86 98 70
f 103 78 91
f 104 102 101
f 88 44 89
f 98 68 52
f 91 78 3
f 102 87 89
f 95 104 92
f 105 56 50
f 63 106 4
f 81 107 90
f 16 91 3
f 10 79 11
f 108 109 27
f 51 91 47
f 110 85 81
f 107 83 90
f 93 80 94
f 111 86 80
f 95 78 103
f 81 68 107
f 85 96 69
f 82 112 90
f 82 84 76
f 113 104 95
f 59 66 114
f 111 80 93
f 115 74 72
f 63 92 106
f 113 87 104
f 34 116 40
f 107 68 98
f 92 104 101
f 110 81 90
f 117 87 113
f 117 113 59
f 104 87 102
f 118 119 22
f 103 91 51
f 120 121 116
f 121 118 116
f 34 120 116
f 121 122 118
f 123 115 65
f 75 112 82
f 118 122 119
f 57 124 61
f 125 126 31
f 127 128 49
f 127 49 119
f 122 127 119
f 129 120 34
f 21 102 89
f 117 59 114
f 88 130 44
f 117 88 87
f 19 102 21
f 131 132 133
f 133 132 114
f 95 103 60
f 132 88 117
f 132 117 114
f 132 130 88
f 65 115 72
f 103 62 60
f 131 130 132
f 134 135 23
f 84 83 136
f 131 134 130
f 137 134 131
f 93 94 36
f 138 135 137
f 112 110 90
f 4 106 39
f 137 135 134
f 59 113 60
f 138 86 111
f 138 111 135
f 58 61 67
f 139 98 86
f 114 66 71
f 133 114 71
f 139 86 138
f 139 138 136
f 107 98 139
f 113 95 60
f 83 139 136
f 140 141 9
f 107 139 83
f 138 137 136
f 131 133 142
f 143 144 2
f 106 92 101
f 133 71 73
f 103 51 62
f 84 136 142
f 61 124 67
f 123 65 67
f 145 146 5
f 136 137 142
f 147 148 54
f 149 150 12
f 137 131 142
f 124 123 67
f 142 133 73
f 76 84 73
f 13 26 28
f 84 142 73
f 151 105 46
f 16 2 152
f 153 145 43
f 40 41 35
f 29 26 154
f 26 12 154
f 97 155 17
f 155 6 17
f 27 109 33
f 108 27 29
f 105 50 46
f 36 94 28
f 99 38 37
f 129 34 33
f 2 144 152
f 147 54 152
f 40 116 24
f 23 135 41
f 118 22 24
f 31 126 37
f 111 93 41
f 143 2 15
f 44 130 25
f 101 19 32
f 145 5 43
f 5 146 15
f 22 119 45
f 134 23 25
f 125 31 18
f 49 128 20
f 8 77 17
f 100 156 157
f 156 153 157
f 89 44 55
f 39 106 32
f 29 154 158
f 9 141 42
f 149 12 42
f 12 150 154
f 8 7 159
f 9 30 159
f 160 151 161
f 148 160 161
f 162 163 158
f 144 147 152
f 164 162 158
f 94 13 28
f 146 143 15
f 109 129 33
f 44 45 55
f 140 9 159
f 163 108 29
f 135 111 41
f 116 118 24
f 7 140 159
f 130 134 25
f 126 99 37
f 38 43 14
f 119 49 45
f 165 125 18
f 106 101 32
f 165 18 20
f 128 165 20
f 34 40 35
f 150 164 154
f 141 149 42
f 4 39 14
f 30 8 159
f 151 46 161
f 77 97 17
f 38 100 157
f 46 54 161
f 93 36 35
f 47 16 48
f 153 43 157
f 54 148 161
f 21 89 55
f 152 54 48
f 43 38 157
f 45 49 55
f 163 29 158
f 16 152 48
f 154 164 158
f 166 167 168
f 169 170 166
f 170 169 171
f 172 173 174
f 173 175 174
f 176 177 178
f 167 166 179
f 167 180 168
f 181 182 183
f 182 181 184
f 173 185 186
f 185 173 172
f 187 188 189
f 190 191 171
f 192 187 189
f 182 193 183
f 177 176 194
f 195 190 171
f 193 182 196
f 177 197 178
f 181 198 184
f 198 181 199
f 195 185 190
f 192 200 187
f 200 192 201
f 166 170 179
f 175 202 174
f 185 195 186
f 203 170 171
f 204 205 206
f 207 206 208
f 204 206 207
f 202 175 209
f 205 204 210
f 211 212 210
f 213 207 208
f 214 215 216
f 204 211 210
f 217 218 210
f 218 217 214
f 219 166 168
f 218 214 216
f 212 217 210
f 220 221 222
f 223 224 225
f 215 214 221
f 221 214 222
f 225 224 176
f 226 225 176
f 199 227 189
f 228 229 230
f 231 219 168
f 221 220 232
f 224 233 234
f 235 236 237
f 220 230 232
f 238 223 225
f 218 205 210
f 239 240 241
f 236 235 242
f 243 235 237
f 244 243 237
f 206 245 180
f 220 228 230
f 219 169 166
f 231 246 219
f 247 248 233
f 229 236 230
f 249 226 250
f 249 251 226
f 233 248 234
f 252 246 231
f 253 254 173
f 255 256 257
f 258 259 191
f 248 257 234
f 223 233 224
f 260 231 245
f 261 254 253
f 240 200 241
f 247 262 248
f 263 177 194
f 245 231 168
f 255 257 248
f 264 243 244
f 252 261 246
f 254 239 241
f 265 211 204
f 266 267 193
f 251 238 225
f 219 268 169
f 247 264 244
f 180 245 168
f 269 238 251
f 270 251 249
f 205 245 206
f 226 251 225
f 271 242 272
f 247 233 264
f 252 231 260
f 215 221 273
f 264 233 223
f 269 251 270
f 274 261 252
f 242 235 272
f 219 246 268
f 188 275 276
f 274 239 261
f 262 255 248
f 277 278 244
f 275 269 276
f 278 247 244
f 214 217 222
f 236 279 237
f 277 244 237
f 246 261 253
f 280 239 274
f 280 274 215
f 261 239 254
f 227 281 192
f 269 270 276
f 280 215 273
f 260 245 205
f 279 277 237
f 282 283 227
f 284 228 220
f 283 285 281
f 285 202 281
f 227 283 281
f 278 262 247
f 286 287 181
f 212 288 217
f 285 289 202
f 290 291 185
f 229 279 236
f 175 254 241
f 240 292 200
f 280 240 239
f 293 240 280
f 236 242 230
f 173 254 175
f 293 280 273
f 294 293 271
f 252 260 216
f 293 292 240
f 188 276 198
f 294 292 293
f 264 223 295
f 296 275 188
f 271 293 273
f 260 218 216
f 294 296 292
f 295 223 238
f 270 249 182
f 297 296 294
f 298 275 297
f 297 275 296
f 169 268 195
f 298 269 275
f 298 238 269
f 215 274 216
f 295 238 298
f 264 295 243
f 243 295 299
f 295 298 299
f 243 299 235
f 294 271 272
f 235 299 272
f 298 297 299
f 274 252 216
f 217 288 222
f 284 220 222
f 299 297 272
f 297 294 272
f 242 271 232
f 230 242 232
f 143 146 197
f 141 140 167
f 268 246 253
f 144 143 177
f 260 205 218
f 146 145 300
f 147 144 263
f 150 149 170
f 271 273 232
f 273 221 232
f 7 6 213
f 145 153 301
f 288 284 222
f 143 197 177
f 197 146 300
f 263 144 177
f 145 301 300
f 198 199 189
f 302 265 207
f 303 266 304
f 301 304 305
f 148 147 306
f 164 150 203
f 180 167 307
f 250 226 178
f 224 234 194
f 193 267 183
f 265 204 207
f 266 193 304
f 304 308 305
f 258 191 190
f 286 181 183
f 198 276 184
f 167 140 307
f 185 291 190
f 282 227 199
f 181 287 199
f 7 213 307
f 234 257 309
f 253 173 186
f 147 263 306
f 150 170 203
f 200 292 187
f 192 281 201
f 296 188 187
f 141 167 179
f 270 182 184
f 290 185 172
f 170 149 179
f 202 289 174
f 259 162 310
f 256 160 311
f 162 164 310
f 160 148 311
f 241 200 209
f 195 268 186
f 249 250 196
f 257 306 309
f 155 302 312
f 156 303 313
f 153 156 313
f 6 155 312
f 140 7 307
f 149 141 179
f 267 286 183
f 250 308 196
f 200 201 209
f 176 224 194
f 276 270 184
f 226 176 178
f 287 282 199
f 291 258 190
f 292 296 187
f 304 193 308
f 281 202 201
f 268 253 186
f 314 290 172
f 314 172 174
f 289 314 174
f 191 203 171
f 169 195 171
f 188 198 189
f 302 207 312
f 303 304 313
f 250 178 315
f 194 234 309
f 257 256 311
f 191 259 310
f 304 301 313
f 207 213 312
f 308 193 196
f 227 192 189
f 206 180 208
f 164 203 310
f 148 306 311
f 182 249 196
f 301 153 313
f 213 6 312
f 175 241 209
f 307 213 208
f 197 300 315
f 300 301 305
f 203 191 310
f 306 257 311
f 305 250 315
f 308 250 305
f 201 202 209
f 306 263 309
f 300 305 315
f 180 307 208
f 263 194 309
f 178 197 315
f 316 317 318
f 319 320 321
f 316 322 317
f 323 320 319
f 317 324 318
f 325 326 327
f 328 329 330
f 329 328 331
f 332 325 327
f 328 333 331
f 326 325 318
f 334 319 321
f 335 336 337
f 338 339 340
f 341 342 322
f 343 333 344
f 345 346 347
f 348 349 334
f 329 350 337
f 323 351 344
f 352 353 324
f 354 355 340
f 332 356 345
f 354 346 345
f 332 345 347
f 320 344 357
f 335 341 336
f 336 341 322
f 358 350 329
f 343 359 333
f 351 343 344
f 360 351 323
f 338 361 339
f 362 355 354
f 356 362 345
f 362 354 345
f 316 336 322
f 344 333 357
f 354 363 346
f 323 344 320
f 364 316 325
f 350 335 337
f 355 338 340
f 365 356 332
f 337 336 364
f 354 340 363
f 346 363 328
f 364 336 316
f 339 366 321
f 333 328 367
f 325 332 368
f 369 339 321
f 349 370 319
f 361 371 366
f 372 352 317
f 352 324 317
f 334 349 319
f 339 361 366
f 373 374 326
f 358 329 331
f 333 359 331
f 346 328 330
f 365 332 327
f 370 375 376
f 375 360 376
f 342 377 378
f 379 348 380
f 371 379 380
f 377 372 378
f 340 339 381
f 329 337 382
f 383 373 384
f 353 383 384
f 326 374 327
f 330 329 382
f 339 369 381
f 325 316 318
f 366 371 380
f 372 317 378
f 319 370 376
f 359 358 331
f 374 365 327
f 347 346 330
f 320 357 369
f 324 353 384
f 360 323 376
f 322 342 378
f 348 334 380
f 357 333 367
f 357 367 381
f 332 347 368
f 368 347 382
f 363 340 381
f 328 363 367
f 367 363 381
f 337 364 382
f 364 325 368
f 364 368 382
f 334 366 380
f 317 322 378
f 323 319 376
f 324 326 318
f 326 324 384
f 373 326 384
f 366 334 321
f 320 369 321
f 347 330 382
f 369 357 381
f 385 386 387
f 385 388 386
f 389 390 391
f 390 389 392
f 386 393 387
f 394 395 391
f 396 397 398
f 399 394 391
f 400 401 402
f 401 400 403
f 404 396 398
f 400 405 403
f 397 396 387
f 406 407 408
f 409 394 410
f 411 412 388
f 413 405 414
f 415 416 417
f 414 418 390
f 349 348 393
f 419 420 389
f 401 421 408
f 394 422 395
f 423 424 410
f 404 425 415
f 423 416 415
f 404 415 417
f 406 411 407
f 407 411 388
f 426 421 401
f 413 427 405
f 428 413 414
f 409 422 394
f 429 424 423
f 425 429 415
f 429 423 415
f 385 407 388
f 414 405 418
f 423 430 416
f 431 385 396
f 421 406 408
f 422 432 395
f 424 409 410
f 433 425 404
f 408 407 431
f 423 410 430
f 416 430 400
f 431 407 385
f 434 389 391
f 405 400 435
f 396 404 436
f 437 428 392
f 414 390 392
f 370 349 386
f 438 419 434
f 349 393 386
f 419 389 434
f 428 414 392
f 439 440 397
f 426 401 403
f 405 427 403
f 416 400 402
f 433 404 398
f 441 438 442
f 432 441 442
f 412 375 443
f 375 370 443
f 420 444 445
f 444 437 445
f 410 394 446
f 401 408 447
f 379 439 448
f 348 379 448
f 397 440 398
f 402 401 447
f 394 399 446
f 396 385 387
f 437 392 445
f 370 386 443
f 438 434 442
f 427 426 403
f 440 433 398
f 417 416 402
f 390 418 399
f 393 348 448
f 389 420 445
f 388 412 443
f 395 432 442
f 418 405 435
f 418 435 446
f 404 417 436
f 436 417 447
f 430 410 446
f 400 430 435
f 435 430 446
f 408 431 447
f 431 396 436
f 431 436 447
f 392 389 445
f 386 388 443
f 434 395 442
f 393 397 387
f 397 393 448
f 439 397 448
f 395 434 391
f 390 399 391
f 417 402 447
f 399 418 446
f 449 450 451
f 449 452 450
f 453 454 455
f 454 453 456
f 450 457 451
f 458 459 455
f 460 461 462
f 463 458 455
f 464 465 466
f 465 464 467
f 468 460 462
f 464 469 467
f 461 460 451
f 470 471 472
f 473 458 474
f 475 476 452
f 477 469 478
f 479 480 481
f 478 482 454
f 352 372 453
f 465 483 472
f 484 485 457
f 458 486 459
f 487 488 474
f 468 489 479
f 487 480 479
f 468 479 481
f 470 475 471
f 471 475 452
f 490 483 465
f 477 491 469
f 492 477 478
f 473 486 458
f 493 488 487
f 489 493 479
f 493 487 479
f 449 471 452
f 478 469 482
f 487 494 480
f 495 449 460
f 483 470 472
f 486 496 459
f 488 473 474
f 497 489 468
f 472 471 495
f 487 474 494
f 480 494 464
f 495 471 449
f 498 453 455
f 469 464 499
f 460 468 500
f 501 492 456
f 478 454 456
f 353 352 498
f 502 484 450
f 484 457 450
f 352 453 498
f 492 478 456
f 503 504 461
f 490 465 467
f 469 491 467
f 480 464 466
f 497 468 462
f 383 353 505
f 496 383 505
f 476 506 507
f 372 377 508
f 377 501 508
f 506 502 507
f 474 458 509
f 465 472 510
f 511 503 512
f 485 511 512
f 461 504 462
f 466 465 510
f 458 463 509
f 460 449 451
f 501 456 508
f 502 450 507
f 353 498 505
f 491 490 467
f 504 497 462
f 481 480 466
f 454 482 463
f 457 485 512
f 453 372 508
f 452 476 507
f 459 496 505
f 482 469 499
f 482 499 509
f 468 481 500
f 500 481 510
f 494 474 509
f 464 494 499
f 499 494 509
f 472 495 510
f 495 460 500
f 495 500 510
f 456 453 508
f 450 452 507
f 498 459 505
f 457 461 451
f 461 457 512
f 503 461 512
f 459 498 455
f 454 463 455
f 481 466 510
f 463 482 509
f 513 514 515
f 516 517 513
f 518 519 520
f 521 522 523
f 524 525 526
f 514 527 528
f 529 530 531
f 532 533 534
f 535 536 537
f 538 527 514
f 539 540 541
f 521 523 542
f 543 544 545
f 513 517 546
f 547 548 549
f 545 550 543
f 432 551 552
f 541 553 539
f 526 554 524
f 555 519 518
f 530 556 531
f 432 552 441
f 515 514 557
f 558 559 560
f 516 513 561
f 504 518 562
f 549 563 547
f 537 536 564
f 565 566 567
f 568 569 570
f 534 533 571
f 541 572 409
f 560 573 558
f 574 575 576
f 577 566 565
f 570 569 578
f 441 579 580
f 520 528 518
f 110 561 515
f 571 533 581
f 489 582 583
f 581 584 571
f 585 586 587
f 538 514 513
f 550 588 543
f 589 590 591
f 576 575 592
f 518 528 562
f 593 588 550
f 594 519 555
f 541 595 572
f 596 597 598
f 552 579 441
f 599 600 566
f 601 602 603
f 56 529 604
f 580 579 605
f 599 566 577
f 542 606 607
f 96 557 608
f 556 595 609
f 610 586 611
f 535 612 536
f 611 613 614
f 615 616 567
f 617 519 594
f 618 619 620
f 601 597 604
f 582 621 583
f 609 602 601
f 622 623 624
f 625 626 627
f 284 628 629
f 622 630 623
f 212 631 632
f 265 633 634
f 619 563 620
f 155 617 635
f 636 548 637
f 631 613 611
f 633 630 638
f 555 518 503
f 422 572 639
f 591 590 640
f 638 630 622
f 628 586 585
f 561 513 515
f 627 626 641
f 614 610 611
f 538 513 546
f 573 575 558
f 511 555 503
f 549 548 636
f 642 524 643
f 644 571 645
f 646 587 647
f 648 640 649
f 650 614 651
f 640 590 532
f 580 605 652
f 653 622 624
f 422 639 432
f 587 654 585
f 655 575 573
f 656 547 657
f 523 606 542
f 648 591 640
f 658 613 638
f 545 544 659
f 656 548 547
f 529 531 604
f 425 660 661
f 616 662 567
f 504 562 497
f 424 541 409
f 532 534 640
f 557 520 608
f 587 586 610
f 656 657 663
f 112 561 110
f 622 658 638
f 644 534 571
f 664 665 666
f 488 667 668
f 669 521 542
f 489 583 493
f 618 620 578
f 503 518 504
f 670 671 583
f 672 546 521
f 409 572 422
f 605 673 589
f 674 656 675
f 425 661 429
f 583 667 493
f 105 529 56
f 560 545 356
f 424 553 541
f 85 557 96
f 555 623 594
f 676 542 607
f 288 628 284
f 211 631 212
f 665 530 666
f 302 633 265
f 115 618 578
f 97 617 155
f 578 569 74
f 362 659 355
f 614 613 658
f 362 545 659
f 572 556 639
f 623 630 594
f 677 660 433
f 531 556 609
f 633 638 634
f 631 611 632
f 617 594 635
f 639 551 432
f 615 567 677
f 433 660 425
f 678 554 526
f 528 527 562
f 650 610 614
f 605 591 652
f 562 582 497
f 620 563 679
f 637 548 674
f 666 530 529
f 596 619 618
f 628 585 629
f 661 553 429
f 568 680 569
f 560 550 545
f 681 538 546
f 572 595 556
f 656 663 675
f 641 626 659
f 657 682 663
f 596 618 123
f 365 560 356
f 642 584 524
f 597 683 598
f 639 556 530
f 571 584 645
f 493 667 488
f 640 534 649
f 75 569 684
f 668 576 473
f 440 615 677
f 652 591 648
f 356 545 362
f 614 658 651
f 547 685 657
f 653 658 622
f 473 576 486
f 676 669 542
f 440 677 433
f 587 610 647
f 488 668 473
f 338 625 361
f 497 582 489
f 657 603 682
f 439 615 440
f 669 672 521
f 679 563 549
f 373 655 374
f 589 591 605
f 511 623 555
f 124 597 596
f 674 548 656
f 681 621 582
f 583 671 667
f 569 680 684
f 637 674 686
f 604 597 57
f 674 675 687
f 601 683 597
f 486 592 496
f 567 566 677
f 361 616 371
f 659 626 355
f 688 568 570
f 689 558 574
f 649 534 644
f 672 681 546
f 115 578 74
f 531 601 604
f 661 690 553
f 667 536 668
f 689 535 691
f 692 607 693
f 624 623 511
f 694 543 695
f 696 676 607
f 663 697 675
f 698 673 699
f 365 573 560
f 700 701 694
f 629 585 526
f 700 695 702
f 689 574 535
f 674 687 686
f 703 590 589
f 704 533 532
f 583 621 670
f 705 525 581
f 576 592 486
f 675 599 687
f 607 606 693
f 593 689 691
f 585 654 678
f 706 593 691
f 625 616 361
f 599 577 687
f 620 570 578
f 619 685 563
f 700 694 695
f 701 641 694
f 123 618 115
f 679 549 707
f 655 573 374
f 526 525 708
f 74 569 75
f 589 673 709
f 532 590 710
f 692 706 696
f 678 654 711
f 581 533 712
f 338 626 625
f 711 554 678
f 636 637 713
f 676 564 669
f 685 714 657
f 686 700 702
f 539 697 663
f 124 596 123
f 75 684 112
f 637 686 702
f 706 691 696
f 596 598 619
f 688 523 568
f 682 539 663
f 692 696 607
f 557 514 520
f 696 537 676
f 629 708 228
f 229 708 705
f 705 712 279
f 277 712 704
f 704 710 278
f 659 544 641
f 262 710 703
f 703 709 255
f 636 693 707
f 550 559 593
f 637 702 713
f 256 709 698
f 698 664 160
f 151 664 666
f 57 597 124
f 679 707 688
f 549 636 707
f 636 713 693
f 713 692 693
f 110 515 85
f 56 604 57
f 535 537 691
f 673 579 699
f 661 600 697
f 669 670 672
f 585 678 526
f 620 679 570
f 675 697 599
f 700 715 701
f 371 716 379
f 379 716 439
f 695 717 702
f 383 718 373
f 496 718 383
f 603 683 601
f 691 537 696
f 712 533 704
f 710 590 703
f 708 525 705
f 709 673 698
f 698 699 664
f 687 715 686
f 576 612 574
f 629 526 708
f 703 589 709
f 679 688 570
f 536 612 668
f 704 532 710
f 686 715 700
f 676 537 564
f 705 581 712
f 715 565 701
f 647 610 650
f 577 715 687
f 646 654 587
f 645 584 642
f 651 658 653
f 577 565 715
f 684 561 112
f 524 554 643
f 229 705 279
f 284 629 228
f 277 704 278
f 212 632 288
f 695 588 717
f 265 634 211
f 262 703 255
f 605 579 673
f 256 698 160
f 155 635 302
f 96 608 97
f 151 666 105
f 582 527 681
f 692 717 706
f 717 588 706
f 702 717 713
f 530 551 639
f 593 559 689
f 564 670 669
f 713 717 692
f 228 708 229
f 279 712 277
f 278 710 262
f 255 709 256
f 160 664 151
f 665 551 530
f 531 609 601
f 581 719 584
f 684 516 561
f 520 519 608
f 515 557 85
f 660 600 661
f 711 654 646
f 699 665 664
f 566 600 660
f 643 554 711
f 563 685 547
f 693 606 707
f 560 559 550
f 546 517 521
f 666 529 105
f 429 553 424
f 707 606 688
f 632 628 288
f 634 631 211
f 562 527 582
f 635 633 302
f 543 588 695
f 608 617 97
f 608 519 617
f 641 544 694
f 688 606 523
f 567 662 565
f 677 566 660
f 706 588 593
f 523 522 568
f 697 600 599
f 374 573 365
f 603 714 683
f 683 714 598
f 611 586 632
f 632 586 628
f 638 613 634
f 634 613 631
f 514 528 520
f 701 627 641
f 594 630 635
f 635 630 633
f 682 540 539
f 699 552 665
f 565 662 627
f 670 621 672
f 699 579 552
f 697 690 661
f 668 612 576
f 689 559 558
f 355 626 338
f 521 517 522
f 701 565 627
f 595 602 609
f 584 719 524
f 592 718 496
f 616 716 371
f 574 612 535
f 672 621 681
f 657 714 603
f 439 716 615
f 373 718 655
f 592 575 655
f 625 662 616
f 681 527 538
f 615 716 616
f 655 718 592
f 598 685 619
f 522 517 516
f 558 575 574
f 536 671 564
f 595 540 602
f 525 719 581
f 603 602 682
f 694 544 543
f 684 680 516
f 516 680 522
f 564 671 670
f 522 680 568
f 553 690 539
f 539 690 697
f 667 671 536
f 552 551 665
f 541 540 595
f 524 719 525
f 602 540 682
f 627 662 625
f 598 714 685
f 720 721 722
f 723 724 725
f 726 727 728
f 729 727 726
f 721 730 722
f 723 731 724
f 732 733 734
f 735 736 737
f 738 739 728
f 740 741 742
f 733 743 734
f 735 744 736
f 726 745 746
f 746 729 726
f 728 727 738
f 747 748 749
f 749 750 747
f 747 751 752
f 752 748 747
f 753 750 749
f 749 754 753
f 746 745 753
f 753 754 746
f 752 751 740
f 740 755 752
f 742 755 740
f 732 734 756
f 419 732 756
f 757 735 737
f 734 724 756
f 757 721 735
f 734 758 724
f 721 759 735
f 757 737 484
f 419 756 420
f 502 757 484
f 438 732 419
f 484 737 485
f 645 760 644
f 644 760 761
f 762 760 645
f 762 763 764
f 765 766 763
f 765 763 762
f 767 768 766
f 765 767 766
f 769 770 768
f 766 753 763
f 769 768 767
f 769 771 770
f 771 772 770
f 770 747 768
f 773 772 771
f 646 771 769
f 648 774 652
f 648 775 774
f 776 746 777
f 778 728 779
f 780 749 781
f 643 767 765
f 782 752 783
f 761 778 779
f 761 775 649
f 653 784 651
f 643 765 642
f 785 742 786
f 761 779 775
f 646 769 711
f 644 761 649
f 649 775 648
f 650 773 647
f 787 738 788
f 647 771 646
f 773 771 647
f 711 767 643
f 769 767 711
f 765 762 642
f 642 762 645
f 778 764 726
f 778 726 728
f 789 740 772
f 764 760 762
f 761 760 778
f 650 790 773
f 651 790 650
f 784 790 651
f 778 760 764
f 773 789 772
f 773 790 789
f 759 791 742
f 738 792 758
f 624 736 653
f 652 733 580
f 779 793 775
f 790 794 789
f 728 739 779
f 789 741 740
f 485 795 511
f 653 736 784
f 774 733 652
f 511 795 624
f 775 793 774
f 784 794 790
f 420 731 444
f 506 730 502
f 441 796 438
f 722 730 506
f 444 731 723
f 580 796 441
f 742 741 759
f 758 739 738
f 724 731 756
f 757 730 721
f 740 751 772
f 764 745 726
f 776 729 746
f 766 750 753
f 753 745 763
f 770 751 747
f 747 750 768
f 738 727 788
f 782 748 752
f 749 748 781
f 780 754 749
f 746 754 777
f 785 755 742
f 752 755 783
f 734 743 758
f 787 792 738
f 742 791 786
f 759 744 735
f 720 791 721
f 724 792 725
f 758 743 793
f 794 744 759
f 736 744 784
f 774 743 733
f 786 791 720
f 725 792 787
f 721 791 759
f 758 792 724
f 779 739 793
f 794 741 789
f 797 729 776
f 797 727 729
f 763 745 764
f 768 750 766
f 772 751 770
f 788 727 797
f 781 748 782
f 777 754 780
f 783 755 785
f 737 795 485
f 756 731 420
f 502 730 757
f 438 796 732
f 733 796 580
f 793 739 758
f 759 741 794
f 624 795 736
f 732 796 733
f 736 795 737
f 793 743 774
f 784 744 794
f 798 799 800
f 801 802 803
f 804 805 806
f 803 807 801
f 799 808 809
f 806 810 804
f 811 812 813
f 809 814 815
f 816 817 818
f 819 820 821
f 822 823 824
f 825 826 827
f 800 799 828
f 437 829 830
f 808 831 809
f 832 823 822
f 444 833 829
f 821 802 819
f 834 807 835
f 836 816 818
f 837 838 836
f 128 828 839
f 798 808 799
f 840 816 841
f 813 842 811
f 804 843 805
f 844 814 809
f 444 829 437
f 840 841 475
f 827 826 845
f 426 843 804
f 846 847 848
f 829 849 830
f 850 851 852
f 828 799 839
f 845 826 853
f 125 815 854
f 853 855 845
f 835 807 803
f 856 857 858
f 859 847 846
f 860 861 862
f 863 864 865
f 843 866 805
f 867 851 850
f 722 850 852
f 868 834 835
f 869 870 483
f 821 820 871
f 824 849 829
f 805 872 806
f 838 816 836
f 810 873 804
f 819 802 801
f 840 817 816
f 99 832 822
f 874 857 875
f 806 872 876
f 875 877 878
f 879 824 880
f 723 833 444
f 881 877 875
f 282 882 883
f 286 881 884
f 156 879 885
f 865 864 886
f 476 841 887
f 888 889 890
f 882 857 856
f 878 874 875
f 891 837 836
f 823 849 824
f 887 892 867
f 893 889 888
f 476 887 506
f 866 894 805
f 829 833 880
f 860 895 861
f 781 811 780
f 783 845 782
f 776 858 797
f 786 886 785
f 788 878 787
f 886 864 825
f 725 896 723
f 722 852 720
f 437 830 428
f 897 898 899
f 858 900 856
f 470 870 840
f 878 901 787
f 786 865 886
f 899 898 902
f 824 829 880
f 808 903 904
f 127 828 128
f 815 814 854
f 470 840 475
f 413 905 427
f 906 820 492
f 907 861 908
f 896 833 723
f 893 909 910
f 825 827 886
f 911 912 913
f 914 912 911
f 915 916 917
f 858 857 874
f 918 915 917
f 165 815 125
f 783 827 845
f 819 801 491
f 490 869 483
f 830 919 428
f 869 920 870
f 872 921 876
f 475 841 476
f 922 923 896
f 852 851 863
f 426 804 421
f 490 801 869
f 876 924 846
f 831 844 809
f 126 832 99
f 897 860 898
f 483 870 470
f 867 850 887
f 100 879 156
f 287 882 282
f 267 881 286
f 122 861 907
f 902 898 925
f 926 927 343
f 928 835 803
f 428 919 929
f 359 913 358
f 848 847 930
f 931 846 848
f 879 880 885
f 871 820 906
f 823 919 849
f 876 846 931
f 932 933 934
f 359 927 913
f 881 875 884
f 935 936 906
f 937 876 931
f 938 842 813
f 906 936 871
f 725 901 896
f 788 874 878
f 852 865 720
f 868 897 899
f 506 850 722
f 816 939 841
f 838 939 816
f 911 940 914
f 882 856 883
f 869 807 834
f 834 920 869
f 913 941 911
f 910 909 897
f 887 850 506
f 341 942 935
f 890 889 928
f 350 914 335
f 835 910 868
f 781 855 811
f 862 861 121
f 845 855 782
f 491 801 490
f 886 827 785
f 787 901 725
f 720 865 786
f 914 942 335
f 804 873 421
f 343 927 359
f 406 943 411
f 943 918 411
f 858 874 797
f 477 819 491
f 937 806 876
f 351 926 343
f 428 929 413
f 905 866 843
f 335 942 341
f 341 935 342
f 411 918 412
f 903 924 904
f 896 901 922
f 863 865 852
f 841 939 887
f 944 848 930
f 945 895 909
f 413 929 905
f 808 904 831
f 925 898 862
f 120 925 862
f 846 924 859
f 878 877 901
f 876 921 924
f 936 946 947
f 893 910 889
f 948 931 848
f 934 949 932
f 950 893 888
f 427 843 426
f 928 889 835
f 360 917 351
f 891 925 129
f 880 833 923
f 951 937 931
f 901 877 922
f 809 815 839
f 799 809 839
f 944 948 848
f 952 930 953
f 932 919 823
f 109 837 891
f 880 923 885
f 785 827 783
f 887 939 892
f 122 907 127
f 798 903 808
f 406 873 943
f 928 803 954
f 905 843 427
f 821 871 947
f 913 912 358
f 955 944 930
f 890 928 956
f 891 902 925
f 957 892 838
f 821 947 958
f 937 810 806
f 942 946 936
f 909 895 860
f 948 951 931
f 955 959 960
f 883 856 813
f 961 864 863
f 948 962 951
f 963 851 867
f 964 826 825
f 965 812 853
f 950 945 893
f 870 817 840
f 955 960 944
f 351 917 926
f 856 900 938
f 951 966 937
f 957 837 108
f 952 955 930
f 962 967 951
f 968 868 899
f 121 861 122
f 813 812 969
f 959 911 960
f 863 851 970
f 971 923 922
f 825 864 972
f 938 900 777
f 853 826 973
f 867 892 974
f 975 976 962
f 492 820 477
f 954 958 956
f 777 842 938
f 350 912 914
f 898 860 862
f 928 954 956
f 977 934 844
f 128 839 165
f 120 862 121
f 954 821 958
f 907 828 127
f 944 978 948
f 890 952 953
f 937 966 810
f 818 899 902
f 957 838 837
f 967 966 951
f 890 956 952
f 979 798 800
f 960 978 944
f 980 981 959
f 982 859 983
f 883 969 283
f 285 969 965
f 965 973 289
f 314 973 964
f 964 972 290
f 291 972 961
f 961 970 258
f 266 971 984
f 885 971 303
f 259 970 963
f 963 974 162
f 907 908 800
f 163 974 957
f 983 903 798
f 888 953 982
f 831 977 844
f 948 978 962
f 129 925 120
f 979 950 983
f 109 891 129
f 125 854 126
f 888 890 953
f 907 800 828
f 930 847 953
f 915 985 966
f 958 981 980
f 375 986 360
f 412 986 375
f 950 888 982
f 979 983 798
f 856 938 813
f 859 924 903
f 968 834 868
f 108 837 109
f 955 980 959
f 973 826 964
f 972 864 961
f 952 980 955
f 950 982 983
f 969 812 965
f 908 945 979
f 885 923 971
f 970 851 963
f 818 968 899
f 883 813 969
f 908 979 800
f 974 892 957
f 961 863 970
f 971 922 984
f 964 825 972
f 963 867 974
f 965 853 973
f 801 807 869
f 797 874 788
f 776 900 858
f 782 855 781
f 342 987 377
f 377 987 501
f 958 980 956
f 811 842 780
f 282 883 283
f 285 965 289
f 314 964 290
f 286 884 287
f 266 984 267
f 291 961 258
f 854 814 988
f 259 963 162
f 156 885 303
f 891 836 902
f 839 815 165
f 99 822 100
f 163 957 108
f 923 833 896
f 956 980 952
f 967 915 966
f 501 906 492
f 859 903 983
f 283 969 285
f 289 973 314
f 290 972 291
f 258 970 259
f 303 971 266
f 162 974 163
f 953 847 982
f 853 989 855
f 979 945 950
f 868 910 897
f 977 866 934
f 982 847 859
f 777 900 776
f 780 842 777
f 854 832 126
f 947 981 958
f 978 975 962
f 805 894 872
f 421 873 406
f 836 818 902
f 954 802 821
f 932 949 929
f 884 882 287
f 984 881 267
f 822 879 100
f 943 915 918
f 897 909 860
f 988 823 832
f 477 820 819
f 889 910 835
f 984 877 881
f 904 921 990
f 854 988 832
f 803 802 954
f 943 985 915
f 988 932 823
f 875 857 884
f 884 857 882
f 818 817 968
f 976 916 967
f 922 877 984
f 934 933 844
f 908 895 945
f 926 976 927
f 942 936 935
f 962 976 967
f 822 824 879
f 866 949 934
f 873 985 943
f 990 921 872
f 927 976 975
f 927 975 913
f 929 919 932
f 861 895 908
f 945 909 893
f 844 933 814
f 855 989 811
f 988 933 932
f 360 986 917
f 911 941 960
f 959 940 911
f 918 986 412
f 935 987 342
f 914 946 942
f 849 919 830
f 358 912 350
f 892 939 838
f 929 949 905
f 926 916 976
f 906 987 935
f 947 946 981
f 977 894 866
f 905 949 866
f 917 986 918
f 817 920 968
f 871 936 947
f 812 989 853
f 960 941 978
f 904 990 831
f 917 916 926
f 968 920 834
f 831 990 977
f 814 933 988
f 810 985 873
f 501 987 906
f 966 985 810
f 870 920 817
f 894 990 872
f 977 990 894
f 981 940 959
f 924 921 904
f 967 916 915
f 978 941 975
f 811 989 812
f 946 940 981
f 975 941 913
f 914 940 946
