v -1.47041967 5.00000000 -0.05962840
v -0.55055446 5.00000000 -0.15703922
v -1.01001997 5.00000000 -0.74828260
v -1.09078913 5.00000000 0.56669694
v 1.55997437 5.00000000 -1.25767178
v 2.05474885 5.00000000 -0.77128417
v 2.09134053 5.00000000 -1.25150749
v -1.51919328 5.00000000 1.27579494
v -2.05474328 5.00000000 0.77128417
v -2.06698730 5.00000000 1.25000000
v 1.62853280 5.00000000 -0.50000000
v -1.62844109 5.00000000 0.50000000
v 0.84651914 5.00000000 0.21721670
v 1.62830962 5.00000000 0.71074968
v 1.55966812 5.00000000 -0.00000000
v 2.10545904 5.00000000 -1.60183586
v -2.09243217 5.00000000 1.60515899
v 2.07141639 5.00000000 1.20770204
v 1.46679921 5.00000000 1.39469716
v 2.08283918 5.00000000 1.62047984
v -2.07401478 5.00000000 -1.22090909
v -1.51223801 5.00000000 -1.40789086
v -2.09244661 5.00000000 -1.62575999
v 0.99986501 5.00000000 2.00000000
v 0.45061309 5.00000000 1.16267703
v 1.87598029 5.00000000 -2.00000000
v -1.87598029 5.00000000 2.00000000
v 1.87598029 5.00000000 2.00000000
v -1.87598029 5.00000000 -2.00000000
v -1.66462046 5.00000000 -0.75000000
v 1.04942526 5.00000000 0.85790428
v 0.04724491 5.00000000 0.40613518
v 0.57617345 5.00000000 -1.21606160
v 1.08951707 5.00000000 -0.57402850
v -0.50881596 5.00000000 1.12957029
v 0.99986501 5.00000000 -2.00000000
v -0.99986501 5.00000000 2.00000000
v 0.00000000 5.00000000 2.00000000
v -0.99986501 5.00000000 -2.00000000
v 0.00000000 5.00000000 -2.00000000
v -0.24807498 5.00000000 -0.97682565
v -0.75403959 5.00000000 -1.42659982
v 2.06849904 5.00000000 0.29166667
v -2.06838683 5.00000000 -0.29166667
v 0.27615399 5.00000000 -0.38261707
v -0.52572866 5.00000000 0.48634080
v -2.50000000 5.00000000 2.00000000
v 2.50000000 5.00000000 -2.00000000
v -2.50000000 5.00000000 -2.00000000
v 2.50000000 5.00000000 2.00000000
v 2.50000000 5.00000000 -0.50000000
v 2.50000000 5.00000000 -1.00000000
v 2.50000000 5.00000000 -0.00000000
v 2.06698730 5.00000000 -0.25000000
v -2.50000000 5.00000000 -0.50000000
v -2.50000000 5.00000000 0.00000000
v 2.50000000 5.00000000 0.50000000
v -2.50000000 5.00000000 0.50000000
v -2.06698730 5.00000000 0.25000000
v -2.50000000 5.00000000 1.00000000
v 2.50000000 5.00000000 -1.50000000
v -2.50000000 5.00000000 1.50000000
v -2.50000000 5.00000000 -1.50000000
v -2.50000000 5.00000000 -1.00000000
v 2.50000000 5.00000000 1.50000000
v 2.50000000 5.00000000 1.00000000
v -2.14949412 5.00000000 -0.75179654
v 2.15364501 5.00000000 0.74202368
v 2.36529305 5.80956086 -0.26630134
v 2.45000988 5.49744505 0.22680985
v 2.27386179 6.03901519 0.18220376
v 2.27138471 6.04441923 -0.72096576
v 2.44635873 5.51510094 -0.74199391
v 2.33047629 5.90492003 -1.17376468
v 1.46017239 7.02926011 -1.65803975
v 1.45506138 7.03292803 -1.17719420
v 1.07642154 7.25639462 -1.60301326
v 0.99528563 7.29333960 -1.17357978
v -2.28129585 6.02258948 0.21372785
v -2.43892811 5.54920822 0.23418802
v -2.35078567 5.85076831 -0.19830875
v 2.47231132 5.37104814 -0.25000000
v 2.34912066 5.85535497 0.63701101
v -1.46946313 7.02254249 -1.54758572
v -1.83255407 6.70051333 -1.17258846
v -1.83918929 6.69333480 -1.62511613
v -1.48240254 7.01307792 -1.07563751
v 1.85786206 6.67282652 -1.54758572
v 1.83406656 6.69888194 -1.08213862
v -0.31308330 7.48031830 -0.69016604
v -0.79757849 7.36936037 -0.70521364
v -0.64673570 7.41489812 -1.14681091
v 2.17445361 6.23359292 -1.60886053
v 2.38006347 5.76504764 -1.60324888
v -0.14780241 7.49562706 -1.13907237
v -2.13776097 6.29613966 -1.52134523
v -2.34933835 5.85475688 0.63258412
v 2.11759522 6.32883049 -1.14923602
v -2.10146915 6.35418883 -1.07364094
v -2.46250000 5.43138585 -0.25000000
v -1.09956585 7.24520710 -1.14981813
v -0.99286704 7.29438773 -1.59856932
v 0.23274264 7.48914260 -0.75034025
v 0.25253962 7.48721204 -1.19938542
v 0.56442271 7.43545212 -1.52649057
v 2.46330149 5.42678540 -1.23665454
v 2.15893400 6.26055701 1.54030479
v 2.01483583 6.48001236 1.06942466
v 2.25343715 6.08259918 1.05168531
v 2.37862833 5.76949806 1.51233214
v 2.40350773 5.68785943 0.97696043
v 0.60760433 7.42503958 -1.09674325
v 1.85624425 6.67462153 1.52907848
v 2.02254249 6.46946313 2.00000000
v 1.67282652 6.85786206 2.00000000
v 2.47547118 5.34934570 1.24757298
v 1.24195418 7.16968888 1.08880514
v 1.00477389 7.28919842 0.63168697
v 1.45891154 7.03016677 0.62714735
v 1.46790708 7.02367211 1.54405296
v 1.66656328 6.86348245 1.07764568
v 2.15221982 6.27198658 -0.27888739
v 0.51764340 7.44582201 1.54534352
v 0.76170966 7.38113385 1.08633297
v 1.01319890 7.28548200 1.54492559
v -1.86149316 6.66878495 0.64541025
v -2.15568419 6.26610650 0.63770135
v -2.02179394 6.47049287 0.19724300
v -2.15299243 6.27067840 -0.23864123
v -0.49726701 7.45004602 -1.57840006
v 0.26132116 7.48630474 2.00000000
v -0.26132116 7.48630474 2.00000000
v -0.00116565 7.49999973 1.54062528
v 2.01152683 6.48450659 0.17009816
v 0.25348465 7.48711591 1.08766221
v -2.02395511 6.46751685 1.09769682
v -2.25141372 6.08680094 1.06867909
v -0.77948766 7.37537344 1.09007118
v -0.51977923 7.44536900 1.54758572
v -1.01884899 7.28296884 1.54681705
v -1.67997119 6.85140400 0.19260577
v 1.00098022 7.29085979 -0.27328812
v 0.50290883 7.44889418 -0.26846893
v 0.76990317 7.37849724 -0.71940926
v -0.26817355 7.48557497 1.08848322
v -1.25549733 7.16188030 1.09167338
v -1.47030009 7.02193414 1.54757771
v 2.15485681 6.26751415 0.61724683
v 1.84467554 6.68735656 -0.27738797
v -1.85889141 6.67168260 1.54815285
v -2.16624201 6.24795656 1.54893344
v -2.01804767 6.47562990 -0.68834034
v -2.28512895 6.01399491 -0.69826372
v -1.86467738 6.66522619 -0.25549680
v 1.66079850 6.86862204 0.17355152
v 1.65885735 6.87034550 -0.71715995
v 1.23419222 7.17411351 -0.72713443
v -2.28386364 6.01684161 2.00000000
v -2.44536900 5.51977923 2.00000000
v -2.37527905 5.77977526 1.51980499
v 2.28386364 6.01684161 -2.00000000
v 2.44536900 5.51977923 -2.00000000
v 1.84787954 6.68384714 0.62017378
v 1.45531235 7.03274838 -0.27595263
v -2.02254249 6.46946313 2.00000000
v -2.46460983 5.41916393 0.75180925
v -1.67586561 6.85512115 1.09546889
v 2.28386364 6.01684161 2.00000000
v -2.28386364 6.01684161 -2.00000000
v -2.02254249 6.46946313 -2.00000000
v 2.00813329 6.48909392 -0.71850702
v -1.48026838 7.01464774 -0.25782161
v -1.68282678 6.84880881 -0.69952583
v -0.01163017 7.49997295 0.63584729
v -0.52990936 7.44319383 0.63798539
v 0.50767968 7.44790959 0.63372942
v 1.23687305 7.17258948 0.17707459
v -1.03049185 7.27773716 -0.26128638
v -1.26720671 7.15503762 -0.69972107
v -1.25000000 7.16506351 2.00000000
v -1.67282652 6.85786206 2.00000000
v -0.77254249 7.37764129 2.00000000
v 0.75837100 7.38219928 0.18066573
v -0.00000000 7.50000000 -1.54758572
v -0.77254249 7.37764129 -2.00000000
v -0.26132116 7.48630474 -2.00000000
v 0.77254249 7.37764129 2.00000000
v 0.26132116 7.48630474 -2.00000000
v -1.67282652 6.85786206 -2.00000000
v -1.25000000 7.16506351 -2.00000000
v 1.25000000 7.16506351 2.00000000
v 0.77254249 7.37764129 -2.00000000
v 1.67282652 6.85786206 -2.00000000
v 2.02254249 6.46946313 -2.00000000
v -0.01757548 7.49993822 -0.25820861
v 0.24669838 7.48779821 0.18403829
v -0.27506972 7.48482125 0.18632281
v -1.47575693 7.01795478 0.64288182
v -0.53409673 7.44228186 -0.25713687
v -0.78484414 7.37360900 0.18812382
v -1.25992679 7.15930185 0.19073662
v -1.02570881 7.27989505 0.63986404
v -2.46965964 5.38830561 -0.75143895
v -2.47373766 5.36141665 -1.24936154
v 2.44536900 5.51977923 2.00000000
v -2.44536900 5.51977923 -2.00000000
v -2.37728148 5.77364899 -1.52272551
v -2.39930636 5.70237384 -0.99990351
v -2.47398153 5.35974348 1.23667152
v 2.47117765 5.37852482 0.75000000
v -2.28333120 6.01803665 -1.16304485
v -2.40276008 5.69046651 0.99674251
v 2.47140685 5.37702544 -1.62798665
v -2.47258531 5.36921794 1.62806983
v 2.47386495 5.36054434 1.63616190
v -2.47363629 5.36210979 -1.63678323
v 1.25000000 7.16506351 -2.00000000
v -2.40237727 5.69179727 -0.57000757
v 3.00701730 -5.00000000 -0.32889486
v 4.08120456 -5.00000000 -0.40861742
v 3.44720513 -5.00000000 0.32437062
v 3.49727775 -5.00000000 -1.15037110
v -4.04072119 -5.00000000 -0.40986882
v -2.99305627 -5.00000000 -0.39171170
v -3.33582763 -5.00000000 0.38112038
v -3.46238514 -5.00000000 -1.18964197
v 4.21492643 -5.00000000 0.57527076
v -2.50959621 -5.00000000 1.09587084
v -3.55728044 -5.00000000 1.19882057
v 2.50000000 -5.00000000 0.59807621
v 3.43287737 -5.00000000 1.18601841
v 2.50000000 -5.00000000 1.38820130
v -2.53942331 -5.00000000 0.22825360
v -0.50000000 -5.00000000 -0.59807621
v 0.50000000 -5.00000000 -1.13397460
v 0.45848377 -5.00000000 -0.30876215
v -0.50000000 -5.00000000 -1.38820130
v 1.57879494 -5.00000000 1.12288338
v -1.42120506 -5.00000000 -1.12288338
v 2.00000000 -5.00000000 -2.00000000
v 2.50000000 -5.00000000 -1.13397460
v 1.54536507 -5.00000000 -1.16016613
v -2.00000000 -5.00000000 2.00000000
v -1.45623429 -5.00000000 1.15381551
v 3.00000000 -5.00000000 -2.00000000
v 4.00000000 -5.00000000 -2.00000000
v -2.00000000 -5.00000000 -2.00000000
v -2.50000000 -5.00000000 -1.13397460
v 0.50000000 -5.00000000 1.13397460
v -0.00000000 -5.00000000 0.31032031
v 0.93719597 -5.00000000 0.37319289
v -2.06280403 -5.00000000 -0.36613104
v -5.00000000 -5.00000000 0.00000000
v -5.00000000 -5.00000000 -1.00000000
v 1.00000000 -5.00000000 -2.00000000
v 5.00000000 -5.00000000 0.00000000
v 5.00000000 -5.00000000 1.00000000
v -3.00000000 -5.00000000 2.00000000
v -0.50000000 -5.00000000 1.13397460
v -1.00000000 -5.00000000 2.00000000
v 1.00000000 -5.00000000 2.00000000
v 0.00000000 -5.00000000 -2.00000000
v -1.00000000 -5.00000000 -2.00000000
v -3.00000000 -5.00000000 -2.00000000
v 0.00000000 -5.00000000 2.00000000
v -1.00000000 -5.00000000 0.26794919
v 2.02558595 -5.00000000 -0.28272125
v -4.00000000 -5.00000000 2.00000000
v 2.00000000 -5.00000000 2.00000000
v -4.21163355 -5.00000000 0.57250707
v -1.25762895 -5.00000000 -0.39872624
v 1.73230816 -5.00000000 0.38128397
v -4.00000000 -5.00000000 -2.00000000
v -5.00000000 -5.00000000 1.00000000
v 5.00000000 -5.00000000 -1.00000000
v 4.00000000 -5.00000000 2.00000000
v 3.00000000 -5.00000000 2.00000000
v -5.00000000 -5.00000000 2.00000000
v -4.26794919 -5.00000000 1.26794919
v 5.00000000 -5.00000000 -2.00000000
v 4.26794919 -5.00000000 -1.26794919
v -5.00000000 -5.00000000 -2.00000000
v -4.26794919 -5.00000000 -1.26794919
v -1.76682567 -5.00000000 0.37666656
v 1.23526836 -5.00000000 -0.38943148
v 5.00000000 -5.00000000 2.00000000
v 4.28775336 -5.00000000 1.29366160
v -5.00000000 -3.00701730 -0.32889486
v -5.00000000 -4.08120456 -0.40861742
v -5.00000000 -3.44720513 0.32437062
v -5.00000000 -3.49727775 -1.15037110
v -5.00000000 4.04072119 -0.40986882
v -5.00000000 2.99305627 -0.39171170
v -5.00000000 3.33582763 0.38112038
v -5.00000000 3.46238514 -1.18964197
v -5.00000000 -4.21492643 0.57527076
v -5.00000000 2.50959621 1.09587084
v -5.00000000 3.55728044 1.19882057
v -5.00000000 -2.50000000 0.59807621
v -5.00000000 -3.43287737 1.18601841
v -5.00000000 -2.50000000 1.38820130
v -5.00000000 2.53942331 0.22825360
v -5.00000000 0.50000000 -0.59807621
v -5.00000000 -0.50000000 -1.13397460
v -5.00000000 -0.45848377 -0.30876215
v -5.00000000 0.50000000 -1.38820130
v -5.00000000 -1.57879494 1.12288338
v -5.00000000 1.42120506 -1.12288338
v -5.00000000 -2.00000000 -2.00000000
v -5.00000000 -2.50000000 -1.13397460
v -5.00000000 -1.54536507 -1.16016613
v -5.00000000 2.00000000 2.00000000
v -5.00000000 1.45623429 1.15381551
v -5.00000000 -3.00000000 -2.00000000
v -5.00000000 -4.00000000 -2.00000000
v -5.00000000 2.00000000 -2.00000000
v -5.00000000 2.50000000 -1.13397460
v -5.00000000 -0.50000000 1.13397460
v -5.00000000 0.00000000 0.31032031
v -5.00000000 -0.93719597 0.37319289
v -5.00000000 2.06280403 -0.36613104
v -5.00000000 5.00000000 0.00000000
v -5.00000000 5.00000000 -1.00000000
v -5.00000000 -1.00000000 -2.00000000
v -5.00000000 3.00000000 2.00000000
v -5.00000000 0.50000000 1.13397460
v -5.00000000 1.00000000 2.00000000
v -5.00000000 -1.00000000 2.00000000
v -5.00000000 0.00000000 -2.00000000
v -5.00000000 1.00000000 -2.00000000
v -5.00000000 3.00000000 -2.00000000
v -5.00000000 0.00000000 2.00000000
v -5.00000000 1.00000000 0.26794919
v -5.00000000 -2.02558595 -0.28272125
v -5.00000000 4.00000000 2.00000000
v -5.00000000 -2.00000000 2.00000000
v -5.00000000 4.21163355 0.57250707
v -5.00000000 1.25762895 -0.39872624
v -5.00000000 -1.73230816 0.38128397
v -5.00000000 4.00000000 -2.00000000
v -5.00000000 5.00000000 1.00000000
v -5.00000000 -4.00000000 2.00000000
v -5.00000000 -3.00000000 2.00000000
v -5.00000000 5.00000000 2.00000000
v -5.00000000 4.26794919 1.26794919
v -5.00000000 -4.26794919 -1.26794919
v -5.00000000 5.00000000 -2.00000000
v -5.00000000 4.26794919 -1.26794919
v -5.00000000 1.76682567 0.37666656
v -5.00000000 -1.23526836 -0.38943148
v -5.00000000 -4.28775336 1.29366160
v 5.00000000 3.00701730 -0.32889486
v 5.00000000 4.08120456 -0.40861742
v 5.00000000 3.44720513 0.32437062
v 5.00000000 3.49727775 -1.15037110
v 5.00000000 -4.04072119 -0.40986882
v 5.00000000 -2.99305627 -0.39171170
v 5.00000000 -3.33582763 0.38112038
v 5.00000000 -3.46238514 -1.18964197
v 5.00000000 4.21492643 0.57527076
v 5.00000000 -2.50959621 1.09587084
v 5.00000000 -3.55728044 1.19882057
v 5.00000000 2.50000000 0.59807621
v 5.00000000 3.43287737 1.18601841
v 5.00000000 2.50000000 1.38820130
v 5.00000000 -2.53942331 0.22825360
v 5.00000000 -0.50000000 -0.59807621
v 5.00000000 0.50000000 -1.13397460
v 5.00000000 0.45848377 -0.30876215
v 5.00000000 -0.50000000 -1.38820130
v 5.00000000 1.57879494 1.12288338
v 5.00000000 -1.42120506 -1.12288338
v 5.00000000 2.00000000 -2.00000000
v 5.00000000 2.50000000 -1.13397460
v 5.00000000 1.54536507 -1.16016613
v 5.00000000 -2.00000000 2.00000000
v 5.00000000 -1.45623429 1.15381551
v 5.00000000 3.00000000 -2.00000000
v 5.00000000 4.00000000 -2.00000000
v 5.00000000 -2.00000000 -2.00000000
v 5.00000000 -2.50000000 -1.13397460
v 5.00000000 0.50000000 1.13397460
v 5.00000000 -0.00000000 0.31032031
v 5.00000000 0.93719597 0.37319289
v 5.00000000 -2.06280403 -0.36613104
v 5.00000000 1.00000000 -2.00000000
v 5.00000000 5.00000000 0.00000000
v 5.00000000 5.00000000 1.00000000
v 5.00000000 -3.00000000 2.00000000
v 5.00000000 -0.50000000 1.13397460
v 5.00000000 -1.00000000 2.00000000
v 5.00000000 1.00000000 2.00000000
v 5.00000000 0.00000000 -2.00000000
v 5.00000000 -1.00000000 -2.00000000
v 5.00000000 -3.00000000 -2.00000000
v 5.00000000 0.00000000 2.00000000
v 5.00000000 -1.00000000 0.26794919
v 5.00000000 2.02558595 -0.28272125
v 5.00000000 -4.00000000 2.00000000
v 5.00000000 2.00000000 2.00000000
v 5.00000000 -4.21163355 0.57250707
v 5.00000000 -1.25762895 -0.39872624
v 5.00000000 1.73230816 0.38128397
v 5.00000000 -4.00000000 -2.00000000
v 5.00000000 5.00000000 -1.00000000
v 5.00000000 4.00000000 2.00000000
v 5.00000000 3.00000000 2.00000000
v 5.00000000 -4.26794919 1.26794919
v 5.00000000 5.00000000 -2.00000000
v 5.00000000 4.26794919 -1.26794919
v 5.00000000 -4.26794919 -1.26794919
v 5.00000000 -1.76682567 0.37666656
v 5.00000000 1.23526836 -0.38943148
v 5.00000000 5.00000000 2.00000000
v 5.00000000 4.28775336 1.29366160
v 3.07857506 3.24431915 2.00000000
v 3.45840442 2.43424838 2.00000000
v 4.03934679 3.38482262 2.00000000
v -3.62391564 3.40162024 2.00000000
v -4.37361717 3.60000722 2.00000000
v -4.18758186 2.58363822 2.00000000
v -2.92282652 5.30720145 2.00000000
v -2.76609904 4.56144905 2.00000000
v 1.33130801 -3.07019647 2.00000000
v 0.49246920 -3.98810426 2.00000000
v 1.59683081 -4.15069605 2.00000000
v 0.37738182 -3.08708389 2.00000000
v 4.14786838 1.56918596 2.00000000
v 3.19207064 1.36850873 2.00000000
v -0.40079380 9.12356198 2.00000000
v -0.40022553 8.43301934 2.00000000
v 0.28398526 8.57575878 2.00000000
v 2.81069863 4.57875250 2.00000000
v 2.91881505 5.23013009 2.00000000
v -3.54252061 1.82049308 2.00000000
v -4.32178733 1.50000000 2.00000000
v -3.37729445 0.87466614 2.00000000
v 3.99726807 6.18308151 2.00000000
v 4.13453489 5.30267019 2.00000000
v 4.90392640 5.97545161 2.00000000
v -2.36757929 7.55460103 2.00000000
v -1.78933171 7.99352849 2.00000000
v -2.58624481 8.27609147 2.00000000
v -4.03746046 -3.44797255 2.00000000
v -2.99634642 -3.44729165 2.00000000
v -3.20709229 -2.60355190 2.00000000
v 2.18283322 2.94762124 2.00000000
v 2.63798924 2.18760756 2.00000000
v -4.14151565 -2.45188167 2.00000000
v 1.47901051 3.94188855 2.00000000
v 1.41712907 4.52539285 2.00000000
v 0.60334378 4.22409982 2.00000000
v 0.82566840 3.39171470 2.00000000
v 3.99653400 0.48106568 2.00000000
v -1.35384500 -2.47443700 2.00000000
v -1.97834731 -3.37832348 2.00000000
v -1.00000000 -3.26795287 2.00000000
v 4.33073112 2.49513095 2.00000000
v -2.29212439 -2.52823044 2.00000000
v 3.16107188 0.38988518 2.00000000
v 1.73960452 2.05386227 2.00000000
v 1.21274976 2.72771146 2.00000000
v -3.22862833 2.51816903 2.00000000
v -2.79405950 1.61006291 2.00000000
v -2.39773493 2.45822971 2.00000000
v 3.40142581 4.04954540 2.00000000
v -4.22586994 0.45189071 2.00000000
v 0.23651692 9.35479061 2.00000000
v -1.90664862 8.73518453 2.00000000
v 3.20643162 -1.13854464 2.00000000
v 4.13397470 -1.50000018 2.00000000
v 4.12828992 -0.53240652 2.00000000
v -3.41160345 4.76857775 2.00000000
v -3.19090662 4.01354517 2.00000000
v 1.62862625 3.28863538 2.00000000
v -1.10489555 8.34279200 2.00000000
v -1.21371348 9.09231105 2.00000000
v 1.17379037 8.40870428 2.00000000
v 1.85472471 7.98503635 2.00000000
v 1.94548747 8.63975106 2.00000000
v -3.18158365 6.40911087 2.00000000
v -2.83962293 7.01620253 2.00000000
v -3.66797096 6.98222047 2.00000000
v -3.91535658 4.17932030 2.00000000
v 3.42566499 5.61503132 2.00000000
v 3.46654237 4.85003962 2.00000000
v 2.43050536 3.79127498 2.00000000
v 3.36545263 -0.32278482 2.00000000
v 2.63117466 8.26039030 2.00000000
v 2.44858717 7.55232930 2.00000000
v 2.90571526 6.99558055 2.00000000
v 3.23190341 7.69366162 2.00000000
v -0.24930740 -3.42155877 2.00000000
v -0.28800069 -2.48750411 2.00000000
v -2.82321114 3.25464500 2.00000000
v 1.22432022 7.68344292 2.00000000
v 0.62597309 7.87829394 2.00000000
v 2.21592396 6.95425678 2.00000000
v 1.77865383 7.37939709 2.00000000
v 2.83063302 5.87219901 2.00000000
v 2.59268757 6.45031275 2.00000000
v 3.25197642 6.34219524 2.00000000
v -3.20394272 7.68451202 2.00000000
v 2.26119089 -3.44627238 2.00000000
v 4.15936663 4.42476364 2.00000000
v -0.97545161 9.90392640 2.00000000
v 0.00000000 10.00000000 2.00000000
v -2.77785117 9.15734806 2.00000000
v -1.91341716 9.61939766 2.00000000
v 1.91341716 9.61939766 2.00000000
v 2.77785117 9.15734806 2.00000000
v -4.15734806 7.77785117 2.00000000
v -3.53553391 8.53553391 2.00000000
v 3.53553391 8.53553391 2.00000000
v 4.15734806 7.77785117 2.00000000
v -4.90392640 5.97545161 2.00000000
v -3.93242412 6.17006671 2.00000000
v -4.61939766 6.91341716 2.00000000
v 4.61939766 6.91341716 2.00000000
v 1.44560023 9.11828895 2.00000000
v 4.20506993 -3.48253543 2.00000000
v 3.28248910 -3.00125294 2.00000000
v 3.50000000 -4.13397460 2.00000000
v 3.69321301 6.98072759 2.00000000
v 2.92598594 -3.67941925 2.00000000
v -0.22505046 3.51632203 2.00000000
v 2.69606210 -2.04834330 2.00000000
v 2.26219718 -2.67998048 2.00000000
v 0.82857673 9.07156326 2.00000000
v 3.49978777 -2.03603538 2.00000000
v -1.89222897 0.04696259 2.00000000
v -1.45865802 0.90262972 2.00000000
v -2.36635891 0.81410687 2.00000000
v -0.31554536 4.36744561 2.00000000
v -0.95615510 4.09680622 2.00000000
v 1.33252321 1.17980809 2.00000000
v 0.78490444 1.93766138 2.00000000
v 0.25446033 2.67676005 2.00000000
v -0.14542125 1.84426292 2.00000000
v -3.46591381 -4.22290714 2.00000000
v -1.96131287 1.67620450 2.00000000
v -4.16829168 -1.47173630 2.00000000
v -3.30489606 -0.92200059 2.00000000
v -4.20979655 -0.48989922 2.00000000
v 0.40059549 1.08373545 2.00000000
v 2.52313240 -0.25363579 2.00000000
v 1.84802151 0.45536434 2.00000000
v 1.53250018 -0.45968820 2.00000000
v -0.55117660 -4.16352248 2.00000000
v -1.50748364 -4.16735657 2.00000000
v -2.49372680 -4.17422948 2.00000000
v 4.17998130 -2.49203584 2.00000000
v 2.21860805 1.30065737 2.00000000
v -2.13547074 4.47541588 2.00000000
v -0.68804463 2.58952897 2.00000000
v 2.11855452 -1.24838867 2.00000000
v 1.14568306 -1.34508686 2.00000000
v 0.57534037 -0.55896350 2.00000000
v 0.17752403 -1.44134695 2.00000000
v 0.74382679 -2.23774938 2.00000000
v -0.93231633 0.13143164 2.00000000
v -2.68241944 -1.73481269 2.00000000
v -1.34015577 -0.73891440 2.00000000
v 0.95385498 0.31579523 2.00000000
v -1.74880727 -1.61538878 2.00000000
v 1.71627194 -2.10495752 2.00000000
v -2.80243129 -0.02596335 2.00000000
v -2.30657059 -0.82759041 2.00000000
v -0.53186374 0.99196292 2.00000000
v 0.01354476 0.21959107 2.00000000
v -0.38213066 -0.65066137 2.00000000
v -0.79413921 -1.54911120 2.00000000
v -1.06786729 1.75510977 2.00000000
v -1.57401998 2.50654411 2.00000000
v -3.65510105 5.45049983 2.00000000
v -1.22251272 3.30161357 2.00000000
v -1.46333310 4.51195270 2.00000000
v -2.77884893 5.93700727 2.00000000
v -3.30216450 5.86902821 2.00000000
v -4.26027419 5.56411522 2.00000000
v 2.53761285 -4.24599160 2.00000000
v -2.54518480 6.46946313 2.00000000
v -1.72745751 7.37764129 2.00000000
v -0.61103713 7.87470367 2.00000000
v 0.00000000 7.93892626 2.00000000
v -2.18404784 6.96652551 2.00000000
v 0.97545161 9.90392640 2.00000000
v -1.19536900 7.68484274 2.00000000
v 2.12744576 4.46097590 2.00000000
v -4.12026567 4.90575625 2.00000000
v -3.48160699 -1.89158636 2.00000000
v -1.71022613 3.92574376 2.00000000
v 2.52751023 0.64924935 2.00000000
v -4.26794919 -4.26794919 2.00000000
v 4.26794919 -4.26794919 2.00000000
v -2.03925390 3.23163246 2.00000000
v -0.79565280 8.74325878 2.00000000
v -2.45882741 3.90467340 2.00000000
v -3.59849736 -0.00000175 2.00000000
v -4.51484892 4.43546457 2.00000000
v 4.61939766 6.91341716 -2.00000000
v 4.76016298 6.52998314 -1.06825739
v 4.90392640 5.97545161 -2.00000000
v -4.90392640 5.97545161 -2.00000000
v -4.76012475 6.53010207 -1.06835774
v -4.61939766 6.91341716 -2.00000000
v -2.42036248 9.37513948 -0.55781018
v -3.11740757 8.90919046 -1.32612835
v -3.19160797 8.84884899 -0.48495632
v -2.35698368 9.40960632 -1.35605129
v 4.94668352 5.72823223 -1.26459378
v -4.94668352 5.72823223 -1.26459378
v -4.93134973 5.82570567 0.49110599
v -4.74242325 6.58411543 1.12466076
v -4.75107857 6.55796421 -0.00157280
v 4.75111194 6.55786243 -0.00194366
v 4.74127466 6.58754987 1.12335436
v 4.93140931 5.82534974 0.48835522
v -3.85606964 8.18288029 -1.17493605
v -3.89024409 8.14101909 -0.32753221
v 3.17196642 8.86505227 -0.54597834
v 3.89036639 8.14086761 -0.32746665
v 3.85626659 8.18264167 -1.17484190
v -4.47818334 7.22393209 0.46133746
v 4.50284030 7.17357522 0.47390210
v -1.45142339 9.78470168 -0.34097235
v -1.45142339 9.78470168 -1.15148818
v 1.45142339 9.78470168 -0.54553547
v 1.45142339 9.78470168 -1.35605129
v 0.49008570 9.97592363 -1.15148818
v 0.49008570 9.97592363 -0.34097235
v 2.35698368 9.40960632 -0.34097235
v 2.35698368 9.40960632 -1.15148818
v -0.49008570 9.97592363 -0.54553547
v -0.49008570 9.97592363 -1.35605129
v 3.17196642 8.86505227 -1.35629813
v -4.92778799 5.84670272 -0.47605548
v 4.92786750 5.84623987 -0.47641942
v -4.34226987 7.47884901 -0.44740228
v 4.34210321 7.47914093 -0.44723933
v -2.35723386 9.40947259 1.15206432
v -3.17196680 8.86505196 1.15137110
v -1.45142339 9.78470168 1.15148818
v -0.97957067 9.90310527 0.31771450
v -1.91699013 9.61791607 0.31159642
v -0.49008570 9.97592363 1.15148818
v 0.00265818 9.99999929 0.31979746
v 0.49015961 9.97591635 1.15258133
v 0.97437980 9.90413948 0.32056889
v 1.45142339 9.78470168 1.15148818
v 1.91720582 9.61782653 0.32076764
v 2.35716435 9.40950975 1.15268641
v 2.77747592 9.15759877 0.32087442
v 3.17196642 8.86505227 1.15148818
v -4.38947497 7.39426596 1.18212686
v -3.85367676 8.18577706 1.16538029
v -1.91341716 9.61939766 -2.00000000
v -0.97545161 9.90392640 -2.00000000
v -2.77785117 9.15734806 0.30297635
v -3.53031544 8.54074468 0.33391442
v -0.00000000 10.00000000 -2.00000000
v 0.97545161 9.90392640 -2.00000000
v 1.91341716 9.61939766 -2.00000000
v 2.77785117 9.15734806 -2.00000000
v 4.38982672 7.39362097 1.18166248
v 3.53553391 8.53553391 -2.00000000
v 4.15734806 7.77785117 -2.00000000
v -4.15734806 7.77785117 -2.00000000
v -3.53553391 8.53553391 -2.00000000
v 3.53240972 8.53865534 0.33986484
v 3.85910303 8.17920175 1.15956788
v 4.39349660 7.38687822 -1.31299751
v -4.39361299 7.38666397 -1.31343536
v -4.10594901 7.85327579 0.38054959
v 4.10683366 7.85200233 0.38117329
v 4.94483723 5.74066508 1.26214936
v -4.94668352 5.72823223 1.26459378
v -2.77785117 9.15734806 -2.00000000
v 3.94936004 6.19802527 -2.00000000
v 4.20480589 5.31184735 -2.00000000
v 3.60334792 5.46223088 -2.00000000
v 0.60744571 4.22537996 -2.00000000
v 1.41343524 4.52588605 -2.00000000
v 1.45241349 3.93757744 -2.00000000
v 0.79485154 3.39577525 -2.00000000
v 2.99493268 5.30032084 -2.00000000
v 2.89287803 4.50709309 -2.00000000
v 0.40079380 9.12356198 -2.00000000
v 0.40022553 8.43301934 -2.00000000
v -0.28398526 8.57575878 -2.00000000
v -3.26794662 -3.00739560 -2.00000000
v -2.40945284 -3.54291260 -2.00000000
v -3.40376526 -4.09716227 -2.00000000
v -0.44230804 -4.12184008 -2.00000000
v 0.26286099 -3.10465332 -2.00000000
v 0.55803529 -4.08945229 -2.00000000
v 2.81560881 3.14381121 -2.00000000
v 2.04073234 2.84113199 -2.00000000
v 2.33450920 3.72486206 -2.00000000
v 2.36757929 7.55460103 -2.00000000
v 1.78933171 7.99352849 -2.00000000
v 2.58624481 8.27609147 -2.00000000
v -0.66390071 -3.20299184 -2.00000000
v 1.55641440 3.29901461 -2.00000000
v 1.27382553 -3.16323864 -2.00000000
v 1.49999821 -4.13397563 -2.00000000
v -2.26832640 -2.47088430 -2.00000000
v -3.27726513 -2.01185092 -2.00000000
v -0.23651692 9.35479061 -2.00000000
v 2.69692392 2.16229132 -2.00000000
v -1.50001751 -4.11591051 -2.00000000
v -2.46264712 -4.35119707 -2.00000000
v 1.90664862 8.73518453 -2.00000000
v -1.97439973 1.62260490 -2.00000000
v -1.45507392 0.87521718 -2.00000000
v -2.45077899 0.72531642 -2.00000000
v 3.54056421 4.81710607 -2.00000000
v -1.60295208 -3.14397172 -2.00000000
v 3.21368647 3.76034167 -2.00000000
v 3.61195595 4.25343013 -2.00000000
v 4.11014815 3.54667556 -2.00000000
v 1.10489555 8.34279200 -2.00000000
v 1.21371348 9.09231105 -2.00000000
v -1.17379037 8.40870428 -2.00000000
v -1.85466526 7.98507886 -2.00000000
v -1.94548747 8.63975106 -2.00000000
v 3.32534970 2.55689612 -2.00000000
v 3.18630447 6.40954989 -2.00000000
v 2.83822551 7.01861712 -2.00000000
v 3.65151183 7.00206399 -2.00000000
v -2.74316042 1.55945939 -2.00000000
v -2.63033305 8.26040504 -2.00000000
v -2.44845004 7.55301438 -2.00000000
v -4.25025632 4.68041861 -2.00000000
v -3.96104606 3.96679394 -2.00000000
v 3.51241173 3.13957441 -2.00000000
v -2.89567980 7.00419119 -2.00000000
v -3.22699090 7.69306499 -2.00000000
v 3.23106345 -2.75072271 -2.00000000
v 4.13397471 -2.50000020 -2.00000000
v 4.00233977 -3.48035330 -2.00000000
v -2.21389856 6.95569232 -2.00000000
v -1.22432022 7.68344292 -2.00000000
v -0.62597309 7.87829394 -2.00000000
v -1.77865383 7.37939709 -2.00000000
v 3.20394272 7.68451202 -2.00000000
v -4.12220823 5.45361699 -2.00000000
v -4.28248253 3.24277671 -2.00000000
v -2.54044986 -1.56940921 -2.00000000
v 2.97049294 -3.56479384 -2.00000000
v -3.97694435 6.23408179 -2.00000000
v -1.44560023 9.11828895 -2.00000000
v -4.17472342 -3.46983635 -2.00000000
v 4.11458736 2.52004741 -2.00000000
v -3.68549997 6.99479523 -2.00000000
v -3.30655610 0.07681227 -2.00000000
v -2.56583233 -0.14403997 -2.00000000
v -3.16701850 -0.92477094 -2.00000000
v 4.23163679 4.41827029 -2.00000000
v -4.18155374 2.45032655 -2.00000000
v -3.46137450 2.81822369 -2.00000000
v -3.38088425 1.98258381 -2.00000000
v -0.22617505 3.51644649 -2.00000000
v -4.15748395 1.50887663 -2.00000000
v -3.34145524 1.03007687 -2.00000000
v -4.13372895 0.50538319 -2.00000000
v -1.59824196 2.50107282 -2.00000000
v -2.56828390 2.43671495 -2.00000000
v -2.05993255 3.23843531 -2.00000000
v -3.56522203 3.45225099 -2.00000000
v 4.21089293 0.42210895 -2.00000000
v 4.13356316 1.50551393 -2.00000000
v -2.20725538 -0.84007758 -2.00000000
v -3.22481931 6.37292583 -2.00000000
v -3.42180212 5.74198035 -2.00000000
v -4.11696574 -0.49182941 -2.00000000
v 1.68845980 2.02013097 -2.00000000
v -2.84263747 3.31826059 -2.00000000
v -4.13178789 -1.50201613 -2.00000000
v -0.15142607 1.84691613 -2.00000000
v 0.22653274 2.69955121 -2.00000000
v 0.77432265 1.93801873 -2.00000000
v 2.24474474 1.27507491 -2.00000000
v 3.18750556 1.39333871 -2.00000000
v -0.31508055 4.36771800 -2.00000000
v -0.82857673 9.07156326 -2.00000000
v -0.95680842 4.09676356 -2.00000000
v 1.31495789 1.18210377 -2.00000000
v 0.39128698 1.09055571 -2.00000000
v 4.25480443 -0.53794132 -2.00000000
v 3.38934427 -0.21973039 -2.00000000
v 1.15247794 2.69668179 -2.00000000
v 2.76051476 0.53420145 -2.00000000
v -0.69388239 2.58906253 -2.00000000
v -4.13853095 -2.49181442 -2.00000000
v 4.25068358 -1.49000384 -2.00000000
v 2.49656486 -4.17681650 -2.00000000
v 2.92167458 -1.13877952 -2.00000000
v 2.01549551 -1.25781166 -2.00000000
v 2.41626010 -0.36031010 -2.00000000
v -2.13547070 4.47541585 -2.00000000
v 2.55779462 -2.06031973 -2.00000000
v 1.62441778 -2.13598252 -2.00000000
v 2.25814356 -2.88667530 -2.00000000
v -0.78263349 -1.51653742 -2.00000000
v -0.21902964 -2.30665353 -2.00000000
v -1.17306293 -2.38715932 -2.00000000
v -3.49333155 5.13263863 -2.00000000
v -3.46360218 4.49182107 -2.00000000
v 3.45988982 -4.25035108 -2.00000000
v -0.38440105 -0.63700202 -2.00000000
v 0.17106756 -1.42258023 -2.00000000
v 0.56413702 -0.54190639 -2.00000000
v -1.72459914 -1.58539096 -2.00000000
v -1.32216010 -0.73308569 -2.00000000
v -1.78102882 0.01448131 -2.00000000
v 0.00481806 0.23204680 -2.00000000
v -0.91624352 0.13507884 -2.00000000
v -0.53623279 0.99853543 -2.00000000
v -1.07175966 1.75528619 -2.00000000
v 3.49471590 0.73877044 -2.00000000
v 1.86176040 0.41773574 -2.00000000
v 1.09135012 -1.33278091 -2.00000000
v 1.48113795 -0.45334444 -2.00000000
v 0.70432862 -2.23946894 -2.00000000
v 0.93760978 0.32400080 -2.00000000
v -1.22539725 3.30228567 -2.00000000
v 2.03637120 -3.61741656 -2.00000000
v -1.46337117 4.51194715 -2.00000000
v 2.79508497 5.90817816 -2.00000000
v 3.31733654 5.90816038 -2.00000000
v 3.56165717 1.96472695 -2.00000000
v 2.13147172 4.46647287 -2.00000000
v 2.54518480 6.46946313 -2.00000000
v 1.72745751 7.37764129 -2.00000000
v 0.61103713 7.87470367 -2.00000000
v -3.17765399 3.93128850 -2.00000000
v -2.81059858 4.44216920 -2.00000000
v -0.00000000 7.93892626 -2.00000000
v -2.79508497 5.90817816 -2.00000000
v 2.18404784 6.96652551 -2.00000000
v 1.19536900 7.68484274 -2.00000000
v 3.67213531 -0.96603523 -2.00000000
v 3.46218279 -1.81330811 -2.00000000
v -1.71030401 3.92567946 -2.00000000
v -2.57442005 6.45565439 -2.00000000
v -2.95092343 5.35474852 -2.00000000
v 4.27687657 -4.29644470 -2.00000000
v -4.26794919 -4.26794919 -2.00000000
v 0.79565280 8.74325878 -2.00000000
v -2.45882740 3.90467333 -2.00000000
v -3.06878800 4.86755063 -2.00000000
f 1 2 3
f 4 2 1
f 5 6 7
f 8 9 10
f 6 5 11
f 9 8 12
f 13 14 15
f 5 7 16
f 8 10 17
f 18 19 20
f 21 22 23
f 24 19 25
f 26 5 16
f 27 8 17
f 19 28 20
f 22 29 23
f 30 1 3
f 13 25 31
f 25 19 31
f 14 13 31
f 25 13 32
f 5 33 34
f 8 35 4
f 26 36 5
f 27 37 8
f 38 24 25
f 24 28 19
f 39 29 22
f 35 25 32
f 36 33 5
f 5 34 11
f 8 4 12
f 33 40 41
f 37 35 8
f 41 40 42
f 36 40 33
f 37 38 35
f 35 38 25
f 14 43 15
f 30 44 1
f 45 41 2
f 34 13 15
f 40 39 42
f 34 45 13
f 2 4 46
f 45 2 32
f 34 33 45
f 45 33 41
f 47 27 17
f 48 26 16
f 29 49 23
f 28 50 20
f 13 45 32
f 35 32 46
f 22 30 3
f 2 41 3
f 51 52 6
f 53 51 54
f 55 56 44
f 57 53 43
f 56 58 59
f 58 60 9
f 52 61 7
f 22 21 30
f 60 62 10
f 19 18 14
f 63 64 21
f 65 66 18
f 22 3 42
f 4 35 46
f 34 15 11
f 44 30 67
f 43 14 68
f 51 6 54
f 43 53 54
f 30 21 67
f 44 56 59
f 58 9 59
f 14 18 68
f 4 1 12
f 64 55 67
f 6 52 7
f 66 57 68
f 9 60 10
f 43 54 15
f 44 59 1
f 19 14 31
f 32 2 46
f 55 44 67
f 57 43 68
f 21 64 67
f 7 61 16
f 18 66 68
f 10 62 17
f 63 21 23
f 65 18 20
f 49 63 23
f 50 65 20
f 62 47 17
f 61 48 16
f 39 22 42
f 3 41 42
f 54 6 11
f 15 54 11
f 59 9 12
f 1 59 12
f 69 70 71
f 72 73 69
f 73 72 74
f 75 76 77
f 76 78 77
f 79 80 81
f 70 69 82
f 70 83 71
f 84 85 86
f 85 84 87
f 76 88 89
f 88 76 75
f 90 91 92
f 93 94 74
f 95 90 92
f 85 96 86
f 80 79 97
f 98 93 74
f 96 85 99
f 80 100 81
f 84 101 87
f 101 84 102
f 98 88 93
f 95 103 90
f 103 95 104
f 69 73 82
f 78 105 77
f 88 98 89
f 106 73 74
f 107 108 109
f 110 109 111
f 107 109 110
f 105 78 112
f 108 107 113
f 114 115 113
f 116 110 111
f 117 118 119
f 107 114 113
f 120 121 113
f 121 120 117
f 122 69 71
f 121 117 119
f 115 120 113
f 123 124 125
f 126 127 128
f 118 117 124
f 124 117 125
f 128 127 79
f 129 128 79
f 102 130 92
f 131 132 133
f 134 122 71
f 124 123 135
f 127 136 137
f 138 139 140
f 123 133 135
f 141 126 128
f 121 108 113
f 142 143 144
f 139 138 145
f 146 138 140
f 147 146 140
f 109 148 83
f 123 131 133
f 122 72 69
f 134 149 122
f 150 151 136
f 132 139 133
f 152 129 153
f 152 154 129
f 136 151 137
f 155 149 134
f 156 157 76
f 158 159 160
f 161 162 94
f 151 160 137
f 126 136 127
f 163 134 148
f 164 157 156
f 143 103 144
f 150 165 151
f 166 80 97
f 148 134 71
f 158 160 151
f 167 146 147
f 155 164 149
f 157 142 144
f 168 114 107
f 169 170 96
f 154 141 128
f 122 171 72
f 150 167 147
f 83 148 71
f 172 141 154
f 173 154 152
f 108 148 109
f 129 154 128
f 174 145 175
f 150 136 167
f 155 134 163
f 118 124 176
f 167 136 126
f 172 154 173
f 177 164 155
f 145 138 175
f 122 149 171
f 91 178 179
f 177 142 164
f 165 158 151
f 180 181 147
f 178 172 179
f 181 150 147
f 117 120 125
f 139 182 140
f 180 147 140
f 149 164 156
f 183 142 177
f 183 177 118
f 164 142 157
f 130 184 95
f 172 173 179
f 183 118 176
f 163 148 108
f 182 180 140
f 185 186 130
f 187 131 123
f 186 188 184
f 188 105 184
f 130 186 184
f 181 165 150
f 189 190 84
f 115 191 120
f 188 192 105
f 193 194 88
f 132 182 139
f 78 157 144
f 143 195 103
f 183 143 142
f 196 143 183
f 139 145 133
f 76 157 78
f 196 183 176
f 197 196 174
f 155 163 119
f 196 195 143
f 91 179 101
f 197 195 196
f 167 126 198
f 199 178 91
f 174 196 176
f 163 121 119
f 197 199 195
f 198 126 141
f 173 152 85
f 200 199 197
f 201 178 200
f 200 178 199
f 72 171 98
f 201 172 178
f 201 141 172
f 118 177 119
f 198 141 201
f 167 198 146
f 146 198 202
f 198 201 202
f 146 202 138
f 197 174 175
f 138 202 175
f 201 200 202
f 177 155 119
f 187 123 125
f 120 191 125
f 202 200 175
f 200 197 175
f 145 174 135
f 133 145 135
f 56 55 100
f 53 57 70
f 171 149 156
f 58 56 80
f 163 108 121
f 55 64 203
f 60 58 166
f 52 51 73
f 174 176 135
f 176 124 135
f 66 65 116
f 64 63 204
f 191 187 125
f 56 100 80
f 100 55 203
f 166 58 80
f 64 204 203
f 101 102 92
f 205 168 110
f 206 169 207
f 204 207 208
f 62 60 209
f 61 52 106
f 83 70 210
f 153 129 81
f 127 137 97
f 96 170 86
f 168 107 110
f 169 96 207
f 207 211 208
f 161 94 93
f 189 84 86
f 101 179 87
f 70 57 210
f 88 194 93
f 185 130 102
f 84 190 102
f 66 116 210
f 137 160 212
f 156 76 89
f 60 166 209
f 52 73 106
f 103 195 90
f 95 184 104
f 199 91 90
f 53 70 82
f 173 85 87
f 193 88 75
f 73 51 82
f 105 192 77
f 162 48 213
f 159 47 214
f 48 61 213
f 47 62 214
f 144 103 112
f 98 171 89
f 152 153 99
f 160 209 212
f 50 205 215
f 49 206 216
f 63 49 216
f 65 50 215
f 57 66 210
f 51 53 82
f 170 189 86
f 153 211 99
f 103 104 112
f 79 127 97
f 179 173 87
f 129 79 81
f 190 185 102
f 194 161 93
f 195 199 90
f 207 96 211
f 184 105 104
f 171 156 89
f 217 193 75
f 217 75 77
f 192 217 77
f 94 106 74
f 72 98 74
f 91 101 92
f 205 110 215
f 206 207 216
f 153 81 218
f 97 137 212
f 160 159 214
f 94 162 213
f 207 204 216
f 110 116 215
f 211 96 99
f 130 95 92
f 109 83 111
f 61 106 213
f 62 209 214
f 85 152 99
f 204 63 216
f 116 65 215
f 78 144 112
f 210 116 111
f 100 203 218
f 203 204 208
f 106 94 213
f 209 160 214
f 208 153 218
f 211 153 208
f 104 105 112
f 209 166 212
f 203 208 218
f 83 210 111
f 166 97 212
f 81 100 218
f 219 220 221
f 219 222 220
f 223 224 225
f 224 223 226
f 220 227 221
f 228 229 225
f 230 231 232
f 233 228 225
f 234 235 236
f 235 234 237
f 238 230 232
f 234 239 237
f 231 230 221
f 240 241 242
f 243 228 244
f 245 246 222
f 247 239 248
f 249 250 251
f 248 252 224
f 253 254 223
f 235 255 242
f 256 257 227
f 228 258 229
f 259 260 244
f 238 261 249
f 259 250 249
f 238 249 251
f 240 245 241
f 241 245 222
f 262 255 235
f 247 263 239
f 264 247 248
f 243 258 228
f 265 260 259
f 261 265 249
f 265 259 249
f 219 241 222
f 248 239 252
f 259 266 250
f 267 219 230
f 255 240 242
f 258 268 229
f 260 243 244
f 269 261 238
f 242 241 267
f 259 244 266
f 250 266 234
f 267 241 219
f 270 223 225
f 239 234 271
f 230 238 272
f 273 264 226
f 248 224 226
f 274 253 270
f 275 256 220
f 256 227 220
f 253 223 270
f 264 248 226
f 276 277 231
f 262 235 237
f 239 263 237
f 250 234 236
f 269 238 232
f 278 274 279
f 268 278 279
f 246 280 281
f 254 282 283
f 282 273 283
f 280 275 281
f 244 228 284
f 235 242 285
f 286 276 287
f 257 286 287
f 231 277 232
f 236 235 285
f 228 233 284
f 230 219 221
f 273 226 283
f 275 220 281
f 274 270 279
f 263 262 237
f 277 269 232
f 251 250 236
f 224 252 233
f 227 257 287
f 223 254 283
f 222 246 281
f 229 268 279
f 252 239 271
f 252 271 284
f 238 251 272
f 272 251 285
f 266 244 284
f 234 266 271
f 271 266 284
f 242 267 285
f 267 230 272
f 267 272 285
f 226 223 283
f 220 222 281
f 270 229 279
f 227 231 221
f 231 227 287
f 276 231 287
f 229 270 225
f 224 233 225
f 251 236 285
f 233 252 284
f 288 289 290
f 288 291 289
f 292 293 294
f 293 292 295
f 289 296 290
f 297 298 294
f 299 300 301
f 302 297 294
f 303 304 305
f 304 303 306
f 307 299 301
f 303 308 306
f 300 299 290
f 309 310 311
f 312 297 313
f 314 315 291
f 316 308 317
f 318 319 320
f 317 321 293
f 253 274 296
f 322 323 292
f 304 324 311
f 297 325 298
f 326 327 313
f 307 328 318
f 326 319 318
f 307 318 320
f 309 314 310
f 310 314 291
f 329 324 304
f 316 330 308
f 331 316 317
f 312 325 297
f 332 327 326
f 328 332 318
f 332 326 318
f 288 310 291
f 317 308 321
f 326 333 319
f 334 288 299
f 324 309 311
f 325 335 298
f 327 312 313
f 336 328 307
f 311 310 334
f 326 313 333
f 319 333 303
f 334 310 288
f 337 292 294
f 308 303 338
f 299 307 339
f 340 331 295
f 317 293 295
f 254 253 289
f 341 322 337
f 253 296 289
f 322 292 337
f 331 317 295
f 342 343 300
f 329 304 306
f 308 330 306
f 319 303 305
f 336 307 301
f 344 341 345
f 335 344 345
f 315 282 346
f 282 254 346
f 323 347 348
f 347 340 348
f 313 297 349
f 304 311 350
f 278 342 351
f 274 278 351
f 300 343 301
f 305 304 350
f 297 302 349
f 299 288 290
f 340 295 348
f 254 289 346
f 341 337 345
f 330 329 306
f 343 336 301
f 320 319 305
f 293 321 302
f 296 274 351
f 292 323 348
f 291 315 346
f 298 335 345
f 321 308 338
f 321 338 349
f 307 320 339
f 339 320 350
f 333 313 349
f 303 333 338
f 338 333 349
f 311 334 350
f 334 299 339
f 334 339 350
f 295 292 348
f 289 291 346
f 337 298 345
f 296 300 290
f 300 296 351
f 342 300 351
f 298 337 294
f 293 302 294
f 320 305 350
f 302 321 349
f 352 353 354
f 352 355 353
f 356 357 358
f 357 356 359
f 353 360 354
f 361 362 358
f 363 364 365
f 366 361 358
f 367 368 369
f 368 367 370
f 371 363 365
f 367 372 370
f 364 363 354
f 373 374 375
f 376 361 377
f 378 379 355
f 380 372 381
f 382 383 384
f 381 385 357
f 256 275 356
f 368 386 375
f 387 388 360
f 361 389 362
f 390 391 377
f 371 392 382
f 390 383 382
f 371 382 384
f 373 378 374
f 374 378 355
f 393 386 368
f 380 394 372
f 395 380 381
f 376 389 361
f 396 391 390
f 392 396 382
f 396 390 382
f 352 374 355
f 381 372 385
f 390 397 383
f 398 352 363
f 386 373 375
f 389 399 362
f 391 376 377
f 400 392 371
f 375 374 398
f 390 377 397
f 383 397 367
f 398 374 352
f 401 356 358
f 372 367 402
f 363 371 403
f 404 395 359
f 381 357 359
f 257 256 401
f 405 387 353
f 387 360 353
f 256 356 401
f 395 381 359
f 406 407 364
f 393 368 370
f 372 394 370
f 383 367 369
f 400 371 365
f 286 257 408
f 399 286 408
f 379 409 410
f 275 280 411
f 280 404 411
f 409 405 410
f 377 361 412
f 368 375 413
f 414 406 415
f 388 414 415
f 364 407 365
f 369 368 413
f 361 366 412
f 363 352 354
f 404 359 411
f 405 353 410
f 257 401 408
f 394 393 370
f 407 400 365
f 384 383 369
f 357 385 366
f 360 388 415
f 356 275 411
f 355 379 410
f 362 399 408
f 385 372 402
f 385 402 412
f 371 384 403
f 403 384 413
f 397 377 412
f 367 397 402
f 402 397 412
f 375 398 413
f 398 363 403
f 398 403 413
f 359 356 411
f 353 355 410
f 401 362 408
f 360 364 354
f 364 360 415
f 406 364 415
f 362 401 358
f 357 366 358
f 384 369 413
f 366 385 412
f 416 417 418
f 419 420 421
f 47 422 423
f 424 425 426
f 427 425 424
f 428 417 429
f 430 431 432
f 433 434 50
f 435 436 437
f 438 439 440
f 441 442 443
f 444 445 446
f 416 447 448
f 446 449 444
f 450 451 452
f 452 453 450
f 454 428 429
f 455 456 457
f 418 417 458
f 459 456 455
f 421 420 325
f 429 460 454
f 461 447 462
f 463 464 465
f 448 417 416
f 416 418 466
f 437 436 467
f 432 468 430
f 458 417 428
f 435 464 463
f 443 442 469
f 470 471 472
f 422 473 423
f 423 473 474
f 447 475 462
f 448 447 461
f 469 442 476
f 476 477 469
f 478 479 480
f 453 475 450
f 481 482 483
f 473 484 474
f 459 445 456
f 485 439 438
f 440 439 414
f 446 445 459
f 433 486 434
f 487 416 466
f 472 488 470
f 489 479 490
f 490 491 492
f 457 493 494
f 419 495 474
f 494 455 457
f 187 496 497
f 115 498 499
f 168 500 501
f 498 491 490
f 502 485 438
f 487 466 433
f 483 482 503
f 496 479 478
f 492 489 490
f 426 504 424
f 500 485 502
f 414 505 406
f 506 430 507
f 508 469 509
f 510 480 511
f 512 503 513
f 514 492 515
f 503 482 441
f 516 517 518
f 519 438 440
f 439 505 414
f 437 464 435
f 480 520 478
f 460 488 454
f 429 417 448
f 512 483 503
f 454 488 472
f 406 505 418
f 521 522 523
f 492 524 515
f 463 495 419
f 486 485 434
f 441 443 503
f 418 505 466
f 480 479 489
f 522 525 523
f 508 443 469
f 421 463 419
f 312 421 325
f 526 453 452
f 191 496 187
f 114 498 115
f 205 500 168
f 492 491 524
f 392 428 454
f 527 528 522
f 522 528 504
f 500 502 501
f 498 490 499
f 406 418 407
f 529 468 432
f 514 489 492
f 517 483 518
f 522 530 527
f 531 532 533
f 38 452 24
f 496 478 497
f 452 534 526
f 535 534 37
f 536 461 537
f 486 439 485
f 537 538 539
f 540 445 444
f 533 532 541
f 407 458 400
f 542 543 544
f 506 477 430
f 469 477 509
f 503 443 513
f 518 483 512
f 545 537 539
f 37 534 38
f 407 418 458
f 546 547 548
f 396 454 472
f 392 454 396
f 524 491 502
f 480 489 511
f 312 436 421
f 549 457 550
f 462 538 537
f 487 475 447
f 336 449 542
f 444 449 343
f 545 536 537
f 343 449 336
f 481 483 517
f 332 544 467
f 332 467 327
f 542 544 328
f 328 544 332
f 426 425 261
f 243 550 551
f 336 542 328
f 472 471 391
f 265 549 260
f 265 425 549
f 549 550 260
f 396 472 391
f 376 471 552
f 269 426 261
f 391 471 376
f 243 551 258
f 261 425 265
f 260 550 243
f 342 444 343
f 376 552 389
f 276 523 277
f 461 462 537
f 519 524 438
f 536 553 461
f 47 554 27
f 539 538 555
f 556 546 548
f 553 448 461
f 557 548 558
f 400 428 392
f 556 527 470
f 559 494 560
f 561 532 531
f 427 424 560
f 562 446 459
f 561 531 563
f 557 556 548
f 548 564 558
f 556 470 546
f 562 459 565
f 494 427 560
f 556 566 527
f 559 560 557
f 424 566 560
f 458 428 400
f 557 566 556
f 560 566 557
f 531 567 568
f 568 565 563
f 559 557 558
f 531 568 563
f 487 447 416
f 568 562 565
f 569 561 570
f 571 558 570
f 561 563 571
f 571 559 558
f 561 571 570
f 569 570 545
f 559 572 494
f 545 564 536
f 450 475 487
f 573 539 555
f 569 545 539
f 421 436 435
f 531 533 567
f 494 493 427
f 570 564 545
f 558 564 570
f 573 569 539
f 571 572 559
f 563 572 571
f 565 572 563
f 574 573 555
f 574 541 573
f 555 538 526
f 553 429 448
f 569 532 561
f 452 451 24
f 515 524 519
f 573 532 569
f 258 540 268
f 389 521 399
f 567 543 568
f 422 575 473
f 555 526 576
f 27 577 37
f 504 525 522
f 536 547 553
f 578 579 422
f 421 435 463
f 548 547 564
f 541 532 573
f 438 524 502
f 513 443 508
f 564 547 536
f 568 543 562
f 344 580 516
f 484 419 474
f 459 455 565
f 574 555 576
f 426 581 504
f 465 464 541
f 552 522 521
f 470 530 471
f 497 478 432
f 582 482 481
f 583 442 441
f 584 431 476
f 478 520 529
f 457 456 550
f 24 451 28
f 467 436 327
f 432 431 585
f 441 482 586
f 529 520 587
f 476 442 588
f 574 465 541
f 587 468 529
f 551 540 258
f 552 521 389
f 28 589 50
f 269 581 426
f 523 581 277
f 590 580 344
f 542 591 543
f 576 535 592
f 572 455 494
f 526 535 576
f 427 493 425
f 538 453 526
f 473 590 484
f 497 585 131
f 132 585 584
f 584 588 182
f 180 588 583
f 583 586 181
f 165 586 582
f 582 578 158
f 554 577 27
f 159 578 422
f 504 528 424
f 478 529 432
f 425 493 549
f 546 593 547
f 565 455 572
f 268 594 278
f 278 594 342
f 286 595 276
f 399 595 286
f 588 442 583
f 586 482 582
f 585 431 584
f 552 530 522
f 596 574 576
f 497 432 585
f 516 580 517
f 582 481 578
f 583 441 586
f 584 476 588
f 517 579 481
f 511 489 514
f 510 520 480
f 509 477 506
f 430 468 507
f 132 584 182
f 187 497 131
f 180 583 181
f 115 499 191
f 168 501 114
f 165 582 158
f 159 422 47
f 50 434 205
f 433 466 486
f 486 505 439
f 596 465 574
f 131 585 132
f 182 588 180
f 181 586 165
f 158 578 159
f 424 528 566
f 575 579 517
f 476 597 477
f 422 579 575
f 543 591 562
f 466 505 486
f 423 474 598
f 47 423 554
f 460 593 546
f 587 520 510
f 429 593 460
f 507 468 587
f 596 576 592
f 553 593 429
f 550 456 551
f 533 464 437
f 499 496 191
f 501 498 114
f 434 500 205
f 527 530 470
f 596 495 465
f 28 451 589
f 277 581 269
f 567 599 543
f 456 445 551
f 474 495 598
f 325 420 335
f 465 495 463
f 490 479 499
f 499 479 496
f 533 437 567
f 502 491 501
f 501 491 498
f 598 592 554
f 592 577 554
f 462 475 453
f 327 436 312
f 575 590 473
f 589 433 50
f 543 599 544
f 598 596 592
f 462 453 538
f 541 464 533
f 446 591 449
f 449 591 542
f 589 450 487
f 598 495 596
f 423 598 554
f 526 534 535
f 517 580 575
f 37 577 535
f 434 485 500
f 546 488 460
f 335 600 344
f 470 488 546
f 477 597 430
f 471 530 552
f 540 594 268
f 521 595 399
f 551 445 540
f 523 525 581
f 535 577 592
f 589 451 450
f 342 594 444
f 276 595 523
f 589 487 433
f 562 591 446
f 566 528 527
f 544 599 467
f 549 493 457
f 444 594 540
f 523 595 521
f 431 597 476
f 344 600 590
f 547 593 553
f 38 534 452
f 484 420 419
f 575 580 590
f 481 579 578
f 590 600 484
f 437 599 567
f 581 525 504
f 467 599 437
f 430 597 431
f 484 600 420
f 420 600 335
f 601 602 603
f 604 605 606
f 607 608 609
f 610 608 607
f 602 611 603
f 604 612 605
f 613 614 615
f 616 617 618
f 619 620 609
f 621 622 623
f 614 624 615
f 616 625 617
f 607 626 627
f 627 610 607
f 609 608 619
f 628 629 630
f 630 631 628
f 628 632 633
f 633 629 628
f 634 631 630
f 630 635 634
f 627 626 634
f 634 635 627
f 633 632 621
f 621 636 633
f 623 636 621
f 613 615 637
f 322 613 637
f 638 616 618
f 615 605 637
f 638 602 616
f 615 639 605
f 602 640 616
f 638 618 387
f 322 637 323
f 405 638 387
f 341 613 322
f 387 618 388
f 509 641 508
f 508 641 642
f 643 641 509
f 643 644 645
f 646 647 644
f 646 644 643
f 648 649 647
f 646 648 647
f 650 651 649
f 647 634 644
f 650 649 648
f 650 652 651
f 652 653 651
f 651 628 649
f 654 653 652
f 510 652 650
f 512 655 518
f 512 656 655
f 657 627 658
f 659 609 660
f 661 630 662
f 507 648 646
f 663 633 664
f 642 659 660
f 642 656 513
f 519 665 515
f 507 646 506
f 666 623 667
f 642 660 656
f 510 650 587
f 508 642 513
f 513 656 512
f 514 654 511
f 668 619 669
f 511 652 510
f 654 652 511
f 587 648 507
f 650 648 587
f 646 643 506
f 506 643 509
f 659 645 607
f 659 607 609
f 670 621 653
f 645 641 643
f 642 641 659
f 514 671 654
f 515 671 514
f 665 671 515
f 659 641 645
f 654 670 653
f 654 671 670
f 640 672 623
f 619 673 639
f 440 617 519
f 518 614 516
f 660 674 656
f 671 675 670
f 609 620 660
f 670 622 621
f 388 676 414
f 519 617 665
f 655 614 518
f 414 676 440
f 656 674 655
f 665 675 671
f 323 612 347
f 409 611 405
f 344 677 341
f 603 611 409
f 347 612 604
f 516 677 344
f 623 622 640
f 639 620 619
f 605 612 637
f 638 611 602
f 621 632 653
f 645 626 607
f 657 610 627
f 647 631 634
f 634 626 644
f 651 632 628
f 628 631 649
f 619 608 669
f 663 629 633
f 630 629 662
f 661 635 630
f 627 635 658
f 633 636 664
f 666 636 623
f 615 624 639
f 668 673 619
f 623 672 667
f 640 625 616
f 601 672 602
f 605 673 606
f 639 624 674
f 675 625 640
f 617 625 665
f 655 624 614
f 667 672 601
f 606 673 668
f 602 672 640
f 639 673 605
f 660 620 674
f 675 622 670
f 678 610 657
f 678 608 610
f 644 626 645
f 649 631 647
f 653 632 651
f 669 608 678
f 662 629 663
f 658 635 661
f 664 636 666
f 618 676 388
f 637 612 323
f 405 611 638
f 341 677 613
f 614 677 516
f 674 620 639
f 640 622 675
f 440 676 617
f 613 677 614
f 617 676 618
f 674 624 655
f 665 625 675
f 679 680 681
f 603 680 679
f 682 683 684
f 684 685 682
f 48 686 687
f 688 689 690
f 691 692 693
f 694 695 696
f 697 698 699
f 700 701 702
f 703 695 694
f 684 704 685
f 698 704 699
f 705 706 696
f 707 691 708
f 696 695 705
f 690 709 688
f 710 698 697
f 703 694 711
f 692 712 693
f 707 692 691
f 702 701 713
f 714 715 716
f 686 717 687
f 711 718 703
f 719 720 721
f 713 701 722
f 722 723 713
f 724 725 726
f 697 727 710
f 699 704 684
f 728 729 730
f 716 731 714
f 732 725 733
f 340 734 735
f 721 736 719
f 733 737 738
f 739 740 741
f 742 737 733
f 185 743 744
f 189 742 745
f 730 729 746
f 604 747 347
f 743 725 724
f 735 748 340
f 738 732 733
f 708 749 707
f 741 750 739
f 662 688 661
f 664 713 663
f 657 726 678
f 667 746 666
f 669 738 668
f 746 729 700
f 606 751 604
f 603 679 601
f 726 752 724
f 693 753 691
f 754 721 378
f 738 755 668
f 667 730 746
f 373 754 378
f 751 747 604
f 756 757 758
f 379 759 409
f 700 702 746
f 409 680 603
f 760 761 762
f 726 725 732
f 682 685 763
f 664 702 713
f 760 748 761
f 331 760 316
f 764 765 766
f 767 768 769
f 748 770 761
f 771 772 386
f 758 757 773
f 330 764 766
f 774 775 751
f 717 680 759
f 329 776 324
f 760 764 316
f 373 772 754
f 756 758 776
f 714 768 767
f 190 743 185
f 170 742 189
f 378 721 379
f 760 762 764
f 777 698 710
f 768 778 769
f 324 776 779
f 754 736 721
f 742 733 745
f 780 781 782
f 764 762 765
f 783 710 784
f 763 785 682
f 786 709 690
f 606 755 751
f 669 732 738
f 679 730 601
f 777 710 783
f 759 680 409
f 36 682 40
f 761 768 762
f 743 724 744
f 39 785 787
f 782 777 788
f 721 759 379
f 766 776 329
f 765 716 756
f 780 782 789
f 662 723 688
f 713 723 663
f 746 702 666
f 668 755 606
f 601 730 667
f 771 790 791
f 40 785 39
f 782 781 792
f 783 784 793
f 316 764 330
f 726 732 678
f 794 781 780
f 721 720 759
f 765 756 766
f 782 792 777
f 779 708 795
f 708 691 795
f 751 755 774
f 728 730 679
f 393 771 386
f 330 766 329
f 380 740 796
f 240 706 797
f 324 779 309
f 380 796 394
f 779 795 309
f 262 696 255
f 696 706 255
f 741 740 395
f 395 740 380
f 247 711 263
f 240 797 245
f 255 706 240
f 309 795 314
f 404 741 395
f 273 693 264
f 798 799 800
f 29 801 49
f 681 680 717
f 782 788 789
f 802 803 799
f 804 705 803
f 805 806 807
f 734 808 809
f 810 750 741
f 811 812 805
f 802 739 804
f 802 804 803
f 813 812 811
f 798 802 799
f 747 734 347
f 386 772 373
f 756 776 766
f 814 773 815
f 715 816 716
f 807 707 814
f 806 703 807
f 738 737 755
f 805 807 814
f 777 783 788
f 817 813 811
f 817 818 819
f 791 798 800
f 794 780 820
f 805 812 806
f 811 805 815
f 262 694 696
f 711 694 263
f 805 814 815
f 686 681 717
f 811 815 818
f 789 817 819
f 817 811 818
f 772 821 784
f 780 819 820
f 794 820 767
f 780 789 819
f 707 718 692
f 763 781 794
f 761 778 768
f 793 800 822
f 793 791 800
f 36 683 682
f 717 720 687
f 771 821 772
f 803 823 799
f 747 808 734
f 820 714 767
f 799 824 800
f 783 793 822
f 705 825 803
f 817 826 813
f 819 715 820
f 755 737 774
f 347 734 340
f 691 753 795
f 818 715 819
f 776 758 779
f 314 753 315
f 245 810 246
f 827 763 794
f 783 822 788
f 705 828 706
f 263 694 262
f 727 736 754
f 779 758 708
f 39 829 29
f 820 715 714
f 822 826 788
f 830 831 686
f 340 748 331
f 705 695 825
f 666 702 664
f 788 826 789
f 711 712 692
f 789 826 817
f 710 832 784
f 803 825 823
f 727 832 710
f 827 794 767
f 48 833 26
f 826 824 813
f 687 720 719
f 759 720 717
f 744 724 690
f 834 729 728
f 835 701 700
f 26 683 36
f 822 824 826
f 836 689 722
f 799 823 824
f 393 790 771
f 796 790 394
f 724 752 786
f 800 824 822
f 791 821 771
f 837 809 838
f 792 698 777
f 690 689 839
f 840 775 774
f 700 729 841
f 786 752 658
f 722 701 842
f 765 731 716
f 658 709 786
f 763 685 781
f 795 753 314
f 797 810 245
f 807 718 707
f 798 843 844
f 845 787 827
f 813 823 812
f 773 816 815
f 827 787 763
f 824 823 813
f 692 718 711
f 744 839 186
f 188 839 836
f 836 842 192
f 217 842 835
f 835 841 193
f 775 747 751
f 194 841 834
f 169 840 846
f 834 830 161
f 29 829 801
f 847 840 206
f 162 830 686
f 818 816 715
f 719 697 699
f 247 712 711
f 693 712 264
f 823 825 812
f 735 734 809
f 724 786 690
f 246 848 280
f 280 848 404
f 282 849 273
f 315 849 282
f 812 825 806
f 825 695 806
f 842 701 835
f 841 729 834
f 839 689 836
f 827 767 769
f 847 775 840
f 707 749 814
f 744 690 839
f 806 695 703
f 834 728 830
f 840 774 846
f 835 700 841
f 679 831 728
f 836 722 842
f 678 732 669
f 657 752 726
f 663 723 662
f 688 709 661
f 185 744 186
f 188 836 192
f 217 835 193
f 189 745 190
f 169 846 170
f 194 834 161
f 162 686 48
f 49 847 206
f 714 731 768
f 687 719 699
f 844 843 796
f 798 844 802
f 186 839 188
f 192 842 217
f 193 841 194
f 161 830 162
f 206 840 169
f 686 831 681
f 722 850 723
f 739 750 804
f 793 821 791
f 394 790 393
f 739 844 740
f 851 837 838
f 801 838 49
f 658 752 657
f 837 735 809
f 833 683 26
f 661 709 658
f 750 828 804
f 703 718 807
f 845 827 769
f 681 831 679
f 768 731 762
f 331 748 760
f 745 743 190
f 846 742 170
f 773 749 758
f 815 816 818
f 802 844 739
f 846 737 742
f 48 687 833
f 804 828 705
f 733 725 745
f 745 725 743
f 801 845 851
f 801 829 845
f 781 685 792
f 740 844 796
f 774 737 846
f 784 832 772
f 845 769 851
f 699 684 833
f 758 749 708
f 772 832 754
f 775 808 747
f 787 785 763
f 801 851 838
f 264 712 247
f 49 852 847
f 787 829 39
f 814 749 773
f 762 731 765
f 723 850 688
f 687 699 833
f 684 683 833
f 753 849 315
f 810 848 246
f 769 778 851
f 719 736 697
f 838 852 49
f 845 829 787
f 697 736 727
f 404 848 741
f 273 849 693
f 847 808 775
f 773 757 816
f 796 843 790
f 685 704 792
f 716 757 756
f 809 852 838
f 851 778 837
f 784 821 793
f 706 828 797
f 754 832 727
f 797 828 750
f 693 849 753
f 741 848 810
f 791 843 798
f 689 850 722
f 778 770 837
f 682 785 40
f 797 750 810
f 792 704 698
f 761 770 778
f 728 831 830
f 816 757 716
f 790 843 791
f 735 770 748
f 837 770 735
f 847 852 808
f 688 850 689
f 808 852 809
