v -1.47041967 0.00000000 -0.05962840
v -0.55055446 0.00000000 -0.15703922
v -1.01001997 0.00000000 -0.74828260
v -1.09078913 0.00000000 0.56669694
v 1.55997437 0.00000000 -1.25767178
v 2.05474885 0.00000000 -0.77128417
v 2.09134053 0.00000000 -1.25150749
v -1.51919328 0.00000000 1.27579494
v -2.05474328 0.00000000 0.77128417
v -2.06698730 0.00000000 1.25000000
v 1.62853280 0.00000000 -0.50000000
v -1.62844109 0.00000000 0.50000000
v 0.84651914 0.00000000 0.21721670
v 1.62830962 0.00000000 0.71074968
v 1.55966812 0.00000000 -0.00000000
v 2.10545904 0.00000000 -1.60183586
v -2.09243217 0.00000000 1.60515899
v 2.07141639 0.00000000 1.20770204
v 1.46679921 0.00000000 1.39469716
v 2.08283918 0.00000000 1.62047984
v -2.07401478 0.00000000 -1.22090909
v -1.51223801 0.00000000 -1.40789086
v -2.09244661 0.00000000 -1.62575999
v 0.99986501 0.00000000 2.00000000
v 0.45061309 0.00000000 1.16267703
v 1.87598029 0.00000000 -2.00000000
v -1.87598029 0.00000000 2.00000000
v 1.87598029 0.00000000 2.00000000
v -1.87598029 0.00000000 -2.00000000
v -1.66462046 0.00000000 -0.75000000
v 1.04942526 0.00000000 0.85790428
v 0.04724491 0.00000000 0.40613518
v 0.57617345 0.00000000 -1.21606160
v 1.08951707 0.00000000 -0.57402850
v -0.50881596 0.00000000 1.12957029
v 0.99986501 0.00000000 -2.00000000
v -0.99986501 0.00000000 2.00000000
v 0.00000000 0.00000000 2.00000000
v -0.99986501 0.00000000 -2.00000000
v 0.00000000 0.00000000 -2.00000000
v -0.24807498 0.00000000 -0.97682565
v -0.75403959 0.00000000 -1.42659982
v 2.06849904 0.00000000 0.29166667
v -2.06838683 0.00000000 -0.29166667
v 0.27615399 0.00000000 -0.38261707
v -0.52572866 0.00000000 0.48634080
v -2.50000000 0.00000000 2.00000000
v 2.50000000 0.00000000 -2.00000000
v -2.50000000 0.00000000 -2.00000000
v 2.50000000 0.00000000 2.00000000
v 2.50000000 0.00000000 -0.50000000
v 2.50000000 0.00000000 -1.00000000
v 2.50000000 0.00000000 -0.00000000
v 2.06698730 0.00000000 -0.25000000
v -2.50000000 0.00000000 -0.50000000
v -2.50000000 0.00000000 0.00000000
v 2.50000000 0.00000000 0.50000000
v -2.50000000 0.00000000 0.50000000
v -2.06698730 0.00000000 0.25000000
v -2.50000000 0.00000000 1.00000000
v 2.50000000 0.00000000 -1.50000000
v -2.50000000 0.00000000 1.50000000
v -2.50000000 0.00000000 -1.50000000
v -2.50000000 0.00000000 -1.00000000
v 2.50000000 0.00000000 1.50000000
v 2.50000000 0.00000000 1.00000000
v -2.14949412 0.00000000 -0.75179654
v 2.15364501 0.00000000 0.74202368
v 2.36529305 0.80956086 -0.26630134
v 2.45000988 0.49744505 0.22680985
v 2.27386179 1.03901519 0.18220376
v 2.27138471 1.04441923 -0.72096576
v 2.44635873 0.51510094 -0.74199391
v 2.33047629 0.90492003 -1.17376468
v 1.46017239 2.02926011 -1.65803975
v 1.45506138 2.03292803 -1.17719420
v 1.07642154 2.25639462 -1.60301326
v 0.99528563 2.29333960 -1.17357978
v -2.28129585 1.02258948 0.21372785
v -2.43892811 0.54920822 0.23418802
v -2.35078567 0.85076831 -0.19830875
v 2.47231132 0.37104814 -0.25000000
v 2.34912066 0.85535497 0.63701101
v -1.46946313 2.02254249 -1.54758572
v -1.83255407 1.70051333 -1.17258846
v -1.83918929 1.69333480 -1.62511613
v -1.48240254 2.01307792 -1.07563751
v 1.85786206 1.67282652 -1.54758572
v 1.83406656 1.69888194 -1.08213862
v -0.31308330 2.48031830 -0.69016604
v -0.79757849 2.36936037 -0.70521364
v -0.64673570 2.41489812 -1.14681091
v 2.17445361 1.23359292 -1.60886053
v 2.38006347 0.76504764 -1.60324888
v -0.14780241 2.49562706 -1.13907237
v -2.13776097 1.29613966 -1.52134523
v -2.34933835 0.85475688 0.63258412
v 2.11759522 1.32883049 -1.14923602
v -2.10146915 1.35418883 -1.07364094
v -2.46250000 0.43138585 -0.25000000
v -1.09956585 2.24520710 -1.14981813
v -0.99286704 2.29438773 -1.59856932
v 0.23274264 2.48914260 -0.75034025
v 0.25253962 2.48721204 -1.19938542
v 0.56442271 2.43545212 -1.52649057
v 2.46330149 0.42678540 -1.23665454
v 2.15893400 1.26055701 1.54030479
v 2.01483583 1.48001236 1.06942466
v 2.25343715 1.08259918 1.05168531
v 2.37862833 0.76949806 1.51233214
v 2.40350773 0.68785943 0.97696043
v 0.60760433 2.42503958 -1.09674325
v 1.85624425 1.67462153 1.52907848
v 2.02254249 1.46946313 2.00000000
v 1.67282652 1.85786206 2.00000000
v 2.47547118 0.34934570 1.24757298
v 1.24195418 2.16968888 1.08880514
v 1.00477389 2.28919842 0.63168697
v 1.45891154 2.03016677 0.62714735
v 1.46790708 2.02367211 1.54405296
v 1.66656328 1.86348245 1.07764568
v 2.15221982 1.27198658 -0.27888739
v 0.51764340 2.44582201 1.54534352
v 0.76170966 2.38113385 1.08633297
v 1.01319890 2.28548200 1.54492559
v -1.86149316 1.66878495 0.64541025
v -2.15568419 1.26610650 0.63770135
v -2.02179394 1.47049287 0.19724300
v -2.15299243 1.27067840 -0.23864123
v -0.49726701 2.45004602 -1.57840006
v 0.26132116 2.48630474 2.00000000
v -0.26132116 2.48630474 2.00000000
v -0.00116565 2.49999973 1.54062528
v 2.01152683 1.48450659 0.17009816
v 0.25348465 2.48711591 1.08766221
v -2.02395511 1.46751685 1.09769682
v -2.25141372 1.08680094 1.06867909
v -0.77948766 2.37537344 1.09007118
v -0.51977923 2.44536900 1.54758572
v -1.01884899 2.28296884 1.54681705
v -1.67997119 1.85140400 0.19260577
v 1.00098022 2.29085979 -0.27328812
v 0.50290883 2.44889418 -0.26846893
v 0.76990317 2.37849724 -0.71940926
v -0.26817355 2.48557497 1.08848322
v -1.25549733 2.16188030 1.09167338
v -1.47030009 2.02193414 1.54757771
v 2.15485681 1.26751415 0.61724683
v 1.84467554 1.68735656 -0.27738797
v -1.85889141 1.67168260 1.54815285
v -2.16624201 1.24795656 1.54893344
v -2.01804767 1.47562990 -0.68834034
v -2.28512895 1.01399491 -0.69826372
v -1.86467738 1.66522619 -0.25549680
v 1.66079850 1.86862204 0.17355152
v 1.65885735 1.87034550 -0.71715995
v 1.23419222 2.17411351 -0.72713443
v -2.28386364 1.01684161 2.00000000
v -2.44536900 0.51977923 2.00000000
v -2.37527905 0.77977526 1.51980499
v 2.28386364 1.01684161 -2.00000000
v 2.44536900 0.51977923 -2.00000000
v 1.84787954 1.68384714 0.62017378
v 1.45531235 2.03274838 -0.27595263
v -2.02254249 1.46946313 2.00000000
v -2.46460983 0.41916393 0.75180925
v -1.67586561 1.85512115 1.09546889
v 2.28386364 1.01684161 2.00000000
v -2.28386364 1.01684161 -2.00000000
v -2.02254249 1.46946313 -2.00000000
v 2.00813329 1.48909392 -0.71850702
v -1.48026838 2.01464774 -0.25782161
v -1.68282678 1.84880881 -0.69952583
v -0.01163017 2.49997295 0.63584729
v -0.52990936 2.44319383 0.63798539
v 0.50767968 2.44790959 0.63372942
v 1.23687305 2.17258948 0.17707459
v -1.03049185 2.27773716 -0.26128638
v -1.26720671 2.15503762 -0.69972107
v -1.25000000 2.16506351 2.00000000
v -1.67282652 1.85786206 2.00000000
v -0.77254249 2.37764129 2.00000000
v 0.75837100 2.38219928 0.18066573
v -0.00000000 2.50000000 -1.54758572
v 0.26132116 2.48630474 -2.00000000
v 0.77254249 2.37764129 2.00000000
v -0.77254249 2.37764129 -2.00000000
v -0.26132116 2.48630474 -2.00000000
v 0.77254249 2.37764129 -2.00000000
v 1.67282652 1.85786206 -2.00000000
v 2.02254249 1.46946313 -2.00000000
v -1.67282652 1.85786206 -2.00000000
v -1.25000000 2.16506351 -2.00000000
v 1.25000000 2.16506351 2.00000000
v -0.01757548 2.49993822 -0.25820861
v 0.24669838 2.48779821 0.18403829
v -0.27506972 2.48482125 0.18632281
v -1.47575693 2.01795478 0.64288182
v -0.53409673 2.44228186 -0.25713687
v -0.78484414 2.37360900 0.18812382
v -1.25992679 2.15930185 0.19073662
v -1.02570881 2.27989505 0.63986404
v -2.46965964 0.38830561 -0.75143895
v -2.47373766 0.36141665 -1.24936154
v 2.44536900 0.51977923 2.00000000
v -2.44536900 0.51977923 -2.00000000
v -2.37728148 0.77364899 -1.52272551
v -2.39930636 0.70237384 -0.99990351
v -2.47398153 0.35974348 1.23667152
v 2.47117765 0.37852482 0.75000000
v -2.28333120 1.01803665 -1.16304485
v -2.40276008 0.69046651 0.99674251
v 2.47140685 0.37702544 -1.62798665
v -2.47258531 0.36921794 1.62806983
v 2.47386495 0.36054434 1.63616190
v -2.47363629 0.36210979 -1.63678323
v 1.25000000 2.16506351 -2.00000000
v -2.40237727 0.69179727 -0.57000757
v 3.00701730 -5.00000000 -0.32889486
v 4.08120456 -5.00000000 -0.40861742
v 3.44720513 -5.00000000 0.32437062
v 3.49727775 -5.00000000 -1.15037110
v -4.04072119 -5.00000000 -0.40986882
v -2.99305627 -5.00000000 -0.39171170
v -3.33582763 -5.00000000 0.38112038
v -3.46238514 -5.00000000 -1.18964197
v 4.21492643 -5.00000000 0.57527076
v -2.50959621 -5.00000000 1.09587084
v -3.55728044 -5.00000000 1.19882057
v 2.50000000 -5.00000000 0.59807621
v 3.43287737 -5.00000000 1.18601841
v 2.50000000 -5.00000000 1.38820130
v -2.53942331 -5.00000000 0.22825360
v -0.50000000 -5.00000000 -0.59807621
v 0.50000000 -5.00000000 -1.13397460
v 0.45848377 -5.00000000 -0.30876215
v -0.50000000 -5.00000000 -1.38820130
v 1.57879494 -5.00000000 1.12288338
v -1.42120506 -5.00000000 -1.12288338
v 2.00000000 -5.00000000 -2.00000000
v 2.50000000 -5.00000000 -1.13397460
v 1.54536507 -5.00000000 -1.16016613
v -2.00000000 -5.00000000 2.00000000
v -1.45623429 -5.00000000 1.15381551
v 3.00000000 -5.00000000 -2.00000000
v 4.00000000 -5.00000000 -2.00000000
v -2.00000000 -5.00000000 -2.00000000
v -2.50000000 -5.00000000 -1.13397460
v 0.50000000 -5.00000000 1.13397460
v -0.00000000 -5.00000000 0.31032031
v 0.93719597 -5.00000000 0.37319289
v -2.06280403 -5.00000000 -0.36613104
v -5.00000000 -5.00000000 0.00000000
v -5.00000000 -5.00000000 -1.00000000
v 1.00000000 -5.00000000 -2.00000000
v 5.00000000 -5.00000000 0.00000000
v 5.00000000 -5.00000000 1.00000000
v -3.00000000 -5.00000000 2.00000000
v -0.50000000 -5.00000000 1.13397460
v -1.00000000 -5.00000000 2.00000000
v 1.00000000 -5.00000000 2.00000000
v 0.00000000 -5.00000000 -2.00000000
v -1.00000000 -5.00000000 -2.00000000
v -3.00000000 -5.00000000 -2.00000000
v 0.00000000 -5.00000000 2.00000000
v -1.00000000 -5.00000000 0.26794919
v 2.02558595 -5.00000000 -0.28272125
v -4.00000000 -5.00000000 2.00000000
v 2.00000000 -5.00000000 2.00000000
v -4.21163355 -5.00000000 0.57250707
v -1.25762895 -5.00000000 -0.39872624
v 1.73230816 -5.00000000 0.38128397
v -4.00000000 -5.00000000 -2.00000000
v -5.00000000 -5.00000000 1.00000000
v 5.00000000 -5.00000000 -1.00000000
v 4.00000000 -5.00000000 2.00000000
v 3.00000000 -5.00000000 2.00000000
v -5.00000000 -5.00000000 2.00000000
v -4.26794919 -5.00000000 1.26794919
v 5.00000000 -5.00000000 -2.00000000
v 4.26794919 -5.00000000 -1.26794919
v -5.00000000 -5.00000000 -2.00000000
v -4.26794919 -5.00000000 -1.26794919
v -1.76682567 -5.00000000 0.37666656
v 1.23526836 -5.00000000 -0.38943148
v 5.00000000 -5.00000000 2.00000000
v 4.28775336 -5.00000000 1.29366160
v -5.00000000 -3.00701730 -0.32889486
v -5.00000000 -4.08120456 -0.40861742
v -5.00000000 -3.44720513 0.32437062
v -5.00000000 -3.49727775 -1.15037110
v -5.00000000 4.04072119 -0.40986882
v -5.00000000 2.99305627 -0.39171170
v -5.00000000 3.33582763 0.38112038
v -5.00000000 3.46238514 -1.18964197
v -5.00000000 -4.21492643 0.57527076
v -5.00000000 2.50959621 1.09587084
v -5.00000000 3.55728044 1.19882057
v -5.00000000 -2.50000000 0.59807621
v -5.00000000 -3.43287737 1.18601841
v -5.00000000 -2.50000000 1.38820130
v -5.00000000 2.53942331 0.22825360
v -5.00000000 0.50000000 -0.59807621
v -5.00000000 -0.50000000 -1.13397460
v -5.00000000 -0.45848377 -0.30876215
v -5.00000000 0.50000000 -1.38820130
v -5.00000000 -1.57879494 1.12288338
v -5.00000000 1.42120506 -1.12288338
v -5.00000000 -2.00000000 -2.00000000
v -5.00000000 -2.50000000 -1.13397460
v -5.00000000 -1.54536507 -1.16016613
v -5.00000000 2.00000000 2.00000000
v -5.00000000 1.45623429 1.15381551
v -5.00000000 -3.00000000 -2.00000000
v -5.00000000 -4.00000000 -2.00000000
v -5.00000000 2.00000000 -2.00000000
v -5.00000000 2.50000000 -1.13397460
v -5.00000000 -0.50000000 1.13397460
v -5.00000000 0.00000000 0.31032031
v -5.00000000 -0.93719597 0.37319289
v -5.00000000 2.06280403 -0.36613104
v -5.00000000 5.00000000 0.00000000
v -5.00000000 5.00000000 -1.00000000
v -5.00000000 -1.00000000 -2.00000000
v -5.00000000 3.00000000 2.00000000
v -5.00000000 0.50000000 1.13397460
v -5.00000000 1.00000000 2.00000000
v -5.00000000 -1.00000000 2.00000000
v -5.00000000 0.00000000 -2.00000000
v -5.00000000 1.00000000 -2.00000000
v -5.00000000 3.00000000 -2.00000000
v -5.00000000 0.00000000 2.00000000
v -5.00000000 1.00000000 0.26794919
v -5.00000000 -2.02558595 -0.28272125
v -5.00000000 4.00000000 2.00000000
v -5.00000000 -2.00000000 2.00000000
v -5.00000000 4.21163355 0.57250707
v -5.00000000 1.25762895 -0.39872624
v -5.00000000 -1.73230816 0.38128397
v -5.00000000 4.00000000 -2.00000000
v -5.00000000 5.00000000 1.00000000
v -5.00000000 -4.00000000 2.00000000
v -5.00000000 -3.00000000 2.00000000
v -5.00000000 5.00000000 2.00000000
v -5.00000000 4.26794919 1.26794919
v -5.00000000 -4.26794919 -1.26794919
v -5.00000000 5.00000000 -2.00000000
v -5.00000000 4.26794919 -1.26794919
v -5.00000000 1.76682567 0.37666656
v -5.00000000 -1.23526836 -0.38943148
v -5.00000000 -4.28775336 1.29366160
v 5.00000000 3.00701730 -0.32889486
v 5.00000000 4.08120456 -0.40861742
v 5.00000000 3.44720513 0.32437062
v 5.00000000 3.49727775 -1.15037110
v 5.00000000 -4.04072119 -0.40986882
v 5.00000000 -2.99305627 -0.39171170
v 5.00000000 -3.33582763 0.38112038
v 5.00000000 -3.46238514 -1.18964197
v 5.00000000 4.21492643 0.57527076
v 5.00000000 -2.50959621 1.09587084
v 5.00000000 -3.55728044 1.19882057
v 5.00000000 2.50000000 0.59807621
v 5.00000000 3.43287737 1.18601841
v 5.00000000 2.50000000 1.38820130
v 5.00000000 -2.53942331 0.22825360
v 5.00000000 -0.50000000 -0.59807621
v 5.00000000 0.50000000 -1.13397460
v 5.00000000 0.45848377 -0.30876215
v 5.00000000 -0.50000000 -1.38820130
v 5.00000000 1.57879494 1.12288338
v 5.00000000 -1.42120506 -1.12288338
v 5.00000000 2.00000000 -2.00000000
v 5.00000000 2.50000000 -1.13397460
v 5.00000000 1.54536507 -1.16016613
v 5.00000000 -2.00000000 2.00000000
v 5.00000000 -1.45623429 1.15381551
v 5.00000000 3.00000000 -2.00000000
v 5.00000000 4.00000000 -2.00000000
v 5.00000000 -2.00000000 -2.00000000
v 5.00000000 -2.50000000 -1.13397460
v 5.00000000 0.50000000 1.13397460
v 5.00000000 -0.00000000 0.31032031
v 5.00000000 0.93719597 0.37319289
v 5.00000000 -2.06280403 -0.36613104
v 5.00000000 1.00000000 -2.00000000
v 5.00000000 5.00000000 0.00000000
v 5.00000000 5.00000000 1.00000000
v 5.00000000 -3.00000000 2.00000000
v 5.00000000 -0.50000000 1.13397460
v 5.00000000 -1.00000000 2.00000000
v 5.00000000 1.00000000 2.00000000
v 5.00000000 0.00000000 -2.00000000
v 5.00000000 -1.00000000 -2.00000000
v 5.00000000 -3.00000000 -2.00000000
v 5.00000000 0.00000000 2.00000000
v 5.00000000 -1.00000000 0.26794919
v 5.00000000 2.02558595 -0.28272125
v 5.00000000 -4.00000000 2.00000000
v 5.00000000 2.00000000 2.00000000
v 5.00000000 -4.21163355 0.57250707
v 5.00000000 -1.25762895 -0.39872624
v 5.00000000 1.73230816 0.38128397
v 5.00000000 -4.00000000 -2.00000000
v 5.00000000 5.00000000 -1.00000000
v 5.00000000 4.00000000 2.00000000
v 5.00000000 3.00000000 2.00000000
v 5.00000000 -4.26794919 1.26794919
v 5.00000000 5.00000000 -2.00000000
v 5.00000000 4.26794919 -1.26794919
v 5.00000000 -4.26794919 -1.26794919
v 5.00000000 -1.76682567 0.37666656
v 5.00000000 1.23526836 -0.38943148
v 5.00000000 5.00000000 2.00000000
v 5.00000000 4.28775336 1.29366160
v -1.78160089 2.44132959 2.00000000
v -2.55721549 2.43319776 2.00000000
v -2.20894930 1.96917491 2.00000000
v -0.62139622 3.91995103 2.00000000
v -1.02971700 3.32106092 2.00000000
v -0.30399850 3.39985896 2.00000000
v -1.67758843 -2.36788601 2.00000000
v -1.18356493 -3.05563485 2.00000000
v -0.87639216 -2.31110327 2.00000000
v -3.09009872 -0.02011714 2.00000000
v -2.85961653 0.42639662 2.00000000
v -3.45826264 0.66821295 2.00000000
v -4.16358160 1.44871917 2.00000000
v -3.27421027 1.43942377 2.00000000
v -1.50000000 -4.13397460 2.00000000
v -2.04512985 -3.04067703 2.00000000
v -2.08822921 2.90952968 2.00000000
v -2.62151406 -3.73576910 2.00000000
v 3.19773229 1.44563101 2.00000000
v 3.48059510 0.81177382 2.00000000
v 4.09855303 1.46865020 2.00000000
v -0.56565062 2.89247560 2.00000000
v -4.13397460 2.50000000 2.00000000
v -3.69032039 2.99755415 2.00000000
v -4.25942904 3.41744290 2.00000000
v 3.46359660 2.26503463 2.00000000
v -4.11103786 4.39433056 2.00000000
v -3.50024354 3.58057117 2.00000000
v -3.25211918 4.32069795 2.00000000
v 0.61664090 -0.74433693 2.00000000
v 1.23661722 -1.42389782 2.00000000
v 1.43792265 -0.62156515 2.00000000
v -1.15255160 2.72416092 2.00000000
v 2.36292699 6.33716669 2.00000000
v 3.14424122 6.33443441 2.00000000
v 2.67907198 7.24823013 2.00000000
v -3.67535664 -0.00551937 2.00000000
v -3.07510265 -1.11976462 2.00000000
v -3.70916302 -1.03371828 2.00000000
v -3.42585670 -1.85127061 2.00000000
v 3.64205233 7.00512834 2.00000000
v -2.95465551 1.94196310 2.00000000
v -2.58371978 1.47885976 2.00000000
v -1.17715774 3.92803516 2.00000000
v 1.73938701 2.35154039 2.00000000
v 2.32075889 2.47172561 2.00000000
v 1.82714121 2.99158682 2.00000000
v 3.79868503 2.97580196 2.00000000
v 3.20622727 2.95574741 2.00000000
v 4.31212219 2.49163492 2.00000000
v 0.74463611 3.82042681 2.00000000
v 0.71544646 3.35049398 2.00000000
v 1.20244985 3.29164883 2.00000000
v -0.40179345 -2.93046562 2.00000000
v 2.09332747 3.65664044 2.00000000
v 2.52432020 3.03168671 2.00000000
v 1.42114596 3.87843336 2.00000000
v -2.09922946 3.61352196 2.00000000
v -1.62023844 3.10747629 2.00000000
v 0.61103713 2.87470367 2.00000000
v 1.23236449 2.68061486 2.00000000
v -4.19261967 -2.41878348 2.00000000
v -4.24730397 -1.48028266 2.00000000
v -0.40689606 -4.26270958 2.00000000
v 0.52226388 -4.28533640 2.00000000
v 0.06542127 -3.59490116 2.00000000
v -4.24002233 0.45433937 2.00000000
v 4.25171603 -0.29606586 2.00000000
v 3.88383367 -1.01177982 2.00000000
v -3.61215965 1.93465012 2.00000000
v 3.64260457 3.59352143 2.00000000
v 4.38719841 3.46667699 2.00000000
v 4.14105940 4.38292328 2.00000000
v 4.26019801 0.50320003 2.00000000
v -4.16831663 -0.51093605 2.00000000
v 2.96503080 0.39898091 2.00000000
v 3.57909737 0.13788569 2.00000000
v 3.08118213 -0.11589624 2.00000000
v 3.54971600 -1.70357916 2.00000000
v 3.19911636 -2.39722323 2.00000000
v 4.11879695 -2.48123311 2.00000000
v -3.44615869 -2.76243222 2.00000000
v -2.61779535 -2.34532947 2.00000000
v 0.97851598 -3.61242891 2.00000000
v 1.99629811 -3.53043057 2.00000000
v 1.30987087 -2.93095976 2.00000000
v 2.85606183 2.53946232 2.00000000
v -2.54047042 3.10643879 2.00000000
v 3.26627206 4.26447064 2.00000000
v -2.80435227 0.96410804 2.00000000
v 4.29770518 -1.66877283 2.00000000
v -3.41945803 2.46014838 2.00000000
v -3.13849676 3.02960831 2.00000000
v -3.28796782 -3.44526140 2.00000000
v -3.40556085 -4.21513086 2.00000000
v 2.16327694 -0.52055892 2.00000000
v -3.10436617 6.33714137 2.00000000
v -2.68178119 7.08163201 2.00000000
v -3.66997521 7.02044139 2.00000000
v -1.07557904 -0.90331422 2.00000000
v -0.28425240 -0.77834010 2.00000000
v -3.21282697 7.76926499 2.00000000
v 1.36085715 8.38075841 2.00000000
v 2.06834664 8.73958413 2.00000000
v 1.15419195 9.15824131 2.00000000
v -2.76865412 -1.64134327 2.00000000
v 0.02010996 2.93900135 2.00000000
v 0.30366275 3.41519661 2.00000000
v -1.58563527 -0.49180188 2.00000000
v 1.87640574 -1.06123330 2.00000000
v -1.69846264 4.30055870 2.00000000
v -0.92637453 4.50009725 2.00000000
v -1.36977135 5.06570600 2.00000000
v -2.50140956 -4.49065511 2.00000000
v -2.58805032 5.70244513 2.00000000
v -2.23570574 6.38072760 2.00000000
v 1.63926933 3.45611539 2.00000000
v -2.80431876 -3.06201294 2.00000000
v 2.02439357 -2.87700860 2.00000000
v 3.50000000 -4.13397460 2.00000000
v 2.49486351 -4.30191832 2.00000000
v 1.49654208 -4.24197872 2.00000000
v 1.91341716 9.61939766 2.00000000
v -2.50041888 4.32248597 2.00000000
v 2.72794635 -3.03674013 2.00000000
v 2.94195438 -3.71197958 2.00000000
v 2.89340009 3.60601486 2.00000000
v -2.84458095 3.65607121 2.00000000
v -4.16228676 -3.45096189 2.00000000
v 4.15734806 7.77785117 2.00000000
v 4.61939766 6.91341716 2.00000000
v 4.14233024 5.37130177 2.00000000
v 3.44105250 5.00501318 2.00000000
v -2.17506608 -0.51503477 2.00000000
v -2.15251687 5.01993500 2.00000000
v 3.98782841 6.21394297 2.00000000
v 4.90392640 5.97545161 2.00000000
v 1.82877053 4.37437616 2.00000000
v 2.53562124 4.27737101 2.00000000
v -4.15734806 7.77785117 2.00000000
v -3.53553391 8.53553391 2.00000000
v -0.68536663 -3.59553716 2.00000000
v -4.90392640 5.97545161 2.00000000
v -4.00125058 6.23802576 2.00000000
v -4.61939766 6.91341716 2.00000000
v 0.30450822 -1.51321407 2.00000000
v 0.00000000 10.00000000 2.00000000
v 0.34343969 9.22041249 2.00000000
v 0.97545161 9.90392640 2.00000000
v 2.77785117 9.15734806 2.00000000
v 2.72293058 8.20154570 2.00000000
v 3.53553391 8.53553391 2.00000000
v -3.41320948 5.62940234 2.00000000
v 4.23931715 -3.48791467 2.00000000
v 3.46077443 -3.21011542 2.00000000
v -2.77785117 9.15734806 2.00000000
v -1.95379447 8.65804411 2.00000000
v -1.91341716 9.61939766 2.00000000
v 3.34598407 7.74045794 2.00000000
v 0.04060273 3.94052156 2.00000000
v 0.14340787 6.37752867 2.00000000
v 0.44723872 5.68552905 2.00000000
v 0.90063641 6.35135302 2.00000000
v 0.80455648 -2.21320149 2.00000000
v 1.61790708 -2.28800908 2.00000000
v -2.33148589 7.80337623 2.00000000
v -1.49486324 7.82696923 2.00000000
v 0.57954227 7.06133001 2.00000000
v 2.41491033 -2.35852492 2.00000000
v 2.80644065 -1.70738094 2.00000000
v 0.40057033 4.48433903 2.00000000
v 1.09697524 4.42315014 2.00000000
v 0.78184720 5.05525902 2.00000000
v -1.87276188 7.07546620 2.00000000
v -1.05174782 7.08367971 2.00000000
v 0.44068293 -2.88316070 2.00000000
v 2.04682021 6.95357561 2.00000000
v -0.55374844 -1.54411775 2.00000000
v -1.54921169 3.63823840 2.00000000
v -1.40551884 6.37772834 2.00000000
v 1.91738776 7.79330237 2.00000000
v 1.49684168 5.01210790 2.00000000
v -1.00139275 8.56293466 2.00000000
v -4.21102531 5.36779366 2.00000000
v -0.05778235 -2.21671673 2.00000000
v 1.34754107 7.03598728 2.00000000
v -1.00883672 5.72007327 2.00000000
v -0.62711061 5.09471312 2.00000000
v 2.76540619 1.97311726 2.00000000
v 2.07158209 -1.66679968 2.00000000
v 2.53977871 1.46692380 2.00000000
v -1.78148875 5.70388943 2.00000000
v -0.26539572 5.72213943 2.00000000
v -0.63481271 6.38926626 2.00000000
v 2.20055884 1.94525115 2.00000000
v -0.23579191 7.07647461 2.00000000
v 2.75435123 5.53923456 2.00000000
v 2.81255442 4.83554159 2.00000000
v 1.00632232 7.76353125 2.00000000
v 2.21784308 4.96623004 2.00000000
v -0.63970525 7.80428491 2.00000000
v 1.91903693 5.65196125 2.00000000
v 3.49396072 5.69278538 2.00000000
v -1.35869323 -1.60724128 2.00000000
v 1.19927404 5.67514304 2.00000000
v 0.07799319 5.08677314 2.00000000
v -0.27754378 4.49983189 2.00000000
v -2.91829892 4.99433446 2.00000000
v 2.79780849 0.94494041 2.00000000
v -2.09732153 -1.66867735 2.00000000
v -0.19290457 8.52150728 2.00000000
v -0.47285742 9.27512052 2.00000000
v -2.76023805 -0.50982433 2.00000000
v 2.80133817 -0.53224015 2.00000000
v -4.26794919 -4.26794919 2.00000000
v 4.26794919 -4.26794919 2.00000000
v 0.18221646 7.77064314 2.00000000
v -1.80168591 -1.04066041 2.00000000
v 3.15596538 -1.08382063 2.00000000
v 2.47262981 -1.07334495 2.00000000
v 0.63774061 8.47493417 2.00000000
v -2.46120787 -1.06982686 2.00000000
v -2.78157008 8.39621994 2.00000000
v 3.47497354 -0.51442960 2.00000000
v -3.58113815 4.94131179 2.00000000
v -1.28364172 9.24176992 2.00000000
v 1.63282545 6.33441804 2.00000000
v -0.97545161 9.90392640 2.00000000
v -3.35148846 -0.53470557 2.00000000
v 4.61939766 6.91341716 -2.00000000
v 4.76016298 6.52998314 -1.06825739
v 4.90392640 5.97545161 -2.00000000
v -4.90392640 5.97545161 -2.00000000
v -4.76012475 6.53010207 -1.06835774
v -4.61939766 6.91341716 -2.00000000
v -2.42036248 9.37513948 -0.55781018
v -3.11740757 8.90919046 -1.32612835
v -3.19160797 8.84884899 -0.48495632
v -2.35698368 9.40960632 -1.35605129
v 4.94668352 5.72823223 -1.26459378
v -4.94668352 5.72823223 -1.26459378
v -4.93134973 5.82570567 0.49110599
v -4.74242325 6.58411543 1.12466076
v -4.75107857 6.55796421 -0.00157280
v 4.75111194 6.55786243 -0.00194366
v 4.74127466 6.58754987 1.12335436
v 4.93140931 5.82534974 0.48835522
v -3.85606964 8.18288029 -1.17493605
v -3.89024409 8.14101909 -0.32753221
v 3.17196642 8.86505227 -0.54597834
v 3.89036639 8.14086761 -0.32746665
v 3.85626659 8.18264167 -1.17484190
v -4.47818334 7.22393209 0.46133746
v 4.50284030 7.17357522 0.47390210
v -1.45142339 9.78470168 -0.34097235
v -1.45142339 9.78470168 -1.15148818
v 1.45142339 9.78470168 -0.54553547
v 1.45142339 9.78470168 -1.35605129
v 0.49008570 9.97592363 -1.15148818
v 0.49008570 9.97592363 -0.34097235
v 2.35698368 9.40960632 -0.34097235
v 2.35698368 9.40960632 -1.15148818
v -0.49008570 9.97592363 -0.54553547
v -0.49008570 9.97592363 -1.35605129
v 3.17196642 8.86505227 -1.35629813
v -4.92778799 5.84670272 -0.47605548
v 4.92786750 5.84623987 -0.47641942
v -4.34226987 7.47884901 -0.44740228
v 4.34210321 7.47914093 -0.44723933
v -2.35723386 9.40947259 1.15206432
v -3.17196680 8.86505196 1.15137110
v -1.45142339 9.78470168 1.15148818
v -0.97957067 9.90310527 0.31771450
v -1.91699013 9.61791607 0.31159642
v -0.49008570 9.97592363 1.15148818
v 0.00265818 9.99999929 0.31979746
v 0.49015961 9.97591635 1.15258133
v 0.97437980 9.90413948 0.32056889
v 1.45142339 9.78470168 1.15148818
v 1.91720582 9.61782653 0.32076764
v 2.35716435 9.40950975 1.15268641
v 2.77747592 9.15759877 0.32087442
v 3.17196642 8.86505227 1.15148818
v -4.38947497 7.39426596 1.18212686
v -3.85367676 8.18577706 1.16538029
v -1.91341716 9.61939766 -2.00000000
v -0.97545161 9.90392640 -2.00000000
v -2.77785117 9.15734806 0.30297635
v -3.53031544 8.54074468 0.33391442
v -0.00000000 10.00000000 -2.00000000
v 0.97545161 9.90392640 -2.00000000
v 1.91341716 9.61939766 -2.00000000
v 2.77785117 9.15734806 -2.00000000
v 4.38982672 7.39362097 1.18166248
v 3.53553391 8.53553391 -2.00000000
v 4.15734806 7.77785117 -2.00000000
v -4.15734806 7.77785117 -2.00000000
v -3.53553391 8.53553391 -2.00000000
v 3.53240972 8.53865534 0.33986484
v 3.85910303 8.17920175 1.15956788
v 4.39349660 7.38687822 -1.31299751
v -4.39361299 7.38666397 -1.31343536
v -4.10594901 7.85327579 0.38054959
v 4.10683366 7.85200233 0.38117329
v 4.94483723 5.74066508 1.26214936
v -4.94668352 5.72823223 1.26459378
v -2.77785117 9.15734806 -2.00000000
v 1.67758843 -2.36788601 -2.00000000
v 1.18356493 -3.05563485 -2.00000000
v 0.87639216 -2.31110327 -2.00000000
v 2.18404784 1.96652551 -2.00000000
v 2.24015161 2.54798183 -2.00000000
v 2.87893604 2.08538755 -2.00000000
v -2.38998756 2.64766847 -2.00000000
v -1.64428259 3.04572384 -2.00000000
v -1.70204241 2.38511736 -2.00000000
v 2.74542375 2.89288575 -2.00000000
v 3.09009872 -0.02011714 -2.00000000
v 2.85914946 0.42631618 -2.00000000
v 3.45592731 0.66781079 -2.00000000
v -2.22130918 3.38093691 -2.00000000
v -2.94429680 3.18973275 -2.00000000
v 4.14792602 1.44597764 -2.00000000
v 3.27351857 1.43935018 -2.00000000
v 1.50000000 -4.13397460 -2.00000000
v 2.04512985 -3.04067703 -2.00000000
v 2.62151406 -3.73576910 -2.00000000
v -3.25304358 2.53931127 -2.00000000
v 1.87709348 8.67876474 -2.00000000
v -1.55293976 7.67352458 -2.00000000
v -2.38745369 7.56387259 -2.00000000
v -1.99408499 8.53321083 -2.00000000
v -2.82646861 1.97883110 -2.00000000
v -0.61664090 -0.74433693 -2.00000000
v -1.23661722 -1.42389782 -2.00000000
v -1.43792265 -0.62156515 -2.00000000
v 3.40803171 2.45219504 -2.00000000
v 3.67502303 -0.00557682 -2.00000000
v 1.12081144 3.28158712 -2.00000000
v 0.69177724 3.58889156 -2.00000000
v 1.10854155 3.99477751 -2.00000000
v 3.07510265 -1.11976462 -2.00000000
v 3.70916302 -1.03371828 -2.00000000
v 3.42585670 -1.85127061 -2.00000000
v 1.60671148 3.57868571 -2.00000000
v 2.57956953 1.47841819 -2.00000000
v 0.19694839 3.45668737 -2.00000000
v 0.59195455 2.96585174 -2.00000000
v -0.02466891 2.92991484 -2.00000000
v -4.26781413 1.53971957 -2.00000000
v -3.70895631 1.19978088 -2.00000000
v -4.18495579 0.59114257 -2.00000000
v 4.12275189 2.46726780 -2.00000000
v -1.47802616 3.66388672 -2.00000000
v 0.40179345 -2.93046562 -2.00000000
v 2.59927777 8.17785175 -2.00000000
v 4.19261967 -2.41878348 -2.00000000
v 4.24730397 -1.48028266 -2.00000000
v 0.40689606 -4.26270958 -2.00000000
v -0.52226388 -4.28533640 -2.00000000
v -0.06542127 -3.59490116 -2.00000000
v 4.24002233 0.45433937 -2.00000000
v -2.02602715 4.07418527 -2.00000000
v -2.75448694 8.28598455 -2.00000000
v -4.25171603 -0.29606586 -2.00000000
v -3.88383367 -1.01177982 -2.00000000
v 4.21231028 3.43575657 -2.00000000
v -4.23207462 3.45329910 -2.00000000
v -4.11606548 2.51841996 -2.00000000
v 3.62488260 1.91366046 -2.00000000
v 3.51519104 3.09323449 -2.00000000
v 4.16831663 -0.51093605 -2.00000000
v -3.54971600 -1.70357916 -2.00000000
v -3.19911636 -2.39722323 -2.00000000
v -4.11879695 -2.48123311 -2.00000000
v 3.44615869 -2.76243222 -2.00000000
v 2.61779535 -2.34532947 -2.00000000
v -0.97851598 -3.61242891 -2.00000000
v -1.99629811 -3.53043057 -2.00000000
v -1.30987087 -2.93095976 -2.00000000
v 0.15564751 7.86032715 -2.00000000
v 1.05275563 7.60490782 -2.00000000
v 0.55841153 7.13079617 -2.00000000
v 0.97531477 8.33080560 -2.00000000
v -2.55954531 1.45304815 -2.00000000
v -2.19466329 1.95721606 -2.00000000
v -1.17351439 2.68912001 -2.00000000
v 1.01952567 5.33851558 -2.00000000
v 1.28914676 6.10644154 -2.00000000
v 1.71953509 5.43136825 -2.00000000
v -3.15019195 1.37269617 -2.00000000
v -2.57055659 6.78183144 -2.00000000
v -3.29482270 6.55218941 -2.00000000
v -3.20459536 7.50444655 -2.00000000
v 2.80435227 0.96410804 -2.00000000
v -0.60731095 2.85334317 -2.00000000
v -1.01587901 3.25011854 -2.00000000
v -0.40570408 3.37802111 -2.00000000
v -4.29770518 -1.66877283 -2.00000000
v -0.82767635 3.82605932 -2.00000000
v 3.28796782 -3.44526140 -2.00000000
v 3.40556085 -4.21513086 -2.00000000
v -2.16327694 -0.52055892 -2.00000000
v 1.07557904 -0.90331422 -2.00000000
v 0.28425240 -0.77834010 -2.00000000
v -3.55709819 1.85037412 -2.00000000
v -4.12295367 4.44084517 -2.00000000
v -3.46908368 3.70968825 -2.00000000
v 1.21224853 9.08463849 -2.00000000
v 1.71303303 2.96706024 -2.00000000
v 1.19028907 2.67311223 -2.00000000
v -3.33454195 4.46518150 -2.00000000
v -3.64279791 3.06678460 -2.00000000
v 2.76865412 -1.64134327 -2.00000000
v 2.24450995 3.51047403 -2.00000000
v 3.28732071 5.59052958 -2.00000000
v 3.37367153 6.34335546 -2.00000000
v 4.02148227 6.17452105 -2.00000000
v 1.58563527 -0.49180188 -2.00000000
v 0.60521794 5.90259705 -2.00000000
v -1.87640574 -1.06123330 -2.00000000
v 4.12059940 4.42107361 -2.00000000
v 4.16321518 5.36503750 -2.00000000
v 2.50140956 -4.49065511 -2.00000000
v 2.80431876 -3.06201294 -2.00000000
v -2.02439357 -2.87700860 -2.00000000
v -3.50000000 -4.13397460 -2.00000000
v -2.49486351 -4.30191832 -2.00000000
v -1.49654208 -4.24197872 -2.00000000
v -0.59766708 4.43045507 -2.00000000
v -1.29313258 4.28922223 -2.00000000
v -1.05765355 4.94952641 -2.00000000
v -1.79300940 4.79136747 -2.00000000
v -2.77727284 3.89449816 -2.00000000
v 2.22705129 2.99017482 -2.00000000
v -2.72794635 -3.03674013 -2.00000000
v -2.94195438 -3.71197958 -2.00000000
v -2.55444411 4.63418771 -2.00000000
v 1.71423843 2.35942118 -2.00000000
v 4.16228676 -3.45096189 -2.00000000
v 3.70565844 6.97423280 -2.00000000
v 2.17506608 -0.51503477 -2.00000000
v 0.68536663 -3.59553716 -2.00000000
v -4.03457984 6.26943491 -2.00000000
v -0.30450822 -1.51321407 -2.00000000
v 0.40452363 9.10719733 -2.00000000
v -4.23931715 -3.48791467 -2.00000000
v -3.46077443 -3.21011542 -2.00000000
v 2.57638990 4.21308550 -2.00000000
v 1.84666144 4.13952962 -2.00000000
v 2.98194623 3.61014086 -2.00000000
v -0.17564919 3.94465222 -2.00000000
v 1.40110030 6.89005172 -2.00000000
v 0.81237189 6.50363506 -2.00000000
v -3.85285058 7.00264613 -2.00000000
v 2.55855635 7.48920213 -2.00000000
v 1.78445151 7.70254686 -2.00000000
v -1.20180845 8.33236209 -2.00000000
v -0.80455648 -2.21320149 -2.00000000
v -1.61790708 -2.28800908 -2.00000000
v 2.95968495 6.94355145 -2.00000000
v 2.74280388 6.26373813 -2.00000000
v -3.38472151 0.64497197 -2.00000000
v -2.85746319 0.41831243 -2.00000000
v -3.13546873 0.02030100 -2.00000000
v 0.33136864 5.19704486 -2.00000000
v -0.07001974 5.76447742 -2.00000000
v -2.41491033 -2.35852492 -2.00000000
v -2.80644065 -1.70738094 -2.00000000
v 0.34679171 8.45898130 -2.00000000
v 3.58881297 3.74104862 -2.00000000
v -0.44068293 -2.88316070 -2.00000000
v 0.20798292 6.48828884 -2.00000000
v 2.00362773 6.18661991 -2.00000000
v 2.22084423 6.92896592 -2.00000000
v 0.55374844 -1.54411775 -2.00000000
v 0.73154396 4.63414727 -2.00000000
v 0.44237563 4.04209349 -2.00000000
v -4.21102531 5.36779366 -2.00000000
v -0.39972033 8.57258453 -2.00000000
v -0.42979849 9.34704155 -2.00000000
v 0.05778235 -2.21671673 -2.00000000
v -1.54037497 5.52054003 -2.00000000
v -2.07158209 -1.66679968 -2.00000000
v -2.30466984 5.38151826 -2.00000000
v -0.54102773 6.36675166 -2.00000000
v -1.06274023 6.98559028 -2.00000000
v -0.26714355 7.11963312 -2.00000000
v 1.41752151 4.70777115 -2.00000000
v 2.46569031 5.52341022 -2.00000000
v -0.77905424 7.76057354 -2.00000000
v -0.80317736 5.64711451 -2.00000000
v -0.35159808 5.08463751 -2.00000000
v -3.68669196 0.08993536 -2.00000000
v -3.06614310 5.22531266 -2.00000000
v 1.35869323 -1.60724128 -2.00000000
v -2.04080760 6.13069725 -2.00000000
v 2.14356744 4.81263751 -2.00000000
v 0.06764847 4.55018203 -2.00000000
v 2.09732153 -1.66867735 -2.00000000
v 3.28318412 4.30589695 -2.00000000
v 2.76023805 -0.50982433 -2.00000000
v -2.80133817 -0.53224015 -2.00000000
v -4.26794919 -4.26794919 -2.00000000
v 4.26794919 -4.26794919 -2.00000000
v -2.77834868 5.97601120 -2.00000000
v 2.87118225 4.89500591 -2.00000000
v 1.80168591 -1.04066041 -2.00000000
v -1.30108851 6.25134201 -2.00000000
v 3.22852332 7.69309465 -2.00000000
v -2.82175669 0.90650996 -2.00000000
v -3.15596538 -1.08382063 -2.00000000
v -2.47262981 -1.07334495 -2.00000000
v -1.82341545 6.89496769 -2.00000000
v 2.46120787 -1.06982686 -2.00000000
v -1.18486805 9.07145334 -2.00000000
v -3.47659774 -0.51067287 -2.00000000
v 3.55248334 4.93486472 -2.00000000
v -3.51195973 5.73178106 -2.00000000
v -3.64932475 5.04618281 -2.00000000
v 3.35148846 -0.53470557 -2.00000000
f 1 2 3
f 4 2 1
f 5 6 7
f 8 9 10
f 6 5 11
f 9 8 12
f 13 14 15
f 5 7 16
f 8 10 17
f 18 19 20
f 21 22 23
f 24 19 25
f 26 5 16
f 27 8 17
f 19 28 20
f 22 29 23
f 30 1 3
f 13 25 31
f 25 19 31
f 14 13 31
f 25 13 32
f 5 33 34
f 8 35 4
f 26 36 5
f 27 37 8
f 38 24 25
f 24 28 19
f 39 29 22
f 35 25 32
f 36 33 5
f 5 34 11
f 8 4 12
f 33 40 41
f 37 35 8
f 41 40 42
f 36 40 33
f 37 38 35
f 35 38 25
f 14 43 15
f 30 44 1
f 45 41 2
f 34 13 15
f 40 39 42
f 34 45 13
f 2 4 46
f 45 2 32
f 34 33 45
f 45 33 41
f 47 27 17
f 48 26 16
f 29 49 23
f 28 50 20
f 13 45 32
f 35 32 46
f 22 30 3
f 2 41 3
f 51 52 6
f 53 51 54
f 55 56 44
f 57 53 43
f 56 58 59
f 58 60 9
f 52 61 7
f 22 21 30
f 60 62 10
f 19 18 14
f 63 64 21
f 65 66 18
f 22 3 42
f 4 35 46
f 34 15 11
f 44 30 67
f 43 14 68
f 51 6 54
f 43 53 54
f 30 21 67
f 44 56 59
f 58 9 59
f 14 18 68
f 4 1 12
f 64 55 67
f 6 52 7
f 66 57 68
f 9 60 10
f 43 54 15
f 44 59 1
f 19 14 31
f 32 2 46
f 55 44 67
f 57 43 68
f 21 64 67
f 7 61 16
f 18 66 68
f 10 62 17
f 63 21 23
f 65 18 20
f 49 63 23
f 50 65 20
f 62 47 17
f 61 48 16
f 39 22 42
f 3 41 42
f 54 6 11
f 15 54 11
f 59 9 12
f 1 59 12
f 69 70 71
f 72 73 69
f 73 72 74
f 75 76 77
f 76 78 77
f 79 80 81
f 70 69 82
f 70 83 71
f 84 85 86
f 85 84 87
f 76 88 89
f 88 76 75
f 90 91 92
f 93 94 74
f 95 90 92
f 85 96 86
f 80 79 97
f 98 93 74
f 96 85 99
f 80 100 81
f 84 101 87
f 101 84 102
f 98 88 93
f 95 103 90
f 103 95 104
f 69 73 82
f 78 105 77
f 88 98 89
f 106 73 74
f 107 108 109
f 110 109 111
f 107 109 110
f 105 78 112
f 108 107 113
f 114 115 113
f 116 110 111
f 117 118 119
f 107 114 113
f 120 121 113
f 121 120 117
f 122 69 71
f 121 117 119
f 115 120 113
f 123 124 125
f 126 127 128
f 118 117 124
f 124 117 125
f 128 127 79
f 129 128 79
f 102 130 92
f 131 132 133
f 134 122 71
f 124 123 135
f 127 136 137
f 138 139 140
f 123 133 135
f 141 126 128
f 121 108 113
f 142 143 144
f 139 138 145
f 146 138 140
f 147 146 140
f 109 148 83
f 123 131 133
f 122 72 69
f 134 149 122
f 150 151 136
f 132 139 133
f 152 129 153
f 152 154 129
f 136 151 137
f 155 149 134
f 156 157 76
f 158 159 160
f 161 162 94
f 151 160 137
f 126 136 127
f 163 134 148
f 164 157 156
f 143 103 144
f 150 165 151
f 166 80 97
f 148 134 71
f 158 160 151
f 167 146 147
f 155 164 149
f 157 142 144
f 168 114 107
f 169 170 96
f 154 141 128
f 122 171 72
f 150 167 147
f 83 148 71
f 172 141 154
f 173 154 152
f 108 148 109
f 129 154 128
f 174 145 175
f 150 136 167
f 155 134 163
f 118 124 176
f 167 136 126
f 172 154 173
f 177 164 155
f 145 138 175
f 122 149 171
f 91 178 179
f 177 142 164
f 165 158 151
f 180 181 147
f 178 172 179
f 181 150 147
f 117 120 125
f 139 182 140
f 180 147 140
f 149 164 156
f 183 142 177
f 183 177 118
f 164 142 157
f 130 184 95
f 172 173 179
f 183 118 176
f 163 148 108
f 182 180 140
f 185 105 184
f 186 131 123
f 187 188 130
f 188 185 184
f 130 188 184
f 185 189 105
f 190 191 88
f 181 165 150
f 132 182 139
f 192 193 84
f 115 194 120
f 78 157 144
f 143 195 103
f 183 143 142
f 196 143 183
f 139 145 133
f 76 157 78
f 196 183 176
f 197 196 174
f 155 163 119
f 196 195 143
f 91 179 101
f 197 195 196
f 167 126 198
f 199 178 91
f 174 196 176
f 163 121 119
f 197 199 195
f 198 126 141
f 173 152 85
f 200 199 197
f 201 178 200
f 200 178 199
f 72 171 98
f 201 172 178
f 201 141 172
f 118 177 119
f 198 141 201
f 167 198 146
f 146 198 202
f 198 201 202
f 146 202 138
f 197 174 175
f 138 202 175
f 201 200 202
f 177 155 119
f 120 194 125
f 186 123 125
f 202 200 175
f 200 197 175
f 145 174 135
f 133 145 135
f 56 55 100
f 53 57 70
f 171 149 156
f 58 56 80
f 163 108 121
f 55 64 203
f 60 58 166
f 52 51 73
f 174 176 135
f 176 124 135
f 66 65 116
f 64 63 204
f 194 186 125
f 56 100 80
f 100 55 203
f 166 58 80
f 64 204 203
f 101 102 92
f 205 168 110
f 206 169 207
f 204 207 208
f 62 60 209
f 61 52 106
f 83 70 210
f 153 129 81
f 127 137 97
f 96 170 86
f 168 107 110
f 169 96 207
f 207 211 208
f 161 94 93
f 192 84 86
f 101 179 87
f 70 57 210
f 88 191 93
f 187 130 102
f 84 193 102
f 66 116 210
f 137 160 212
f 156 76 89
f 60 166 209
f 52 73 106
f 103 195 90
f 95 184 104
f 199 91 90
f 53 70 82
f 173 85 87
f 190 88 75
f 73 51 82
f 105 189 77
f 162 48 213
f 159 47 214
f 48 61 213
f 47 62 214
f 144 103 112
f 98 171 89
f 152 153 99
f 160 209 212
f 50 205 215
f 49 206 216
f 63 49 216
f 65 50 215
f 57 66 210
f 51 53 82
f 170 192 86
f 153 211 99
f 103 104 112
f 79 127 97
f 179 173 87
f 129 79 81
f 193 187 102
f 191 161 93
f 195 199 90
f 207 96 211
f 184 105 104
f 171 156 89
f 217 190 75
f 217 75 77
f 189 217 77
f 94 106 74
f 72 98 74
f 91 101 92
f 205 110 215
f 206 207 216
f 153 81 218
f 97 137 212
f 160 159 214
f 94 162 213
f 207 204 216
f 110 116 215
f 211 96 99
f 130 95 92
f 109 83 111
f 61 106 213
f 62 209 214
f 85 152 99
f 204 63 216
f 116 65 215
f 78 144 112
f 210 116 111
f 100 203 218
f 203 204 208
f 106 94 213
f 209 160 214
f 208 153 218
f 211 153 208
f 104 105 112
f 209 166 212
f 203 208 218
f 83 210 111
f 166 97 212
f 81 100 218
f 219 220 221
f 219 222 220
f 223 224 225
f 224 223 226
f 220 227 221
f 228 229 225
f 230 231 232
f 233 228 225
f 234 235 236
f 235 234 237
f 238 230 232
f 234 239 237
f 231 230 221
f 240 241 242
f 243 228 244
f 245 246 222
f 247 239 248
f 249 250 251
f 248 252 224
f 253 254 223
f 235 255 242
f 256 257 227
f 228 258 229
f 259 260 244
f 238 261 249
f 259 250 249
f 238 249 251
f 240 245 241
f 241 245 222
f 262 255 235
f 247 263 239
f 264 247 248
f 243 258 228
f 265 260 259
f 261 265 249
f 265 259 249
f 219 241 222
f 248 239 252
f 259 266 250
f 267 219 230
f 255 240 242
f 258 268 229
f 260 243 244
f 269 261 238
f 242 241 267
f 259 244 266
f 250 266 234
f 267 241 219
f 270 223 225
f 239 234 271
f 230 238 272
f 273 264 226
f 248 224 226
f 274 253 270
f 275 256 220
f 256 227 220
f 253 223 270
f 264 248 226
f 276 277 231
f 262 235 237
f 239 263 237
f 250 234 236
f 269 238 232
f 278 274 279
f 268 278 279
f 246 280 281
f 254 282 283
f 282 273 283
f 280 275 281
f 244 228 284
f 235 242 285
f 286 276 287
f 257 286 287
f 231 277 232
f 236 235 285
f 228 233 284
f 230 219 221
f 273 226 283
f 275 220 281
f 274 270 279
f 263 262 237
f 277 269 232
f 251 250 236
f 224 252 233
f 227 257 287
f 223 254 283
f 222 246 281
f 229 268 279
f 252 239 271
f 252 271 284
f 238 251 272
f 272 251 285
f 266 244 284
f 234 266 271
f 271 266 284
f 242 267 285
f 267 230 272
f 267 272 285
f 226 223 283
f 220 222 281
f 270 229 279
f 227 231 221
f 231 227 287
f 276 231 287
f 229 270 225
f 224 233 225
f 251 236 285
f 233 252 284
f 288 289 290
f 288 291 289
f 292 293 294
f 293 292 295
f 289 296 290
f 297 298 294
f 299 300 301
f 302 297 294
f 303 304 305
f 304 303 306
f 307 299 301
f 303 308 306
f 300 299 290
f 309 310 311
f 312 297 313
f 314 315 291
f 316 308 317
f 318 319 320
f 317 321 293
f 253 274 296
f 322 323 292
f 304 324 311
f 297 325 298
f 326 327 313
f 307 328 318
f 326 319 318
f 307 318 320
f 309 314 310
f 310 314 291
f 329 324 304
f 316 330 308
f 331 316 317
f 312 325 297
f 332 327 326
f 328 332 318
f 332 326 318
f 288 310 291
f 317 308 321
f 326 333 319
f 334 288 299
f 324 309 311
f 325 335 298
f 327 312 313
f 336 328 307
f 311 310 334
f 326 313 333
f 319 333 303
f 334 310 288
f 337 292 294
f 308 303 338
f 299 307 339
f 340 331 295
f 317 293 295
f 254 253 289
f 341 322 337
f 253 296 289
f 322 292 337
f 331 317 295
f 342 343 300
f 329 304 306
f 308 330 306
f 319 303 305
f 336 307 301
f 344 341 345
f 335 344 345
f 315 282 346
f 282 254 346
f 323 347 348
f 347 340 348
f 313 297 349
f 304 311 350
f 278 342 351
f 274 278 351
f 300 343 301
f 305 304 350
f 297 302 349
f 299 288 290
f 340 295 348
f 254 289 346
f 341 337 345
f 330 329 306
f 343 336 301
f 320 319 305
f 293 321 302
f 296 274 351
f 292 323 348
f 291 315 346
f 298 335 345
f 321 308 338
f 321 338 349
f 307 320 339
f 339 320 350
f 333 313 349
f 303 333 338
f 338 333 349
f 311 334 350
f 334 299 339
f 334 339 350
f 295 292 348
f 289 291 346
f 337 298 345
f 296 300 290
f 300 296 351
f 342 300 351
f 298 337 294
f 293 302 294
f 320 305 350
f 302 321 349
f 352 353 354
f 352 355 353
f 356 357 358
f 357 356 359
f 353 360 354
f 361 362 358
f 363 364 365
f 366 361 358
f 367 368 369
f 368 367 370
f 371 363 365
f 367 372 370
f 364 363 354
f 373 374 375
f 376 361 377
f 378 379 355
f 380 372 381
f 382 383 384
f 381 385 357
f 256 275 356
f 368 386 375
f 387 388 360
f 361 389 362
f 390 391 377
f 371 392 382
f 390 383 382
f 371 382 384
f 373 378 374
f 374 378 355
f 393 386 368
f 380 394 372
f 395 380 381
f 376 389 361
f 396 391 390
f 392 396 382
f 396 390 382
f 352 374 355
f 381 372 385
f 390 397 383
f 398 352 363
f 386 373 375
f 389 399 362
f 391 376 377
f 400 392 371
f 375 374 398
f 390 377 397
f 383 397 367
f 398 374 352
f 401 356 358
f 372 367 402
f 363 371 403
f 404 395 359
f 381 357 359
f 257 256 401
f 405 387 353
f 387 360 353
f 256 356 401
f 395 381 359
f 406 407 364
f 393 368 370
f 372 394 370
f 383 367 369
f 400 371 365
f 286 257 408
f 399 286 408
f 379 409 410
f 275 280 411
f 280 404 411
f 409 405 410
f 377 361 412
f 368 375 413
f 414 406 415
f 388 414 415
f 364 407 365
f 369 368 413
f 361 366 412
f 363 352 354
f 404 359 411
f 405 353 410
f 257 401 408
f 394 393 370
f 407 400 365
f 384 383 369
f 357 385 366
f 360 388 415
f 356 275 411
f 355 379 410
f 362 399 408
f 385 372 402
f 385 402 412
f 371 384 403
f 403 384 413
f 397 377 412
f 367 397 402
f 402 397 412
f 375 398 413
f 398 363 403
f 398 403 413
f 359 356 411
f 353 355 410
f 401 362 408
f 360 364 354
f 364 360 415
f 406 364 415
f 362 401 358
f 357 366 358
f 384 369 413
f 366 385 412
f 416 417 418
f 419 420 421
f 422 423 424
f 425 426 427
f 428 427 429
f 430 423 431
f 416 432 417
f 431 433 430
f 434 435 436
f 421 420 437
f 438 439 440
f 436 441 434
f 442 443 444
f 445 446 447
f 182 437 448
f 449 450 451
f 427 452 425
f 453 454 455
f 431 423 422
f 451 450 456
f 418 457 458
f 419 459 420
f 460 461 462
f 441 463 464
f 312 428 438
f 440 443 442
f 465 441 436
f 466 467 468
f 424 423 469
f 470 462 471
f 468 472 466
f 473 432 474
f 468 475 476
f 465 436 400
f 194 460 476
f 477 455 478
f 479 480 481
f 482 427 428
f 437 420 448
f 181 416 418
f 265 480 479
f 391 483 484
f 438 440 325
f 429 485 428
f 486 487 488
f 436 435 489
f 332 490 482
f 435 491 492
f 492 491 493
f 494 495 496
f 455 497 498
f 418 417 457
f 477 478 336
f 462 461 471
f 499 500 501
f 464 502 441
f 428 485 438
f 503 432 473
f 488 504 486
f 158 458 505
f 460 462 476
f 468 467 475
f 484 506 391
f 417 507 457
f 508 507 417
f 433 509 510
f 28 447 511
f 512 513 514
f 515 516 37
f 482 428 327
f 24 447 28
f 455 454 478
f 392 436 489
f 465 463 441
f 514 513 517
f 518 519 520
f 498 521 455
f 522 475 523
f 27 524 37
f 328 478 490
f 446 525 447
f 526 527 528
f 335 440 442
f 332 482 327
f 392 489 396
f 508 417 503
f 132 437 182
f 328 490 332
f 510 529 433
f 407 465 400
f 312 438 325
f 530 531 512
f 470 532 462
f 533 509 433
f 37 516 38
f 414 488 406
f 335 442 344
f 445 447 24
f 501 500 534
f 535 536 277
f 537 500 499
f 520 519 538
f 496 506 494
f 490 452 482
f 115 460 194
f 458 429 505
f 180 416 181
f 455 521 453
f 539 473 526
f 327 428 312
f 343 477 336
f 376 496 389
f 540 500 541
f 459 527 526
f 400 436 392
f 470 471 542
f 498 497 533
f 165 458 158
f 131 475 522
f 38 445 24
f 325 440 335
f 487 463 465
f 269 537 261
f 260 430 243
f 269 536 537
f 543 503 473
f 544 497 477
f 545 456 546
f 547 548 488
f 47 549 27
f 28 511 50
f 336 478 328
f 550 526 528
f 534 500 540
f 546 551 552
f 407 487 465
f 553 470 554
f 555 517 556
f 430 557 423
f 482 452 427
f 558 559 560
f 445 561 446
f 562 563 564
f 565 566 567
f 414 547 488
f 530 512 568
f 569 570 535
f 571 572 573
f 570 541 535
f 476 475 186
f 488 487 406
f 433 529 430
f 258 510 268
f 276 535 277
f 496 569 389
f 343 544 477
f 37 524 515
f 553 472 470
f 277 536 269
f 456 574 451
f 523 466 575
f 576 577 578
f 550 539 526
f 579 501 580
f 572 581 582
f 479 557 430
f 456 551 546
f 576 578 583
f 548 504 488
f 584 495 585
f 462 468 476
f 342 544 343
f 389 569 399
f 544 509 497
f 586 587 588
f 396 483 391
f 539 543 473
f 582 589 590
f 591 501 579
f 531 513 512
f 470 542 554
f 448 474 416
f 430 529 243
f 451 592 449
f 593 561 516
f 473 594 526
f 589 595 590
f 596 519 518
f 420 474 448
f 587 553 597
f 471 464 542
f 265 479 260
f 582 598 572
f 442 599 344
f 534 540 584
f 543 508 503
f 424 469 600
f 578 601 583
f 602 528 603
f 558 599 559
f 131 522 132
f 434 441 604
f 587 597 588
f 605 525 446
f 466 472 587
f 606 434 604
f 585 495 494
f 575 466 586
f 424 600 593
f 441 502 604
f 607 550 528
f 566 519 596
f 469 591 600
f 608 576 609
f 552 547 414
f 114 606 610
f 611 590 609
f 612 613 548
f 258 529 510
f 596 451 566
f 576 583 611
f 186 475 131
f 601 614 583
f 419 527 459
f 553 554 615
f 159 426 47
f 50 491 205
f 606 604 610
f 616 582 590
f 612 449 617
f 469 481 591
f 580 534 584
f 576 611 609
f 260 479 430
f 602 607 528
f 586 466 587
f 548 618 612
f 616 598 582
f 611 616 590
f 615 617 597
f 607 530 550
f 424 593 619
f 489 483 396
f 596 518 614
f 478 454 490
f 522 523 421
f 182 448 180
f 194 476 186
f 601 596 614
f 608 609 602
f 577 620 578
f 621 603 622
f 550 623 539
f 608 602 603
f 522 437 132
f 552 551 547
f 553 615 597
f 624 606 168
f 474 594 473
f 582 581 589
f 615 612 617
f 625 498 422
f 422 424 619
f 344 599 558
f 533 433 431
f 586 588 621
f 498 533 431
f 528 527 603
f 622 527 419
f 458 457 429
f 522 421 437
f 626 627 598
f 621 608 603
f 535 541 536
f 523 575 421
f 526 594 459
f 446 579 580
f 605 446 580
f 114 610 115
f 181 418 165
f 47 628 549
f 511 629 50
f 575 419 421
f 575 586 622
f 391 506 376
f 608 577 576
f 550 530 623
f 268 630 278
f 286 631 276
f 278 630 342
f 399 631 286
f 612 450 449
f 614 632 583
f 583 632 611
f 537 480 261
f 540 495 584
f 590 595 609
f 586 621 622
f 464 486 542
f 625 422 619
f 575 622 419
f 588 577 621
f 603 527 622
f 611 632 616
f 498 431 422
f 376 506 496
f 616 626 598
f 609 595 602
f 619 515 633
f 621 577 608
f 602 595 607
f 624 434 606
f 448 416 180
f 495 570 496
f 566 574 567
f 429 427 505
f 158 505 159
f 205 624 168
f 168 606 114
f 605 580 584
f 472 532 470
f 605 584 585
f 555 514 517
f 610 460 115
f 494 484 634
f 617 620 597
f 635 585 634
f 518 520 636
f 597 620 588
f 539 444 543
f 568 512 559
f 559 514 560
f 589 531 595
f 585 494 634
f 625 521 498
f 623 444 539
f 435 492 489
f 632 626 616
f 588 620 577
f 600 561 593
f 635 605 585
f 625 619 633
f 637 625 633
f 593 515 619
f 418 458 165
f 637 633 549
f 562 627 563
f 628 453 637
f 635 634 629
f 545 574 456
f 451 574 566
f 518 636 614
f 599 568 559
f 523 467 466
f 587 472 553
f 447 525 511
f 459 594 420
f 517 638 556
f 261 480 265
f 446 561 579
f 481 499 591
f 637 521 625
f 560 514 555
f 541 500 536
f 542 504 554
f 511 635 629
f 628 637 549
f 572 638 581
f 512 514 559
f 47 425 628
f 629 493 50
f 634 639 629
f 444 640 442
f 530 568 623
f 624 435 434
f 627 641 598
f 477 497 455
f 595 531 607
f 571 638 572
f 617 642 620
f 604 461 610
f 589 513 531
f 453 521 637
f 486 504 542
f 578 642 601
f 516 561 445
f 567 574 545
f 607 531 530
f 572 641 573
f 591 579 600
f 499 480 537
f 596 592 451
f 420 594 474
f 483 639 484
f 536 500 537
f 629 639 493
f 47 426 425
f 493 491 50
f 496 570 569
f 475 467 523
f 620 642 578
f 564 520 538
f 538 519 565
f 547 618 548
f 643 627 562
f 636 520 563
f 457 485 429
f 615 613 612
f 515 524 633
f 494 506 484
f 427 426 505
f 624 491 435
f 601 592 596
f 450 551 456
f 38 516 445
f 569 631 399
f 342 630 544
f 563 627 626
f 581 638 517
f 598 641 572
f 612 618 450
f 593 516 515
f 581 513 589
f 406 487 407
f 563 520 564
f 417 432 503
f 276 631 535
f 510 630 268
f 504 613 554
f 565 519 566
f 449 642 617
f 632 636 626
f 471 502 464
f 444 443 543
f 635 525 605
f 556 638 571
f 474 432 416
f 544 630 510
f 535 631 569
f 499 501 591
f 548 613 504
f 484 639 634
f 599 640 568
f 644 452 490
f 517 513 581
f 610 461 460
f 573 641 643
f 642 592 601
f 623 640 444
f 483 492 639
f 243 529 258
f 481 480 499
f 626 636 563
f 511 525 635
f 490 454 644
f 549 524 27
f 614 636 632
f 540 541 570
f 580 501 534
f 540 570 495
f 510 509 544
f 543 443 508
f 442 640 599
f 485 507 438
f 633 524 549
f 423 557 469
f 568 640 623
f 579 561 600
f 469 557 481
f 486 463 487
f 205 491 624
f 505 426 159
f 449 592 642
f 628 644 453
f 551 618 547
f 643 641 627
f 450 618 551
f 554 613 615
f 489 492 483
f 481 557 479
f 462 532 468
f 639 492 493
f 604 502 461
f 468 532 472
f 464 463 486
f 457 507 485
f 425 644 628
f 497 509 533
f 461 502 471
f 425 452 644
f 507 439 438
f 508 439 507
f 644 454 453
f 443 439 508
f 440 439 443
f 645 646 647
f 648 649 650
f 651 652 653
f 654 652 651
f 646 655 647
f 648 656 649
f 657 658 659
f 660 661 662
f 663 664 653
f 665 666 667
f 658 668 659
f 660 669 661
f 651 670 671
f 671 654 651
f 653 652 663
f 672 673 674
f 674 675 672
f 672 676 677
f 677 673 672
f 678 675 674
f 674 679 678
f 671 670 678
f 678 679 671
f 677 676 665
f 665 680 677
f 667 680 665
f 657 659 681
f 322 657 681
f 682 660 662
f 659 649 681
f 682 646 660
f 659 683 649
f 646 684 660
f 682 662 387
f 322 681 323
f 405 682 387
f 341 657 322
f 387 662 388
f 573 685 571
f 571 685 686
f 687 685 573
f 687 688 689
f 690 691 688
f 690 688 687
f 692 693 691
f 690 692 691
f 694 695 693
f 691 678 688
f 694 693 692
f 694 696 695
f 696 697 695
f 695 672 693
f 698 697 696
f 538 696 694
f 555 699 560
f 555 700 699
f 701 671 702
f 703 653 704
f 705 674 706
f 562 692 690
f 707 677 708
f 686 703 704
f 686 700 556
f 546 709 545
f 562 690 643
f 710 667 711
f 686 704 700
f 538 694 564
f 571 686 556
f 556 700 555
f 567 698 565
f 712 663 713
f 565 696 538
f 698 696 565
f 564 692 562
f 694 692 564
f 690 687 643
f 643 687 573
f 703 689 651
f 703 651 653
f 714 665 697
f 689 685 687
f 686 685 703
f 567 715 698
f 545 715 567
f 709 715 545
f 703 685 689
f 698 714 697
f 698 715 714
f 684 716 667
f 663 717 683
f 552 661 546
f 560 658 558
f 704 718 700
f 715 719 714
f 653 664 704
f 714 666 665
f 388 720 414
f 546 661 709
f 699 658 560
f 414 720 552
f 700 718 699
f 709 719 715
f 323 656 347
f 409 655 405
f 344 721 341
f 647 655 409
f 347 656 648
f 558 721 344
f 667 666 684
f 683 664 663
f 649 656 681
f 682 655 646
f 665 676 697
f 689 670 651
f 701 654 671
f 691 675 678
f 678 670 688
f 695 676 672
f 672 675 693
f 663 652 713
f 707 673 677
f 674 673 706
f 705 679 674
f 671 679 702
f 677 680 708
f 710 680 667
f 659 668 683
f 712 717 663
f 667 716 711
f 684 669 660
f 645 716 646
f 649 717 650
f 683 668 718
f 719 669 684
f 661 669 709
f 699 668 658
f 711 716 645
f 650 717 712
f 646 716 684
f 683 717 649
f 704 664 718
f 719 666 714
f 722 654 701
f 722 652 654
f 688 670 689
f 693 675 691
f 697 676 695
f 713 652 722
f 706 673 707
f 702 679 705
f 708 680 710
f 662 720 388
f 681 656 323
f 405 655 682
f 341 721 657
f 658 721 558
f 718 664 683
f 684 666 719
f 552 720 661
f 657 721 658
f 661 720 662
f 718 668 699
f 709 669 719
f 723 724 725
f 726 727 728
f 729 730 731
f 728 727 732
f 733 734 735
f 736 729 737
f 738 735 739
f 740 724 741
f 736 730 729
f 741 742 740
f 729 743 737
f 708 744 707
f 745 746 747
f 748 743 729
f 749 750 751
f 732 752 728
f 735 753 733
f 754 755 756
f 757 758 759
f 741 724 723
f 756 760 754
f 726 728 761
f 762 763 764
f 765 766 767
f 373 738 768
f 330 765 767
f 736 769 730
f 725 724 770
f 771 744 708
f 772 759 773
f 774 775 776
f 777 735 738
f 778 769 736
f 262 775 774
f 747 746 779
f 324 780 781
f 768 782 378
f 331 783 784
f 739 785 738
f 762 755 763
f 768 786 782
f 393 787 777
f 788 789 790
f 759 791 792
f 772 773 380
f 793 794 795
f 796 797 798
f 799 797 796
f 170 800 801
f 731 730 802
f 738 785 768
f 803 804 805
f 806 748 800
f 807 808 809
f 161 761 810
f 811 812 813
f 781 814 324
f 812 815 813
f 742 816 817
f 29 751 818
f 819 820 36
f 777 738 386
f 806 821 748
f 39 751 29
f 822 823 783
f 759 758 773
f 784 765 316
f 707 744 824
f 754 825 826
f 827 823 822
f 783 828 784
f 792 829 759
f 825 760 830
f 831 832 833
f 26 834 36
f 835 804 803
f 394 773 787
f 750 836 751
f 379 782 837
f 822 783 340
f 330 767 329
f 393 777 386
f 831 833 838
f 394 787 393
f 817 839 742
f 331 784 316
f 373 768 378
f 840 816 742
f 36 820 40
f 379 837 409
f 347 822 340
f 749 751 39
f 795 794 841
f 842 843 264
f 844 794 793
f 800 748 801
f 763 755 754
f 790 814 788
f 787 753 777
f 845 846 847
f 761 739 810
f 848 846 778
f 778 736 849
f 754 760 825
f 759 829 757
f 811 813 764
f 386 738 373
f 830 850 825
f 309 790 314
f 395 772 380
f 316 765 330
f 851 794 852
f 169 800 170
f 847 846 848
f 792 791 840
f 191 761 161
f 40 749 39
f 378 782 379
f 340 783 331
f 848 778 853
f 255 740 240
f 247 844 263
f 247 843 844
f 764 763 185
f 825 727 854
f 188 811 764
f 855 791 772
f 645 856 711
f 48 857 26
f 29 818 49
f 748 729 801
f 380 773 394
f 841 794 851
f 713 809 712
f 740 858 724
f 777 753 735
f 650 859 648
f 749 860 750
f 706 861 705
f 786 752 732
f 763 754 826
f 802 812 811
f 710 771 708
f 837 838 409
f 862 863 842
f 864 830 865
f 866 732 830
f 701 747 722
f 863 852 842
f 813 815 867
f 868 869 798
f 742 839 740
f 245 817 246
f 273 842 264
f 189 763 826
f 784 821 765
f 790 862 314
f 395 855 772
f 36 834 819
f 802 811 187
f 809 808 870
f 264 843 247
f 771 871 872
f 872 797 799
f 799 744 872
f 798 797 868
f 809 746 807
f 872 744 771
f 747 873 745
f 874 795 875
f 876 832 877
f 826 825 854
f 778 849 853
f 878 879 880
f 784 743 821
f 806 766 821
f 774 858 740
f 835 881 882
f 736 737 849
f 845 815 846
f 193 731 802
f 826 854 217
f 883 789 884
f 867 815 845
f 314 862 315
f 404 855 395
f 855 816 791
f 796 885 799
f 861 824 799
f 329 780 324
f 782 886 837
f 887 795 874
f 888 835 882
f 889 868 890
f 812 769 815
f 740 839 240
f 891 860 820
f 801 729 731
f 801 731 192
f 190 854 726
f 262 774 255
f 892 756 893
f 347 894 822
f 841 851 883
f 895 896 861
f 725 770 897
f 847 848 898
f 859 894 648
f 188 764 185
f 813 762 764
f 899 836 750
f 830 760 865
f 848 853 900
f 884 789 788
f 864 866 830
f 861 885 895
f 725 897 891
f 868 872 890
f 901 902 903
f 904 865 756
f 799 885 861
f 770 887 897
f 409 838 647
f 877 831 905
f 245 839 817
f 892 904 756
f 902 745 906
f 907 882 908
f 856 832 876
f 185 763 189
f 162 734 48
f 49 879 206
f 903 798 888
f 784 828 743
f 880 909 878
f 187 811 188
f 889 890 877
f 866 786 732
f 902 906 903
f 770 776 887
f 875 841 883
f 848 900 898
f 255 774 740
f 901 903 888
f 889 877 905
f 853 910 900
f 725 891 911
f 767 780 329
f 901 888 882
f 773 758 787
f 193 802 187
f 189 826 217
f 805 889 905
f 900 912 898
f 913 864 865
f 867 845 914
f 847 907 908
f 915 792 723
f 849 827 853
f 802 730 812
f 865 760 756
f 723 725 911
f 847 898 907
f 648 894 347
f 840 742 741
f 845 847 908
f 792 840 741
f 907 901 882
f 761 728 739
f 904 913 865
f 904 805 913
f 837 886 916
f 914 892 893
f 805 905 913
f 853 827 910
f 854 727 726
f 842 852 843
f 846 769 778
f 903 796 798
f 845 908 914
f 750 874 875
f 899 750 875
f 192 731 193
f 217 854 190
f 906 895 796
f 170 801 192
f 190 726 191
f 48 917 857
f 818 918 49
f 324 814 309
f 867 914 893
f 813 867 762
f 282 919 273
f 246 920 280
f 315 919 282
f 280 920 404
f 906 796 903
f 921 807 912
f 844 775 263
f 864 916 866
f 851 789 883
f 831 922 905
f 915 723 911
f 882 881 908
f 792 741 723
f 309 814 790
f 911 819 923
f 901 924 902
f 805 804 889
f 645 833 856
f 867 893 762
f 789 863 790
f 825 850 727
f 908 881 914
f 739 735 810
f 856 925 711
f 914 881 892
f 206 926 169
f 161 810 162
f 756 755 893
f 899 875 883
f 835 803 881
f 899 883 884
f 788 781 927
f 928 884 927
f 809 870 712
f 924 929 902
f 650 870 859
f 912 924 898
f 713 779 809
f 929 746 745
f 821 766 765
f 884 788 927
f 898 924 907
f 706 824 861
f 900 921 912
f 912 929 924
f 915 829 792
f 815 769 846
f 907 924 901
f 710 925 771
f 910 921 900
f 864 922 916
f 897 860 891
f 913 922 864
f 928 899 884
f 915 911 923
f 930 915 923
f 905 922 913
f 891 819 911
f 807 746 929
f 726 761 191
f 786 886 782
f 930 923 857
f 747 779 722
f 928 927 918
f 917 757 930
f 701 931 747
f 732 850 830
f 926 800 169
f 751 836 818
f 904 803 805
f 263 775 262
f 750 860 874
f 861 896 705
f 776 793 887
f 930 829 915
f 852 794 843
f 917 930 857
f 818 928 918
f 647 833 645
f 902 929 745
f 892 803 904
f 711 925 710
f 712 870 650
f 918 880 49
f 48 733 917
f 927 932 918
f 890 876 877
f 772 791 759
f 868 797 872
f 707 824 706
f 926 878 806
f 722 779 713
f 881 803 892
f 757 829 930
f 824 744 799
f 702 931 701
f 820 860 749
f 887 874 897
f 837 933 838
f 793 775 844
f 730 769 812
f 838 833 647
f 838 933 831
f 849 823 827
f 780 932 781
f 843 794 844
f 807 929 912
f 821 743 748
f 918 932 880
f 48 734 733
f 880 879 49
f 790 863 862
f 931 896 895
f 728 785 739
f 745 873 906
f 819 834 923
f 788 814 781
f 735 734 810
f 926 806 800
f 40 820 749
f 862 919 315
f 404 920 855
f 737 823 849
f 888 869 835
f 891 820 819
f 895 873 931
f 889 804 868
f 906 873 895
f 768 752 786
f 859 934 894
f 273 919 842
f 817 920 246
f 705 896 702
f 895 885 796
f 934 935 894
f 925 871 771
f 878 909 767
f 928 836 899
f 779 746 809
f 855 920 817
f 842 919 862
f 793 795 887
f 767 766 878
f 798 869 888
f 781 932 927
f 876 871 925
f 866 886 786
f 936 753 787
f 780 909 932
f 916 933 837
f 240 839 245
f 776 775 793
f 818 836 928
f 787 758 936
f 857 834 26
f 926 879 878
f 851 852 863
f 921 808 807
f 831 933 922
f 875 795 841
f 851 863 789
f 817 816 855
f 893 755 762
f 702 896 931
f 785 752 768
f 922 933 916
f 923 834 857
f 724 858 770
f 737 828 823
f 870 808 859
f 874 860 897
f 770 858 776
f 743 828 737
f 894 935 822
f 206 879 926
f 810 734 162
f 835 869 804
f 917 936 757
f 872 871 890
f 877 832 831
f 931 873 747
f 767 909 780
f 776 858 774
f 833 832 856
f 910 935 934
f 932 909 880
f 827 935 910
f 916 886 866
f 822 935 827
f 856 876 925
f 808 934 859
f 823 828 783
f 910 934 921
f 921 934 808
f 733 936 917
f 791 816 840
f 733 753 936
f 728 752 785
f 878 766 806
f 936 758 757
f 727 850 732
f 890 871 876
f 804 869 868
