v -1.47041967 0.00000000 -0.05962840
v -0.55055446 0.00000000 -0.15703922
v -1.01001997 0.00000000 -0.74828260
v -1.09078913 0.00000000 0.56669694
v 1.55997437 0.00000000 -1.25767178
v 2.05474885 0.00000000 -0.77128417
v 2.09134053 0.00000000 -1.25150749
v -1.51919328 0.00000000 1.27579494
v -2.05474328 0.00000000 0.77128417
v -2.06698730 0.00000000 1.25000000
v 1.62853280 0.00000000 -0.50000000
v -1.62844109 0.00000000 0.50000000
v 0.84651914 0.00000000 0.21721670
v 1.62830962 0.00000000 0.71074968
v 1.55966812 0.00000000 -0.00000000
v 2.10545904 0.00000000 -1.60183586
v -2.09243217 0.00000000 1.60515899
v 2.07141639 0.00000000 1.20770204
v 1.46679921 0.00000000 1.39469716
v 2.08283918 0.00000000 1.62047984
v -2.07401478 0.00000000 -1.22090909
v -1.51223801 0.00000000 -1.40789086
v -2.09244661 0.00000000 -1.62575999
v 0.99986501 0.00000000 2.00000000
v 0.45061309 0.00000000 1.16267703
v 1.87598029 0.00000000 -2.00000000
v -1.87598029 0.00000000 2.00000000
v 1.87598029 0.00000000 2.00000000
v -1.87598029 0.00000000 -2.00000000
v -1.66462046 0.00000000 -0.75000000
v 1.04942526 0.00000000 0.85790428
v 0.04724491 0.00000000 0.40613518
v 0.57617345 0.00000000 -1.21606160
v 1.08951707 0.00000000 -0.57402850
v -0.50881596 0.00000000 1.12957029
v 0.99986501 0.00000000 -2.00000000
v -0.99986501 0.00000000 2.00000000
v 0.00000000 0.00000000 2.00000000
v -0.99986501 0.00000000 -2.00000000
v 0.00000000 0.00000000 -2.00000000
v -0.24807498 0.00000000 -0.97682565
v -0.75403959 0.00000000 -1.42659982
v 2.06849904 0.00000000 0.29166667
v -2.06838683 0.00000000 -0.29166667
v 0.27615399 0.00000000 -0.38261707
v -0.52572866 0.00000000 0.48634080
v -2.50000000 0.00000000 2.00000000
v 2.50000000 0.00000000 -2.00000000
v -2.50000000 0.00000000 -2.00000000
v 2.50000000 0.00000000 2.00000000
v 2.50000000 0.00000000 -0.50000000
v 2.50000000 0.00000000 -1.00000000
v 2.50000000 0.00000000 -0.00000000
v 2.06698730 0.00000000 -0.25000000
v -2.50000000 0.00000000 -0.50000000
v -2.50000000 0.00000000 0.00000000
v 2.50000000 0.00000000 0.50000000
v -2.50000000 0.00000000 0.50000000
v -2.06698730 0.00000000 0.25000000
v -2.50000000 0.00000000 1.00000000
v 2.50000000 0.00000000 -1.50000000
v -2.50000000 0.00000000 1.50000000
v -2.50000000 0.00000000 -1.50000000
v -2.50000000 0.00000000 -1.00000000
v 2.50000000 0.00000000 1.50000000
v 2.50000000 0.00000000 1.00000000
v -2.14949412 0.00000000 -0.75179654
v 2.15364501 0.00000000 0.74202368
v 2.36529305 0.80956086 -0.26630134
v 2.45000988 0.49744505 0.22680985
v 2.27386179 1.03901519 0.18220376
v 2.27138471 1.04441923 -0.72096576
v 2.44635873 0.51510094 -0.74199391
v 2.33047629 0.90492003 -1.17376468
v 1.46017239 2.02926011 -1.65803975
v 1.45506138 2.03292803 -1.17719420
v 1.07642154 2.25639462 -1.60301326
v 0.99528563 2.29333960 -1.17357978
v -2.28129585 1.02258948 0.21372785
v -2.43892811 0.54920822 0.23418802
v -2.35078567 0.85076831 -0.19830875
v 2.47231132 0.37104814 -0.25000000
v 2.34912066 0.85535497 0.63701101
v -1.46946313 2.02254249 -1.54758572
v -1.83255407 1.70051333 -1.17258846
v -1.83918929 1.69333480 -1.62511613
v -1.48240254 2.01307792 -1.07563751
v 1.85786206 1.67282652 -1.54758572
v 1.83406656 1.69888194 -1.08213862
v -0.31308330 2.48031830 -0.69016604
v -0.79757849 2.36936037 -0.70521364
v -0.64673570 2.41489812 -1.14681091
v 2.17445361 1.23359292 -1.60886053
v 2.38006347 0.76504764 -1.60324888
v -0.14780241 2.49562706 -1.13907237
v -2.13776097 1.29613966 -1.52134523
v -2.34933835 0.85475688 0.63258412
v 2.11759522 1.32883049 -1.14923602
v -2.10146915 1.35418883 -1.07364094
v -2.46250000 0.43138585 -0.25000000
v -1.09956585 2.24520710 -1.14981813
v -0.99286704 2.29438773 -1.59856932
v 0.23274264 2.48914260 -0.75034025
v 0.25253962 2.48721204 -1.19938542
v 0.56442271 2.43545212 -1.52649057
v 2.46330149 0.42678540 -1.23665454
v 2.15893400 1.26055701 1.54030479
v 2.01483583 1.48001236 1.06942466
v 2.25343715 1.08259918 1.05168531
v 2.37862833 0.76949806 1.51233214
v 2.40350773 0.68785943 0.97696043
v 0.60760433 2.42503958 -1.09674325
v 1.85624425 1.67462153 1.52907848
v 2.02254249 1.46946313 2.00000000
v 1.67282652 1.85786206 2.00000000
v 2.47547118 0.34934570 1.24757298
v 1.24195418 2.16968888 1.08880514
v 1.00477389 2.28919842 0.63168697
v 1.45891154 2.03016677 0.62714735
v 1.46790708 2.02367211 1.54405296
v 1.66656328 1.86348245 1.07764568
v 2.15221982 1.27198658 -0.27888739
v 0.51764340 2.44582201 1.54534352
v 0.76170966 2.38113385 1.08633297
v 1.01319890 2.28548200 1.54492559
v -1.86149316 1.66878495 0.64541025
v -2.15568419 1.26610650 0.63770135
v -2.02179394 1.47049287 0.19724300
v -2.15299243 1.27067840 -0.23864123
v -0.49726701 2.45004602 -1.57840006
v 0.26132116 2.48630474 2.00000000
v -0.26132116 2.48630474 2.00000000
v -0.00116565 2.49999973 1.54062528
v 2.01152683 1.48450659 0.17009816
v 0.25348465 2.48711591 1.08766221
v -2.02395511 1.46751685 1.09769682
v -2.25141372 1.08680094 1.06867909
v -0.77948766 2.37537344 1.09007118
v -0.51977923 2.44536900 1.54758572
v -1.01884899 2.28296884 1.54681705
v -1.67997119 1.85140400 0.19260577
v 1.00098022 2.29085979 -0.27328812
v 0.50290883 2.44889418 -0.26846893
v 0.76990317 2.37849724 -0.71940926
v -0.26817355 2.48557497 1.08848322
v -1.25549733 2.16188030 1.09167338
v -1.47030009 2.02193414 1.54757771
v 2.15485681 1.26751415 0.61724683
v 1.84467554 1.68735656 -0.27738797
v -1.85889141 1.67168260 1.54815285
v -2.16624201 1.24795656 1.54893344
v -2.01804767 1.47562990 -0.68834034
v -2.28512895 1.01399491 -0.69826372
v -1.86467738 1.66522619 -0.25549680
v 1.66079850 1.86862204 0.17355152
v 1.65885735 1.87034550 -0.71715995
v 1.23419222 2.17411351 -0.72713443
v -2.28386364 1.01684161 2.00000000
v -2.44536900 0.51977923 2.00000000
v -2.37527905 0.77977526 1.51980499
v 2.28386364 1.01684161 -2.00000000
v 2.44536900 0.51977923 -2.00000000
v 1.84787954 1.68384714 0.62017378
v 1.45531235 2.03274838 -0.27595263
v -2.02254249 1.46946313 2.00000000
v -2.46460983 0.41916393 0.75180925
v -1.67586561 1.85512115 1.09546889
v 2.28386364 1.01684161 2.00000000
v -2.28386364 1.01684161 -2.00000000
v -2.02254249 1.46946313 -2.00000000
v 2.00813329 1.48909392 -0.71850702
v -1.48026838 2.01464774 -0.25782161
v -1.68282678 1.84880881 -0.69952583
v -0.01163017 2.49997295 0.63584729
v -0.52990936 2.44319383 0.63798539
v 0.50767968 2.44790959 0.63372942
v 1.23687305 2.17258948 0.17707459
v -1.03049185 2.27773716 -0.26128638
v -1.26720671 2.15503762 -0.69972107
v -1.25000000 2.16506351 2.00000000
v -1.67282652 1.85786206 2.00000000
v -0.77254249 2.37764129 2.00000000
v 0.75837100 2.38219928 0.18066573
v -0.00000000 2.50000000 -1.54758572
v 0.26132116 2.48630474 -2.00000000
v 0.77254249 2.37764129 2.00000000
v -0.77254249 2.37764129 -2.00000000
v -0.26132116 2.48630474 -2.00000000
v 0.77254249 2.37764129 -2.00000000
v 1.67282652 1.85786206 -2.00000000
v 2.02254249 1.46946313 -2.00000000
v -1.67282652 1.85786206 -2.00000000
v -1.25000000 2.16506351 -2.00000000
v 1.25000000 2.16506351 2.00000000
v -0.01757548 2.49993822 -0.25820861
v 0.24669838 2.48779821 0.18403829
v -0.27506972 2.48482125 0.18632281
v -1.47575693 2.01795478 0.64288182
v -0.53409673 2.44228186 -0.25713687
v -0.78484414 2.37360900 0.18812382
v -1.25992679 2.15930185 0.19073662
v -1.02570881 2.27989505 0.63986404
v -2.46965964 0.38830561 -0.75143895
v -2.47373766 0.36141665 -1.24936154
v 2.44536900 0.51977923 2.00000000
v -2.44536900 0.51977923 -2.00000000
v -2.37728148 0.77364899 -1.52272551
v -2.39930636 0.70237384 -0.99990351
v -2.47398153 0.35974348 1.23667152
v 2.47117765 0.37852482 0.75000000
v -2.28333120 1.01803665 -1.16304485
v -2.40276008 0.69046651 0.99674251
v 2.47140685 0.37702544 -1.62798665
v -2.47258531 0.36921794 1.62806983
v 2.47386495 0.36054434 1.63616190
v -2.47363629 0.36210979 -1.63678323
v 1.25000000 2.16506351 -2.00000000
v -2.40237727 0.69179727 -0.57000757
v -1.47041967 5.00000000 -0.05962840
v -0.55055446 5.00000000 -0.15703922
v -1.01001997 5.00000000 -0.74828260
v -1.09078913 5.00000000 0.56669694
v 1.55997437 5.00000000 -1.25767178
v 2.05474885 5.00000000 -0.77128417
v 2.09134053 5.00000000 -1.25150749
v -1.51919328 5.00000000 1.27579494
v -2.05474328 5.00000000 0.77128417
v -2.06698730 5.00000000 1.25000000
v 1.62853280 5.00000000 -0.50000000
v -1.62844109 5.00000000 0.50000000
v 0.84651914 5.00000000 0.21721670
v 1.62830962 5.00000000 0.71074968
v 1.55966812 5.00000000 -0.00000000
v 2.10545904 5.00000000 -1.60183586
v -2.09243217 5.00000000 1.60515899
v 2.07141639 5.00000000 1.20770204
v 1.46679921 5.00000000 1.39469716
v 2.08283918 5.00000000 1.62047984
v -2.07401478 5.00000000 -1.22090909
v -1.51223801 5.00000000 -1.40789086
v -2.09244661 5.00000000 -1.62575999
v 0.99986501 5.00000000 2.00000000
v 0.45061309 5.00000000 1.16267703
v 1.87598029 5.00000000 -2.00000000
v -1.87598029 5.00000000 2.00000000
v 1.87598029 5.00000000 2.00000000
v -1.87598029 5.00000000 -2.00000000
v -1.66462046 5.00000000 -0.75000000
v 1.04942526 5.00000000 0.85790428
v 0.04724491 5.00000000 0.40613518
v 0.57617345 5.00000000 -1.21606160
v 1.08951707 5.00000000 -0.57402850
v -0.50881596 5.00000000 1.12957029
v 0.99986501 5.00000000 -2.00000000
v -0.99986501 5.00000000 2.00000000
v 0.00000000 5.00000000 2.00000000
v -0.99986501 5.00000000 -2.00000000
v 0.00000000 5.00000000 -2.00000000
v -0.24807498 5.00000000 -0.97682565
v -0.75403959 5.00000000 -1.42659982
v 2.06849904 5.00000000 0.29166667
v -2.06838683 5.00000000 -0.29166667
v 0.27615399 5.00000000 -0.38261707
v -0.52572866 5.00000000 0.48634080
v -2.50000000 5.00000000 2.00000000
v 2.50000000 5.00000000 -2.00000000
v -2.50000000 5.00000000 -2.00000000
v 2.50000000 5.00000000 2.00000000
v 2.50000000 5.00000000 -0.50000000
v 2.50000000 5.00000000 -1.00000000
v 2.50000000 5.00000000 -0.00000000
v 2.06698730 5.00000000 -0.25000000
v -2.50000000 5.00000000 -0.50000000
v -2.50000000 5.00000000 0.00000000
v 2.50000000 5.00000000 0.50000000
v -2.50000000 5.00000000 0.50000000
v -2.06698730 5.00000000 0.25000000
v -2.50000000 5.00000000 1.00000000
v 2.50000000 5.00000000 -1.50000000
v -2.50000000 5.00000000 1.50000000
v -2.50000000 5.00000000 -1.50000000
v -2.50000000 5.00000000 -1.00000000
v 2.50000000 5.00000000 1.50000000
v 2.50000000 5.00000000 1.00000000
v -2.14949412 5.00000000 -0.75179654
v 2.15364501 5.00000000 0.74202368
v 2.36529305 5.80956086 -0.26630134
v 2.45000988 5.49744505 0.22680985
v 2.27386179 6.03901519 0.18220376
v 2.27138471 6.04441923 -0.72096576
v 2.44635873 5.51510094 -0.74199391
v 2.33047629 5.90492003 -1.17376468
v 1.46017239 7.02926011 -1.65803975
v 1.45506138 7.03292803 -1.17719420
v 1.07642154 7.25639462 -1.60301326
v 0.99528563 7.29333960 -1.17357978
v -2.28129585 6.02258948 0.21372785
v -2.43892811 5.54920822 0.23418802
v -2.35078567 5.85076831 -0.19830875
v 2.47231132 5.37104814 -0.25000000
v 2.34912066 5.85535497 0.63701101
v -1.46946313 7.02254249 -1.54758572
v -1.83255407 6.70051333 -1.17258846
v -1.83918929 6.69333480 -1.62511613
v -1.48240254 7.01307792 -1.07563751
v 1.85786206 6.67282652 -1.54758572
v 1.83406656 6.69888194 -1.08213862
v -0.31308330 7.48031830 -0.69016604
v -0.79757849 7.36936037 -0.70521364
v -0.64673570 7.41489812 -1.14681091
v 2.17445361 6.23359292 -1.60886053
v 2.38006347 5.76504764 -1.60324888
v -0.14780241 7.49562706 -1.13907237
v -2.13776097 6.29613966 -1.52134523
v -2.34933835 5.85475688 0.63258412
v 2.11759522 6.32883049 -1.14923602
v -2.10146915 6.35418883 -1.07364094
v -2.46250000 5.43138585 -0.25000000
v -1.09956585 7.24520710 -1.14981813
v -0.99286704 7.29438773 -1.59856932
v 0.23274264 7.48914260 -0.75034025
v 0.25253962 7.48721204 -1.19938542
v 0.56442271 7.43545212 -1.52649057
v 2.46330149 5.42678540 -1.23665454
v 2.15893400 6.26055701 1.54030479
v 2.01483583 6.48001236 1.06942466
v 2.25343715 6.08259918 1.05168531
v 2.37862833 5.76949806 1.51233214
v 2.40350773 5.68785943 0.97696043
v 0.60760433 7.42503958 -1.09674325
v 1.85624425 6.67462153 1.52907848
v 2.02254249 6.46946313 2.00000000
v 1.67282652 6.85786206 2.00000000
v 2.47547118 5.34934570 1.24757298
v 1.24195418 7.16968888 1.08880514
v 1.00477389 7.28919842 0.63168697
v 1.45891154 7.03016677 0.62714735
v 1.46790708 7.02367211 1.54405296
v 1.66656328 6.86348245 1.07764568
v 2.15221982 6.27198658 -0.27888739
v 0.51764340 7.44582201 1.54534352
v 0.76170966 7.38113385 1.08633297
v 1.01319890 7.28548200 1.54492559
v -1.86149316 6.66878495 0.64541025
v -2.15568419 6.26610650 0.63770135
v -2.02179394 6.47049287 0.19724300
v -2.15299243 6.27067840 -0.23864123
v -0.49726701 7.45004602 -1.57840006
v 0.26132116 7.48630474 2.00000000
v -0.26132116 7.48630474 2.00000000
v -0.00116565 7.49999973 1.54062528
v 2.01152683 6.48450659 0.17009816
v 0.25348465 7.48711591 1.08766221
v -2.02395511 6.46751685 1.09769682
v -2.25141372 6.08680094 1.06867909
v -0.77948766 7.37537344 1.09007118
v -0.51977923 7.44536900 1.54758572
v -1.01884899 7.28296884 1.54681705
v -1.67997119 6.85140400 0.19260577
v 1.00098022 7.29085979 -0.27328812
v 0.50290883 7.44889418 -0.26846893
v 0.76990317 7.37849724 -0.71940926
v -0.26817355 7.48557497 1.08848322
v -1.25549733 7.16188030 1.09167338
v -1.47030009 7.02193414 1.54757771
v 2.15485681 6.26751415 0.61724683
v 1.84467554 6.68735656 -0.27738797
v -1.85889141 6.67168260 1.54815285
v -2.16624201 6.24795656 1.54893344
v -2.01804767 6.47562990 -0.68834034
v -2.28512895 6.01399491 -0.69826372
v -1.86467738 6.66522619 -0.25549680
v 1.66079850 6.86862204 0.17355152
v 1.65885735 6.87034550 -0.71715995
v 1.23419222 7.17411351 -0.72713443
v -2.28386364 6.01684161 2.00000000
v -2.44536900 5.51977923 2.00000000
v -2.37527905 5.77977526 1.51980499
v 2.28386364 6.01684161 -2.00000000
v 2.44536900 5.51977923 -2.00000000
v 1.84787954 6.68384714 0.62017378
v 1.45531235 7.03274838 -0.27595263
v -2.02254249 6.46946313 2.00000000
v -2.46460983 5.41916393 0.75180925
v -1.67586561 6.85512115 1.09546889
v 2.28386364 6.01684161 2.00000000
v -2.28386364 6.01684161 -2.00000000
v -2.02254249 6.46946313 -2.00000000
v 2.00813329 6.48909392 -0.71850702
v -1.48026838 7.01464774 -0.25782161
v -1.68282678 6.84880881 -0.69952583
v -0.01163017 7.49997295 0.63584729
v -0.52990936 7.44319383 0.63798539
v 0.50767968 7.44790959 0.63372942
v 1.23687305 7.17258948 0.17707459
v -1.03049185 7.27773716 -0.26128638
v -1.26720671 7.15503762 -0.69972107
v -1.25000000 7.16506351 2.00000000
v -1.67282652 6.85786206 2.00000000
v -0.77254249 7.37764129 2.00000000
v 0.75837100 7.38219928 0.18066573
v -0.00000000 7.50000000 -1.54758572
v -0.77254249 7.37764129 -2.00000000
v -0.26132116 7.48630474 -2.00000000
v 0.77254249 7.37764129 2.00000000
v 0.26132116 7.48630474 -2.00000000
v -1.67282652 6.85786206 -2.00000000
v -1.25000000 7.16506351 -2.00000000
v 1.25000000 7.16506351 2.00000000
v 0.77254249 7.37764129 -2.00000000
v 1.67282652 6.85786206 -2.00000000
v 2.02254249 6.46946313 -2.00000000
v -0.01757548 7.49993822 -0.25820861
v 0.24669838 7.48779821 0.18403829
v -0.27506972 7.48482125 0.18632281
v -1.47575693 7.01795478 0.64288182
v -0.53409673 7.44228186 -0.25713687
v -0.78484414 7.37360900 0.18812382
v -1.25992679 7.15930185 0.19073662
v -1.02570881 7.27989505 0.63986404
v -2.46965964 5.38830561 -0.75143895
v -2.47373766 5.36141665 -1.24936154
v 2.44536900 5.51977923 2.00000000
v -2.44536900 5.51977923 -2.00000000
v -2.37728148 5.77364899 -1.52272551
v -2.39930636 5.70237384 -0.99990351
v -2.47398153 5.35974348 1.23667152
v 2.47117765 5.37852482 0.75000000
v -2.28333120 6.01803665 -1.16304485
v -2.40276008 5.69046651 0.99674251
v 2.47140685 5.37702544 -1.62798665
v -2.47258531 5.36921794 1.62806983
v 2.47386495 5.36054434 1.63616190
v -2.47363629 5.36210979 -1.63678323
v 1.25000000 7.16506351 -2.00000000
v -2.40237727 5.69179727 -0.57000757
v 3.00701730 -5.00000000 -0.32889486
v 4.08120456 -5.00000000 -0.40861742
v 3.44720513 -5.00000000 0.32437062
v 3.49727775 -5.00000000 -1.15037110
v -4.04072119 -5.00000000 -0.40986882
v -2.99305627 -5.00000000 -0.39171170
v -3.33582763 -5.00000000 0.38112038
v -3.46238514 -5.00000000 -1.18964197
v 4.21492643 -5.00000000 0.57527076
v -2.50959621 -5.00000000 1.09587084
v -3.55728044 -5.00000000 1.19882057
v 2.50000000 -5.00000000 0.59807621
v 3.43287737 -5.00000000 1.18601841
v 2.50000000 -5.00000000 1.38820130
v -2.53942331 -5.00000000 0.22825360
v -0.50000000 -5.00000000 -0.59807621
v 0.50000000 -5.00000000 -1.13397460
v 0.45848377 -5.00000000 -0.30876215
v -0.50000000 -5.00000000 -1.38820130
v 1.57879494 -5.00000000 1.12288338
v -1.42120506 -5.00000000 -1.12288338
v 2.00000000 -5.00000000 -2.00000000
v 2.50000000 -5.00000000 -1.13397460
v 1.54536507 -5.00000000 -1.16016613
v -2.00000000 -5.00000000 2.00000000
v -1.45623429 -5.00000000 1.15381551
v 3.00000000 -5.00000000 -2.00000000
v 4.00000000 -5.00000000 -2.00000000
v -2.00000000 -5.00000000 -2.00000000
v -2.50000000 -5.00000000 -1.13397460
v 0.50000000 -5.00000000 1.13397460
v -0.00000000 -5.00000000 0.31032031
v 0.93719597 -5.00000000 0.37319289
v -2.06280403 -5.00000000 -0.36613104
v -5.00000000 -5.00000000 0.00000000
v -5.00000000 -5.00000000 -1.00000000
v 1.00000000 -5.00000000 -2.00000000
v 5.00000000 -5.00000000 0.00000000
v 5.00000000 -5.00000000 1.00000000
v -3.00000000 -5.00000000 2.00000000
v -0.50000000 -5.00000000 1.13397460
v -1.00000000 -5.00000000 2.00000000
v 1.00000000 -5.00000000 2.00000000
v 0.00000000 -5.00000000 -2.00000000
v -1.00000000 -5.00000000 -2.00000000
v -3.00000000 -5.00000000 -2.00000000
v 0.00000000 -5.00000000 2.00000000
v -1.00000000 -5.00000000 0.26794919
v 2.02558595 -5.00000000 -0.28272125
v -4.00000000 -5.00000000 2.00000000
v 2.00000000 -5.00000000 2.00000000
v -4.21163355 -5.00000000 0.57250707
v -1.25762895 -5.00000000 -0.39872624
v 1.73230816 -5.00000000 0.38128397
v -4.00000000 -5.00000000 -2.00000000
v -5.00000000 -5.00000000 1.00000000
v 5.00000000 -5.00000000 -1.00000000
v 4.00000000 -5.00000000 2.00000000
v 3.00000000 -5.00000000 2.00000000
v -5.00000000 -5.00000000 2.00000000
v -4.26794919 -5.00000000 1.26794919
v 5.00000000 -5.00000000 -2.00000000
v 4.26794919 -5.00000000 -1.26794919
v -5.00000000 -5.00000000 -2.00000000
v -4.26794919 -5.00000000 -1.26794919
v -1.76682567 -5.00000000 0.37666656
v 1.23526836 -5.00000000 -0.38943148
v 5.00000000 -5.00000000 2.00000000
v 4.28775336 -5.00000000 1.29366160
v -5.00000000 -3.00701730 -0.32889486
v -5.00000000 -4.08120456 -0.40861742
v -5.00000000 -3.44720513 0.32437062
v -5.00000000 -3.49727775 -1.15037110
v -5.00000000 4.04072119 -0.40986882
v -5.00000000 2.99305627 -0.39171170
v -5.00000000 3.33582763 0.38112038
v -5.00000000 3.46238514 -1.18964197
v -5.00000000 -4.21492643 0.57527076
v -5.00000000 2.50959621 1.09587084
v -5.00000000 3.55728044 1.19882057
v -5.00000000 -2.50000000 0.59807621
v -5.00000000 -3.43287737 1.18601841
v -5.00000000 -2.50000000 1.38820130
v -5.00000000 2.53942331 0.22825360
v -5.00000000 0.50000000 -0.59807621
v -5.00000000 -0.50000000 -1.13397460
v -5.00000000 -0.45848377 -0.30876215
v -5.00000000 0.50000000 -1.38820130
v -5.00000000 -1.57879494 1.12288338
v -5.00000000 1.42120506 -1.12288338
v -5.00000000 -2.00000000 -2.00000000
v -5.00000000 -2.50000000 -1.13397460
v -5.00000000 -1.54536507 -1.16016613
v -5.00000000 2.00000000 2.00000000
v -5.00000000 1.45623429 1.15381551
v -5.00000000 -3.00000000 -2.00000000
v -5.00000000 -4.00000000 -2.00000000
v -5.00000000 2.00000000 -2.00000000
v -5.00000000 2.50000000 -1.13397460
v -5.00000000 -0.50000000 1.13397460
v -5.00000000 0.00000000 0.31032031
v -5.00000000 -0.93719597 0.37319289
v -5.00000000 2.06280403 -0.36613104
v -5.00000000 5.00000000 0.00000000
v -5.00000000 5.00000000 -1.00000000
v -5.00000000 -1.00000000 -2.00000000
v -5.00000000 3.00000000 2.00000000
v -5.00000000 0.50000000 1.13397460
v -5.00000000 1.00000000 2.00000000
v -5.00000000 -1.00000000 2.00000000
v -5.00000000 0.00000000 -2.00000000
v -5.00000000 1.00000000 -2.00000000
v -5.00000000 3.00000000 -2.00000000
v -5.00000000 0.00000000 2.00000000
v -5.00000000 1.00000000 0.26794919
v -5.00000000 -2.02558595 -0.28272125
v -5.00000000 4.00000000 2.00000000
v -5.00000000 -2.00000000 2.00000000
v -5.00000000 4.21163355 0.57250707
v -5.00000000 1.25762895 -0.39872624
v -5.00000000 -1.73230816 0.38128397
v -5.00000000 4.00000000 -2.00000000
v -5.00000000 5.00000000 1.00000000
v -5.00000000 -4.00000000 2.00000000
v -5.00000000 -3.00000000 2.00000000
v -5.00000000 5.00000000 2.00000000
v -5.00000000 4.26794919 1.26794919
v -5.00000000 -4.26794919 -1.26794919
v -5.00000000 5.00000000 -2.00000000
v -5.00000000 4.26794919 -1.26794919
v -5.00000000 1.76682567 0.37666656
v -5.00000000 -1.23526836 -0.38943148
v -5.00000000 -4.28775336 1.29366160
v 5.00000000 3.00701730 -0.32889486
v 5.00000000 4.08120456 -0.40861742
v 5.00000000 3.44720513 0.32437062
v 5.00000000 3.49727775 -1.15037110
v 5.00000000 -4.04072119 -0.40986882
v 5.00000000 -2.99305627 -0.39171170
v 5.00000000 -3.33582763 0.38112038
v 5.00000000 -3.46238514 -1.18964197
v 5.00000000 4.21492643 0.57527076
v 5.00000000 -2.50959621 1.09587084
v 5.00000000 -3.55728044 1.19882057
v 5.00000000 2.50000000 0.59807621
v 5.00000000 3.43287737 1.18601841
v 5.00000000 2.50000000 1.38820130
v 5.00000000 -2.53942331 0.22825360
v 5.00000000 -0.50000000 -0.59807621
v 5.00000000 0.50000000 -1.13397460
v 5.00000000 0.45848377 -0.30876215
v 5.00000000 -0.50000000 -1.38820130
v 5.00000000 1.57879494 1.12288338
v 5.00000000 -1.42120506 -1.12288338
v 5.00000000 2.00000000 -2.00000000
v 5.00000000 2.50000000 -1.13397460
v 5.00000000 1.54536507 -1.16016613
v 5.00000000 -2.00000000 2.00000000
v 5.00000000 -1.45623429 1.15381551
v 5.00000000 3.00000000 -2.00000000
v 5.00000000 4.00000000 -2.00000000
v 5.00000000 -2.00000000 -2.00000000
v 5.00000000 -2.50000000 -1.13397460
v 5.00000000 0.50000000 1.13397460
v 5.00000000 -0.00000000 0.31032031
v 5.00000000 0.93719597 0.37319289
v 5.00000000 -2.06280403 -0.36613104
v 5.00000000 1.00000000 -2.00000000
v 5.00000000 5.00000000 0.00000000
v 5.00000000 5.00000000 1.00000000
v 5.00000000 -3.00000000 2.00000000
v 5.00000000 -0.50000000 1.13397460
v 5.00000000 -1.00000000 2.00000000
v 5.00000000 1.00000000 2.00000000
v 5.00000000 0.00000000 -2.00000000
v 5.00000000 -1.00000000 -2.00000000
v 5.00000000 -3.00000000 -2.00000000
v 5.00000000 0.00000000 2.00000000
v 5.00000000 -1.00000000 0.26794919
v 5.00000000 2.02558595 -0.28272125
v 5.00000000 -4.00000000 2.00000000
v 5.00000000 2.00000000 2.00000000
v 5.00000000 -4.21163355 0.57250707
v 5.00000000 -1.25762895 -0.39872624
v 5.00000000 1.73230816 0.38128397
v 5.00000000 -4.00000000 -2.00000000
v 5.00000000 5.00000000 -1.00000000
v 5.00000000 4.00000000 2.00000000
v 5.00000000 3.00000000 2.00000000
v 5.00000000 -4.26794919 1.26794919
v 5.00000000 5.00000000 -2.00000000
v 5.00000000 4.26794919 -1.26794919
v 5.00000000 -4.26794919 -1.26794919
v 5.00000000 -1.76682567 0.37666656
v 5.00000000 1.23526836 -0.38943148
v 5.00000000 5.00000000 2.00000000
v 5.00000000 4.28775336 1.29366160
v 2.75301814 4.56173687 2.00000000
v 3.36346278 4.62466457 2.00000000
v 2.97887436 5.23471695 2.00000000
v -2.91187137 0.20079276 2.00000000
v -2.94149075 0.87118733 2.00000000
v -3.53744636 0.41405967 2.00000000
v -2.76106493 -0.44802297 2.00000000
v 2.86219816 -0.38638080 2.00000000
v 2.92282652 0.30720145 2.00000000
v -1.67781726 -2.36757161 2.00000000
v -1.18361348 -3.05556254 2.00000000
v -0.87645463 -2.31098379 2.00000000
v -3.62630490 1.11653677 2.00000000
v 0.35316063 4.04773708 2.00000000
v 0.87997988 4.37435713 2.00000000
v -1.16190845 2.67884651 2.00000000
v -1.56823393 3.07707101 2.00000000
v -1.72745751 2.37764129 2.00000000
v -0.43917766 4.13225054 2.00000000
v 1.26113755 2.71128844 2.00000000
v 0.61103713 2.87470367 2.00000000
v 1.08411713 3.24619506 2.00000000
v -0.40079380 9.12356198 2.00000000
v -0.40022553 8.43301934 2.00000000
v 0.28398526 8.57575878 2.00000000
v -3.60836004 -1.58057590 2.00000000
v -4.35246431 -1.39605228 2.00000000
v -4.16349452 -2.38721433 2.00000000
v -1.50000000 -4.13397460 2.00000000
v -2.04512985 -3.04067703 2.00000000
v -2.09413195 2.82895219 2.00000000
v -3.14018186 1.44677516 2.00000000
v -3.35766696 -4.01761640 2.00000000
v -2.45455080 -3.76135872 2.00000000
v -2.86995721 -3.09794134 2.00000000
v -2.76415435 3.44755317 2.00000000
v -2.08365746 3.44219320 2.00000000
v -2.45025129 3.97351254 2.00000000
v -1.85568064 4.02546109 2.00000000
v -2.36314592 7.55403131 2.00000000
v -1.78813079 7.99347662 2.00000000
v -2.58059044 8.27622549 2.00000000
v 3.48543016 0.04219358 2.00000000
v -1.22455785 4.17434156 2.00000000
v -2.54518480 1.46946313 2.00000000
v -2.10969335 1.89957643 2.00000000
v -2.79011545 2.02023966 2.00000000
v -2.28537789 2.34525352 2.00000000
v 0.56510570 3.42457884 2.00000000
v 0.04387976 3.01935242 2.00000000
v -3.60414520 -3.00276743 2.00000000
v 0.01045816 3.61168429 2.00000000
v 2.16230328 3.51075185 2.00000000
v 1.59464987 3.52821311 2.00000000
v 1.82299563 2.96250156 2.00000000
v -1.46093202 3.61118884 2.00000000
v 0.61664090 -0.74433693 2.00000000
v 1.23707599 -1.42222605 2.00000000
v 1.43792265 -0.62156515 2.00000000
v 3.65884481 5.25160298 2.00000000
v 0.23651692 9.35479061 2.00000000
v 4.14055311 2.45251040 2.00000000
v 4.25332840 1.51735884 2.00000000
v -3.39447029 -0.27876247 2.00000000
v 2.18799014 4.50348078 2.00000000
v 1.49368571 4.48472717 2.00000000
v 1.89028418 4.01312099 2.00000000
v -1.90664862 8.73518453 2.00000000
v -0.40179345 -2.93046562 2.00000000
v -4.61939766 6.91341716 2.00000000
v -3.62393203 6.99323275 2.00000000
v -4.15734806 7.77785117 2.00000000
v 4.22686780 -0.37581299 2.00000000
v 3.85563068 -1.06193856 2.00000000
v -2.65666557 2.60783121 2.00000000
v 3.55516806 1.81409573 2.00000000
v 4.27011329 -1.72335475 2.00000000
v -0.40689608 -4.26270953 2.00000000
v 0.52226381 -4.28533624 2.00000000
v 0.06542111 -3.59490081 2.00000000
v -1.62953521 4.54149496 2.00000000
v -1.10489555 8.34279200 2.00000000
v -1.21371348 9.09231105 2.00000000
v 1.17379037 8.40870428 2.00000000
v 1.84768481 7.98371785 2.00000000
v 1.94548747 8.63975106 2.00000000
v 4.17161212 4.58665325 2.00000000
v -4.14095322 4.59871175 2.00000000
v -3.15970206 -0.96299420 2.00000000
v -2.45116903 3.12212310 2.00000000
v -0.60676795 2.85502371 2.00000000
v -0.47067763 3.43450255 2.00000000
v -1.00527062 3.22137076 2.00000000
v 2.41833279 3.06467485 2.00000000
v 2.87362606 1.91683037 2.00000000
v 2.18404784 1.96652551 2.00000000
v 2.57593218 1.45705402 2.00000000
v 3.64256177 7.00980439 2.00000000
v 3.20442755 6.41750726 2.00000000
v 4.03956564 6.25633402 2.00000000
v 0.97851573 -3.61242837 2.00000000
v 1.99012234 -3.52542863 2.00000000
v 1.31001560 -2.93002167 2.00000000
v 3.34041543 5.85541571 2.00000000
v -3.37861803 5.83252508 2.00000000
v -3.19862446 6.41957208 2.00000000
v -4.05691887 6.29131884 2.00000000
v 1.44954120 3.12246464 2.00000000
v 2.44098144 7.55236596 2.00000000
v 2.86219463 7.01105689 2.00000000
v 3.21076962 7.70201926 2.00000000
v 4.13851985 3.85386074 2.00000000
v -4.13206178 3.85540354 2.00000000
v 4.13263851 0.54247201 2.00000000
v 4.10345146 -2.46437428 2.00000000
v 3.55780380 -1.72334310 2.00000000
v 3.17499318 -2.36806113 2.00000000
v 2.62638474 8.26178935 2.00000000
v -3.86519840 -0.80454473 2.00000000
v -3.17444988 7.68588583 2.00000000
v 2.91826266 0.90836337 2.00000000
v -3.25050142 -2.34610163 2.00000000
v -2.84127729 -1.66116866 2.00000000
v 1.22432022 7.68344292 2.00000000
v 0.62597309 7.87829394 2.00000000
v 2.20705529 6.95448225 2.00000000
v 1.77865383 7.37939709 2.00000000
v 2.16327694 -0.52055892 2.00000000
v -0.92012315 3.71473085 2.00000000
v -1.07558998 -0.90316926 2.00000000
v -0.28425784 -0.77831249 2.00000000
v -3.55747055 5.20916342 2.00000000
v -3.02075743 4.93215022 2.00000000
v -2.93741806 5.40116709 2.00000000
v -4.29191094 1.51032077 2.00000000
v -4.14991837 2.41413111 2.00000000
v 1.73677717 2.36042669 2.00000000
v 2.22503693 2.58804868 2.00000000
v 3.50258866 -0.55761786 2.00000000
v -3.29914863 2.39861306 2.00000000
v -2.19159227 4.50767214 2.00000000
v 1.00227501 3.75305377 2.00000000
v 2.52897665 2.25589085 2.00000000
v -0.97545161 9.90392640 2.00000000
v 0.00000000 10.00000000 2.00000000
v -2.77785117 9.15734806 2.00000000
v -1.91341716 9.61939766 2.00000000
v 1.91341716 9.61939766 2.00000000
v 2.77785117 9.15734806 2.00000000
v -3.53553391 8.53553391 2.00000000
v 3.53553391 8.53553391 2.00000000
v 4.15734806 7.77785117 2.00000000
v -2.81737755 7.00059285 2.00000000
v -1.58563731 -0.49139345 2.00000000
v 1.44560023 9.11828895 2.00000000
v 1.87906444 -1.05425173 2.00000000
v 3.65073374 1.14466214 2.00000000
v 3.12861354 1.49570071 2.00000000
v -2.49022375 -4.48170442 2.00000000
v 2.02458333 -2.87490721 2.00000000
v 3.50000000 -4.13397460 2.00000000
v 2.49486351 -4.30191832 2.00000000
v 1.49654208 -4.24197872 2.00000000
v -4.23220931 -3.44592456 2.00000000
v -3.35846078 4.55770491 2.00000000
v 4.61939766 6.91341716 2.00000000
v 3.43889648 0.62229753 2.00000000
v 2.70209540 -3.01210960 2.00000000
v 2.92424074 -3.70463653 2.00000000
v -2.17506608 -0.51503477 2.00000000
v 3.82054495 5.72863196 2.00000000
v 4.26363624 5.47443898 2.00000000
v 2.47124074 4.00515263 2.00000000
v -0.68537638 -3.59552262 2.00000000
v 2.41533911 -2.35079414 2.00000000
v 2.78755308 -1.67409511 2.00000000
v 0.30453262 -1.51310265 2.00000000
v -3.56147857 1.80264156 2.00000000
v 3.66725345 2.88825858 2.00000000
v 4.31341503 3.19508460 2.00000000
v 3.54322166 3.46808032 2.00000000
v -3.54159021 3.46373583 2.00000000
v -4.31381437 3.19251906 2.00000000
v -3.67518231 2.87030493 2.00000000
v 4.23686191 -3.48473134 2.00000000
v 3.44947862 -3.19780962 2.00000000
v 0.82857673 9.07156326 2.00000000
v -3.06726634 2.95763122 2.00000000
v -4.90392640 5.97545161 2.00000000
v -3.97716033 5.73713603 2.00000000
v 2.77557443 3.47796460 2.00000000
v 3.06000047 2.99507915 2.00000000
v 0.80471668 -2.21245395 2.00000000
v 1.61842710 -2.28523291 2.00000000
v -4.36015030 5.35029949 2.00000000
v 4.90392640 5.97545161 2.00000000
v -4.28532093 0.65423612 2.00000000
v -2.75043775 4.49271566 2.00000000
v 2.66623687 2.68662861 2.00000000
v 0.44068155 -2.88315777 2.00000000
v -2.46934798 -2.35170298 2.00000000
v -0.55378318 -1.54403075 2.00000000
v 3.21311638 2.42989910 2.00000000
v -0.05779855 -2.21668232 2.00000000
v 2.07427346 -1.65787347 2.00000000
v -1.72745751 7.37764129 2.00000000
v -4.09009360 -0.07546045 2.00000000
v -0.61103713 7.87470367 2.00000000
v 0.00000000 7.93892626 2.00000000
v -2.17630040 6.96036609 2.00000000
v 0.97545161 9.90392640 2.00000000
v -1.19536900 7.68484274 2.00000000
v -1.35883922 -1.60683877 2.00000000
v -2.09854853 -1.66719349 2.00000000
v 2.78672035 5.91240383 2.00000000
v -2.78240874 5.93681667 2.00000000
v 3.06526900 4.00050351 2.00000000
v -3.06526900 4.00050351 2.00000000
v -2.53249153 6.46294627 2.00000000
v 2.55510748 6.46002869 2.00000000
v -4.26794919 -4.26794919 2.00000000
v 4.26794919 -4.26794919 2.00000000
v -1.80168522 -1.03876323 2.00000000
v 3.15508112 -1.04823480 2.00000000
v 1.37217493 4.03069444 2.00000000
v 2.48277314 -1.04903505 2.00000000
v -0.79565280 8.74325878 2.00000000
v -2.46120369 -1.05844377 2.00000000
v -3.64588236 4.08182405 2.00000000
v 3.65641708 4.10675248 2.00000000
v -4.47773291 -0.60397871 2.00000000
v 4.61939766 6.91341716 -2.00000000
v 4.76016298 6.52998314 -1.06825739
v 4.90392640 5.97545161 -2.00000000
v -4.90392640 5.97545161 -2.00000000
v -4.76012475 6.53010207 -1.06835774
v -4.61939766 6.91341716 -2.00000000
v -2.42036248 9.37513948 -0.55781018
v -3.11740757 8.90919046 -1.32612835
v -3.19160797 8.84884899 -0.48495632
v -2.35698368 9.40960632 -1.35605129
v 4.94668352 5.72823223 -1.26459378
v -4.94668352 5.72823223 -1.26459378
v -4.93134973 5.82570567 0.49110599
v -4.74242325 6.58411543 1.12466076
v -4.75107857 6.55796421 -0.00157280
v 4.75111194 6.55786243 -0.00194366
v 4.74127466 6.58754987 1.12335436
v 4.93140931 5.82534974 0.48835522
v -3.85606964 8.18288029 -1.17493605
v -3.89024409 8.14101909 -0.32753221
v 3.17196642 8.86505227 -0.54597834
v 3.89036639 8.14086761 -0.32746665
v 3.85626659 8.18264167 -1.17484190
v -4.47818334 7.22393209 0.46133746
v 4.50284030 7.17357522 0.47390210
v -1.45142339 9.78470168 -0.34097235
v -1.45142339 9.78470168 -1.15148818
v 1.45142339 9.78470168 -0.54553547
v 1.45142339 9.78470168 -1.35605129
v 0.49008570 9.97592363 -1.15148818
v 0.49008570 9.97592363 -0.34097235
v 2.35698368 9.40960632 -0.34097235
v 2.35698368 9.40960632 -1.15148818
v -0.49008570 9.97592363 -0.54553547
v -0.49008570 9.97592363 -1.35605129
v 3.17196642 8.86505227 -1.35629813
v -4.92778799 5.84670272 -0.47605548
v 4.92786750 5.84623987 -0.47641942
v -4.34226987 7.47884901 -0.44740228
v 4.34210321 7.47914093 -0.44723933
v -2.35723386 9.40947259 1.15206432
v -3.17196680 8.86505196 1.15137110
v -1.45142339 9.78470168 1.15148818
v -0.97957067 9.90310527 0.31771450
v -1.91699013 9.61791607 0.31159642
v -0.49008570 9.97592363 1.15148818
v 0.00265818 9.99999929 0.31979746
v 0.49015961 9.97591635 1.15258133
v 0.97437980 9.90413948 0.32056889
v 1.45142339 9.78470168 1.15148818
v 1.91720582 9.61782653 0.32076764
v 2.35716435 9.40950975 1.15268641
v 2.77747592 9.15759877 0.32087442
v 3.17196642 8.86505227 1.15148818
v -4.38947497 7.39426596 1.18212686
v -3.85367676 8.18577706 1.16538029
v -1.91341716 9.61939766 -2.00000000
v -0.97545161 9.90392640 -2.00000000
v -2.77785117 9.15734806 0.30297635
v -3.53031544 8.54074468 0.33391442
v -0.00000000 10.00000000 -2.00000000
v 0.97545161 9.90392640 -2.00000000
v 1.91341716 9.61939766 -2.00000000
v 2.77785117 9.15734806 -2.00000000
v 4.38982672 7.39362097 1.18166248
v 3.53553391 8.53553391 -2.00000000
v 4.15734806 7.77785117 -2.00000000
v -4.15734806 7.77785117 -2.00000000
v -3.53553391 8.53553391 -2.00000000
v 3.53240972 8.53865534 0.33986484
v 3.85910303 8.17920175 1.15956788
v 4.39349660 7.38687822 -1.31299751
v -4.39361299 7.38666397 -1.31343536
v -4.10594901 7.85327579 0.38054959
v 4.10683366 7.85200233 0.38117329
v 4.94483723 5.74066508 1.26214936
v -4.94668352 5.72823223 1.26459378
v -2.77785117 9.15734806 -2.00000000
v -2.75301814 4.56173687 -2.00000000
v -3.36346278 4.62466457 -2.00000000
v -2.97887436 5.23471695 -2.00000000
v 2.91178041 0.20046953 -2.00000000
v 2.94180454 0.87055248 -2.00000000
v 3.53652605 0.41273954 -2.00000000
v 2.76051917 -0.44996236 -2.00000000
v -2.86388232 -0.38559163 -2.00000000
v -2.92282652 0.30720145 -2.00000000
v -0.87775490 -2.31078519 -2.00000000
v -1.18410477 -3.05546369 -2.00000000
v -1.67946471 -2.36717712 -2.00000000
v 2.42069863 2.93931469 -2.00000000
v 2.65986609 2.43225276 -2.00000000
v 2.14919725 2.52118700 -2.00000000
v 3.62860511 1.11273170 -2.00000000
v -0.34303482 4.05697477 -2.00000000
v -0.87829224 4.37589675 -2.00000000
v 4.10311651 5.98741489 -2.00000000
v 3.70007741 6.64289030 -2.00000000
v 0.49993251 4.18767671 -2.00000000
v -1.26113755 2.71128844 -2.00000000
v -0.61103713 2.87470367 -2.00000000
v 0.61103713 2.87470367 -2.00000000
v 1.26083728 2.71064058 -2.00000000
v -1.08411713 3.24619506 -2.00000000
v 1.08012209 3.22651190 -2.00000000
v 3.04811660 2.91625321 -2.00000000
v 0.95367786 3.78430834 -2.00000000
v 1.58571896 3.52209280 -2.00000000
v 0.39867113 9.13492571 -2.00000000
v 0.40011642 8.43394587 -2.00000000
v -0.28428850 8.57738217 -2.00000000
v 2.39064069 7.59137034 -2.00000000
v 1.82288091 8.01320927 -2.00000000
v 2.62317491 8.31252727 -2.00000000
v -2.04512985 -3.04067703 -2.00000000
v -1.50000000 -4.13397460 -2.00000000
v 3.14054308 1.44622576 -2.00000000
v -2.87529499 -3.15301733 -2.00000000
v -2.45460459 -3.77583031 -2.00000000
v -3.35259810 -4.03489838 -2.00000000
v -3.48566681 0.04206215 -2.00000000
v -0.56510570 3.42457884 -2.00000000
v -0.04326988 3.02216384 -2.00000000
v -0.05064682 3.62593291 -2.00000000
v -2.16230328 3.51075185 -2.00000000
v -1.59464987 3.52821311 -2.00000000
v -1.82299563 2.96250156 -2.00000000
v 1.44860021 -0.61727465 -2.00000000
v 1.21757372 -1.41390660 -2.00000000
v 0.58032572 -0.72215630 -2.00000000
v 3.07470232 6.40021020 -2.00000000
v 2.97974266 7.02493910 -2.00000000
v 0.39896475 3.39957670 -2.00000000
v -3.57830345 -3.13161898 -2.00000000
v -3.65884481 5.25160298 -2.00000000
v -0.23651692 9.35479061 -2.00000000
v 1.90764262 8.74511597 -2.00000000
v 1.40665332 4.04642236 -2.00000000
v 1.84065087 2.97695408 -2.00000000
v 2.16890206 3.50059067 -2.00000000
v -4.14055311 2.45251040 -2.00000000
v -4.25332840 1.51735884 -2.00000000
v 3.38903937 -0.28636004 -2.00000000
v -2.18799014 4.50348078 -2.00000000
v -1.49368571 4.48472717 -2.00000000
v -1.89028418 4.01312099 -2.00000000
v -0.40179345 -2.93046562 -2.00000000
v 3.20291367 7.77855823 -2.00000000
v -4.22686780 -0.37581299 -2.00000000
v -3.85563068 -1.06193856 -2.00000000
v -4.27151333 -1.72164679 -2.00000000
v -3.55516806 1.81409573 -2.00000000
v -2.48039273 -2.38366967 -2.00000000
v -3.32213121 -2.47097133 -2.00000000
v -2.78770359 -1.65640780 -2.00000000
v 3.53294437 -1.67392647 -2.00000000
v 4.32647674 -1.43590846 -2.00000000
v 4.12498420 -2.47800990 -2.00000000
v 0.06748014 -3.59205529 -2.00000000
v 0.52320181 -4.28403994 -2.00000000
v -0.40655291 -4.26223527 -2.00000000
v -1.17383369 8.40893620 -2.00000000
v -1.84768481 7.98371785 -2.00000000
v -1.94548747 8.63975106 -2.00000000
v 1.10603838 8.34070089 -2.00000000
v -4.17161212 4.58665325 -2.00000000
v 4.14743023 4.58877787 -2.00000000
v 3.12775323 -1.00631698 -2.00000000
v 3.73692208 7.28485668 -2.00000000
v 1.62133571 4.50402928 -2.00000000
v -2.41833279 3.06467485 -2.00000000
v 2.54839259 1.46666252 -2.00000000
v 2.18404784 1.96652551 -2.00000000
v 2.87650416 1.90038827 -2.00000000
v -2.87362606 1.91683037 -2.00000000
v -2.18404784 1.96652551 -2.00000000
v -2.57593218 1.45705402 -2.00000000
v 3.19911636 -2.39722323 -2.00000000
v -3.64256177 7.00980439 -2.00000000
v -3.20442755 6.41750726 -2.00000000
v -4.03956564 6.25633402 -2.00000000
v 1.30194759 -2.92166378 -2.00000000
v 1.99578525 -3.52732129 -2.00000000
v 0.98174154 -3.60797038 -2.00000000
v -3.34041543 5.85541571 -2.00000000
v 1.23703034 9.07793082 -2.00000000
v -1.44954120 3.12246464 -2.00000000
v -2.44098144 7.55236596 -2.00000000
v -2.86219463 7.01105689 -2.00000000
v -3.21076962 7.70201926 -2.00000000
v -3.54443560 -1.74706258 -2.00000000
v -4.13851985 3.85386074 -2.00000000
v 4.13379026 3.85393263 -2.00000000
v -4.13263851 0.54247201 -2.00000000
v 1.44949133 3.11850800 -2.00000000
v -2.62638474 8.26178935 -2.00000000
v 3.82319896 -0.85953569 -2.00000000
v 3.37335657 5.89991203 -2.00000000
v -2.91826266 0.90836337 -2.00000000
v -1.22432022 7.68344292 -2.00000000
v -0.62597309 7.87829394 -2.00000000
v 1.62187755 -2.26465697 -2.00000000
v 2.07427346 -1.65787347 -2.00000000
v -2.20705529 6.95448225 -2.00000000
v -1.77865383 7.37939709 -2.00000000
v 2.17128228 6.98700987 -2.00000000
v 2.53790148 6.48207382 -2.00000000
v 3.58595602 5.20691062 -2.00000000
v 3.02616618 4.93151847 -2.00000000
v 2.93741806 5.40116709 -2.00000000
v 4.29171798 1.51024349 -2.00000000
v 4.14975367 2.41407779 -2.00000000
v -1.73677717 2.36042669 -2.00000000
v -2.22503693 2.58804868 -2.00000000
v 1.73677717 2.36042669 -2.00000000
v -0.30244408 -0.75965166 -2.00000000
v -1.08013058 -0.90208811 -2.00000000
v -3.50289228 -0.55951104 -2.00000000
v 2.18386230 4.50281467 -2.00000000
v -1.00227501 3.75305377 -2.00000000
v 3.33030195 2.38467886 -2.00000000
v 1.10167387 4.35800355 -2.00000000
v -2.52897665 2.25589085 -2.00000000
v -1.58732082 -0.49101192 -2.00000000
v -1.44560609 9.11832034 -2.00000000
v 0.78049909 -2.15958171 -2.00000000
v 0.16615547 -1.46442115 -2.00000000
v -3.65073374 1.14466214 -2.00000000
v -3.12861354 1.49570071 -2.00000000
v 1.89447904 4.00102986 -2.00000000
v -2.48996266 -4.48335756 -2.00000000
v 2.02527342 -2.87079202 -2.00000000
v 2.49486351 -4.30191832 -2.00000000
v 3.50000000 -4.13397460 -2.00000000
v 1.49654208 -4.24197872 -2.00000000
v 2.46675442 3.99112516 -2.00000000
v 3.35830741 4.55760854 -2.00000000
v -4.12354514 -2.50733946 -2.00000000
v -3.43889648 0.62229753 -2.00000000
v 2.94202648 -3.71184610 -2.00000000
v 2.72810214 -3.03507973 -2.00000000
v 2.17048170 -0.53132561 -2.00000000
v -2.17506608 -0.51503477 -2.00000000
v -3.82054495 5.72863196 -2.00000000
v -4.26363624 5.47443898 -2.00000000
v -2.47124074 4.00515263 -2.00000000
v -0.68499420 -3.59483889 -2.00000000
v 3.57585064 1.78255918 -2.00000000
v 3.54375557 3.46631513 -2.00000000
v 4.31382596 3.19222804 -2.00000000
v 3.67172052 2.86254195 -2.00000000
v -3.66725345 2.88825858 -2.00000000
v -4.31341503 3.19508460 -2.00000000
v -3.54322166 3.46808032 -2.00000000
v -0.82864604 9.07193432 -2.00000000
v 3.46200347 -3.20921196 -2.00000000
v 4.24034836 -3.48737747 -2.00000000
v -4.21794780 -3.49186839 -2.00000000
v 0.45797741 -2.85925539 -2.00000000
v 2.77931184 3.46560830 -2.00000000
v -2.77557443 3.47796460 -2.00000000
v -3.06000047 2.99507915 -2.00000000
v 4.28518840 0.65406976 -2.00000000
v 2.78755308 -1.67409511 -2.00000000
v 2.41533911 -2.35079414 -2.00000000
v 2.74914942 4.49190609 -2.00000000
v -2.66623687 2.68662861 -2.00000000
v -3.21311638 2.42989910 -2.00000000
v -0.07271847 -2.19064106 -2.00000000
v -0.56578468 -1.49446016 -2.00000000
v 4.09009360 -0.07546045 -2.00000000
v 0.61103713 7.87470367 -2.00000000
v 1.87439906 -1.05674692 -2.00000000
v -0.00000000 7.93892626 -2.00000000
v -1.36499341 -1.60604171 -2.00000000
v 1.19536900 7.68484274 -2.00000000
v -2.10227902 -1.66562359 -2.00000000
v -2.78672035 5.91240383 -2.00000000
v 2.78243349 5.95123576 -2.00000000
v 3.06526900 4.00050351 -2.00000000
v -3.06526900 4.00050351 -2.00000000
v 1.71441984 7.40469844 -2.00000000
v -2.55510748 6.46002869 -2.00000000
v -4.26794919 -4.26794919 -2.00000000
v 4.26794919 -4.26794919 -2.00000000
v -3.15491510 -1.05848982 -2.00000000
v -1.37183740 4.03100236 -2.00000000
v -1.80556213 -1.03793671 -2.00000000
v 2.46106623 -1.06335428 -2.00000000
v -2.47970972 -1.04985092 -2.00000000
v 4.47773291 -0.60397871 -2.00000000
v 4.34808583 5.35171100 -2.00000000
v 0.79300059 8.74420032 -2.00000000
v -3.65641708 4.10675248 -2.00000000
v 3.64734200 4.08054950 -2.00000000
f 1 2 3
f 4 2 1
f 5 6 7
f 8 9 10
f 6 5 11
f 9 8 12
f 13 14 15
f 5 7 16
f 8 10 17
f 18 19 20
f 21 22 23
f 24 19 25
f 26 5 16
f 27 8 17
f 19 28 20
f 22 29 23
f 30 1 3
f 13 25 31
f 25 19 31
f 14 13 31
f 25 13 32
f 5 33 34
f 8 35 4
f 26 36 5
f 27 37 8
f 38 24 25
f 24 28 19
f 39 29 22
f 35 25 32
f 36 33 5
f 5 34 11
f 8 4 12
f 33 40 41
f 37 35 8
f 41 40 42
f 36 40 33
f 37 38 35
f 35 38 25
f 14 43 15
f 30 44 1
f 45 41 2
f 34 13 15
f 40 39 42
f 34 45 13
f 2 4 46
f 45 2 32
f 34 33 45
f 45 33 41
f 47 27 17
f 48 26 16
f 29 49 23
f 28 50 20
f 13 45 32
f 35 32 46
f 22 30 3
f 2 41 3
f 51 52 6
f 53 51 54
f 55 56 44
f 57 53 43
f 56 58 59
f 58 60 9
f 52 61 7
f 22 21 30
f 60 62 10
f 19 18 14
f 63 64 21
f 65 66 18
f 22 3 42
f 4 35 46
f 34 15 11
f 44 30 67
f 43 14 68
f 51 6 54
f 43 53 54
f 30 21 67
f 44 56 59
f 58 9 59
f 14 18 68
f 4 1 12
f 64 55 67
f 6 52 7
f 66 57 68
f 9 60 10
f 43 54 15
f 44 59 1
f 19 14 31
f 32 2 46
f 55 44 67
f 57 43 68
f 21 64 67
f 7 61 16
f 18 66 68
f 10 62 17
f 63 21 23
f 65 18 20
f 49 63 23
f 50 65 20
f 62 47 17
f 61 48 16
f 39 22 42
f 3 41 42
f 54 6 11
f 15 54 11
f 59 9 12
f 1 59 12
f 69 70 71
f 72 73 69
f 73 72 74
f 75 76 77
f 76 78 77
f 79 80 81
f 70 69 82
f 70 83 71
f 84 85 86
f 85 84 87
f 76 88 89
f 88 76 75
f 90 91 92
f 93 94 74
f 95 90 92
f 85 96 86
f 80 79 97
f 98 93 74
f 96 85 99
f 80 100 81
f 84 101 87
f 101 84 102
f 98 88 93
f 95 103 90
f 103 95 104
f 69 73 82
f 78 105 77
f 88 98 89
f 106 73 74
f 107 108 109
f 110 109 111
f 107 109 110
f 105 78 112
f 108 107 113
f 114 115 113
f 116 110 111
f 117 118 119
f 107 114 113
f 120 121 113
f 121 120 117
f 122 69 71
f 121 117 119
f 115 120 113
f 123 124 125
f 126 127 128
f 118 117 124
f 124 117 125
f 128 127 79
f 129 128 79
f 102 130 92
f 131 132 133
f 134 122 71
f 124 123 135
f 127 136 137
f 138 139 140
f 123 133 135
f 141 126 128
f 121 108 113
f 142 143 144
f 139 138 145
f 146 138 140
f 147 146 140
f 109 148 83
f 123 131 133
f 122 72 69
f 134 149 122
f 150 151 136
f 132 139 133
f 152 129 153
f 152 154 129
f 136 151 137
f 155 149 134
f 156 157 76
f 158 159 160
f 161 162 94
f 151 160 137
f 126 136 127
f 163 134 148
f 164 157 156
f 143 103 144
f 150 165 151
f 166 80 97
f 148 134 71
f 158 160 151
f 167 146 147
f 155 164 149
f 157 142 144
f 168 114 107
f 169 170 96
f 154 141 128
f 122 171 72
f 150 167 147
f 83 148 71
f 172 141 154
f 173 154 152
f 108 148 109
f 129 154 128
f 174 145 175
f 150 136 167
f 155 134 163
f 118 124 176
f 167 136 126
f 172 154 173
f 177 164 155
f 145 138 175
f 122 149 171
f 91 178 179
f 177 142 164
f 165 158 151
f 180 181 147
f 178 172 179
f 181 150 147
f 117 120 125
f 139 182 140
f 180 147 140
f 149 164 156
f 183 142 177
f 183 177 118
f 164 142 157
f 130 184 95
f 172 173 179
f 183 118 176
f 163 148 108
f 182 180 140
f 185 105 184
f 186 131 123
f 187 188 130
f 188 185 184
f 130 188 184
f 185 189 105
f 190 191 88
f 181 165 150
f 132 182 139
f 192 193 84
f 115 194 120
f 78 157 144
f 143 195 103
f 183 143 142
f 196 143 183
f 139 145 133
f 76 157 78
f 196 183 176
f 197 196 174
f 155 163 119
f 196 195 143
f 91 179 101
f 197 195 196
f 167 126 198
f 199 178 91
f 174 196 176
f 163 121 119
f 197 199 195
f 198 126 141
f 173 152 85
f 200 199 197
f 201 178 200
f 200 178 199
f 72 171 98
f 201 172 178
f 201 141 172
f 118 177 119
f 198 141 201
f 167 198 146
f 146 198 202
f 198 201 202
f 146 202 138
f 197 174 175
f 138 202 175
f 201 200 202
f 177 155 119
f 120 194 125
f 186 123 125
f 202 200 175
f 200 197 175
f 145 174 135
f 133 145 135
f 56 55 100
f 53 57 70
f 171 149 156
f 58 56 80
f 163 108 121
f 55 64 203
f 60 58 166
f 52 51 73
f 174 176 135
f 176 124 135
f 66 65 116
f 64 63 204
f 194 186 125
f 56 100 80
f 100 55 203
f 166 58 80
f 64 204 203
f 101 102 92
f 205 168 110
f 206 169 207
f 204 207 208
f 62 60 209
f 61 52 106
f 83 70 210
f 153 129 81
f 127 137 97
f 96 170 86
f 168 107 110
f 169 96 207
f 207 211 208
f 161 94 93
f 192 84 86
f 101 179 87
f 70 57 210
f 88 191 93
f 187 130 102
f 84 193 102
f 66 116 210
f 137 160 212
f 156 76 89
f 60 166 209
f 52 73 106
f 103 195 90
f 95 184 104
f 199 91 90
f 53 70 82
f 173 85 87
f 190 88 75
f 73 51 82
f 105 189 77
f 162 48 213
f 159 47 214
f 48 61 213
f 47 62 214
f 144 103 112
f 98 171 89
f 152 153 99
f 160 209 212
f 50 205 215
f 49 206 216
f 63 49 216
f 65 50 215
f 57 66 210
f 51 53 82
f 170 192 86
f 153 211 99
f 103 104 112
f 79 127 97
f 179 173 87
f 129 79 81
f 193 187 102
f 191 161 93
f 195 199 90
f 207 96 211
f 184 105 104
f 171 156 89
f 217 190 75
f 217 75 77
f 189 217 77
f 94 106 74
f 72 98 74
f 91 101 92
f 205 110 215
f 206 207 216
f 153 81 218
f 97 137 212
f 160 159 214
f 94 162 213
f 207 204 216
f 110 116 215
f 211 96 99
f 130 95 92
f 109 83 111
f 61 106 213
f 62 209 214
f 85 152 99
f 204 63 216
f 116 65 215
f 78 144 112
f 210 116 111
f 100 203 218
f 203 204 208
f 106 94 213
f 209 160 214
f 208 153 218
f 211 153 208
f 104 105 112
f 209 166 212
f 203 208 218
f 83 210 111
f 166 97 212
f 81 100 218
f 219 220 221
f 222 220 219
f 223 224 225
f 226 227 228
f 224 223 229
f 227 226 230
f 231 232 233
f 223 225 234
f 226 228 235
f 236 237 238
f 239 240 241
f 242 237 243
f 244 223 234
f 245 226 235
f 237 246 238
f 240 247 241
f 248 219 221
f 231 243 249
f 243 237 249
f 232 231 249
f 243 231 250
f 223 251 252
f 226 253 222
f 244 254 223
f 245 255 226
f 256 242 243
f 242 246 237
f 257 247 240
f 253 243 250
f 254 251 223
f 223 252 229
f 226 222 230
f 251 258 259
f 255 253 226
f 259 258 260
f 254 258 251
f 255 256 253
f 253 256 243
f 232 261 233
f 248 262 219
f 263 259 220
f 252 231 233
f 258 257 260
f 252 263 231
f 220 222 264
f 263 220 250
f 252 251 263
f 263 251 259
f 265 245 235
f 266 244 234
f 247 267 241
f 246 268 238
f 231 263 250
f 253 250 264
f 240 248 221
f 220 259 221
f 269 270 224
f 271 269 272
f 273 274 262
f 275 271 261
f 274 276 277
f 276 278 227
f 270 279 225
f 240 239 248
f 278 280 228
f 237 236 232
f 281 282 239
f 283 284 236
f 240 221 260
f 222 253 264
f 252 233 229
f 262 248 285
f 261 232 286
f 269 224 272
f 261 271 272
f 248 239 285
f 262 274 277
f 276 227 277
f 232 236 286
f 222 219 230
f 282 273 285
f 224 270 225
f 284 275 286
f 227 278 228
f 261 272 233
f 262 277 219
f 237 232 249
f 250 220 264
f 273 262 285
f 275 261 286
f 239 282 285
f 225 279 234
f 236 284 286
f 228 280 235
f 281 239 241
f 283 236 238
f 267 281 241
f 268 283 238
f 280 265 235
f 279 266 234
f 257 240 260
f 221 259 260
f 272 224 229
f 233 272 229
f 277 227 230
f 219 277 230
f 287 288 289
f 290 291 287
f 291 290 292
f 293 294 295
f 294 296 295
f 297 298 299
f 288 287 300
f 288 301 289
f 302 303 304
f 303 302 305
f 294 306 307
f 306 294 293
f 308 309 310
f 311 312 292
f 313 308 310
f 303 314 304
f 298 297 315
f 316 311 292
f 314 303 317
f 298 318 299
f 302 319 305
f 319 302 320
f 316 306 311
f 313 321 308
f 321 313 322
f 287 291 300
f 296 323 295
f 306 316 307
f 324 291 292
f 325 326 327
f 328 327 329
f 325 327 328
f 323 296 330
f 326 325 331
f 332 333 331
f 334 328 329
f 335 336 337
f 325 332 331
f 338 339 331
f 339 338 335
f 340 287 289
f 339 335 337
f 333 338 331
f 341 342 343
f 344 345 346
f 336 335 342
f 342 335 343
f 346 345 297
f 347 346 297
f 320 348 310
f 349 350 351
f 352 340 289
f 342 341 353
f 345 354 355
f 356 357 358
f 341 351 353
f 359 344 346
f 339 326 331
f 360 361 362
f 357 356 363
f 364 356 358
f 365 364 358
f 327 366 301
f 341 349 351
f 340 290 287
f 352 367 340
f 368 369 354
f 350 357 351
f 370 347 371
f 370 372 347
f 354 369 355
f 373 367 352
f 374 375 294
f 376 377 378
f 379 380 312
f 369 378 355
f 344 354 345
f 381 352 366
f 382 375 374
f 361 321 362
f 368 383 369
f 384 298 315
f 366 352 289
f 376 378 369
f 385 364 365
f 373 382 367
f 375 360 362
f 386 332 325
f 387 388 314
f 372 359 346
f 340 389 290
f 368 385 365
f 301 366 289
f 390 359 372
f 391 372 370
f 326 366 327
f 347 372 346
f 392 363 393
f 368 354 385
f 373 352 381
f 336 342 394
f 385 354 344
f 390 372 391
f 395 382 373
f 363 356 393
f 340 367 389
f 309 396 397
f 395 360 382
f 383 376 369
f 398 399 365
f 396 390 397
f 399 368 365
f 335 338 343
f 357 400 358
f 398 365 358
f 367 382 374
f 401 360 395
f 401 395 336
f 382 360 375
f 348 402 313
f 390 391 397
f 401 336 394
f 381 366 326
f 400 398 358
f 403 404 348
f 405 349 341
f 404 406 402
f 406 323 402
f 348 404 402
f 399 383 368
f 407 408 302
f 333 409 338
f 406 410 323
f 411 412 306
f 350 400 357
f 296 375 362
f 361 413 321
f 401 361 360
f 414 361 401
f 357 363 351
f 294 375 296
f 414 401 394
f 415 414 392
f 373 381 337
f 414 413 361
f 309 397 319
f 415 413 414
f 385 344 416
f 417 396 309
f 392 414 394
f 381 339 337
f 415 417 413
f 416 344 359
f 391 370 303
f 418 417 415
f 419 396 418
f 418 396 417
f 290 389 316
f 419 390 396
f 419 359 390
f 336 395 337
f 416 359 419
f 385 416 364
f 364 416 420
f 416 419 420
f 364 420 356
f 415 392 393
f 356 420 393
f 419 418 420
f 395 373 337
f 405 341 343
f 338 409 343
f 420 418 393
f 418 415 393
f 363 392 353
f 351 363 353
f 274 273 318
f 271 275 288
f 389 367 374
f 276 274 298
f 381 326 339
f 273 282 421
f 278 276 384
f 270 269 291
f 392 394 353
f 394 342 353
f 284 283 334
f 282 281 422
f 409 405 343
f 274 318 298
f 318 273 421
f 384 276 298
f 282 422 421
f 319 320 310
f 423 386 328
f 424 387 425
f 422 425 426
f 280 278 427
f 279 270 324
f 301 288 428
f 371 347 299
f 345 355 315
f 314 388 304
f 386 325 328
f 387 314 425
f 425 429 426
f 379 312 311
f 407 302 304
f 319 397 305
f 288 275 428
f 306 412 311
f 403 348 320
f 302 408 320
f 284 334 428
f 355 378 430
f 374 294 307
f 278 384 427
f 270 291 324
f 321 413 308
f 313 402 322
f 417 309 308
f 271 288 300
f 391 303 305
f 411 306 293
f 291 269 300
f 323 410 295
f 380 266 431
f 377 265 432
f 266 279 431
f 265 280 432
f 362 321 330
f 316 389 307
f 370 371 317
f 378 427 430
f 268 423 433
f 267 424 434
f 281 267 434
f 283 268 433
f 275 284 428
f 269 271 300
f 388 407 304
f 371 429 317
f 321 322 330
f 297 345 315
f 397 391 305
f 347 297 299
f 408 403 320
f 412 379 311
f 413 417 308
f 425 314 429
f 402 323 322
f 389 374 307
f 435 411 293
f 435 293 295
f 410 435 295
f 312 324 292
f 290 316 292
f 309 319 310
f 423 328 433
f 424 425 434
f 371 299 436
f 315 355 430
f 378 377 432
f 312 380 431
f 425 422 434
f 328 334 433
f 429 314 317
f 348 313 310
f 327 301 329
f 279 324 431
f 280 427 432
f 303 370 317
f 422 281 434
f 334 283 433
f 296 362 330
f 428 334 329
f 318 421 436
f 421 422 426
f 324 312 431
f 427 378 432
f 426 371 436
f 429 371 426
f 322 323 330
f 427 384 430
f 421 426 436
f 301 428 329
f 384 315 430
f 299 318 436
f 437 438 439
f 437 440 438
f 441 442 443
f 442 441 444
f 438 445 439
f 446 447 443
f 448 449 450
f 451 446 443
f 452 453 454
f 453 452 455
f 456 448 450
f 452 457 455
f 449 448 439
f 458 459 460
f 461 446 462
f 463 464 440
f 465 457 466
f 467 468 469
f 466 470 442
f 471 472 441
f 453 473 460
f 474 475 445
f 446 476 447
f 477 478 462
f 456 479 467
f 477 468 467
f 456 467 469
f 458 463 459
f 459 463 440
f 480 473 453
f 465 481 457
f 482 465 466
f 461 476 446
f 483 478 477
f 479 483 467
f 483 477 467
f 437 459 440
f 466 457 470
f 477 484 468
f 485 437 448
f 473 458 460
f 476 486 447
f 478 461 462
f 487 479 456
f 460 459 485
f 477 462 484
f 468 484 452
f 485 459 437
f 488 441 443
f 457 452 489
f 448 456 490
f 491 482 444
f 466 442 444
f 492 471 488
f 493 474 438
f 474 445 438
f 471 441 488
f 482 466 444
f 494 495 449
f 480 453 455
f 457 481 455
f 468 452 454
f 487 456 450
f 496 492 497
f 486 496 497
f 464 498 499
f 472 500 501
f 500 491 501
f 498 493 499
f 462 446 502
f 453 460 503
f 504 494 505
f 475 504 505
f 449 495 450
f 454 453 503
f 446 451 502
f 448 437 439
f 491 444 501
f 493 438 499
f 492 488 497
f 481 480 455
f 495 487 450
f 469 468 454
f 442 470 451
f 445 475 505
f 441 472 501
f 440 464 499
f 447 486 497
f 470 457 489
f 470 489 502
f 456 469 490
f 490 469 503
f 484 462 502
f 452 484 489
f 489 484 502
f 460 485 503
f 485 448 490
f 485 490 503
f 444 441 501
f 438 440 499
f 488 447 497
f 445 449 439
f 449 445 505
f 494 449 505
f 447 488 443
f 442 451 443
f 469 454 503
f 451 470 502
f 506 507 508
f 506 509 507
f 510 511 512
f 511 510 513
f 507 514 508
f 515 516 512
f 517 518 519
f 520 515 512
f 521 522 523
f 522 521 524
f 525 517 519
f 521 526 524
f 518 517 508
f 527 528 529
f 530 515 531
f 532 533 509
f 534 526 535
f 536 537 538
f 535 539 511
f 471 492 514
f 540 541 510
f 522 542 529
f 515 543 516
f 544 545 531
f 525 546 536
f 544 537 536
f 525 536 538
f 527 532 528
f 528 532 509
f 547 542 522
f 534 548 526
f 549 534 535
f 530 543 515
f 550 545 544
f 546 550 536
f 550 544 536
f 506 528 509
f 535 526 539
f 544 551 537
f 552 506 517
f 542 527 529
f 543 553 516
f 545 530 531
f 554 546 525
f 529 528 552
f 544 531 551
f 537 551 521
f 552 528 506
f 555 510 512
f 526 521 556
f 517 525 557
f 558 549 513
f 535 511 513
f 472 471 507
f 559 540 555
f 471 514 507
f 540 510 555
f 549 535 513
f 560 561 518
f 547 522 524
f 526 548 524
f 537 521 523
f 554 525 519
f 562 559 563
f 553 562 563
f 533 500 564
f 500 472 564
f 541 565 566
f 565 558 566
f 531 515 567
f 522 529 568
f 496 560 569
f 492 496 569
f 518 561 519
f 523 522 568
f 515 520 567
f 517 506 508
f 558 513 566
f 472 507 564
f 559 555 563
f 548 547 524
f 561 554 519
f 538 537 523
f 511 539 520
f 514 492 569
f 510 541 566
f 509 533 564
f 516 553 563
f 539 526 556
f 539 556 567
f 525 538 557
f 557 538 568
f 551 531 567
f 521 551 556
f 556 551 567
f 529 552 568
f 552 517 557
f 552 557 568
f 513 510 566
f 507 509 564
f 555 516 563
f 514 518 508
f 518 514 569
f 560 518 569
f 516 555 512
f 511 520 512
f 538 523 568
f 520 539 567
f 570 571 572
f 570 573 571
f 574 575 576
f 575 574 577
f 571 578 572
f 579 580 576
f 581 582 583
f 584 579 576
f 585 586 587
f 586 585 588
f 589 581 583
f 585 590 588
f 582 581 572
f 591 592 593
f 594 579 595
f 596 597 573
f 598 590 599
f 600 601 602
f 599 603 575
f 474 493 574
f 586 604 593
f 605 606 578
f 579 607 580
f 608 609 595
f 589 610 600
f 608 601 600
f 589 600 602
f 591 596 592
f 592 596 573
f 611 604 586
f 598 612 590
f 613 598 599
f 594 607 579
f 614 609 608
f 610 614 600
f 614 608 600
f 570 592 573
f 599 590 603
f 608 615 601
f 616 570 581
f 604 591 593
f 607 617 580
f 609 594 595
f 618 610 589
f 593 592 616
f 608 595 615
f 601 615 585
f 616 592 570
f 619 574 576
f 590 585 620
f 581 589 621
f 622 613 577
f 599 575 577
f 475 474 619
f 623 605 571
f 605 578 571
f 474 574 619
f 613 599 577
f 624 625 582
f 611 586 588
f 590 612 588
f 601 585 587
f 618 589 583
f 504 475 626
f 617 504 626
f 597 627 628
f 493 498 629
f 498 622 629
f 627 623 628
f 595 579 630
f 586 593 631
f 632 624 633
f 606 632 633
f 582 625 583
f 587 586 631
f 579 584 630
f 581 570 572
f 622 577 629
f 623 571 628
f 475 619 626
f 612 611 588
f 625 618 583
f 602 601 587
f 575 603 584
f 578 606 633
f 574 493 629
f 573 597 628
f 580 617 626
f 603 590 620
f 603 620 630
f 589 602 621
f 621 602 631
f 615 595 630
f 585 615 620
f 620 615 630
f 593 616 631
f 616 581 621
f 616 621 631
f 577 574 629
f 571 573 628
f 619 580 626
f 578 582 572
f 582 578 633
f 624 582 633
f 580 619 576
f 575 584 576
f 602 587 631
f 584 603 630
f 634 635 636
f 637 638 639
f 47 637 640
f 641 642 50
f 643 644 645
f 638 646 639
f 647 648 256
f 649 650 651
f 652 647 256
f 186 653 654
f 653 655 654
f 656 657 658
f 659 660 661
f 662 644 663
f 650 664 651
f 665 646 638
f 666 667 668
f 669 670 671
f 663 667 662
f 671 670 672
f 673 674 675
f 641 676 642
f 255 677 652
f 678 679 680
f 680 679 681
f 682 683 654
f 668 684 666
f 652 685 647
f 686 687 688
f 670 689 672
f 690 691 692
f 661 660 554
f 635 693 636
f 658 694 656
f 663 644 643
f 695 696 618
f 637 697 640
f 698 699 700
f 256 648 242
f 675 674 701
f 645 644 702
f 703 704 705
f 609 706 707
f 681 708 680
f 682 685 683
f 695 709 696
f 707 710 609
f 711 712 713
f 483 712 711
f 255 714 677
f 701 674 715
f 715 716 701
f 717 718 719
f 632 720 624
f 553 721 562
f 640 697 722
f 669 723 670
f 724 725 726
f 688 727 686
f 728 729 730
f 245 714 255
f 255 652 256
f 731 732 733
f 734 735 736
f 733 732 737
f 738 739 740
f 687 741 688
f 742 743 744
f 720 745 624
f 553 746 721
f 747 676 706
f 748 749 750
f 246 699 698
f 751 718 742
f 697 752 722
f 725 685 652
f 724 726 649
f 705 704 753
f 703 740 704
f 168 754 730
f 755 756 659
f 650 689 670
f 405 757 758
f 333 759 760
f 28 692 761
f 610 696 747
f 740 739 704
f 725 762 726
f 763 764 37
f 765 766 767
f 530 768 769
f 770 729 771
f 24 692 28
f 759 743 742
f 772 676 641
f 194 653 186
f 180 649 651
f 757 718 717
f 708 773 680
f 744 751 742
f 265 774 245
f 246 698 268
f 655 687 775
f 661 755 659
f 728 776 729
f 777 656 778
f 779 701 780
f 781 719 782
f 705 753 783
f 784 744 785
f 753 786 673
f 610 747 614
f 724 649 182
f 27 787 37
f 719 788 717
f 691 789 692
f 625 695 618
f 530 769 543
f 754 790 791
f 652 762 725
f 677 762 652
f 666 792 667
f 115 729 770
f 654 683 131
f 132 683 724
f 659 756 722
f 37 764 38
f 673 675 753
f 690 692 24
f 736 735 793
f 794 795 495
f 796 735 734
f 242 699 246
f 748 710 749
f 666 684 797
f 719 718 751
f 798 766 765
f 779 675 701
f 545 768 530
f 785 731 799
f 561 661 554
f 594 748 607
f 800 790 754
f 618 696 610
f 801 735 802
f 754 791 730
f 706 676 772
f 38 690 24
f 487 796 479
f 478 662 461
f 487 795 796
f 47 803 27
f 28 761 50
f 744 731 785
f 409 757 405
f 332 759 333
f 205 754 168
f 733 804 805
f 793 735 801
f 671 672 774
f 698 700 806
f 650 670 664
f 726 650 649
f 662 807 644
f 808 750 809
f 690 810 691
f 651 679 181
f 768 811 769
f 759 742 760
f 812 813 814
f 815 816 817
f 818 819 794
f 819 802 794
f 820 694 658
f 683 725 724
f 784 751 744
f 708 723 821
f 822 823 740
f 811 646 665
f 821 723 669
f 747 706 614
f 700 687 686
f 757 717 758
f 667 792 662
f 767 738 765
f 693 737 636
f 476 666 486
f 494 794 495
f 664 681 651
f 814 813 745
f 746 816 815
f 748 818 607
f 561 797 661
f 37 787 763
f 495 795 487
f 777 716 656
f 701 716 780
f 824 727 825
f 753 675 783
f 826 736 827
f 731 733 799
f 689 677 672
f 828 823 822
f 553 816 746
f 745 813 624
f 719 751 782
f 683 685 725
f 655 682 654
f 733 805 829
f 115 770 194
f 180 651 181
f 711 807 662
f 726 689 650
f 730 729 114
f 545 830 768
f 614 706 609
f 560 797 561
f 607 818 617
f 698 634 268
f 265 831 774
f 770 653 194
f 182 649 180
f 681 679 651
f 801 750 808
f 727 832 825
f 700 686 806
f 833 736 826
f 806 686 824
f 834 756 755
f 696 790 747
f 662 792 461
f 186 654 131
f 132 724 182
f 835 810 764
f 695 836 709
f 771 727 688
f 543 816 553
f 624 813 625
f 791 728 730
f 483 711 478
f 793 801 808
f 637 639 697
f 131 683 132
f 743 732 731
f 645 702 837
f 776 836 832
f 838 789 691
f 783 675 779
f 609 710 594
f 645 837 835
f 704 739 786
f 702 833 837
f 811 773 769
f 821 773 708
f 752 659 722
f 758 717 658
f 476 792 666
f 839 674 673
f 840 830 550
f 791 790 709
f 841 657 715
f 812 836 695
f 114 729 115
f 717 788 820
f 728 836 776
f 824 825 814
f 815 821 669
f 822 740 703
f 702 713 833
f 827 793 808
f 770 688 653
f 658 657 842
f 478 711 662
f 165 679 678
f 673 786 843
f 820 788 844
f 715 674 845
f 645 835 846
f 799 733 829
f 834 755 668
f 844 694 820
f 847 834 643
f 737 848 636
f 767 849 738
f 678 638 158
f 678 680 665
f 643 645 846
f 678 665 638
f 806 824 850
f 851 669 671
f 698 806 634
f 831 671 774
f 668 667 663
f 834 668 663
f 758 842 349
f 350 842 841
f 841 845 400
f 398 845 839
f 839 843 399
f 383 843 852
f 386 848 853
f 852 849 376
f 636 848 423
f 377 849 767
f 786 739 852
f 737 804 733
f 794 802 795
f 691 826 827
f 838 691 827
f 159 638 637
f 47 640 803
f 761 641 50
f 486 854 496
f 504 855 494
f 496 854 560
f 617 855 504
f 550 830 545
f 796 712 479
f 717 820 658
f 770 771 688
f 672 714 774
f 847 643 846
f 845 674 839
f 843 786 852
f 842 657 841
f 165 678 158
f 168 730 114
f 655 775 682
f 758 658 842
f 830 646 768
f 834 663 643
f 839 673 843
f 841 715 845
f 846 763 856
f 782 751 784
f 781 788 719
f 769 773 817
f 780 716 777
f 697 840 752
f 656 694 778
f 350 841 400
f 405 758 349
f 857 772 641
f 398 839 399
f 333 760 409
f 386 853 332
f 383 852 376
f 377 767 265
f 268 636 423
f 838 827 808
f 750 749 809
f 687 858 775
f 838 808 809
f 653 741 655
f 768 646 811
f 859 809 857
f 159 637 47
f 50 642 205
f 800 676 747
f 635 720 693
f 765 721 798
f 655 741 687
f 753 704 786
f 709 790 696
f 158 638 159
f 349 842 350
f 400 845 398
f 399 843 383
f 376 849 377
f 423 848 386
f 769 816 543
f 625 813 695
f 715 860 716
f 743 731 744
f 837 810 835
f 859 838 809
f 847 756 834
f 847 846 856
f 861 847 856
f 699 858 700
f 594 710 748
f 835 763 846
f 861 856 803
f 844 788 781
f 778 694 844
f 640 722 861
f 859 857 641
f 791 709 728
f 851 815 669
f 824 814 850
f 692 789 761
f 726 762 689
f 806 850 634
f 831 851 671
f 632 805 720
f 721 828 562
f 479 712 483
f 861 756 847
f 691 810 826
f 713 734 833
f 802 735 795
f 850 635 634
f 831 798 851
f 640 861 803
f 761 859 641
f 760 757 409
f 853 759 332
f 680 811 665
f 554 660 546
f 707 706 772
f 642 754 205
f 857 707 772
f 750 819 748
f 764 810 690
f 833 826 837
f 689 762 677
f 722 756 861
f 734 712 796
f 562 828 822
f 829 805 632
f 852 739 849
f 742 718 760
f 760 718 757
f 775 647 682
f 639 830 840
f 795 735 796
f 639 840 697
f 729 776 771
f 848 732 853
f 740 823 738
f 748 819 818
f 815 862 746
f 745 863 814
f 720 863 745
f 746 862 721
f 635 863 720
f 721 862 798
f 639 646 830
f 763 787 856
f 809 749 857
f 853 743 759
f 747 790 800
f 38 764 690
f 818 855 617
f 560 854 797
f 642 800 754
f 835 764 763
f 686 727 824
f 774 714 245
f 700 858 687
f 664 708 681
f 716 860 656
f 677 714 672
f 546 864 550
f 494 855 794
f 666 854 486
f 797 684 661
f 857 749 707
f 181 679 165
f 720 805 693
f 765 828 721
f 859 789 838
f 775 858 648
f 801 819 750
f 853 732 743
f 797 854 666
f 794 855 818
f 734 736 833
f 550 864 840
f 749 710 707
f 461 792 476
f 713 712 734
f 761 789 859
f 688 741 653
f 803 787 27
f 648 858 699
f 801 802 819
f 831 766 798
f 827 736 793
f 752 660 659
f 670 723 664
f 657 860 715
f 856 787 803
f 661 684 755
f 755 684 668
f 644 807 702
f 832 836 825
f 826 810 837
f 851 862 815
f 814 863 850
f 825 812 814
f 815 817 821
f 702 807 713
f 825 836 812
f 817 773 821
f 775 648 647
f 647 685 682
f 805 804 693
f 713 807 711
f 849 739 738
f 737 732 848
f 850 863 635
f 798 862 851
f 242 648 699
f 840 864 752
f 642 676 800
f 709 836 728
f 680 773 811
f 738 823 765
f 265 766 831
f 664 723 708
f 765 823 828
f 693 804 737
f 767 766 265
f 752 864 660
f 695 813 812
f 817 816 769
f 656 860 657
f 771 832 727
f 660 864 546
f 776 832 771
f 634 636 268
f 865 866 867
f 868 869 870
f 871 872 873
f 874 872 871
f 866 875 867
f 868 876 869
f 877 878 879
f 880 881 882
f 883 884 873
f 885 886 887
f 878 888 879
f 880 889 881
f 871 890 891
f 891 874 871
f 873 872 883
f 892 893 894
f 894 895 892
f 892 896 897
f 897 893 892
f 898 895 894
f 894 899 898
f 891 890 898
f 898 899 891
f 897 896 885
f 885 900 897
f 887 900 885
f 877 879 901
f 540 877 901
f 902 880 882
f 879 869 901
f 902 866 880
f 879 903 869
f 866 904 880
f 902 882 605
f 540 901 541
f 623 902 605
f 559 877 540
f 605 882 606
f 780 905 779
f 779 905 906
f 907 905 780
f 907 908 909
f 910 911 908
f 910 908 907
f 912 913 911
f 910 912 911
f 914 915 913
f 911 898 908
f 914 913 912
f 914 916 915
f 916 917 915
f 915 892 913
f 918 917 916
f 781 916 914
f 705 919 703
f 705 920 919
f 921 891 922
f 923 873 924
f 925 894 926
f 778 912 910
f 927 897 928
f 906 923 924
f 906 920 783
f 799 929 785
f 778 910 777
f 930 887 931
f 906 924 920
f 781 914 844
f 779 906 783
f 783 920 705
f 784 918 782
f 932 883 933
f 782 916 781
f 918 916 782
f 844 912 778
f 914 912 844
f 910 907 777
f 777 907 780
f 923 909 871
f 923 871 873
f 934 885 917
f 909 905 907
f 906 905 923
f 784 935 918
f 785 935 784
f 929 935 785
f 923 905 909
f 918 934 917
f 918 935 934
f 904 936 887
f 883 937 903
f 829 881 799
f 703 878 822
f 924 938 920
f 935 939 934
f 873 884 924
f 934 886 885
f 606 940 632
f 799 881 929
f 919 878 703
f 632 940 829
f 920 938 919
f 929 939 935
f 541 876 565
f 627 875 623
f 562 941 559
f 867 875 627
f 565 876 868
f 822 941 562
f 887 886 904
f 903 884 883
f 869 876 901
f 902 875 866
f 885 896 917
f 909 890 871
f 921 874 891
f 911 895 898
f 898 890 908
f 915 896 892
f 892 895 913
f 883 872 933
f 927 893 897
f 894 893 926
f 925 899 894
f 891 899 922
f 930 900 887
f 897 900 928
f 879 888 903
f 932 937 883
f 887 936 931
f 904 889 880
f 865 936 866
f 869 937 870
f 903 888 938
f 939 889 904
f 881 889 929
f 919 888 878
f 931 936 865
f 870 937 932
f 866 936 904
f 903 937 869
f 924 884 938
f 939 886 934
f 942 874 921
f 942 872 874
f 908 890 909
f 913 895 911
f 917 896 915
f 933 872 942
f 926 893 927
f 922 899 925
f 928 900 930
f 882 940 606
f 901 876 541
f 623 875 902
f 559 941 877
f 878 941 822
f 938 884 903
f 904 886 939
f 829 940 881
f 877 941 878
f 881 940 882
f 938 888 919
f 929 889 939
f 943 944 945
f 946 947 948
f 48 946 949
f 950 951 49
f 952 953 954
f 955 956 957
f 947 958 948
f 959 960 258
f 961 962 865
f 963 959 258
f 187 964 965
f 966 967 189
f 964 968 965
f 966 969 967
f 970 956 955
f 969 971 972
f 973 974 975
f 976 977 978
f 979 953 980
f 981 958 947
f 982 983 984
f 980 983 979
f 950 985 951
f 986 987 965
f 963 988 959
f 989 990 991
f 992 993 994
f 36 992 994
f 867 961 865
f 962 995 996
f 966 997 969
f 984 998 982
f 944 999 945
f 975 1000 973
f 954 953 979
f 978 977 1001
f 972 971 1002
f 1003 972 1004
f 1005 1006 534
f 946 1007 949
f 1008 1009 1010
f 258 960 257
f 1011 953 952
f 1012 996 976
f 542 1013 1014
f 986 988 987
f 1014 1015 542
f 1005 1016 1006
f 1017 1018 1019
f 1020 1021 1022
f 1023 1024 1025
f 1025 1024 480
f 1026 1027 1028
f 1001 977 1029
f 565 1030 558
f 597 1031 627
f 949 1007 1032
f 996 1033 962
f 976 978 1012
f 244 1034 254
f 991 1035 989
f 1036 1037 1038
f 1039 1040 1041
f 1022 1042 1020
f 254 963 258
f 1043 1044 1045
f 1046 1047 1048
f 1045 1044 1049
f 1029 1050 1001
f 990 1051 991
f 1052 1053 1054
f 1019 1018 1055
f 1030 1056 558
f 597 1057 1031
f 1058 985 1013
f 1003 1059 972
f 247 1009 1008
f 1060 1027 1052
f 1007 1061 1032
f 997 988 963
f 1062 962 961
f 1004 955 1003
f 169 1063 1041
f 403 1064 1065
f 1066 993 1067
f 407 1068 1069
f 412 1070 1071
f 548 1006 1058
f 1072 1073 1074
f 591 1075 1076
f 976 996 1070
f 1077 1040 1078
f 957 1037 1079
f 39 1080 1081
f 1068 1053 1052
f 1082 985 950
f 189 967 217
f 193 964 187
f 1064 1027 1026
f 1054 1060 1052
f 266 1083 244
f 247 1008 267
f 968 990 1084
f 970 1085 956
f 1037 956 1038
f 971 1086 1002
f 1039 1087 1040
f 926 973 925
f 928 1001 927
f 921 1028 942
f 997 971 969
f 931 1012 930
f 933 1054 932
f 548 1058 547
f 39 1088 29
f 1028 1089 1026
f 254 1086 963
f 1090 1091 993
f 549 1005 534
f 591 1076 596
f 1061 1020 1032
f 1063 1092 1093
f 1004 972 1094
f 1062 995 962
f 26 992 36
f 983 1095 984
f 192 1040 1077
f 1079 1037 190
f 965 987 188
f 185 987 966
f 1096 1047 1046
f 463 1097 1098
f 1048 1047 1099
f 257 1009 247
f 1066 1090 993
f 40 1080 39
f 1028 1027 1060
f 1100 1004 1094
f 1101 1073 1072
f 604 1075 591
f 932 1043 870
f 527 1102 532
f 613 1022 598
f 1103 1092 1063
f 534 1006 548
f 1104 1047 1105
f 963 971 997
f 1063 1093 1041
f 1013 985 1082
f 36 994 40
f 473 1099 458
f 465 980 481
f 1099 1097 458
f 1061 1021 1020
f 1022 1021 598
f 48 1106 26
f 29 1107 49
f 1012 1033 996
f 1054 1043 932
f 408 1064 403
f 388 1068 407
f 411 1070 412
f 206 1063 169
f 1045 1108 1109
f 926 1050 973
f 1012 978 930
f 1105 1047 1096
f 1008 1010 1110
f 1100 1094 1083
f 953 1111 980
f 1070 996 1071
f 1075 1112 1076
f 1068 1052 1069
f 1113 1114 1115
f 1116 1117 1118
f 1119 1000 975
f 987 997 966
f 933 1060 1054
f 1098 1120 1121
f 1112 958 981
f 1058 1013 547
f 1098 1104 1120
f 1081 1088 39
f 1010 990 989
f 1064 1026 1065
f 980 1095 983
f 999 1049 945
f 1074 1062 1072
f 463 1098 464
f 491 984 482
f 1118 1117 1056
f 1057 1114 1113
f 1102 1122 532
f 613 1121 1022
f 993 1091 994
f 458 1097 463
f 1090 1046 1123
f 1124 1004 1100
f 1003 955 957
f 1125 1035 1126
f 1055 1018 1102
f 1043 1045 870
f 1001 1050 927
f 597 1114 1057
f 1056 1117 558
f 1028 1060 942
f 987 988 997
f 968 986 965
f 1102 1015 1055
f 1045 1109 868
f 217 1079 190
f 192 1077 193
f 980 1111 1025
f 191 1037 1036
f 1041 1040 170
f 604 1127 1075
f 547 1013 542
f 1128 1042 1129
f 532 1122 533
f 622 1121 613
f 1008 943 267
f 266 1130 1083
f 217 967 1079
f 1077 964 193
f 928 978 1001
f 1035 1131 1126
f 1010 989 1110
f 1110 989 1125
f 1006 1092 1058
f 465 1095 980
f 187 965 188
f 185 966 189
f 1066 1046 1090
f 963 1086 971
f 1005 1132 1016
f 1078 1035 991
f 956 1085 1038
f 596 1114 597
f 558 1117 549
f 1093 1039 1041
f 481 1025 480
f 1129 1105 1096
f 946 948 1007
f 188 987 185
f 1053 1044 1043
f 1133 1011 952
f 1087 1132 1131
f 970 955 1124
f 542 1015 527
f 1020 1042 1128
f 1134 1133 952
f 1112 1085 1076
f 1133 1123 1011
f 982 1018 1017
f 1065 1026 975
f 984 1095 482
f 1135 1127 611
f 1093 1092 1016
f 1136 974 1029
f 1094 1034 1083
f 1116 1132 1005
f 170 1040 192
f 190 1037 191
f 972 1002 1094
f 1026 1089 1119
f 1039 1132 1087
f 1125 1126 1118
f 1113 970 1124
f 992 1137 993
f 1123 1023 1011
f 1129 1096 1066
f 1077 991 964
f 967 1003 1079
f 975 974 1138
f 980 1025 481
f 1119 1089 922
f 1139 1134 952
f 870 1045 868
f 922 1000 1119
f 996 995 1071
f 931 1033 1012
f 1036 1038 981
f 1029 977 1140
f 1133 1090 1123
f 954 1017 1141
f 1049 1142 945
f 1074 1143 1062
f 1036 947 161
f 927 1050 926
f 1139 952 954
f 1036 981 947
f 1144 1124 1100
f 1110 1125 1145
f 1008 1110 943
f 1130 1100 1083
f 979 983 982
f 979 982 1017
f 1065 1138 404
f 406 1138 1136
f 1136 1140 410
f 435 1140 1146
f 387 1142 1147
f 1071 1143 379
f 945 1142 424
f 380 1143 1074
f 1049 1108 1045
f 1097 1104 1098
f 962 1033 865
f 162 947 946
f 48 949 1106
f 1107 950 49
f 500 1148 491
f 464 1149 498
f 533 1148 500
f 498 1149 622
f 611 1127 604
f 473 1024 1099
f 1026 1119 975
f 1077 1078 991
f 1003 957 1079
f 1129 1042 1105
f 1150 1055 1014
f 1139 954 1141
f 1138 974 1136
f 191 1036 161
f 169 1041 170
f 968 1084 986
f 1065 975 1138
f 1127 958 1075
f 954 979 1017
f 1136 1029 1140
f 1076 1085 1115
f 942 1060 933
f 921 1089 1028
f 1140 977 1146
f 1007 1135 1061
f 1022 1120 1042
f 973 1000 925
f 403 1065 404
f 406 1136 410
f 1150 1082 950
f 435 1146 411
f 407 1069 408
f 387 1147 388
f 412 1071 379
f 380 1074 266
f 267 945 424
f 930 978 928
f 1129 1066 1067
f 990 1151 1084
f 1075 958 1112
f 1152 1081 1139
f 1128 1129 1067
f 964 1051 968
f 1032 1128 1153
f 49 951 206
f 162 946 48
f 1103 985 1058
f 1072 1031 1101
f 944 1030 999
f 1034 1086 254
f 968 1051 990
f 969 1059 967
f 1016 1092 1006
f 161 947 162
f 404 1138 406
f 410 1140 435
f 424 1142 387
f 379 1143 380
f 1122 998 984
f 1076 1114 596
f 549 1117 1005
f 1032 1020 1128
f 1017 1019 1141
f 1053 1043 1054
f 527 1015 1102
f 1083 1034 244
f 993 1137 1067
f 865 1033 931
f 1128 1067 1153
f 1152 1139 1141
f 1152 1141 1154
f 1009 1151 1010
f 1107 1152 1154
f 922 1089 921
f 925 1000 922
f 949 1032 1153
f 1154 1150 950
f 1150 1019 1055
f 1139 1081 1134
f 1093 1016 1039
f 1144 1113 1124
f 1125 1118 1145
f 1141 1019 1154
f 1130 1144 1100
f 1110 1145 943
f 565 1109 1030
f 598 1021 612
f 480 1024 473
f 1123 1048 1023
f 1133 1091 1090
f 1153 1137 1106
f 1097 1047 1104
f 1130 1101 1144
f 1145 944 943
f 1107 1154 950
f 949 1153 1106
f 1038 1112 981
f 1061 1155 1021
f 1069 1064 408
f 1146 1070 411
f 1147 1068 388
f 1002 1034 1094
f 1014 1013 1082
f 951 1063 206
f 1150 1014 1082
f 972 1059 969
f 1062 961 1072
f 1154 1019 1150
f 1031 1156 627
f 1099 1024 1048
f 868 1109 565
f 1071 995 1143
f 1052 1027 1069
f 1069 1027 1064
f 1084 959 986
f 948 1127 1135
f 1099 1047 1097
f 948 1135 1007
f 627 1156 867
f 1050 1157 973
f 957 956 1037
f 1106 992 26
f 1040 1087 1078
f 1142 1044 1147
f 1121 1120 1022
f 1055 1015 1014
f 1056 1158 1118
f 1113 1159 1057
f 1102 998 1122
f 1030 1158 1056
f 1057 1159 1031
f 944 1158 1030
f 1031 1159 1101
f 948 958 1127
f 1029 1157 1050
f 1147 1053 1068
f 1058 1092 1103
f 1146 977 976
f 1152 1088 1081
f 1146 976 1070
f 994 1080 40
f 1122 1148 533
f 622 1149 1121
f 951 1103 1063
f 867 1156 961
f 1081 1080 1134
f 1106 1137 992
f 989 1035 1125
f 1010 1151 990
f 612 1155 611
f 491 1148 984
f 1098 1149 464
f 1124 955 1004
f 1030 1109 999
f 1084 1151 960
f 1147 1044 1053
f 1080 1091 1134
f 1134 1091 1133
f 1121 1149 1098
f 984 1148 1122
f 1123 1046 1048
f 611 1155 1135
f 482 1095 465
f 1048 1024 1023
f 1021 1155 612
f 991 1051 964
f 29 1088 1107
f 960 1151 1009
f 1072 1156 1031
f 1120 1104 1105
f 967 1059 1003
f 961 1156 1072
f 1130 1073 1101
f 1096 1046 1066
f 1042 1120 1105
f 1018 998 1102
f 974 1157 1029
f 1067 1137 1153
f 994 1091 1080
f 1107 1088 1152
f 1011 1111 953
f 1131 1132 1126
f 1144 1159 1113
f 1118 1158 1145
f 1126 1116 1118
f 1113 1115 970
f 1023 1111 1011
f 1126 1132 1116
f 1115 1085 970
f 1084 960 959
f 959 988 986
f 1109 1108 999
f 1025 1111 1023
f 1143 995 1062
f 1049 1044 1142
f 1101 1159 1144
f 1145 1158 944
f 257 960 1009
f 1135 1155 1061
f 951 985 1103
f 1038 1085 1112
f 1016 1132 1039
f 266 1073 1130
f 1002 1086 1034
f 999 1108 1049
f 1074 1073 266
f 982 998 1018
f 1005 1117 1116
f 1115 1114 1076
f 973 1157 974
f 1078 1131 1035
f 1087 1131 1078
f 943 945 267
