v 0.44447532 0.61969912 0.80754584
v 0.42918080 0.57477725 0.75075328
v 0.35961351 0.67429602 0.79443628
v 0.35260728 0.61969936 0.73538250
v 0.25075763 0.64372766 0.71197879
v 0.37355116 0.71075141 0.87166595
v 0.25993827 0.75687349 0.85915542
v 0.47010651 0.64372766 0.88386840
v 0.12995535 0.65968978 0.69628167
v 0.25318027 0.71075141 0.77829158
v -0.00000000 0.66542184 0.69063228
v 0.13070653 0.73284519 0.76661217
v 0.13334744 0.78429234 0.85020262
v 0.00000000 0.79343522 0.84686238
v 0.26587659 0.78429234 0.95189291
v 0.13588800 0.81487286 0.94460851
v 0.00000000 0.82499874 0.94198805
v 0.13699470 0.82499874 1.04646194
v 0.00000000 0.83545148 1.04446661
v 0.26831430 0.79343522 1.05248201
v 0.48733315 0.65968978 0.97589529
v 0.38441318 0.73284543 0.96283871
v 0.38857362 0.74041283 1.06256330
v 0.49354708 0.66542184 1.07668185
v 0.48720363 0.65944421 1.17965651
v 0.38439703 0.73281467 1.16517627
v 0.26587656 0.78429234 1.15656137
v 0.37342167 0.71050584 1.26477540
v 0.25993824 0.75687349 1.25975657
v 0.46907058 0.64176285 1.27777147
v 0.13588800 0.81487262 1.15218103
v 0.00000000 0.82499874 1.15093577
v 0.13334744 0.78429234 1.25825167
v 0.00000000 0.79343522 1.25810182
v 0.25305077 0.71050584 1.35814977
v 0.13069035 0.73281467 1.36140299
v 0.00000000 0.74041283 1.36285222
v 0.12982585 0.65944421 1.45927012
v 0.00000000 0.66542184 1.46273160
v 0.24972165 0.64176285 1.44966114
v 0.43707821 0.59848177 1.38648546
v 0.35889050 0.67292488 1.35585093
v 0.36497921 0.59483707 1.44549918
v 0.30483437 -0.51532924 1.92174363
v 0.44166556 -0.51029801 1.85645759
v 0.29752126 -0.20119444 1.86926210
v 0.43487197 0.47634587 1.48129988
v 0.35897502 0.40820751 1.58267629
v 0.25578275 0.44166598 1.61846435
v 0.25294936 0.55381286 1.53041530
v 0.13229299 0.45659527 1.64293003
v 0.13190950 0.56953609 1.54711139
v 0.00000000 0.57430112 1.55274546
v -0.00000080 0.46006903 1.65057743
v 0.04058954 -1.11558616 0.86964834
v 0.16798417 -1.14074147 0.88603723
v 0.07172209 -1.13704324 0.99942696
v 0.23816215 -1.17166138 0.90939331
v 0.17872417 -1.16743588 0.98638701
v 0.24695638 -1.22063625 1.01029646
v 0.19642545 -1.20895469 1.10026300
v 0.15039153 -1.19282854 1.21207225
v 0.19708753 -1.24648297 1.22060633
v 0.14312562 -1.19394600 1.33352816
v 0.11451381 -1.16287982 1.13129544
v 0.09850812 -1.16368973 1.40315974
v 0.05488889 -1.14501846 1.20276165
v 0.05017796 -1.14521301 1.47064710
v -0.00178475 -1.13203990 1.01829755
v 0.00000002 -1.13904417 1.49800360
v 0.15039152 -1.19282854 1.45460725
v 0.19709438 -1.24649024 1.44640172
v 0.17049229 -1.18917668 1.56826878
v 0.20969643 -1.22653425 1.55864346
v 0.13443781 -1.15886295 1.63247001
v 0.20077570 -1.18244004 1.66767955
v 0.24695626 -1.22063625 1.65328312
v 0.23816209 -1.17166138 1.74721467
v 0.16798413 -1.14074159 1.76729035
v 0.00000035 -1.11835110 1.76567447
v 0.08100986 -1.12685323 1.75451648
v 0.67251313 -0.49820831 0.85476536
v 0.61172760 -0.50093615 0.77209777
v 0.65628159 -0.11516789 0.82195002
v 0.74192232 -0.64314359 1.00067329
v 0.73302066 -0.30271807 0.95496273
v 0.57618701 0.07078227 0.73382819
v 0.62735015 0.13906178 0.81152940
v 0.69947416 0.08607635 0.92544913
v 0.76245022 -0.10348359 1.06610072
v 0.72749048 0.14395770 1.03925121
v 0.76792020 -0.03287950 1.19159269
v 0.74071050 0.14490327 1.16541243
v 0.79095358 -0.29180208 1.22675395
v 0.78427547 -0.69586796 1.13816643
v 0.78042650 -0.40195599 1.10136437
v 0.79998767 -0.68334585 1.27801335
v 0.59709716 0.29658255 0.80811948
v 0.54027122 0.28833660 0.73571706
v 0.55621016 0.43183145 0.80676085
v 0.65360528 0.30123624 0.90826058
v 0.60732865 0.43931398 0.89992011
v 0.48262963 0.42739281 0.72459143
v 0.50721747 0.53982699 0.80914426
v 0.54724276 0.55352437 0.89267504
v 0.63860446 0.44563469 1.00466835
v 0.57176262 0.56402361 0.98975962
v 0.58019984 0.56802285 1.09469008
v 0.64909953 0.44821224 1.11600399
v 0.68977797 0.30490014 1.02113616
v 0.70186436 0.30648705 1.13988495
v 0.72721022 0.14395770 1.29193377
v 0.68938690 0.30422482 1.25924039
v 0.63808656 0.44465241 1.22832453
v 0.65047604 0.29583296 1.37351561
v 0.60318464 0.43145475 1.33548653
v 0.68582970 0.14184460 1.41326511
v 0.57139033 0.56331742 1.20114768
v 0.54426420 0.54787552 1.30223835
v 0.51626289 0.49437961 1.39756858
v 0.60504788 0.14462313 1.54231918
v 0.58822370 0.28092095 1.47514725
v 0.49648309 0.25589368 1.58794844
v 0.78528798 -0.56298578 1.40109658
v 0.76023704 -0.09207466 1.33741987
v 0.73980272 -0.63310188 1.54479825
v 0.73024076 -0.30975631 1.50303912
v 0.70879787 -0.02915564 1.45196390
v 0.63111973 -0.06182209 1.59200954
v 0.53141659 0.00911960 1.68883824
v 0.54085326 -0.17818180 1.71959770
v 0.66300672 -0.52082026 1.65796375
v 0.56727290 -0.53673577 1.76665390
v -0.00004649 -0.78746367 0.56800789
v 0.00508938 -0.87048084 0.58402532
v -0.15259126 -0.83073944 0.58954877
v -0.14577439 -0.79060477 0.58332092
v -0.28757843 -0.79878885 0.62882447
v 0.13388187 0.48850760 0.60727316
v -0.00224524 0.46280870 0.58865422
v 0.13214093 0.56938279 0.64180237
v 0.00000000 0.57340896 0.63464034
v 0.25574926 0.55881965 0.66250026
v 0.26064384 0.45130739 0.62275916
v 0.36821982 0.50767958 0.68052363
v -0.13716541 0.45922598 0.59789211
v -0.13141872 0.41548023 0.58995008
v -0.26334694 0.45311508 0.62387675
v -0.24856256 0.41099533 0.61437261
v 0.56385499 -0.30569556 0.71293491
v 0.57270610 -0.63511711 0.75377709
v 0.53910136 -0.21355250 0.69776565
v 0.55133152 -0.49364021 0.72358650
v -0.60827130 -0.49719849 0.76825875
v -0.59780896 -0.12515679 0.74394041
v -0.56385487 -0.30569592 0.71293485
v 0.54038525 0.05548736 0.70158887
v 0.52430367 0.05292973 0.69437838
v -0.41006449 -0.80338228 0.69063491
v -0.43749031 -0.84436446 0.70673847
v -0.52120519 -0.77753568 0.75120783
v -0.29934409 -0.83884543 0.63616061
v 0.14287233 -0.98403829 0.64795774
v -0.00000000 -0.97763944 0.63170969
v 0.15219226 -0.87931693 0.60228866
v 0.28187194 -1.00306606 0.69335580
v 0.29972202 -0.89105582 0.64943069
v -0.53910130 -0.21355179 0.69776559
v -0.53240240 -0.04716757 0.69605684
v -0.48262960 0.42739281 0.72459149
v -0.36979869 0.44557866 0.66197830
v -0.43959463 0.35322782 0.68263209
v -0.35482332 0.40037152 0.65214103
v 0.41394550 -1.03498101 0.76309687
v 0.43084881 -0.91019261 0.72049206
v 0.54614854 -1.08710670 0.86043733
v 0.55657989 -0.92413992 0.81436527
v 0.06463580 -1.09702289 0.78424823
v 0.06973390 -1.06894910 0.71940202
v 0.19702284 -1.12327826 0.81455970
v 0.17794202 -1.04407513 0.69631308
v -0.00000000 -1.03075337 0.67042989
v 0.30887976 -1.12408113 0.79662728
v 0.37284490 -1.09314692 0.77983695
v 0.46544382 -1.14259911 0.83787525
v 0.40186656 -1.17522275 0.84496558
v 0.27994171 -1.15538955 0.84597671
v 0.34477729 -1.19689989 0.87644154
v 0.29302990 -1.21117556 0.93191290
v 0.76590550 -1.41367590 1.43635190
v 0.73181695 -1.42335832 1.53896844
v 0.74713951 -1.48365855 1.43613660
v 0.77788734 -1.40894878 1.32974172
v 0.75795591 -1.48376906 1.32683992
v 0.68428904 -1.40857971 1.63060319
v 0.62708056 -1.41410804 1.69478464
v 0.67390770 -1.48297119 1.62254715
v 0.71766537 -1.48333871 1.53726208
v 0.69130951 -1.53951883 1.53472483
v 0.61390996 -1.51980448 1.67911005
v 0.65531445 -1.53743243 1.61596882
v 0.62114167 -1.58131528 1.61122847
v 0.59828687 -1.57087862 1.65718055
v 0.64578158 -1.58642769 1.53333497
v 0.72526848 -1.54098022 1.32725751
v 0.71602559 -1.54065013 1.43559933
v 0.66371298 -1.58848476 1.43558264
v 0.67242652 -1.58798718 1.27052927
v 0.65930653 -1.05728316 0.96385390
v 0.66676050 -0.76538295 0.89168882
v 0.60338491 -0.71640509 0.79943585
v 0.73145252 -1.10676026 1.08786130
v 0.77059114 -1.12167180 1.20140898
v 0.73381770 -1.21269131 1.54461968
v 0.77077270 -1.12209356 1.43753672
v 0.73432118 -0.88126767 1.55844057
v 0.66466504 -0.78274649 1.67785239
v 0.56523359 -0.78853840 1.78445756
v 0.65928704 -1.07602274 1.66116083
v 0.55789113 -0.97002947 1.77460790
v 0.23736612 -1.44335592 1.22511041
v 0.27308631 -1.47310805 1.12498772
v 0.25364780 -1.49328423 1.22533464
v 0.22593665 -1.44095266 1.33245277
v 0.24360685 -1.49355590 1.33336926
v 0.31607345 -1.47065341 1.03857625
v 0.30767831 -1.54462600 1.12742841
v 0.34141347 -1.54197705 1.04657447
v 0.37852743 -1.52352703 0.98455405
v 0.37578607 -1.58385861 1.05075502
v 0.39707595 -1.57326829 1.00479066
v 0.34724972 -1.59071171 1.15455306
v 0.27631333 -1.54644287 1.33295155
v 0.28479978 -1.54603577 1.22570240
v 0.32929784 -1.59093332 1.39048791
v 0.29302981 -1.21117568 1.72786176
v 0.27994159 -1.15538955 1.80278885
v 0.34477723 -1.19689989 1.77776241
v 0.30906406 -1.12403214 1.84104896
v 0.16820064 -1.11490393 1.83534729
v 0.40186650 -1.17522275 1.80222309
v 0.45486751 -1.14072025 1.80551612
v 0.17757204 -1.03892589 1.91892850
v 0.28187194 -1.00306594 1.90903282
v 0.06653052 -1.06907046 1.90236223
v -0.00000000 -1.03075337 1.93559802
v 0.00000000 -0.97763950 1.95869184
v 0.00000000 -1.09565604 1.85596669
v 0.54614848 -1.08710670 1.76828039
v 0.41394538 -1.03498101 1.85134363
v 0.43466383 -0.94829535 1.85947776
v 0.44376460 -0.84011585 1.86746192
v 0.29706505 -0.92595124 1.92303073
v 0.44780698 -0.71238160 1.86875129
v 0.30882600 -0.70525724 1.93501580
v 0.30503917 -0.82672691 1.93308997
v 0.15524738 -0.81720781 1.97415376
v 0.15752377 -0.69978577 1.97620952
v 0.15535128 -0.51570129 1.96164680
v -0.00000000 -0.69761288 1.99033964
v -0.00000000 -0.81371158 1.98832142
v 0.14705268 -0.94833565 1.95625496
v -0.00000000 -0.90625566 1.97676075
v 0.43136665 -1.60722899 1.05697215
v 0.43844810 -1.58244610 0.98965776
v 0.49747717 -1.61286700 1.05686855
v 0.49729246 -1.58484948 0.98189163
v 0.55638504 -1.58112502 0.98669451
v 0.59828687 -1.57087851 0.99986112
v 0.56590843 -1.60618746 1.05437493
v 0.64578158 -1.58642757 1.12283158
v 0.59357816 -1.61377633 1.26516724
v 0.50078374 -1.62066662 1.40156913
v 0.40303287 -1.61540949 1.33127046
v 0.43239933 -1.60777164 1.60460401
v 0.35328016 -1.58913636 1.53591645
v 0.58080316 -1.61189151 1.51543272
v 0.49837142 -1.61045635 1.61048532
v 0.56601131 -1.60286069 1.61450326
v 0.55638498 -1.58112502 1.67163086
v 0.49729237 -1.58484936 1.67831743
v 0.37578601 -1.58385861 1.61310232
v 0.43844804 -1.58244598 1.67243493
v 0.39707586 -1.57326818 1.65858579
v 0.67390776 -1.48297131 1.03233850
v 0.68529558 -1.41572690 1.02740729
v 0.71766549 -1.48333871 1.11686754
v 0.74713957 -1.48365855 1.21763420
v 0.76615506 -1.41605699 1.21987581
v 0.73343199 -1.41157722 1.11323595
v 0.69130957 -1.53951871 1.12016082
v 0.71602571 -1.54065001 1.21899247
v 0.61027396 -1.53569770 0.98285031
v 0.62495059 -1.45656550 0.96482790
v 0.65531451 -1.53743243 1.03952742
v 0.62114179 -1.58131528 1.04533231
v 0.25364777 -1.49328434 1.44131279
v 0.23676507 -1.44190252 1.44078624
v 0.30767822 -1.54462600 1.53810418
v 0.27323362 -1.47327745 1.54179871
v 0.28479978 -1.54603601 1.44012392
v 0.37241364 -1.47499835 1.69194448
v 0.31600940 -1.47034407 1.62722611
v 0.38445830 -1.53924310 1.67523527
v 0.34141341 -1.54197705 1.61834729
v 0.56137812 -1.45699573 1.73306894
v 0.41976780 -1.31454945 1.74551451
v 0.43199313 -1.47329175 1.73050582
v 0.49764848 -1.46311796 1.74598110
v 0.49655029 -1.53999543 1.71705329
v 0.43723756 -1.53992879 1.70716882
v 0.55627084 -1.53799117 1.70641828
v 0.36889368 -1.44336259 0.96940601
v 0.43236190 -1.46771705 0.93000817
v 0.56285650 -1.42273426 0.92325294
v 0.55945146 -1.48483217 0.93254352
v 0.49680123 -1.45976996 0.91354090
v 0.49655035 -1.53999543 0.94315577
v 0.55627090 -1.53799117 0.95178568
v 0.43723768 -1.53992891 0.95504534
v 0.32987863 -1.25663757 0.94841486
v 0.38781646 -1.24519670 0.89878172
v 0.45094666 -1.22874379 0.87502486
v 0.41576430 -1.30947101 0.91576421
v 0.35486373 -1.31733441 0.96134180
v 0.53395915 -1.23468900 0.89213264
v 0.48419359 -1.30023539 0.89648533
v 0.60875094 -1.21708012 0.93392152
v 0.60197091 -1.20803392 1.71921468
v 0.54304665 -1.24668765 1.75423026
v 0.45094648 -1.22874391 1.77839351
v 0.38781631 -1.24519670 1.75945699
v 0.32987854 -1.25663745 1.71368718
v 0.35393843 -1.31691229 1.70204604
v 0.48204222 -1.29732299 1.76186216
v 0.27808192 -1.26439774 1.64274943
v 0.23613641 -1.26927590 1.55160213
v 0.29920623 -1.32203376 1.63419628
v 0.25382417 -1.32425094 1.54512596
v 0.18966547 -1.25093222 1.33360827
v 0.22417893 -1.32645297 1.44309759
v 0.21341208 -1.32730818 1.33265114
v 0.67283845 -1.19595444 1.00143683
v 0.22378331 -1.32294095 1.22316265
v 0.25455502 -1.32658863 1.12075508
v 0.23613647 -1.26927590 1.11471760
v 0.27808204 -1.26439774 1.02199948
v 0.29866916 -1.32075930 1.03190804
v -0.35260728 0.61969936 0.73538244
v -0.42918068 0.57477725 0.75075316
v -0.35961351 0.67429602 0.79443634
v -0.44447529 0.61969936 0.80754584
v -0.37355116 0.71075141 0.87166595
v -0.25318024 0.71075141 0.77829164
v -0.25993824 0.75687349 0.85915542
v -0.25075760 0.64372766 0.71197879
v -0.47010651 0.64372766 0.88386846
v -0.38441315 0.73284519 0.96283877
v -0.48733312 0.65968978 0.97589535
v -0.38857359 0.74041259 1.06256330
v -0.26587656 0.78429234 0.95189291
v -0.26831427 0.79343545 1.05248213
v -0.13334744 0.78429234 0.85020262
v -0.13588798 0.81487286 0.94460857
v -0.13699470 0.82499874 1.04646194
v -0.12995535 0.65968978 0.69628161
v -0.13070653 0.73284543 0.76661217
v 0.00000000 0.74041259 0.76227444
v -0.49354702 0.66542184 1.07668185
v -0.38439697 0.73281467 1.16517627
v -0.48720357 0.65944421 1.17965651
v -0.37342167 0.71050584 1.26477540
v -0.26587656 0.78429234 1.15656137
v -0.25993824 0.75687349 1.25975657
v -0.46907055 0.64176309 1.27777147
v -0.35889050 0.67292488 1.35585093
v -0.44112989 0.61335456 1.36321795
v -0.41251057 0.58308733 1.42116702
v -0.25305080 0.71050584 1.35814977
v -0.24972165 0.64176309 1.44966114
v -0.13334744 0.78429234 1.25825167
v -0.13069037 0.73281467 1.36140299
v -0.12982586 0.65944421 1.45927012
v -0.13588798 0.81487286 1.15218103
v -0.54085320 -0.17818180 1.71959770
v -0.56562871 -0.52941787 1.76684844
v -0.44345507 -0.51507652 1.85584462
v -0.29607466 -0.20146385 1.86962473
v -0.30809426 -0.52357686 1.92148018
v -0.15273899 -0.51372778 1.96164250
v -0.25552204 0.44173965 1.61845887
v -0.13229248 0.45659551 1.64293003
v -0.25294933 0.55381286 1.53041530
v -0.13190950 0.56953609 1.54711139
v -0.35907230 0.40843210 1.58201003
v -0.36599222 0.59502590 1.44480324
v -0.43773243 0.46015319 1.49021387
v -0.08680769 -1.12086093 0.86805075
v -0.07121064 -1.13608122 0.99295121
v -0.16798417 -1.14074159 0.88603729
v -0.05127428 -1.14603877 1.25816905
v -0.11451370 -1.16287994 1.13129723
v -0.09850829 -1.16368961 1.40316021
v -0.15039152 -1.19282854 1.21207225
v -0.14312562 -1.19394600 1.33352816
v -0.18497354 -1.22970676 1.21711695
v -0.17049234 -1.18917668 1.09690392
v -0.20969644 -1.22653425 1.10719168
v -0.14170779 -1.15241873 0.97767556
v -0.23816215 -1.17166126 0.90939337
v -0.20077576 -1.18244016 0.99430364
v -0.24695636 -1.22063637 1.01029646
v -0.29302990 -1.21117556 0.93191290
v -0.06006116 -1.14294863 1.55145538
v -0.12034751 -1.15977132 1.57828164
v -0.08289948 -1.12733424 1.75363934
v -0.15996929 -1.14890397 1.73499143
v -0.17049232 -1.18917668 1.56826878
v -0.20077571 -1.18244004 1.66767955
v -0.23816209 -1.17166138 1.74721479
v -0.24695630 -1.22063625 1.65328312
v -0.20969643 -1.22653425 1.55864346
v -0.15039152 -1.19282854 1.45460725
v -0.18497352 -1.22970665 1.44978333
v -0.17603685 -1.23066783 1.33358335
v -0.66250962 -0.21946076 0.82960868
v -0.66998589 -0.49069372 0.84986460
v -0.72057414 -0.10827437 0.93720740
v -0.76245016 -0.10348335 1.06610060
v -0.78339440 -0.48474613 1.11129344
v -0.77669638 -0.10223368 1.20092010
v -0.73953909 -0.49032286 0.97600681
v -0.72749054 0.14395770 1.03925121
v -0.74071050 0.14490327 1.16541243
v -0.68807203 0.14184460 0.91872168
v -0.63766664 0.07295856 0.81304336
v -0.56835639 0.13375518 0.73539507
v -0.54027122 0.28833660 0.73571712
v -0.59709716 0.29658255 0.80811954
v -0.65360534 0.30123624 0.90826058
v -0.55621016 0.43183145 0.80676085
v -0.60732865 0.43931398 0.89992011
v -0.68977809 0.30490026 1.02113616
v -0.70186430 0.30648705 1.13988495
v -0.63860458 0.44563469 1.00466835
v -0.64909959 0.44821224 1.11600399
v -0.54724270 0.55352437 0.89267498
v -0.57176268 0.56402361 0.98975962
v -0.58019978 0.56802285 1.09469020
v -0.50721747 0.53982699 0.80914426
v -0.68938696 0.30422470 1.25924039
v -0.72721022 0.14395770 1.29193377
v -0.65047616 0.29583284 1.37351561
v -0.63808662 0.44465241 1.22832453
v -0.60318470 0.43145475 1.33548653
v -0.68582976 0.14184460 1.41326511
v -0.58275050 0.29452273 1.47276103
v -0.62125534 0.13958129 1.52125740
v -0.49763855 0.25349149 1.58937442
v -0.54426414 0.54787552 1.30223835
v -0.49848533 0.52324378 1.39096129
v -0.57139033 0.56331742 1.20114768
v -0.77039242 -0.21762326 1.35493398
v -0.78236341 -0.47334686 1.39255595
v -0.71537322 -0.08887151 1.46498084
v -0.79966408 -0.53457212 1.25966537
v -0.65555227 -0.38489881 1.64006460
v -0.66490543 -0.56667173 1.66170645
v -0.63324982 -0.06149271 1.58906519
v -0.73739767 -0.49396864 1.53008664
v -0.52796829 0.13628599 1.63919556
v -0.75348991 -0.03273490 1.32445753
v 0.45609444 0.37876520 0.69423461
v 0.50156510 0.24419472 0.70051336
v 0.44290471 0.36035320 0.68840480
v 0.52350926 -0.79716557 0.75383145
v 0.41504034 -0.80924207 0.69383663
v 0.50722516 -0.77819055 0.74507385
v -0.25574926 0.55881965 0.66250020
v -0.36299312 0.54418838 0.69579095
v -0.13214092 0.56938255 0.64180237
v -0.53086734 0.04320070 0.69632876
v -0.49712273 0.26067516 0.70009112
v 0.54158020 -0.67913514 0.74625748
v 0.35775867 0.40708789 0.65397263
v 0.24838547 0.41118512 0.61452764
v -0.55944705 -0.92064655 0.81540489
v -0.60338485 -0.71640509 0.79943579
v -0.56312507 -0.69973391 0.75975448
v -0.55525023 -0.54553676 0.73215711
v -0.54556102 -0.68654072 0.75063038
v -0.15042388 -0.91576260 0.61676675
v -0.14287235 -0.98403829 0.64795768
v -0.29652184 -0.93050557 0.66459757
v -0.28187197 -1.00306606 0.69335580
v -0.43410110 -0.95218015 0.73850393
v -0.41394544 -1.03498101 0.76309681
v 0.29602298 -0.82226872 0.63378936
v 0.14527519 -0.79537022 0.58503479
v 0.28906700 -0.80347216 0.63158339
v 0.12449999 0.42149481 0.59075850
v -0.00000002 0.41719612 0.58085537
v -0.10165608 -1.10281372 0.79065907
v -0.19702281 -1.12327826 0.81455964
v -0.19722782 -1.08709347 0.74766809
v -0.27994171 -1.15538955 0.84597671
v -0.34477732 -1.19690001 0.87644148
v -0.32531109 -1.13060558 0.80374122
v -0.17696618 -1.04398525 0.69607002
v -0.40186656 -1.17522287 0.84496558
v -0.37284485 -1.09314704 0.77983701
v -0.46544382 -1.14259911 0.83787519
v -0.77597618 -1.42009187 1.32679367
v -0.75795591 -1.48376894 1.32683992
v -0.76517779 -1.41672671 1.43737113
v -0.74713957 -1.48365855 1.43613660
v -0.73181689 -1.42335844 1.53896856
v -0.72526854 -1.54098022 1.32725751
v -0.67254925 -1.58789945 1.38539720
v -0.71602559 -1.54065013 1.43559933
v -0.69130945 -1.53951871 1.53472483
v -0.71766543 -1.48333871 1.53726208
v -0.67390758 -1.48297107 1.62254727
v -0.64578146 -1.58642781 1.53333497
v -0.65531445 -1.53743243 1.61596882
v -0.61027396 -1.53569770 1.67371047
v -0.59828675 -1.57087862 1.65718055
v -0.61988693 -1.48329270 1.68660700
v -0.68526554 -1.40633881 1.62936103
v -0.62662238 -1.41793180 1.69468582
v -0.54614848 -1.08710694 0.86043733
v -0.65908110 -1.05838680 0.96388906
v -0.66676033 -0.76538295 0.89168870
v -0.73845613 -0.78574115 1.02111888
v -0.78222764 -0.78059942 1.15118659
v -0.77059102 -1.12167311 1.20140886
v -0.78473824 -1.13758659 1.32068968
v -0.73094708 -1.12545037 1.09064841
v -0.78237307 -0.77402198 1.42342114
v -0.77036953 -1.14205253 1.43669820
v -0.73700309 -0.78789932 1.55772829
v -0.65981740 -1.07622230 1.66060257
v -0.55789107 -0.97002947 1.77460790
v -0.66466504 -0.78274614 1.67785239
v -0.73096311 -1.13091612 1.54785621
v -0.22671928 -1.44221306 1.33309948
v -0.24360685 -1.49355602 1.33336914
v -0.23736617 -1.44335604 1.22511029
v -0.25364780 -1.49328446 1.22533464
v -0.27218050 -1.47200799 1.12669945
v -0.27631330 -1.54644287 1.33295155
v -0.32918975 -1.59086096 1.39055061
v -0.28479978 -1.54603612 1.22570240
v -0.33713728 -1.59128809 1.22544551
v -0.30767831 -1.54462600 1.12742829
v -0.32254520 -1.49083638 1.04034257
v -0.35328019 -1.58913612 1.12833524
v -0.34141347 -1.54197693 1.04657459
v -0.37852842 -1.52350330 0.98453999
v -0.39707592 -1.57326818 1.00479066
v -0.36889371 -1.44336224 0.96940595
v -0.31343901 -1.44555819 1.03652835
v -0.34477720 -1.19689977 1.77776241
v -0.29302981 -1.21117568 1.72786176
v -0.27994162 -1.15538943 1.80278885
v -0.19702278 -1.12327814 1.82861006
v -0.40186647 -1.17522287 1.80222309
v -0.30906397 -1.12403202 1.84104908
v -0.10165605 -1.10281360 1.84823322
v -0.11679623 -1.07618713 1.89375556
v -0.25732970 -1.05868793 1.89319706
v -0.13111080 -1.03781915 1.92427063
v -0.14287235 -0.98403835 1.94576681
v -0.28187194 -1.00306606 1.90903282
v -0.45486733 -1.14071989 1.80551636
v -0.41394544 -1.03498101 1.85134363
v -0.54614842 -1.08710682 1.76828039
v -0.43466383 -0.94829535 1.85947776
v -0.29706499 -0.92595112 1.92303073
v -0.44376457 -0.84011579 1.86746192
v -0.56523347 -0.78853840 1.78445768
v -0.15070476 -0.91131634 1.96292412
v -0.15524738 -0.81720781 1.97415376
v -0.30503920 -0.82672691 1.93308997
v -0.30882600 -0.70525718 1.93501568
v -0.15752377 -0.69978583 1.97620952
v -0.44780695 -0.71238154 1.86875129
v -0.43844810 -1.58244610 0.98965776
v -0.42961615 -1.60640872 1.05586290
v -0.49835426 -1.60819495 1.04252648
v -0.50049150 -1.62022221 1.16981554
v -0.49729246 -1.58484948 0.98189169
v -0.40810093 -1.61498451 1.26591802
v -0.56766862 -1.60533082 1.05324996
v -0.59357816 -1.61377645 1.26516712
v -0.64578152 -1.58642769 1.12283158
v -0.55638504 -1.58112514 0.98669457
v -0.59828681 -1.57087862 0.99986118
v -0.35328016 -1.58913624 1.53591645
v -0.41894978 -1.61318994 1.51641119
v -0.37578601 -1.58385861 1.61310232
v -0.39707586 -1.57326841 1.65858579
v -0.43080479 -1.60401189 1.61553645
v -0.43844804 -1.58244586 1.67243493
v -0.49835420 -1.60819495 1.61768258
v -0.49964398 -1.61761987 1.52373195
v -0.56755471 -1.60517502 1.60557806
v -0.55638498 -1.58112514 1.67163086
v -0.62114173 -1.58131528 1.61122847
v -0.58851194 -1.61327434 1.43654704
v -0.68478787 -1.41969776 1.02745199
v -0.62592125 -1.42554998 0.96195596
v -0.67390770 -1.48297119 1.03233850
v -0.73249876 -1.42217422 1.11573064
v -0.71766543 -1.48333859 1.11686766
v -0.61988693 -1.48329270 0.96955955
v -0.65531445 -1.53743255 1.03952742
v -0.61027390 -1.53569782 0.98285037
v -0.69130957 -1.53951883 1.12016082
v -0.74713963 -1.48365843 1.21763420
v -0.71602571 -1.54065001 1.21899247
v -0.66371298 -1.58848464 1.22037959
v -0.76489133 -1.41733921 1.21486187
v -0.26717797 -1.44273376 1.54245269
v -0.31343892 -1.44555819 1.62929761
v -0.28120804 -1.49237692 1.54109979
v -0.37176919 -1.47193062 1.69220221
v -0.38445830 -1.53924322 1.67523527
v -0.32254511 -1.49083638 1.62518990
v -0.34141338 -1.54197729 1.61834729
v -0.30767822 -1.54462600 1.53810418
v -0.25364777 -1.49328434 1.44131279
v -0.28479975 -1.54603612 1.44012392
v -0.23856671 -1.44738758 1.44211888
v -0.56093806 -1.46241426 1.73166573
v -0.55627084 -1.53799117 1.70641828
v -0.49655026 -1.53999543 1.71705329
v -0.49729237 -1.58484960 1.67831743
v -0.49720520 -1.46230173 1.74587190
v -0.43328515 -1.48803270 1.72624695
v -0.43723756 -1.53992879 1.70716882
v -0.43071440 -1.44127858 1.73555005
v -0.41796395 -1.31093669 1.74580860
v -0.41848275 -1.31193030 0.91549468
v -0.43299660 -1.47542548 0.93222106
v -0.49610206 -1.43438435 0.91037166
v -0.49611303 -1.48671103 0.92158765
v -0.43723768 -1.53992879 0.95504534
v -0.49655032 -1.53999543 0.94315577
v -0.56089425 -1.46405602 0.92671639
v -0.55627090 -1.53799129 0.95178574
v -0.32987863 -1.25663745 0.94841486
v -0.35571665 -1.31575632 0.95978993
v -0.38781646 -1.24519670 0.89878172
v -0.45094663 -1.22874379 0.87502486
v -0.48211047 -1.29714787 0.89610279
v -0.55050647 -1.28932178 0.90719008
v -0.60721183 -1.22584629 0.93446141
v -0.51912326 -1.20688415 0.87898195
v -0.53775620 -1.24232960 1.75661671
v -0.45094651 -1.22874367 1.77839351
v -0.48204228 -1.29732275 1.76186216
v -0.35135585 -1.30519438 1.70496809
v -0.36166701 -1.35399997 1.70061135
v -0.38781637 -1.24519682 1.75945699
v -0.32987854 -1.25663757 1.71368730
v -0.27808195 -1.26439762 1.64274943
v -0.29998431 -1.32195950 1.63526666
v -0.23613641 -1.26927590 1.55160213
v -0.25382426 -1.32425141 1.54512596
v -0.21546601 -1.28830326 1.44601703
v -0.21124424 -1.31754816 1.33364856
v -0.67283857 -1.19595671 1.00143719
v -0.20829628 -1.27189100 1.22080731
v -0.19823281 -1.27267671 1.33362377
v -0.22475246 -1.32802737 1.22303653
v -0.23613647 -1.26927590 1.11471760
v -0.25455511 -1.32658911 1.12075508
v -0.29968965 -1.32229233 1.03119552
v -0.27808204 -1.26439774 1.02199948
v -0.73510110 -1.32135344 1.54123449
v -0.60197121 -1.20803463 1.71921444
v -0.54164243 -0.54172015 0.67649251
v -0.54565746 -0.49477723 0.71434557
v -0.53104788 -0.53583705 0.57265162
v -0.53236610 -0.22086266 0.54831529
v -0.53619856 -0.38638678 0.55552745
v -0.49969494 -0.38559750 0.43442336
v -0.49152184 -0.53124261 0.45044830
v 0.53104782 -0.53583705 0.57265162
v 0.54552776 -0.55296421 0.72344518
v 0.51021987 -0.65373772 0.59113127
v 0.53033924 -0.67135632 0.69495541
v 0.47593206 -0.74345559 0.63018376
v 0.46732059 -0.64080161 0.47177139
v 0.44150612 -0.70501751 0.49462637
v 0.49152187 -0.53124261 0.45044836
v -0.27717882 -0.78207827 0.49224958
v -0.28251219 -0.79287726 0.58335072
v -0.38704944 -0.76975274 0.54101056
v -0.40276551 -0.79147720 0.64160079
v -0.47593218 -0.74345553 0.63018411
v -0.37761685 -0.72560984 0.43709853
v -0.44150606 -0.70501757 0.49462637
v -0.27448162 -0.74307352 0.39243957
v 0.41422093 -0.79929990 0.68772537
v 0.28086019 -0.79158604 0.57565129
v 0.38704938 -0.76975268 0.54101050
v 0.27717885 -0.78207821 0.49224958
v 0.37761688 -0.72560984 0.43709853
v -0.51977110 -0.05089083 0.53866589
v -0.52627844 -0.03957179 0.68755645
v -0.49761280 0.10256812 0.53923815
v -0.48451549 -0.05128363 0.41974959
v -0.49559548 -0.21939424 0.42402521
v 0.24181107 0.39238879 0.47977200
v 0.24594621 0.40467700 0.57002294
v 0.33584908 0.36461720 0.50548548
v 0.34865627 0.38750061 0.60346842
v 0.41665697 0.32570264 0.58088392
v 0.33223462 0.31655487 0.40590575
v 0.38978314 0.28652975 0.45110533
v 0.24250987 0.34752271 0.38122532
v -0.50967127 0.11946639 0.68735027
v -0.46033347 0.22607717 0.54353595
v -0.47759432 0.24402794 0.64430177
v -0.41665679 0.32570276 0.58088374
v -0.42286846 0.21550235 0.43193892
v -0.38978314 0.28652975 0.45110533
v -0.46112111 0.09923181 0.42187092
v 0.13055624 0.41449794 0.58726484
v 0.09997591 0.40802512 0.49041256
v 0.12806140 0.36315343 0.39612010
v 0.14436740 -0.74755621 0.39108345
v 0.11263391 -0.78189355 0.47879830
v -0.00000001 -0.74650210 0.40084913
v 0.27448159 -0.74307352 0.39243963
v -0.53656155 -0.68446010 0.73932230
v -0.51021981 -0.65373766 0.59113121
v -0.46732059 -0.64080161 0.47177139
v 0.53619862 -0.38638678 0.55552733
v 0.54403841 -0.40321043 0.70616269
v 0.49969494 -0.38559738 0.43442336
v 0.49559548 -0.21939424 0.42402515
v 0.53236604 -0.22086218 0.54831493
v -0.24594618 0.40467700 0.57002294
v -0.24181105 0.39238891 0.47977194
v -0.12670478 0.40529618 0.48407868
v -0.12806138 0.36315343 0.39612022
v -0.00000000 0.36664268 0.41232422
v -0.24250986 0.34752271 0.38122532
v 0.50967139 0.11946627 0.68735027
v 0.52627844 -0.03957179 0.68755639
v 0.49761283 0.10256824 0.53923810
v 0.51977116 -0.05089083 0.53866577
v 0.48451552 -0.05128363 0.41974965
v 0.46112111 0.09923181 0.42187098
v -0.14446674 -0.78258950 0.47830924
v -0.14436740 -0.74755621 0.39108345
v -0.34865624 0.38750061 0.60346842
v -0.33584905 0.36461720 0.50548553
v -0.33223453 0.31655499 0.40590581
v 0.48203585 0.25793526 0.68719411
v 0.46033347 0.22607717 0.54353589
v 0.42286843 0.21550235 0.43193892
v 0.13788787 0.11746094 0.26660761
v -0.00000001 0.11876592 0.26232597
v 0.13244244 0.26178703 0.31959113
v -0.00000001 0.26436171 0.32798752
v 0.25351429 0.25042626 0.31852624
v 0.26802450 0.11260483 0.28761694
v 0.38104385 0.10436568 0.33673427
v 0.35274968 0.22919974 0.35446361
v 0.14654003 -0.53401315 0.26537439
v -0.00000001 -0.53322136 0.25784144
v 0.14640138 -0.38187471 0.24155483
v -0.00000001 -0.38122931 0.22936174
v 0.14489658 -0.21598926 0.23628184
v 0.28504151 -0.53418458 0.29489216
v 0.28561229 -0.33765832 0.27379498
v -0.00000001 -0.21548501 0.22409269
v 0.14212164 -0.04613474 0.24183699
v -0.00000001 -0.04550567 0.23121867
v 0.27814874 -0.04778829 0.27432689
v 0.40798214 -0.21849826 0.33257398
v 0.39910853 -0.04993036 0.33101937
v 0.40568429 -0.53190529 0.35540488
v 0.41144875 -0.38452664 0.34073111
v -0.00000001 -0.66057503 0.31979176
v 0.14543507 -0.66138524 0.31641659
v 0.27890921 -0.65826803 0.32812890
v 0.38909972 -0.64699525 0.38048282
v -0.13244244 0.26178703 0.31959113
v -0.13788788 0.11746094 0.26660749
v -0.25351429 0.25042626 0.31852624
v -0.26802450 0.11260483 0.28761694
v -0.35274968 0.22919974 0.35446361
v -0.38104382 0.10436568 0.33673438
v -0.14640139 -0.38187471 0.24155495
v -0.14654008 -0.53401303 0.26537439
v -0.28661492 -0.38322201 0.27826247
v -0.14489660 -0.21598926 0.23628172
v -0.28002104 -0.11269942 0.27059779
v -0.28504154 -0.53418469 0.29489216
v -0.41203097 -0.32452896 0.33594993
v -0.40568432 -0.53190517 0.35540494
v -0.39910853 -0.04993036 0.33101925
v -0.14212166 -0.04613474 0.24183688
v -0.27890921 -0.65826803 0.32812890
v -0.38909975 -0.64699531 0.38048276
v -0.14543509 -0.66138530 0.31641659
v 0.49587393 -0.10641542 1.74664247
v 0.43888697 0.34893033 1.56401730
v -0.43932196 0.34822187 1.56437695
v 0.41424394 -0.17278305 1.81134343
v -0.15359433 -0.21076050 1.90770221
v -0.00055959 -0.21212879 1.91994345
v 0.52765661 0.13879427 1.63800514
v 0.00000006 -0.49502507 1.97202158
v 0.15313083 -0.21079269 1.90773058
v -0.49664578 -0.10660318 1.74586773
v -0.41510648 -0.17245665 1.81071377
v 0.43675137 0.35239324 0.67969650
v -0.50014967 -0.77026856 0.73554093
v 0.28549632 -0.79648423 0.62407982
v 0.14564885 -0.78907704 0.58080864
v -0.48458770 0.25308976 0.68934387
v 0.35544249 0.39679298 0.64783502
v 0.50014973 -0.77026862 0.73554099
v -0.54936439 -0.38937321 0.71358597
v -0.46149290 0.26083025 1.62672675
v -0.49400783 0.26641807 1.61014593
v -0.49014363 0.15472946 1.67202318
v -0.40808779 0.34683916 1.60395026
v -0.43811670 0.35646531 1.58642530
v 0.27404812 -0.16576770 1.88836658
v 0.29146120 -0.18478408 1.89141870
v 0.38566300 -0.13882676 1.83310187
v 0.40823603 -0.15671948 1.83317196
v 0.49407753 -0.09556928 1.76751924
v -0.29146114 -0.18478408 1.89141870
v -0.15145048 -0.19399968 1.92861807
v -0.27404788 -0.16576770 1.88836670
v -0.00000075 -0.17439607 1.93586087
v -0.14317834 -0.17409089 1.92308879
v 0.49382380 0.26671597 1.61007106
v 0.43790555 0.35688469 1.58632958
v 0.46149302 0.26083013 1.62672663
v 0.52571613 0.14838931 1.65937054
v 0.49150598 0.14885649 1.67289901
v 0.25369221 0.44729242 1.64379525
v 0.13239254 0.46234998 1.66807377
v 0.24122746 0.43216833 1.65313101
v -0.00000041 0.45011505 1.68547034
v 0.12560588 0.44651446 1.67660713
v -0.24008852 0.43241486 1.65338159
v -0.25369218 0.44729242 1.64379537
v -0.33570966 0.40116104 1.61972237
v -0.35460806 0.41422805 1.60823536
v 0.14317906 -0.17409089 1.92308855
v 0.15145051 -0.19399968 1.92861807
v -0.40823591 -0.15671948 1.83317196
v -0.38566285 -0.13882676 1.83310199
v -0.49410397 -0.09522703 1.76723278
v -0.46117830 -0.07708183 1.77370119
v -0.44947249 0.08041391 1.84350455
v -0.44057962 0.19465634 1.81142855
v -0.39204675 0.11318061 1.94385409
v -0.38422930 0.03378496 1.95960188
v -0.38697493 0.22076079 1.90635407
v 0.44057962 0.19465634 1.81142843
v 0.41568550 0.29336473 1.76743412
v 0.36679807 0.31563005 1.86283231
v 0.34491083 0.37041697 1.82549870
v 0.38697490 0.22076079 1.90635407
v 0.34876686 -0.06256142 1.95264113
v 0.41616946 -0.01030496 1.89873207
v 0.32654351 0.01333722 2.01061130
v 0.38422933 0.03378496 1.95960176
v 0.23271859 -0.00252274 2.05046630
v 0.25295287 -0.09375623 1.98967063
v -0.10778315 0.43279418 1.91303349
v -0.11417063 0.45872077 1.80732131
v -0.20732480 0.42244944 1.89252293
v 0.00000000 0.43532905 1.91974699
v 0.00000054 0.46125826 1.81858575
v 0.40808785 0.34683904 1.60395014
v 0.33214226 0.40182444 1.63254726
v 0.36964735 0.36832115 1.74736559
v 0.30380499 0.41693553 1.76451933
v 0.21738385 0.44460592 1.79564011
v 0.29044604 0.40044817 1.85923314
v -0.36964738 0.36832115 1.74736559
v -0.41568595 0.29336450 1.76743305
v -0.36679804 0.31563005 1.86283231
v -0.34491083 0.37041697 1.82549870
v -0.13977864 -0.10268500 2.00966644
v -0.00014528 -0.10318115 2.01559472
v -0.12059663 -0.00849798 2.06364298
v -0.25295264 -0.09375647 1.98967063
v -0.23271854 -0.00252274 2.05046630
v 0.12937832 -0.09326270 2.01740766
v 0.13757044 -0.14389685 1.96188617
v 0.11640693 -0.00862792 2.06393838
v -0.12542167 0.44642791 1.67664981
v -0.13239253 0.46234998 1.66807377
v 0.35460800 0.41422805 1.60823536
v 0.33591279 0.40240237 1.61906052
v 0.52854365 0.01746330 1.71152830
v 0.49508506 0.02706501 1.71969688
v 0.46173492 -0.07670441 1.77321398
v -0.49473801 0.02788708 1.71960223
v -0.52873170 0.01828381 1.71092725
v 0.31807995 0.11755702 2.01136398
v 0.39204669 0.11318049 1.94385409
v 0.31108192 0.23321411 1.97471046
v 0.22364780 0.11151358 2.05150867
v 0.21741909 0.23657510 2.01554585
v 0.08199002 0.10809705 2.06936550
v 0.11173081 0.23821279 2.03622723
v 0.29753360 0.33531687 1.92628920
v 0.20950055 0.34827217 1.96463013
v 0.20732483 0.42244944 1.89252293
v 0.10813559 0.35464165 1.98625386
v 0.10778315 0.43279418 1.91303349
v 0.00000000 0.35632738 1.99326432
v 0.00000000 0.23894188 2.04205751
v -0.22364779 0.11151358 2.05150867
v -0.11527418 0.10879096 2.06695771
v -0.11173082 0.23821279 2.03622723
v -0.21741909 0.23657510 2.01554585
v -0.31807998 0.11755702 2.01136398
v -0.32654351 0.01333722 2.01061130
v -0.31108195 0.23321399 1.97471058
v -0.29753357 0.33531687 1.92628932
v -0.20950055 0.34827217 1.96463013
v -0.29044607 0.40044829 1.85923314
v -0.10813560 0.35464165 1.98625386
v 0.12025909 0.45229992 1.73136139
v 0.11339305 0.45726332 1.81652761
v -0.30380496 0.41693553 1.76451933
v -0.21729508 0.44607553 1.78747249
v -0.41616943 -0.01030496 1.89873207
v -0.34876683 -0.06256142 1.95264125
v 0.44389182 0.08324990 1.85435033
v 0.35862947 0.41626224 1.60393357
v -0.52571994 0.14869401 1.65863431
v -0.35906270 0.41585216 1.60378551
v -0.53171539 0.00819096 1.68876112
v 0.25657466 0.44954786 1.64006019
v 0.13389681 0.46477661 1.66461444
v 0.00000000 0.46843848 1.67261016
v -0.25657463 0.44954810 1.64006019
v -0.41287431 -0.16132668 1.83158863
v -0.29477274 -0.18971017 1.89049709
v 0.00000001 -0.20012715 1.94081008
v 0.15317132 -0.19903055 1.92811918
v 0.29477280 -0.18971017 1.89049697
v -0.15317127 -0.19903055 1.92811918
v 0.41287434 -0.16132668 1.83158851
v -0.13389680 0.46477661 1.66461444
v 0.59897727 -0.21955374 0.74534130
v -0.37578607 -1.58385873 1.05075502
v -0.62114173 -1.58131552 1.04533231
f 1 2 3
f 4 5 3
f 6 3 7
f 8 1 6
f 5 9 10
f 9 11 12
f 13 12 14
f 7 10 13
f 15 7 16
f 16 13 17
f 18 16 19
f 20 15 18
f 21 8 22
f 22 6 15
f 23 22 20
f 24 21 23
f 25 24 26
f 26 23 27
f 28 26 29
f 30 25 28
f 27 20 31
f 31 18 32
f 33 31 34
f 29 27 33
f 35 29 36
f 36 33 37
f 38 36 39
f 40 35 38
f 41 30 42
f 42 28 35
f 43 42 40
f 44 45 46
f 47 41 43
f 48 43 49
f 49 50 51
f 50 40 52
f 52 38 53
f 51 52 54
f 55 56 57
f 56 58 59
f 59 58 60
f 59 60 61
f 62 63 64
f 65 62 66
f 57 65 67
f 67 65 68
f 69 67 70
f 71 64 72
f 73 71 74
f 75 66 73
f 73 74 76
f 76 77 78
f 75 76 79
f 80 70 81
f 81 68 75
f 82 83 84
f 85 82 86
f 84 87 88
f 86 84 89
f 90 89 91
f 92 90 93
f 94 90 92
f 95 85 96
f 96 86 90
f 97 95 94
f 88 87 98
f 98 99 100
f 101 98 102
f 89 88 101
f 100 103 104
f 105 104 8
f 102 100 105
f 106 102 107
f 107 105 21
f 108 107 24
f 109 106 108
f 91 89 110
f 110 101 106
f 111 110 109
f 93 91 111
f 112 93 113
f 113 111 114
f 115 113 116
f 117 112 115
f 114 109 118
f 118 108 25
f 119 118 30
f 116 114 119
f 120 119 41
f 47 120 41
f 121 117 122
f 122 115 120
f 123 122 47
f 124 94 125
f 126 124 127
f 125 92 112
f 128 125 117
f 127 125 128
f 129 128 121
f 130 129 121
f 131 129 130
f 132 127 129
f 132 129 133
f 134 135 136
f 137 136 138
f 139 140 141
f 141 142 9
f 143 141 5
f 144 139 143
f 145 143 4
f 103 145 2
f 146 140 147
f 148 146 149
f 150 83 151
f 152 150 153
f 154 155 156
f 157 87 150
f 157 150 158
f 159 160 161
f 138 162 159
f 163 164 165
f 166 163 167
f 168 156 169
f 170 171 172
f 171 148 173
f 174 166 175
f 176 174 177
f 178 179 180
f 55 178 56
f 181 182 163
f 179 181 183
f 181 166 184
f 184 174 185
f 183 184 186
f 56 180 58
f 180 183 187
f 187 183 188
f 58 187 189
f 190 191 192
f 193 190 194
f 195 196 197
f 191 195 198
f 198 197 199
f 197 200 201
f 202 201 203
f 199 201 204
f 194 192 205
f 192 198 206
f 206 199 207
f 205 206 208
f 209 177 210
f 210 211 82
f 212 210 85
f 213 212 95
f 193 213 97
f 214 215 216
f 215 97 124
f 216 215 126
f 217 126 132
f 218 217 133
f 214 216 219
f 219 217 220
f 221 222 223
f 224 221 225
f 222 226 227
f 228 226 229
f 230 228 231
f 227 228 232
f 225 223 233
f 223 222 234
f 234 227 232
f 233 234 235
f 78 236 237
f 237 238 239
f 240 237 239
f 79 78 240
f 239 241 242
f 243 242 244
f 245 239 243
f 246 243 247
f 81 79 240
f 248 240 245
f 80 81 248
f 249 220 250
f 220 218 251
f 251 252 253
f 250 251 244
f 218 133 254
f 254 45 255
f 252 254 256
f 256 255 257
f 255 44 258
f 258 259 260
f 257 258 261
f 244 253 262
f 253 256 262
f 262 257 263
f 230 231 264
f 264 265 266
f 232 230 264
f 267 268 266
f 268 269 270
f 270 271 272
f 266 272 273
f 274 264 266
f 235 232 274
f 274 273 275
f 235 274 276
f 277 272 207
f 278 273 277
f 279 277 202
f 280 279 203
f 281 278 280
f 276 275 282
f 275 278 283
f 282 275 284
f 285 286 287
f 288 289 194
f 287 290 288
f 291 287 292
f 292 288 205
f 271 291 208
f 293 294 295
f 295 285 291
f 296 295 271
f 293 295 269
f 297 298 225
f 299 300 301
f 301 297 233
f 276 299 235
f 302 303 304
f 305 303 299
f 282 305 276
f 304 305 284
f 200 196 306
f 307 302 308
f 309 308 310
f 308 302 311
f 283 311 284
f 310 311 281
f 312 306 310
f 280 312 281
f 200 312 203
f 229 313 314
f 315 294 316
f 317 316 318
f 316 294 319
f 268 319 269
f 318 319 267
f 320 314 318
f 265 320 267
f 229 320 231
f 189 188 321
f 188 186 322
f 322 323 324
f 321 322 325
f 186 185 323
f 185 176 326
f 323 326 327
f 326 328 315
f 327 315 317
f 314 324 317
f 313 325 314
f 329 249 330
f 330 242 331
f 331 241 332
f 332 238 333
f 307 332 334
f 335 331 307
f 335 307 309
f 196 329 330
f 306 330 309
f 333 236 336
f 336 77 337
f 338 336 339
f 334 333 338
f 74 72 337
f 72 340 341
f 337 72 339
f 341 342 298
f 339 341 300
f 338 339 303
f 334 338 302
f 176 209 328
f 209 212 343
f 213 193 289
f 212 213 290
f 343 290 286
f 328 286 294
f 344 63 345
f 342 340 344
f 61 60 346
f 60 189 347
f 347 321 348
f 345 346 348
f 226 348 313
f 222 345 226
f 221 344 222
f 342 344 224
f 195 219 329
f 191 214 195
f 190 215 214
f 349 350 351
f 351 352 353
f 354 351 355
f 349 351 356
f 353 357 358
f 358 359 360
f 361 358 362
f 355 353 361
f 363 355 364
f 364 361 365
f 17 364 19
f 14 363 17
f 356 354 366
f 367 354 363
f 368 367 14
f 366 367 11
f 360 369 370
f 370 371 372
f 373 370 374
f 362 360 373
f 372 375 376
f 377 378 376
f 379 376 380
f 374 372 379
f 381 374 382
f 382 379 383
f 37 382 39
f 34 381 37
f 365 362 384
f 384 373 381
f 32 384 34
f 19 365 32
f 385 386 387
f 388 389 390
f 391 392 393
f 392 54 394
f 394 53 383
f 393 394 380
f 395 391 396
f 397 396 378
f 55 69 398
f 398 399 400
f 69 70 401
f 399 401 402
f 402 403 404
f 404 405 406
f 407 404 408
f 400 409 410
f 409 402 411
f 411 407 412
f 413 410 412
f 401 70 414
f 403 414 415
f 414 70 416
f 415 414 417
f 418 415 419
f 419 420 421
f 418 419 422
f 405 403 423
f 423 403 418
f 424 423 422
f 425 405 424
f 426 427 428
f 155 154 426
f 429 430 431
f 428 432 429
f 433 429 434
f 435 428 433
f 436 426 428
f 437 155 436
f 438 437 439
f 439 436 440
f 441 439 442
f 170 438 441
f 440 435 443
f 443 433 444
f 445 443 446
f 442 440 445
f 447 442 448
f 448 445 449
f 359 448 369
f 357 447 359
f 350 170 450
f 450 441 447
f 352 450 357
f 444 434 451
f 451 452 453
f 454 451 455
f 446 444 454
f 453 456 457
f 457 458 459
f 455 453 457
f 460 455 461
f 461 457 397
f 377 461 378
f 375 460 377
f 449 446 462
f 462 454 460
f 371 462 375
f 369 449 371
f 463 464 465
f 431 466 463
f 467 468 386
f 467 386 469
f 465 470 469
f 458 469 471
f 456 465 458
f 472 463 465
f 452 472 456
f 434 431 452
f 103 99 473
f 99 87 474
f 473 474 475
f 177 175 476
f 175 167 477
f 476 477 478
f 479 148 480
f 480 171 350
f 349 480 350
f 356 479 349
f 142 140 481
f 481 146 479
f 366 481 356
f 11 142 366
f 482 437 483
f 483 438 172
f 151 211 476
f 484 151 478
f 153 151 484
f 485 145 473
f 486 144 485
f 487 488 161
f 488 154 489
f 489 490 491
f 135 164 492
f 492 493 494
f 136 492 162
f 494 495 496
f 496 497 487
f 160 496 487
f 162 494 160
f 167 165 498
f 165 135 499
f 498 499 500
f 501 139 144
f 502 140 501
f 178 55 503
f 398 400 503
f 503 504 505
f 179 178 505
f 400 410 504
f 410 413 506
f 506 507 508
f 504 506 505
f 505 508 509
f 508 510 511
f 511 512 497
f 509 511 495
f 182 179 509
f 493 509 495
f 164 182 493
f 513 514 515
f 515 516 517
f 514 518 516
f 518 519 520
f 520 519 521
f 516 520 522
f 522 521 523
f 521 524 525
f 526 525 527
f 523 525 528
f 517 522 529
f 529 523 530
f 487 531 532
f 533 532 534
f 535 536 537
f 534 538 535
f 430 535 466
f 432 534 430
f 488 487 533
f 427 533 432
f 154 488 427
f 539 540 541
f 542 543 544
f 545 542 541
f 468 544 386
f 470 541 468
f 466 537 539
f 464 539 470
f 546 547 548
f 548 549 550
f 547 551 549
f 551 552 553
f 553 554 555
f 549 553 550
f 550 555 556
f 555 557 558
f 559 558 560
f 561 562 559
f 563 564 565
f 565 420 566
f 567 563 568
f 566 417 569
f 569 416 248
f 570 569 245
f 568 566 570
f 571 568 572
f 572 570 246
f 573 572 247
f 574 571 573
f 575 568 571
f 576 575 574
f 577 575 576
f 577 576 543
f 576 574 578
f 578 579 580
f 543 578 581
f 574 573 579
f 573 247 582
f 582 263 583
f 579 582 584
f 584 583 585
f 583 261 586
f 586 260 390
f 585 586 389
f 580 584 587
f 587 585 387
f 581 587 386
f 588 560 589
f 590 589 591
f 592 588 590
f 589 557 593
f 594 595 596
f 592 590 597
f 590 591 594
f 597 594 598
f 552 599 600
f 593 600 591
f 599 601 600
f 601 602 603
f 603 604 605
f 600 603 606
f 607 605 608
f 609 607 527
f 524 607 609
f 595 591 610
f 610 606 607
f 519 610 524
f 611 612 613
f 614 611 615
f 613 616 617
f 618 598 617
f 619 617 596
f 615 613 619
f 620 615 621
f 621 619 622
f 518 621 519
f 514 620 518
f 623 614 620
f 513 623 514
f 624 625 626
f 627 628 629
f 628 602 630
f 631 630 599
f 626 629 631
f 632 626 633
f 633 631 552
f 551 633 552
f 547 632 551
f 634 624 632
f 546 634 547
f 635 528 636
f 526 527 636
f 637 636 638
f 639 635 637
f 639 637 640
f 637 638 641
f 628 641 602
f 640 641 627
f 642 640 627
f 643 642 627
f 644 561 645
f 646 645 647
f 645 559 648
f 559 560 648
f 649 648 592
f 647 645 649
f 647 649 650
f 649 592 651
f 618 651 598
f 650 651 616
f 413 652 507
f 652 653 654
f 654 644 655
f 507 654 510
f 656 644 646
f 656 646 657
f 657 650 658
f 510 655 512
f 655 656 659
f 659 657 658
f 512 659 531
f 575 577 660
f 661 660 662
f 567 575 661
f 660 530 635
f 662 660 639
f 662 639 643
f 663 643 664
f 563 567 665
f 665 661 643
f 666 665 663
f 564 563 666
f 421 564 667
f 667 666 668
f 669 667 670
f 422 421 669
f 664 627 668
f 670 624 634
f 671 634 672
f 422 669 424
f 669 670 671
f 424 671 425
f 531 658 532
f 532 673 538
f 658 612 611
f 673 611 538
f 538 614 623
f 536 623 537
f 406 425 674
f 674 675 676
f 677 674 678
f 408 406 677
f 678 676 550
f 653 679 561
f 408 677 412
f 680 677 679
f 680 679 652
f 412 680 413
f 537 513 515
f 545 540 681
f 682 529 530
f 542 545 529
f 577 542 682
f 683 684 685
f 684 686 687
f 687 686 688
f 685 687 689
f 690 691 692
f 692 693 694
f 695 692 696
f 697 690 695
f 698 699 700
f 700 701 702
f 703 700 704
f 705 698 703
f 706 707 708
f 708 709 710
f 694 708 696
f 711 712 713
f 711 713 714
f 686 711 715
f 716 717 718
f 718 719 720
f 721 718 722
f 723 716 721
f 713 724 725
f 725 726 727
f 728 725 729
f 730 713 728
f 502 731 732
f 732 731 716
f 732 716 733
f 734 735 736
f 709 735 737
f 738 683 739
f 739 685 740
f 702 739 704
f 741 742 690
f 743 741 697
f 744 745 743
f 746 147 747
f 748 147 732
f 749 748 750
f 751 747 749
f 752 753 754
f 755 753 745
f 756 755 744
f 757 754 756
f 758 137 698
f 759 758 705
f 735 758 736
f 760 746 761
f 761 747 762
f 727 761 729
f 763 752 764
f 764 754 765
f 720 764 722
f 766 767 768
f 768 769 733
f 770 768 723
f 771 766 770
f 772 771 773
f 773 770 721
f 765 773 722
f 757 772 765
f 774 775 776
f 776 777 778
f 779 774 780
f 778 781 782
f 782 783 766
f 784 782 771
f 780 778 784
f 785 780 786
f 786 784 772
f 756 786 757
f 744 785 756
f 787 779 788
f 788 780 785
f 743 788 744
f 697 787 743
f 736 789 734
f 790 789 774
f 791 790 779
f 734 790 737
f 710 737 792
f 791 779 792
f 695 792 697
f 696 710 695
f 769 767 793
f 793 794 795
f 749 793 751
f 750 769 749
f 795 796 797
f 797 798 728
f 762 797 729
f 751 795 762
f 777 775 799
f 799 800 801
f 802 799 803
f 781 777 802
f 801 804 805
f 805 806 688
f 803 801 805
f 807 805 714
f 798 807 730
f 796 803 798
f 783 781 808
f 808 802 803
f 794 808 796
f 767 783 794
f 809 705 810
f 810 703 740
f 806 810 689
f 809 810 804
f 736 759 789
f 759 705 811
f 800 811 804
f 775 789 800
f 131 130 812
f 813 47 48
f 397 459 814
f 45 131 815
f 816 390 817
f 818 121 123
f 819 259 817
f 259 46 820
f 821 385 822
f 822 387 388
f 475 474 823
f 474 158 763
f 823 763 720
f 173 149 760
f 172 173 727
f 735 134 137
f 158 152 753
f 149 147 746
f 742 153 691
f 745 152 742
f 161 491 824
f 491 490 738
f 824 738 702
f 500 499 825
f 499 134 826
f 826 134 707
f 825 826 707
f 731 501 486
f 724 482 827
f 827 483 172
f 726 827 727
f 828 485 823
f 719 828 720
f 717 486 719
f 712 169 724
f 168 712 686
f 478 477 829
f 477 500 706
f 829 706 694
f 701 159 702
f 699 138 701
f 691 153 484
f 693 484 694
f 490 830 684
f 830 168 684
f 831 832 833
f 834 835 831
f 836 837 838
f 838 839 840
f 841 842 843
f 842 844 845
f 846 847 848
f 849 846 850
f 851 852 853
f 852 854 855
f 856 857 858
f 858 859 835
f 860 861 836
f 862 841 863
f 864 863 865
f 833 866 867
f 868 866 869
f 867 866 870
f 871 850 872
f 873 872 874
f 875 871 873
f 876 838 877
f 878 876 879
f 880 881 878
f 882 883 884
f 885 886 882
f 887 888 889
f 888 853 890
f 890 891 892
f 889 890 874
f 893 834 894
f 894 867 895
f 893 894 896
f 897 898 899
f 900 897 901
f 902 903 881
f 904 902 880
f 905 906 856
f 907 851 908
f 847 908 887
f 909 849 910
f 840 910 911
f 912 913 864
f 878 879 914
f 914 915 916
f 917 914 918
f 880 878 917
f 880 917 904
f 919 917 920
f 916 875 921
f 873 874 921
f 922 921 923
f 918 916 922
f 920 918 924
f 924 922 925
f 926 924 885
f 920 924 927
f 901 899 928
f 899 904 929
f 929 919 930
f 931 928 930
f 868 869 932
f 932 933 928
f 934 932 931
f 870 868 934
f 895 870 935
f 935 934 936
f 937 935 884
f 895 935 896
f 936 931 938
f 930 927 938
f 882 938 885
f 884 936 882
f 853 939 891
f 939 886 940
f 940 886 925
f 891 940 923
f 941 858 893
f 937 941 896
f 884 942 937
f 865 863 943
f 863 900 944
f 944 900 933
f 943 944 869
f 877 911 945
f 945 910 871
f 915 945 875
f 877 945 879
f 123 813 846
f 818 123 849
f 48 49 946
f 813 48 847
f 832 459 947
f 835 814 832
f 840 812 130
f 821 822 864
f 948 395 814
f 947 471 949
f 49 51 950
f 51 54 951
f 951 952 852
f 950 951 851
f 953 391 948
f 859 948 835
f 857 953 859
f 822 388 954
f 954 955 862
f 130 849 909
f 956 817 957
f 957 820 958
f 861 957 837
f 844 956 861
f 388 816 955
f 816 817 959
f 959 956 842
f 955 959 841
f 958 46 960
f 960 815 840
f 839 960 840
f 837 958 839
f 946 950 907
f 949 864 913
f 833 947 913
f 952 54 961
f 961 392 953
f 906 961 857
f 854 952 906
f 942 856 858
f 855 854 939
f 903 860 881
f 898 844 903
f 845 844 897
f 843 845 900
f 831 833 894
f 908 853 888
f 883 905 942
f 886 854 883
f 881 836 838
f 848 887 872
f 912 865 866
f 3 2 4
f 3 5 10
f 7 3 10
f 6 1 3
f 10 9 12
f 12 11 368
f 14 12 368
f 13 10 12
f 16 7 13
f 17 13 14
f 19 16 17
f 18 15 16
f 22 8 6
f 15 6 7
f 20 22 15
f 23 21 22
f 26 24 23
f 27 23 20
f 29 26 27
f 28 25 26
f 31 20 18
f 32 18 19
f 34 31 32
f 33 27 31
f 36 29 33
f 37 33 34
f 39 36 37
f 38 35 36
f 42 30 28
f 35 28 29
f 40 42 35
f 41 42 43
f 45 133 131
f 259 44 46
f 48 47 43
f 50 43 40
f 49 43 50
f 51 50 52
f 52 40 38
f 53 38 39
f 54 52 53
f 69 55 57
f 57 56 59
f 57 59 65
f 60 58 189
f 65 59 61
f 65 61 62
f 62 61 63
f 64 63 340
f 66 62 64
f 69 57 67
f 68 65 66
f 70 67 68
f 75 68 66
f 71 66 64
f 72 64 340
f 74 71 72
f 73 66 71
f 76 75 73
f 76 74 77
f 78 77 236
f 79 76 78
f 81 70 68
f 81 75 79
f 84 83 962
f 86 82 84
f 84 962 87
f 89 84 88
f 90 86 89
f 93 90 91
f 96 85 86
f 94 96 90
f 94 95 96
f 98 87 99
f 100 99 103
f 102 98 100
f 101 88 98
f 104 103 2
f 104 2 1
f 8 104 1
f 105 100 104
f 107 102 105
f 21 105 8
f 24 107 21
f 108 106 107
f 110 89 101
f 106 101 102
f 109 110 106
f 111 91 110
f 113 93 111
f 114 111 109
f 116 113 114
f 115 112 113
f 118 109 108
f 25 108 24
f 30 118 25
f 119 114 118
f 120 116 119
f 41 119 30
f 122 117 115
f 120 115 116
f 47 122 120
f 123 121 122
f 124 97 94
f 127 124 125
f 125 94 92
f 112 92 93
f 117 125 112
f 129 127 128
f 121 128 117
f 132 126 127
f 133 129 131
f 138 136 162
f 137 134 136
f 141 140 142
f 9 142 11
f 5 141 9
f 143 139 141
f 145 144 143
f 4 143 5
f 2 145 4
f 147 140 502
f 149 146 147
f 150 962 83
f 153 150 151
f 490 154 156
f 830 156 168
f 490 156 830
f 150 87 962
f 158 150 152
f 161 160 487
f 159 162 160
f 165 164 135
f 167 163 165
f 156 155 482
f 482 155 437
f 169 156 482
f 173 148 149
f 172 171 173
f 175 166 167
f 177 174 175
f 180 179 183
f 56 178 180
f 181 179 182
f 163 182 164
f 166 181 163
f 183 181 184
f 184 166 174
f 185 174 176
f 186 184 185
f 58 180 187
f 188 183 186
f 189 187 188
f 192 191 198
f 194 190 192
f 197 196 200
f 198 195 197
f 199 197 201
f 203 201 200
f 204 201 202
f 205 192 206
f 206 198 199
f 207 199 204
f 208 206 207
f 209 176 177
f 212 209 210
f 210 177 211
f 82 211 83
f 85 210 82
f 95 212 85
f 97 213 95
f 215 193 97
f 126 215 124
f 217 216 126
f 133 217 132
f 219 216 217
f 220 217 218
f 249 219 220
f 225 221 223
f 229 226 313
f 227 226 228
f 231 228 229
f 232 228 230
f 233 223 234
f 234 222 227
f 235 234 232
f 237 236 238
f 239 238 241
f 240 78 237
f 250 242 249
f 244 242 250
f 243 239 242
f 262 243 244
f 247 243 262
f 246 245 243
f 245 240 239
f 248 81 240
f 250 220 251
f 251 218 252
f 253 252 256
f 244 251 253
f 252 218 254
f 254 133 45
f 255 45 44
f 256 254 255
f 257 255 258
f 258 44 259
f 260 259 819
f 261 258 260
f 262 256 257
f 263 257 261
f 247 262 263
f 264 231 265
f 266 265 267
f 266 268 270
f 270 269 296
f 270 296 271
f 266 270 272
f 272 271 208
f 274 232 264
f 273 274 266
f 275 273 278
f 276 274 275
f 277 273 272
f 207 272 208
f 204 277 207
f 279 278 277
f 202 277 204
f 203 279 202
f 280 278 279
f 283 278 281
f 284 275 283
f 287 286 290
f 285 294 286
f 194 289 193
f 288 290 289
f 292 287 288
f 205 288 194
f 208 292 205
f 208 291 292
f 295 294 285
f 291 285 287
f 271 295 291
f 269 295 296
f 225 298 224
f 297 300 298
f 301 300 297
f 233 297 225
f 235 301 233
f 235 299 301
f 304 303 305
f 299 303 300
f 276 305 299
f 284 305 282
f 309 307 308
f 310 308 311
f 311 302 304
f 284 311 304
f 281 311 283
f 312 200 306
f 310 306 309
f 281 312 310
f 203 312 280
f 316 317 315
f 318 316 319
f 319 294 293
f 269 319 293
f 267 319 268
f 320 229 314
f 318 314 317
f 267 320 318
f 231 320 265
f 321 188 322
f 322 186 323
f 324 323 327
f 325 322 324
f 323 185 326
f 326 176 328
f 327 326 315
f 315 328 294
f 317 324 327
f 314 325 324
f 330 249 242
f 331 242 241
f 335 330 331
f 332 241 238
f 333 238 236
f 334 332 333
f 307 331 332
f 307 334 302
f 309 330 335
f 306 196 330
f 336 236 77
f 337 77 74
f 339 336 337
f 338 333 336
f 341 340 342
f 339 72 341
f 298 342 224
f 300 341 298
f 303 339 300
f 302 338 303
f 328 209 343
f 343 212 290
f 290 213 289
f 328 343 286
f 346 63 61
f 345 63 346
f 344 340 63
f 346 60 347
f 347 189 321
f 348 321 325
f 348 346 347
f 313 348 325
f 226 345 348
f 222 344 345
f 224 344 221
f 329 219 249
f 195 214 219
f 196 195 329
f 193 215 190
f 190 214 191
f 351 350 352
f 353 352 357
f 355 351 353
f 356 351 354
f 358 357 359
f 360 359 369
f 362 358 360
f 361 353 358
f 364 355 361
f 365 361 362
f 19 364 365
f 17 363 364
f 366 354 367
f 363 354 355
f 14 367 363
f 11 367 368
f 370 369 371
f 372 371 375
f 374 370 372
f 373 360 370
f 376 375 377
f 376 378 396
f 380 376 396
f 379 372 376
f 382 374 379
f 383 379 380
f 39 382 383
f 37 381 382
f 384 362 373
f 381 373 374
f 34 384 381
f 32 365 384
f 388 387 389
f 393 392 394
f 394 54 53
f 383 53 39
f 380 394 383
f 397 395 396
f 396 391 393
f 396 393 380
f 398 69 399
f 409 399 402
f 400 399 409
f 399 69 401
f 402 401 403
f 407 402 404
f 404 403 405
f 406 405 425
f 408 404 406
f 410 409 411
f 411 402 407
f 412 407 408
f 412 410 411
f 403 401 414
f 416 70 80
f 417 414 416
f 419 415 417
f 419 417 420
f 421 420 564
f 422 419 421
f 418 403 415
f 422 423 418
f 424 405 423
f 428 427 432
f 426 154 427
f 431 430 466
f 429 432 430
f 434 429 431
f 433 428 429
f 436 155 426
f 435 436 428
f 439 437 436
f 440 436 435
f 442 439 440
f 441 438 439
f 443 435 433
f 444 433 434
f 446 443 444
f 445 440 443
f 448 442 445
f 449 445 446
f 369 448 449
f 359 447 448
f 450 170 441
f 447 441 442
f 357 450 447
f 350 450 352
f 451 434 452
f 453 452 456
f 455 451 453
f 454 444 451
f 457 456 458
f 459 458 471
f 397 457 459
f 461 455 457
f 378 461 397
f 377 460 461
f 462 446 454
f 460 454 455
f 375 462 460
f 371 449 462
f 465 464 470
f 463 466 464
f 467 470 468
f 469 386 385
f 469 470 467
f 949 469 385
f 471 469 949
f 458 465 469
f 472 431 463
f 456 472 465
f 452 431 472
f 473 99 474
f 474 87 157
f 474 157 158
f 476 175 477
f 477 167 498
f 477 498 500
f 480 148 171
f 350 171 170
f 349 479 480
f 481 140 146
f 479 146 148
f 356 481 479
f 366 142 481
f 483 437 438
f 172 438 170
f 151 83 211
f 476 211 177
f 478 151 476
f 485 144 145
f 473 145 103
f 475 485 473
f 161 488 489
f 489 154 490
f 161 489 491
f 492 164 493
f 494 493 495
f 162 492 494
f 136 135 492
f 496 495 497
f 487 497 531
f 160 494 496
f 498 165 499
f 499 135 134
f 501 140 139
f 486 501 144
f 503 55 398
f 503 400 504
f 505 178 503
f 504 410 506
f 506 413 507
f 508 507 510
f 505 506 508
f 509 508 511
f 511 510 512
f 497 512 531
f 495 511 497
f 509 179 505
f 493 182 509
f 515 514 516
f 517 516 522
f 516 518 520
f 521 519 524
f 522 520 521
f 523 521 525
f 525 524 609
f 527 525 609
f 528 525 526
f 529 522 523
f 530 523 528
f 534 532 538
f 533 487 532
f 535 538 536
f 466 535 537
f 430 534 535
f 432 533 534
f 427 488 533
f 541 540 545
f 539 537 540
f 542 577 543
f 544 543 581
f 541 542 544
f 386 544 581
f 468 541 544
f 470 539 541
f 464 466 539
f 548 547 549
f 549 551 553
f 553 552 554
f 555 554 557
f 550 553 555
f 556 555 558
f 558 557 963
f 560 558 963
f 559 556 558
f 679 550 562
f 562 550 556
f 559 562 556
f 561 679 562
f 565 564 420
f 566 420 417
f 568 565 566
f 568 563 565
f 569 417 416
f 248 416 80
f 245 569 248
f 570 566 569
f 572 568 570
f 246 570 245
f 247 572 246
f 573 571 572
f 575 567 568
f 574 575 571
f 543 576 578
f 578 574 579
f 580 579 584
f 581 578 580
f 579 573 582
f 582 247 263
f 583 263 261
f 584 582 583
f 585 583 586
f 586 261 260
f 390 260 819
f 389 586 390
f 581 580 587
f 587 584 585
f 387 585 389
f 386 587 387
f 589 560 963
f 589 963 557
f 590 588 589
f 593 557 554
f 593 554 552
f 591 589 593
f 594 591 595
f 622 595 519
f 596 595 622
f 597 590 594
f 964 594 596
f 598 594 964
f 593 552 600
f 591 600 606
f 600 601 603
f 603 602 604
f 605 604 638
f 606 603 605
f 607 606 605
f 608 605 638
f 527 607 608
f 610 591 606
f 524 610 607
f 519 595 610
f 613 612 616
f 615 611 613
f 617 616 618
f 617 598 964
f 596 617 964
f 619 613 617
f 621 615 619
f 622 619 596
f 519 621 622
f 518 620 621
f 620 614 615
f 514 623 620
f 668 627 625
f 625 627 629
f 626 625 629
f 624 668 625
f 629 628 630
f 630 602 601
f 599 630 601
f 631 629 630
f 633 626 631
f 552 631 599
f 551 632 633
f 632 624 626
f 547 634 632
f 635 530 528
f 636 528 526
f 636 527 608
f 638 636 608
f 637 635 636
f 640 637 641
f 641 638 604
f 602 641 604
f 627 641 628
f 643 639 642
f 642 639 640
f 645 561 559
f 646 644 645
f 648 560 588
f 592 648 588
f 649 645 648
f 650 649 651
f 651 592 597
f 598 651 597
f 616 651 618
f 650 646 647
f 612 650 616
f 507 652 654
f 654 653 644
f 655 644 656
f 510 654 655
f 644 653 561
f 657 646 650
f 658 650 612
f 512 655 659
f 659 656 657
f 531 659 658
f 660 577 682
f 661 575 660
f 660 682 530
f 639 660 635
f 664 643 627
f 665 567 661
f 643 661 662
f 663 665 643
f 666 563 665
f 667 564 666
f 668 666 663
f 670 667 668
f 669 421 667
f 668 663 664
f 670 668 624
f 671 670 634
f 672 634 546
f 424 669 671
f 675 671 672
f 425 671 675
f 532 658 673
f 673 658 611
f 538 611 614
f 537 623 513
f 536 538 623
f 674 425 675
f 676 675 672
f 678 674 676
f 677 406 674
f 676 672 546
f 676 546 548
f 550 676 548
f 679 678 550
f 412 677 680
f 679 677 678
f 652 679 653
f 413 680 652
f 540 537 515
f 681 515 517
f 681 540 515
f 529 545 681
f 529 681 517
f 682 542 529
f 685 684 687
f 688 686 715
f 689 687 688
f 692 691 693
f 696 692 694
f 695 690 692
f 700 699 701
f 704 700 702
f 703 698 700
f 694 706 708
f 708 707 709
f 710 709 737
f 696 708 710
f 686 712 711
f 713 712 724
f 714 713 730
f 715 711 714
f 718 717 719
f 722 718 720
f 721 716 718
f 725 724 726
f 729 725 727
f 728 713 725
f 716 731 717
f 733 716 723
f 750 732 733
f 709 707 735
f 737 735 734
f 702 738 739
f 739 683 685
f 740 685 689
f 704 739 740
f 741 745 742
f 690 742 691
f 697 741 690
f 743 745 741
f 747 147 748
f 732 147 502
f 750 748 732
f 749 747 748
f 754 753 755
f 744 755 745
f 756 754 755
f 758 735 137
f 698 137 699
f 705 758 698
f 736 758 759
f 727 760 761
f 761 746 747
f 762 747 751
f 729 761 762
f 720 763 764
f 764 752 754
f 765 754 757
f 722 764 765
f 768 767 769
f 733 769 750
f 723 768 733
f 770 766 768
f 773 771 770
f 721 770 723
f 722 773 721
f 765 772 773
f 776 775 777
f 778 777 781
f 780 776 778
f 780 774 776
f 782 781 783
f 766 783 767
f 771 782 766
f 784 778 782
f 786 780 784
f 772 784 771
f 757 786 772
f 756 785 786
f 788 779 780
f 744 788 785
f 743 787 788
f 734 789 790
f 774 789 775
f 779 790 774
f 737 790 791
f 792 737 791
f 792 779 787
f 697 792 787
f 695 710 792
f 793 767 794
f 795 794 796
f 751 793 795
f 749 769 793
f 797 796 798
f 728 798 730
f 729 797 728
f 762 795 797
f 799 775 800
f 801 800 804
f 803 799 801
f 802 777 799
f 805 804 806
f 688 806 689
f 715 805 688
f 807 803 805
f 714 805 715
f 730 807 714
f 798 803 807
f 808 781 802
f 796 808 803
f 794 783 808
f 810 705 703
f 740 703 704
f 689 810 740
f 804 810 806
f 789 759 811
f 811 705 809
f 804 811 809
f 800 789 811
f 821 949 385
f 818 130 121
f 46 45 815
f 815 131 812
f 816 388 390
f 817 390 819
f 813 123 47
f 395 397 814
f 817 259 820
f 822 385 387
f 823 474 763
f 763 158 752
f 760 149 746
f 727 173 760
f 699 137 138
f 752 158 753
f 745 753 152
f 742 152 153
f 824 491 738
f 738 490 684
f 738 684 683
f 825 499 826
f 707 134 735
f 731 502 501
f 717 731 486
f 827 482 483
f 727 827 172
f 726 724 827
f 828 486 485
f 823 485 475
f 720 828 823
f 719 486 828
f 712 168 169
f 724 169 482
f 829 477 706
f 706 500 825
f 706 825 707
f 824 159 161
f 702 159 824
f 701 138 159
f 829 484 478
f 694 484 829
f 693 691 484
f 684 168 686
f 831 835 832
f 838 837 839
f 911 838 840
f 843 842 845
f 848 847 887
f 850 846 848
f 853 852 855
f 858 857 859
f 834 858 835
f 860 844 861
f 836 861 837
f 864 862 863
f 863 841 843
f 866 865 943
f 869 866 943
f 870 866 868
f 872 887 889
f 874 872 889
f 873 871 872
f 876 881 838
f 877 838 911
f 879 876 877
f 878 881 876
f 884 883 942
f 882 886 883
f 889 888 890
f 890 853 891
f 892 891 923
f 874 890 892
f 894 833 867
f 895 867 870
f 896 894 895
f 899 898 904
f 901 897 899
f 902 898 903
f 880 902 881
f 904 898 902
f 905 854 906
f 856 906 857
f 847 907 908
f 908 851 853
f 840 909 910
f 910 849 850
f 912 833 913
f 865 912 864
f 914 879 915
f 916 915 875
f 918 914 916
f 917 878 914
f 904 917 919
f 920 917 918
f 919 920 927
f 921 875 873
f 921 874 892
f 923 921 892
f 922 916 921
f 924 918 922
f 925 922 923
f 885 924 925
f 927 924 926
f 928 899 929
f 929 904 919
f 930 919 927
f 930 928 929
f 932 869 933
f 928 933 901
f 931 932 928
f 934 868 932
f 935 870 934
f 936 934 931
f 884 935 936
f 896 935 937
f 938 931 930
f 938 927 926
f 885 938 926
f 882 936 938
f 891 939 940
f 925 886 885
f 923 940 925
f 941 942 858
f 893 858 834
f 896 941 893
f 937 942 941
f 943 863 944
f 933 900 901
f 869 944 933
f 945 911 910
f 871 910 850
f 875 945 871
f 879 945 915
f 846 813 847
f 849 123 846
f 840 815 812
f 847 48 946
f 947 459 471
f 832 814 459
f 130 818 849
f 948 391 395
f 835 948 814
f 949 821 864
f 950 51 951
f 951 54 952
f 852 952 854
f 851 951 852
f 859 953 948
f 864 822 954
f 954 388 955
f 862 955 841
f 864 954 862
f 909 840 130
f 957 817 820
f 958 820 46
f 837 957 958
f 861 956 957
f 833 832 947
f 955 816 959
f 959 817 956
f 842 956 844
f 841 959 842
f 960 46 815
f 839 958 960
f 946 49 950
f 907 950 851
f 847 946 907
f 913 947 949
f 961 54 392
f 953 392 391
f 857 961 953
f 906 952 961
f 863 843 900
f 939 854 886
f 853 855 939
f 881 860 836
f 903 844 860
f 897 844 898
f 900 845 897
f 894 834 831
f 887 908 888
f 942 905 856
f 883 854 905
f 872 850 848
f 833 912 866
